<?xml version="1.0" encoding="UTF-8" standalone="no"?>
<!-- Created with Inkscape (http://www.inkscape.org/) -->

<svg
   width="191.33128mm"
   height="144.29179mm"
   viewBox="0 0 191.33128 144.29179"
   version="1.1"
   id="svg5"
   inkscape:version="1.1 (c68e22c387, 2021-05-23)"
   sodipodi:docname="kbaseball.svg"
   xmlns:inkscape="http://www.inkscape.org/namespaces/inkscape"
   xmlns:sodipodi="http://sodipodi.sourceforge.net/DTD/sodipodi-0.dtd"
   xmlns="http://www.w3.org/2000/svg"
   xmlns:svg="http://www.w3.org/2000/svg">
  <sodipodi:namedview
     id="namedview7"
     pagecolor="#ffffff"
     bordercolor="#666666"
     borderopacity="1.0"
     inkscape:pageshadow="2"
     inkscape:pageopacity="0.0"
     inkscape:pagecheckerboard="0"
     inkscape:document-units="mm"
     showgrid="false"
     fit-margin-top="0"
     fit-margin-left="0"
     fit-margin-right="0"
     fit-margin-bottom="0"
     inkscape:zoom="1.5554293"
     inkscape:cx="98.686582"
     inkscape:cy="300.88157"
     inkscape:window-width="3840"
     inkscape:window-height="2126"
     inkscape:window-x="-11"
     inkscape:window-y="-11"
     inkscape:window-maximized="1"
     inkscape:current-layer="layer1" />
  <defs
     id="defs2" />
  <g
     inkscape:label="Calque 1"
     inkscape:groupmode="layer"
     id="layer1"
     transform="translate(-11.519335,-60.161957)">
    <path
       style="fill:#000000;stroke-width:0.0994599"
       id="ball-32"
       d="m 113.9416,128.37346 c 0.80199,-1.42149 1.33494,-1.95871 2.54238,-2.56272 1.86373,-0.9323 3.6304,-0.90031 5.40793,0.0979 1.69262,0.95057 2.8407,2.98307 2.83865,5.02543 -4e-4,0.38955 -0.10655,0.88394 -0.36252,1.6882 -0.33356,1.04837 -0.40532,1.19174 -0.9162,1.83268 -1.46278,1.83524 -4.10702,2.55117 -6.35823,1.72151 -1.01407,-0.37371 -1.61284,-0.7802 -2.30262,-1.56316 -1.0767,-1.22211 -1.51206,-2.4403 -1.40446,-3.92982 0.0817,-1.13069 0.2241,-1.72343 0.55507,-2.31006 z m 1.63616,0.908 c 0.2574,0.33688 0.37141,0.68002 0.62644,1.88555 0.35633,1.68443 1.01585,2.43484 2.26757,2.58008 0.62157,0.0721 0.89762,-0.0317 1.3025,-0.4898 0.43368,-0.49069 0.4747,-1.05314 0.14261,-1.95476 -0.1445,-0.39229 -0.33488,-0.76371 -0.42307,-0.82539 -0.0882,-0.0617 -0.30428,-0.40665 -0.48021,-0.76663 -0.25662,-0.52508 -0.30566,-0.74599 -0.24797,-1.1173 0.0396,-0.25454 0.137,-0.57101 0.21683,-0.70315 0.0796,-0.13221 0.23493,-0.39978 0.3451,-0.5946 0.11019,-0.19481 0.25761,-0.43652 0.32766,-0.53711 0.18525,-0.26601 0.0614,-0.3405 -0.62065,-0.37318 -1.20231,-0.0576 -2.62085,0.65053 -3.50972,1.75212 -0.35963,0.44568 -0.35182,0.61434 0.053,1.14421 z m -0.88734,1.72046 c -0.01,0.66722 0.28431,1.56274 0.74057,2.25703 0.3682,0.56032 1.12459,1.23967 1.52332,1.36818 0.13991,0.0447 0.34235,0.15121 0.45009,0.23596 0.30399,0.23898 1.99056,0.45366 2.54953,0.32452 0.97207,-0.22458 2.11662,-0.89587 2.64929,-1.55382 0.51263,-0.63319 0.92979,-1.67983 1.01566,-2.54819 0.13641,-1.37945 -0.88842,-3.35696 -2.03525,-3.92726 -0.37302,-0.1855 -0.40727,-0.1814 -0.93957,0.11203 -0.42767,0.23577 -0.59795,0.39832 -0.75389,0.71965 -0.31154,0.64204 -0.30497,0.98828 0.0283,1.51158 1.09107,1.71261 1.30909,2.43212 1.02136,3.37075 -0.24308,0.79337 -0.50934,1.10024 -1.2577,1.45029 -0.94319,0.4412 -1.89285,0.3345 -2.87071,-0.32253 -0.80174,-0.53868 -1.09918,-1.18426 -1.36852,-2.97032 -0.0742,-0.49218 -0.29252,-0.86186 -0.50109,-0.8486 -0.20541,0.013 -0.24161,0.13118 -0.25161,0.82068 z" />
    <path
       style="fill:#000000;stroke-width:0.140457"
       d="m 181.78873,165.68637 c -1.4544,-0.26852 -3.3345,-0.97805 -4.05904,-2.34895 -0.839,-1.31611 -0.9494,-2.45703 -0.92233,-3.40591 0.089,-2.84364 0.83928,-3.64114 2.94652,-4.98407 0.77599,-0.50845 3.00891,-0.7496 3.93102,-0.42455 0.309,0.10893 0.89433,0.30109 1.30074,0.42703 1.63524,0.72175 2.93418,2.52725 3.19137,4.29553 0.30152,2.40118 -0.7415,4.88984 -3.55297,6.12117 -1.00574,0.26303 -1.89635,0.46527 -2.8353,0.31975 z m 0.47823,-1.33009 c 0.0984,-0.25639 -0.29982,-0.96821 -0.78549,-1.4041 -0.97157,-0.87197 -2.52133,-1.31165 -2.92192,-0.82897 -0.14438,0.17397 -0.0532,0.32682 0.54251,0.91019 0.69979,0.68522 1.1976,0.97212 2.33552,1.34601 0.73262,0.24072 0.72809,0.24085 0.82938,-0.0232 z m 2.22747,-0.37041 c 1.03217,-0.54973 2.02194,-1.58765 2.28357,-3.09005 0.0493,-0.27853 0.0171,-0.79843 0.005,-0.94836 -0.17743,0.42044 -2.1347,0.63389 -3.06542,0.53878 -2.43143,-0.77696 -3.24064,-1.85561 -3.51743,-3.97973 0.0637,-0.31923 0.33273,-0.96228 -0.41274,-0.48945 -1.89891,1.46923 -2.03901,3.01789 -1.68722,4.75373 2.22397,0.0315 4.27361,0.90881 5.09809,2.65321 0.36771,0.79177 0.65907,0.91803 1.29637,0.56183 z m 0.91319,-4.67338 c 0.30679,-0.12275 0.69297,-0.37866 0.85818,-0.56867 0.28102,-0.32319 0.28709,-0.37735 0.094,-0.83949 -0.80049,-1.40897 -1.75045,-2.0519 -3.10169,-2.31178 -0.71789,-0.19879 -0.87248,-0.2293 -1.33609,0.28998 -0.58326,0.65329 -0.56724,1.39615 0.0476,2.20679 0.94743,1.24919 2.23135,1.70599 3.43803,1.22317 z"
       id="ball-13"
       sodipodi:nodetypes="ccccscccccsssssssccccccccccsscccsss" />
    <path
       style="fill:#000000;stroke-width:0.140457"
       d="m 118.12765,175.33971 c -1.4544,-0.26852 -3.3345,-0.97805 -4.05904,-2.34895 -0.839,-1.31611 -0.9494,-2.45703 -0.92233,-3.40591 0.089,-2.84364 0.83928,-3.64114 2.94652,-4.98406 0.77599,-0.50845 3.00891,-0.7496 3.93102,-0.42455 0.309,0.10893 0.89433,0.30109 1.30074,0.42703 1.63524,0.72175 2.93418,2.52724 3.19137,4.29553 0.30152,2.40117 -0.7415,4.88983 -3.55297,6.12117 -1.00574,0.26302 -1.89635,0.46527 -2.8353,0.31975 z m 0.47823,-1.33009 c 0.0984,-0.25639 -0.29982,-0.96821 -0.78549,-1.4041 -0.97157,-0.87197 -2.52133,-1.31165 -2.92192,-0.82897 -0.14438,0.17397 -0.0532,0.32682 0.54251,0.91019 0.69979,0.68522 1.1976,0.97212 2.33552,1.34602 0.73262,0.24071 0.72809,0.24085 0.82938,-0.0232 z m 2.22747,-0.37041 c 1.03217,-0.54973 2.02194,-1.58765 2.28357,-3.09005 0.0493,-0.27853 0.0171,-0.79843 0.005,-0.94836 -0.17743,0.42044 -2.1347,0.63389 -3.06542,0.53878 -2.43143,-0.77696 -3.24064,-1.85561 -3.51743,-3.97973 0.0637,-0.31923 0.33273,-0.96227 -0.41274,-0.48945 -1.89891,1.46923 -2.03901,3.01789 -1.68722,4.75373 2.22397,0.0315 4.27361,0.90881 5.09809,2.65321 0.36771,0.79177 0.65907,0.91803 1.29637,0.56183 z m 0.91319,-4.67338 c 0.30679,-0.12275 0.69297,-0.37866 0.85818,-0.56867 0.28102,-0.32319 0.28709,-0.37735 0.094,-0.83949 -0.80049,-1.40896 -1.75045,-2.0519 -3.10169,-2.31178 -0.71789,-0.19879 -0.87248,-0.2293 -1.33609,0.28999 -0.58326,0.65328 -0.56724,1.39615 0.0476,2.20678 0.94743,1.24919 2.23135,1.70599 3.43803,1.22317 z"
       id="ball-33"
       sodipodi:nodetypes="ccccscccccsssssssccccccccccsscccsss" />
    <path
       style="fill:#000000;stroke-width:0.140457"
       d="m 180.94919,109.87129 c -1.4544,-0.26852 -3.3345,-0.97805 -4.05904,-2.34895 -0.839,-1.31611 -0.9494,-2.45703 -0.92233,-3.40591 0.089,-2.84364 0.83928,-3.64114 2.94652,-4.984066 0.77599,-0.508447 3.00891,-0.749601 3.93102,-0.42455 0.309,0.108927 0.89433,0.301093 1.30074,0.427029 1.63524,0.721752 2.93418,2.527247 3.19137,4.295527 0.30152,2.40118 -0.7415,4.88984 -3.55297,6.12117 -1.00574,0.26303 -1.89635,0.46527 -2.8353,0.31975 z m 0.47823,-1.33009 c 0.0984,-0.25639 -0.29982,-0.96821 -0.78549,-1.4041 -0.97157,-0.87197 -2.52133,-1.31165 -2.92192,-0.82897 -0.14438,0.17397 -0.0532,0.32682 0.54251,0.91019 0.69979,0.68522 1.1976,0.97212 2.33552,1.34601 0.73262,0.24072 0.72809,0.24085 0.82938,-0.0232 z m 2.22747,-0.37041 c 1.03217,-0.54973 2.02194,-1.58765 2.28357,-3.09005 0.0493,-0.27853 0.0171,-0.79843 0.005,-0.94836 -0.17743,0.42044 -2.1347,0.63389 -3.06542,0.53878 -2.43143,-0.77696 -3.24064,-1.85561 -3.51743,-3.97973 0.0637,-0.31923 0.33273,-0.962273 -0.41274,-0.48945 -1.89891,1.46923 -2.03901,3.01789 -1.68722,4.75373 2.22397,0.0315 4.27361,0.90881 5.09809,2.65321 0.36771,0.79177 0.65907,0.91803 1.29637,0.56183 z m 0.91319,-4.67338 c 0.30679,-0.12275 0.69297,-0.37866 0.85818,-0.56867 0.28102,-0.32319 0.28709,-0.37735 0.094,-0.83949 -0.80049,-1.40897 -1.75045,-2.0519 -3.10169,-2.31178 -0.71789,-0.198791 -0.87248,-0.2293 -1.33609,0.28998 -0.58326,0.65329 -0.56724,1.39615 0.0476,2.20679 0.94743,1.24919 2.23135,1.70599 3.43803,1.22317 z"
       id="ball-11"
       sodipodi:nodetypes="ccccscccccsssssssccccccccccsscccsss" />
    <path
       style="fill:#000000;stroke-width:0.140457"
       d="m 116.93693,98.580704 c -1.4544,-0.26852 -3.3345,-0.97805 -4.05904,-2.34895 -0.839,-1.31611 -0.9494,-2.45703 -0.92233,-3.40591 0.089,-2.84364 0.83928,-3.64114 2.94652,-4.98407 0.77599,-0.50845 3.00891,-0.7496 3.93102,-0.42455 0.309,0.10893 0.89433,0.30109 1.30074,0.42703 1.63524,0.72175 2.93418,2.52725 3.19137,4.29553 0.30152,2.40118 -0.7415,4.88984 -3.55297,6.12117 -1.00574,0.26303 -1.89635,0.46527 -2.8353,0.31975 z m 0.47823,-1.33009 c 0.0984,-0.25639 -0.29982,-0.96821 -0.78549,-1.4041 -0.97157,-0.87197 -2.52133,-1.31165 -2.92192,-0.82897 -0.14438,0.17397 -0.0532,0.32682 0.54251,0.91019 0.69979,0.68522 1.1976,0.97212 2.33552,1.34601 0.73262,0.24072 0.72809,0.24085 0.82938,-0.0232 z m 2.22747,-0.37041 c 1.03217,-0.54973 2.02194,-1.58765 2.28357,-3.09006 0.0493,-0.27853 0.0171,-0.79842 0.005,-0.94835 -0.17743,0.42044 -2.1347,0.63388 -3.06542,0.53878 -2.43143,-0.77696 -3.24064,-1.85561 -3.51743,-3.97973 0.0637,-0.31923 0.33273,-0.96228 -0.41274,-0.48946 -1.89891,1.46923 -2.03901,3.01789 -1.68722,4.75374 2.22397,0.0315 4.27361,0.90881 5.09809,2.65321 0.36771,0.79177 0.65907,0.91803 1.29637,0.56183 z m 0.91319,-4.67338 c 0.30679,-0.12275 0.69297,-0.37866 0.85818,-0.56867 0.28102,-0.32319 0.28709,-0.37735 0.094,-0.83949 -0.80049,-1.40897 -1.75045,-2.0519 -3.10169,-2.31178 -0.71789,-0.1988 -0.87248,-0.2293 -1.33609,0.28998 -0.58326,0.65329 -0.56724,1.39615 0.0476,2.20679 0.94743,1.24919 2.23135,1.70599 3.43803,1.22317 z"
       id="ball-31"
       sodipodi:nodetypes="ccccscccccsssssssccccccccccsscccsss" />
    <path
       style="fill:#000000;stroke-width:0.140457"
       d="m 85.085116,136.30106 c -1.4544,-0.26852 -3.3345,-0.97805 -4.05904,-2.34895 -0.838995,-1.31611 -0.949395,-2.45703 -0.922325,-3.40591 0.089,-2.84364 0.839275,-3.64114 2.946515,-4.98407 0.77599,-0.50844 3.00891,-0.7496 3.93102,-0.42455 0.309,0.10893 0.89433,0.3011 1.30074,0.42703 1.63524,0.72176 2.93418,2.52725 3.19137,4.29553 0.30152,2.40118 -0.7415,4.88984 -3.55297,6.12117 -1.00574,0.26303 -1.89635,0.46527 -2.8353,0.31975 z m 0.47823,-1.33009 c 0.0984,-0.25639 -0.29982,-0.96821 -0.78549,-1.4041 -0.97157,-0.87197 -2.52133,-1.31165 -2.92192,-0.82897 -0.14438,0.17397 -0.0532,0.32682 0.54251,0.91019 0.69979,0.68522 1.1976,0.97212 2.33552,1.34601 0.73262,0.24072 0.72809,0.24085 0.82938,-0.0232 z m 2.22747,-0.37041 c 1.03218,-0.54973 2.02194,-1.58765 2.28357,-3.09005 0.0493,-0.27853 0.0171,-0.79843 0.005,-0.94836 -0.17742,0.42044 -2.1347,0.63389 -3.06541,0.53878 -2.43144,-0.77696 -3.24065,-1.85561 -3.51743,-3.97973 0.0637,-0.31923 0.33273,-0.96227 -0.41275,-0.48945 -1.89891,1.46923 -2.039,3.01789 -1.68721,4.75373 2.22397,0.0315 4.2736,0.90881 5.09809,2.65321 0.36771,0.79177 0.65907,0.91803 1.29637,0.56183 z m 0.91319,-4.67338 c 0.30679,-0.12275 0.69297,-0.37866 0.85818,-0.56867 0.28102,-0.32319 0.28709,-0.37735 0.094,-0.83949 -0.80049,-1.40897 -1.75045,-2.0519 -3.10169,-2.31178 -0.71789,-0.19879 -0.87248,-0.2293 -1.33609,0.28998 -0.58326,0.65329 -0.56724,1.39615 0.0476,2.20679 0.94743,1.24919 2.23135,1.70599 3.43803,1.22317 z"
       id="ball-42"
       sodipodi:nodetypes="ccccscccccsssssssccccccccccsscccsss" />
    <path
       style="fill:#000000;stroke-width:0.140457"
       d="m 149.63925,137.57683 c -1.4544,-0.26852 -3.3345,-0.97805 -4.05904,-2.34895 -0.839,-1.31611 -0.9494,-2.45703 -0.92233,-3.40591 0.089,-2.84364 0.83928,-3.64114 2.94652,-4.98407 0.77599,-0.50844 3.00891,-0.7496 3.93102,-0.42455 0.309,0.10893 0.89433,0.3011 1.30074,0.42703 1.63524,0.72175 2.93418,2.52725 3.19137,4.29553 0.30152,2.40118 -0.7415,4.88984 -3.55297,6.12117 -1.00574,0.26303 -1.89635,0.46527 -2.8353,0.31975 z m 0.47823,-1.33009 c 0.0984,-0.25639 -0.29982,-0.96821 -0.78549,-1.4041 -0.97157,-0.87197 -2.52133,-1.31165 -2.92192,-0.82897 -0.14438,0.17397 -0.0532,0.32682 0.54251,0.91019 0.69979,0.68522 1.1976,0.97212 2.33552,1.34601 0.73262,0.24072 0.72809,0.24085 0.82938,-0.0232 z m 2.22747,-0.37041 c 1.03217,-0.54973 2.02194,-1.58765 2.28357,-3.09005 0.0493,-0.27853 0.0171,-0.79843 0.005,-0.94836 -0.17743,0.42044 -2.1347,0.63389 -3.06542,0.53878 -2.43143,-0.77696 -3.24064,-1.85561 -3.51743,-3.97973 0.0637,-0.31923 0.33273,-0.96227 -0.41274,-0.48945 -1.89891,1.46923 -2.03901,3.01789 -1.68722,4.75373 2.22397,0.0315 4.27361,0.90881 5.09809,2.65321 0.36771,0.79177 0.65907,0.91803 1.29637,0.56183 z m 0.91319,-4.67338 c 0.30679,-0.12275 0.69297,-0.37866 0.85818,-0.56867 0.28102,-0.32319 0.28709,-0.37735 0.094,-0.83949 -0.80049,-1.40897 -1.75045,-2.0519 -3.10169,-2.31178 -0.71789,-0.19879 -0.87248,-0.2293 -1.33609,0.28998 -0.58326,0.65329 -0.56724,1.39615 0.0476,2.20679 0.94743,1.24919 2.23135,1.70599 3.43803,1.22317 z"
       id="ball-22"
       sodipodi:nodetypes="ccccscccccsssssssccccccccccsscccsss" />
    <path
       style="fill:#000000;stroke-width:0.189237"
       d="m 48.560716,110.99308 c -1.387619,-0.64382 -2.50006,-1.82725 -3.355407,-3.56952 -0.72863,-1.48416 -0.792936,-1.73734 -0.800059,-3.14994 -0.0084,-1.67785 0.157743,-2.9483 0.459468,-3.51208 0.251724,-0.47036 -0.256745,-0.61477 -0.957724,-0.27202 -1.326538,0.64863 -4.6704,0.48611 -5.565084,-0.27047 -1.075994,-0.909914 -1.855341,-3.016563 -1.658825,-4.483972 0.07828,-0.584548 0.879907,-2.087803 1.373528,-2.575709 0.170031,-0.168064 0.49538,-0.405241 0.723008,-0.527065 0.227621,-0.121818 0.413859,-0.337408 0.413859,-0.47908 0,-0.24081 1.174759,-1.402552 1.473173,-1.456852 0.535304,-0.09741 3.186435,-0.115924 4.156625,-0.02904 0.820007,0.07344 1.182734,0.184965 1.182734,0.363643 0,0.3153 0.452202,0.332859 1.001482,0.03891 0.224889,-0.120358 0.690358,-0.282314 1.034375,-0.359902 0.57128,-0.128841 0.676897,-0.07708 1.218853,0.597307 0.641007,0.79765 1.080478,0.939887 1.222773,0.395757 0.05629,-0.21524 0.402486,-0.426311 0.931182,-0.567711 1.249815,-0.334276 1.32191,-0.304601 1.536313,0.632331 0.183749,0.802992 0.166126,0.881088 -0.277493,1.230047 -0.5758,0.452924 -0.947082,0.470447 -1.394206,0.0658 -0.528902,-0.478651 -0.91943,-0.201229 -0.888146,0.63093 0.05443,1.448569 0.01509,1.530663 -0.956902,1.995846 -0.768318,0.367706 -0.888025,0.491096 -0.70964,0.731463 0.298692,0.402486 1.054251,0.564006 1.381438,0.295309 0.150248,-0.123383 0.519862,-0.451622 0.821359,-0.729416 0.520971,-0.480003 1.323434,-0.561968 1.323434,-0.135178 0,0.26673 0.730854,0.924116 1.027394,0.924116 0.197331,0 0.261279,-0.217429 0.236547,-0.804258 -0.02725,-0.646343 0.02804,-0.799609 0.281677,-0.78057 0.575293,0.0432 2.239124,1.251289 2.239124,1.625832 0,0.475525 -1.057441,0.92546 -1.647646,0.701065 -0.517981,-0.196938 -0.534288,-0.124915 -0.116181,0.513189 0.254349,0.388182 0.273238,0.556332 0.09462,0.842344 -0.12274,0.196537 -0.223165,0.543393 -0.223165,0.77079 0,0.2274 -0.149024,0.578264 -0.331164,0.779694 -0.285375,0.3156 -0.335513,0.81481 -0.362641,3.6104 -0.01731,1.7843 -0.03912,3.4415 -0.04835,3.68268 -0.04027,1.04449 -1.12596,2.68207 -2.171585,3.27538 -0.595698,0.33801 -1.94016,0.33798 -2.668718,-5e-5 z m -0.02046,-1.90864 c -0.461064,-0.39209 -1.209598,-1.4475 -1.209598,-1.70549 0,-0.23903 -0.38103,-0.93109 -0.709355,-1.28836 -0.129942,-0.1414 -0.2882,-0.46403 -0.351677,-0.71695 -0.07406,-0.2951 -0.25093,-0.45986 -0.49362,-0.45986 -0.283931,0 -0.345562,0.0826 -0.247247,0.33116 0.07203,0.18214 0.178986,0.62921 0.237677,0.99349 0.136873,0.84959 0.866053,2.26168 1.417908,2.74585 0.573676,0.50332 1.541828,0.85743 1.639764,0.59977 0.04077,-0.10733 -0.08694,-0.33215 -0.283852,-0.49961 z m 3.379402,-0.42206 c 0.434872,-0.5046 0.448676,-2.40296 0.02396,-3.29795 -0.509255,-1.07316 -1.200486,-1.42652 -3.011504,-1.53951 l -1.590764,-0.0992 0.02811,1.06714 c 0.01545,0.58693 0.0769,1.06781 0.136572,1.06862 0.138626,0.002 0.581587,0.94897 0.581587,1.24347 0,0.30625 1.317275,1.63699 1.894749,1.91411 0.61345,0.29439 1.520078,0.12748 1.937298,-0.35664 z m 0.448619,-5.97214 c -0.155333,-0.28621 -0.433206,-1.03134 -0.617498,-1.65582 -0.37985,-1.287154 -1.068355,-2.197426 -1.406386,-1.859389 -0.115795,0.115796 -0.249599,0.792245 -0.297334,1.503219 -0.08435,1.25637 0.03641,2.30273 0.242055,2.0971 0.05579,-0.0558 0.413586,0.0133 0.795045,0.15357 0.381466,0.14028 0.889985,0.26105 1.130051,0.26839 0.419001,0.0128 0.425174,-0.008 0.154067,-0.50707 z m -12.98557,-3.788947 c 0,-0.05607 -0.208924,-0.375909 -0.464275,-0.710699 -0.255357,-0.334784 -0.564979,-1.024076 -0.688062,-1.531758 -0.260192,-1.073269 -0.464375,-1.369029 -0.748785,-1.084612 -0.233164,0.233156 -0.353465,1.770071 -0.138561,1.770071 0.08102,0 0.147316,0.123505 0.147316,0.274454 0,0.150948 0.114329,0.34255 0.25407,0.425781 0.139733,0.08323 0.399103,0.376517 0.576379,0.65175 0.223673,0.347271 0.435487,0.470819 0.692118,0.40371 0.203389,-0.05321 0.3698,-0.142602 0.3698,-0.198697 z m 3.222368,0.04506 c 0.126638,-0.152579 0.34755,-0.277422 0.490931,-0.277422 0.405033,0 0.335205,-1.761374 -0.103965,-2.622206 -0.20055,-0.393117 -0.498599,-0.825937 -0.662329,-0.961816 -0.163722,-0.135885 -0.297684,-0.354258 -0.297684,-0.485281 0,-0.33326 -1.220942,-1.229331 -1.675032,-1.229331 -1.107156,0 -1.626418,0.845104 -1.357743,2.209728 0.349402,1.774634 0.563184,2.23406 1.357564,2.917473 0.859667,0.739587 1.843897,0.936082 2.248258,0.448855 z m 2.830601,-1.924324 c 1.520207,-1.064794 2.048817,-2.462589 1.562284,-4.131148 -0.234351,-0.803715 -0.293558,-0.863214 -0.764913,-0.768762 -0.280991,0.05629 -1.192154,0.121217 -2.024792,0.144233 -0.832646,0.02303 -1.57646,0.131795 -1.652925,0.241732 -0.256287,0.368464 -0.148459,1.024762 0.186338,1.134135 0.433642,0.141665 1.174638,1.299266 1.251582,1.955236 0.06902,0.58836 0.626146,1.746819 0.840084,1.746819 0.07825,0 0.349302,-0.145012 0.602342,-0.322245 z M 56.874337,96.5276 c -0.06423,-0.167392 -0.298471,-0.362005 -0.520535,-0.43249 -0.58316,-0.185079 -1.984124,-1.39638 -2.412359,-2.085758 -0.644777,-1.037958 -0.831987,-6.316165 -0.22403,-6.316165 0.40966,0 0.262302,-1.07578 -0.22702,-1.657302 -0.44716,-0.53142 -0.478244,-0.888869 -0.152093,-1.748965 0.05922,-0.156119 0.09287,-0.379856 0.07483,-0.497189 -0.03612,-0.235002 1.346986,-0.638233 2.189215,-0.638233 0.294037,0 0.843224,-0.209711 1.22042,-0.466027 l 0.685816,-0.46602 0.0916,0.60795 c 0.13698,0.909174 -0.07721,3.535164 -0.299551,3.67258 -0.116553,0.07203 -0.147208,-0.0021 -0.07681,-0.185393 0.07783,-0.202824 0.03447,-0.273553 -0.12912,-0.210763 -0.135443,0.052 -0.530276,-0.22898 -0.877411,-0.624343 -0.496203,-0.565151 -0.566317,-0.731326 -0.327925,-0.777237 0.16677,-0.03211 0.349274,-0.178399 0.405555,-0.32507 0.07986,-0.20811 -0.0309,-0.242004 -0.504284,-0.15436 -0.333646,0.0618 -0.718031,0.215905 -0.854188,0.342529 -0.327274,0.304343 -0.10388,1.185988 0.36395,1.436361 0.517402,0.276907 0.432833,0.587873 -0.305624,1.123771 -0.629671,0.456951 -0.877046,1.169617 -0.489186,1.409332 0.09522,0.05886 0.564328,-0.191595 1.042436,-0.556546 0.478114,-0.364952 0.991275,-0.663552 1.14035,-0.663552 0.149081,0 0.323682,-0.08516 0.388003,-0.189234 0.0643,-0.10408 0.32183,-0.189235 0.572224,-0.189235 0.250394,0 0.537049,-0.152823 0.637009,-0.339597 0.106383,-0.198768 0.14022,-1.513176 0.08161,-3.169719 -0.05507,-1.556569 -0.09658,-2.979155 -0.09223,-3.161294 0.0092,-0.384928 -0.05343,-0.400362 -0.548722,-0.135264 -0.201315,0.107742 -0.366031,0.366203 -0.366031,0.574363 0,1.13264 -1.668931,2.155635 -3.779178,2.316504 -0.285833,0.02181 -0.560995,0.21951 -0.70801,0.508741 -0.288623,0.567811 -0.219725,2.560046 0.109723,3.172473 0.161011,0.299329 0.176918,0.613156 0.05278,1.040804 -0.565257,1.947019 -1.869881,3.151603 -1.790355,1.653068 0.01931,-0.364279 0.07438,-1.60946 0.122318,-2.767061 0.04792,-1.157602 0.18116,-2.280328 0.296018,-2.494946 0.484581,-0.905449 -0.03333,-1.336051 -0.786842,-0.654161 -0.345161,0.312361 -0.375622,0.31161 -0.614622,-0.01523 -0.330092,-0.451423 -0.198197,-1.114731 0.484101,-2.434567 0.307168,-0.594203 0.558491,-1.205507 0.558491,-1.358458 0,-0.152944 0.118742,-0.396822 0.263862,-0.541949 0.145119,-0.145119 0.439299,-0.648975 0.653731,-1.11968 0.503376,-1.104982 1.177628,-1.876818 2.583298,-2.95719 0.624479,-0.479967 1.178,-0.924508 1.230039,-0.98787 0.05207,-0.06337 0.584269,-0.311403 1.182728,-0.551204 0.598465,-0.239801 1.088009,-0.48998 1.087888,-0.555953 -1.29e-4,-0.06594 1.000466,-0.06437 2.223532,0.0036 2.231807,0.123964 3.978905,0.488822 4.560949,0.952482 0.342694,0.273002 0.978258,0.649876 1.773855,1.051848 0.547649,0.276699 2.228402,2.13219 2.228402,2.460071 0,0.250752 1.175289,0.437597 1.40394,0.223201 0.09565,-0.08969 0.185973,-1.038566 0.200728,-2.108624 0.02303,-1.667986 0.0983,-2.101592 0.527837,-3.039283 0.556632,-1.215141 0.912822,-1.650206 1.351027,-1.650206 0.161456,0 0.634313,-0.136344 1.050797,-0.302992 0.719947,-0.288064 2.616327,-0.417792 3.224384,-0.220568 0.15612,0.05064 0.641859,0.156827 1.079413,0.235989 1.323927,0.239515 1.433292,0.516178 0.861755,2.179946 -0.26816,0.780598 -0.537858,1.461851 -0.599339,1.513891 -0.350983,0.297083 -0.149368,0.567711 0.422942,0.567711 0.642667,0 1.184608,0.423714 1.61785,1.264914 0.329505,0.639777 0.263468,1.70422 -0.123377,1.988694 -0.18495,0.136 -0.674601,0.669016 -1.088117,1.184472 -0.413515,0.515457 -1.033738,1.230598 -1.37827,1.589198 -0.344539,0.3586 -0.885693,1.165597 -1.202567,1.793323 -0.599503,1.187605 -1.771352,2.473375 -2.450774,2.689016 -0.693169,0.220003 -2.092016,-0.08975 -2.195688,-0.486197 -0.1573,-0.60152 -1.590764,-0.147294 -2.557493,0.810402 -0.183856,0.182139 -0.455892,0.331164 -0.604524,0.331164 -0.550967,0 -0.561667,1.814201 -0.02403,4.071362 0.66554,2.793997 0.644927,2.66919 0.483915,2.929711 -0.289281,0.468059 -0.960707,-0.05386 -1.889657,-1.468882 -0.52213,-0.795339 -0.949327,-1.641616 -0.949327,-1.880616 0,-0.239001 -0.0909,-0.434543 -0.201995,-0.434543 -0.23267,0 -0.03018,-0.815859 0.227006,-0.914646 0.09032,-0.03469 0.164223,-0.183721 0.164223,-0.331165 0,-0.147451 0.08303,-0.268088 0.184507,-0.268088 0.104066,0 0.135021,-0.247418 0.07102,-0.567504 -0.103944,-0.519697 -0.05171,-0.593144 0.619751,-0.871932 0.403288,-0.167435 0.801347,-0.422999 0.884578,-0.567919 0.08323,-0.144919 0.27484,-0.263489 0.425789,-0.263489 0.150948,0 0.274446,-0.08129 0.274446,-0.180638 0,-0.170159 0.285748,-0.474874 1.379114,-1.470627 0.700851,-0.63829 0.352164,-1.949572 -0.361017,-1.357679 -0.229695,0.19063 -0.320107,0.191946 -0.434837,0.0064 -0.07967,-0.128898 -0.222199,-0.215905 -0.316745,-0.193332 -0.09454,0.02253 -0.400326,-0.02332 -0.679515,-0.101942 -0.396107,-0.111561 -0.774705,0.0036 -1.723381,0.525105 -1.583791,0.870309 -2.46382,0.870388 -2.878243,2.86e-4 -0.156206,-0.327981 -0.28401,-0.696995 -0.28401,-0.820035 0,-0.123048 -0.106447,-0.188405 -0.236546,-0.145234 -0.1301,0.04313 -0.284947,0.434178 -0.344096,0.868921 -0.09895,0.727207 -0.06108,0.820115 0.473094,1.161321 0.319348,0.203982 0.777544,0.51522 1.018203,0.691645 1.255631,0.920468 4.355894,-0.134827 4.381685,-1.491483 0.0064,-0.345919 0.289638,-0.448948 0.462959,-0.168508 0.160054,0.25897 -0.329397,1.152016 -0.696423,1.270679 -0.183906,0.05944 -0.454226,0.394941 -0.600704,0.745516 -0.173757,0.415854 -0.528796,0.771308 -1.021473,1.022653 -0.570765,0.291183 -0.809364,0.559579 -0.977228,1.09926 -0.195514,0.628584 -0.861211,2.175511 -1.342616,3.119925 -0.09092,0.17837 -0.118434,0.689314 -0.06115,1.135422 0.100497,0.782565 0.06544,0.851606 -0.996167,1.960922 -0.605189,0.632397 -1.39839,1.545068 -1.762669,2.028154 -0.849574,1.12666 -1.523961,1.441789 -3.394143,1.586008 -1.289103,0.09941 -1.534168,0.07131 -1.633434,-0.187383 z m 2.618165,-0.871804 c 0.736855,-0.171089 1.505738,-0.826265 2.126948,-1.812405 0.255922,-0.40627 0.349488,-0.877147 0.329011,-1.655828 -0.01573,-0.598459 0.0099,-1.08811 0.05708,-1.08811 0.04713,0 0.261194,0.175545 0.475754,0.390106 0.536492,0.536491 1.016688,0.404582 1.08133,-0.297041 0.03955,-0.42895 -0.124192,-0.769154 -0.675496,-1.403768 -0.834555,-0.960663 -1.348216,-0.96803 -1.38731,-0.01988 -0.01302,0.315508 -0.04492,0.658809 -0.07095,0.762889 -0.02603,0.10408 -0.05851,0.253104 -0.07225,0.331164 -0.01373,0.07806 -0.32055,0.34323 -0.681847,0.589268 -0.770456,0.524669 -1.452754,0.441395 -2.09929,-0.256223 -0.549422,-0.592844 -0.26871,-0.853444 0.919288,-0.853444 h 0.923372 l -0.131738,-0.599788 c -0.07245,-0.329877 -0.335648,-0.819528 -0.584883,-1.08811 -0.378949,-0.408373 -0.615474,-0.486841 -1.444508,-0.479216 -1.669603,0.01538 -2.636503,0.684557 -3.354004,2.32136 -0.301947,0.688799 -0.226098,1.686469 0.190272,2.502606 0.444928,0.872133 0.709139,0.927413 1.320808,0.276321 0.961036,-1.022974 1.530356,-0.2716 0.756245,0.998063 -0.490502,0.804494 -0.477364,1.149698 0.04799,1.261802 1.529519,0.32638 1.412987,0.320222 2.274205,0.120251 z m 2.113344,-8.199156 c 0.03876,-0.1301 0.132224,-0.406857 0.20763,-0.615024 0.164188,-0.453217 0.248842,-1.005629 0.347994,-2.270844 0.04077,-0.520398 0.120165,-1.073919 0.17641,-1.230039 0.05622,-0.15612 0.159289,-0.624285 0.228987,-1.040369 0.06974,-0.416083 0.213188,-0.809943 0.318855,-0.875251 0.255086,-0.157657 0.0029,-0.922935 -0.303856,-0.922935 -0.132403,0 -0.349303,0.234179 -0.482013,0.520406 -0.250086,0.539388 -0.973144,3.35939 -0.923179,3.600507 0.01559,0.07531 -0.02139,0.264655 -0.08224,0.420775 -0.224517,0.576165 -0.270792,1.621368 -0.09422,2.127899 0.190779,0.54727 0.485989,0.686131 0.605625,0.284875 z m 3.323858,-0.981177 c 0,-0.570715 -0.348866,-1.524276 -0.501739,-1.371403 -0.06194,0.06201 -0.386436,-0.09613 -0.721019,-0.351327 -0.657766,-0.501703 -0.858844,-0.451923 -0.858844,0.212623 0,0.283158 0.223007,0.563949 0.664724,0.836936 0.365595,0.225955 0.751796,0.573526 0.858222,0.772388 0.269189,0.50299 0.558656,0.451579 0.558656,-0.09922 z m 9.525701,-2.801291 c 0.287407,-0.386659 0.398782,-0.866226 0.438935,-1.890079 0.05314,-1.354403 0.04492,-1.381096 -0.643175,-2.085744 -0.873942,-0.894992 -1.815559,-1.379979 -2.799675,-1.44199 l -0.763841,-0.04813 -0.212386,1.239881 c -0.250022,1.459641 -0.179022,1.856484 0.37613,2.102322 0.394719,0.174794 1.335121,1.598338 1.166957,1.766502 -0.04499,0.04499 0.193826,0.285197 0.53069,0.533802 0.760372,0.56116 1.402188,0.50171 1.906365,-0.176568 z m -8.59168,-1.078862 c 0.216993,-0.13731 0.224953,-0.228222 0.03955,-0.451623 -0.338745,-0.408173 -1.187948,-0.580971 -1.378499,-0.280512 -0.24661,0.388847 -0.194341,0.530884 0.263011,0.714712 0.55425,0.222786 0.746482,0.225897 1.075944,0.01745 z m 0.465012,-1.824751 c 0.06315,-0.164638 0.114865,-0.668479 0.114865,-1.119651 0,-0.451179 0.08454,-0.848709 0.187862,-0.883398 0.103321,-0.03469 -0.17272,-0.552734 -0.613436,-1.151192 -0.625644,-0.849589 -0.911284,-1.088117 -1.303035,-1.088117 -0.282951,0 -0.551826,0.130528 -0.616604,0.299336 -0.190865,0.497376 -0.13005,2.72846 0.07437,2.72846 0.10408,0 0.189235,0.117798 0.189235,0.261781 0,0.230281 0.475962,0.488342 1.040805,0.564328 0.104079,0.01402 0.199884,0.131902 0.212894,0.262001 0.03977,0.397452 0.06201,0.425782 0.334569,0.425782 0.14499,0 0.3153,-0.134699 0.378475,-0.29933 z m 1.868973,-0.442868 c 0.150119,-0.574062 -0.123148,-0.847665 -0.594618,-0.59534 -0.442332,0.236726 -0.527258,0.758655 -0.179958,1.105955 0.264841,0.264841 0.635729,0.02031 0.774576,-0.510615 z m 10.805105,-2.782438 c 0.286041,-0.392474 0.313877,-0.57176 0.145985,-0.940237 -0.253033,-0.555345 -0.594031,-0.595941 -0.594031,-0.07074 0,0.440594 -0.771258,0.829634 -0.983201,0.495959 -0.0724,-0.113985 -0.190386,-0.148495 -0.26218,-0.0767 -0.0718,0.0718 0.01073,0.346091 0.183305,0.609537 0.403602,0.615975 1.053801,0.608293 1.510122,-0.01781 z M 73.93143,75.061614 c 0.15263,-0.390299 0.396236,-0.965105 0.541341,-1.277351 0.371317,-0.798994 0.675732,-1.792108 0.675732,-2.204464 0,-0.43395 -0.561224,-0.461164 -1.328448,-0.06444 -1.501997,0.776714 -1.936161,4.255876 -0.531091,4.255876 0.246238,0 0.455227,-0.230846 0.642466,-0.70964 z m -24.498431,13.9405 c -1.740025,-0.696129 -3.184804,-1.809844 -3.742037,-2.884565 -0.257803,-0.497211 -0.24779,-0.56043 0.142438,-0.898875 0.515234,-0.44686 0.622933,-0.449678 1.258898,-0.03297 0.698819,0.45788 1.734038,0.798114 2.43873,0.801504 0.325521,0.0014 0.675617,0.109301 0.778001,0.239401 0.277001,0.351998 0.433936,1.644341 0.243363,2.00415 -0.09147,0.172699 -0.212429,0.463023 -0.268803,0.645163 -0.114844,0.371081 -0.205048,0.384463 -0.85059,0.126202 z"
       id="knux-top" />
    <path
       style="fill:#000000;stroke-width:0.185821"
       d="m 40.765897,146.0552 c -0.298128,-0.0951 -0.950603,-0.1916 -1.449951,-0.21438 -0.499348,-0.0227 -0.950229,-0.1099 -1.001948,-0.1936 -0.05176,-0.0837 -0.222537,-0.15216 -0.379582,-0.15216 -0.56215,0 -1.348493,-0.74545 -1.470093,-1.39364 -0.09307,-0.49611 0.008,-0.89066 0.462632,-1.80408 0.886915,-1.78233 1.554813,-2.89152 2.077422,-3.44998 0.260658,-0.27854 0.705401,-0.90363 0.988309,-1.38909 0.282901,-0.48546 0.569144,-0.89574 0.636083,-0.91174 0.06693,-0.016 0.334844,-0.0451 0.59534,-0.0646 0.405365,-0.0305 0.479859,0.0474 0.516815,0.5401 0.06342,0.84512 0.431456,1.56139 0.861767,1.677 0.614788,0.16518 1.585489,0.12065 1.585489,-0.0728 0,-0.29866 -0.730656,-0.59208 -1.168404,-0.46922 -0.273152,0.0767 -0.330195,0.059 -0.17001,-0.0525 0.193573,-0.13484 0.184421,-0.21496 -0.04642,-0.40657 -0.158141,-0.13124 -0.28753,-0.3789 -0.28753,-0.55035 0,-0.17145 -0.0968,-0.40852 -0.215105,-0.52683 -0.532203,-0.53221 1.061863,-1.25061 1.667711,-0.7516 0.578183,0.47624 2.021025,1.07821 2.584313,1.07821 0.30718,0 0.771117,-0.16725 1.030975,-0.37165 0.564011,-0.44366 0.801943,-0.46728 0.945236,-0.0938 0.161133,0.41989 -0.541951,1.89494 -1.026958,2.15449 -0.495808,0.26535 -1.957557,0.32475 -2.431117,0.0988 -0.231343,-0.11037 -0.325194,-0.0776 -0.325194,0.11363 0,0.53135 1.352462,0.88439 2.019818,0.52723 0.185097,-0.0991 0.434167,-0.10414 0.583423,-0.0118 0.222347,0.13741 0.223211,0.3054 0.0056,1.14842 -0.140015,0.54309 -0.241219,1.48917 -0.224897,2.10239 0.03553,1.3352 -0.379589,2.67244 -0.960533,3.09406 -0.504643,0.36624 -4.531961,0.62435 -5.403426,0.3463 z m 4.124251,-1.18294 c 0.232776,-0.0311 0.518522,-0.15171 0.634987,-0.26819 0.338876,-0.33887 -0.283982,-0.47342 -1.677263,-0.36232 -1.063843,0.0848 -2.529954,-0.0557 -5.414431,-0.51908 l -0.644637,-0.10356 0.425527,0.45296 c 0.385988,0.41087 1.176482,0.71468 2.44324,0.93905 0.438787,0.0778 3.316164,-0.0168 4.232577,-0.13886 z m 0.07279,-1.7695 c -0.174835,-0.11084 -0.07897,-0.19041 0.327238,-0.27165 0.360957,-0.0722 0.65152,-0.28393 0.781694,-0.56963 0.185862,-0.40792 0.125743,-0.5416 -0.584167,-1.29903 -1.090138,-1.16309 -2.037144,-1.49889 -3.750913,-1.33001 -0.737884,0.0727 -1.554336,0.24718 -1.814334,0.38773 -0.583008,0.31514 -2.006137,1.75845 -1.733876,1.75845 0.10881,0 0.186219,0.13711 0.172025,0.30468 -0.03216,0.37984 1.559105,0.74409 4.248092,0.9724 2.688207,0.22826 2.638512,0.22727 2.354241,0.047 z m 10.495747,2.82306 c -0.02908,-0.029 -1.055417,-0.10582 -4.400151,-0.32953 -0.947308,-0.0634 -1.451411,-0.39792 -1.628964,-1.08108 -0.169469,-0.65204 0.08966,-1.62165 0.43338,-1.62165 0.112448,0 0.32596,-0.27177 0.474465,-0.60392 0.148505,-0.33216 0.378858,-0.58095 0.511898,-0.55287 0.133041,0.0281 0.186164,-0.0391 0.118046,-0.14932 -0.152922,-0.24745 0.52756,-1.26437 1.167316,-1.74447 0.790481,-0.59321 3.006021,-0.43246 6.503221,0.47182 1.517128,0.3923 1.716776,0.41474 1.716776,0.19303 0,-0.0857 -0.689867,-0.48113 -1.533028,-0.87871 -1.470149,-0.69318 -1.620663,-0.72482 -3.669409,-0.77153 -1.227575,-0.0279 -2.162972,-0.12846 -2.198895,-0.23622 -0.03435,-0.10314 -0.180967,-0.18754 -0.325757,-0.18754 -0.17317,0 -0.263242,-0.20685 -0.263242,-0.60452 0,-0.74822 0.842501,-1.61413 1.610064,-1.65478 0.826066,-0.0438 2.467693,-0.60402 1.981113,-0.67613 -0.222185,-0.0329 -0.546824,-0.27787 -0.721407,-0.54431 -0.335799,-0.5125 -0.273181,-0.62766 0.621924,-1.14367 0.305263,-0.17598 0.09159,-0.76542 -0.277472,-0.76542 -0.333917,0 -1.376305,-0.70498 -1.634744,-1.10561 -0.102201,-0.15842 -0.227629,-0.77028 -0.278729,-1.35967 -0.116964,-1.34906 -0.457764,-1.39521 -0.484915,-0.0656 -0.02647,1.29788 -0.204038,1.97349 -0.5186,1.97349 -0.321099,0 -1.278675,-0.97222 -1.608315,-1.63293 -0.138315,-0.2772 -0.395475,-0.67126 -0.571469,-0.87566 -0.758209,-0.88059 -1.486675,-3.69065 -1.457185,-5.62111 0.01376,-0.90016 -0.04171,-0.93888 -0.577558,-0.40308 -0.576687,0.5767 -0.591008,1.11548 -0.05899,2.21834 0.619536,1.28422 0.817906,2.94346 0.381135,3.18788 -0.168923,0.0945 -0.307124,0.29315 -0.307124,0.44137 0,0.14823 -0.114978,0.2695 -0.255504,0.2695 -0.256416,0 -0.487781,0.76667 -0.487781,1.61634 0,0.56175 0.608966,0.52856 0.715409,-0.039 0.03814,-0.20323 0.185412,-0.43639 0.327323,-0.51811 0.14191,-0.0817 0.258018,-0.26694 0.258018,-0.41156 0,-0.32126 0.7327,-0.74307 0.912851,-0.52553 0.941592,1.13701 1.334875,1.92189 0.963027,1.92189 -0.0925,0 -0.378445,0.3588 -0.635444,0.79734 -0.518606,0.88493 -1.961105,2.46399 -2.707971,2.96432 -0.718401,0.48127 -1.072573,0.40406 -1.867696,-0.40712 -0.690786,-0.70475 -0.743369,-0.7248 -1.339848,-0.51101 -0.341459,0.12239 -0.66584,0.28241 -0.720838,0.35562 -0.05499,0.0732 -0.317328,0.0204 -0.582953,-0.11748 -0.265623,-0.1378 -0.901727,-0.38965 -1.413569,-0.55966 -0.633969,-0.21057 -0.962801,-0.43215 -1.031565,-0.69509 -0.08571,-0.32778 -0.196299,-0.36811 -0.733171,-0.2674 -0.852959,0.16002 -1.950191,-0.31011 -2.188859,-0.93786 -0.153309,-0.40323 -0.091,-0.62698 0.378233,-1.35823 0.308985,-0.48149 0.561785,-1.00396 0.561785,-1.16101 0,-0.15706 0.118747,-0.62212 0.263882,-1.03347 0.145127,-0.41135 0.291461,-0.94448 0.325187,-1.18475 0.134677,-0.9596 2.336936,-2.91525 2.672125,-2.3729 0.192596,0.31163 0.38265,0.17815 0.797615,-0.56018 0.601177,-1.06964 1.442871,-1.71662 2.144192,-1.64813 0.968792,0.0946 0.84498,0.61948 -0.230381,0.97666 -1.62862,0.54094 -1.33128,1.1426 0.436722,0.88371 1.01879,-0.14919 1.30811,-0.491 1.454445,-1.7183 0.04221,-0.35378 0.221869,-1.13296 0.399296,-1.73151 0.228682,-0.77145 0.286869,-1.3742 0.19988,-2.07045 -0.09153,-0.73255 -0.04221,-1.16439 0.194163,-1.69906 0.174287,-0.39428 0.339577,-0.82521 0.367312,-0.95762 0.09797,-0.46772 1.292799,-1.88479 1.593974,-1.89046 0.319738,-0.006 0.600103,-0.48671 0.437412,-0.74995 -0.144165,-0.23326 1.527099,-1.82273 2.367142,-2.25129 0.444384,-0.22671 1.144371,-0.38825 1.743063,-0.40227 0.550252,-0.0128 1.000459,-0.0898 1.000459,-0.17105 0,-0.22963 2.762984,-0.15074 3.902256,0.11143 1.756611,0.40423 2.800888,1.01001 4.208348,2.44117 1.356296,1.37914 1.492665,1.57393 2.477694,3.53922 0.629214,1.25537 0.86494,2.68001 0.443436,2.68001 -0.13974,0 -0.25407,0.0816 -0.25407,0.18138 0,0.0998 -0.306689,0.33873 -0.681529,0.53103 l -0.681537,0.34964 1.47128,0.10177 c 1.053554,0.0729 1.524023,0.0362 1.657092,-0.12903 0.332919,-0.4135 0.942777,-0.64192 1.837481,-0.68824 0.482865,-0.025 0.935931,-0.13706 1.006802,-0.24904 0.324106,-0.51205 1.969497,-1.63944 3.752388,-2.57106 2.546986,-1.33088 4.501207,-1.75853 5.306857,-1.16134 0.569496,0.42215 0.03238,0.75569 -1.605422,0.99696 -1.625347,0.23944 -2.400685,0.49608 -2.400685,0.79463 0,0.24493 0.772178,0.16303 2.694415,-0.28578 1.360476,-0.31764 2.041942,-0.36726 2.358329,-0.17172 0.452813,0.27985 0.707684,1.42614 0.706504,3.17748 -0.0014,1.96145 -0.131467,2.32417 -1.18394,3.29956 -0.504454,0.46752 -0.54445,0.47511 -0.883987,0.16784 -0.347851,-0.3148 -0.342646,-0.33523 0.237876,-0.93417 0.495007,-0.51072 0.937482,-1.36007 1.139258,-2.18689 0.08802,-0.36065 -0.799385,-0.63145 -1.367062,-0.41717 -0.298331,0.11259 -0.542422,0.25647 -0.542422,0.31971 0,0.0632 -0.279193,0.12547 -0.620435,0.1383 -0.341242,0.0128 -0.8484,0.10999 -1.127024,0.21593 -0.278631,0.10593 -0.745188,0.1926 -1.036811,0.1926 -0.672891,0 -1.405108,1.05767 -1.226059,1.77105 0.110412,0.43992 0.176205,0.45881 1.598189,0.45881 0.864807,0 1.483029,0.0775 1.483029,0.18582 0,0.10221 0.114794,0.18583 0.255089,0.18583 0.140295,0 0.513584,0.30261 0.829523,0.67251 0.54117,0.63354 0.559073,0.70222 0.309054,1.18569 -0.145962,0.28227 -0.534351,0.73953 -0.863092,1.01614 l -0.597708,0.50294 -2.521478,-0.1349 c -1.386818,-0.0741 -2.98318,-0.15739 -3.547472,-0.18488 -0.564299,-0.0275 -1.395857,0.0176 -1.847912,0.1003 -1.712842,0.31322 -2.326661,-0.53379 -2.530383,-3.49167 -0.08877,-1.28888 -0.206264,-1.90567 -0.375396,-1.97056 -0.307994,-0.11819 -1.048175,0.88149 -0.824774,1.11394 0.08905,0.0927 0.220486,0.64928 0.29208,1.23693 l 0.130167,1.06848 -0.53242,-0.003 c -0.292832,-9.8e-4 -0.65744,-0.0819 -0.81025,-0.17849 -0.239266,-0.15126 -0.228514,-0.2117 0.07748,-0.43544 0.309652,-0.22643 0.6196,-1.05562 0.394584,-1.05562 -0.04523,0 -0.315278,0.21603 -0.600187,0.48007 -0.507102,0.46997 -0.566968,0.47898 -2.84335,0.42773 -2.22236,-0.05 -2.32171,-0.0363 -2.243253,0.30967 0.228098,1.00587 -0.01847,2.16575 -0.631168,2.96903 -0.444728,0.58306 -0.57852,0.6512 -1.067713,0.54376 l -0.55927,-0.12284 0.125575,0.74327 c 0.08208,0.48583 0.05141,0.7891 -0.08846,0.87557 -0.237032,0.14648 -1.298762,-0.77579 -1.298762,-1.12818 0,-0.12166 -0.117729,-0.31891 -0.26162,-0.43833 -0.317428,-0.26345 -0.950406,-1.5276 -0.882498,-1.76249 0.02683,-0.0928 -0.02206,-0.21826 -0.10865,-0.27873 -0.189155,-0.13207 -0.664259,-3.21112 -0.624107,-4.04467 0.01566,-0.32446 -0.06145,-0.64548 -0.17131,-0.71338 -0.139881,-0.0865 -0.133412,-0.20333 0.02164,-0.39011 0.210001,-0.25304 0.09831,-0.62123 -0.121705,-0.40122 -0.177475,0.17749 -0.425141,2.306 -0.562655,4.83565 -0.11039,2.03069 -0.0898,2.40402 0.128356,2.3285 0.1429,-0.0495 0.253178,-0.26961 0.24506,-0.48922 -0.03427,-0.92755 0.916363,-0.06 2.345434,2.14028 0.210197,0.32363 0.841841,0.94306 1.403661,1.3765 l 1.021479,0.78807 -0.03947,1.09369 c -0.0217,0.60152 -0.109232,1.1368 -0.1945,1.18951 -0.08527,0.0527 -0.155037,0.31094 -0.155037,0.57387 0,0.45046 -0.04291,0.4723 -0.743257,0.37837 -0.408783,-0.0548 -0.782453,-0.0362 -0.830364,0.0413 -0.109751,0.17758 0.776658,0.62065 1.372413,0.68601 0.709596,0.0779 1.018861,0.52751 1.028595,1.49558 0.0082,0.81408 0.05457,0.89763 0.659182,1.18772 0.357711,0.17161 1.118027,0.44761 1.689609,0.61333 0.771511,0.22368 1.310049,0.55536 2.090493,1.2875 0.578198,0.54241 1.051265,1.08166 1.051265,1.19833 0,0.11668 0.145155,0.29337 0.322568,0.39265 0.469668,0.26284 0.412914,2.26144 -0.07816,2.75251 -0.875615,0.87562 -1.426414,0.97021 -5.423645,0.9314 -2.073995,-0.0202 -3.786163,-0.0518 -3.804831,-0.0704 z m 7.970174,-1.19063 0.549332,-0.22235 -0.650375,-0.17331 c -0.357704,-0.0953 -2.28096,-0.21218 -4.273894,-0.25968 -1.99294,-0.0475 -4.228167,-0.15051 -4.967174,-0.22891 -0.899529,-0.0954 -1.367857,-0.0776 -1.416892,0.054 -0.04839,0.12976 -0.156855,0.11761 -0.319456,-0.0359 -0.301211,-0.28415 -1.589663,-0.3081 -1.75987,-0.0327 -0.06784,0.10976 0.05934,0.39401 0.282585,0.63166 0.387778,0.41277 0.526781,0.43255 3.108082,0.44238 1.486175,0.006 2.726736,0.035 2.756795,0.0652 0.168086,0.16874 6.216943,-0.0486 6.690867,-0.24045 z m 0.519119,-1.42354 c 0.04656,-0.0767 -0.08251,-0.49322 -0.286785,-0.92571 -0.374132,-0.79207 -1.136695,-1.40653 -2.018617,-1.62656 -0.433681,-0.10819 -0.501041,-0.0457 -0.735496,0.68235 -0.141946,0.4408 -0.334184,0.85429 -0.427185,0.91889 -0.093,0.0646 3.72e-4,0.28694 0.207613,0.49412 0.300486,0.3005 0.551024,0.36043 1.238313,0.29622 0.473882,-0.0443 1.004105,0.003 1.178258,0.10413 0.381963,0.22271 0.728894,0.24596 0.843899,0.0565 z m -18.542491,-9.90418 c 1.118365,-1.08395 1.348164,-2.62568 0.62172,-4.17112 -0.465348,-0.99 -0.348006,-1.44132 0.40351,-1.5519 0.306843,-0.0452 0.564748,0.0927 0.855452,0.45729 0.57128,0.71645 0.712039,0.46819 0.23803,-0.41985 -0.376071,-0.70455 -1.288846,-1.31936 -1.638227,-1.10343 -0.09301,0.0575 -0.271679,-0.0191 -0.397043,-0.17012 -0.125363,-0.15106 -0.313774,-0.22159 -0.418693,-0.15675 -0.10492,0.0648 -0.68238,0.10315 -1.283249,0.0851 -0.952821,-0.0286 -1.148192,0.0273 -1.528335,0.43752 -0.239722,0.25866 -0.556623,0.4703 -0.704222,0.4703 -0.147606,0 -0.427529,0.11638 -0.622058,0.25863 -0.310115,0.22676 -0.321156,0.29782 -0.08961,0.57682 0.145247,0.17501 0.455664,0.39104 0.689817,0.48007 0.858612,0.32644 0.220148,1.00735 -0.90257,0.96258 -0.595875,-0.0237 -0.762873,0.0469 -0.896025,0.37937 -0.09001,0.22472 -0.272057,0.67615 -0.404557,1.00317 -0.132491,0.32703 -0.431392,0.69655 -0.664217,0.82115 -0.609725,0.32631 -0.555906,0.89991 0.08769,0.93455 1.089134,0.0587 2.014839,0.27813 2.362978,0.56026 0.105636,0.0856 0.401115,0.32614 0.656626,0.5345 0.392308,0.31992 0.661626,0.36697 1.731819,0.30255 1.13248,-0.0682 1.334678,-0.14165 1.901168,-0.69071 z m 12.533502,-6.03003 c 0.127225,-0.1533 0.336277,-0.27873 0.464548,-0.27873 0.128278,0 0.334107,-0.12155 0.457406,-0.27011 0.177898,-0.21436 0.15515,-0.38695 -0.110229,-0.8362 -0.183915,-0.31135 -0.399984,-0.56609 -0.480147,-0.56609 -0.210203,0 -0.179751,-0.70034 0.03624,-0.83385 0.116037,-0.0717 0.106176,-0.23391 -0.02718,-0.44747 -0.119893,-0.19197 -0.15371,-0.55606 -0.07923,-0.85287 l 0.129985,-0.51789 0.501118,0.46863 c 0.757654,0.70853 1.602733,1.06919 2.48948,1.06245 1.543126,-0.0118 3.761152,-1.08273 3.412058,-1.64757 -0.06953,-0.11252 -0.476881,-0.20509 -0.905204,-0.20571 -0.428329,-6.4e-4 -1.002819,-0.11805 -1.276646,-0.2609 -0.610363,-0.31845 -0.748305,-0.21123 -0.48153,0.37427 0.249196,0.54694 0.113487,0.71052 -0.468327,0.5645 -1.231178,-0.30901 -1.956595,-1.60585 -0.898272,-1.60585 0.444377,0 0.552907,-0.0933 0.645205,-0.55482 0.09875,-0.49373 0.159286,-0.53646 0.549747,-0.38801 0.48434,0.18415 0.988205,-0.0201 0.80018,-0.32429 -0.06588,-0.10657 -0.03477,-0.24629 0.06911,-0.31048 0.395243,-0.24427 0.177447,-1.01708 -0.461522,-1.63764 -0.357711,-0.3474 -0.650375,-0.74067 -0.650375,-0.87394 0,-0.16786 -0.114197,-0.13897 -0.371646,0.094 -0.204402,0.18499 -0.371645,0.52748 -0.371645,0.76112 0,0.23363 -0.07248,0.46958 -0.16107,0.52433 -0.08859,0.0547 -0.133012,0.47447 -0.0987,0.9327 0.06862,0.91649 -0.06328,1.07705 -0.936864,1.14062 -0.312763,0.0227 -0.756811,0.10139 -0.986764,0.17474 -0.385117,0.12284 -0.418104,0.0759 -0.418104,-0.59444 0,-0.40029 0.09307,-0.82085 0.206797,-0.93459 0.202261,-0.20226 0.08593,-0.61082 -0.173929,-0.61082 -0.230683,0 -0.776117,1.468 -0.777185,2.09177 -5.62e-4,0.33146 -0.08012,0.89532 -0.17676,1.25302 -0.178157,0.65939 -0.265272,2.37651 -0.219186,4.32036 0.02634,1.11198 0.282648,1.3753 0.768624,0.78974 z m 11.634359,-0.94464 c 0.0663,-0.26405 0.0718,-0.8912 0.01229,-1.39367 -0.07664,-0.64714 -0.04299,-0.9144 0.11532,-0.91641 0.155775,-0.002 0.161955,-0.0443 0.02036,-0.13936 -0.111732,-0.0751 -0.216306,-0.50869 -0.232397,-0.96356 -0.03364,-0.95087 -0.09764,-1.03579 -0.892225,-1.1839 -0.684023,-0.12751 -0.802511,0.11577 -0.806641,1.65621 -0.0056,2.20815 1.389558,4.50936 1.783271,2.94069 z m -15.350796,-5.65202 c 0,-0.10221 -0.08361,-0.18583 -0.18582,-0.18583 -0.1022,0 -0.185826,0.0836 -0.185826,0.18583 0,0.1022 0.08362,0.18581 0.185826,0.18581 0.102202,0 0.18582,-0.0836 0.18582,-0.18581 z m 9.012352,9.29604 c -0.306604,-0.20579 -0.692353,-0.37471 -0.857221,-0.37539 -0.305488,-9.7e-4 -2.023014,-1.70736 -2.023014,-2.00956 0,-0.0914 0.08488,-0.40954 0.188622,-0.70713 0.246822,-0.70804 0.992839,-1.03506 1.892572,-0.82964 0.378134,0.0864 0.722194,0.12232 0.764572,0.0799 0.122547,-0.12255 0.613636,0.72033 0.755778,1.2972 0.07135,0.28955 0.336397,0.85384 0.588992,1.25399 0.252603,0.40014 0.47922,0.91582 0.503597,1.14595 0.03757,0.35484 -0.0545,0.42603 -0.606058,0.46859 -0.412296,0.0318 -0.85444,-0.0868 -1.20784,-0.32396 z m -22.365649,-5.39998 c -0.241274,-0.201 -0.587994,-0.36545 -0.770492,-0.36545 -0.424249,0 -1.485235,-1.19932 -1.485235,-1.67887 0,-0.50492 0.402198,-0.46491 2.044042,0.20334 1.682242,0.6847 1.825845,0.80701 1.454677,1.23886 -0.155796,0.18127 -0.335154,0.47591 -0.398587,0.65476 -0.145998,0.4117 -0.29845,0.40219 -0.844405,-0.0527 z"
       id="knux-center" />
    <path
       style="fill:#000000;stroke-width:0.188245"
       d="m 52.685118,192.67156 c -0.115324,-0.11532 -0.212348,-0.72218 -0.215599,-1.34857 -0.0036,-0.62639 -0.167746,-2.07069 -0.365536,-3.20958 -0.318523,-1.8341 -0.328604,-2.13315 -0.0882,-2.61729 0.149275,-0.30062 0.271407,-0.66065 0.271407,-0.80005 0,-0.1394 0.06616,-0.25344 0.146978,-0.25344 0.29882,0 0.552577,-1.11037 0.464118,-2.03092 -0.07987,-0.83124 -0.02995,-1.01512 0.401836,-1.4808 0.271165,-0.29244 0.493033,-0.59612 0.493033,-0.67482 0,-0.0787 0.108216,-0.1431 0.240479,-0.1431 0.132264,0 0.434131,-0.13564 0.670804,-0.30141 0.409228,-0.28663 0.414465,-0.31893 0.106828,-0.65886 -0.177912,-0.1966 -0.554604,-0.35745 -0.83709,-0.35745 -0.350431,0 -0.544017,-0.11631 -0.609338,-0.3661 -0.124943,-0.47778 0.651657,-2.00056 1.267172,-2.48473 0.265345,-0.20872 0.4379,-0.45156 0.383458,-0.53965 -0.05443,-0.0881 -0.01152,-0.21423 0.0954,-0.2803 0.106915,-0.0661 0.146729,-0.19724 0.08848,-0.29149 -0.05827,-0.0942 -0.0057,-0.35837 0.116519,-0.58694 0.276615,-0.51686 0.924466,-1.2249 0.924466,-1.01035 0,0.0873 0.148244,0.0282 0.329429,-0.13125 0.287409,-0.25305 0.449483,-0.25783 1.270658,-0.0375 1.646866,0.4419 1.6202,0.46166 1.478743,-1.0956 -0.06816,-0.75064 -0.195833,-1.39303 -0.28368,-1.42754 -0.08784,-0.0345 -0.159712,-0.18276 -0.159712,-0.32943 0,-0.14667 -0.127071,-0.26668 -0.282372,-0.26668 -0.155302,0 -0.282365,-0.0817 -0.282365,-0.18162 0,-0.31705 -0.702371,-0.57207 -1.265457,-0.45945 -0.46658,0.0933 -0.545875,0.19942 -0.561519,0.75136 -0.01231,0.43427 0.06731,0.6427 0.245524,0.6427 0.145048,0 0.26373,0.12013 0.26373,0.26697 0,0.14683 0.05095,0.39979 0.11326,0.56211 0.07604,0.19815 -0.03479,0.35143 -0.337162,0.4664 -0.247737,0.0942 -0.563207,0.30715 -0.701048,0.47324 -0.275897,0.33243 -1.710479,0.42782 -1.710479,0.11373 0,-0.48656 -0.349016,-0.11135 -0.463358,0.49813 -0.07079,0.37751 -0.245538,0.8646 -0.388253,1.08242 -0.142724,0.21781 -0.258082,0.46117 -0.25636,0.54079 0.0036,0.17914 -0.509391,2.073 -0.800677,2.95437 -0.118503,0.35857 -0.33051,0.76699 -0.471127,0.90762 -0.140616,0.1406 -0.256957,0.4402 -0.258543,0.66576 -0.0036,0.50397 -0.180012,0.77739 -0.602153,0.93301 -0.485264,0.17889 -0.994298,-0.67931 -1.370905,-2.31124 -0.465535,-2.0173 -0.546174,-3.47802 -0.275399,-4.98849 0.31061,-1.73268 0.308383,-1.63482 0.03941,-1.73343 -0.138205,-0.0507 -0.235308,0.068 -0.235308,0.28749 0,0.24037 -0.188656,0.43952 -0.528607,0.55803 -0.290731,0.10137 -0.812828,0.44387 -1.160208,0.76116 -0.347378,0.31727 -0.681297,0.57145 -0.74205,0.56482 -0.381786,-0.0417 -0.581058,0.0702 -0.581058,0.32602 0,0.16142 -0.08162,0.24303 -0.181377,0.18138 -0.09976,-0.0617 -0.353889,0.0604 -0.564736,0.27126 -0.210846,0.21085 -0.558119,0.38335 -0.771712,0.38335 -0.330467,0 -1.170873,0.34472 -3.31154,1.35832 -0.223084,0.10563 -0.492543,0.13833 -0.598794,0.0726 -0.106253,-0.0657 -0.246392,-0.0333 -0.311429,0.0719 -0.06503,0.10522 -0.247751,0.1913 -0.40604,0.1913 -0.233949,0 -0.262935,-0.1497 -0.154875,-0.80004 0.178361,-1.0735 0.522389,-1.7018 1.101561,-2.01176 0.264292,-0.14144 0.684647,-0.562 0.93412,-0.93456 0.249481,-0.37257 0.845216,-1.08866 1.323863,-1.59131 0.478639,-0.50266 0.871162,-1.01091 0.872265,-1.12948 0.0015,-0.11854 0.378542,-0.62383 0.838741,-1.12284 l 0.836733,-0.90729 -0.603432,0.11867 c -0.435461,0.0856 -0.526303,0.0659 -0.326341,-0.0708 0.238338,-0.16303 0.231415,-0.20707 -0.04945,-0.31485 -0.179605,-0.0689 -0.444994,-0.0271 -0.589766,0.0932 -0.167603,0.1391 -0.304918,0.15095 -0.378044,0.0326 -0.06318,-0.10221 -0.346006,-0.16496 -0.628556,-0.13948 -0.282549,0.0255 -0.68314,-0.0582 -0.890208,-0.18591 -0.207077,-0.12772 -0.715335,-0.29028 -1.129473,-0.36124 -1.127087,-0.19315 -2.541315,-0.67268 -2.541315,-0.86173 0,-0.0916 -0.248078,-0.16658 -0.551289,-0.16658 -0.30321,0 -0.684407,-0.13311 -0.847108,-0.2958 -0.393618,-0.39363 -0.390537,-1.21016 0.0043,-1.21016 0.517244,0 1.364978,-0.61242 1.479533,-1.06884 0.08857,-0.35286 0.23634,-0.43712 0.766576,-0.43712 0.610093,0 0.640103,-0.0269 0.42138,-0.37709 -0.17634,-0.28236 -0.393888,-0.36083 -0.866096,-0.31238 -0.346832,0.0356 -0.700288,0.17744 -0.785444,0.31523 -0.226998,0.36728 -1.6691,0.29282 -2.822293,-0.14572 -0.958098,-0.36435 -1.274265,0.31956 -0.564736,1.22157 0.44429,0.56483 0.465976,0.79826 0.11834,1.27369 -0.249422,0.34109 -0.293456,0.33518 -1.301692,-0.17494 -0.57395,-0.29039 -1.093891,-0.66602 -1.155433,-0.83475 -0.42634,-1.16877 -0.498434,-1.60663 -0.492472,-2.99085 0.0094,-2.19254 0.234361,-3.08454 1.377899,-5.4647 0.279924,-0.58261 2.589617,-2.86356 2.899666,-2.86356 0.136341,0 0.2479,-0.0789 0.2479,-0.17542 0,-0.38269 1.135313,-0.95145 2.133368,-1.06875 l 1.052547,-0.1237 0.948358,0.90886 c 0.521591,0.49988 0.94835,1.01054 0.94835,1.13482 0,0.12426 0.383096,0.6315 0.85132,1.12718 0.468231,0.4957 0.821587,0.99167 0.785244,1.10216 -0.03636,0.1105 -0.514996,0.22688 -1.06368,0.25864 -0.548686,0.0317 -1.119875,0.18 -1.269306,0.32943 -0.149432,0.14944 -0.388468,0.2717 -0.531184,0.2717 -0.60122,0 -1.935883,1.13969 -2.258851,1.92888 -0.428402,1.04683 -0.477672,2.30664 -0.0902,2.30664 0.155302,0 0.283659,-0.0847 0.285245,-0.18826 0.0015,-0.10357 0.07008,-0.29412 0.1523,-0.42354 0.08218,-0.12942 0.09668,-0.32062 0.03223,-0.42488 -0.06446,-0.10431 0.0153,-0.2404 0.17713,-0.30251 0.161868,-0.0621 0.294303,-0.23941 0.294303,-0.39399 0,-0.15458 0.302769,-0.58382 0.672831,-0.95388 0.606185,-0.6062 0.792757,-0.6803 1.883767,-0.74832 1.371915,-0.0855 2.440071,0.19348 2.716225,0.70946 0.222123,0.41506 0.139613,0.47775 -0.849057,0.64517 -1.074802,0.18202 -1.964542,1.03598 -2.06163,1.97872 -0.02981,0.28964 -0.206556,0.73133 -0.877594,2.19334 -0.424504,0.92487 -0.444937,1.20297 -0.08839,1.20297 0.146671,0 0.309642,0.10589 0.362157,0.23531 0.06446,0.15886 0.146002,0.17158 0.250994,0.0391 0.307025,-0.38722 2.324906,-0.79356 5.530906,-1.11374 1.155903,-0.11543 1.493606,-0.26452 1.364039,-0.60215 -0.06908,-0.18004 -0.254688,-0.24391 -0.517259,-0.17801 -0.674382,0.16926 -1.676642,-0.21713 -2.369892,-0.91362 -0.933367,-0.93775 -1.699018,-0.90449 -1.199937,0.052 0.376173,0.72103 0.342605,0.78673 -0.401957,0.78673 -0.457616,0 -0.812658,-0.14525 -1.129472,-0.46206 -0.760392,-0.76039 -0.533017,-1.30266 0.644984,-1.53826 0.330296,-0.066 0.686491,-0.28072 0.791541,-0.477 0.105057,-0.1963 0.261867,-0.3131 0.348475,-0.25959 0.08662,0.0535 0.254574,-0.0197 0.373256,-0.16267 0.183526,-0.22113 0.345971,-0.22083 1.086598,0.002 0.478946,0.14415 0.942061,0.26208 1.02914,0.26208 0.263055,0 0.177627,-0.69086 -0.115517,-0.93415 -0.150612,-0.125 -0.507184,-0.62246 -0.792379,-1.10546 -0.474564,-0.80371 -0.519195,-1.04447 -0.526204,-2.83876 -0.0057,-1.40664 0.05884,-1.98283 0.227653,-2.03933 0.129417,-0.0433 0.235306,-0.20321 0.235306,-0.35532 0,-0.15719 0.547761,-0.53289 1.268944,-0.87039 1.310543,-0.61327 2.489883,-0.73386 3.241752,-0.33147 0.197414,0.10565 0.61863,0.19208 0.936042,0.19208 0.317412,0 0.577108,0.0718 0.577108,0.15945 0,0.0877 0.160723,0.34475 0.357163,0.57126 0.20514,0.23651 0.315867,0.56971 0.260151,0.78278 -0.05336,0.20404 -0.01131,0.47641 0.09339,0.60528 0.35317,0.4346 0.983505,1.65568 0.983505,1.90524 0,0.18476 -0.418364,0.25127 -1.647144,0.2619 -0.905933,0.007 -1.885617,0.1056 -2.177074,0.21724 -0.291464,0.11165 -0.734018,0.20298 -0.983455,0.20298 -0.682166,0 -1.058239,0.8785 -0.989653,2.31176 0.0476,0.99522 0.111261,1.17708 0.432338,1.23539 0.207068,0.0377 0.519393,0.195 0.694054,0.34977 0.311151,0.27568 0.717782,0.19934 0.717782,-0.13475 0,-0.0929 -0.20566,-0.47184 -0.457025,-0.84225 -0.251366,-0.37041 -0.514073,-0.93316 -0.583783,-1.25056 -0.148478,-0.67604 0.153424,-1.12607 0.513723,-0.76578 0.351414,0.35142 0.903578,0.27504 0.903578,-0.125 0,-0.27476 0.189538,-0.37689 0.873375,-0.47062 1.580052,-0.21657 1.646696,-0.19047 2.57896,1.01001 0.482517,0.62135 0.877309,1.21614 0.877309,1.32176 0,0.10561 -0.216424,0.29064 -0.48093,0.41116 l -0.480931,0.21912 0.433866,0.24079 c 0.23863,0.13242 0.619471,0.24378 0.846311,0.24745 0.22684,0.003 0.464794,0.0914 0.528785,0.19491 0.231138,0.37399 0.470615,0.17612 0.470615,-0.38886 0,-0.64846 0.244619,-1.20288 0.799936,-1.81303 0.347429,-0.38174 0.399936,-0.39003 0.682272,-0.1077 0.168229,0.16824 0.687125,0.85982 1.1531,1.53687 0.465975,0.67705 1.059007,1.33155 1.317843,1.45445 0.258836,0.1229 1.032846,0.489 1.720028,0.81352 0.687174,0.32455 1.481533,0.8621 1.765241,1.19457 0.653543,0.76587 2.222039,4.01336 2.270093,4.70012 0.01999,0.28544 0.140709,0.64477 0.268299,0.79851 0.127596,0.15374 0.291649,1.06838 0.364575,2.03254 0.07292,0.96416 0.191566,1.84845 0.26366,1.9651 0.245559,0.39733 -0.804945,1.26238 -1.822552,1.50078 -1.363661,0.31949 -1.821242,0.29672 -2.663099,-0.13248 -0.52083,-0.26553 -0.794807,-0.31684 -0.933964,-0.17488 -0.409876,0.4181 1.56592,1.44606 2.264301,1.17807 0.458512,-0.17594 0.294339,0.28807 -0.221511,0.62608 -0.463059,0.3034 -0.558248,0.30198 -1.741273,-0.0261 -0.688284,-0.19087 -1.52674,-0.38497 -1.863227,-0.43134 -0.900276,-0.12402 -0.794166,0.379 0.203249,0.96352 0.44828,0.26271 0.924559,0.60961 1.058402,0.77088 0.39085,0.47095 1.705556,0.3764 2.455055,-0.17656 0.761098,-0.56153 0.935658,-0.81118 0.939479,-1.34366 0.0043,-0.6447 1.395722,-0.89846 1.556423,-0.28392 0.101536,0.38829 1.06948,0.66595 1.354854,0.38867 0.308105,-0.29938 1.592843,-0.18992 2.359085,0.20099 0.404027,0.20612 0.866559,0.32413 1.027851,0.26223 0.207702,-0.0798 0.293257,0.002 0.293257,0.27976 0,0.54295 0.804362,1.0522 1.2691,0.80348 0.423429,-0.22661 3.48724,-0.77965 4.284138,-0.77331 0.378884,0.003 0.79364,0.21735 1.26032,0.65132 0.849314,0.78978 1.092745,1.2221 1.092745,1.94066 0,0.30345 0.157102,0.75375 0.349116,1.00066 0.53792,0.69174 0.812714,1.74782 0.83016,3.19042 0.02782,2.29928 -0.781182,2.12206 -0.947874,-0.20764 -0.05194,-0.72584 -0.167596,-1.36493 -0.257035,-1.4202 -0.08944,-0.0553 -0.162616,-0.30729 -0.162616,-0.56001 0,-0.25273 -0.105882,-0.47241 -0.235301,-0.48817 -0.129424,-0.0159 -0.362377,-0.0424 -0.517679,-0.0592 -0.155301,-0.0168 -0.423912,0.0879 -0.596908,0.23262 -0.176703,0.14781 -0.605383,0.23805 -0.97819,0.20594 -0.36501,-0.0315 -0.72467,0.003 -0.799247,0.0784 -0.07458,0.0746 -0.377702,0.13559 -0.673614,0.13559 -0.632995,0 -0.95745,0.62256 -0.86732,1.66423 0.04845,0.56004 0.173636,0.70932 0.903357,1.07722 0.465905,0.2349 1.313012,0.56684 1.882451,0.73765 0.569446,0.17079 1.436403,0.49558 1.926591,0.72173 0.765209,0.35304 0.891646,0.48929 0.894164,0.96355 0.0043,0.7415 -0.688746,2.13236 -1.132018,2.27305 -0.196241,0.0622 -0.52483,0.0233 -0.730198,-0.0866 -0.326981,-0.175 -0.347642,-0.27375 -0.166187,-0.79428 0.195899,-0.56193 0.167048,-0.62919 -0.527875,-1.23054 -0.404297,-0.34986 -0.998346,-0.88659 -1.320104,-1.19274 -0.557857,-0.53077 -1.263765,-0.72745 -1.461676,-0.40722 -0.0508,0.0822 0.493154,0.73868 1.208738,1.4589 1.467275,1.47679 1.85915,2.32546 1.348927,2.92137 -0.340051,0.39715 -0.888253,0.46245 -1.60252,0.19089 -0.493951,-0.1878 -0.698593,-0.54506 -0.813782,-1.4207 -0.08957,-0.68093 -0.330659,-0.93539 -1.247783,-1.31698 -0.95553,-0.39759 -0.939351,-0.0517 0.04709,1.0061 0.414138,0.44412 0.75298,0.87818 0.75298,0.96456 0,0.0864 0.04809,0.28241 0.106885,0.43561 0.05876,0.15319 -0.06958,0.44297 -0.285346,0.64396 -0.321211,0.29925 -0.545753,0.34211 -1.240128,0.23674 -0.466345,-0.0708 -1.036795,-0.30154 -1.267676,-0.51281 -0.230875,-0.21127 -0.622095,-0.44564 -0.86937,-0.52083 -0.494143,-0.15026 -2.577872,-2.28625 -2.972677,-3.04724 -0.136682,-0.26346 -0.248513,-0.63455 -0.248513,-0.82464 0,-0.19009 -0.145867,-0.42724 -0.324143,-0.52702 -0.233834,-0.13086 -0.327529,-0.43502 -0.336315,-1.09176 -0.0064,-0.5007 0.04767,-1.03743 0.120751,-1.19274 0.777932,-1.65251 1.043654,-2.07345 1.698456,-2.69059 0.416678,-0.3927 1.004103,-0.76331 1.305385,-0.82357 0.301283,-0.0602 0.547789,-0.21897 0.547789,-0.35272 0,-0.13373 0.102942,-0.27746 0.228769,-0.3194 0.33088,-0.11029 -0.970272,-1.23162 -1.593549,-1.37331 -0.585739,-0.13316 -1.647143,0.0507 -1.647143,0.28526 0,0.0852 -0.254133,0.24347 -0.564736,0.35175 -0.31061,0.10828 -0.564736,0.29164 -0.564736,0.40747 0,0.11582 -0.222244,0.50196 -0.493872,0.85809 -0.623775,0.81781 -0.819517,2.18229 -0.376601,2.6252 0.289309,0.28931 0.426887,1.41266 0.200708,1.63884 -0.05777,0.0577 -0.273663,0.0609 -0.479778,0.007 -0.449704,-0.11761 -1.366408,-1.83673 -1.239067,-2.32367 0.04931,-0.18865 -0.0064,-0.37499 -0.123414,-0.41404 -0.332103,-0.11071 0.178233,-1.07353 0.578468,-1.09137 0.183405,-0.008 0.231871,-0.0561 0.107704,-0.10662 -0.162026,-0.0659 -0.115602,-0.30312 0.164429,-0.84036 0.214603,-0.41174 0.343758,-0.79505 0.287011,-0.85179 -0.159855,-0.15987 -0.794623,0.0914 -1.267947,0.50193 -0.296808,0.25742 -0.669907,0.36216 -1.216358,0.3415 -0.433525,-0.0164 -0.87223,0.0221 -0.974904,0.0855 -0.272275,0.16827 -2.741233,-0.25963 -3.072682,-0.53253 -0.155309,-0.12787 -0.47297,-0.29059 -0.705923,-0.36158 -0.232951,-0.071 -0.42355,-0.1898 -0.42355,-0.26404 0,-0.0742 -0.247245,-0.28102 -0.549432,-0.45952 l -0.549424,-0.32456 -0.126081,0.57405 c -0.08141,0.37064 -0.03678,0.68023 0.125874,0.8737 0.138575,0.16482 0.336665,0.81443 0.440199,1.44357 0.181811,1.1048 0.210782,1.14869 0.847108,1.2833 0.36237,0.0767 0.977977,0.16028 1.368009,0.18581 0.582082,0.0381 0.776038,0.15976 1.082415,0.67903 0.20529,0.34794 0.373255,0.76501 0.373255,0.92681 0,0.16181 0.931817,1.20941 2.070701,2.32802 2.083266,2.04616 2.299442,2.41272 1.882423,3.19193 -0.127789,0.23878 -0.121692,0.52205 0.01899,0.88179 0.113993,0.2915 0.239349,0.94781 0.278572,1.45847 0.05905,0.76932 -0.01028,1.03554 -0.405059,1.55303 -0.262001,0.34351 -0.599121,0.62455 -0.749158,0.62455 -0.150029,0 -0.272787,0.0847 -0.272787,0.18824 0,0.10357 -0.148244,0.19013 -0.32943,0.19243 -0.181184,0.002 -0.541199,0.16984 -0.800043,0.37231 -0.258836,0.20246 -0.728981,0.37001 -1.044756,0.3723 -0.315783,0.002 -0.654624,0.0832 -0.752986,0.17976 -0.11065,0.10863 -0.781537,0.098 -1.759685,-0.0279 -1.152289,-0.14832 -1.671697,-0.14675 -1.915954,0.005 -0.43179,0.26966 -2.702032,0.2551 -2.976214,-0.0191 z m 2.309003,-1.2878 c 0.370901,-0.16899 0.435696,-0.29354 0.318259,-0.6118 -0.1776,-0.4813 -0.07015,-0.8847 0.317867,-1.19316 0.232618,-0.18493 0.399964,-0.15013 0.872507,0.18145 0.321581,0.22564 0.612925,0.47686 0.647438,0.55824 0.0345,0.0814 0.248199,0.14799 0.47487,0.14799 0.276565,0 0.526857,-0.21306 0.760983,-0.64781 0.372772,-0.69219 0.703246,-0.90887 1.134032,-0.74358 0.462917,0.17765 0.514513,0.67702 0.114001,1.10336 -0.484496,0.51572 -0.483728,0.79505 0.0028,0.9494 0.797332,0.25307 1.848264,-0.098 2.439175,-0.81491 0.670298,-0.8132 0.683112,-0.91986 0.175436,-1.46026 -0.329307,-0.35054 -0.46892,-0.38444 -0.905043,-0.21982 -0.734672,0.27731 -1.452796,-0.12609 -2.250676,-1.2643 -0.6897,-0.98385 -0.974562,-2.36119 -0.488359,-2.36119 0.13548,0 0.298679,0.0847 0.362669,0.18824 0.06396,0.10357 0.244457,0.18825 0.401046,0.18825 0.15659,0 0.416642,0.13193 0.577898,0.29319 0.161257,0.16126 0.423742,0.2431 0.583306,0.18187 0.159556,-0.0613 0.349827,-0.0147 0.422825,0.10346 0.08354,0.13518 0.351847,0.16661 0.72415,0.0848 l 0.591437,-0.1299 -0.897352,-0.92265 c -0.493539,-0.50746 -0.97649,-0.92397 -1.073223,-0.92558 -0.09672,-0.001 -0.546336,-0.18225 -0.999129,-0.40144 -0.967894,-0.46855 -1.929152,-0.49117 -3.347797,-0.0788 -0.892741,0.25952 -1.152901,0.45428 -1.964577,1.47062 -0.555315,0.69537 -0.936469,1.36275 -0.937807,1.64209 -0.0021,0.46216 0.440676,1.49124 1.064792,2.47417 0.276722,0.43581 0.285089,0.59106 0.06745,1.25059 -0.358748,1.08703 -0.1121,1.37814 0.811235,0.95744 z m 0.76548,-9.20826 c 0.890821,-0.21158 1.689782,-0.34135 1.775459,-0.2884 0.08568,0.053 0.31179,-0.0177 0.502481,-0.15724 0.325288,-0.23785 0.327572,-0.28272 0.037,-0.72622 -0.277128,-0.42295 -0.442398,-0.4747 -1.570056,-0.49161 -1.105737,-0.0166 -1.317835,0.0385 -1.729119,0.44988 -0.257841,0.25784 -0.538974,0.46879 -0.624749,0.46879 -0.08577,0 -0.252391,0.1802 -0.370254,0.40043 -0.167155,0.31234 -0.158261,0.43594 0.04041,0.56186 0.316237,0.2004 0.05677,0.22949 1.938821,-0.21749 z M 34.30115,158.18241 c 0.181149,-0.41414 0.400811,-0.9224 0.488138,-1.12947 0.80153,-1.90062 0.984821,-2.18287 1.767121,-2.72111 0.458212,-0.31525 1.008449,-0.57319 1.222746,-0.57319 0.214297,0 0.389634,-0.11764 0.389634,-0.26141 0,-0.14714 0.273762,-0.31279 0.626151,-0.37889 0.85859,-0.16108 1.416027,-0.58545 1.138792,-0.86696 -0.116405,-0.1182 -0.455246,-0.24172 -0.752986,-0.2745 -0.577514,-0.0636 -1.953186,0.4013 -1.953186,0.66004 0,0.0853 -0.157023,0.20496 -0.348945,0.26588 -0.519507,0.16488 -1.8248,1.4339 -2.138881,2.07943 -1.063191,2.18519 -1.249513,2.74114 -1.375743,4.10494 l -0.06631,0.71653 0.337064,-0.43416 c 0.185383,-0.23878 0.485271,-0.773 0.66642,-1.18713 z m 18.526121,0.90691 c 0.171339,-0.10325 -0.5936,-0.66617 -1.104393,-0.81267 -0.529631,-0.15189 -0.565161,-0.12977 -0.565161,0.35187 0,0.75847 0.288475,0.9631 1.003746,0.71202 0.327984,-0.11513 0.627602,-0.22818 0.665808,-0.25122 z m -5.821167,-5.79675 c 0.356757,-0.45557 0.709131,-0.79094 0.783054,-0.74525 0.269066,0.16629 0.733121,-0.15585 0.733121,-0.50893 0,-0.52292 -0.502062,-0.63831 -1.241992,-0.28546 -0.708134,0.33768 -1.391637,1.29891 -1.392734,1.95865 -7.11e-4,0.64703 0.401979,0.49604 1.118551,-0.41901 z m 20.293648,18.51865 c -0.387834,-0.29138 -0.517672,-0.55023 -0.517672,-1.03208 0,-0.35373 0.06816,-0.64316 0.151453,-0.64316 0.08331,0 0.471375,0.29304 0.862389,0.65119 1.09049,0.99884 0.658111,1.89125 -0.49617,1.02405 z"
       id="knux-bottom" />
    <path
       style="fill:#000000;stroke-width:0.0994599"
       id="ball-12"
       d="m 177.09005,128.53273 c 0.80199,-1.42149 1.33494,-1.95871 2.54238,-2.56272 1.86373,-0.9323 3.6304,-0.90031 5.40793,0.0979 1.69262,0.95057 2.8407,2.98307 2.83865,5.02543 -4e-4,0.38955 -0.10655,0.88394 -0.36252,1.6882 -0.33356,1.04837 -0.40532,1.19174 -0.9162,1.83268 -1.46278,1.83524 -4.10702,2.55117 -6.35823,1.72151 -1.01407,-0.37371 -1.61284,-0.7802 -2.30262,-1.56316 -1.0767,-1.22211 -1.51206,-2.4403 -1.40446,-3.92982 0.0817,-1.13069 0.2241,-1.72343 0.55507,-2.31006 z m 1.63616,0.908 c 0.2574,0.33688 0.37141,0.68002 0.62644,1.88555 0.35633,1.68443 1.01585,2.43484 2.26757,2.58008 0.62157,0.0721 0.89762,-0.0317 1.3025,-0.4898 0.43368,-0.49069 0.4747,-1.05314 0.14261,-1.95476 -0.1445,-0.39229 -0.33488,-0.76371 -0.42307,-0.82539 -0.0882,-0.0617 -0.30428,-0.40665 -0.48021,-0.76663 -0.25662,-0.52508 -0.30566,-0.74599 -0.24797,-1.1173 0.0396,-0.25454 0.137,-0.57101 0.21683,-0.70315 0.0796,-0.13221 0.23493,-0.39978 0.3451,-0.5946 0.11019,-0.19481 0.25761,-0.43652 0.32766,-0.53711 0.18525,-0.26601 0.0614,-0.3405 -0.62065,-0.37318 -1.20231,-0.0576 -2.62085,0.65053 -3.50972,1.75212 -0.35963,0.44568 -0.35182,0.61434 0.053,1.14421 z m -0.88734,1.72046 c -0.01,0.66722 0.28431,1.56274 0.74057,2.25703 0.3682,0.56032 1.12459,1.23967 1.52332,1.36818 0.13991,0.0447 0.34235,0.15121 0.45009,0.23596 0.30399,0.23898 1.99056,0.45366 2.54953,0.32452 0.97207,-0.22458 2.11662,-0.89587 2.64929,-1.55382 0.51263,-0.63319 0.92979,-1.67983 1.01566,-2.54819 0.13641,-1.37945 -0.88842,-3.35696 -2.03525,-3.92726 -0.37302,-0.1855 -0.40727,-0.1814 -0.93957,0.11203 -0.42767,0.23577 -0.59795,0.39832 -0.75389,0.71965 -0.31154,0.64204 -0.30497,0.98828 0.0283,1.51158 1.09107,1.71261 1.30909,2.43212 1.02136,3.37075 -0.24308,0.79337 -0.50934,1.10024 -1.2577,1.45029 -0.94319,0.4412 -1.89285,0.3345 -2.87071,-0.32253 -0.80174,-0.53868 -1.09918,-1.18426 -1.36852,-2.97032 -0.0742,-0.49218 -0.29252,-0.86186 -0.50109,-0.8486 -0.20541,0.013 -0.24161,0.13118 -0.25161,0.82068 z" />
    <path
       style="fill:#000000;stroke-width:0.1862"
       d="m 151.64106,80.11405 c -1.92807,-0.355956 -4.42047,-1.296573 -5.38098,-3.113941 -1.11224,-1.744734 -1.2586,-3.257224 -1.22271,-4.51514 0.11793,-3.769751 1.11261,-4.826978 3.90613,-6.607259 1.02871,-0.674036 3.98885,-0.993728 5.21126,-0.562816 0.40964,0.144402 1.1856,0.399152 1.72436,0.566103 2.16781,0.95681 3.88978,3.350309 4.23073,5.694482 0.39972,3.183197 -0.98299,6.48235 -4.71009,8.114696 -1.33329,0.348693 -2.51394,0.616801 -3.75869,0.423875 z m 0.63398,-1.763257 c 0.13043,-0.339897 -0.39747,-1.283539 -1.04131,-1.861395 -1.28799,-1.155949 -3.34247,-1.738815 -3.87352,-1.098939 -0.1914,0.230626 -0.0706,0.433263 0.71919,1.206627 0.9277,0.908371 1.58763,1.288705 3.09615,1.784369 0.97121,0.319115 0.96521,0.319284 1.09949,-0.03068 z m 2.9529,-0.491055 c 1.36832,-0.72876 2.68044,-2.104709 3.02728,-4.096402 0.0653,-0.369236 0.0226,-1.058453 0.006,-1.257226 -0.23522,0.557383 -2.82992,0.840346 -4.06375,0.714262 -3.22329,-1.030006 -4.29605,-2.45994 -4.66298,-5.275843 0.0845,-0.423199 0.44109,-1.275664 -0.54716,-0.648849 -2.51734,1.947716 -2.70307,4.000742 -2.23671,6.301909 2.94827,0.04166 5.66543,1.20479 6.75842,3.517301 0.48747,1.049621 0.87372,1.217014 1.71857,0.744806 z m 1.21059,-6.19539 c 0.40671,-0.162727 0.91866,-0.50197 1.13768,-0.753869 0.37254,-0.42845 0.38058,-0.500239 0.12459,-1.112888 -1.06119,-1.867848 -2.32052,-2.720158 -4.11184,-3.064678 -0.95168,-0.263533 -1.15662,-0.303978 -1.77122,0.384423 -0.77321,0.866047 -0.75198,1.850838 0.0631,2.925491 1.25599,1.656026 2.95806,2.261581 4.55772,1.621521 z"
       id="level-1"
       sodipodi:nodetypes="ccccscccccsssssssccccccccccsscccsss" />
    <path
       style="fill:#000000;stroke-width:0.1862"
       d="m 170.45283,80.114283 c -1.92807,-0.355956 -4.42047,-1.296573 -5.38098,-3.113941 -1.11224,-1.744734 -1.2586,-3.257224 -1.22271,-4.51514 0.11793,-3.769751 1.11261,-4.826978 3.90613,-6.607259 1.02871,-0.674036 3.98885,-0.993728 5.21126,-0.562816 0.40964,0.144402 1.1856,0.399152 1.72436,0.566103 2.16781,0.95681 3.88978,3.350309 4.23073,5.694482 0.39972,3.183197 -0.98299,6.48235 -4.71009,8.114696 -1.33329,0.348693 -2.51394,0.616801 -3.75869,0.423875 z m 0.63398,-1.763257 c 0.13043,-0.339897 -0.39747,-1.283539 -1.04131,-1.861395 -1.28799,-1.155949 -3.34247,-1.738815 -3.87352,-1.098939 -0.1914,0.230626 -0.0706,0.433263 0.71919,1.206627 0.9277,0.908371 1.58763,1.288705 3.09615,1.784369 0.97121,0.319115 0.96521,0.319284 1.09949,-0.03068 z m 2.9529,-0.491055 c 1.36832,-0.72876 2.68044,-2.104709 3.02728,-4.096402 0.0653,-0.369236 0.0226,-1.058453 0.006,-1.257226 -0.23522,0.557383 -2.82992,0.840346 -4.06375,0.714262 -3.22329,-1.030006 -4.29605,-2.45994 -4.66298,-5.275843 0.0845,-0.423199 0.44109,-1.275664 -0.54716,-0.648849 -2.51734,1.947716 -2.70307,4.000742 -2.23671,6.301909 2.94827,0.04166 5.66543,1.20479 6.75842,3.517301 0.48747,1.049621 0.87372,1.217014 1.71857,0.744806 z m 1.21059,-6.19539 c 0.40671,-0.162727 0.91866,-0.50197 1.13768,-0.753869 0.37254,-0.42845 0.38058,-0.500239 0.12459,-1.112888 -1.06119,-1.867848 -2.32052,-2.720158 -4.11184,-3.064678 -0.95168,-0.263533 -1.15662,-0.303978 -1.77122,0.384423 -0.77321,0.866047 -0.75198,1.850838 0.0631,2.925491 1.25599,1.656026 2.95806,2.261581 4.55772,1.621521 z"
       id="level-2"
       sodipodi:nodetypes="ccccscccccsssssssccccccccccsscccsss" />
    <path
       style="fill:#000000;stroke-width:0.1862"
       d="m 188.95153,80.114283 c -1.92806,-0.355956 -4.42046,-1.296573 -5.38097,-3.113941 -1.11224,-1.744734 -1.25861,-3.257224 -1.22272,-4.51514 0.11793,-3.769751 1.11261,-4.826978 3.90613,-6.607259 1.02871,-0.674036 3.98885,-0.993728 5.21126,-0.562816 0.40964,0.144402 1.1856,0.399152 1.72436,0.566103 2.16781,0.95681 3.88978,3.350309 4.23073,5.694482 0.39972,3.183197 -0.98299,6.48235 -4.71009,8.114696 -1.33329,0.348693 -2.51394,0.616801 -3.75869,0.423875 z m 0.63399,-1.763257 c 0.13042,-0.339897 -0.39747,-1.283539 -1.04132,-1.861395 -1.28799,-1.155949 -3.34246,-1.738815 -3.87352,-1.098939 -0.1914,0.230626 -0.0706,0.433263 0.71919,1.206627 0.9277,0.908371 1.58763,1.288705 3.09615,1.784369 0.97121,0.319115 0.96521,0.319284 1.09949,-0.03068 z m 2.9529,-0.491055 c 1.36832,-0.72876 2.68044,-2.104709 3.02727,-4.096402 0.0653,-0.369236 0.0226,-1.058453 0.006,-1.257226 -0.23522,0.557383 -2.82991,0.840346 -4.06375,0.714262 -3.22328,-1.030006 -4.29605,-2.45994 -4.66298,-5.275843 0.0845,-0.423199 0.44109,-1.275664 -0.54716,-0.648849 -2.51733,1.947716 -2.70306,4.000742 -2.2367,6.301909 2.94827,0.04166 5.66542,1.20479 6.75842,3.517301 0.48747,1.049621 0.87372,1.217014 1.71857,0.744806 z m 1.21058,-6.19539 c 0.40672,-0.162727 0.91866,-0.50197 1.13768,-0.753869 0.37254,-0.42845 0.38058,-0.500239 0.12459,-1.112888 -1.06119,-1.867848 -2.32051,-2.720158 -4.11184,-3.064678 -0.95168,-0.263533 -1.15662,-0.303978 -1.77122,0.384423 -0.77321,0.866047 -0.75198,1.850838 0.0631,2.925491 1.25599,1.656026 2.95806,2.261581 4.55772,1.621521 z"
       id="level-3"
       sodipodi:nodetypes="ccccscccccsssssssccccccccccsscccsss" />
    <path
       style="fill:#000000;stroke-width:0.0994599"
       id="ball-23"
       d="m 144.85383,163.55567 c 0.80199,-1.42149 1.33494,-1.95871 2.54238,-2.56272 1.86373,-0.9323 3.6304,-0.90031 5.40793,0.0979 1.69262,0.95057 2.8407,2.98307 2.83865,5.02543 -4e-4,0.38955 -0.10655,0.88394 -0.36252,1.6882 -0.33356,1.04837 -0.40532,1.19174 -0.9162,1.83268 -1.46278,1.83524 -4.10702,2.55117 -6.35823,1.72151 -1.01407,-0.37371 -1.61284,-0.7802 -2.30262,-1.56316 -1.0767,-1.22211 -1.51206,-2.4403 -1.40446,-3.92982 0.0817,-1.13069 0.2241,-1.72343 0.55507,-2.31006 z m 1.63616,0.908 c 0.2574,0.33688 0.37141,0.68002 0.62644,1.88555 0.35633,1.68443 1.01585,2.43484 2.26757,2.58008 0.62157,0.0721 0.89762,-0.0317 1.3025,-0.4898 0.43368,-0.49069 0.4747,-1.05314 0.14261,-1.95476 -0.1445,-0.39229 -0.33488,-0.76371 -0.42307,-0.82539 -0.0882,-0.0617 -0.30428,-0.40665 -0.48021,-0.76663 -0.25662,-0.52508 -0.30566,-0.74599 -0.24797,-1.1173 0.0396,-0.25454 0.137,-0.57101 0.21683,-0.70315 0.0796,-0.13221 0.23493,-0.39978 0.3451,-0.5946 0.11019,-0.19481 0.25761,-0.43652 0.32766,-0.53711 0.18525,-0.26601 0.0614,-0.3405 -0.62065,-0.37318 -1.20231,-0.0576 -2.62085,0.65053 -3.50972,1.75212 -0.35963,0.44568 -0.35182,0.61434 0.053,1.14421 z m -0.88734,1.72046 c -0.01,0.66722 0.28431,1.56274 0.74057,2.25703 0.3682,0.56032 1.12459,1.23967 1.52332,1.36818 0.13991,0.0447 0.34235,0.15121 0.45009,0.23596 0.30399,0.23898 1.99056,0.45366 2.54953,0.32452 0.97207,-0.22458 2.11662,-0.89587 2.64929,-1.55382 0.51263,-0.63319 0.92979,-1.67983 1.01566,-2.54819 0.13641,-1.37945 -0.88842,-3.35696 -2.03525,-3.92726 -0.37302,-0.1855 -0.40727,-0.1814 -0.93957,0.11203 -0.42767,0.23577 -0.59795,0.39832 -0.75389,0.71965 -0.31154,0.64204 -0.30497,0.98828 0.0283,1.51158 1.09107,1.71261 1.30909,2.43212 1.02136,3.37075 -0.24308,0.79337 -0.50934,1.10024 -1.2577,1.45029 -0.94319,0.4412 -1.89285,0.3345 -2.87071,-0.32253 -0.80174,-0.53868 -1.09918,-1.18426 -1.36852,-2.97032 -0.0742,-0.49218 -0.29252,-0.86186 -0.50109,-0.8486 -0.20541,0.013 -0.24161,0.13118 -0.25161,0.82068 z" />
    <path
       style="fill:#000000;stroke-width:0.0994599"
       id="ball-43"
       d="m 80.503469,169.9907 c 0.80199,-1.42149 1.33494,-1.95871 2.54238,-2.56272 1.86373,-0.9323 3.6304,-0.90031 5.40793,0.0979 1.69262,0.95057 2.8407,2.98307 2.83865,5.02543 -4e-4,0.38955 -0.10655,0.88394 -0.36252,1.6882 -0.33356,1.04837 -0.40532,1.19174 -0.9162,1.83268 -1.46278,1.83524 -4.10702,2.55117 -6.35823,1.72151 -1.01407,-0.37371 -1.61284,-0.7802 -2.30262,-1.56316 -1.0767,-1.22211 -1.51206,-2.4403 -1.40446,-3.92982 0.0817,-1.13069 0.2241,-1.72343 0.55507,-2.31006 z m 1.63616,0.908 c 0.2574,0.33688 0.37141,0.68002 0.62644,1.88555 0.35633,1.68443 1.01585,2.43484 2.26757,2.58008 0.62157,0.0721 0.89762,-0.0317 1.3025,-0.4898 0.43368,-0.49069 0.4747,-1.05314 0.14261,-1.95476 -0.1445,-0.39229 -0.33488,-0.76371 -0.42307,-0.82539 -0.0882,-0.0617 -0.30428,-0.40665 -0.48021,-0.76663 -0.25662,-0.52508 -0.30566,-0.74599 -0.24797,-1.1173 0.0396,-0.25454 0.137,-0.57101 0.21683,-0.70315 0.0796,-0.13221 0.23493,-0.39978 0.3451,-0.5946 0.11019,-0.19481 0.25761,-0.43652 0.32766,-0.53711 0.18525,-0.26601 0.0614,-0.3405 -0.62065,-0.37318 -1.20231,-0.0576 -2.62085,0.65053 -3.50972,1.75212 -0.35963,0.44568 -0.35182,0.61434 0.053,1.14421 z m -0.88734,1.72046 c -0.01,0.66722 0.28431,1.56274 0.74057,2.25703 0.3682,0.56032 1.12459,1.23967 1.52332,1.36818 0.13991,0.0447 0.34235,0.15121 0.45009,0.23596 0.30399,0.23898 1.99056,0.45366 2.54953,0.32452 0.97207,-0.22458 2.11662,-0.89587 2.64929,-1.55382 0.51263,-0.63319 0.92979,-1.67983 1.01566,-2.54819 0.13641,-1.37945 -0.88842,-3.35696 -2.03525,-3.92726 -0.37302,-0.1855 -0.40727,-0.1814 -0.93957,0.11203 -0.42767,0.23577 -0.59795,0.39832 -0.75389,0.71965 -0.31154,0.64204 -0.30497,0.98828 0.0283,1.51158 1.09107,1.71261 1.30909,2.43212 1.02136,3.37075 -0.24308,0.79337 -0.50934,1.10024 -1.2577,1.45029 -0.94319,0.4412 -1.89285,0.3345 -2.87071,-0.32253 -0.80174,-0.53868 -1.09918,-1.18426 -1.36852,-2.97032 -0.0742,-0.49218 -0.29252,-0.86186 -0.50109,-0.8486 -0.20541,0.013 -0.24161,0.13118 -0.25161,0.82068 z" />
    <path
       style="fill:#000000;stroke-width:0.0994599"
       id="ball-41"
       d="m 80.383183,87.477908 c 0.801987,-1.42149 1.334937,-1.95871 2.542377,-2.56272 1.86373,-0.9323 3.6304,-0.90031 5.40793,0.0979 1.69262,0.95057 2.8407,2.98307 2.83865,5.02543 -4e-4,0.38955 -0.10655,0.88394 -0.36252,1.6882 -0.33356,1.04837 -0.40532,1.19174 -0.9162,1.83268 -1.46278,1.83524 -4.10702,2.55117 -6.35823,1.72151 -1.01407,-0.37371 -1.61284,-0.7802 -2.30262,-1.56316 -1.076697,-1.22211 -1.512057,-2.4403 -1.404457,-3.92982 0.0817,-1.13069 0.2241,-1.72343 0.55507,-2.31006 z m 1.636157,0.908 c 0.2574,0.33688 0.37141,0.68002 0.62644,1.88555 0.35633,1.68443 1.01585,2.43484 2.26757,2.58008 0.62157,0.0721 0.89762,-0.0317 1.3025,-0.4898 0.43368,-0.49069 0.4747,-1.05314 0.14261,-1.95476 -0.1445,-0.39229 -0.33488,-0.76371 -0.42307,-0.82539 -0.0882,-0.0617 -0.30428,-0.40665 -0.48021,-0.76663 -0.25662,-0.52508 -0.30566,-0.74599 -0.24797,-1.1173 0.0396,-0.25454 0.137,-0.57101 0.21683,-0.70315 0.0796,-0.13221 0.23493,-0.39978 0.3451,-0.5946 0.11019,-0.19481 0.25761,-0.43652 0.32766,-0.53711 0.18525,-0.26601 0.0614,-0.3405 -0.62065,-0.37318 -1.20231,-0.0576 -2.62085,0.65053 -3.50972,1.75212 -0.35963,0.44568 -0.35182,0.61434 0.053,1.14421 z m -0.88734,1.72046 c -0.01,0.66722 0.28431,1.56274 0.74057,2.25703 0.3682,0.56032 1.12459,1.23967 1.52332,1.36818 0.13991,0.0447 0.34235,0.15121 0.45009,0.23596 0.30399,0.23898 1.99056,0.45366 2.54953,0.32452 0.97207,-0.22458 2.11662,-0.89587 2.64929,-1.55382 0.51263,-0.63319 0.92979,-1.67983 1.01566,-2.54819 0.13641,-1.37945 -0.88842,-3.35696 -2.03525,-3.92726 -0.37302,-0.1855 -0.40727,-0.1814 -0.93957,0.11203 -0.42767,0.23577 -0.59795,0.39832 -0.75389,0.71965 -0.31154,0.64204 -0.30497,0.98828 0.0283,1.51158 1.09107,1.71261 1.30909,2.43212 1.02136,3.37075 -0.24308,0.79337 -0.50934,1.10024 -1.2577,1.45029 -0.94319,0.4412 -1.89285,0.3345 -2.87071,-0.32253 -0.80174,-0.53868 -1.09918,-1.18426 -1.36852,-2.97032 -0.0742,-0.49218 -0.29252,-0.86186 -0.50109,-0.8486 -0.20541,0.013 -0.24161,0.13118 -0.25161,0.82068 z" />
    <path
       style="fill:#000000;stroke-width:0.0994599"
       id="ball-21"
       d="m 145.39509,96.078001 c 0.80199,-1.42149 1.33494,-1.95871 2.54238,-2.56272 1.86373,-0.9323 3.6304,-0.90031 5.40793,0.0979 1.69262,0.95057 2.8407,2.98307 2.83865,5.025428 -4e-4,0.38955 -0.10655,0.88394 -0.36252,1.688201 -0.33356,1.04837 -0.40532,1.19174 -0.9162,1.83268 -1.46278,1.83524 -4.10702,2.55117 -6.35823,1.72151 -1.01407,-0.37371 -1.61284,-0.7802 -2.30262,-1.56316 -1.0767,-1.22211 -1.51206,-2.440301 -1.40446,-3.929821 0.0817,-1.130688 0.2241,-1.723428 0.55507,-2.310058 z m 1.63616,0.908 c 0.2574,0.33688 0.37141,0.680018 0.62644,1.885548 0.35633,1.684431 1.01585,2.434841 2.26757,2.580081 0.62157,0.0721 0.89762,-0.0317 1.3025,-0.4898 0.43368,-0.49069 0.4747,-1.053141 0.14261,-1.954761 -0.1445,-0.39229 -0.33488,-0.76371 -0.42307,-0.82539 -0.0882,-0.0617 -0.30428,-0.40665 -0.48021,-0.766628 -0.25662,-0.52508 -0.30566,-0.74599 -0.24797,-1.1173 0.0396,-0.25454 0.137,-0.57101 0.21683,-0.70315 0.0796,-0.13221 0.23493,-0.39978 0.3451,-0.5946 0.11019,-0.19481 0.25761,-0.43652 0.32766,-0.53711 0.18525,-0.26601 0.0614,-0.3405 -0.62065,-0.37318 -1.20231,-0.0576 -2.62085,0.65053 -3.50972,1.75212 -0.35963,0.44568 -0.35182,0.61434 0.053,1.14421 z m -0.88734,1.720458 c -0.01,0.66722 0.28431,1.562741 0.74057,2.257031 0.3682,0.56032 1.12459,1.23967 1.52332,1.36818 0.13991,0.0447 0.34235,0.15121 0.45009,0.23596 0.30399,0.23898 1.99056,0.45366 2.54953,0.32452 0.97207,-0.22458 2.11662,-0.89587 2.64929,-1.55382 0.51263,-0.63319 0.92979,-1.679831 1.01566,-2.548191 0.13641,-1.379448 -0.88842,-3.356958 -2.03525,-3.927258 -0.37302,-0.1855 -0.40727,-0.1814 -0.93957,0.11203 -0.42767,0.23577 -0.59795,0.39832 -0.75389,0.71965 -0.31154,0.64204 -0.30497,0.98828 0.0283,1.51158 1.09107,1.712608 1.30909,2.432118 1.02136,3.370749 -0.24308,0.79337 -0.50934,1.10024 -1.2577,1.45029 -0.94319,0.4412 -1.89285,0.3345 -2.87071,-0.32253 -0.80174,-0.53868 -1.09918,-1.18426 -1.36852,-2.970321 -0.0742,-0.49218 -0.29252,-0.86186 -0.50109,-0.8486 -0.20541,0.013 -0.24161,0.13118 -0.25161,0.82068 z" />
    <g
       id="ball-miss">
      <path
         style="fill:#000000;stroke-width:0.140457"
         d="m 26.041731,135.17048 c -1.4544,-0.26852 -3.3345,-0.97805 -4.05904,-2.34895 -0.839,-1.31611 -0.9494,-2.45703 -0.92233,-3.40591 0.089,-2.84364 0.83928,-3.64114 2.94652,-4.98407 0.77599,-0.50844 3.00891,-0.7496 3.93102,-0.42455 0.309,0.10893 0.89433,0.3011 1.30074,0.42703 1.63524,0.72175 2.93418,2.52725 3.19137,4.29553 0.30152,2.40118 -0.7415,4.88984 -3.55297,6.12117 -1.00574,0.26303 -1.89635,0.46527 -2.8353,0.31975 z m 0.47823,-1.33009 c 0.0984,-0.25639 -0.29982,-0.96821 -0.78549,-1.4041 -0.97157,-0.87197 -2.52133,-1.31165 -2.92192,-0.82897 -0.14438,0.17397 -0.0532,0.32682 0.54251,0.91019 0.69979,0.68522 1.1976,0.97212 2.33552,1.34601 0.73262,0.24072 0.72809,0.24085 0.82938,-0.0232 z m 2.22747,-0.37041 c 1.03217,-0.54973 2.02194,-1.58765 2.28357,-3.09005 0.0493,-0.27853 0.0171,-0.79843 0.005,-0.94836 -0.17743,0.42044 -2.1347,0.63389 -3.06542,0.53878 -2.43143,-0.77696 -3.24064,-1.85561 -3.51743,-3.97973 0.0637,-0.31923 0.33273,-0.96227 -0.41274,-0.48945 -1.89891,1.46923 -2.03901,3.01789 -1.68722,4.75373 2.22397,0.0315 4.27361,0.90881 5.09809,2.65321 0.36771,0.79177 0.65907,0.91803 1.29637,0.56183 z m 0.91319,-4.67338 c 0.30679,-0.12275 0.69297,-0.37866 0.85818,-0.56867 0.28102,-0.32319 0.28709,-0.37735 0.094,-0.83949 -0.80049,-1.40897 -1.75045,-2.0519 -3.10169,-2.31178 -0.71789,-0.19879 -0.87248,-0.2293 -1.33609,0.28998 -0.58326,0.65329 -0.56724,1.39615 0.0476,2.20679 0.94743,1.24919 2.23135,1.70599 3.43803,1.22317 z"
         id="path2021-06-8-4"
         sodipodi:nodetypes="ccccscccccsssssssccccccccccsscccsss" />
      <path
         id="path3684"
         style="fill:#000000;stroke-width:0.193088"
         d="m 32.917937,121.56874 c -1.15554,-0.81976 -2.564462,-1.12319 -3.861753,-1.64484 -2.846044,-0.92838 -5.892983,-0.17854 -8.584609,0.89388 -0.496846,0.29342 -2.638121,0.76814 -1.564747,-0.29966 0.781967,-2.80457 -0.68119,-7.39005 -2.205933,-9.47423 -0.563293,-0.28334 -0.448424,-1.88009 0.203715,-0.84114 1.562003,1.01779 3.174106,2.56535 4.864863,2.6646 1.009824,0.50724 2.216422,0.45233 2.816162,-0.63999 0.945033,-1.47028 1.329081,-3.22151 1.764502,-4.89636 0.479264,-1.74749 1.117808,-3.7088 1.486897,-5.22071 0.08233,-0.47874 0.366964,-1.11318 0.482693,-0.25346 0.513982,2.90286 0.359924,5.87887 0.896136,8.77612 0.340332,0.97363 0.03656,2.18998 0.901076,2.94216 1.932237,0.68096 5.261415,-1.70307 6.205643,-2.83882 0.432706,-0.01 1.046546,-0.81803 0.758273,0.1297 -1.432845,1.89266 -3.116312,6.35911 -3.161376,8.214 -0.113471,0.95219 -0.01424,2.21448 -0.272529,2.97993 -0.25105,-0.15142 -0.490029,-0.32169 -0.729013,-0.49118 z"
         sodipodi:nodetypes="cccccccccccccccccc" />
      <path
         id="path3684-1"
         style="fill:#000000;stroke-width:0.193088"
         d="m 32.786755,138.4102 c -1.15554,0.81976 -2.564462,1.12319 -3.861753,1.64484 -2.846044,0.92838 -5.892983,0.17854 -8.584609,-0.89388 -0.496846,-0.29342 -2.638121,-0.76814 -1.564747,0.29966 0.781967,2.80457 -0.68119,7.39005 -2.205933,9.47423 -0.563293,0.28334 -0.448424,1.88009 0.203715,0.84114 1.562003,-1.01779 3.174106,-2.56535 4.864863,-2.6646 1.009824,-0.50724 2.216422,-0.45233 2.816162,0.63999 0.945033,1.47028 1.329081,3.22151 1.764502,4.89636 0.479264,1.74749 1.117808,3.7088 1.486897,5.22071 0.08233,0.47874 0.366964,1.11318 0.482693,0.25346 0.513982,-2.90286 0.359924,-5.87887 0.896136,-8.77612 0.340332,-0.97363 0.03656,-2.18998 0.901076,-2.94216 1.932237,-0.68096 5.261415,1.70307 6.205643,2.83882 0.432706,0.01 1.046546,0.81803 0.758273,-0.1297 -1.432845,-1.89266 -3.116312,-6.35911 -3.161376,-8.214 -0.113471,-0.95219 -0.01424,-2.21448 -0.272529,-2.97993 -0.25105,0.15142 -0.490029,0.32169 -0.729013,0.49118 z"
         sodipodi:nodetypes="cccccccccccccccccc" />
    </g>
  </g>
</svg>
