<?xml version="1.0" encoding="UTF-8" standalone="no"?>
<svg
   id="svg5"
   width="723.142"
   height="545.355"
   version="1.1"
   viewBox="0 0 191.331 144.292"
   sodipodi:docname="kbaseball_1.svg"
   inkscape:version="1.1 (c68e22c387, 2021-05-23)"
   xmlns:inkscape="http://www.inkscape.org/namespaces/inkscape"
   xmlns:sodipodi="http://sodipodi.sourceforge.net/DTD/sodipodi-0.dtd"
   xmlns="http://www.w3.org/2000/svg"
   xmlns:svg="http://www.w3.org/2000/svg">
  <defs
     id="defs28">
    <pattern
       id="EMFhbasepattern"
       patternUnits="userSpaceOnUse"
       width="6"
       height="6"
       x="0"
       y="0" />
    <pattern
       id="EMFhbasepattern-6"
       patternUnits="userSpaceOnUse"
       width="6"
       height="6"
       x="0"
       y="0" />
  </defs>
  <sodipodi:namedview
     id="namedview26"
     pagecolor="#ffffff"
     bordercolor="#666666"
     borderopacity="1.0"
     inkscape:pageshadow="2"
     inkscape:pageopacity="0.0"
     inkscape:pagecheckerboard="0"
     showgrid="false"
     inkscape:zoom="1.3844194"
     inkscape:cx="374.16408"
     inkscape:cy="260.03681"
     inkscape:window-width="3840"
     inkscape:window-height="2126"
     inkscape:window-x="-11"
     inkscape:window-y="-11"
     inkscape:window-maximized="1"
     inkscape:current-layer="svg5" />
  <path
     style="fill:#000000;stroke-width:0.0665209"
     d="m 52.401262,60.51776 c -0.309658,-0.105702 -0.592544,-0.221707 -0.628625,-0.257793 -0.03607,-0.03609 -0.119491,-0.06562 -0.185346,-0.06562 -0.06585,0 -0.119743,-0.02791 -0.119743,-0.06204 0,-0.03412 -0.05939,-0.08088 -0.131916,-0.103913 -0.200805,-0.06374 -0.73963,-0.632211 -0.849846,-0.896611 -0.05382,-0.12903 -0.154235,-0.314058 -0.223221,-0.411174 -0.06899,-0.09712 -0.125431,-0.210619 -0.125431,-0.252234 0,-0.04161 -0.05983,-0.139925 -0.133047,-0.218466 -0.0732,-0.07854 -0.133037,-0.194987 -0.133037,-0.258767 0,-0.06378 -0.08871,-0.290125 -0.197179,-0.502991 -0.108452,-0.212869 -0.258119,-0.52758 -0.332604,-0.699359 -0.140187,-0.3233 -0.181498,-0.815467 -0.07401,-0.881887 0.03372,-0.02086 0.08101,-0.12723 0.104982,-0.236353 0.02395,-0.109123 0.09361,-0.227606 0.154793,-0.263297 0.06117,-0.0357 0.08756,-0.0658 0.05868,-0.0669 -0.06611,-0.0025 0.04189,-0.138375 0.405715,-0.510115 0.28434,-0.290521 0.494411,-0.666251 0.515546,-0.922107 0.0063,-0.07317 0.0437,-0.267747 0.08371,-0.432386 0.04001,-0.164639 0.108288,-0.449015 0.151751,-0.631948 0.0435,-0.182932 0.08612,-0.83283 0.09477,-1.444219 0.02233,-1.573278 0.0262,-1.591552 0.64427,-3.044946 l 0.268344,-0.630956 -0.0063,-1.33141 c -0.0036,-0.732275 -0.01929,-1.525983 -0.03571,-1.763796 -0.09858,-1.430289 -0.133701,-1.804448 -0.265322,-2.827136 -0.159142,-1.236463 -0.14539,-1.581878 0.09535,-2.394752 0.07581,-0.256104 0.195734,-0.574492 0.266434,-0.707526 0.172276,-0.324208 0.164615,-0.379042 -0.09131,-0.653347 -0.215606,-0.231098 -0.387298,-0.603983 -0.613885,-1.333222 -0.06253,-0.201225 -0.199853,-0.555042 -0.305188,-0.786261 -0.105331,-0.231218 -0.191501,-0.436728 -0.191501,-0.456689 0,-0.04213 -0.426618,-0.911772 -0.559477,-1.140468 -0.04951,-0.08523 -0.172105,-0.21994 -0.272435,-0.299344 -0.368163,-0.291401 -0.538036,-0.484029 -0.69925,-0.792953 -0.09069,-0.173785 -0.184101,-0.315975 -0.207569,-0.315975 -0.0235,0 -0.106019,-0.127221 -0.183435,-0.282712 -0.07742,-0.155493 -0.177991,-0.341518 -0.223518,-0.413389 -0.287831,-0.45443 -0.581671,-0.954129 -0.581671,-0.98918 0,-0.02263 -0.152971,-0.363641 -0.339932,-0.757802 -0.186961,-0.394161 -0.364153,-0.776526 -0.393767,-0.849699 -0.0296,-0.07317 -0.142053,-0.327615 -0.249865,-0.565428 -0.107808,-0.237812 -0.218315,-0.507221 -0.245577,-0.598688 -0.05382,-0.180687 -0.137514,-0.384631 -0.368442,-0.898031 -0.268703,-0.597373 -0.280769,-0.700663 -0.112377,-0.962136 0.141999,-0.22049 0.148665,-0.279034 0.10627,-0.933708 -0.02485,-0.384158 -0.04844,-1.136238 -0.0523,-1.671288 -0.0045,-0.662818 -0.03776,-1.059803 -0.103356,-1.245783 -0.222011,-0.629243 -0.258424,-1.818827 -0.08146,-2.661365 0.05868,-0.279524 0.169308,-0.926264 0.245775,-1.437203 0.07644,-0.51094 0.168212,-0.964153 0.20389,-1.007141 0.07527,-0.09066 0.01131,-0.99629 -0.08289,-1.175105 -0.03418,-0.06478 -0.04431,-0.146483 -0.02271,-0.181558 0.0217,-0.03508 0.0081,-0.122437 -0.03032,-0.19414 -0.161933,-0.30257 -0.244751,-0.959232 -0.165171,-1.309548 0.08441,-0.371404 0.372497,-1.042085 0.508729,-1.184232 0.04728,-0.04932 0.13083,-0.15924 0.185705,-0.244288 0.196713,-0.304845 0.681363,-0.726439 0.835088,-0.726439 0.271323,0 0.374631,0.174274 0.330342,0.557276 -0.03589,0.31009 -0.06342,1.371194 -0.04297,1.654543 0.01409,0.195547 0.268318,0.138717 0.393992,-0.08809 0.06234,-0.112469 0.165987,-0.267049 0.230361,-0.343507 0.106859,-0.126927 0.132895,-0.130846 0.299339,-0.04507 0.100269,0.05167 0.204304,0.12393 0.23118,0.160576 0.06782,0.09241 0.06342,0.43249 -0.0053,0.43249 -0.08881,0 -0.267017,0.46645 -0.316805,0.829288 -0.05983,0.436207 -0.390941,1.22972 -0.56354,1.350614 -0.12587,0.08815 -0.133271,0.137701 -0.09035,0.604457 0.02575,0.279633 0.05732,0.64313 0.07033,0.807768 0.02395,0.304367 0.09523,0.684838 0.218008,1.164116 0.342669,1.337628 0.422178,2.174369 0.265673,2.795899 -0.06971,0.27692 -0.06208,0.311675 0.133046,0.606289 0.178152,0.26897 0.223393,0.381901 0.222621,0.555803 -8.1e-5,0.0183 0.05186,0.08624 0.115365,0.15099 0.110306,0.112424 0.127028,0.107175 0.371133,-0.116412 0.140592,-0.128777 0.280958,-0.23414 0.311917,-0.23414 0.03094,0 0.120568,-0.05987 0.199108,-0.133042 0.07858,-0.07317 0.197036,-0.13304 0.263304,-0.13304 0.06629,0 0.120505,-0.02263 0.120505,-0.05029 0,-0.09392 0.846489,-0.374534 1.370002,-0.454159 0.26525,-0.04034 0.99109,0.0693 1.124522,0.169874 0.03661,0.02758 0.141641,0.068 0.233457,0.08982 0.0918,0.02183 0.282664,0.145691 0.424116,0.275255 0.255346,0.233885 0.542028,0.311836 0.560561,0.15242 0.06171,-0.531013 0.10364,-0.766532 0.153071,-0.860398 0.08101,-0.153794 0.0802,-0.15656 -0.10627,-0.366809 -0.275988,-0.311207 -0.30038,-0.344639 -0.30038,-0.411734 0,-0.03558 -0.08558,-0.253866 -0.1902,-0.485084 -0.234553,-0.518415 -0.270212,-0.617809 -0.34179,-0.952564 -0.230488,-1.07797 -0.671827,-2.398837 -0.928671,-2.779411 -0.174538,-0.258608 -0.428915,-0.446851 -0.603856,-0.446851 -0.131933,0 -0.637764,-0.474751 -0.956813,-0.898032 -0.299069,-0.396761 -0.527226,-0.60503 -0.809637,-0.73904 -0.230605,-0.10943 -0.492886,-0.332674 -0.492886,-0.419521 0,-0.200006 0.713533,-0.31644 0.885478,-0.144495 0.03983,0.03984 0.156236,0.07243 0.258673,0.07243 0.224317,0 0.238563,-0.12505 0.0531,-0.465646 -0.0697,-0.128053 -0.189921,-0.366927 -0.267079,-0.530833 -0.07715,-0.163904 -0.161457,-0.313576 -0.187338,-0.332603 -0.07598,-0.05587 -0.210646,-0.396054 -0.210646,-0.532151 0,-0.06899 0.05822,-0.143895 0.129298,-0.166466 0.187795,-0.05961 1.485385,0.02364 1.561942,0.100203 0.03571,0.0357 0.13912,0.06492 0.229825,0.06492 0.204579,0 0.606734,0.141131 0.606734,0.212926 0,0.02924 0.03211,0.05317 0.07131,0.05317 0.09846,0 0.26429,0.17443 0.213811,0.224904 -0.02261,0.02265 0.0017,0.04118 0.05373,0.04118 0.05221,0 0.133916,0.06252 0.181642,0.138955 0.152091,0.243535 0.533567,1.539326 0.605352,2.056233 0.08298,0.597363 0.190146,0.997814 0.267071,0.997814 0.03087,0 0.101687,0.113746 0.157304,0.252768 0.05562,0.139022 0.193583,0.35173 0.306571,0.472682 0.112987,0.120951 0.205432,0.260106 0.205432,0.30923 0,0.04913 0.07437,0.173182 0.16527,0.275679 0.253561,0.285927 0.276204,0.316084 0.367851,0.489894 0.047,0.08916 0.108539,0.177363 0.136705,0.196002 0.02817,0.01864 0.06109,0.07763 0.0732,0.131096 0.01211,0.05347 0.104153,0.187886 0.204588,0.298715 0.100443,0.110829 0.182764,0.239979 0.182935,0.286998 2.5e-4,0.09009 0.192864,0.419898 0.283049,0.484825 0.02915,0.02098 0.06611,0.106357 0.08217,0.18972 0.01606,0.08337 0.05696,0.185934 0.09087,0.227934 0.03391,0.04201 0.172491,0.285904 0.307898,0.542011 0.216744,0.409933 0.245639,0.519746 0.24153,0.917822 -0.0036,0.34029 0.03257,0.529577 0.145911,0.764989 0.0828,0.172049 0.190838,0.49242 0.240034,0.711941 0.104,0.464123 0.215023,0.848551 0.396619,1.373409 0.09485,0.274143 0.120827,0.480773 0.09618,0.764989 l -0.03373,0.389394 0.363005,0.371733 0.363006,0.371733 -0.09533,0.426518 c -0.05239,0.234583 -0.125036,0.546254 -0.16134,0.6926 -0.03633,0.146345 -0.08289,0.355886 -0.103542,0.465646 -0.02063,0.109759 -0.06522,0.234434 -0.09913,0.277054 -0.102331,0.128706 -0.165369,0.986309 -0.10783,1.466917 0.12631,1.055014 0.131307,1.803078 0.01561,2.330524 -0.06217,0.283494 -0.155061,0.598257 -0.206348,0.699471 -0.102025,0.201302 -0.0871,0.604205 0.04243,1.146391 0.0437,0.182932 0.08962,0.407722 0.102036,0.499535 0.01238,0.09181 0.07186,0.301355 0.132159,0.465647 0.144635,0.394284 0.174787,0.59243 0.188576,1.239635 0.0091,0.42566 -0.01238,0.568277 -0.100225,0.665331 -0.205505,0.227114 -0.266112,0.48486 -0.175927,0.74819 0.04521,0.13193 0.075,0.265474 0.0662,0.296765 -0.0091,0.03129 0.01525,0.0945 0.05338,0.14046 0.03812,0.04596 0.146055,0.514279 0.2398,1.040702 0.252143,1.415851 0.263367,1.467006 0.383495,1.747227 0.115024,0.26834 0.126606,0.334873 0.267736,1.538137 0.148871,1.269274 0.04585,2.197441 -0.355058,3.198649 -0.192559,0.480895 -0.205002,0.560184 -0.170725,1.088034 0.03822,0.588737 -0.03122,1.048658 -0.276408,1.831085 -0.105746,0.337403 -0.161916,0.41672 -0.374319,0.528575 -0.215605,0.113537 -0.300784,0.237103 -0.620505,0.900184 -0.203826,0.422719 -0.389775,0.783548 -0.413224,0.801842 -0.0235,0.0183 -0.192308,0.332604 -0.375242,0.698468 -0.182933,0.365865 -0.355057,0.675188 -0.38249,0.687382 -0.02745,0.0122 -0.04987,0.05379 -0.04987,0.09246 0,0.03866 -0.04126,0.103509 -0.09178,0.144128 -0.05051,0.04062 -0.247317,0.388166 -0.437419,0.772323 -0.190101,0.384159 -0.449905,0.900536 -0.577337,1.147509 -0.12744,0.246972 -0.218494,0.471481 -0.202346,0.498907 0.01615,0.02742 0.0487,0.212764 0.07239,0.411862 0.02368,0.199097 0.05633,0.423605 0.07258,0.498907 0.01624,0.07531 0.04477,0.292187 0.06334,0.48197 0.09368,0.955558 0.570843,2.281173 0.981609,2.727045 0.233413,0.253364 0.202544,0.536429 -0.102571,0.940553 l -0.270687,0.358526 -0.40245,-0.04431 c -1.168712,-0.128648 -1.045777,-0.143728 -1.288259,0.158015 -0.18827,0.234274 -0.251703,0.270211 -0.464375,0.263053 -0.135478,-0.0045 -0.499678,-0.09477 -0.809333,-0.200473 z m 1.259444,-0.518062 c 0.08657,-0.20893 0.05024,-0.412853 -0.100345,-0.563417 -0.162068,-0.162067 -0.60303,-1.056891 -0.691796,-1.403853 -0.191393,-0.747986 -0.284331,-1.230968 -0.358431,-1.862584 l -0.07805,-0.665208 -0.395659,0.02159 c -0.517538,0.02824 -0.932665,-0.08839 -1.294907,-0.363783 -0.161502,-0.122779 -0.329572,-0.223233 -0.373484,-0.223233 -0.154325,0 -0.488768,0.369624 -0.658298,0.727549 -0.09421,0.198926 -0.171308,0.384673 -0.171308,0.412769 0,0.101414 0.776489,1.71049 1.158414,2.400509 0.116012,0.209596 0.291976,0.465677 0.391031,0.569067 0.09905,0.103389 0.181024,0.21628 0.182153,0.250861 0.0027,0.07489 0.49381,0.438598 0.729671,0.540113 0.437787,0.188422 0.994025,0.340018 1.272453,0.346791 0.280689,0.0068 0.31503,-0.0097 0.388537,-0.187169 z m 1.777179,-0.216063 c 0.189285,-0.177827 0.198301,-0.446437 0.02216,-0.660063 -0.07248,-0.08791 -0.155742,-0.189786 -0.184987,-0.226371 -0.09183,-0.114875 -0.414937,-0.831108 -0.414937,-0.919808 0,-0.04656 -0.02951,-0.11414 -0.06549,-0.150174 -0.03607,-0.03604 -0.07536,-0.155628 -0.08747,-0.265765 -0.01211,-0.110138 -0.0471,-0.240938 -0.07778,-0.290668 -0.05956,-0.09632 -0.07769,-0.204598 -0.140098,-0.834859 -0.0217,-0.21952 -0.0566,-0.444025 -0.0775,-0.498908 -0.0209,-0.05489 -0.04262,-0.197385 -0.04836,-0.316679 -0.01498,-0.315554 -0.117903,-0.393569 -0.389514,-0.295355 -0.121474,0.04394 -0.450732,0.07987 -0.731681,0.07987 -0.581374,0 -0.551581,-0.045 -0.440532,0.665209 0.03714,0.237812 0.08209,0.582059 0.09974,0.76499 0.05069,0.5247 0.277649,1.314637 0.532043,1.851944 0.194624,0.411044 0.665494,0.975195 0.813954,0.975195 0.05732,0 0.196219,0.02824 0.30857,0.06276 0.173083,0.05317 0.602688,0.173978 0.69891,0.196531 0.01596,0.0038 0.09825,-0.0583 0.182934,-0.137847 z m 1.855693,-10.709293 c 0.427004,-0.154406 0.710887,-1.097462 0.687132,-2.282601 -0.01175,-0.585471 0.0091,-0.723187 0.167332,-1.132194 0.400244,-1.031366 0.395472,-1.005462 0.392215,-2.128668 -0.0036,-1.14511 -0.09613,-1.930583 -0.290799,-2.4609 -0.06719,-0.183136 -0.172025,-0.63232 -0.232883,-0.998185 -0.06083,-0.365864 -0.122694,-0.685219 -0.137406,-0.709675 -0.01471,-0.02445 -0.07212,-0.304694 -0.127612,-0.62275 -0.05545,-0.318053 -0.13109,-0.634805 -0.168067,-0.703891 -0.08065,-0.150736 -0.280636,-0.163808 -0.395149,-0.02583 -0.04557,0.05489 -0.116566,0.100443 -0.157815,0.101262 -0.04127,8.05e-4 -0.14984,0.06002 -0.241307,0.131562 -0.09146,0.07154 -0.231888,0.13075 -0.312051,0.131562 -0.08011,8.06e-4 -0.162112,0.02795 -0.182117,0.06034 -0.02001,0.03236 -0.134025,0.07824 -0.253383,0.10196 -0.119348,0.02371 -0.366674,0.07205 -0.549608,0.107448 -0.182933,0.03539 -0.482272,0.09773 -0.665207,0.138527 -0.182933,0.0408 -0.482282,0.07935 -0.665206,0.08566 l -0.332603,0.01148 -0.08657,0.29684 c -0.04764,0.163263 -0.133978,0.446515 -0.191922,0.629447 -0.08379,0.26438 -0.115885,0.844283 -0.156667,2.827137 -0.04118,2.00015 -0.07975,2.691666 -0.195,3.489222 -0.07904,0.547081 -0.155608,1.013988 -0.170186,1.037574 -0.0201,0.03252 -0.106728,0.849295 -0.112539,1.060956 -0.01273,0.464296 0.495182,0.599062 1.351854,0.358693 0.360619,-0.101185 0.379574,-0.118171 0.574081,-0.51438 0.219928,-0.448019 0.25888,-0.615864 0.324861,-1.399918 0.02468,-0.293406 0.116962,-0.718419 0.209416,-0.964553 0.239172,-0.636801 0.342973,-1.410895 0.369591,-2.756322 l 0.0235,-1.185445 0.305628,-0.333881 c 0.239998,-0.262186 0.335205,-0.324494 0.443375,-0.290161 0.193512,0.06142 0.173461,0.141957 -0.109695,0.440776 l -0.247452,0.261138 -0.01407,0.780645 c -0.02781,1.543865 -0.13354,2.365763 -0.399015,3.101281 -0.09728,0.269529 -0.183015,0.673509 -0.199153,0.938482 -0.03812,0.626142 -0.182781,1.220292 -0.385415,1.583235 l -0.167271,0.299615 0.292308,0.239523 c 0.160766,0.131737 0.362098,0.239981 0.447412,0.240542 0.08531,5.27e-4 0.200004,0.03004 0.254889,0.06551 0.139541,0.09019 1.043884,0.08252 1.302612,-0.01103 z M 54.021692,38.586258 c 0.01884,-0.03044 0.297465,-0.09188 0.619241,-0.13653 0.321775,-0.04466 0.67485,-0.105517 0.784609,-0.135233 0.67206,-0.181989 0.84404,-0.242043 1.266603,-0.442279 0.609372,-0.288763 0.702866,-0.37688 0.948184,-0.893641 l 0.205261,-0.432387 -0.09322,-0.598687 c -0.05131,-0.329279 -0.142404,-0.778296 -0.202509,-0.997813 -0.06009,-0.219519 -0.107131,-0.495236 -0.104491,-0.612706 0.0027,-0.117467 -0.02135,-0.229755 -0.05337,-0.249527 -0.03203,-0.01977 -0.07832,-0.182264 -0.102887,-0.361095 -0.03517,-0.25568 -0.0071,-0.443969 0.131288,-0.881325 0.17312,-0.54705 0.175748,-0.583485 0.159906,-2.219203 -0.01158,-1.193973 0.0081,-1.747378 0.06899,-1.962108 0.133701,-0.469782 0.137712,-0.532425 0.03409,-0.532425 -0.05274,0 -0.09597,-0.02994 -0.09597,-0.06652 0,-0.03658 -0.05983,-0.06652 -0.133038,-0.06652 -0.0732,0 -0.133038,-0.02332 -0.133038,-0.05184 0,-0.06419 -0.871931,-0.480332 -1.006404,-0.480332 -0.05382,0 -0.126283,-0.02632 -0.161035,-0.05848 -0.03472,-0.03217 -0.17329,-0.09364 -0.307835,-0.136612 -0.332837,-0.106291 -0.541813,0.0087 -0.43637,0.240122 0.08325,0.182726 -0.02592,0.487143 -0.174734,0.487143 -0.139111,0 -0.446139,0.17267 -0.396063,0.222742 0.02386,0.02384 0.0081,0.04334 -0.03427,0.04334 -0.04269,0 -0.07778,0.05239 -0.07805,0.116411 -1.97e-4,0.06402 -0.04108,0.19433 -0.09076,0.289562 -0.0497,0.09524 -0.110844,0.309809 -0.13589,0.476837 -0.05006,0.333964 -0.158506,0.471688 -0.301672,0.383206 -0.07751,-0.04791 -0.0749,-0.112379 0.01659,-0.411951 0.05966,-0.195338 0.127709,-0.437479 0.151229,-0.538091 l 0.04279,-0.182933 h -0.607649 c -0.334201,0 -0.801429,-0.03676 -1.038286,-0.08169 -0.363177,-0.06889 -0.430638,-0.103051 -0.430638,-0.218021 0,-0.07498 -0.05239,-0.210324 -0.116405,-0.300759 -0.06406,-0.09044 -0.146351,-0.254251 -0.182934,-0.364036 -0.05894,-0.176928 -0.100389,-0.202018 -0.364558,-0.220812 -0.518954,-0.03692 -0.551285,-0.153369 -0.298846,-1.07639 0.115339,-0.421724 0.373251,-0.798251 0.546774,-0.798251 0.04585,0 0.08333,-0.0246 0.08333,-0.05465 0,-0.03007 0.15716,-0.121813 0.349236,-0.203885 0.192083,-0.08208 0.401212,-0.177213 0.464743,-0.211422 0.06351,-0.03422 0.168303,-0.06231 0.23282,-0.06245 0.06449,-1.33e-4 0.215328,-0.06001 0.335116,-0.133041 0.119788,-0.07304 0.27231,-0.132794 0.338927,-0.132794 0.06665,0 0.170026,-0.05404 0.229798,-0.120088 0.100651,-0.111208 0.100171,-0.135532 -0.0063,-0.329041 -0.149096,-0.270911 -0.475455,-0.615959 -0.729518,-0.771284 -0.04531,-0.02769 -0.248816,-0.0937 -0.452266,-0.146696 -0.614504,-0.16006 -1.327265,-0.115363 -1.776077,0.111379 -0.06351,0.0321 -0.160821,0.05836 -0.216197,0.05836 -0.05535,0 -0.100684,0.02645 -0.100684,0.05875 0,0.03232 -0.05239,0.07641 -0.116415,0.09796 -0.39939,0.134486 -0.791811,0.468189 -1.090881,0.92765 -0.178547,0.2743 -0.197414,0.342379 -0.133675,0.482276 0.04423,0.09712 0.130292,0.162891 0.213058,0.162891 0.185499,0 0.391936,0.113946 0.604661,0.333762 0.141166,0.14587 0.197207,0.308797 0.288341,0.83831 0.06227,0.36149 0.150379,0.77699 0.195925,0.923335 l 0.0828,0.266085 0.4008,0.01955 c 0.346876,0.01692 0.412524,0.04146 0.487897,0.182286 0.07527,0.140564 0.07088,0.180606 -0.03167,0.293942 -0.158066,0.174661 -0.09737,0.301765 0.221922,0.46465 0.145471,0.07422 0.282205,0.19076 0.30386,0.258993 0.02163,0.06823 0.10615,0.159725 0.187769,0.203312 0.856358,0.457339 1.148394,0.732256 0.968718,0.91193 -0.07661,0.07658 -0.126768,0.05971 -0.322467,-0.108418 -0.127476,-0.109517 -0.314087,-0.235965 -0.414704,-0.281 -0.100607,-0.04504 -0.182934,-0.104502 -0.182934,-0.132159 0,-0.02765 -0.04269,-0.05028 -0.09479,-0.05028 -0.196929,0 -1.760495,-1.533975 -1.941599,-1.904847 -0.158452,-0.32449 -0.441392,-0.437024 -0.97226,-0.386699 -0.433069,0.04105 -1.068125,0.234952 -1.43356,0.437701 -0.256181,0.142133 -0.679893,0.54627 -0.679893,0.648479 0,0.03201 -0.04485,0.09548 -0.09979,0.141033 -0.12665,0.105113 -0.12779,0.360953 -0.0027,0.588423 0.141157,0.256533 0.476846,1.013898 0.535255,1.207639 0.07481,0.248087 0.418948,0.915425 0.496949,0.963634 0.03741,0.02312 0.06801,0.09764 0.06801,0.165603 0,0.06796 0.0262,0.13355 0.05822,0.145747 0.03202,0.01219 0.153177,0.201779 0.269241,0.421298 0.116066,0.219518 0.306894,0.555833 0.424062,0.747363 0.117168,0.191529 0.326629,0.535776 0.465471,0.76499 0.138842,0.229214 0.373681,0.506555 0.521879,0.616315 0.148198,0.109759 0.315667,0.289365 0.372164,0.399125 0.05652,0.10976 0.122579,0.21453 0.146845,0.232822 0.106935,0.08061 0.340749,0.542756 0.538493,1.064335 0.117904,0.310985 0.266955,0.685165 0.331231,0.831511 0.06423,0.146345 0.139021,0.369871 0.166113,0.496723 0.0271,0.126852 0.07285,0.276522 0.101764,0.332604 0.02889,0.05608 0.08622,0.193578 0.12743,0.30555 0.04118,0.111972 0.178009,0.321513 0.304022,0.465646 0.126014,0.144134 0.248502,0.32193 0.272203,0.395103 0.05373,0.165888 0.148809,0.230494 0.341134,0.231804 0.08235,5.28e-4 0.14967,0.03095 0.14967,0.06754 0,0.08078 1.174078,0.09152 1.223723,0.01118 z m -0.18793,-10.60959 c 0.0393,-0.10244 -0.211155,-0.719239 -0.319183,-0.786001 -0.105375,-0.06513 -1.074323,0.01656 -1.125312,0.09488 -0.04728,0.07257 0.05274,0.336203 0.212259,0.559619 0.07222,0.101196 0.191133,0.151901 0.399122,0.170244 0.638842,0.05633 0.799501,0.04887 0.833114,-0.03874 z m 0.924734,-0.128083 c 0.301887,-0.152639 0.469615,-0.417162 0.368371,-0.58097 -0.02872,-0.0465 -0.03669,-0.200481 -0.01767,-0.342167 0.03642,-0.271462 0.0017,-0.298084 -0.34883,-0.266818 -0.197566,0.01762 -0.836012,0.342683 -0.875583,0.445792 -0.01884,0.04917 0.01328,0.157332 0.07141,0.240343 0.05813,0.08301 0.105713,0.190222 0.105713,0.238249 0,0.137999 0.20546,0.415244 0.307736,0.415244 0.05105,0 0.226084,-0.06735 0.388896,-0.149673 z m -7.867815,-0.96713 c 0.169963,-0.175203 0.393704,-0.362245 0.497209,-0.415649 0.103509,-0.05341 0.203155,-0.112112 0.221446,-0.130465 0.07545,-0.0757 0.337018,-0.199667 0.421263,-0.199667 0.04978,0 0.192227,-0.05077 0.316599,-0.11281 0.409663,-0.204369 1.038618,-0.286971 1.440701,-0.189209 0.185895,0.04519 0.216045,0.03508 0.215157,-0.07216 -7.54e-4,-0.08245 -0.109651,-0.178013 -0.321488,-0.281947 -0.274526,-0.134686 -0.395947,-0.153532 -0.847109,-0.131488 -0.476173,0.02327 -0.572108,0.05251 -1.000959,0.305172 -0.260863,0.15369 -0.691402,0.486859 -0.956741,0.740374 -0.42112,0.402335 -0.476936,0.482893 -0.439097,0.633668 0.02386,0.095 0.06603,0.172735 0.09368,0.172735 0.02771,0 0.189384,-0.143349 0.359335,-0.318551 z m 11.228951,-0.02639 c 0,-0.162813 -0.241881,-0.453302 -0.377457,-0.453302 -0.04853,0 -0.08818,-0.02604 -0.08818,-0.05788 0,-0.03183 -0.142188,-0.09509 -0.315981,-0.140579 -0.173783,-0.04549 -0.474244,-0.139179 -0.6677,-0.208207 -0.193448,-0.06903 -0.423675,-0.125505 -0.511608,-0.125505 -0.08791,0 -0.175946,-0.02599 -0.195573,-0.05775 -0.04377,-0.07087 -0.684567,-0.161605 -0.769682,-0.108997 -0.176807,0.109273 0.276805,0.432836 0.606806,0.432836 0.06907,0 0.252539,0.05656 0.407636,0.125686 0.155089,0.06913 0.415117,0.176021 0.57783,0.23754 0.162722,0.06153 0.462062,0.199471 0.665216,0.306557 0.45283,0.238705 0.668697,0.254717 0.668697,0.0496 z m -4.870464,-0.344593 c 0.09214,-0.05694 -0.310383,-1.032877 -0.466682,-1.131465 -0.07302,-0.04608 -0.189743,-0.03905 -0.376811,0.02269 -0.375224,0.123835 -0.498771,0.275748 -0.446023,0.548429 0.02332,0.120349 0.05051,0.288025 0.06055,0.372612 0.01004,0.08458 0.0619,0.183418 0.115285,0.219621 0.103444,0.07018 0.989574,0.0448 1.113659,-0.03188 z m 0.730443,-0.164843 c 0.06351,-0.03088 0.182457,-0.09074 0.26428,-0.133043 0.08182,-0.0423 0.194077,-0.07691 0.249453,-0.07691 0.05535,0 0.100683,-0.02994 0.100683,-0.06652 0,-0.03658 0.04485,-0.06652 0.09979,-0.06652 0.177756,0 0.105931,-0.253858 -0.14968,-0.528994 -0.137201,-0.147681 -0.305664,-0.34673 -0.374354,-0.442331 -0.109759,-0.152727 -0.156514,-0.168764 -0.385404,-0.132163 -0.263,0.04206 -0.517611,0.155161 -0.597424,0.265393 -0.09688,0.133799 0.418247,1.237219 0.577588,1.237219 0.05472,0 0.151535,-0.02526 0.215067,-0.05615 z"
     id="knux-top" />
  <path
     style="fill:#000000;stroke-width:0.0431819"
     d="m 35.487772,97.360146 c -0.06483,-0.766329 -0.02281,-1.54611 -0.259914,-2.285274 -0.100662,-0.442593 -0.438508,-0.865109 -0.813456,-1.072111 -0.206256,-0.190479 -0.626822,-0.193232 -0.957731,-0.172723 -1.0908,0.243387 -2.05648,0.842736 -2.90457,1.554539 -0.559708,0.03273 -0.04739,-0.49667 0.164046,-0.651941 0.437281,-0.407087 0.84387,-0.887407 1.160181,-1.344927 0.267401,-0.282493 0.429585,-0.692341 0.566167,-1.048213 0.0626,-0.404351 -0.380278,-0.608926 -0.647233,-0.754795 -0.47212,-0.177141 -0.99997,-0.34215 -1.514939,-0.402823 -0.273695,-0.214793 -0.893639,0.06398 -0.946917,-0.332984 0.07788,-0.329287 0.746231,-0.08244 1.044213,-0.194562 0.909963,-0.08152 1.892256,0.0043 2.712585,-0.465234 0.203944,-0.365601 0.714815,-0.114953 1.004508,0.05631 0.561213,0.25281 1.022519,0.656731 1.668946,0.761046 0.897864,-0.05536 1.613686,-0.777284 2.491507,-0.936487 0.375232,0.373666 0.919221,0.570471 1.41002,0.65089 0.825929,0.131522 1.660577,0.200651 2.494178,0.233444 0.374446,0.310237 -0.350427,0.451509 -0.632951,0.423324 -0.55003,0.06882 -1.173256,0.173081 -1.656666,0.34532 -0.30362,0.125429 -0.999151,0.286863 -0.832065,0.804096 -0.0063,0.597644 0.531996,1.014837 0.804781,1.506072 0.358123,0.448533 0.783309,0.880827 1.106837,1.333866 -0.165558,0.439897 -0.503062,-0.104477 -0.712498,-0.247376 -0.608736,-0.441938 -1.246103,-0.920447 -1.974415,-1.116933 -0.246785,-0.156932 -0.653914,-0.0885 -1.005129,-0.0992 -0.83565,0.302274 -1.174692,1.217084 -1.309015,2.020763 -0.113718,0.48831 -0.06057,1.004872 -0.17805,1.489779 -0.07059,-0.0303 -0.282892,0.06319 -0.28242,-0.0539 z m 0.092,-6.855109 c -0.24636,-0.206894 -0.589866,-0.342597 -0.719098,-0.561364 -0.458249,-0.183749 -0.856665,-0.528467 -1.294281,-0.777271 -0.223317,-0.122568 -0.632629,-0.276722 -0.870322,-0.512087 -0.44175,-0.07806 -0.74031,-0.40587 -1.183277,-0.524275 -0.172583,-0.08168 -0.523198,-0.281901 -0.801653,-0.345457 -0.223055,-0.103873 -0.604658,-0.245523 -0.900877,-0.345451 -0.30756,-0.0649 -0.630291,-0.184563 -0.934452,-0.272881 -0.562397,-0.133396 -1.129339,-0.233895 -1.695167,-0.307818 -0.570643,-0.03641 0.178568,-0.477047 0.320064,-0.660736 0.117179,-0.108629 0.300498,-0.527634 0.688383,-0.361835 1.098609,0.247701 2.122484,0.703121 3.126087,1.218848 0.298449,0.196861 0.573189,0.32353 0.910576,0.532413 0.281396,0.149686 0.435147,0.264309 0.713216,0.458768 0.574904,0.352737 1.081217,0.801086 1.629721,1.183435 0.4586,0.197212 -0.100745,-0.45598 -0.273876,-0.556033 -0.658501,-0.606842 -1.305313,-1.288961 -2.054777,-1.752296 -0.185275,-0.182616 -0.589257,-0.464285 -0.839936,-0.604547 -0.274234,-0.185909 -0.598508,-0.404406 -0.792831,-0.518181 -0.191051,-0.102896 -0.54961,-0.295014 -0.813212,-0.408814 -0.199459,-0.185609 -0.796837,-0.130913 -0.491236,-0.51003 0.13238,-0.271893 0.401555,-0.659252 0.419221,-0.829899 0.241922,-0.21794 0.585711,0.229169 0.759189,0.280683 0.277229,0.123199 0.475771,0.326577 0.683397,0.475791 0.41086,0.322761 0.809701,0.649412 1.155038,1.009928 0.441183,0.297757 0.802956,0.828618 1.223964,1.214264 0.545113,0.540071 0.973822,1.210416 1.44659,1.785843 0.127063,0.351408 0.457122,0.156697 0.121322,-0.264651 -0.298518,-0.471301 -0.586796,-0.975345 -0.898597,-1.421074 -0.225336,-0.135376 -0.370245,-0.564237 -0.647725,-0.764498 -0.09077,-0.242638 -0.475994,-0.48542 -0.648567,-0.781666 -0.335337,-0.433337 -0.812089,-0.779291 -1.121888,-1.211722 -0.31635,-0.205776 -0.659805,-0.649884 -1.000566,-0.905917 -0.285449,-0.203862 -0.577589,-0.578892 -0.856249,-0.726836 -0.41336,-0.33939 -0.915864,-0.694803 -1.330733,-1.084484 0.08034,-0.493832 0.06541,-1.032221 0.172458,-1.501331 0.307531,-0.119009 0.62232,0.395951 0.897156,0.562008 0.412338,0.325608 0.838061,0.772502 1.225954,1.088583 0.274162,0.462978 0.776349,0.777421 1.085351,1.230371 0.240686,0.176356 0.492106,0.556257 0.731844,0.816384 0.202937,0.331204 0.402491,0.60725 0.672511,0.903233 0.143622,0.35139 0.257457,0.41811 0.496591,0.759502 0.362223,0.655615 0.801991,1.264441 1.103352,1.954253 0.34218,0.523429 0.510264,1.154093 0.802346,1.720033 -0.01561,0.452349 0.385218,0.708009 0.522095,0.162279 0.03126,-0.293942 0.198186,-0.577641 0.359736,-0.851091 0.148111,-0.364646 0.416755,-0.714205 0.571329,-1.102837 0.256195,-0.299847 0.442808,-0.719071 0.676917,-1.060974 0.200609,-0.25328 0.414171,-0.552017 0.564092,-0.842481 0.303019,-0.265896 0.445183,-0.784753 0.828442,-0.90327 0.227189,0.106973 0.63756,0.547364 0.544025,0.806098 -0.286302,0.236803 -0.606807,0.40023 -0.919766,0.683273 -0.528803,0.485365 -1.048077,1.039444 -1.425298,1.619323 -0.115987,0.242534 -0.334403,0.423762 -0.426017,0.712498 -0.40809,0.252973 -0.06754,0.723858 0.159247,0.21852 0.221202,-0.189584 0.450359,-0.543133 0.739491,-0.757303 0.334042,-0.296125 0.631634,-0.520659 0.99546,-0.777889 0.257791,-0.111068 0.62009,-0.353844 0.951324,-0.502063 0.282794,-0.09673 0.533835,-0.259188 0.851837,-0.342138 0.274222,0.03499 0.348711,0.588043 0.502509,0.853004 -0.207453,0.246763 -0.646654,0.130488 -0.933273,0.324429 -0.584994,0.110379 -1.104869,0.453923 -1.631488,0.724397 -0.311985,0.289637 -0.837529,0.442677 -1.020591,0.842044 -0.431557,0.158505 -0.724663,0.61811 -1.060485,0.931193 -0.314305,0.215766 -0.502728,0.734547 -0.917055,0.709643 -0.04918,-0.04328 -0.09836,-0.08656 -0.147542,-0.129841 z m -13.673636,-5.00652 c -0.772656,-0.137812 -1.549614,-0.270483 -2.24808,-0.650294 -0.251976,-0.06509 -0.480455,-0.274557 -0.76008,-0.410131 -0.436743,-0.262667 -0.820321,-0.605431 -1.19456,-0.971688 -0.128658,-0.179066 -0.4481,-0.301605 -0.585228,-0.574887 -0.379279,-0.353321 -0.626987,-0.80633 -0.958637,-1.195566 -0.03356,-0.112308 -0.277597,-0.407262 -0.421685,-0.749143 -0.203449,-0.295803 -0.202038,-0.586812 -0.37156,-0.836413 -0.160735,-0.646363 -0.574846,-1.45362 -0.04534,-2.023812 0.250392,-0.200492 0.519307,-0.485627 0.842066,-0.492903 0.162404,-0.205995 0.479791,-0.174779 0.702762,-0.314915 1.834404,-0.592575 3.880922,-0.711821 5.729444,-0.09775 0.331332,0.113899 0.54959,0.233946 0.864846,0.347713 0.198499,0.132912 0.53626,0.30446 0.806219,0.48122 0.294084,0.243833 0.785093,0.541245 1.094433,0.89222 0.161652,0.173299 0.532713,0.445552 0.690904,0.712207 0.369496,0.323266 0.546117,0.833794 0.907614,1.18154 0.0801,0.1667 0.362141,0.650784 0.494962,0.978174 0.329991,0.549479 0.558718,1.19943 0.591182,1.849995 -0.275667,0.840539 -1.179696,1.063075 -1.908755,1.396607 -1.321201,0.519939 -2.788583,0.529646 -4.187137,0.492317 l -0.04332,-0.01475 z m 2.248899,-3.215758 c 0.198152,-0.41784 0.537519,0.04497 0.82425,0.02303 0.447096,0.01793 0.31355,-0.582855 -0.09145,-0.580165 -0.586383,-0.04807 -0.0283,-0.495362 -0.309533,-0.713718 -0.362273,-0.182778 -0.297154,0.427721 -0.683623,0.242634 -0.184854,-0.154406 -0.78089,-0.170066 -0.666705,-0.497968 0.378234,-0.315706 -0.148042,-0.504361 -0.374992,-0.439292 -0.170138,0.495743 -0.583454,0.346279 -0.957164,0.104346 -0.538707,-0.06706 -0.279316,-0.46602 -0.162334,-0.685628 -0.240648,-0.169966 -0.707417,-0.253743 -0.690909,0.0013 -0.109281,0.366193 -0.590225,-0.02049 -0.814375,-0.124511 -0.436607,-0.142507 0.404445,-0.727292 -0.243581,-0.650882 -0.306197,-0.22143 -0.2369,0.368975 -0.672716,0.272764 -0.239824,-0.181994 -0.668222,-0.137958 -0.697697,0.250858 0.117833,0.217514 0.591217,0.170121 0.67077,0.456118 -0.51539,0.313611 0.266263,0.723896 0.416914,0.330046 0.137911,-0.407214 0.587871,0.03589 0.844093,0.09594 0.534887,0.06471 -0.249875,0.642692 0.280196,0.692633 0.466091,0.165044 0.255655,-0.35657 0.651499,-0.299756 0.302677,0.201872 0.640188,0.284934 0.943752,0.513262 -0.40255,0.304813 0.0069,0.787438 0.336242,0.444262 0.02667,-0.45935 0.468926,-0.106074 0.728085,-0.02775 0.665993,0.06266 -0.16468,0.727442 0.453493,0.737633 0.141218,0.04214 0.155536,-0.0419 0.215779,-0.145092 z"
     id="ball-miss" />
  <path
     style="fill:#000000;stroke-width:0.0630909"
     d="m 147.26112,28.131563 c -0.2984,-0.02956 -0.78492,0.111537 -0.85065,-0.29785 -0.18764,-0.421275 -0.25191,0.460184 -0.62942,0.259385 -0.96501,0.01281 -1.93741,0.07775 -2.89789,0.05849 -0.32544,-0.05387 -0.641,-0.206051 -0.5965,-0.592342 0.0115,-0.336518 0.48656,-0.483297 0.77717,-0.58273 0.48134,-0.149882 0.9836,-0.220536 1.47398,-0.336109 -0.1016,-0.308046 0.21847,-0.562318 -0.0776,-0.826283 -0.17184,-0.567528 -0.23633,-1.186348 -0.2906,-1.781948 -0.13845,-2.164738 -0.20907,-4.335339 -0.25341,-6.502954 0.11255,-0.770752 -0.13586,-1.518989 -0.11269,-2.289868 l -0.0884,-2.29678 c -0.46353,-0.649049 -1.20314,-1.040012 -1.65861,-1.704926 -0.46978,-0.519372 -0.90453,-1.116252 -0.92184,-1.8459133 -0.46111,-0.792011 -0.35012,-1.755973 -0.45127,-2.637545 -0.0354,-0.637102 0.11139,-1.2782766 0.22824,-1.9020573 0.1183,-0.3324851 0.31705,-0.7772046 0.13111,-1.0836218 -0.21369,-0.310834 -0.14061,-0.7724451 -0.072,-1.1421978 0.0602,-0.4844293 0.16061,-0.9642043 0.3289,-1.4232364 0.43846,-0.1482586 0.33849,0.4203685 0.37782,0.7010589 -0.0187,0.40292 -0.0448,0.8075526 0.21556,1.1448358 0.16528,0.3193022 0.41208,0.7198892 0.093,1.029962 0.0682,1.1945911 0.0769,2.3909696 0.0953,3.5870506 0.25231,0.33119 0.40752,0.69466 0.53441,1.097448 0.3785,0.43234 0.71284,0.89618 1.1868,1.231998 0.26834,0.2597323 0.71038,0.06112 1.04796,0.0488 0.38894,0.01518 0.76374,-0.3358603 0.69551,-0.7306443 -0.42243,-0.281881 -0.54872,-0.79482 -0.79978,-1.2104 -0.33814,-1.007985 0.25042,0.108155 0.3683,0.291658 0.19445,0.378494 0.48556,0.83224 0.93678,0.877663 0.38049,-0.06955 0.76765,-0.165878 0.94607,-0.546051 0.10434,-0.361578 0.46822,-0.695432 0.36467,-1.079239 -0.61682,-0.198348 -1.27359,-0.401169 -1.91198,-0.16876 -0.35255,0.08285 -0.54404,0.240281 -0.82873,0.420795 -0.43678,-0.0042 -0.32156,-0.338015 -0.0992,-0.56748 -0.001,-0.397814 -0.0263,-0.927406 0.45966,-1.038511 0.524,-0.261731 1.13662,-0.146284 1.70089,-0.172697 0.36695,0.110601 1.04728,0.142939 0.98877,0.664041 0.0163,0.328755 -0.0796,0.714654 0.29915,0.858641 -0.0918,0.288987 -0.52796,0.229138 -0.54601,0.657961 -0.13571,0.423282 -0.45124,0.731377 -0.73162,1.061974 0.18653,0.379896 0.48816,0.8040583 0.96857,0.7256033 0.33989,0.03041 0.69298,0.09556 0.88757,-0.2567173 0.38816,-0.431792 0.91601,-0.776944 1.18714,-1.290239 0.0989,-0.355948 0.30864,-0.675688 0.43977,-1.006558 0.006,-1.160167 0.0101,-2.3203346 0.0148,-3.4805049 -0.12032,-0.2013168 -0.34739,-0.3634663 -0.15372,-0.5777889 0.20005,-0.4422153 0.4819,-0.8696215 0.39326,-1.3763293 0.06,-0.3248042 -0.16122,-0.7881697 0.21097,-0.9591471 0.40422,0.1216539 0.35201,0.6481418 0.48062,0.9814759 0.11787,0.5590768 0.33001,1.1720018 0.0489,1.7123792 -0.0724,0.602173 0.18129,1.2153772 0.27812,1.8144588 0.0937,0.5621223 0.19871,1.1503503 0.13312,1.7169633 -0.10132,0.764004 -0.25623,1.513741 -0.506,2.246816 -0.1314,0.4090233 -0.13773,0.8728313 -0.51502,1.1484563 -0.41794,0.822158 -1.17679,0.879585 -1.47119,1.564113 -0.24515,0.286599 -0.64317,0.502301 -0.57452,0.934433 -0.13586,2.568146 -0.0586,5.143169 -0.0799,7.714252 0.024,1.518354 -0.0249,3.043438 -0.24879,4.545881 -0.007,0.355473 -0.34259,0.508019 -0.17801,0.857069 0.13831,0.666321 2.60656,0.445107 2.29733,1.333886 -0.0151,0.37575 -0.44679,0.449774 -0.7545,0.401837 -0.76348,0.0056 -1.52693,0.02567 -2.29043,0.01805 z m 0.28494,-2.479918 c 0.36046,0.03496 0.28497,-0.522851 0.34821,-0.777763 0.1672,-1.740361 0.11585,-3.491909 0.1763,-5.23743 0.004,-0.953089 -0.0289,-1.905912 -0.0409,-2.858888 -0.27201,-0.180901 -0.62389,0.08659 -0.95013,0.05066 -0.92402,0.116458 -1.86133,-0.01894 -2.78783,-0.07077 0.1029,2.426023 0.1454,4.857186 0.28601,7.279992 0.0701,0.536641 0.15397,1.071345 0.2312,1.606985 0.41231,0.0875 0.83139,0.05289 1.24911,0.04306 -0.0361,-2.358135 0.006,-4.717398 -0.0678,-7.074964 0.49855,-0.119884 0.41246,0.315406 0.4112,0.670162 0.0491,2.10951 0.0605,4.219622 0.0885,6.329465 0.19962,0.229361 0.63044,-0.0052 0.91935,0.04672 0.0456,-0.0024 0.0911,-0.0047 0.13672,-0.0072 z M 145.8754,16.33577 c -0.009,-1.884314 -0.0297,-3.769484 -0.0383,-5.65417 -0.18341,-0.169651 -0.66667,-0.45248 -0.71483,-0.04243 0.0144,1.903316 -0.0573,3.806134 -0.0371,5.709465 0.0499,0.225791 0.83683,0.21704 0.7903,-0.01281 z m 1.39763,-2.941577 c -0.0319,-1.014216 -0.0639,-2.028433 -0.0958,-3.042649 -0.34821,-0.03123 -0.59688,0.143429 -0.804,0.410574 -0.0391,0.349656 0.10032,0.764865 0.063,1.146506 -0.006,1.517185 -0.003,3.03621 0.0632,4.552034 0.2573,-0.0952 0.89488,0.168117 0.86401,-0.198757 -0.0302,-0.95587 -0.0602,-1.911995 -0.0904,-2.867708 z m 0.86672,2.746526 c 0.084,-1.062389 0.14061,-2.126534 0.17339,-3.19173 0.4983,-0.789707 1.2416,-1.391107 1.87815,-2.066645 0.32509,-0.220815 0.48722,-0.608225 0.60999,-0.9595573 0.12766,-0.431797 -0.54762,-0.324459 -0.5992,0.01425 -0.25376,0.2114813 -0.37813,0.5776913 -0.62437,0.6728553 -0.22937,0.287096 -0.46192,0.31616 -0.53567,0.561817 -0.28392,0.261591 -0.64533,0.427173 -0.89723,0.736329 -0.14732,0.187496 -0.58688,0.18664 -0.41724,0.510834 0.0353,1.240288 0.0704,2.480573 0.10563,3.720861 0.06,0.170057 0.28521,0.175747 0.30659,9.54e-4 z m -3.59788,0.07382 c -10e-4,-1.361546 0.0748,-2.727761 0.0129,-4.087011 -0.30096,-0.190674 -0.57777,-0.378816 -0.84825,-0.587138 -0.26386,-0.287225 -0.48551,-0.271506 -0.65946,-0.544689 -0.37561,-0.296857 -0.7657,-0.652041 -1.01748,-1.0388283 -0.0368,-0.270282 -0.7606,-0.356421 -0.56791,-0.0088 0.28914,0.8181683 1.00903,1.3765303 1.57047,2.0086073 0.27157,0.315333 0.68974,0.548774 0.86339,0.91881 0.15827,0.368764 -0.0481,0.802908 0.0537,1.150326 0.11053,0.410646 0.0321,0.904942 0.0714,1.34718 0.006,0.323125 -0.0479,0.666741 0.23319,0.89276 0.0669,-0.03205 0.30135,0.05806 0.28842,-0.05118 z m 0.0553,-4.829775 c 0.0252,-0.354907 -0.0249,-0.722134 0.10765,-1.060123 -0.32792,-0.02334 -0.65566,0.07682 -0.93666,-0.150216 -0.35658,-0.148701 -0.63601,-0.4642343 -0.88084,-0.7451613 -0.0485,-0.357155 -0.59782,-0.194521 -0.69774,0.07749 0.38689,0.5786163 0.96626,1.0059553 1.47095,1.4731873 0.29557,0.163859 0.41364,0.250079 0.70959,0.435706 0.0445,0.05745 0.27948,0.106284 0.227,-0.03088 z m 3.40397,-0.112731 c 0.2937,-0.286815 0.69739,-0.449176 0.98332,-0.755896 0.3736,-0.269698 0.65487,-0.6438513 0.98626,-0.9613043 0.0573,-0.337789 -0.52689,-0.513307 -0.65753,-0.173134 -0.44632,0.378985 -0.78954,1.0649363 -1.46551,0.9830103 -0.36671,-0.04949 -0.12837,0.524281 -0.16982,0.76202 -0.039,0.230129 0.20081,0.366696 0.32328,0.145304 z m -1.66516,-0.771211 c 0.15189,-0.167652 0.74777,-0.262225 0.44134,-0.5739163 -0.14693,-0.280297 -0.3533,-0.638233 -0.72804,-0.522692 -0.46275,-0.146779 -0.23192,0.412843 -0.52767,0.584556 -0.35418,0.2743343 0.71321,0.7828103 0.81437,0.5120523 z m 1.00317,-3.3567873 c 0.20779,-0.30865 -0.13903,-0.585007 -0.43294,-0.676341 -0.56106,0.0092 -1.15747,-0.02091 -1.70793,0.05447 -0.28652,0.06472 -0.60106,0.501698 -0.29889,0.654453 0.54968,0.05408 1.10781,-0.170291 1.66631,-0.06073 0.29279,-0.102528 0.56438,0.255047 0.77345,0.02815 z"
     id="level-1"
     sodipodi:nodetypes="sccccccccccccccccccccccccccccccccccccccccccccccccccccccccccccccssccccccccccccssscccsscccccccscccccccccssccccccccccccccccccccccccccccccccccccccc" />
  <path
     style="fill:#000000;stroke-width:0.0630909"
     d="m 162.8818,28.131479 c -0.2984,-0.02956 -0.78492,0.111537 -0.85065,-0.29785 -0.18764,-0.421275 -0.25191,0.460184 -0.62942,0.259385 -0.96501,0.01281 -1.93741,0.07775 -2.89789,0.05849 -0.32544,-0.05387 -0.641,-0.206051 -0.5965,-0.592342 0.0115,-0.336518 0.48656,-0.483297 0.77717,-0.58273 0.48134,-0.149882 0.9836,-0.220536 1.47398,-0.336109 -0.1016,-0.308046 0.21847,-0.562318 -0.0776,-0.826283 -0.17184,-0.567528 -0.23633,-1.186348 -0.2906,-1.781948 -0.13845,-2.164738 -0.20907,-4.335339 -0.25341,-6.502954 0.11255,-0.770752 -0.13586,-1.518989 -0.11269,-2.289868 l -0.0884,-2.29678 c -0.46353,-0.649049 -1.20314,-1.040012 -1.65861,-1.704926 -0.46978,-0.519372 -0.90453,-1.116252 -0.92184,-1.8459132 -0.46111,-0.792011 -0.35012,-1.755973 -0.45127,-2.637545 -0.0354,-0.637102 0.11139,-1.2782766 0.22824,-1.9020573 0.1183,-0.3324851 0.31705,-0.7772046 0.13111,-1.0836218 -0.21369,-0.310834 -0.14061,-0.7724451 -0.072,-1.1421978 0.0602,-0.4844293 0.16061,-0.9642043 0.3289,-1.4232364 0.43846,-0.1482586 0.33849,0.4203685 0.37782,0.7010589 -0.0187,0.40292 -0.0448,0.8075526 0.21556,1.1448358 0.16528,0.3193022 0.41208,0.7198892 0.093,1.029962 0.0682,1.1945911 0.0769,2.3909696 0.0953,3.5870506 0.25231,0.33119 0.40752,0.69466 0.53441,1.097448 0.3785,0.43234 0.71284,0.89618 1.1868,1.2319985 0.26834,0.2597317 0.71038,0.06112 1.04796,0.0488 0.38894,0.01518 0.76374,-0.335862 0.69551,-0.730646 -0.42243,-0.281881 -0.54872,-0.79482 -0.79978,-1.2104 -0.33814,-1.007985 0.25042,0.108155 0.3683,0.291658 0.19445,0.378494 0.48556,0.83224 0.93678,0.877663 0.38049,-0.06955 0.76765,-0.165878 0.94607,-0.546051 0.10434,-0.361578 0.46822,-0.695432 0.36467,-1.079239 -0.61682,-0.198348 -1.27359,-0.401169 -1.91198,-0.16876 -0.35255,0.08285 -0.54404,0.240281 -0.82873,0.420795 -0.43678,-0.0042 -0.32156,-0.338015 -0.0992,-0.56748 -0.001,-0.397814 -0.0263,-0.927406 0.45966,-1.038511 0.524,-0.261731 1.13662,-0.146284 1.70089,-0.172697 0.36695,0.110601 1.04728,0.142939 0.98877,0.664041 0.0163,0.328755 -0.0796,0.714654 0.29915,0.858641 -0.0918,0.288987 -0.52796,0.229138 -0.54601,0.657961 -0.13571,0.423282 -0.45124,0.731377 -0.73162,1.061974 0.18653,0.379896 0.48816,0.80406 0.96857,0.725605 0.33989,0.03041 0.69298,0.09556 0.88757,-0.256719 0.38816,-0.431792 0.91601,-0.776944 1.18714,-1.290239 0.0989,-0.355948 0.30864,-0.675688 0.43977,-1.006558 0.006,-1.160167 0.0101,-2.3203346 0.0148,-3.4805049 -0.12032,-0.2013168 -0.34739,-0.3634663 -0.15372,-0.5777889 0.20005,-0.4422153 0.4819,-0.8696215 0.39326,-1.3763293 0.06,-0.3248042 -0.16122,-0.7881697 0.21097,-0.9591471 0.40422,0.1216539 0.35201,0.6481418 0.48062,0.9814759 0.11787,0.5590768 0.33001,1.1720018 0.0489,1.7123792 -0.0724,0.602173 0.18129,1.2153772 0.27812,1.8144588 0.0937,0.5621223 0.19871,1.1503503 0.13312,1.7169633 -0.10132,0.764004 -0.25623,1.513741 -0.506,2.246816 -0.1314,0.409025 -0.13773,0.872833 -0.51502,1.148458 -0.41794,0.822158 -1.17679,0.879585 -1.47119,1.564113 -0.24515,0.286599 -0.64317,0.502301 -0.57452,0.934433 -0.13586,2.568146 -0.0586,5.143169 -0.0799,7.714252 0.024,1.518354 -0.0249,3.043438 -0.24879,4.545881 -0.007,0.355473 -0.34259,0.508019 -0.17801,0.857069 0.13831,0.666321 2.60656,0.445107 2.29733,1.333886 -0.0151,0.37575 -0.44679,0.449774 -0.7545,0.401837 -0.76348,0.0056 -1.52693,0.02567 -2.29043,0.01805 z m 0.28494,-2.479918 c 0.36046,0.03496 0.28497,-0.522851 0.34821,-0.777763 0.1672,-1.740361 0.11585,-3.491909 0.1763,-5.23743 0.004,-0.953089 -0.0289,-1.905912 -0.0409,-2.858888 -0.27201,-0.180901 -0.62389,0.08659 -0.95013,0.05066 -0.92402,0.116458 -1.86133,-0.01894 -2.78783,-0.07077 0.1029,2.426023 0.1454,4.857186 0.28601,7.279992 0.0701,0.536641 0.15397,1.071345 0.2312,1.606985 0.41231,0.0875 0.83139,0.05289 1.24911,0.04306 -0.0361,-2.358135 0.006,-4.717398 -0.0678,-7.074964 0.49855,-0.119884 0.41246,0.315406 0.4112,0.670162 0.0491,2.10951 0.0605,4.219622 0.0885,6.329465 0.19962,0.229361 0.63044,-0.0052 0.91935,0.04672 0.0456,-0.0024 0.0911,-0.0047 0.13672,-0.0072 z m -1.67066,-9.315875 c -0.009,-1.884314 -0.0297,-3.769484 -0.0383,-5.65417 -0.18341,-0.169651 -0.66667,-0.45248 -0.71483,-0.04243 0.0144,1.903316 -0.0573,3.806134 -0.0371,5.709465 0.0499,0.225791 0.83683,0.21704 0.7903,-0.01281 z m 1.39763,-2.941577 c -0.0319,-1.014216 -0.0639,-2.028433 -0.0958,-3.042649 -0.34821,-0.03123 -0.59688,0.143429 -0.804,0.410574 -0.0391,0.349656 0.10032,0.764865 0.063,1.146506 -0.006,1.517185 -0.003,3.03621 0.0632,4.552034 0.2573,-0.0952 0.89488,0.168117 0.86401,-0.198757 -0.0302,-0.95587 -0.0602,-1.911995 -0.0904,-2.867708 z m 0.86672,2.746526 c 0.084,-1.062389 0.14061,-2.126534 0.17339,-3.19173 0.4983,-0.789707 1.2416,-1.391107 1.87815,-2.066645 0.32509,-0.220815 0.48722,-0.608225 0.60999,-0.9595567 0.12766,-0.4317975 -0.54762,-0.3244595 -0.5992,0.01425 -0.25376,0.2114807 -0.37813,0.5776907 -0.62437,0.6728547 -0.22937,0.287096 -0.46192,0.31616 -0.53567,0.561817 -0.28392,0.261591 -0.64533,0.427173 -0.89723,0.736329 -0.14732,0.187496 -0.58688,0.18664 -0.41724,0.510834 0.0353,1.240288 0.0704,2.480573 0.10563,3.720861 0.06,0.170057 0.28521,0.175747 0.30659,9.54e-4 z m -3.59788,0.07382 c -0.001,-1.361546 0.0748,-2.727761 0.0129,-4.087011 -0.30096,-0.190674 -0.57777,-0.378816 -0.84825,-0.587138 -0.26386,-0.287225 -0.48551,-0.271506 -0.65946,-0.544689 -0.37561,-0.296857 -0.7657,-0.652041 -1.01748,-1.0388277 -0.0368,-0.2702825 -0.7606,-0.3564215 -0.56791,-0.0088 0.28914,0.8181677 1.00903,1.3765297 1.57047,2.0086067 0.27157,0.315333 0.68974,0.548774 0.86339,0.91881 0.15827,0.368764 -0.0481,0.802908 0.0537,1.150326 0.11053,0.410646 0.0321,0.904942 0.0714,1.34718 0.006,0.323125 -0.0479,0.666741 0.23319,0.89276 0.0669,-0.03205 0.30135,0.05806 0.28842,-0.05118 z m 0.0553,-4.829775 c 0.0252,-0.354907 -0.0249,-0.722134 0.10765,-1.060123 -0.32792,-0.02334 -0.65566,0.07682 -0.93666,-0.150216 -0.35658,-0.148701 -0.63601,-0.4642342 -0.88084,-0.7451612 -0.0485,-0.357155 -0.59782,-0.194521 -0.69774,0.07749 0.38689,0.5786162 0.96626,1.0059552 1.47095,1.4731872 0.29557,0.163859 0.41364,0.250079 0.70959,0.435706 0.0445,0.05745 0.27948,0.106284 0.227,-0.03088 z m 3.40397,-0.112731 c 0.2937,-0.286815 0.69739,-0.449176 0.98332,-0.755896 0.3736,-0.269698 0.65487,-0.643851 0.98626,-0.9613042 0.0573,-0.337789 -0.52689,-0.513307 -0.65753,-0.173134 -0.44632,0.3789852 -0.78954,1.0649362 -1.46551,0.9830102 -0.36671,-0.04949 -0.12837,0.524281 -0.16982,0.76202 -0.039,0.230129 0.20081,0.366696 0.32328,0.145304 z m -1.66516,-0.771211 c 0.15189,-0.167652 0.74777,-0.262225 0.44134,-0.5739157 -0.14693,-0.2802975 -0.3533,-0.6382335 -0.72804,-0.5226925 -0.46275,-0.146779 -0.23192,0.4128432 -0.52767,0.5845565 -0.35418,0.2743337 0.71321,0.7828097 0.81437,0.5120517 z m 1.00317,-3.3567872 c 0.20779,-0.30865 -0.13903,-0.585007 -0.43294,-0.676341 -0.56106,0.0092 -1.15747,-0.02091 -1.70793,0.05447 -0.28652,0.06472 -0.60106,0.501698 -0.29889,0.654453 0.54968,0.05408 1.10781,-0.170291 1.66631,-0.06073 0.29279,-0.102528 0.56438,0.255047 0.77345,0.02815 z"
     id="level-2"
     sodipodi:nodetypes="sccccccccccccccccccccccccccccccccccccccccccccccccccccccccccccccssccccccccccccssscccsscccccccscccccccccssccccccccccccccccccccccccccccccccccccccc" />
  <path
     style="fill:#000000;stroke-width:0.0630909"
     d="m 178.29761,28.131479 c -0.2984,-0.02956 -0.78492,0.111537 -0.85065,-0.29785 -0.18764,-0.421275 -0.25191,0.460184 -0.62942,0.259385 -0.96501,0.01281 -1.93741,0.07775 -2.89789,0.05849 -0.32544,-0.05387 -0.641,-0.206051 -0.5965,-0.592342 0.0115,-0.336518 0.48656,-0.483297 0.77717,-0.58273 0.48134,-0.149882 0.9836,-0.220536 1.47398,-0.336109 -0.1016,-0.308046 0.21847,-0.562318 -0.0776,-0.826283 -0.17184,-0.567528 -0.23633,-1.186348 -0.2906,-1.781948 -0.13845,-2.164738 -0.20907,-4.335339 -0.25341,-6.502954 0.11255,-0.770752 -0.13586,-1.518989 -0.11269,-2.289868 l -0.0884,-2.29678 c -0.46353,-0.649049 -1.20314,-1.040012 -1.65861,-1.704926 -0.46978,-0.519372 -0.90453,-1.116252 -0.92184,-1.8459132 -0.46111,-0.792011 -0.35012,-1.755973 -0.45127,-2.637545 -0.0354,-0.637102 0.11139,-1.2782766 0.22824,-1.9020573 0.1183,-0.3324851 0.31705,-0.7772046 0.13111,-1.0836218 -0.21369,-0.310834 -0.14061,-0.7724451 -0.072,-1.1421978 0.0602,-0.4844293 0.16061,-0.9642043 0.3289,-1.4232364 0.43846,-0.1482586 0.33849,0.4203685 0.37782,0.7010589 -0.0187,0.40292 -0.0448,0.8075526 0.21556,1.1448358 0.16528,0.3193022 0.41208,0.7198892 0.093,1.029962 0.0682,1.1945911 0.0769,2.3909696 0.0953,3.5870506 0.25231,0.33119 0.40752,0.69466 0.53441,1.097448 0.3785,0.43234 0.71284,0.89618 1.1868,1.2319981 0.26834,0.2597321 0.71038,0.06112 1.04796,0.0488 0.38894,0.01518 0.76374,-0.3358622 0.69551,-0.7306462 -0.42243,-0.281881 -0.54872,-0.79482 -0.79978,-1.2104 -0.33814,-1.007985 0.25042,0.108155 0.3683,0.291658 0.19445,0.378494 0.48556,0.83224 0.93678,0.877663 0.38049,-0.06955 0.76765,-0.165878 0.94607,-0.546051 0.10434,-0.361578 0.46822,-0.695432 0.36467,-1.079239 -0.61682,-0.198348 -1.27359,-0.401169 -1.91198,-0.16876 -0.35255,0.08285 -0.54404,0.240281 -0.82873,0.420795 -0.43678,-0.0042 -0.32156,-0.338015 -0.0992,-0.56748 -0.001,-0.397814 -0.0263,-0.927406 0.45966,-1.038511 0.524,-0.261731 1.13662,-0.146284 1.70089,-0.172697 0.36695,0.110601 1.04728,0.142939 0.98877,0.664041 0.0163,0.328755 -0.0796,0.714654 0.29915,0.858641 -0.0918,0.288987 -0.52796,0.229138 -0.54601,0.657961 -0.13571,0.423282 -0.45124,0.731377 -0.73162,1.061974 0.18653,0.379896 0.48816,0.8040602 0.96857,0.7256052 0.33989,0.03041 0.69298,0.09556 0.88757,-0.2567192 0.38816,-0.431792 0.91601,-0.776944 1.18714,-1.290239 0.0989,-0.355948 0.30864,-0.675688 0.43977,-1.006558 0.006,-1.160167 0.0101,-2.3203346 0.0148,-3.4805049 -0.12032,-0.2013168 -0.34739,-0.3634663 -0.15372,-0.5777889 0.20005,-0.4422153 0.4819,-0.8696215 0.39326,-1.3763293 0.06,-0.3248042 -0.16122,-0.7881697 0.21097,-0.9591471 0.40422,0.1216539 0.35201,0.6481418 0.48062,0.9814759 0.11787,0.5590768 0.33001,1.1720018 0.0489,1.7123792 -0.0724,0.602173 0.18129,1.2153772 0.27812,1.8144588 0.0937,0.5621223 0.19871,1.1503503 0.13312,1.7169633 -0.10132,0.764004 -0.25623,1.513741 -0.506,2.246816 -0.1314,0.4090252 -0.13773,0.8728332 -0.51502,1.1484582 -0.41794,0.822158 -1.17679,0.879585 -1.47119,1.564113 -0.24515,0.286599 -0.64317,0.502301 -0.57452,0.934433 -0.13586,2.568146 -0.0586,5.143169 -0.0799,7.714252 0.024,1.518354 -0.0249,3.043438 -0.24879,4.545881 -0.007,0.355473 -0.34259,0.508019 -0.17801,0.857069 0.13831,0.666321 2.60656,0.445107 2.29733,1.333886 -0.0151,0.37575 -0.44679,0.449774 -0.7545,0.401837 -0.76348,0.0056 -1.52693,0.02567 -2.29043,0.01805 z m 0.28494,-2.479918 c 0.36046,0.03496 0.28497,-0.522851 0.34821,-0.777763 0.1672,-1.740361 0.11585,-3.491909 0.1763,-5.23743 0.004,-0.953089 -0.0289,-1.905912 -0.0409,-2.858888 -0.27201,-0.180901 -0.62389,0.08659 -0.95013,0.05066 -0.92402,0.116458 -1.86133,-0.01894 -2.78783,-0.07077 0.1029,2.426023 0.1454,4.857186 0.28601,7.279992 0.0701,0.536641 0.15397,1.071345 0.2312,1.606985 0.41231,0.0875 0.83139,0.05289 1.24911,0.04306 -0.0361,-2.358135 0.006,-4.717398 -0.0678,-7.074964 0.49855,-0.119884 0.41246,0.315406 0.4112,0.670162 0.0491,2.10951 0.0605,4.219622 0.0885,6.329465 0.19962,0.229361 0.63044,-0.0052 0.91935,0.04672 0.0456,-0.0024 0.0911,-0.0047 0.13672,-0.0072 z m -1.67066,-9.315875 c -0.009,-1.884314 -0.0297,-3.769484 -0.0383,-5.65417 -0.18341,-0.169651 -0.66667,-0.45248 -0.71483,-0.04243 0.0144,1.903316 -0.0573,3.806134 -0.0371,5.709465 0.0499,0.225791 0.83683,0.21704 0.7903,-0.01281 z m 1.39763,-2.941577 c -0.0319,-1.014216 -0.0639,-2.028433 -0.0958,-3.042649 -0.34821,-0.03123 -0.59688,0.143429 -0.804,0.410574 -0.0391,0.349656 0.10032,0.764865 0.063,1.146506 -0.006,1.517185 -0.003,3.03621 0.0632,4.552034 0.2573,-0.0952 0.89488,0.168117 0.86401,-0.198757 -0.0302,-0.95587 -0.0602,-1.911995 -0.0904,-2.867708 z m 0.86672,2.746526 c 0.084,-1.062389 0.14061,-2.126534 0.17339,-3.19173 0.4983,-0.789707 1.2416,-1.391107 1.87815,-2.066645 0.32509,-0.220815 0.48722,-0.608225 0.60999,-0.9595571 0.12766,-0.4317971 -0.54762,-0.3244591 -0.5992,0.01425 -0.25376,0.2114811 -0.37813,0.5776911 -0.62437,0.6728551 -0.22937,0.287096 -0.46192,0.31616 -0.53567,0.561817 -0.28392,0.261591 -0.64533,0.427173 -0.89723,0.736329 -0.14732,0.187496 -0.58688,0.18664 -0.41724,0.510834 0.0353,1.240288 0.0704,2.480573 0.10563,3.720861 0.06,0.170057 0.28521,0.175747 0.30659,9.54e-4 z m -3.59788,0.07382 c -0.001,-1.361546 0.0748,-2.727761 0.0129,-4.087011 -0.30096,-0.190674 -0.57777,-0.378816 -0.84825,-0.587138 -0.26386,-0.287225 -0.48551,-0.271506 -0.65946,-0.544689 -0.37561,-0.296857 -0.7657,-0.652041 -1.01748,-1.0388281 -0.0368,-0.2702821 -0.7606,-0.3564211 -0.56791,-0.0088 0.28914,0.8181681 1.00903,1.3765301 1.57047,2.0086071 0.27157,0.315333 0.68974,0.548774 0.86339,0.91881 0.15827,0.368764 -0.0481,0.802908 0.0537,1.150326 0.11053,0.410646 0.0321,0.904942 0.0714,1.34718 0.006,0.323125 -0.0479,0.666741 0.23319,0.89276 0.0669,-0.03205 0.30135,0.05806 0.28842,-0.05118 z m 0.0553,-4.829775 c 0.0252,-0.354907 -0.0249,-0.722134 0.10765,-1.060123 -0.32792,-0.02334 -0.65566,0.07682 -0.93666,-0.150216 -0.35658,-0.148701 -0.63601,-0.4642342 -0.88084,-0.7451612 -0.0485,-0.357155 -0.59782,-0.194521 -0.69774,0.07749 0.38689,0.5786162 0.96626,1.0059552 1.47095,1.4731872 0.29557,0.163859 0.41364,0.250079 0.70959,0.435706 0.0445,0.05745 0.27948,0.106284 0.227,-0.03088 z m 3.40397,-0.112731 c 0.2937,-0.286815 0.69739,-0.449176 0.98332,-0.755896 0.3736,-0.269698 0.65487,-0.6438511 0.98626,-0.9613042 0.0573,-0.337789 -0.52689,-0.513307 -0.65753,-0.173134 -0.44632,0.378985 -0.78954,1.0649362 -1.46551,0.9830102 -0.36671,-0.04949 -0.12837,0.524281 -0.16982,0.76202 -0.039,0.230129 0.20081,0.366696 0.32328,0.145304 z m -1.66516,-0.771211 c 0.15189,-0.167652 0.74777,-0.262225 0.44134,-0.5739161 -0.14693,-0.2802971 -0.3533,-0.6382331 -0.72804,-0.5226921 -0.46275,-0.146779 -0.23192,0.412843 -0.52767,0.5845561 -0.35418,0.2743341 0.71321,0.7828101 0.81437,0.5120521 z m 1.00317,-3.3567872 c 0.20779,-0.30865 -0.13903,-0.585007 -0.43294,-0.676341 -0.56106,0.0092 -1.15747,-0.02091 -1.70793,0.05447 -0.28652,0.06472 -0.60106,0.501698 -0.29889,0.654453 0.54968,0.05408 1.10781,-0.170291 1.66631,-0.06073 0.29279,-0.102528 0.56438,0.255047 0.77345,0.02815 z"
     id="level-3"
     sodipodi:nodetypes="sccccccccccccccccccccccccccccccccccccccccccccccccccccccccccccccssccccccccccccssscccsscccccccscccccccccssccccccccccccccccccccccccccccccccccccccc" />
  <path
     style="fill:#000000;stroke-width:0.0601051"
     d="M 68.42756,31.40071 C 67.899632,31.264029 67.343872,31.238145 66.845235,30.997742 66.245679,30.853001 65.743932,30.490301 65.189989,30.237869 64.743606,29.945699 64.307799,29.635833 63.930904,29.238585 63.39296,28.77567 63.070445,28.14943 62.680227,27.580183 62.42996,27.146728 62.299232,26.687146 62.05232,26.265897 c -0.281716,-0.656438 0.61802,-0.07771 0.766877,0.102728 0.480322,0.194004 0.881563,0.563034 1.401013,0.665825 0.36844,0.328437 0.89305,0.362147 1.362444,0.623844 0.630723,0.227152 1.260366,0.447243 1.916612,0.625285 0.786545,0.209413 1.589842,0.358891 2.400867,0.431075 0.538102,0.209616 1.169148,0.117348 1.746703,0.182164 1.110046,0.02517 2.224241,0.006 3.328297,-0.115209 0.452399,-0.272877 1.118747,-0.02211 0.413469,0.352724 -0.450188,0.381106 -0.921799,0.748574 -1.403348,1.063021 -0.54472,0.28732 -1.122268,0.550608 -1.699087,0.784788 -0.53688,0.184881 -1.173574,0.276238 -1.653039,0.484484 -0.731078,-0.04453 -1.484105,0.05112 -2.205568,-0.06591 z m 2.820768,-2.966512 c -0.698578,-0.135293 -1.428067,-0.104157 -2.129261,-0.257769 -0.560552,-0.05671 -1.079597,-0.285436 -1.64524,-0.320463 -0.405097,-0.233207 -1.002615,-0.292618 -1.4764,-0.497692 -0.523068,-0.208151 -1.047121,-0.400928 -1.551026,-0.657789 -0.594106,-0.288421 -1.228001,-0.517877 -1.731022,-0.958367 -0.413955,-0.100193 -1.043575,-0.604554 -0.42132,-0.926674 0.370839,-0.366409 0.730451,-0.62463 1.128618,-0.994641 0.473082,-0.252217 0.874457,-0.473848 1.348629,-0.708095 0.549859,-0.207047 1.083407,-0.366916 1.643015,-0.477566 0.645322,-0.07998 1.301613,-0.197589 1.949334,-0.170425 0.703663,0.09274 1.421926,0.09607 2.099228,0.336768 0.648397,0.18951 1.311242,0.399561 1.85643,0.80367 0.414657,0.18565 0.779767,0.516741 1.100935,0.766311 0.433112,0.371813 0.82838,0.791712 1.19843,1.227675 0.301314,0.532486 0.737021,1.013609 0.955561,1.604632 0.170295,0.359241 0.595558,1.092048 -0.141482,1.017592 -0.639281,0.171154 -1.336997,0.175499 -2.011791,0.196203 -0.712716,0.01999 -1.425665,0.03038 -2.138351,0.05152 l -0.02326,-0.02367 -2.3e-5,-2.3e-5 z m 0.596213,-3.282259 c 0.113854,-0.37378 0.986435,0.0271 0.795334,-0.620259 -0.368186,-0.331131 -0.83881,-0.658985 -1.380286,-0.641946 -0.192666,0.294566 -0.748621,0.01216 -0.5822,-0.318564 -0.384167,-0.245596 -0.816818,-0.192249 -1.076508,0.200171 -0.322351,-0.106545 -0.673424,-0.20243 -0.491987,-0.503628 -0.188686,-0.212449 -0.661157,-0.0919 -0.644213,0.0058 -0.466519,0.467536 -0.862319,-0.263273 -1.344552,-0.05584 -0.381386,0.0011 -1.454879,0.08509 -0.9456,0.646599 0.247632,0.196293 0.777325,0.07721 0.549303,0.545367 0.254528,0.154261 0.688913,0.163299 0.783328,-0.14638 0.43187,-0.18211 0.557276,0.203166 0.648027,0.473818 0.333124,0.08566 0.757952,0.06736 0.85331,-0.253092 0.373467,-0.08421 0.77516,0.06024 0.663443,0.47204 0.350368,0.248265 0.796302,0.09085 0.922446,-0.222811 0.382742,-0.08613 0.522873,0.119925 0.487737,0.453243 0.140723,0.175447 0.713733,0.279602 0.762418,-0.03453 z"
     id="ball-41" />
  <path
     style="fill:#000000;stroke-width:0.0601051"
     d="m 74.466963,74.52487 c -0.539456,-0.07986 -1.094823,-0.04659 -1.616165,-0.232693 -0.611535,-0.08027 -1.148954,-0.387646 -1.726567,-0.579839 -0.47488,-0.243125 -0.941123,-0.50497 -1.358064,-0.859957 -0.584051,-0.403185 -0.971232,-0.991643 -1.419682,-1.516243 -0.294873,-0.404434 -0.473656,-0.847539 -0.763897,-1.240192 -0.349819,-0.622818 0.606276,-0.142887 0.773449,0.02073 0.498205,0.141911 0.936358,0.466255 1.463786,0.513315 0.401228,0.287463 0.926452,0.265284 1.420977,0.475666 0.651275,0.158903 1.300727,0.3109 1.972166,0.418262 0.804333,0.124721 1.61896,0.188067 2.433065,0.173736 0.557316,0.1513 1.174999,-0.0074 1.756171,-0.0043 1.106444,-0.09283 2.212307,-0.230184 3.297253,-0.467927 0.420871,-0.319366 1.110077,-0.140763 0.448581,0.306832 -0.407181,0.426749 -0.837112,0.842212 -1.282554,1.206008 -0.511136,0.343529 -1.057466,0.666648 -1.606161,0.960746 -0.514217,0.240837 -1.137613,0.399276 -1.592258,0.65725 -0.731674,0.03334 -1.470289,0.208401 -2.2001,0.16863 z m 2.489867,-3.249228 c -0.708994,-0.06036 -1.431054,0.04805 -2.144594,-0.03025 -0.563405,0.0031 -1.1038,-0.169201 -1.669965,-0.143975 -0.427567,-0.18888 -1.028015,-0.184516 -1.520896,-0.338128 -0.542211,-0.15144 -1.083769,-0.287488 -1.612097,-0.489398 -0.62137,-0.223713 -1.276044,-0.384571 -1.822989,-0.769165 -0.422253,-0.05568 -1.101863,-0.49034 -0.517325,-0.876705 0.329841,-0.40371 0.660005,-0.698652 1.016637,-1.108845 0.44363,-0.301019 0.819206,-0.564012 1.265828,-0.847278 0.524768,-0.264256 1.038327,-0.479869 1.583024,-0.649308 0.633183,-0.148042 1.273278,-0.334666 1.920222,-0.376424 0.709532,0.01751 1.424089,-0.05544 2.123118,0.111987 0.664853,0.119598 1.346253,0.258087 1.931264,0.602028 0.432024,0.140577 0.830222,0.431032 1.176072,0.645093 0.47014,0.323727 0.907755,0.699287 1.322,1.093497 0.356146,0.497486 0.840471,0.92963 1.120526,1.49411 0.207473,0.33913 0.708135,1.022644 -0.03264,1.026862 -0.617496,0.238059 -1.310807,0.316457 -1.979589,0.408687 -0.706565,0.09555 -1.414381,0.181573 -2.120795,0.27826 l -0.02564,-0.02107 -2.6e-5,-2.1e-5 z m 0.244362,-3.327008 c 0.07353,-0.383755 0.983737,-0.07778 0.724985,-0.701195 -0.401261,-0.290168 -0.904034,-0.566203 -1.44064,-0.491771 -0.160303,0.313357 -0.743099,0.09157 -0.612732,-0.254951 -0.408071,-0.20342 -0.832612,-0.10444 -1.049171,0.313334 -0.331841,-0.07172 -0.69111,-0.129788 -0.542677,-0.448547 -0.210175,-0.191215 -0.667177,-0.02119 -0.639956,0.07416 -0.414243,0.514424 -0.885397,-0.170231 -1.342881,0.08723 -0.379114,0.04159 -1.437622,0.239075 -0.871605,0.74334 0.267073,0.168892 0.781129,-0.0058 0.6041,0.483964 0.269468,0.126366 0.702357,0.08923 0.763359,-0.228719 0.410095,-0.226933 0.575697,0.142851 0.69467,0.402338 0.340336,0.04981 0.76082,-0.01349 0.821616,-0.342258 0.362416,-0.123385 0.777175,-0.0224 0.70981,0.398934 0.374747,0.209662 0.801447,0.0058 0.893577,-0.319489 0.371434,-0.126279 0.53265,0.06373 0.533101,0.398897 0.158555,0.159515 0.739385,0.202244 0.754443,-0.115281 z"
     id="ball-42" />
  <path
     style="fill:#000000;stroke-width:0.0601051"
     d="m 94.771003,64.877686 c 0.541223,0.06685 1.095628,0.02021 1.6213,0.193704 0.613291,0.06552 1.157957,0.359863 1.740031,0.53809 0.480597,0.231618 0.953011,0.482159 1.378383,0.827002 0.593583,0.389002 0.994833,0.967965 1.455773,1.481612 0.30453,0.397216 0.49393,0.835887 0.79355,1.221436 0.36471,0.614213 -0.60266,0.157446 -0.77373,-0.0021 -0.50147,-0.129872 -0.94731,-0.44357 -1.475713,-0.477913 -0.408036,-0.277718 -0.932574,-0.242896 -1.432022,-0.441308 -0.654913,-0.143172 -1.307837,-0.279484 -1.981667,-0.370644 -0.807104,-0.105321 -1.62302,-0.149022 -2.436544,-0.115088 -0.560798,-0.137834 -1.17448,0.03569 -1.755557,0.04659 -1.103889,0.119449 -2.206119,0.283396 -3.285029,0.547199 -0.413056,0.329409 -1.106368,0.167455 -0.455839,-0.29594 0.396785,-0.436432 0.816584,-0.862128 1.253134,-1.236546 0.502719,-0.355739 1.041109,-0.691922 1.582561,-0.999148 0.508267,-0.253151 1.127667,-0.426557 1.575968,-0.695406 0.730658,-0.05095 1.464843,-0.243749 2.195401,-0.221566 z m -2.410894,3.308249 c 0.710242,0.04327 1.429482,-0.0825 2.1447,-0.02141 0.563167,-0.01667 1.107555,0.142568 1.672949,0.103713 0.431991,0.178528 1.03216,0.159705 1.528598,0.301403 0.545701,0.138338 1.090378,0.261303 1.623411,0.450432 0.626583,0.208684 1.284943,0.353728 1.840983,0.725039 0.42347,0.04549 1.11335,0.463661 0.53828,0.863991 -0.32002,0.411537 -0.64298,0.714345 -0.98964,1.133008 -0.43624,0.311615 -0.805373,0.583577 -1.245045,0.877516 -0.518247,0.276818 -1.026465,0.504737 -1.566923,0.687244 -0.629434,0.163248 -1.264849,0.365233 -1.910599,0.42256 -0.709749,-4.14e-4 -1.422341,0.08972 -2.125199,-0.06083 -0.667541,-0.10355 -1.352079,-0.225591 -1.945203,-0.555343 -0.435284,-0.130132 -0.840362,-0.410914 -1.191267,-0.616583 -0.477796,-0.312311 -0.924333,-0.677223 -1.347947,-1.061343 -0.368028,-0.488764 -0.862624,-0.909119 -1.156188,-1.466691 -0.215576,-0.334035 -0.732562,-1.005293 0.0079,-1.027349 0.611587,-0.252861 1.302807,-0.347933 1.969173,-0.456242 0.704057,-0.112538 1.409597,-0.215583 2.113477,-0.329254 l 0.02614,0.02045 2.6e-5,2.1e-5 z m -0.164172,3.331927 c -0.06427,0.385415 -0.981579,0.10145 -0.707888,0.718452 0.408133,0.28042 0.917407,0.544267 1.452065,0.456934 0.15271,-0.317127 0.740678,-0.109439 0.618695,0.240121 0.412851,0.193533 0.834885,0.08436 1.04132,-0.338511 0.333472,0.06371 0.694035,0.113102 0.553322,0.435348 0.21472,0.186098 0.667494,0.0051 0.637984,-0.08955 0.401734,-0.524251 0.88924,0.148858 1.340392,-0.119546 0.378002,-0.05071 1.431446,-0.273627 0.85345,-0.764115 -0.271063,-0.162411 -0.780763,0.02461 -0.61558,-0.469275 -0.272434,-0.11984 -0.704302,-0.07229 -0.75763,0.247037 -0.40451,0.236744 -0.57897,-0.128946 -0.704157,-0.385492 -0.341438,-0.0416 -0.760275,0.03181 -0.813136,0.361945 -0.35934,0.132078 -0.77641,0.04111 -0.719211,-0.381724 -0.379688,-0.200576 -0.801354,0.0135 -0.885624,0.340917 -0.368286,0.135188 -0.53403,-0.05089 -0.542553,-0.385943 -0.162351,-0.15565 -0.744041,-0.184379 -0.751448,0.133416 z"
     id="ball-32" />
  <path
     style="fill:#000000;stroke-width:0.0601051"
     d="m 97.327545,100.11689 c 0.526373,-0.142558 1.02208,-0.395175 1.574339,-0.433114 0.592598,-0.171012 1.208096,-0.104234 1.814376,-0.1591 0.53248,0.03291 1.06454,0.08642 1.58866,0.245026 0.69655,0.135947 1.28677,0.520438 1.90759,0.821898 0.43202,0.25274 0.7731,0.58736 1.19617,0.83116 0.56971,0.43093 -0.49853,0.37344 -0.7172,0.29034 -0.51337,0.0692 -1.04468,-0.0528 -1.5469,0.11496 -0.48271,-0.103 -0.95522,0.12739 -1.49262,0.13235 -0.66048,0.11484 -1.31651,0.23528 -1.974852,0.40542 -0.787086,0.20738 -1.559054,0.47514 -2.299479,0.81387 -0.571313,0.0842 -1.073973,0.47672 -1.607876,0.70632 -0.976971,0.52761 -1.935597,1.09579 -2.834909,1.74761 -0.258012,0.46104 -0.961131,0.57299 -0.533857,-0.10181 0.202518,-0.55399 0.4304,-1.10672 0.693162,-1.61831 0.331085,-0.51929 0.702585,-1.03394 1.087859,-1.52294 0.374976,-0.4264 0.882974,-0.82094 1.196497,-1.23922 0.657272,-0.32319 1.264224,-0.77905 1.94903,-1.03449 z m -0.982528,3.97386 c 0.673961,-0.22824 1.292397,-0.61639 1.977697,-0.83001 0.515141,-0.22818 1.079345,-0.28639 1.588167,-0.53595 0.467429,0.002 1.016019,-0.24204 1.529199,-0.29837 0.55752,-0.0781 1.1083,-0.16996 1.67328,-0.19621 0.65898,-0.0435 1.32335,-0.15788 1.97846,-0.0241 0.40927,-0.11785 1.206,0.009 0.82477,0.59663 -0.14084,0.50194 -0.32548,0.90431 -0.4883,1.42291 -0.2862,0.45332 -0.52524,0.84457 -0.8213,1.28282 -0.37527,0.45208 -0.75974,0.8551 -1.19121,1.22824 -0.52112,0.38893 -1.03316,0.81599 -1.6094,1.113 -0.65732,0.26774 -1.28307,0.62036 -1.990699,0.74652 -0.657196,0.1563 -1.337114,0.30189 -2.010856,0.22064 -0.452189,0.0439 -0.933319,-0.063 -1.335917,-0.12088 -0.560372,-0.10868 -1.111673,-0.27787 -1.649004,-0.47351 -0.525394,-0.31352 -1.142136,-0.51589 -1.624576,-0.92125 -0.325788,-0.22785 -1.058042,-0.65407 -0.380778,-0.95421 0.470749,-0.46516 1.074838,-0.8143 1.650913,-1.16631 0.609376,-0.37016 1.223712,-0.7321 1.832496,-1.10325 l 0.03193,0.009 3.3e-5,1e-5 z m 1.106665,3.14706 c 0.08609,0.38114 -0.870524,0.46474 -0.384032,0.93264 0.483824,0.10546 1.055031,0.15737 1.517082,-0.12546 0.0216,-0.35132 0.644454,-0.38113 0.66356,-0.0114 0.455368,0.0232 0.804908,-0.23724 0.836288,-0.70679 0.33282,-0.067 0.68533,-0.15746 0.67678,0.19407 0.26911,0.0912 0.61992,-0.24753 0.55686,-0.32397 0.17393,-0.63717 0.87958,-0.19809 1.19592,-0.61705 0.33084,-0.18973 1.22202,-0.79409 0.50156,-1.02989 -0.31233,-0.048 -0.71362,0.31772 -0.74724,-0.20196 -0.29753,-0.008 -0.67943,0.19912 -0.60817,0.51493 -0.28511,0.37201 -0.58479,0.0993 -0.79761,-0.0909 -0.33186,0.0905 -0.69193,0.31666 -0.61616,0.6423 -0.28282,0.25804 -0.70335,0.33136 -0.810119,-0.0817 -0.427324,-0.0423 -0.736877,0.31522 -0.691217,0.65021 -0.28993,0.26429 -0.513685,0.15462 -0.648146,-0.15239 -0.20912,-0.0828 -0.758561,0.11035 -0.645369,0.4074 z"
     id="ball-33" />
  <path
     style="fill:#000000;stroke-width:0.0601051"
     d="m 81.043607,122.15304 c -0.54137,0.0657 -1.06813,0.24476 -1.62013,0.20326 -0.610986,0.0844 -1.210576,-0.0698 -1.818456,-0.10231 -0.522287,-0.10881 -1.041196,-0.23795 -1.537209,-0.46996 -0.669918,-0.23426 -1.199009,-0.6993 -1.770287,-1.08654 -0.391381,-0.31199 -0.681039,-0.69199 -1.064833,-0.99385 -0.502152,-0.50805 0.546857,-0.29822 0.751358,-0.1847 0.517998,0.005 1.026356,0.20187 1.547437,0.10769 0.462991,0.17105 0.963625,0.0107 1.496194,0.0827 0.670107,-0.0191 1.33663,-0.0444 2.012545,-0.11849 0.808665,-0.0926 1.611019,-0.24703 2.392312,-0.47627 0.577486,-0.002 1.131265,-0.31767 1.692516,-0.46856 1.04245,-0.38226 2.072544,-0.80736 3.055911,-1.32371 0.321362,-0.41936 1.033261,-0.42949 0.513782,0.17719 -0.279747,0.51928 -0.58442,1.0337 -0.91772,1.5024 -0.402017,0.46653 -0.843374,0.9227 -1.294693,1.35149 -0.43216,0.36833 -0.991412,0.68607 -1.361591,1.05515 -0.696783,0.22572 -1.362738,0.59002 -2.077059,0.74478 z m 1.541349,-3.79225 c -0.699705,0.12936 -1.367318,0.42505 -2.076144,0.53835 -0.542529,0.15198 -1.109228,0.12891 -1.648537,0.30305 -0.462306,-0.069 -1.040198,0.0941 -1.556157,0.0764 -0.562957,-0.003 -1.121211,0.01 -1.684134,-0.0454 -0.658418,-0.0513 -1.332321,-0.0332 -1.961537,-0.25937 -0.421941,0.058 -1.192336,-0.1813 -0.730869,-0.70857 0.211259,-0.4766 0.451612,-0.84839 0.686993,-1.33833 0.348165,-0.40768 0.640763,-0.76068 0.996513,-1.15203 0.436138,-0.39369 0.87434,-0.73751 1.354787,-1.04504 0.571441,-0.31031 1.139337,-0.65966 1.752174,-0.87111 0.688872,-0.17087 1.35867,-0.43025 2.077073,-0.4538 0.672802,-0.0606 1.36656,-0.10734 2.021728,0.0695 0.453824,0.0212 0.914683,0.19599 1.304848,0.3109 0.539044,0.18779 1.060436,0.43417 1.564227,0.70471 0.475091,0.38552 1.0565,0.6741 1.475939,1.14436 0.289814,0.27214 0.953492,0.79881 0.240238,0.99889 -0.532494,0.39297 -1.180348,0.65203 -1.800887,0.91794 -0.656084,0.27916 -1.315922,0.54935 -1.971572,0.82952 l -0.03031,-0.0136 -3e-5,-2e-5 z m -0.644699,-3.27308 c -0.03063,-0.38953 0.928086,-0.33533 0.513604,-0.86803 -0.46374,-0.17366 -1.021632,-0.30681 -1.519417,-0.093 -0.07167,0.3446 -0.692374,0.28496 -0.658353,-0.0837 -0.447352,-0.0882 -0.83057,0.1196 -0.928865,0.57978 -0.338986,0.0187 -0.70082,0.0577 -0.642024,-0.28897 -0.253279,-0.12878 -0.649006,0.1561 -0.597512,0.24089 -0.263356,0.60571 -0.898882,0.0701 -1.271942,0.43943 -0.354593,0.14044 -1.323117,0.61097 -0.643844,0.94748 0.302246,0.0922 0.751699,-0.21248 0.71063,0.30687 0.293298,0.0506 0.700925,-0.0998 0.675629,-0.42256 0.33543,-0.32735 0.592976,-0.0146 0.776371,0.20419 0.341383,-0.042 0.730129,-0.21434 0.701766,-0.54747 0.316848,-0.21489 0.743546,-0.22725 0.79007,0.19689 0.416867,0.10303 0.774468,-0.20628 0.777187,-0.54455 0.32478,-0.22006 0.53052,-0.0795 0.619651,0.24362 0.195114,0.11188 0.766545,-6.1e-4 0.697049,-0.3108 z"
     id="ball-43" />
  <path
     style="fill:#000000;stroke-width:0.0601051"
     d="m 96.966853,30.358539 c 0.520619,0.162314 1.074451,0.215324 1.560744,0.479804 0.591767,0.173865 1.075195,0.560649 1.616133,0.839847 0.43157,0.313633 0.85172,0.644424 1.20876,1.059616 0.51468,0.488646 0.80621,1.129898 1.16814,1.717532 0.2288,0.445166 0.33691,0.910586 0.56293,1.343398 0.24931,0.669419 -0.62107,0.04742 -0.76093,-0.140083 -0.47027,-0.217243 -0.85301,-0.605436 -1.36681,-0.733488 -0.35195,-0.346049 -0.87428,-0.405353 -1.330328,-0.689672 -0.618869,-0.257701 -1.237005,-0.508296 -1.883769,-0.718192 -0.775371,-0.247597 -1.570404,-0.436148 -2.376935,-0.547875 -0.527216,-0.235659 -1.162017,-0.174337 -1.735714,-0.267297 -1.10749,-0.07938 -2.221291,-0.114675 -3.32995,-0.04756 -0.465194,0.250445 -1.118492,-0.03258 -0.395741,-0.372507 0.468273,-0.358652 0.957277,-0.702636 1.453615,-0.993177 0.558109,-0.26036 1.147833,-0.495113 1.735405,-0.700828 0.545273,-0.158428 1.18567,-0.218562 1.674739,-0.403131 0.728028,0.0802 1.48483,0.02146 2.199713,0.173605 z M 94.0045,33.183674 c 0.691133,0.169266 1.421272,0.173814 2.114122,0.361505 0.557111,0.08403 1.06436,0.337847 1.627616,0.400473 0.393217,0.252723 0.987119,0.341259 1.450317,0.569239 0.512271,0.233462 1.026285,0.451615 1.517035,0.732793 0.5793,0.317105 1.20122,0.577262 1.68213,1.041805 0.40856,0.120298 1.01278,0.654826 0.37552,0.946155 -0.38829,0.347849 -0.7601,0.588191 -1.17587,0.938305 -0.48483,0.228798 -0.89656,0.430553 -1.38161,0.64135 -0.559322,0.179933 -1.100045,0.313538 -1.664391,0.396712 -0.648459,0.04835 -1.309713,0.133749 -1.955333,0.07497 -0.698291,-0.127016 -1.415533,-0.165435 -2.080265,-0.438941 -0.638362,-0.220966 -1.290151,-0.463156 -1.814942,-0.893422 -0.40509,-0.20569 -0.753586,-0.554227 -1.062175,-0.819192 -0.414426,-0.392532 -0.788704,-0.831244 -1.13701,-1.284768 -0.274934,-0.546573 -0.68661,-1.048412 -0.87601,-1.649407 -0.152538,-0.367133 -0.541485,-1.119845 0.191036,-1.009463 0.64688,-0.139708 1.343976,-0.109959 2.018974,-0.09767 0.712842,0.01486 1.425447,0.03932 2.138315,0.05303 l 0.02207,0.02478 2.3e-5,2.4e-5 z m -0.755884,3.249205 c -0.131983,0.36777 -0.983933,-0.07527 -0.824692,0.580655 0.351565,0.348726 0.805607,0.699184 1.347269,0.708625 0.20683,-0.2848 0.748321,0.02443 0.565938,0.346632 0.371708,0.264074 0.806448,0.231932 1.085003,-0.147332 0.31676,0.122169 0.662728,0.235094 0.46679,0.527067 0.178081,0.221414 0.655877,0.124093 0.643727,0.02568 0.488808,-0.444182 0.848424,0.305095 1.340217,0.121478 0.380984,0.01756 1.457299,-0.01389 0.976066,-0.599622 -0.237746,-0.208157 -0.772624,-0.115096 -0.521998,-0.571556 -0.246687,-0.166514 -0.680111,-0.196766 -0.789546,0.10793 -0.440252,0.160791 -0.546682,-0.230154 -0.6241,-0.504917 -0.32854,-0.101835 -0.753754,-0.104318 -0.864657,0.211096 -0.37713,0.0659 -0.771291,-0.09804 -0.639585,-0.503894 -0.337818,-0.265089 -0.790911,-0.129648 -0.932232,0.177466 -0.386486,0.06737 -0.516389,-0.145331 -0.465007,-0.476533 -0.131982,-0.182114 -0.699218,-0.314144 -0.763195,-0.0028 z"
     id="ball-31" />
  <path
     style="fill:#000000;stroke-width:0.177167"
     d="m 55.519048,137.52959 c -0.863988,-0.13899 -1.079541,-0.22172 -1.31239,-0.74654 -0.726853,-0.45548 -1.887763,-0.21418 -2.258819,-1.15614 -0.836973,-0.55984 -1.805468,-0.78959 -2.767957,-1.0344 -0.682467,-0.85482 -1.275883,-1.83689 -1.611157,-2.85786 0.09102,-0.99087 0.350478,-1.99825 -0.118851,-2.93415 -0.322944,-0.96654 -1.38317,-1.56733 -1.791885,-2.46465 0.198057,-0.87467 -0.811988,-1.24468 -1.253651,-1.85213 -0.43786,-0.44096 -0.860173,-0.98118 -1.552389,-0.79334 -1.475193,0.003 -2.754074,-0.83117 -4.039705,-1.45662 -0.604418,-0.8873 -1.128327,-1.83583 -1.886273,-2.60639 -0.432535,0.51778 -0.178334,-0.57067 -0.861464,-0.92912 -0.383037,-0.88241 -0.611481,-1.79126 -0.504365,-2.75761 -0.394932,-0.92156 -0.648568,-1.86731 -0.5315,-2.87654 0.129979,-0.77468 -0.216164,-1.45389 -0.518904,-2.14181 0.918595,0.64112 -0.237724,-0.45586 -0.191181,-0.84293 0.462328,-0.76174 -0.276633,-1.25633 -0.699317,-1.82127 -0.966442,-1.06762 -1.529072,-2.43326 -2.663409,-3.35648 -0.203802,-0.62276 -0.982051,-1.33216 -0.612364,-1.96237 0.539399,-0.53803 1.180625,-0.59256 1.880885,-0.36672 1.892038,0.18069 2.974814,1.93318 4.305527,3.07649 0.175709,1.14155 0.03516,2.35614 0.31901,3.45751 0.396479,0.61567 0.625327,1.27607 0.660115,2.0061 0.995651,-0.15092 -0.131777,0.42962 0.78987,1.0797 0.517136,0.66653 0.918674,1.3779 0.924456,2.24285 -0.587076,0.64113 0.157443,0.81601 0.77197,1.18665 0.638261,0.38595 1.399172,0.64097 2.149815,0.62866 -0.462816,-0.67928 -1.264166,-1.23 -1.092751,-2.15015 -0.131686,-1.02387 0.102658,-2.15136 -0.563379,-3.02392 -0.174167,-1.12632 0.14085,-2.40538 -0.649293,-3.33938 -0.558861,-1.13381 -1.375024,-2.06939 -2.292284,-2.9271 -0.665888,-0.31581 -0.951122,-0.35049 -0.592844,-1.24507 -0.502842,-0.0589 -0.81846,-0.89908 -1.197088,-1.35338 -0.07689,-0.65788 -0.323594,-0.56924 -0.426918,-0.86192 0.433482,-0.6018 0.802706,-1.669155 1.743093,-1.30654 0.741391,0.14183 1.587322,0.0774 2.028416,0.81163 0.9349,0.96281 1.9474,1.84247 2.954037,2.7284 0.09871,1.34721 -0.215227,2.8224 0.627943,3.98472 0.667503,0.72414 1.415447,1.39916 1.613226,2.41017 0.477364,0.78092 0.22218,1.87318 1.01874,2.44278 1.03388,1.17906 2.281244,2.20691 3.177747,3.48328 0.260946,0.66214 0.629939,1.22718 1.30339,1.51864 0.899287,0.71976 1.572179,1.67906 1.973843,2.76212 0.240503,0.64653 1.232968,0.26099 1.601359,0.8863 0.590144,0.69516 1.562323,0.17308 2.344193,0.25737 1.702082,-0.0831 3.467782,-0.28733 5.134677,-0.0351 0.742057,0.58172 1.656269,1.04881 1.980091,1.9971 1.00343,-0.49278 0.971347,0.26663 0.898383,1.07549 -0.254411,0.86661 0.959391,0.5729 1.231132,1.2656 0.62814,0.43048 0.435304,1.19473 1.36128,0.84764 0.774765,-0.11049 1.646362,-0.0107 2.362348,-0.24883 0.847631,-0.71213 0.941341,-1.91488 1.423244,-2.86501 -0.180503,-0.79384 1.30772,-0.23519 0.885829,0.42038 -0.307683,0.99751 0.634247,0.93487 1.103117,0.42252 0.589855,-0.18829 1.323749,-0.25612 1.692858,-0.69388 0.64395,-0.12141 1.31434,0.6784 1.386155,1.20557 -0.0614,0.96894 -0.458459,1.87639 -1.281604,2.43722 -0.582785,0.48391 -1.070937,1.19341 -1.924671,1.03146 -0.970212,0.10683 -2.024291,-0.0501 -2.803585,0.6571 -0.555511,0.55521 -1.335581,0.38028 -1.850911,0.93789 -0.609635,0.16914 -0.709958,1.61207 0.08474,1.00394 0.687578,-0.39522 1.37846,-1.20462 2.221176,-0.82249 0.587306,0.3587 1.044868,0.78042 0.841221,1.52328 -0.247901,0.56877 -1.021803,0.88795 -1.474001,1.35977 -0.924576,0.78078 -2.121351,1.18574 -3.245079,1.59759 -2.123379,0.84466 -4.109218,2.06186 -6.22976,2.90265 -0.897826,-0.0252 -0.666706,0.52253 -1.369531,0.43888 -0.904605,0.0611 -1.754425,0.0253 -2.62461,-0.25761 z m -0.996106,-2.59301 c 0.681027,-0.68498 1.489377,-1.20434 2.296983,-1.72467 -0.02967,-0.75312 -1.011062,-0.34128 -1.40862,-0.0399 -0.896052,0.58693 -1.852978,1.15456 -2.489049,2.0399 -0.240685,0.94882 1.023384,0.49258 1.312116,-0.019 0.09619,-0.0854 0.19238,-0.17086 0.28857,-0.25629 z m -2.102355,-1.42596 c 0.95128,-0.95406 2.189648,-1.5063 3.321601,-2.20749 0.111021,-0.70567 0.225452,-1.41084 0.319931,-2.11898 -0.842836,0.0835 -0.931582,-1.20611 -1.735554,-1.37015 -0.935735,-0.36445 -1.686184,-1.2087 -2.755904,-1.103 0.04683,-0.24063 0.520879,-1.60585 1.075409,-0.79941 0.51187,0.42166 1.257705,0.10058 1.445621,0.79162 0.807341,0.38396 1.378883,-0.57299 0.721449,-0.88584 -0.722839,0.30766 -1.067052,-0.80265 -0.487664,-1.14682 0.581591,-0.51504 0.481267,-1.41062 1.077115,-1.94385 0.296897,-1.01137 -0.911792,-0.51716 -1.513599,-0.62983 -0.638371,-0.20935 -1.452884,-0.30416 -1.954304,-0.72994 -0.459183,-0.29754 -1.34143,-0.23021 -1.851692,0.10979 -1.626075,0.64265 -2.732956,2.0513 -4.07025,3.12001 -0.209068,0.94409 1.027529,1.32821 1.128466,2.15719 0.484195,0.80705 1.15404,1.55742 1.529264,2.39774 0.0374,1.29556 -0.182279,2.63486 0.433812,3.83197 0.463269,0.85707 1.484614,1.13005 2.371713,1.33776 0.314697,-0.26991 0.630665,-0.54252 0.944586,-0.81077 z m 9.302876,-0.34467 c 0.773258,-0.026 1.627647,-0.2172 2.247499,-0.66402 0.533173,-0.66804 1.334483,-1.22582 1.703565,-1.96133 -0.344922,-0.29837 -1.374591,0.10606 -1.969427,0.11829 -0.903351,0.13645 -0.518533,-0.36811 -0.329726,-0.55096 -0.621318,-0.36292 -1.37902,-0.30897 -1.725346,0.38172 -0.778191,0.007 -1.597202,-0.80439 -2.480207,-0.65739 -1.006785,-0.13873 -1.639685,0.78299 -2.496017,1.11984 -0.108403,0.76605 0.443063,1.20532 0.964763,1.65933 0.750073,0.3397 -0.268209,1.53523 0.909219,1.01005 1.057862,-0.15226 2.106433,-0.41571 3.175677,-0.45553 z m -4.040288,-3.35003 c 0.578599,-0.1703 1.46458,-1.25358 0.329122,-0.66749 -0.481641,0.15679 -1.632702,-0.23806 -1.302214,0.66435 0.0611,0.54157 0.708373,0.14689 0.973092,0.003 z m 4.622055,-1.15043 c 0.525333,-0.63308 -0.359762,-1.21385 -0.902932,-0.81151 -0.716604,0.37034 -0.60737,1.43288 0.306897,1.15301 0.357102,0.0437 0.473121,0.0115 0.596035,-0.3415 z m -4.129533,-0.27312 c 0.638247,-0.17701 0.515401,-1.61254 -0.224037,-1.07393 -0.314942,0.61268 -1.445958,0.69574 -1.131735,-0.20341 0.772033,-0.1558 1.074749,-0.66905 1.045398,-1.43522 0.09804,-0.68932 1.03958,-0.82956 1.505868,-1.27916 0.919246,-0.0825 1.905929,0.19899 2.763738,-0.21508 0.280326,-0.8473 -0.489829,-1.00975 -1.045477,-1.37924 -0.380966,-0.7199 -1.053286,-0.84727 -1.810848,-0.8013 -0.687721,0.0161 -1.469348,-0.21339 -2.098236,-0.0433 -0.625538,0.73511 -1.593618,1.26809 -1.688914,2.31612 -0.380507,0.82818 -0.194516,1.77313 -0.0046,2.61206 0.459104,0.48995 0.665499,1.37734 1.29068,1.60609 0.485935,0.0211 1.022306,0.34808 1.398098,-0.1036 z m 5.85928,-1.10065 c 0.589482,-0.22028 0.844879,-1.64013 0.0548,-0.8795 -0.403033,0.48995 -1.255869,0.7823 -1.06901,1.53141 0.52857,0.14387 0.689051,-0.34813 1.014212,-0.65191 z m -3.684876,-0.97354 c 0.616536,-0.56821 -0.488649,-1.23608 -1.037373,-1.20913 -0.418271,0.48006 -0.474666,1.24217 0.0557,1.63857 0.369726,0.3143 0.882546,0.003 0.981668,-0.42944 z m 1.984572,0.16498 c 0.204192,-0.47999 -0.14027,-1.52732 -0.822136,-1.37384 -0.643235,-0.16641 -0.717927,1.29595 -0.298654,1.54845 0.253026,0.39413 0.908011,0.10639 1.12079,-0.17461 z m -7.874057,-1.58423 c -0.31874,-0.62814 0.08302,1.06432 0,0 z m 8.914484,-0.31066 c 0.148678,-1.10672 -0.773701,-0.48037 -0.5315,0.29876 -0.0019,0.46826 0.837044,0.2508 0.5315,-0.29876 z m -21.458455,-2.42485 c -0.414114,-0.52717 -1.123297,-0.57264 -1.651546,-1.0267 -0.424065,-0.18951 -1.33948,-1.06925 -1.516186,-0.39545 0.08458,0.66872 0.958058,0.95397 1.497603,1.25599 0.687672,0.20844 1.343831,1.04824 2.064955,0.58644 -0.131609,-0.1401 -0.263217,-0.28019 -0.394826,-0.42028 z m 6.001351,-0.32067 c 0.734652,-0.68637 1.750644,-0.95308 2.612514,-1.44969 0.133156,-0.78997 -0.349598,-1.30349 -0.904873,-1.78445 -0.378934,-0.64175 -1.241622,-0.58169 -1.486752,-1.3265 -0.913884,-1.61863 -2.324957,-2.84362 -3.535319,-4.23151 -0.768326,0.40746 -1.517725,0.89367 -2.425713,0.72004 -0.60278,0.47917 0.19815,1.16092 0.426326,1.69387 0.384275,0.57057 -0.0055,1.37541 0.907336,1.55342 0.619172,0.30734 0.862104,1.30173 1.692233,0.86065 0.518127,-0.0562 1.615446,-0.41658 1.694839,0.27605 -0.449939,0.50101 -1.20682,0.35472 -1.772989,0.53874 -0.714656,0.0923 -0.646408,1.74968 -1.210658,0.95198 -0.679442,-0.29615 -0.116811,-0.98768 -0.05467,-1.34101 -1.207455,-0.57699 -2.431324,-1.20926 -3.663033,-1.69957 -0.842434,0.15417 -1.296592,-0.97209 -2.171915,-0.70778 -0.668306,-0.0869 -1.238358,0.62919 -0.830814,1.23407 0.563403,-0.42227 0.727078,0.86024 1.359708,0.94732 1.53555,1.22639 3.512316,1.70782 5.060767,2.92684 0.802725,0.7566 1.957137,0.6127 2.882041,1.1361 0.617929,0.3997 0.95276,0.20311 1.420971,-0.29857 z M 35.307788,108.23418 c 0.300063,-0.56311 1.737384,-0.70263 0.787022,-1.13276 -0.856331,-0.14893 -1.866478,0.0447 -2.423051,-0.77179 -0.728682,0.15581 0.30133,1.05619 0.574412,1.38304 0.334619,0.2331 0.624158,1.15062 1.061617,0.52151 z m 6.006299,-2.46657 c 1.04428,-0.31752 -0.162766,-0.85014 -0.717168,-0.79905 -0.733139,-0.037 -1.331673,-0.31527 -1.734139,-0.94515 -0.364226,-0.83447 -1.341372,-0.77309 -0.784645,0.18023 0.666549,-0.0101 0.771289,0.99893 1.203995,1.41303 0.607195,0.32748 1.398821,0.55067 2.031957,0.15094 z"
     id="knux-bottom" />
  <path
     style="fill:#000000;stroke-width:0.174559"
     d="m 49.43135,99.384629 c -0.746781,-0.193623 -1.49595,-0.52279 -2.112694,-0.975726 -0.691512,-0.572086 -1.993978,-1.487797 -1.441047,-2.168747 0.213123,-1.135014 1.596493,-2.128572 1.364805,-2.919829 -0.04797,-0.965968 -0.238623,-1.943746 0.11572,-2.87643 0.207535,-1.092339 0.625565,-2.12481 0.966416,-3.179229 -0.747916,-0.499283 -1.407081,-1.109623 -2.16734,-1.590275 -0.30206,-0.326891 -0.803731,-0.553699 -0.888277,-0.984105 -0.302481,-0.435868 -0.92804,-0.759514 -1.009347,-1.272196 0.04611,-0.555916 0.0922,-1.111825 0.138303,-1.667735 -0.52826,-0.343933 -1.211843,-0.541771 -1.377915,-1.226384 -0.258925,-0.454572 -0.552644,-0.830628 -0.563404,-1.386187 0.05902,-1.489899 -0.260627,-1.021907 -0.08924,-2.798673 -0.770955,0.224551 -0.626925,-0.365289 -0.52673,-0.916092 0.945788,-1.363695 0.333712,-2.071217 0.40267,-2.317024 0.118008,-0.735592 0.0088,-1.551672 0.269513,-2.236707 0.885283,-1.402135 2.361126,-1.410711 3.655124,-1.884112 -0.658182,-1.276532 -0.553176,-2.06967 -0.576886,-3.556201 0.19051,-0.917834 0.649988,-1.410375 1.354356,-1.731288 0.637208,-0.335131 1.25856,-0.814589 1.951319,-0.974394 0.840063,0.02171 1.714584,-0.134694 2.469301,0.328087 0.49328,0.213362 1.073257,0.357919 1.184734,0.962735 0.567745,0.962664 0.238248,2.293874 1.076615,3.120675 0.279885,0.440705 0.63079,0.7844 1.161445,0.882537 0.786128,0.193385 1.417499,0.72976 1.951709,1.300732 0.262996,0.594675 0.525991,1.189358 0.788985,1.784033 0.501026,-0.0091 0.881547,-0.177953 1.058406,0.430591 0.374841,0.493761 0.633542,1.123173 1.051768,1.551481 0.619258,0.243156 1.353154,0.309704 1.725799,0.93283 0.294835,0.446378 1.031218,0.06347 1.275033,-0.305556 0.344698,-0.457291 0.687153,-0.922649 1.270686,-0.52159 0.258726,0.303438 -0.303892,1.056434 0.422997,1.253151 0.562605,0.06571 1.183118,-0.04117 1.767871,-0.04149 -0.01683,0.643715 0.132543,1.332029 -0.35086,1.850524 -0.254082,0.417033 -0.549404,0.882452 -0.961265,0.634453 -0.393683,0.317787 -0.698223,0.915109 -1.281505,0.638469 -0.683043,-0.07206 -1.369291,-0.13507 -1.914011,-0.598371 -0.432813,-0.435656 -0.987126,-0.317147 -1.533516,-0.23483 -0.67471,0.144986 -1.335638,0.107546 -1.980633,-0.140592 -0.432451,-0.13309 -0.994851,-0.512042 -0.880677,-1.026915 -0.434021,-0.272021 -0.930381,0.431401 -1.444476,0.384033 -0.810743,0.364898 -0.453946,-0.286001 -0.523271,-0.616718 -0.729878,-0.238639 -0.696371,0.453904 -0.802266,0.976397 -0.314316,0.617609 -0.82531,1.148488 -1.213591,1.73348 0.248994,0.556291 0.647257,0.739206 1.217588,0.491695 0.644244,-0.109344 1.302243,-0.176587 1.847319,-0.570924 0.725753,1.12419 -0.08946,1.628759 -0.95449,2.101617 -0.15033,0.316492 -1.463238,0.377579 -0.679229,0.596278 0.668073,0.309303 1.458775,0.508229 2.039819,0.907198 1.179773,0.899569 2.532003,0.703984 2.791178,1.241123 0.460056,0.532819 1.128485,0.95057 1.159044,1.720541 0.227566,0.536197 0.24001,1.030248 -0.231756,1.429447 -0.487441,0.631536 -0.876784,1.4054 -0.762053,2.223578 -0.692089,1.656421 -1.624377,3.240013 -2.198574,4.960071 -0.101282,0.434424 -0.243658,1.10356 0.311631,1.25536 0.525548,0.493174 0.753827,1.325492 1.52934,1.52207 1.012964,0.272812 1.702408,2.010403 0.994852,2.388296 -0.787513,0.402163 -1.739608,0.234851 -2.599343,0.387121 -0.73321,0.16421 -1.284284,-0.526386 -1.929919,-0.773205 -0.609164,-0.426684 -1.469342,-0.232778 -1.978442,-0.846825 -0.243118,-0.371033 -0.151518,-1.0347 -0.115963,-1.480543 0.291771,-0.415496 0.603629,-0.81424 0.658393,-1.309593 0.357623,-0.604723 0.697406,-1.214606 0.630923,-1.941963 -0.003,-1.409168 -0.07109,-1.204016 -0.01891,-2.657173 -0.05211,-0.829942 0.575373,-1.449912 0.902383,-2.162716 -0.712562,-0.867474 -0.413313,-0.569429 -1.521806,-0.842992 -0.61107,-0.160074 -0.993407,0.224974 -1.353239,0.663667 -0.576863,0.408692 -0.548224,0.692014 -0.558337,1.214634 -0.434847,1.163416 -0.862197,2.330544 -1.589938,3.34916 -0.369048,0.827784 -0.886119,1.636448 -1.112927,2.501562 0.07054,0.630249 0.649139,1.11298 0.922141,1.68444 0.754088,1.065443 2.233761,1.067733 2.116673,2.326354 0.06248,0.537072 -0.106493,0.950087 -0.676663,1.046232 -0.649395,0.276361 -1.405921,0.0347 -2.10029,0.09357 -0.174689,-0.04493 -0.34937,-0.08991 -0.524057,-0.134865 z m 2.428495,-1.026388 c 0.09908,-0.42148 -0.874257,-0.485508 -1.123152,-0.855738 -0.44095,-0.886575 -1.167726,-1.564424 -1.800253,-2.3111 h -1.674787 c -0.332208,0.448806 -0.424778,0.957701 -0.361402,1.505707 0.573207,0.604031 1.210094,1.117612 1.990074,1.427909 0.478705,0.345551 1.021367,0.430388 1.598824,0.373365 0.416813,-0.08591 1.104944,0.198616 1.370696,-0.140143 z m 8.057061,-0.917095 c 0.261186,-0.419613 -0.600365,-0.568899 -0.942628,-0.504092 -1.383996,-1.513033 -1.544505,-1.945821 -3.081809,-2.640479 -0.415852,0.145237 -0.972315,0.429212 -1.077551,0.926753 -0.23045,0.369775 -0.408298,1.033011 0.0928,1.220183 0.992986,0.186325 1.855948,0.692726 2.728305,1.175999 0.720458,0.0052 1.440914,0.01053 2.161371,0.01584 0.03958,-0.0646 0.08104,-0.13003 0.119512,-0.194197 z M 52.901004,86.369311 c 0.220521,-0.416141 -0.242807,-0.861147 -0.480625,-1.189326 -0.504422,-0.571221 -0.998917,-1.151812 -1.499546,-1.726617 -0.08111,-0.391717 -1.589729,-1.053434 -2.202017,-2.056502 -0.303774,-0.48572 -0.951612,0.04268 -1.418013,0.03628 -0.498518,0.04678 -0.923613,0.255401 -1.292339,0.588342 -0.002,0.765491 0.716868,0.402386 0.932302,0.950861 0.570847,0.601048 0.86381,0.808767 1.720534,1.205068 0.825641,0.482743 1.109734,1.472871 1.705795,2.180067 0.809193,0.104131 1.613596,0.255915 2.430784,0.280517 0.03438,-0.08956 0.06875,-0.179114 0.10313,-0.268668 z m 4.320505,-0.146167 c 0.697373,-0.415046 1.60977,-0.25763 2.301963,-0.554148 0.368086,-0.450599 0.655326,-0.905297 0.180011,-1.398669 -0.157982,-0.561075 -0.545042,-0.846654 -1.114358,-0.913045 -0.726296,-0.307256 -1.671944,-0.264109 -2.143643,-0.978088 -0.254926,-0.617424 -0.883711,-0.304123 -1.274671,-0.709359 -0.592941,-0.608768 -1.490916,-0.284218 -2.250377,-0.383478 -0.760827,-0.0047 -1.536437,0.05937 -2.204016,-0.375105 -0.542424,-0.29775 -1.111819,-0.466178 -1.733749,-0.382739 0.183727,0.517506 0.494137,0.86149 1.051729,0.933792 0.509892,0.266142 1.135392,0.409782 1.310303,1.030855 0.400183,1.011221 1.339161,1.623597 1.989626,2.442231 0.249648,0.44106 0.260435,1.309359 0.954066,0.956237 0.533901,-0.171481 1.035565,-0.103328 1.505114,0.203566 0.437332,0.19388 0.879595,0.546671 1.32997,0.168215 l 0.08177,-0.03337 0.01622,-0.0066 z m -7.018394,-8.201009 c 0.652008,-0.531751 1.562505,-0.619391 2.316656,-0.980866 0.390781,-0.270635 1.259852,-0.186261 1.278754,-0.73292 0.07047,-0.800234 -0.03595,-1.649296 0.481536,-2.326109 0.134846,-0.44847 -0.04611,-0.937164 0.278545,-1.441653 0.08438,-0.657905 0.522664,0.157402 0.701529,-0.6426 0.506936,0.369425 -0.237483,0.955148 -0.324503,1.427244 -0.108989,0.625597 0.608411,0.78056 0.768341,0.12679 0.407901,-0.691059 1.060015,-1.187637 1.545635,-1.821832 -0.541507,-0.825568 -1.047237,-1.681675 -1.852273,-2.282314 -0.394462,-0.372917 -0.791953,-0.970938 -1.171624,-0.24259 -0.439873,0.43319 -0.832773,0.952872 -1.506143,0.956145 -0.989825,0.28633 -2.079674,0.0077 -3.054945,0.264651 -0.480032,0.395413 -1.104456,0.215031 -1.674206,0.252656 -0.26322,-0.539923 -0.811668,-0.611631 -1.346537,-0.705613 -0.704782,0.115915 -1.48389,0.169747 -2.145662,0.439466 -0.383307,0.318036 -0.98078,0.523765 -1.237283,0.908286 0.01926,0.949679 0.03859,1.899358 0.05792,2.84903 0.777584,0.106433 1.46258,0.634136 2.203529,0.907258 0.512122,0.31371 1.168708,0.440032 1.731207,0.231294 0.644514,-0.591872 0.585671,0.159719 0.426916,0.672547 -0.19696,0.640725 -0.09934,1.448303 -0.753755,1.829939 -0.556765,0.418102 -0.714558,0.678847 0.119599,0.548356 h 2.88126 c 0.09183,-0.07906 0.183679,-0.158109 0.275516,-0.237165 z m -3.776668,-0.982068 c 0.340396,-0.616751 -0.684646,-0.309836 -0.974882,-0.652851 -0.794336,-0.284504 -1.552087,-0.750608 -2.369422,-0.920961 -0.545723,-0.272331 -0.81703,0.485817 -0.301853,0.639432 0.93593,0.448569 1.926586,0.74341 2.925219,1.015833 0.273415,0.216915 0.720938,0.395763 0.720938,-0.08146 z m 3.223101,-7.534909 c 0.362622,-0.419408 1.030056,-0.09938 1.525637,-0.196249 0.759759,0.0083 1.534289,0.09266 2.210866,-0.326845 0.701397,-0.07778 0.08796,-0.963112 -0.361944,-0.847419 -0.621614,-0.114226 -1.038515,0.614858 -1.67796,0.37981 -1.132662,0.105701 -1.810549,-0.09827 -2.373051,0.75824 -0.54988,0.245816 -0.863979,-0.398116 -0.594306,-0.925578 0.03688,-0.61206 0.153667,-1.194175 0.576533,-1.661658 0.338611,-1.384066 0.171503,-0.663974 1.038752,-0.949099 0.6037,-0.239613 1.197651,-0.502404 1.793759,-0.760076 0.168037,-0.592432 -0.278546,-0.912132 -0.686453,-1.249005 -0.731984,-0.07036 -1.538352,-0.15479 -2.272282,-0.106469 -0.700788,0.406325 -1.576688,0.61115 -1.936389,1.409958 -0.361588,0.4278 -0.659391,0.873222 -0.474556,1.451966 0.05384,0.698453 0.0066,1.42851 0.501771,1.988852 0.284099,0.460774 0.46171,1.044968 1.074153,1.125238 0.454941,0.183688 0.972995,0.05681 1.454676,0.108953 0.06694,-0.06687 0.133862,-0.133751 0.200794,-0.200629 z m 1.437429,-2.461272 c 0.07884,-0.458524 -0.256416,-1.088463 -0.769817,-0.729534 -0.629063,-0.03556 -0.773601,0.668864 -0.465882,1.107847 0.386513,-0.0897 1.376001,0.314263 1.235971,-0.338861 z m 1.874441,-0.03021 c -0.09304,-0.336861 -0.110445,-1.287226 -0.491023,-1.288783 -0.394205,0.08421 -1.200238,0.366449 -0.940021,0.849002 0.122554,0.672473 0.528424,0.781985 1.11517,0.532106 0.09927,-0.04064 0.236097,-0.01319 0.315874,-0.09232 z"
     id="knux-center"
     sodipodi:nodetypes="ccccccccccccccccccccccccccccccccccccccccccccccccccccccccccccccccccccccccccccccccccccsccccccssscccccccccssccccccccccccccccccscccccccccccccccccccccccsssccccsssccccccccccccccccsscccccscccss" />
  <path
     style="fill:#000000;stroke-width:0.16187"
     d="m 114.18838,46.974635 c -0.83024,-0.471408 -1.19612,-1.371378 -1.7104,-2.128153 -0.85735,-0.725881 -0.34226,-2.071484 0.79837,-1.919254 0.90659,-0.218992 1.82171,-0.388014 2.75773,-0.315254 1.15851,-0.02913 2.3257,0.130706 3.39731,0.585226 0.69724,0.18801 1.33858,0.489849 1.87683,0.977155 0.7218,0.581153 1.54837,1.055802 2.18449,1.727403 0.0571,0.334551 0.0396,0.470722 0.40185,0.674083 0.20183,0.197653 0.40367,0.395311 0.60551,0.592964 -0.46277,0.624061 -1.21276,0.839711 -1.87738,1.172276 -0.9001,0.375195 -1.88136,0.522267 -2.82885,0.742024 -0.91252,0.405952 -1.65806,-0.32969 -2.52003,-0.37116 -0.89417,0.07572 -1.54625,-0.799276 -2.31659,-1.161 -0.26711,-0.177406 -0.51371,-0.382635 -0.76884,-0.57631 z m 2.11542,-0.631976 c 0.5385,-0.127391 1.17591,0.390447 1.70452,0.622893 0.54151,0.640246 1.39516,-0.09228 1.79282,0.727568 0.3742,0.05468 1.07716,-0.07467 0.99613,-0.637236 -0.3459,-0.447619 -1.25416,-0.628244 -1.82187,-0.94358 -0.81213,0.356693 -1.2381,-0.614263 -1.97881,-0.384142 -0.40288,-0.03741 -0.41885,-0.856032 -1.0008,-0.613262 -0.65005,-0.06978 -0.78738,0.833054 -0.16561,1.075237 0.13622,0.06329 0.33518,0.445941 0.47362,0.152524 z m -3.66548,-4.308964 c 0.8836,-0.934019 2.2482,-0.976553 3.41492,-1.29704 1.03714,-0.379731 2.11738,-0.08586 3.18188,-0.02346 0.80572,0.0061 1.39185,0.678461 2.09032,1.009923 0.6101,0.463444 1.47916,0.664071 1.84773,1.372423 0.5036,0.859327 1.20528,1.640353 1.32429,2.664591 0.30828,0.663077 -0.51667,0.637984 -0.54492,0.02407 -0.41248,-0.836868 -1.336,-1.265703 -1.96698,-1.928282 -0.72786,-0.793414 -1.81461,-0.995748 -2.77821,-1.377339 -0.89725,-0.299691 -1.85038,-0.392897 -2.77902,-0.56305 -1.03739,-0.0061 -2.08392,0.02278 -3.07569,0.360038 -0.21737,0.0251 -1.72339,0.604107 -0.71432,-0.24187 z"
     id="ball-21" />
  <path
     style="fill:#000000;stroke-width:0.16187"
     d="m 113.57236,72.067265 c -0.89576,-0.330372 -1.40289,-1.159005 -2.0332,-1.822252 -0.96382,-0.577068 -0.67401,-1.988442 0.4762,-2.023403 0.85901,-0.363265 1.73455,-0.678607 2.66997,-0.758768 1.13841,-0.216818 2.31607,-0.248587 3.44725,0.02594 0.71851,0.07232 1.40035,0.266043 2.01057,0.659504 0.80657,0.456265 1.69923,0.79043 2.43594,1.349853 0.11065,0.320844 0.11549,0.458049 0.50595,0.599904 0.23124,0.162266 0.46249,0.324535 0.69374,0.486798 -0.35532,0.69091 -1.06035,1.025454 -1.66217,1.461503 -0.82725,0.516342 -1.77161,0.820763 -2.67086,1.191422 -0.83451,0.548708 -1.68959,-0.05614 -2.54685,0.04287 -0.87002,0.219877 -1.6555,-0.537652 -2.47434,-0.769519 -0.29237,-0.131689 -0.56902,-0.294162 -0.8522,-0.44385 z m 1.98476,-0.967014 c 0.51067,-0.213122 1.2237,0.194368 1.78303,0.337915 0.63826,0.543843 1.36167,-0.317549 1.88715,0.426866 0.37811,-0.0068 1.05075,-0.248548 0.87947,-0.790496 -0.41398,-0.385527 -1.33952,-0.416308 -1.95089,-0.635297 -0.74345,0.483804 -1.32139,-0.405119 -2.01492,-0.0578 -0.40361,0.02849 -0.55226,-0.77668 -1.08708,-0.442655 -0.65276,0.03668 -0.6417,0.949828 0.0111,1.087859 0.14469,0.04034 0.40313,0.385611 0.4921,0.07361 z m -4.31638,-3.656742 c 0.72025,-1.065074 2.05984,-1.328576 3.15905,-1.834219 0.96174,-0.543066 2.07536,-0.428461 3.13586,-0.539702 0.79603,-0.124783 1.48353,0.443505 2.22655,0.657179 0.67724,0.358251 1.56734,0.415132 2.04602,1.054253 0.63642,0.766172 1.45559,1.422925 1.7393,2.414256 0.41183,0.604234 -0.40625,0.713398 -0.53379,0.112214 -0.54286,-0.758804 -1.52375,-1.032024 -2.25392,-1.583379 -0.84701,-0.664727 -1.95219,-0.687951 -2.96496,-0.908048 -0.934,-0.150054 -1.88962,-0.08729 -2.83356,-0.104429 -1.02462,0.162393 -2.05258,0.360786 -2.97644,0.854576 -0.21041,0.06006 -1.60246,0.875872 -0.74411,-0.122697 z"
     id="ball-22" />
  <path
     style="fill:#000000;stroke-width:0.16187"
     d="m 117.20571,98.892774 c -0.95474,0.0037 -1.71962,-0.595226 -2.54208,-0.996172 -1.10477,-0.203579 -1.32682,-1.627186 -0.26146,-2.062175 0.67773,-0.640729 1.38772,-1.242341 2.23604,-1.644563 0.99071,-0.601237 2.0829,-1.042834 3.23866,-1.181221 0.69843,-0.183514 1.40497,-0.240466 2.11425,-0.08525 0.91521,0.145394 1.86836,0.146291 2.75419,0.41276 0.21586,0.261891 0.26838,0.38874 0.68379,0.385093 0.27339,0.07115 0.54678,0.142308 0.82018,0.213456 -0.0913,0.771543 -0.6348,1.331517 -1.04613,1.950494 -0.59445,0.773034 -1.37272,1.388482 -2.08557,2.05021 -0.58993,0.805895 -1.60254,0.538264 -2.37105,0.930812 -0.73819,0.510245 -1.73899,0.07523 -2.58721,0.14436 -0.31997,-0.02113 -0.63597,-0.0766 -0.95361,-0.117806 z m 1.52127,-1.600039 c 0.40389,-0.378249 1.2144,-0.245839 1.78862,-0.306957 0.78814,0.286301 1.16464,-0.773683 1.91727,-0.260034 0.35186,-0.138598 0.89749,-0.600308 0.5475,-1.048139 -0.52266,-0.216414 -1.40053,0.07842 -2.04988,0.08705 -0.52732,0.713246 -1.37963,0.08256 -1.90791,0.650479 -0.36816,0.167836 -0.789,-0.534511 -1.17324,-0.03455 -0.59872,0.262638 -0.26902,1.114262 0.39083,1.015289 0.14966,-0.01281 0.51253,0.220287 0.48677,-0.103128 z m -5.32263,-1.91639 c 0.30231,-1.2497 1.46517,-1.965027 2.31815,-2.823144 0.7111,-0.845102 1.79449,-1.127173 2.74912,-1.602253 0.70214,-0.395281 1.54496,-0.103298 2.31579,-0.162954 0.75976,0.0988 1.61355,-0.159187 2.28551,0.272182 0.86417,0.495236 1.86129,0.824053 2.47376,1.653576 0.59713,0.422063 -0.13112,0.810421 -0.46084,0.291798 -0.77395,-0.521052 -1.78845,-0.433997 -2.66533,-0.695195 -1.02599,-0.326551 -2.06951,0.03818 -3.0953,0.186151 -0.9275,0.186045 -1.80083,0.579032 -2.69117,0.893077 -0.90313,0.510455 -1.79681,1.055805 -2.48965,1.841496 -0.17612,0.129849 -1.19498,1.380959 -0.74004,0.14527 z"
     id="ball-23" />
  <path
     style="fill:#000000;stroke-width:0.161939"
     d="m 136.88271,53.198451 c 0.0201,-0.869626 2.4994,-1.280586 3.08181,-1.491485 0.77911,-0.135234 1.55129,-0.445128 2.34887,-0.277163 0.85578,0.05177 1.71394,0.13005 2.50256,0.492984 1.21585,0.382838 2.86437,1.668724 3.25086,2.60053 0.91579,1.21651 2.71103,3.439957 -0.003,4.322289 -3.24388,1.535949 -5.01929,1.111252 -7.73231,-0.223612 -1.52274,-1.0183 -3.84982,-3.70024 -3.4486,-5.423543 z m 4.80864,2.011446 c 0.7637,-0.321578 0.40748,0.371923 0.79517,0.553158 0.53363,0.249465 1.10121,-0.36643 1.18499,0.463633 0.37554,0.634087 0.9483,-0.318527 1.1046,0.488716 0.51631,0.429512 1.27354,-0.852013 0.17345,-0.885941 -0.25784,0.05305 -0.14206,-0.850364 -1.21595,-0.506931 -0.26286,-0.475813 -0.92431,-0.882179 -1.36205,-0.731801 -0.45357,-0.456479 -1.41527,-1.016993 -1.80547,-0.298838 -0.0143,0.472552 0.54725,1.313389 1.12526,0.918004 z"
     id="ball-11"
     sodipodi:nodetypes="cccccccccscccccccs" />
  <path
     style="fill:#000000;stroke-width:0.164412"
     d="m 137.06494,69.166457 c -0.26784,-0.841545 1.97685,-2.054645 2.46639,-2.449411 0.70336,-0.387057 1.34241,-0.939516 2.1636,-1.041573 0.83873,-0.23283 1.68847,-0.440998 2.56543,-0.352911 1.29372,-0.03385 3.30098,0.65645 3.97967,1.423466 0.7934,0.472834 1.22883,1.280143 1.70171,2.039139 0.75163,0.64412 0.45427,1.594176 -0.27777,2.111687 -2.60731,2.545605 -4.45207,2.724009 -7.49751,2.338123 -1.79816,-0.474925 -4.91779,-2.281537 -5.10152,-4.06852 z m 5.28078,0.343599 c 0.62704,-0.560878 0.514,0.222547 0.94605,0.268555 0.5947,0.06333 0.93629,-0.71537 1.29076,0.05391 0.5699,0.484793 0.80529,-0.618897 1.22187,0.104527 0.6375,0.241911 0.94142,-1.238463 -0.12598,-0.907843 -0.23003,0.136062 -0.41712,-0.769522 -1.33477,-0.08525 -0.40947,-0.370037 -1.17867,-0.541808 -1.54929,-0.252911 -0.58618,-0.288517 -1.69454,-0.509155 -1.83207,0.30916 0.14233,0.458398 0.95902,1.080294 1.38343,0.509863 z"
     id="ball-12"
     sodipodi:nodetypes="ccccccccccsccccccc" />
  <path
     style="fill:#000000;stroke-width:0.164412"
     d="m 139.06105,90.291486 c -0.49517,-0.731261 1.31415,-2.530318 1.67187,-3.047546 0.56497,-0.570379 1.02144,-1.281181 1.78012,-1.61159 0.73847,-0.460795 1.49449,-0.901056 2.3605,-1.064894 1.23119,-0.398795 3.35176,-0.305123 4.21986,0.238323 0.89482,0.228823 1.54103,0.879794 2.20947,1.473826 0.90326,0.404926 0.88708,1.400299 0.33154,2.103914 -1.77978,3.179707 -3.49852,3.873172 -6.52859,4.365426 -1.85905,0.05368 -5.36256,-0.795637 -6.04477,-2.457459 z m 5.16194,-1.16577 c 0.44256,-0.715475 0.55598,0.0679 0.98338,-0.01032 0.58829,-0.107657 0.6954,-0.951211 1.2532,-0.313788 0.68385,0.303579 0.59708,-0.821593 1.20146,-0.245736 0.67991,0.0515 0.5522,-1.454348 -0.37789,-0.835015 -0.18209,0.195629 -0.61795,-0.619915 -1.30428,0.296193 -0.49749,-0.238947 -1.28385,-0.185881 -1.5575,0.196137 -0.64388,-0.110726 -1.76936,-0.0085 -1.66955,0.815276 0.26631,0.399335 1.22567,0.764525 1.47119,0.09726 z"
     id="ball-13"
     sodipodi:nodetypes="ccccccccccsccccccc" />
</svg>
