<svg xmlns="http://www.w3.org/2000/svg" xmlns:svg="http://www.w3.org/2000/svg" id="svg5" width="549.762" height="425.149" version="1.1" viewBox="0 0 145.458 112.487"><g id="level-2" transform="matrix(0.20391548,0,0,0.20391548,15.341338,13.25973)"><path style="fill:#000;fill-opacity:1" id="path1766-5-4" d="m 38.65,-8.2 -5.2,0.7 -7.1,1.5 3.4,-12.3 0.35,-1.3 q 6.5,-5.05 16.15,-1.75 l 2.75,-11 Q 41.3,-36.1 34,-31 l 3,-11.65 4.6,-1.95 0.05,-0.05 4.2,-0.55 1.65,-0.1 2.85,-0.05 h 0.4 1.25 l -0.1,0.1 H 52 l -3,12.9 q 3.35,-0.3 7,3 3.65,3.35 7.35,4.35 l -3,11.65 q -1.15,0.4 -4.3,-2.6 -4,-3.8 -6,-4.15 l -3.8,-1.25 -3.65,13 -0.75,0.05 -3.2,0.1"/><path style="fill:none;stroke:#000;stroke-width:1;stroke-linecap:round;stroke-linejoin:round;stroke-miterlimit:3;stroke-opacity:1" id="path1768-4-2" d="m 46.25,-21.35 2.75,-11 m 3,-13 -0.1,0.1 L 34,-31 l 3,-11.65 4.6,-1.95 q -3.15,0.6 -5,1.8 M 26.35,-6 l 7.1,-1.5 5.2,-0.7 Q 30,-7.75 27,-6.65 l 3,-12 12.6,10.3 L 41.85,-8.3 45,-8 q 2.7,0.6 7.1,4.45 4.1,3.6 7.25,3.9 7.3,0.65 13,-3.7 l 12,-40 Q 82.5,-41.5 79.7,-39.85 74,-36.5 69,-37.35 63.85,-38.2 59.4,-42 56.15,-44.8 52,-45.25 m 8.35,31.9 3,-11.65 q -3.7,-1 -7.35,-4.35 -3.65,-3.3 -7,-3 m -18.65,11.65 -0.3,1.1 -0.3,1.3 M 51.9,-45.25 H 52 m 0,-0.1 h -1.25 -0.4 l -2.85,0.05 -1.65,0.1 -4.2,0.55 -0.05,0.05 m 0.25,36.3 -3.2,0.1"/><path style="fill:none;stroke:#000;stroke-width:1;stroke-linecap:round;stroke-linejoin:round;stroke-miterlimit:3;stroke-opacity:1" id="path1770-6-8" d="m 30.05,-19.6 h 0.05 q 6.5,-5.05 16.15,-1.75 m 2.75,-11 Q 41.3,-36.1 34,-31 m 8.6,22.65 3.65,-13 m 2.75,-11 3,-12.9 v -0.1"/><path style="fill:none;stroke:#000;stroke-width:2;stroke-linecap:round;stroke-linejoin:round;stroke-miterlimit:3;stroke-opacity:1" id="path1772-6-7" d="m 36.6,-42.8 -0.25,0.15 -6,21.95 -0.25,1.1 -0.35,1.3 -3.4,12.3 -1.9,7"/><path style="fill:#000;fill-opacity:1" id="path1774-3-1" d="m 60.65,-13 q 8.7,1.35 14.7,-3 L 72,-4 q -3.75,3.75 -9.55,4.1 l -5.1,-0.45 3.3,-12.65"/><path style="fill:none;stroke:#000;stroke-width:1;stroke-linecap:round;stroke-linejoin:round;stroke-miterlimit:3;stroke-opacity:1" id="path1776-2-4" d="m 57.35,-0.35 5.1,0.45 Q 68.25,-0.25 72,-4 l 3.35,-12 q -6,4.35 -14.7,3 z"/><path style="fill:#000;fill-opacity:1" id="path1778-1-63" d="m 66.65,-37.35 q 7.95,1.05 13.45,-2.2 2.75,-1.6 3.9,-3.45 l -4,13 q -1.65,3.55 -9.15,4.45 l -7.2,0.2 3,-12"/><path style="fill:none;stroke:#000;stroke-width:1;stroke-linecap:round;stroke-linejoin:round;stroke-miterlimit:3;stroke-opacity:1" id="path1780-3-2" d="m 63.65,-25.35 7.2,-0.2 q 7.5,-0.9 9.15,-4.45 l 4,-13 q -1.15,1.85 -3.9,3.45 -5.5,3.25 -13.45,2.2 z"/></g><g id="hit-left" transform="matrix(0.19195858,-0.01062052,0.01062052,0.19195858,9.2498061,33.62995)"><path style="fill:#000;fill-opacity:1" id="path1096" d="m 250.15,289.35 -9.4,0.4 q -10.15,1.5 -13.1,6.9 -3.95,7.35 -5.3,25.35 -2.5,-6.25 -5.6,-12.5 -6.15,-12.6 -9.1,-12.85 -5,-0.4 -11.65,3.45 -3.3,1.9 -5.65,3.9 6.65,-21.35 3.3,-26.65 -1.3,-2.05 -8.1,-3.9 L 179,272 q 15.35,-11.35 16,-17.35 0.4,-3.4 -5.75,-7.35 L 183,244 q 17.35,0.65 22,-4 4.65,-4.65 4.65,-20.65 l 4.6,8.85 q 5.15,8.95 8.1,9.15 5.8,0.4 11.5,-6.1 2.85,-3.25 4.5,-6.6 l -2.35,8.9 q -1.85,9.95 0.35,15.1 2.5,5.85 9.85,8.5 3.65,1.35 6.8,1.5 -4,1.2 -7.75,3.95 -7.5,5.5 -6.25,13.4 1.25,7.9 6.45,11.4 2.45,1.7 4.7,1.95"/></g><g id="hit-right" transform="matrix(0.21555773,-0.0292837,0.0292837,0.21555773,40.784153,29.781599)"><path style="fill:#000;fill-opacity:1" id="path1096-0" d="m 250.15,289.35 -9.4,0.4 q -10.15,1.5 -13.1,6.9 -3.95,7.35 -5.3,25.35 -2.5,-6.25 -5.6,-12.5 -6.15,-12.6 -9.1,-12.85 -5,-0.4 -11.65,3.45 -3.3,1.9 -5.65,3.9 6.65,-21.35 3.3,-26.65 -1.3,-2.05 -8.1,-3.9 L 179,272 q 15.35,-11.35 16,-17.35 0.4,-3.4 -5.75,-7.35 L 183,244 q 17.35,0.65 22,-4 4.65,-4.65 4.65,-20.65 l 4.6,8.85 q 5.15,8.95 8.1,9.15 5.8,0.4 11.5,-6.1 2.85,-3.25 4.5,-6.6 l -2.35,8.9 q -1.85,9.95 0.35,15.1 2.5,5.85 9.85,8.5 3.65,1.35 6.8,1.5 -4,1.2 -7.75,3.95 -7.5,5.5 -6.25,13.4 1.25,7.9 6.45,11.4 2.45,1.7 4.7,1.95"/></g><g id="level-3" transform="matrix(0.20391548,0,0,0.20391548,27.358213,13.218947)"><path style="fill:#000;fill-opacity:1" id="path1766-5" d="m 38.65,-8.2 -5.2,0.7 -7.1,1.5 3.4,-12.3 0.35,-1.3 q 6.5,-5.05 16.15,-1.75 l 2.75,-11 Q 41.3,-36.1 34,-31 l 3,-11.65 4.6,-1.95 0.05,-0.05 4.2,-0.55 1.65,-0.1 2.85,-0.05 h 0.4 1.25 l -0.1,0.1 H 52 l -3,12.9 q 3.35,-0.3 7,3 3.65,3.35 7.35,4.35 l -3,11.65 q -1.15,0.4 -4.3,-2.6 -4,-3.8 -6,-4.15 l -3.8,-1.25 -3.65,13 -0.75,0.05 -3.2,0.1"/><path style="fill:none;stroke:#000;stroke-width:1;stroke-linecap:round;stroke-linejoin:round;stroke-miterlimit:3;stroke-opacity:1" id="path1768-4" d="m 46.25,-21.35 2.75,-11 m 3,-13 -0.1,0.1 L 34,-31 l 3,-11.65 4.6,-1.95 q -3.15,0.6 -5,1.8 M 26.35,-6 l 7.1,-1.5 5.2,-0.7 Q 30,-7.75 27,-6.65 l 3,-12 12.6,10.3 L 41.85,-8.3 45,-8 q 2.7,0.6 7.1,4.45 4.1,3.6 7.25,3.9 7.3,0.65 13,-3.7 l 12,-40 Q 82.5,-41.5 79.7,-39.85 74,-36.5 69,-37.35 63.85,-38.2 59.4,-42 56.15,-44.8 52,-45.25 m 8.35,31.9 3,-11.65 q -3.7,-1 -7.35,-4.35 -3.65,-3.3 -7,-3 m -18.65,11.65 -0.3,1.1 -0.3,1.3 M 51.9,-45.25 H 52 m 0,-0.1 h -1.25 -0.4 l -2.85,0.05 -1.65,0.1 -4.2,0.55 -0.05,0.05 m 0.25,36.3 -3.2,0.1"/><path style="fill:none;stroke:#000;stroke-width:1;stroke-linecap:round;stroke-linejoin:round;stroke-miterlimit:3;stroke-opacity:1" id="path1770-6" d="m 30.05,-19.6 h 0.05 q 6.5,-5.05 16.15,-1.75 m 2.75,-11 Q 41.3,-36.1 34,-31 m 8.6,22.65 3.65,-13 m 2.75,-11 3,-12.9 v -0.1"/><path style="fill:none;stroke:#000;stroke-width:2;stroke-linecap:round;stroke-linejoin:round;stroke-miterlimit:3;stroke-opacity:1" id="path1772-6" d="m 36.6,-42.8 -0.25,0.15 -6,21.95 -0.25,1.1 -0.35,1.3 -3.4,12.3 -1.9,7"/><path style="fill:#000;fill-opacity:1" id="path1774-3" d="m 60.65,-13 q 8.7,1.35 14.7,-3 L 72,-4 q -3.75,3.75 -9.55,4.1 l -5.1,-0.45 3.3,-12.65"/><path style="fill:none;stroke:#000;stroke-width:1;stroke-linecap:round;stroke-linejoin:round;stroke-miterlimit:3;stroke-opacity:1" id="path1776-2" d="m 57.35,-0.35 5.1,0.45 Q 68.25,-0.25 72,-4 l 3.35,-12 q -6,4.35 -14.7,3 z"/><path style="fill:#000;fill-opacity:1" id="path1778-1" d="m 66.65,-37.35 q 7.95,1.05 13.45,-2.2 2.75,-1.6 3.9,-3.45 l -4,13 q -1.65,3.55 -9.15,4.45 l -7.2,0.2 3,-12"/><path style="fill:none;stroke:#000;stroke-width:1;stroke-linecap:round;stroke-linejoin:round;stroke-miterlimit:3;stroke-opacity:1" id="path1780-3" d="m 63.65,-25.35 7.2,-0.2 q 7.5,-0.9 9.15,-4.45 l 4,-13 q -1.15,1.85 -3.9,3.45 -5.5,3.25 -13.45,2.2 z"/></g><g id="level-1" transform="matrix(0.20391548,0,0,0.20391548,2.9911042,13.229143)"><path style="fill:#000;fill-opacity:1" id="path1766-5-0" d="m 38.65,-8.2 -5.2,0.7 -7.1,1.5 3.4,-12.3 0.35,-1.3 q 6.5,-5.05 16.15,-1.75 l 2.75,-11 Q 41.3,-36.1 34,-31 l 3,-11.65 4.6,-1.95 0.05,-0.05 4.2,-0.55 1.65,-0.1 2.85,-0.05 h 0.4 1.25 l -0.1,0.1 H 52 l -3,12.9 q 3.35,-0.3 7,3 3.65,3.35 7.35,4.35 l -3,11.65 q -1.15,0.4 -4.3,-2.6 -4,-3.8 -6,-4.15 l -3.8,-1.25 -3.65,13 -0.75,0.05 -3.2,0.1"/><path style="fill:none;stroke:#000;stroke-width:1;stroke-linecap:round;stroke-linejoin:round;stroke-miterlimit:3;stroke-opacity:1" id="path1768-4-3" d="m 46.25,-21.35 2.75,-11 m 3,-13 -0.1,0.1 L 34,-31 l 3,-11.65 4.6,-1.95 q -3.15,0.6 -5,1.8 M 26.35,-6 l 7.1,-1.5 5.2,-0.7 Q 30,-7.75 27,-6.65 l 3,-12 12.6,10.3 L 41.85,-8.3 45,-8 q 2.7,0.6 7.1,4.45 4.1,3.6 7.25,3.9 7.3,0.65 13,-3.7 l 12,-40 Q 82.5,-41.5 79.7,-39.85 74,-36.5 69,-37.35 63.85,-38.2 59.4,-42 56.15,-44.8 52,-45.25 m 8.35,31.9 3,-11.65 q -3.7,-1 -7.35,-4.35 -3.65,-3.3 -7,-3 m -18.65,11.65 -0.3,1.1 -0.3,1.3 M 51.9,-45.25 H 52 m 0,-0.1 h -1.25 -0.4 l -2.85,0.05 -1.65,0.1 -4.2,0.55 -0.05,0.05 m 0.25,36.3 -3.2,0.1"/><path style="fill:none;stroke:#000;stroke-width:1;stroke-linecap:round;stroke-linejoin:round;stroke-miterlimit:3;stroke-opacity:1" id="path1770-6-2" d="m 30.05,-19.6 h 0.05 q 6.5,-5.05 16.15,-1.75 m 2.75,-11 Q 41.3,-36.1 34,-31 m 8.6,22.65 3.65,-13 m 2.75,-11 3,-12.9 v -0.1"/><path style="fill:none;stroke:#000;stroke-width:2;stroke-linecap:round;stroke-linejoin:round;stroke-miterlimit:3;stroke-opacity:1" id="path1772-6-1" d="m 36.6,-42.8 -0.25,0.15 -6,21.95 -0.25,1.1 -0.35,1.3 -3.4,12.3 -1.9,7"/><path style="fill:#000;fill-opacity:1" id="path1774-3-2" d="m 60.65,-13 q 8.7,1.35 14.7,-3 L 72,-4 q -3.75,3.75 -9.55,4.1 l -5.1,-0.45 3.3,-12.65"/><path style="fill:none;stroke:#000;stroke-width:1;stroke-linecap:round;stroke-linejoin:round;stroke-miterlimit:3;stroke-opacity:1" id="path1776-2-7" d="m 57.35,-0.35 5.1,0.45 Q 68.25,-0.25 72,-4 l 3.35,-12 q -6,4.35 -14.7,3 z"/><path style="fill:#000;fill-opacity:1" id="path1778-1-6" d="m 66.65,-37.35 q 7.95,1.05 13.45,-2.2 2.75,-1.6 3.9,-3.45 l -4,13 q -1.65,3.55 -9.15,4.45 l -7.2,0.2 3,-12"/><path style="fill:none;stroke:#000;stroke-width:1;stroke-linecap:round;stroke-linejoin:round;stroke-miterlimit:3;stroke-opacity:1" id="path1780-3-9" d="m 63.65,-25.35 7.2,-0.2 q 7.5,-0.9 9.15,-4.45 l 4,-13 q -1.15,1.85 -3.9,3.45 -5.5,3.25 -13.45,2.2 z"/></g><path style="fill:#000;stroke-width:.155496" id="sonic-left" d="m 28.84931,105.29965 c -1.359251,-0.27641 -2.692498,0.17338 -4.055461,-0.2569 -1.792958,-0.13472 -3.611679,-0.0808 -5.40674,0.0338 -2.490255,-0.40045 -5.028348,-0.0865 -7.510455,-0.56714 -1.467401,-0.45579 -4.379081,0.61082 -4.1968942,-1.79882 -0.2233904,-1.0227 -0.5029238,-1.76906 0.8825131,-1.38409 5.0680641,0.23476 7.1485421,0.54343 11.8065111,0.50852 1.986701,0.077 3.974707,0.1224 5.962919,0.12856 1.272878,-0.18485 3.67336,0.0386 5.374521,-0.0862 1.53729,-0.25692 2.906172,0.28712 4.41153,-0.0784 1.381779,-0.10538 2.706706,-1.44298 3.202237,-2.717883 1.767029,-0.517975 -0.04403,4.263533 1.753902,2.111833 -0.339863,-1.264047 -0.840083,-2.608862 -0.721251,-4.025982 0.03611,-1.7224 -0.298233,-3.492727 0.279062,-5.103953 -0.328633,-1.327244 1.489887,-2.810221 1.828449,-0.830143 0.44529,1.479281 1.36506,2.889237 0.732316,4.421034 -0.06797,2.360489 0.191088,4.891774 -0.970967,7.044904 -1.317471,0.78549 -2.870505,1.10953 -4.109094,1.78509 -2.102587,0.83848 -4.593091,0.54174 -6.859969,0.67895 -0.85578,-0.40453 -1.719704,0.21932 -2.403129,0.13683 z m 13.08232,-6.329218 c 0.180201,-1.893986 0.610366,-4.480645 -0.413644,-6.02519 -0.541406,2.011913 -0.01619,4.17004 -0.0581,6.237972 0.116559,0.521043 0.478311,0.03027 0.471744,-0.212782 z m -28.453882,1.750118 c -1.706398,-0.37628 -3.115342,0.17758 -4.7602166,-0.16299 -1.0407042,0.12531 -2.1577681,-0.53479 -1.0197233,-1.413557 1.0757781,-1.139309 0.5579325,-2.969205 0.746061,-4.48336 0.4472335,-1.475537 -1.421222,-2.846734 -1.0777351,-3.893969 1.3958686,5.88e-4 2.751322,-0.522412 4.185564,-0.427857 2.877119,-1.990147 3.409953,-6.184905 6.562328,-8.173695 1.408653,-1.063789 2.672267,-2.319268 4.248053,-3.268579 3.469062,-1.624481 6.866239,-1.773094 10.24278,-2.368611 2.762983,-0.01416 5.529958,0.08882 8.295359,0.08999 1.679586,0.758432 3.965023,0.370251 5.000496,2.287856 0.443515,1.294149 1.467268,2.62463 0.568025,4.043002 -0.8395,1.732262 0.17853,3.77544 -0.483593,5.590086 -0.659242,1.409674 -1.660876,2.570769 -1.592867,4.218085 -1.162501,1.837895 -0.731632,-0.958391 -1.378315,-1.536546 0.01505,-1.979497 -0.340298,-4.170564 0.647686,-5.966544 0.715577,-0.62992 0.84515,-2.366995 -0.334146,-1.318028 -0.813234,1.430907 -0.984601,3.177092 -0.741856,4.793054 -0.58193,1.011924 -2.884298,0.931333 -2.385666,2.815922 -1.146376,1.190709 -3.24586,-0.895826 -1.929822,-2.283631 0.876645,-1.433475 0.588221,-2.856408 -0.634581,-3.960431 -0.380458,-0.696647 -1.588037,-2.282383 -1.396978,-0.536787 0.457662,2.024519 -0.0077,4.148571 0.416335,6.153361 0.713476,1.35104 2.507897,1.463261 3.201674,2.563599 -0.534523,1.575535 0.645028,4.193189 -1.146168,5.003268 -0.570571,1.218472 -1.290536,2.478212 -2.827079,2.431692 -2.325033,0.0455 -4.667138,0.0486 -6.979792,0.2708 -4.906382,-0.0633 -10.852257,0.11136 -15.425823,-0.46613 z m -2.584175,-4.321498 c 0.155246,-1.251553 -0.219374,-2.749534 -1.6960909,-1.870112 0.144433,1.125015 -0.5891512,3.366848 0.3316212,3.753595 1.3474977,0.943669 1.6489117,-0.60794 1.3739277,-1.737545 l -0.0064,-0.09823 z m 26.04151,2.058312 c -0.530828,-1.056502 0.261362,-3.835251 -1.657816,-3.724187 -0.779726,-0.0489 -2.191246,-0.168417 -1.278636,1.076207 0.230284,1.199077 -0.242548,3.547877 1.840095,2.948959 0.291957,-0.143728 1.283545,0.27918 1.096357,-0.300979 z m -8.319017,-0.343346 c 1.074346,0.08773 2.603626,0.128013 2.176939,-1.325162 0.441841,-1.62727 -1.838486,-0.837889 -2.711198,-0.9234 -2.304004,-0.385301 -4.654178,-0.107966 -6.975651,-0.221692 -2.298811,0.245259 -4.654262,-0.339167 -6.98253,-0.149305 -2.107842,-0.174382 -1.118212,3.125903 0.731953,2.192772 1.887718,-0.109312 3.794217,-0.01804 5.621345,0.207076 1.489735,-0.0047 3.055891,-0.199648 4.546827,0.244418 1.147753,0.201352 2.408268,-0.09979 3.592315,-0.02468 z M 10.921681,93.236253 c 0.935048,-1.067115 -0.900667,-2.260593 -0.90701,-0.617149 -0.178303,0.620446 0.598517,0.668027 0.90701,0.617149 z m 4.399508,-0.380776 c 1.114297,-0.03244 0.90816,-1.574041 -0.0429,-1.04299 -0.700117,-1.265742 -0.852999,2.288431 0.0429,1.04299 z m 17.702396,-0.290523 c 0.09638,-1.618197 -2.421076,0.08441 -0.576966,0.44758 0.315028,0.0047 0.651252,-0.0288 0.576966,-0.44758 z m -6.585711,0.119062 c 1.236333,-0.728636 -1.665364,-1.32538 -0.810507,-0.05589 0.191662,0.29824 0.569201,0.252112 0.810507,0.05589 z m -5.20785,-0.910006 c -0.687349,-1.862168 -2.32956,1.561817 -0.37428,0.678781 0.179824,-0.177168 0.450383,-0.380582 0.37428,-0.678781 z m 11.351181,-1.340268 c 1.992013,0.200938 0.986608,-4.883766 1.158677,-5.89462 -0.09016,-1.914384 -3.030102,-0.774023 -4.327926,-1.234874 0.06647,1.547284 -0.722289,2.984021 -1.019652,4.313233 -0.32455,1.188657 -1.396394,3.113661 0.741605,2.688883 1.157958,-0.226364 2.079848,0.674121 3.447296,0.127378 z m -7.009299,-0.435767 c 1.917482,0.344745 3.113422,-5.857252 2.539502,-6.789692 -2.079159,0.03197 -4.158318,0.06398 -6.237477,0.09597 -1.365404,0.891317 -1.843414,2.546954 -2.391475,3.930564 -0.315094,0.94971 -2.031076,3.05884 0.164525,2.717475 1.918508,-0.05842 3.842389,0.583398 5.731118,0.124369 z m -9.671164,-0.08516 c 1.945075,-0.41446 4.214088,-5.953183 3.883481,-6.221657 -1.401979,0.444712 -3.354099,0.05536 -3.449971,1.978191 -0.744093,1.183074 -1.13304,2.587606 -1.976677,3.746643 -0.803173,0.788293 1.248488,0.993641 1.543167,0.496823 z m 29.177546,-1.370444 c 0.526622,-1.015245 0.321523,-2.479616 -0.213476,-3.1301 -0.548103,0.884858 -0.887808,3.148336 -0.123433,3.63739 0.166104,-0.126684 0.258392,-0.320261 0.336909,-0.50729 z m -5.47315,-3.085276 c 0.876646,-1.279422 1.603402,-2.656942 2.333141,-3.892316 0.492033,-1.543281 -1.791149,-1.476765 -2.653591,-2.211601 -1.183994,0.299533 -1.317047,2.161282 -2.219437,3.00432 -0.142936,1.229608 1.753697,2.74991 2.366813,3.267609 z m 5.726709,-3.492692 c -0.827048,-1.367777 -1.118579,1.5167 0,0 z"/><path style="fill:#000;stroke-width:.154059" id="sonic-center" d="m 81.626982,105.14186 c 0.126673,-0.6147 -0.607925,-0.51836 -0.650008,-1.23295 -0.63981,-0.28943 0.02992,-0.7339 0.45023,-0.78815 3.947525,0.18464 6.507916,-0.38864 9.737641,-0.26852 0.161271,0.82735 0.728991,1.90163 0.296963,1.81988 -0.610521,0.0528 -0.370912,0.27132 -1.005272,0.24936 -0.571789,0.27926 -1.130081,0.63044 -1.789363,0.44356 -1.807099,-0.15331 -5.321067,0.59181 -7.040191,-0.22318 z m -22.633472,0.15916 c -0.455889,-0.3835 -1.192243,0.37128 -1.53512,-0.29568 -0.552992,-0.28025 -0.520717,-0.81606 -0.480867,-1.35518 1.001307,-0.17433 1.99686,-0.54194 3.011909,-0.25476 1.868362,0.14218 3.755413,0.003 5.631049,0.0304 0.7672,-0.0511 1.530798,0.0359 2.295232,0.0908 -0.09609,0.64531 -0.673229,1.1533 -0.954315,1.7458 -2.893022,-0.0679 -4.922695,0.0358 -7.750019,0.17766 -0.07262,-0.0463 -0.145245,-0.0927 -0.217869,-0.13906 z m 7.051527,-2.551 c -0.67374,-0.18087 -1.479208,-0.0537 -2.202169,-0.11957 -2.30577,-0.063 -4.616073,-0.0617 -6.91344,-0.23998 -0.452645,-0.10331 -1.347345,0.26762 -1.189508,-0.49064 4.6e-4,-0.57314 -0.37826,-1.42361 0.356815,-1.68219 0.542216,-0.243568 1.210424,0.075 1.803792,0.0598 2.103291,0.17508 4.226442,-0.0576 6.332999,0.0985 1.02993,-0.1139 2.052163,-0.2329 3.082953,-0.13211 5.626996,-0.18879 8.69339,0.0969 13.901079,-0.10637 4.747882,0.018 7.460673,-0.609274 11.355338,-0.256302 0.710317,0.07096 0.363371,0.779472 0.386743,1.264662 -0.29379,0.23371 -0.768386,0.78384 -1.18043,1.0217 -7.992821,0.50045 -18.08167,0.25645 -25.663492,0.65275 l -0.06555,-0.0655 -0.0051,-0.006 z m -7.011513,-3.200429 c -0.399163,-0.267646 -1.073338,-0.04297 -1.580071,-0.118026 -0.56974,-0.06952 -1.234132,0.185467 -1.699652,-0.241322 0.04413,-0.548254 0.236862,-1.049385 0.465973,-1.530328 0.103249,-1.459938 1.097218,-3.960631 0.667276,-3.925997 -0.397149,-0.837713 -0.756601,-1.77483 -0.84039,-2.733357 0.473921,-0.345192 0.951342,-0.679799 1.568932,-0.591189 0.494005,-0.07369 1.012862,-0.173838 1.575116,-0.209217 0.528679,-0.720886 1.848547,-3.117369 1.94697,-3.6133 0.321177,-0.564966 0.516656,-1.263364 0.914703,-1.746729 0.261484,-0.275234 0.251944,-0.900458 0.565866,-1.279475 0.831837,-2.031348 2.896784,-2.980827 4.519872,-4.297423 1.090534,-0.388962 2.278066,-0.531212 3.412137,-0.784153 2.211559,-0.0953 4.423285,-0.36986 6.63409,-0.12591 1.826942,-0.08799 3.262337,0.497349 4.757974,0.718744 0.778312,0.381806 1.51164,0.914524 2.199439,1.441879 0.676038,0.762664 1.954319,1.610286 2.202267,2.005025 0.466718,0.693879 0.546728,1.604532 0.947243,2.353559 1.622501,1.681846 0.556475,1.962652 1.779517,3.205694 0.373427,0.408696 0.181121,0.976088 0.54158,1.406403 0.131856,0.621818 0.594074,0.848049 1.179738,0.926469 0.494994,0.164741 1.070911,-0.0573 1.385413,0.482841 0.346987,0.380129 0.02439,1.038653 0.102357,1.530642 -0.155517,0.64629 -0.20673,1.325223 -0.516822,1.92314 0.594352,0.198105 0.349624,1.369865 0.470771,2.01239 -0.102148,0.576779 0.491168,0.888026 0.341023,1.487973 -0.01759,0.501445 0.338217,1.351216 -0.488681,1.097788 -1.259113,0.03855 -2.547375,-0.03715 -3.788222,0.07306 -9.653126,1.071878 -19.203628,0.596319 -29.19294,0.646461 l -0.04874,-0.07886 z m -0.397777,-1.797346 c 0.454685,-0.364745 1.374842,-0.225373 1.387377,-0.959127 0.815303,-2.336464 -1.570075,-1.423114 -1.96719,-2.385223 -0.170931,-0.623035 -0.626214,0.112937 -0.441046,0.551125 -0.0089,0.998668 -0.372007,1.951437 -0.518221,2.934402 0.503507,-0.05905 1.094459,0.138289 1.53908,-0.141177 z m 32.641894,-0.915929 c -0.119778,-0.759955 -0.173965,-1.596374 -0.438967,-2.293497 -0.385475,-0.446695 -0.877936,-0.591262 -1.453608,-0.50084 -0.536719,-0.08603 -1.070323,-0.02679 -1.051389,0.631862 0.08353,0.872212 -0.103917,1.867678 0.411555,2.624967 0.816972,0.387233 1.749542,0.164672 2.623366,0.252006 -0.03033,-0.238166 -0.06064,-0.476332 -0.09096,-0.714498 z m -21.205094,0.03931 c 3.230313,-0.0145 6.462882,-0.160561 9.69171,-0.08826 1.844361,0.160707 6.158106,0.465385 6.176377,-0.5586 0.08348,-0.697001 -0.823,-0.663684 -1.307896,-0.704623 -2.515859,-0.221234 -5.050248,-0.08244 -7.574046,-0.149445 -4.56273,0.03401 -9.125117,0.142318 -13.687715,0.205168 -0.506172,0.133893 -1.155923,0.156578 -0.934734,0.853865 0.259624,0.242189 0.1015,0.937914 0.795899,0.691288 2.274422,-0.248297 4.556633,-0.204133 6.840405,-0.249397 z M 60.1136,91.916451 c -0.342839,-0.786465 -0.831808,0.09827 -0.633982,0.512684 0.263122,0.442857 1.001143,-0.232519 0.633982,-0.512684 z m 28.97265,0.183305 c 0.448663,-0.162587 0.359448,-1.134727 -0.217937,-1.179888 -0.487593,-0.383565 -0.94198,0.377311 -0.770844,0.848593 -0.09417,0.451388 0.706305,0.489643 0.988781,0.331295 z M 67.581809,91.672407 c 0.143037,-0.494037 -0.422935,-0.848978 -0.88038,-0.711615 -0.338333,0.326782 0.363481,1.197793 0.741381,1.005068 0.162363,0.01031 0.08667,-0.204214 0.138999,-0.293453 z m 15.184634,0.121811 c 0.366777,-0.697588 0.02948,-0.852954 -0.7846,-1.034554 -0.524795,0.07491 -0.400217,0.977753 -0.268315,1.125237 0.392209,0.08541 0.611872,0.6333 1.025325,-0.01881 z m -7.824437,-0.3055 c 0.336187,-0.63175 -0.445387,-0.81764 -0.913214,-0.622836 -0.613365,0.221281 -0.448742,0.796149 0.117409,1.002692 0.390807,-0.02131 0.807047,0.20033 0.795805,-0.379856 z m -8.27763,-2.414876 c 0.825461,-0.01293 1.650921,-0.02585 2.476382,-0.03878 0.116809,-1.381022 0.418368,-2.757905 0.442945,-4.138433 -0.05463,-0.522592 -0.109242,-1.045186 -0.163864,-1.567779 -1.574487,0.04204 -3.157226,-0.03499 -4.726445,0.08304 -0.364465,0.801937 -0.851937,1.57068 -1.05156,2.413719 -0.53155,0.982249 -0.773684,2.094735 -0.733075,3.209439 0.531937,0.103615 1.040141,0.190961 1.557268,0.07323 0.732783,-0.01148 1.465569,-0.02294 2.198349,-0.03441 z m 19.160719,-0.172061 c 1.260324,-1.213521 -1.183154,-4.698257 -1.910412,-5.781169 l -4.040111,-0.09384 c -0.581479,0.28824 -0.774467,0.730423 -0.534762,1.344059 0.274665,1.354238 0.154801,2.740479 0.207378,4.112726 0.310704,0.46754 0.736413,0.625253 1.278929,0.468296 1.798515,0.157085 4.317938,-0.111999 4.998978,-0.05007 z m -12.440277,-0.0012 c 1.664945,0.05972 3.331812,0.0255 4.997598,0.05468 0.551473,-0.701548 0.173069,-1.611066 0.216379,-2.426262 -0.0053,-0.921564 -0.140362,-1.827734 -0.334789,-2.726869 0.259844,-0.436534 -0.854307,-0.334445 -1.155208,-0.551154 -2.00752,0.0052 -4.026291,0.223504 -6.0313,0.126691 -0.60613,-0.167427 -0.305491,0.879751 -0.500502,1.263007 -0.163467,1.335285 -0.220453,2.682897 -0.379506,4.01972 0.270504,0.632759 0.951857,0.270249 1.478715,0.281999 0.570372,-0.08234 1.134812,-0.07671 1.708613,-0.04181 z"/><path id="sonic-right" style="fill:#000;stroke-width:.151677" d="m 114.39572,105.6326 c -0.71419,-0.0568 -1.49623,0.0576 -2.16866,-0.1046 -0.3247,-0.44983 -0.8362,-0.4232 -1.14636,-0.87099 -0.45141,-0.78776 -1.4562,-0.41755 -2.10897,-0.887 -0.5788,-0.2407 -0.94629,-0.77901 -1.41813,-1.17036 0.16974,-0.48003 -0.0606,-0.74067 -0.10766,-1.21599 -0.88354,-2.610737 -0.2922,-6.074274 -0.18575,-7.957033 0.14973,-0.776105 -0.0487,-1.69681 0.62857,-2.253824 1.07237,0.08757 1.06918,1.678418 1.48917,2.323356 0.44405,1.140862 0.14528,2.397536 0.22977,3.594453 0.001,1.479119 0.0532,3.001688 -0.32096,4.433508 -0.34367,0.48345 -0.45015,0.86209 0.23465,1.02216 0.4369,0.14704 -0.054,-0.95931 0.33901,-1.24398 0.22849,-0.48476 0.33331,-1.16148 1.0186,-0.93723 0.52278,0.84984 1.32754,1.52179 1.97403,2.29161 8.10611,0.27816 16.24778,-0.33691 23.88666,-0.62292 1.11432,-0.0771 2.23688,-0.13537 3.3103,-0.43777 0.6167,0.0743 1.30596,-0.0142 1.87745,0.16164 0.19984,0.73651 0.14807,1.58926 0.25077,2.37064 -2.57788,1.12197 -6.66294,0.51487 -10.38111,1.18545 -8.76634,0.20362 -10.83544,0.65892 -17.40138,0.31888 z m -5.67701,-9.21115 c -0.0742,-0.487804 0.0688,-1.291454 -0.40607,-1.516765 -0.10217,0.368736 -0.4072,0.90787 -0.39487,1.406486 0.28984,1.043253 -0.0182,3.604113 0.50367,3.149914 0.14831,-1.014567 0.47383,-2.006672 0.29729,-3.039635 z m 10.92005,5.18947 c -2.09062,-0.0129 -4.18277,0.0323 -6.27448,-0.02 -0.97065,-0.95655 -1.94129,-1.913093 -2.91194,-2.869639 0.0568,-1.382202 -0.23665,-2.731459 -0.24469,-4.111958 -0.48604,-0.467814 -0.009,-1.285739 -0.30628,-1.874873 -0.23262,-0.729842 -0.23219,-1.696265 -0.97589,-2.087835 -0.4446,-0.195209 -1.43414,0.14784 -1.36141,-0.558327 -0.14443,-0.99032 -0.19111,-1.995402 -0.37277,-2.978825 -0.60555,-0.23015 -0.5472,-1.059705 -0.93088,-1.15382 0.13697,-0.60711 -0.71792,-0.499825 -0.14833,0.0078 0.20978,0.423152 -0.0744,1.368928 0.40347,1.418225 0.48747,0.03855 0.0773,1.01822 0.1914,1.448259 -0.12325,1.000116 0.33404,1.998057 0.23562,2.973336 -0.163,0.681109 -0.59134,1.340354 -0.59658,2.028675 0.0482,0.42745 -0.96437,-0.363256 -0.81376,-0.809693 -0.15147,-0.738608 -0.33432,-1.462425 -0.88389,-2.013281 -0.42634,-0.467097 -0.69914,-0.995751 -0.68313,-1.6402 -0.29697,-1.46428 -0.10739,-2.974613 -0.22441,-4.442178 -0.37429,-0.886254 -0.84857,-1.798234 -0.61344,-2.785327 0.0958,-0.546806 -0.12893,-1.25838 0.49948,-1.531464 -0.11938,-0.581677 0.52095,-0.886252 0.78535,-1.327947 0.57274,0.108077 0.51676,-0.609038 1.19,-0.681825 0.78311,-0.180814 1.66111,-0.09559 2.42181,-0.315782 0.37362,-0.444255 0.95067,0.08161 1.46753,-0.202881 2.84037,-0.502985 5.73637,-0.375741 8.60635,-0.372103 0.65825,0.13899 1.45797,-0.113579 2.00056,0.345552 1.65979,-0.02036 3.227,0.612362 4.83899,0.929137 0.52658,0.266366 1.07632,0.525934 1.60911,0.707983 0.9173,0.394872 2.96465,2.016639 3.33481,2.145144 1.35901,0.958238 2.67028,2.030632 3.73588,3.30203 0.91684,1.988628 2.18498,2.4562 2.67182,4.246661 0.21558,0.470104 -0.009,1.318074 0.63121,1.423652 0.99193,0.298282 2.08059,0.07691 3.11271,0.15715 0.60548,0.0046 1.21095,0.0087 1.81643,0.01296 0.16113,0.886365 -0.18362,1.697708 -0.60814,2.454254 -0.12534,0.523753 -0.8643,1.012812 -0.4238,1.525937 0.2289,0.644798 0.065,1.401504 0.10215,2.087692 -0.0245,0.569362 -0.40926,1.266752 0.25992,1.589547 0.39032,0.68113 0.1233,0.07235 0.67021,0.988242 0.44644,0.384602 0.57855,0.988742 -0.19792,1.114962 -1.6569,0.0227 -3.31938,-0.017 -4.94483,0.35745 -0.60189,-0.2138 -1.06028,0.10008 -1.63526,0.11439 -5.61286,0.7388 -10.12045,0.0233 -15.43298,0.39892 z m -3.79249,-2.862892 c -0.0336,-0.792644 0.12962,-1.567522 0.25218,-2.346069 -0.78838,0.128423 -0.56946,-0.914056 -1.28651,-0.708557 -0.4458,0.127403 -1.38515,-0.334174 -1.33871,0.380637 -0.10846,0.886189 -0.50476,1.782462 -0.12597,2.65158 0.0689,0.57043 0.19338,0.917583 0.60266,0.845378 0.52708,0.03405 1.14847,0.268369 1.56685,0.236146 0.52163,-0.125396 0.2491,-0.66613 0.3295,-1.059115 z m 7.8778,0.099 c 1.7765,-0.375157 3.69815,-0.276658 5.5362,-0.370003 1.28043,-0.06046 2.65706,0.01284 3.85419,-0.262688 1.12516,-0.04248 2.25115,-0.06513 3.3756,-0.124387 -0.0868,-0.547527 -0.16848,-0.994715 -0.29724,-1.393307 -0.38315,-0.482776 -0.55198,-0.952544 -1.26388,-0.69904 -2.48198,0.18157 -4.96503,0.322875 -7.45448,0.28035 -2.12132,0.05675 -4.24347,0.124427 -6.35711,0.285893 -0.71347,-0.0493 -1.66175,0.02408 -1.92071,0.81691 -0.44393,1.874032 3.19571,1.654925 4.52743,1.466268 z m 16.57843,-0.554222 c -0.34634,-1.313489 -0.17857,-1.812649 -0.29264,-3.394 -0.26227,0.267211 -0.97497,-0.46336 -1.17616,-0.07747 -1.20816,2.256449 -0.0832,2.666501 0.34939,3.853753 0.38633,-0.145289 1.25533,0.523054 1.11941,-0.382271 z m -22.74712,-4.430723 c 0.3805,-0.263433 0.21061,-1.318065 -0.45006,-1.005039 -0.55593,-0.172616 -0.63897,1.026359 -0.0935,1.108531 0.181,0.06272 0.39759,0.03531 0.54357,-0.103492 z m 22.06251,-0.736802 c 0.57786,-1.261143 -2.05737,-0.726429 -1.47475,0.146126 0.39751,0.282155 1.09465,0.576946 1.38531,0.05016 0.0298,-0.06544 0.0596,-0.130871 0.0894,-0.196309 z m -15.81798,-0.03176 c 0.3418,-0.694936 -0.93618,-0.778902 -0.83737,-0.263817 -0.0119,0.520784 0.47744,0.979763 0.83737,0.613246 z m 10.92073,-0.211466 c 0.11786,-0.682766 -0.65238,-0.790397 -1.16367,-0.707548 -0.85776,1.475854 1.20988,1.478938 1.16367,0.707548 z m -5.25334,-0.869571 c -0.66163,-0.0046 -1.2991,0.01026 -0.95442,0.829184 0.319,1.00903 1.62492,-0.256768 0.95442,-0.829184 z m -16.4244,-1.013468 c 0.0118,-1.71867 0.0164,-3.448552 0.46777,-5.119204 -0.28407,-0.349677 -0.20206,-0.992738 -0.08,-1.118613 -0.74279,0.245782 -2.662,3.578628 -2.51377,3.773068 0.36659,0.883738 1.45274,3.773098 2.1124,3.640243 0.007,-0.388807 0.009,-0.78424 0.0136,-1.175494 z m 7.91307,0.183984 c 0.61062,0.04323 1.21895,-0.177185 0.64898,-0.810019 -0.27289,-2.124707 -1.25664,-3.895606 -1.63507,-5.706473 -1.19116,-0.457639 -3.00792,-0.297419 -4.10059,0.182944 -0.41225,0.495436 -0.0359,1.219565 -0.10162,1.815497 0.0964,1.425808 0.16802,2.852902 0.22088,4.280966 0.59527,0.660763 1.62136,0.329009 2.41449,0.387051 0.85391,-0.02568 1.70819,-1.2e-4 2.55293,-0.149966 z m 4.20871,-0.312682 c 0.9427,-0.06962 1.94335,0.159305 2.80634,-0.321023 0.81222,0.07889 1.70293,-0.02144 2.46809,0.164877 0.48738,0.645858 0.56838,-0.13227 0.48961,-0.577159 -0.24614,-0.711248 -0.47836,-1.422884 -0.96429,-2.002283 -0.68433,-1.254316 -1.14299,-2.641497 -2.15062,-3.692961 -1.96647,-0.136654 -3.93444,-0.514158 -5.90476,-0.221389 -0.64465,-0.06028 -1.31806,0.105344 -0.82197,0.847135 0.2339,0.690723 0.45544,1.378126 0.50597,2.100733 0.24516,1.011492 0.49031,2.022982 0.73547,3.034473 1.02712,1.273644 0.4944,0.712575 2.83616,0.667565 z m 10.07025,-0.428035 c 0.24845,-0.890907 -0.66913,-1.557218 -1.04969,-2.28816 -0.27671,-1.046582 -1.09722,-1.576585 -1.35688,-2.667544 -0.46564,-0.400611 -0.86567,-0.9414 -1.54682,-0.881622 -0.66626,-0.09011 -1.32853,-0.202932 -1.98535,-0.346799 -0.38288,0.462225 0.36722,0.916429 0.42944,1.420199 0.50862,0.937164 0.89351,1.946316 1.42512,2.770023 0.24762,0.584773 0.49523,1.169546 0.74285,1.754318 0.57868,-0.03898 0.32109,0.633643 1.17919,0.42127 0.70033,0.03692 1.35635,0.247428 2.06999,0.185481 0.0307,-0.122387 0.0614,-0.244779 0.0922,-0.367166 z m -29.75961,-0.847018 c -0.0506,-0.906348 -0.0672,-1.862464 -0.26809,-2.729308 -0.26927,-0.710906 -1.05375,-0.714734 -0.79922,0.150678 0.0375,0.805826 0.0551,1.615852 0.42512,2.351856 0.17218,0.404149 -0.10211,1.440712 0.6158,1.07185 0.13552,-0.156846 -0.005,-0.599866 0.0264,-0.845076 z m 5.48682,-3.525745 c 0.72657,-0.636943 1.25264,-1.442762 1.80751,-2.224321 -0.53114,-1.19088 -1.25681,-1.572402 -1.93164,-2.602148 -0.31977,-0.672843 -0.86325,-0.600633 -1.42129,-0.242695 -0.69416,0.368128 -1.49793,0.477255 -1.97309,1.138664 0.74824,1.304125 1.37863,2.667288 2.14834,3.962664 0.20259,0.538954 0.57659,1.104409 0.99095,0.351638 0.12641,-0.127934 0.25281,-0.255868 0.37922,-0.383802 z m -6.22008,-2.50434 c 0.11145,-0.602811 -0.74837,-0.79814 -0.50846,0.03065 -0.0264,0.128036 0.49402,0.15462 0.50846,-0.03065 z"/><path style="fill:#000;stroke-width:.119023" id="car-41" d="m 48.318715,74.411102 c -0.910641,-0.120964 -1.900406,-0.04359 -2.841525,-0.08817 -3.668614,-0.08278 -7.341532,-0.04606 -11.007066,-0.219803 -1.808813,-0.10517 -3.616886,-0.282205 -5.424467,-0.363435 -0.760303,0.0088 -1.508911,-0.19697 -2.264469,-0.275261 -0.414024,-0.513764 -0.37315,-1.247072 -0.592078,-1.854993 -0.180246,-0.635726 0.583602,-0.276198 0.953469,-0.332004 3.010108,0.170181 6.019024,0.35859 9.031661,0.474878 2.692148,0.146688 5.389627,0.228205 8.084771,0.273607 1.480335,-0.0617 2.973798,0.02637 4.445218,-0.137056 0.606648,0.03743 0.853903,-0.607411 1.264459,-0.942245 0.518417,-0.550145 1.055407,-1.082368 1.582567,-1.624077 -0.05253,-1.324149 -0.0994,-2.648531 -0.159121,-3.972384 -0.258547,1.043647 -0.255519,2.119782 -0.330575,3.186217 -0.626524,0.81459 -1.160045,1.748132 -1.961651,2.395311 -0.379667,0.25072 -0.734151,0.58605 -1.223975,0.466664 -3.620302,-0.01143 -7.24048,-0.02915 -10.857841,-0.1903 -2.960902,-0.09025 -5.922899,-0.178731 -8.871269,-0.481938 -0.670604,-0.0098 -1.310515,-0.165035 -1.957713,-0.322022 -0.0079,-0.615894 0.770006,-0.978686 0.683604,-1.636129 0.128329,-0.999228 0.221754,-2.024238 0.131397,-3.02125 -0.342813,-0.722471 -0.685628,-1.444943 -1.028441,-2.167413 0.058,-0.513149 0.69149,-0.381151 1.070236,-0.432672 0.961324,-0.05853 1.946341,-0.02959 2.893233,-0.141397 0.67194,-0.190367 0.597571,-1.041106 1.092405,-1.443175 0.38763,-0.292019 0.189355,-0.790214 0.545159,-1.11875 0.634207,-0.97685 1.140809,-2.073729 2.088362,-2.794094 1.426694,-1.340123 3.040222,-2.491168 4.737798,-3.447922 0.90554,-0.208093 1.841429,-0.29268 2.74538,-0.47411 0.637917,-0.270124 1.205704,-0.826906 1.941762,-0.695876 1.484106,0.005 2.94726,-0.410216 4.437983,-0.261231 1.949683,-0.01393 3.879334,0.298203 5.809581,0.525989 0.486946,0.108139 0.970482,0.222652 1.295066,0.634199 0.481241,0.200038 0.248561,0.703942 0.612336,0.999515 0.461854,0.476666 0.217788,1.205934 0.326871,1.808835 0.178612,0.591266 -0.334902,0.680123 -0.398174,0.08322 -0.0562,-0.433774 -0.807085,-0.212273 -0.790429,0.171791 -0.209658,0.552288 -0.218977,1.120871 -0.251422,1.699153 -0.168916,0.387472 0.196735,1.001294 0.284797,0.2985 0.206601,-0.321699 -0.03323,-0.88235 0.317692,-1.080039 0.440745,-0.07823 0.515789,0.555297 0.512534,0.884764 0.04249,0.756445 0.08497,1.512892 0.127467,2.269338 -0.379261,-0.343658 -0.123273,-0.963527 -0.337973,-1.410319 -0.25806,-0.591465 -0.358643,0.322611 -0.365596,0.610361 -0.127892,0.56682 0.01561,1.137507 0.05009,1.706641 0.370928,0.724072 0.308583,-0.485991 0.578756,-0.178699 -0.06092,0.589979 0.06672,1.232167 -0.325371,1.730445 -0.49305,-0.338604 -0.764284,-0.129087 -0.744821,0.435862 -0.01483,0.468049 -0.566686,0.878335 -0.286538,1.336275 -0.27235,0.7359 -0.336789,1.56726 -0.825832,2.203669 -0.100438,1.524729 -0.06823,3.06501 -0.431262,4.558948 -0.05873,0.275117 -0.269913,1.138058 -0.549836,0.809908 0.07401,-0.549735 -0.300251,-1.007443 -0.467632,-1.507622 -0.487166,-0.07931 -0.197684,0.700164 -0.456506,0.939425 -0.278821,0.31612 -0.587424,0.696286 -0.676087,1.08532 -0.460316,0.336159 -0.756737,1.016118 -1.396076,0.976745 -0.257779,-0.0042 -0.599651,0.149573 -0.820902,0.04881 z m 4.158698,-3.98103 c 0.2481,-1.045356 0.0218,-2.134574 0.05244,-3.200035 0.01999,-0.535433 -0.100705,-1.057164 -0.186166,-1.582328 -0.425046,0.0018 -0.278754,0.721516 -0.415689,1.037317 -0.179784,1.35354 -0.05834,2.725104 0.07428,4.079507 0.322913,0.594721 0.419604,0.03449 0.475132,-0.334461 z m -23.20334,-0.481848 c 0.153691,-0.613976 0.0107,-1.310319 0.04632,-1.957084 -0.04624,-0.354219 0.151794,-0.946136 -0.314826,-1.043854 -0.368454,0.128403 -1.124686,-0.185014 -1.129743,0.357429 -0.252973,0.876392 -0.204182,1.782056 -0.199324,2.683459 0.500746,0.175924 1.011905,0.167855 1.528035,0.07181 0.04923,0.0096 0.02541,-0.112178 0.06954,-0.111761 z m 19.072776,-0.20945 c 0.564937,0.102275 0.617635,-0.519307 0.417084,-0.900708 -0.210585,-0.613193 -0.324686,-1.290861 -0.595639,-1.863712 -0.308653,-0.384532 -0.726987,-0.433454 -1.188624,-0.349879 -0.474665,-0.05382 -0.925235,0.03436 -0.736266,0.611023 0.116096,0.755242 0.08227,1.571305 0.369982,2.27532 0.275762,0.479734 0.84371,0.251444 1.297376,0.300077 0.145359,-0.02404 0.29075,-0.04806 0.436087,-0.07212 z m -4.067436,-0.756566 c 0.19208,-0.371258 -0.04863,-0.840866 -0.03026,-1.2516 -0.08927,-0.549955 -0.59989,-0.416453 -1.022865,-0.42511 -3.903393,-0.01344 -7.803871,-0.201921 -11.705174,-0.278456 -0.363361,0.09348 -0.987491,-0.180006 -1.162816,0.195693 0.03783,0.401681 -0.133856,0.885842 0.03167,1.237253 0.471666,0.190525 1.074208,0.09199 1.595962,0.171895 3.669504,0.217474 7.342929,0.388638 11.018447,0.4609 0.283756,0.315917 0.79593,-0.0093 1.176978,0.03357 0.04323,-0.02576 0.06249,-0.104337 0.09804,-0.144149 z M 29.095433,65.81351 c 0.469084,-0.174537 0.04426,-0.710985 -0.253395,-0.885676 -0.493436,0.03966 -0.564795,0.546924 -0.373236,0.921566 0.141495,0.07488 0.456867,0.051 0.626631,-0.03589 z m 16.571924,-0.64802 c 0.282349,-0.322124 -0.0082,-0.87169 -0.461154,-0.851496 -0.413512,0.193715 -0.400172,0.739703 -0.133521,0.976647 0.203428,-0.03133 0.469664,0.09149 0.594675,-0.125151 z M 32.854383,64.339848 c -0.06747,-0.392519 -0.689218,-0.469318 -0.903031,-0.226231 -0.26019,0.382919 0.316391,0.901062 0.5794,0.713548 0.09187,-0.162449 0.329847,-0.293499 0.323631,-0.487317 z m 3.92775,0.08257 c 0.0971,-0.331008 -0.531371,-0.773236 -0.725537,-0.371191 -0.460552,0.242521 -0.156212,0.683934 0.210274,0.817815 0.172021,0.08688 0.656563,-0.17933 0.515263,-0.446624 z m 4.260807,0.203188 c 0.180417,-0.487173 -0.587031,-0.633022 -0.805722,-0.313099 -0.252333,0.37999 0.155002,0.762653 0.544778,0.587904 0.258478,0.01053 0.241315,-0.03998 0.260944,-0.274805 z m 12.141516,0.180019 c -0.511538,-0.539018 -0.297893,0.625241 0,0 z m -1.45951,-1.12037 c 0.150814,-0.604346 0.479239,-0.444592 0.852186,-0.343301 0.121554,-0.363156 -0.100615,-0.864202 -0.585714,-0.669812 -0.450681,0.325564 -0.742687,0.970201 -0.688513,1.547295 0.225329,0.01345 0.280297,-0.390679 0.422041,-0.534182 z m -2.265785,-0.539218 c 0.362052,-0.654923 0.630966,-1.351549 0.8989,-2.048614 -0.582215,-0.835166 -1.285549,-1.571415 -1.935682,-2.352258 -0.396369,0.220725 -0.07373,0.828969 -0.157636,1.218103 0.05513,1.091356 0.01522,2.210115 0.129327,3.284461 0.189205,0.215137 0.40201,1.044952 0.71048,0.602468 0.118204,-0.23472 0.236407,-0.46944 0.354611,-0.70416 z m 3.31309,0.532665 c -0.329469,-0.538155 0.0399,0.551211 0.01785,0.04652 z m -6.37889,-0.768514 c 0.159776,-0.984784 0.351585,-1.96408 0.384184,-2.966052 0.05794,-0.505429 0.04261,-1.013146 0.0025,-1.519133 -0.648522,-0.265677 -1.328264,-0.318341 -2.021977,-0.275725 -0.506608,0 -1.013217,0 -1.519825,0 -0.468128,1.368476 -0.888634,2.756373 -1.331171,4.131561 -0.16554,0.385055 -0.128732,0.922118 0.411103,0.866058 0.926289,0.02123 1.863813,-0.03362 2.768056,0.174698 0.425745,-0.03795 0.851489,-0.0759 1.277233,-0.113848 0.01,-0.09918 0.01993,-0.198373 0.02991,-0.297559 z m -5.414168,-0.146363 c 0.38687,-0.364204 0.271197,-0.972879 0.547165,-1.415281 0.20257,-0.586956 0.514723,-1.167025 0.533521,-1.779133 0.355322,-0.408384 0.408703,-0.956899 0.573923,-1.453509 -0.479183,-0.382945 -1.144341,-0.137667 -1.713734,-0.215884 -1.161387,-0.0057 -2.322255,-0.042 -3.48331,-0.06718 -0.664311,0.224212 -0.746136,0.977067 -1.072344,1.511943 -0.581226,1.089165 -1.077864,2.220818 -1.617669,3.330672 0.203926,0.456935 0.839618,0.150292 1.246681,0.247982 1.374673,-0.04264 2.746103,0.169389 4.116319,0.14225 0.319696,-0.0586 0.701255,0.05302 0.869448,-0.301856 z m -6.728909,-0.687406 c 0.295199,-0.647264 0.777582,-1.209457 1.054452,-1.851326 0.219941,-0.717303 0.688158,-1.353168 0.797993,-2.111369 -0.722206,0.08219 -1.476353,0.07044 -2.179235,0.209473 -0.435777,0.09498 -0.481743,0.594437 -0.709299,0.778262 -0.32961,0.176796 -0.435104,0.731192 -0.676668,1.05633 -0.463273,0.843637 -0.91341,1.694378 -1.369539,2.54188 0.327732,0.388005 0.928251,0.152841 1.384978,0.246158 0.428904,0.02344 0.949227,0.05361 1.306798,-0.160696 0.130173,-0.236238 0.260347,-0.472475 0.39052,-0.708712 z m 19.076008,0.410164 c -0.143376,-0.831751 -0.273418,0.804816 0,0 z m 0.965003,-0.565521 c 0.315513,-0.633924 -0.641175,-0.440243 -0.36989,0.127332 -0.124348,0.518391 0.419041,0.195467 0.36989,-0.127332 z m -2.653171,-0.121014 c 0.240282,-0.519389 -0.653209,-0.403057 -0.577371,0.06911 0.180689,0.377021 0.613042,0.466461 0.577371,-0.06911 z m 1.883172,0.217468 c 0.276149,-0.591523 -0.470771,-0.627814 -0.389171,-0.08365 0.0083,0.269756 0.340383,0.416581 0.389171,0.08365 z M 52.931539,61.51167 c 0.132055,-0.376751 0.495508,-0.623288 0.475292,-1.065795 0.06093,-0.384731 0.298381,-0.991721 -0.06451,-1.225393 -0.295928,0.197144 -0.364064,0.746723 -0.572828,1.078724 -0.171151,0.388115 -0.378863,0.843417 -0.368842,1.248383 0.05763,0.248577 0.547235,0.270222 0.53089,-0.03592 z M 50.95143,59.747112 c 0.131977,-0.695057 0.622306,-1.261242 0.847796,-1.931421 0.209257,-0.592996 0.645135,-1.136895 0.693907,-1.76466 -0.65402,-0.329384 -1.305235,-0.788425 -1.987467,-0.986011 -0.577427,0.113403 -0.774626,0.778096 -1.130453,1.187115 -0.30324,0.451143 -0.60648,0.902284 -0.909721,1.353427 0.453169,0.940857 1.390619,1.525112 1.923556,2.420539 0.176027,0.32983 0.633303,0.07093 0.562382,-0.278989 z m 3.325222,0.03873 c 0.06745,-0.7201 -0.508084,0.649639 0.0013,0.194356 -4.5e-4,-0.06477 -8.1e-4,-0.12966 -0.0013,-0.194356 z M 54.16246,55.822126 c 0.230031,-0.255277 0.359143,-0.906315 -0.122031,-0.51534 0.220544,0.433528 -0.594154,0.773931 -0.182112,1.057155 0.144493,-0.09404 0.197822,-0.38214 0.304143,-0.541815 z"/><path style="fill:#000;stroke-width:.134291" id="car-42" d="m 62.894619,74.925054 c -1.046645,-0.05008 -2.126134,0.007 -3.152416,-0.109615 -0.452683,-0.2104 -0.394029,-0.827208 -0.539316,-1.243255 -0.195943,-0.638992 0.531222,-0.327026 0.90962,-0.374347 2.517319,0.093 5.04402,0.140673 7.554485,0.289079 0.457103,0.04744 0.310489,0.826961 0.06597,1.068482 -0.26964,0.561034 -0.963111,0.30586 -1.465714,0.41826 -1.121956,0.034 -2.24959,-0.0398 -3.372631,-0.04859 z m 17.372756,-0.108113 c -0.519546,0.0499 -0.926199,-0.04129 -0.924992,-0.641716 -0.260597,-0.441289 -0.150963,-0.928468 0.450041,-0.792082 2.334739,-0.09905 4.660234,-0.308364 6.980518,-0.582726 0.349033,0.063 1.074252,-0.33243 1.136478,0.131026 0.126556,0.503784 -0.223151,0.986684 -0.304533,1.481357 -0.590984,0.467471 -1.360956,0.246818 -2.056016,0.314172 -1.634531,0.02961 -3.276699,0.04692 -4.904261,0.109826 -0.125745,-0.007 -0.25149,-0.01327 -0.377235,-0.01986 z m -9.123493,-1.95612 c -0.661592,-0.133768 -1.41272,-0.04077 -2.107832,-0.08967 -3.21811,-0.07433 -6.439284,-0.07398 -9.65342,-0.239279 -0.431199,-0.06458 -1.095331,0.189735 -1.107897,-0.44809 -0.113051,-0.32808 -0.373951,-1.154585 0.08016,-1.171894 0.724938,-0.0044 1.481003,-0.129612 2.187052,-0.06141 0.456841,0.276937 1.055577,0.05157 1.571104,0.120712 5.180492,-0.04033 10.36234,-0.0053 15.541953,-0.09457 3.604693,-0.123224 7.210909,-0.192713 10.81641,-0.287462 0.530563,0.21431 0.341671,0.687624 0.246062,1.127349 -0.07319,0.561701 -0.528275,0.577701 -0.997935,0.521619 -1.514338,0.0116 -3.008349,0.365079 -4.528239,0.319945 -3.769678,0.137071 -7.547472,0.111293 -11.314613,0.238128 -0.226681,-0.0026 -0.543741,0.177962 -0.732806,0.06467 z m -7.295468,-2.600956 c -1.342937,-0.09058 -2.753692,-0.01784 -4.122681,-0.04569 -0.504376,0.03813 -0.995753,-0.07038 -1.488845,-0.159607 0.183262,-1.030948 0.794749,-1.94346 0.7904,-3.01181 0.03563,-0.767586 0.374826,-1.565246 -0.01952,-2.28819 -0.189914,-0.536723 -0.369429,-1.076442 -0.479555,-1.636035 0.80613,-0.171469 1.654191,-0.149196 2.450759,-0.298559 0.485804,-0.15793 0.608021,-0.572351 0.657157,-1.038328 0.465656,-0.20765 0.358498,-0.68121 0.625986,-1.049759 0.735958,-1.420118 1.423834,-2.876267 2.199218,-4.269051 1.035836,-0.949818 1.925739,-2.109315 3.160858,-2.802456 0.873625,-0.422179 1.840752,-0.411855 2.786404,-0.500867 0.367769,-0.335926 0.816289,-0.432265 1.303359,-0.414245 1.588783,-0.07249 3.182049,-0.02337 4.772638,-0.04683 0.933115,0.5167 2.043464,0.450918 3.064613,0.678293 0.499094,0.116995 0.93099,0.444434 1.403941,0.643298 0.123341,0.68548 0.77569,1.074527 1.250195,1.524487 0.53691,0.435104 0.942741,1.029331 1.337668,1.58816 0.60923,1.215385 1.144217,2.491139 1.799176,3.669341 0.445592,0.554621 0.678081,1.286649 1.041809,1.909423 0.576924,0.169729 1.227519,0.113911 1.778327,0.292734 0.418482,0.289518 -0.01629,0.835616 -0.0063,1.24799 -0.153429,0.661072 -0.316971,1.321907 -0.113457,1.991774 0.06785,0.442782 0.13285,0.886004 0.199458,1.32898 -0.479102,-0.195569 -0.360291,-0.837004 -0.555905,-1.243966 -0.06384,-0.577359 -0.613093,-0.588192 -1.073805,-0.537189 -0.432745,-0.01485 -0.877332,-0.06589 -1.18425,0.304543 -0.09324,0.740691 0.03229,1.588248 0.02301,2.369952 0.0096,0.436773 0.755258,0.242136 1.080733,0.407955 0.51478,-0.05149 1.02956,-0.102955 1.544341,-0.154433 0.01188,-0.400917 -0.117036,-1.141757 0.322245,-0.510839 0.08673,0.467085 0.312065,0.973487 0.318001,1.417702 -1.543724,0.217683 -3.142421,0.373934 -4.718759,0.394924 -6.701127,0.206271 -13.405498,0.251941 -20.109399,0.275645 z m -2.162409,-2.6838 c -0.05078,-0.469536 0.103231,-1.023945 -0.07991,-1.438639 -0.472166,-0.207684 -1.086024,-0.107093 -1.612124,-0.197431 -0.618857,0.03954 -0.349105,0.778041 -0.655256,1.127902 -0.211035,0.377221 -0.100351,0.884756 -0.222315,1.310898 -0.26954,0.631577 0.116334,0.715563 0.673859,0.656143 0.637364,0.04569 1.273477,0.07328 1.895745,-0.100134 -10e-7,-0.452913 -2e-6,-0.905826 -3e-6,-1.358739 z m 21.154567,0.564944 c 0.538964,-0.06915 0.127356,-0.787925 0.208723,-1.169803 -0.09899,-0.387527 -0.861727,-0.06519 -1.22629,-0.168666 -5.989807,0.02794 -11.980171,0.007 -17.969618,0.06774 -0.05745,0.371062 -0.35466,0.935399 -0.04185,1.229864 0.309273,0.393124 0.898159,0.107805 1.334915,0.191615 5.805184,-0.02074 11.610368,-0.04138 17.415553,-0.06212 0.09282,-0.02952 0.186071,-0.05878 0.278563,-0.08862 z M 62.214124,64.459218 c 0.38991,-0.24427 0.208052,-0.821172 -0.199433,-0.935619 -0.373925,-0.07846 -1.049223,0.103025 -0.932847,0.607837 0.108463,0.484104 0.588177,0.817008 1.000184,0.473745 0.04403,-0.04868 0.08806,-0.09731 0.132096,-0.145963 z m 5.544078,-0.09347 c 0.452246,0.0018 0.544898,-0.637736 0.273478,-0.918442 -0.145107,-0.365984 -0.85917,-0.281559 -1.068047,0.0079 -0.33979,0.338817 0.08179,0.742062 0.337054,0.993765 0.159818,0.01415 0.305846,-0.04621 0.457515,-0.08347 z m 18.170316,-0.18818 c 0.500677,-0.221953 0.06625,-0.888122 -0.344424,-0.883219 -0.425959,-0.234324 -0.872981,0.262018 -0.732977,0.692061 0.01554,0.394749 0.542817,0.60123 0.859446,0.409114 0.07265,-0.07266 0.145304,-0.145304 0.217955,-0.217956 z m -11.894106,-0.01845 c 0.529941,-0.06713 0.412651,-0.748019 0.02361,-0.949149 -0.290855,-0.266903 -1.063656,-0.01212 -1.024468,0.402261 -0.07023,0.380638 0.422953,0.876208 0.797042,0.639757 0.06794,-0.03093 0.135879,-0.06194 0.203819,-0.09287 z m 6.604181,-0.322229 c 0.479111,-0.348147 -0.149453,-0.875232 -0.565899,-0.764115 -0.451006,-0.128698 -0.861895,0.448951 -0.574871,0.827059 0.174633,0.340495 0.858789,0.433759 1.040389,0.09021 0.03343,-0.05096 0.06699,-0.102357 0.100381,-0.15315 z m -1.897694,-1.053334 c 1.387399,-0.03427 2.777217,-0.01239 4.163005,-0.08417 -0.547834,-0.435797 -1.307637,-0.16531 -1.958015,-0.259426 -3.94946,-0.07011 -7.900939,-0.04815 -11.850494,-0.0326 -1.734461,0.06774 -3.468922,0.135525 -5.203382,0.203283 -0.443642,0.496966 0.460116,0.11747 0.737442,0.145462 0.546282,-0.108798 1.057942,0.272386 1.619115,0.144496 4.16418,-0.034 8.328596,-0.04226 12.492329,-0.117022 z m -15.340135,-0.03383 c -0.523359,-0.118207 -0.806007,0.155725 -0.08567,0.06388 0.365157,0.05693 0.155204,-0.03673 0.08567,-0.06388 z m 21.517497,-0.04621 c 0.172533,-0.36507 -0.914722,-0.0282 -0.201435,0.134286 0.121693,0.03778 0.15122,-0.0449 0.201435,-0.134286 z M 69.251884,61.562049 c 0.304548,-0.430394 0.228027,-1.051428 0.376999,-1.559649 0.206976,-1.065135 0.335893,-2.142517 0.486152,-3.216552 -0.324685,-0.260911 -0.848392,-0.05816 -1.249895,-0.140155 -0.987126,-0.04692 -1.974163,-0.0188 -2.961193,0.01485 -0.423796,0.360782 -0.764807,0.775414 -0.893081,1.328435 -0.43403,1.015133 -0.758257,2.065375 -1.000234,3.141905 0.114108,0.523798 0.431421,0.747597 0.965077,0.652013 1.383085,0.104836 2.7668,-0.05474 4.150209,-0.08645 0.04199,-0.04481 0.08398,-0.08959 0.125966,-0.134383 z m 6.098179,0.06792 c 0.660262,-0.0035 1.320523,-0.007 1.980785,-0.01072 0.0087,-1.605249 0.132513,-3.226137 -0.161523,-4.814165 -0.343004,-0.476837 -0.932777,-0.25259 -1.431004,-0.288429 -1.613403,0.02557 -3.226805,0.05114 -4.840208,0.0767 -0.489573,0.39148 -0.33499,1.119467 -0.465892,1.678225 -0.09459,1.072278 -0.315012,2.17492 -0.226331,3.236689 0.259254,0.393809 0.904684,0.07934 1.331423,0.165943 1.270807,-0.02855 2.541701,-0.04129 3.81275,-0.04428 z m 8.195993,-0.119183 c 0.243434,-0.327896 0.12611,-0.907872 0.04395,-1.294301 -0.265753,-0.390936 -0.387024,-0.815522 -0.389211,-1.275974 -0.322628,-0.681877 -0.541307,-1.456992 -0.925646,-2.083518 -0.575814,-0.487407 -1.331546,-0.281874 -2.0229,-0.324285 -0.840206,-0.0097 -1.681807,-0.03664 -2.505188,0.161198 -0.172006,0.887498 0.101996,1.798279 0.145849,2.694264 0.111687,0.680489 0.102983,1.419292 0.289514,2.063521 0.407889,0.237804 0.987288,0.09715 1.462021,0.187451 1.256185,0.142088 2.514779,0.06352 3.773205,5.09e-4 0.04249,-0.04305 0.08649,-0.08558 0.12841,-0.128882 z"/><path style="fill:#000;stroke-width:.118611" id="car-33" d="m 92.578828,49.349514 c -0.856468,-0.192121 -1.716064,-0.423818 -2.5383,-0.71698 -0.270882,-0.16829 -0.573873,-0.631908 -0.772713,-0.13781 -0.23414,0.212693 -0.421794,0.618687 -0.683968,0.714819 -0.303971,-0.15962 -0.754027,-0.175104 -0.795777,-0.593453 -0.274813,-0.599007 -0.288747,-1.319179 -0.554885,-1.898363 -0.524837,-0.303388 -0.980815,-0.687043 -1.423619,-1.095104 -0.74561,-0.584907 -1.427281,-1.241462 -2.227592,-1.755441 -0.229551,-0.162722 -0.20903,-0.747873 -0.404445,-0.803179 -0.284825,0.20518 -0.471445,0.654825 -0.880436,0.550928 -0.409062,0.03416 -0.477062,-0.510886 -0.552118,-0.816633 -0.135618,-0.558705 -0.345923,-1.112483 -0.190137,-1.690403 0.01961,-0.35851 0.11692,-0.703562 0.198695,-1.05131 -0.50099,0.115158 -0.800654,-0.365615 -1.184047,-0.59854 0.148937,-0.252866 0.163478,-0.647109 0.16901,-0.98277 -0.02602,-0.379643 0.04534,-0.718671 0.364758,-0.954232 0.637029,-0.373218 1.230796,-0.866845 1.985584,-0.9682 0.332582,-0.05536 0.675076,-0.288141 0.992299,-0.06856 1.746289,-0.122515 3.487974,-0.369342 5.241855,-0.286905 1.776583,0.03676 3.557672,-0.01484 5.331284,0.08027 0.657944,0.08393 1.354926,0.02308 1.933764,0.400389 1.1238,0.501293 2.256482,1.012062 3.20518,1.812246 0.4316,0.298654 0.87367,0.58711 1.11111,1.074415 0.28761,0.63461 1.06153,0.804977 1.35937,1.430464 0.44979,0.63392 1.02922,1.176622 1.5652,1.733247 0.47193,0.26045 0.93927,0.570581 1.43213,0.767875 0.64883,0.05631 1.34324,-0.133264 1.95213,0.138555 -0.13924,0.513217 -0.55862,0.969697 -0.43643,1.522714 0.0845,0.466675 -0.0965,1.03887 0.3202,1.373414 -0.13604,0.256357 -0.61602,0.173603 -0.90315,0.240027 -2.53239,0.301783 -5.07797,0.458762 -7.626264,0.539607 -1.746304,0.07808 -3.493067,0.14406 -5.240166,0.201392 -0.370014,0.327251 0.512387,0.08917 0.737238,0.147888 3.065132,-0.07593 6.132322,-0.09951 9.191882,-0.316787 1.30931,-0.04598 2.60507,-0.276652 3.91157,-0.347487 -0.045,0.464366 -0.0662,0.990288 -0.25591,1.398231 -0.66902,0.229205 -1.41383,0.257703 -2.11209,0.409491 -1.91722,0.182106 -3.83668,0.383749 -5.757984,0.511559 -2.094416,0.01937 -4.19188,0.07185 -6.28439,0.07052 -0.05948,-0.01206 -0.11983,-0.02345 -0.178838,-0.03591 z m -3.853707,-1.525283 c 0.299413,-0.335297 0.137184,-0.856162 0.227542,-1.275497 0.105599,-0.463994 -0.174923,-0.878456 -0.288014,-1.314396 -0.372917,-0.26514 -0.524074,0.313654 -0.668782,0.558835 0.0334,0.559804 -0.06016,1.147379 0.05437,1.689435 0.07603,0.307131 0.353547,0.7814 0.640122,0.383521 l 0.03477,-0.04191 z m 3.963808,-0.281359 c 0.08599,-0.270586 -0.602998,-0.259697 -0.811374,-0.440764 -0.603674,-0.291167 -1.223517,-0.544471 -1.848875,-0.784874 -0.04236,-0.669833 -0.168479,-1.351587 -0.420725,-1.964822 -0.29574,-0.295741 -0.591479,-0.591476 -0.887218,-0.887216 0.317808,-0.174808 0.281591,-0.654399 -0.135255,-0.561933 -0.557133,-0.181438 0.132135,0.609354 -0.213292,0.593053 -0.39995,-0.178224 -0.591678,0.262275 -0.739273,0.366661 -0.183945,-0.323203 -0.390864,-0.601836 -0.801454,-0.485271 -0.392634,0.160073 -0.14838,0.542164 0.22888,0.58447 0.451201,-0.004 0.432952,0.588194 0.01749,0.44057 -0.94427,-0.493384 -1.71755,-1.253235 -2.585922,-1.864897 -0.472858,-0.326296 -0.801454,-0.874162 -1.262454,-1.176537 -0.341164,0.109895 -0.514455,-0.241093 -0.518556,-0.533754 0.175181,-0.42357 -0.450725,-0.614791 -0.528684,-0.240492 -0.105084,0.505202 -0.29058,1.010425 -0.08284,1.515569 0.0026,0.323041 0.168739,0.770282 0.494053,0.505811 -0.01737,-0.430032 0.336744,-0.570105 0.522172,-0.13612 0.234103,0.576157 0.359388,-0.02865 0.694501,-0.04353 0.766294,0.480926 1.457717,1.136813 2.237602,1.60841 0.380903,0.143634 0.650641,0.48519 1.014149,0.683627 0.229152,0.168465 0.64879,0.565009 0.713392,0.0442 0.170061,-0.293951 0.177686,-0.778917 0.609904,-0.764589 0.31157,-0.101238 0.70388,0.156957 0.791596,0.469369 0.222689,0.445758 0.464029,0.88692 0.403434,1.402433 -0.01054,0.352364 -0.01515,0.701917 0.340995,0.880177 0.325784,0.210888 0.846452,0.126805 1.109233,0.410374 0.205934,0.245334 0.649948,0.129665 0.94853,0.234516 0.279789,-0.0054 0.403636,0.532396 0.709996,0.145544 z m 5.168109,-1.020014 c 2.574562,-0.121085 5.147162,-0.281789 7.721412,-0.410297 0.37377,-0.112971 0.20507,-0.571034 0.19053,-0.863927 -0.0311,-0.406707 -0.11423,-0.74699 -0.59565,-0.577305 -2.74013,0.0843 -5.468683,0.381346 -8.206759,0.489407 -0.606515,-0.0073 -1.213032,-0.01466 -1.819547,-0.02196 -0.239484,0.320136 -0.297247,0.685837 -0.255273,1.076553 -0.147615,0.51657 0.17622,0.528612 0.593928,0.440194 0.789644,-0.05956 1.580118,-0.101149 2.371359,-0.132665 z m -5.878356,-0.37178 c 0.260289,-0.402381 -0.280503,-0.448671 -0.52321,-0.636022 -0.316321,-0.257506 -0.709592,-0.129572 -0.677714,0.305068 -0.16352,0.393577 0.47955,0.419403 0.697628,0.62127 0.303589,0.03586 0.489138,0.109742 0.503296,-0.290316 z m 0.657285,-1.168072 c 0.31052,-0.264786 -0.04934,-0.721859 -0.384126,-0.656407 -0.399861,-0.286411 -0.799305,-0.574122 -1.199005,-0.861031 -0.397902,0.126423 -0.562014,0.533147 -0.08687,0.690742 0.341498,0.156508 0.479586,0.414381 0.579646,0.701128 0.282578,0.222256 0.539998,0.517193 0.933838,0.418053 0.05216,-0.09749 0.10439,-0.195017 0.156517,-0.292485 z m 3.79773,-0.653941 c 1.95168,-0.217558 3.919113,-0.31296 5.867703,-0.533714 0.36219,-0.09249 0.84674,-0.200571 0.17993,-0.161964 -2.698386,-0.06012 -5.394719,0.07398 -8.091782,0.138783 -0.157279,0.244455 -0.777433,0.414749 -0.599993,0.712825 0.525621,0.05251 1.13771,-0.03447 1.695003,-0.05922 0.316375,-0.03223 0.632786,-0.06451 0.949139,-0.09671 z m 5.663703,-1.384699 c 0.52653,-0.02707 0.14369,-0.459465 0.0296,-0.64861 0.0111,-0.366091 -0.43524,-0.549605 -0.62271,-0.836434 -0.59505,-0.601167 -1.13647,-1.250984 -1.691676,-1.888302 -1.423457,-0.07731 -2.845219,-0.330842 -4.270949,-0.171688 -0.509873,0.05686 -1.066467,0.0098 -1.547307,0.131252 -0.272438,0.227693 -0.508156,0.470593 -0.407394,0.852867 0.187823,0.45068 0.438456,0.888767 0.355835,1.393673 0.01224,0.380248 0.237318,0.752893 0.405451,1.078929 0.24992,0.302769 0.59682,0.31299 0.960723,0.271922 2.192485,-0.04824 4.389706,-0.0607 6.579227,-0.131247 0.0697,-0.01744 0.13943,-0.03493 0.20913,-0.05236 z M 87.893675,42.606733 c 0.116203,-0.354771 -0.782355,-0.18931 -0.510759,0.102068 0.101306,0.10291 0.628951,0.180188 0.510759,-0.102068 z m 3.424547,-1.002055 c 0.03761,-0.377492 -0.163933,-0.817985 0.110989,-1.132954 -0.03237,-0.371855 -0.0821,-0.742416 -0.09581,-1.115675 -0.453715,-0.20358 -0.912295,-0.399893 -1.245422,-0.783777 -0.714874,-0.430233 -1.373034,-0.965367 -2.158292,-1.265415 -0.956916,0.329891 -1.897662,0.70931 -2.874121,0.979341 -0.291732,0.335804 0.401555,0.496787 0.58011,0.749127 1.221085,0.956361 2.49149,1.856371 3.796545,2.69262 0.301179,0.203002 0.523995,0.500176 0.883397,0.534332 0.278823,0.09812 0.570854,0.659079 0.839594,0.40399 0.366423,-0.193076 0.112164,-0.663405 0.165483,-0.996345 l -0.0023,-0.05949 z M 83.733926,40.66524 c 0.399864,-0.338261 -0.461161,-0.546095 -0.466099,-0.252372 -0.124327,0.356511 0.325792,0.739579 0.466099,0.252372 z m -1.533602,-1.220712 c -0.06949,-0.335374 0.885028,0.180973 0.676351,-0.05745 -0.242178,-0.269439 -0.688143,-0.440347 -0.933887,-0.08308 -0.397781,0.252192 -0.216089,0.715281 0.17777,0.312488 0.10339,-0.01794 0.07997,-0.0926 0.07976,-0.171957 z m 1.514614,-0.596756 c -0.177733,-0.374389 -0.635044,-0.555016 -0.924851,-0.851729 -0.454549,0.241478 -0.118587,0.47899 0.15048,0.716841 0.10792,0.290079 0.78906,0.400489 0.78382,0.163229 z"/><path id="car-43" style="fill:#000;stroke-width:.156692" d="m 102.15508,73.617646 c -0.58468,0.0023 -0.94092,-0.547743 -1.41022,-0.824422 0.0499,-0.887368 -0.63431,-1.629839 -0.804181,-2.470801 0.0331,-0.529219 0.0661,-1.058437 0.0991,-1.587656 -0.454475,-0.02967 0.0148,-0.887131 -0.0657,-1.25192 0.235971,-0.849585 0.534421,-1.688575 1.117631,-2.36859 0.47593,0.119131 1.17215,-0.13537 1.37591,0.445698 0.3945,0.671801 1.03429,1.245862 1.03095,2.076194 0.18039,0.708086 0.0902,1.498876 0.28982,2.175119 0.56058,0.756778 1.5716,0.796226 2.37997,1.158379 0.66358,0.329991 1.37618,0.361087 2.10235,0.309404 3.37026,0.03476 6.72043,-0.407072 10.08799,-0.481781 0.97621,-0.08941 1.95581,-0.02973 2.92864,-0.04246 1.63195,-0.235678 3.27024,-0.393765 4.91993,-0.412261 0.29644,-0.131928 0.91976,-0.239966 1.27105,0.01747 0.39278,0.266706 -0.0258,0.977771 0.0372,1.425056 -0.0937,0.740883 -0.99551,0.548791 -1.53535,0.705492 -1.54672,0.11251 -3.09521,0.22024 -4.63033,0.461706 -2.86284,0.05703 -5.71176,0.377107 -8.56469,0.589819 -1.98292,0.155133 -3.96672,0.277147 -5.95612,0.187586 -1.5562,-0.05058 -3.12401,0.01806 -4.67387,-0.112084 z m -0.15572,-2.110407 c 0.0296,-0.554104 0.61217,-0.968508 0.4736,-1.568491 0.0598,-0.950096 0.0741,-1.896532 -0.18852,-2.820672 -0.3779,-0.335385 -0.76147,-0.798541 -1.09563,-0.146912 -0.53745,0.362201 -0.22276,1.091305 -0.3244,1.64115 0.0457,0.766367 -0.15985,1.580999 0.0571,2.314468 0.16697,0.431088 0.2808,0.925472 0.84183,0.887125 0.15541,-0.08463 0.29193,-0.08481 0.23604,-0.306668 z m 4.36769,-1.471118 c -0.61828,-0.20961 -1.2848,-0.340248 -1.68596,-0.90539 -0.38434,-0.401051 -0.06,-1.085578 -0.29901,-1.584037 -0.23547,-0.701815 -0.20469,-1.541403 -0.81678,-2.048324 0.0399,-0.457608 -0.47737,-0.525156 -0.57546,-0.99382 -0.61238,0.215739 -0.49594,-0.582625 -1.11794,-0.344268 -0.48996,-0.0072 -0.99597,-0.06175 -1.34058,0.360927 -0.593581,0.389277 -0.809311,1.126619 -1.224998,1.679763 -0.08595,0.416638 0.06551,1.083139 -0.154147,1.359018 -0.549889,0.169297 -0.674599,-0.462103 -0.959142,-0.792501 -0.901932,-1.278986 -2.052351,-2.36521 -3.004263,-3.609721 -0.458562,-0.413707 -0.669791,-0.951269 -0.754783,-1.552052 -0.238743,-0.596884 -0.892318,-0.338961 -1.395123,-0.391723 -0.616602,-0.641307 -1.149791,-1.481737 -1.062314,-2.403086 -0.01521,-1.393882 -0.03041,-2.787757 -0.04562,-4.181639 0.474764,-0.707588 0.914217,-1.500623 1.609295,-1.997819 2.022789,-0.568892 4.084998,-1.061292 6.197764,-1.073533 1.130981,-0.06374 2.252591,-0.183665 3.381181,-0.01782 1.281,0.04951 2.55947,0.248649 3.78628,0.597969 0.66065,0.414506 1.52038,0.246358 2.26832,0.405392 0.9971,0.208271 1.96353,0.605478 2.92581,0.943132 1.5006,0.765578 3.05614,1.445078 4.52314,2.2633 1.24297,1.24847 5.5021,4.351766 5.65981,5.632739 -0.21393,0.215058 0.52448,-0.110413 0.53896,0.577076 0.2059,0.58661 0.99731,0.743281 1.27037,1.234799 -0.23587,0.768978 0.52038,0.483351 1.00942,0.481764 0.48267,0.06982 1.152,-0.291579 1.48958,0.11341 0.42182,0.342598 -0.0768,0.879006 -0.1024,1.315809 -0.21502,0.670907 0.007,1.414437 0.30351,2.008906 0.0596,0.775902 0.1036,1.553218 0.1987,2.325886 -1.74192,0.17644 -8.17397,0.423983 -8.46132,0.695141 -3.66846,0.103158 -7.33689,0.207649 -11.00579,0.294143 -0.3855,-0.131158 -0.77105,-0.262258 -1.15651,-0.393458 z m 2.46458,-1.165777 c 0.0368,-0.556928 0.57498,-1.126376 0.12486,-1.629886 -0.22026,-0.651992 -0.75135,-0.304667 -0.83872,0.224735 -0.39787,0.502527 -0.33006,1.116984 -0.3218,1.717121 0.35917,0.145147 0.97731,0.17433 1.03566,-0.31197 z m 10.63785,-0.43351 c 0.94287,0.06226 1.90314,-0.05514 2.82433,-0.204754 0.5464,-0.124857 0.62259,-0.531391 0.54453,-1.030324 -0.73133,-0.287113 -1.53974,0.04507 -2.30556,0.03512 -2.2611,0.175776 -4.53624,0.04536 -6.80327,0.09166 -0.56097,0.0012 -1.12194,0.0018 -1.68292,0.0029 -0.0743,0.597324 0.33155,0.635811 0.37646,1.083067 1.32191,0.226808 2.67793,0.01439 4.01462,0.05075 1.01017,-0.0029 2.02258,-0.06308 3.03181,-0.02831 z m 6.31177,-0.52425 c 0.0426,-0.567221 -0.0561,-1.125232 -0.13664,-1.684429 -0.5831,-0.09878 -0.0175,0.951127 -0.82622,0.626822 -0.0547,0.453391 -0.0176,0.999594 -0.0372,1.488512 0.29091,0.30925 1.20371,0.451235 0.99781,-0.186383 6e-4,-0.08151 9.8e-4,-0.163204 0.002,-0.244522 z m -15.06077,-2.243383 c 0.27598,-0.575228 -0.56534,-0.615344 -0.94788,-0.467047 -0.0556,0.417626 0.29201,0.925804 0.85364,0.712581 0.0314,-0.08185 0.0628,-0.163689 0.0942,-0.245534 z m 4.18869,-0.31699 c 0.37708,-0.566476 -0.64427,-0.676534 -0.84555,-0.450004 -0.15524,0.526589 0.2587,0.827601 0.74993,0.699185 0.0318,-0.08305 0.0638,-0.166123 0.0956,-0.249181 z m 10.49499,-0.03251 c 0.24141,-0.563355 -0.6599,-0.534839 -0.84222,-0.22425 -0.2273,0.51385 0.67492,0.420813 0.84222,0.22425 z m -6.84161,-0.614043 c -0.3252,-0.620005 -0.98569,0.41209 -0.22909,0.411652 0.42106,0.343913 0.61945,-0.192815 0.22909,-0.411652 z m 3.64903,0.288156 c -0.0443,-0.549674 -0.78437,-0.512873 -0.72115,-0.0091 0.0825,0.183599 0.77758,0.263726 0.72115,0.0091 z M 111.3711,62.729691 c 0.38212,-0.777636 -0.85871,-0.06517 -0.55526,-0.840192 0.0558,-0.544954 -0.019,-1.058046 -0.3493,-1.508802 -0.22113,-0.464423 -0.58047,-0.894913 -0.47843,-1.438688 -0.36613,-0.329144 -0.54383,-1.055168 -1.14169,-0.896204 -0.62385,0.0472 -1.31642,-0.0692 -1.89876,0.07693 -0.59318,0.298987 -0.19055,0.751952 0.0283,1.176507 0.41675,1.147791 0.74749,2.348206 1.21671,3.463893 0.36947,0.471436 1.0808,0.212973 1.60895,0.345601 0.5064,0.0081 1.01858,0.149216 1.51986,0.03985 0.0165,-0.139633 0.0331,-0.279266 0.0495,-0.418894 z m -11.05714,-0.07156 c -1.273926,-1.485877 -2.440151,-3.074557 -3.811025,-4.480122 -0.438342,-0.31557 -0.394571,-0.84695 -0.961225,-0.972033 -0.402353,-0.232137 0.482796,0.470856 0.189049,0.847667 0.298245,0.414001 1.019469,0.645606 0.940148,1.222433 0.690995,0.554702 1.302248,1.180654 1.757859,1.94567 0.420289,0.538777 1.038213,0.983195 1.375963,1.548959 -0.12672,0.281014 1.322201,0.279451 0.509231,-0.112574 z m 17.08992,-0.03015 c 0.24187,-0.197285 -0.19267,-0.903583 -0.44846,-1.17839 -0.46645,-0.714826 -1.12617,-1.291108 -1.62846,-1.961351 -0.002,-0.640964 -0.50581,-0.55527 -0.72016,-1.054535 -0.24958,-0.638085 -0.51474,-0.723998 -0.98899,-0.273907 -0.80445,0.05064 -1.67622,-0.05833 -2.43954,0.08991 -0.20117,0.256544 0.49352,0.649102 0.38775,1.178492 0.28446,0.40914 0.44695,0.852434 0.44302,1.374 0.12767,0.671523 0.38191,1.3171 0.55713,1.978876 0.35537,-0.293184 0.36806,-0.194527 1.02423,-0.09094 0.81769,0.06952 1.69225,0.01007 2.47458,0.159799 0.39394,0.07074 0.90519,-0.222385 1.3389,-0.221954 z m 3.81884,-0.102838 c 0.24546,-0.421038 -0.38542,-0.764767 -0.32491,-1.191538 -1.10805,-1.031083 -2.11846,-2.181479 -3.28919,-3.135964 -0.4496,-0.264751 -0.96239,-0.885183 -1.49384,-0.442967 -0.44684,0.167604 0.11615,0.911145 0.26482,1.108912 0.4561,0.08495 0.52173,0.824492 0.81932,1.175186 0.56209,0.704231 0.97114,1.562113 1.63396,2.165216 0.37607,0.462073 1.0211,0.263467 1.47226,0.498489 0.22563,0.100174 0.90877,0.235626 0.91758,-0.177334 z m -16.62779,-0.388987 c 0.24393,-0.484565 0.0802,-1.092839 0.15992,-1.627245 -0.41339,-0.414068 -0.26271,-0.932484 -0.15746,-1.442502 0.0727,-0.541448 0.32567,-1.11105 -0.0849,-1.577055 -0.36914,-0.05141 -0.9661,0.103016 -1.20909,0.505938 -0.36924,0.32026 -0.66807,0.80707 -1.08053,1.025054 -0.41213,0.0138 -0.66545,0.697509 -0.37225,1.042079 0.25894,0.799181 1.07691,1.237891 1.59226,1.871737 0.20229,0.38589 0.86352,0.544747 1.13264,0.233317 z m -10.821376,-3.40023 c 0.0077,-0.60873 0.103349,-1.237104 -0.28308,-1.757783 -0.233189,-0.739562 -0.655919,0.02944 -0.718141,0.437348 -0.03255,0.864284 0.146159,1.767258 0.336706,2.623351 0.271662,0.724491 0.663084,0.06138 0.654302,-0.409495 0.0034,-0.29781 0.0068,-0.595613 0.01021,-0.893421 z m 7.757006,-0.461812 c 0.52524,-0.636624 1.31809,-1.034423 1.73586,-1.754348 -0.34404,-0.817623 -1.05019,-1.415503 -1.85339,-1.760878 -0.75462,0.183415 -1.509241,0.366825 -2.263863,0.550235 -0.04176,0.663191 -0.753625,0.351494 -1.203664,0.420707 -0.476765,0.462315 0.211097,0.813833 0.519779,1.158972 0.629284,0.612294 1.258567,1.224584 1.887848,1.836872 0.40781,-0.128132 0.93026,-0.03222 1.17743,-0.45156 z M 94.320513,55.52613 c 0.105793,-0.385611 -0.733279,-0.872876 -0.783456,-0.411206 -0.09824,0.389058 0.57356,0.833002 0.783456,0.530633 v -0.08428 z"/><path style="fill:#000;stroke-width:.154095" id="car-31" d="m 35.732144,50.68953 c -0.3457,-0.181736 -0.197148,-0.422699 -0.0071,-0.668631 1.199308,-0.03108 2.440409,0.01351 3.655808,0.01157 0.5054,0.004 1.010801,0.008 1.516201,0.01201 0.30049,0.199966 0.351806,0.406143 0.0332,0.621541 -0.161698,0.23987 -0.359508,0.397393 -0.661123,0.318205 -1.425309,-0.01236 -2.850617,-0.02473 -4.275925,-0.0371 -0.08703,-0.08586 -0.174059,-0.171732 -0.261089,-0.257598 z m 11.961488,-0.08228 c -0.135408,-0.276109 -0.112635,-0.572473 0.211177,-0.668152 1.646146,-0.0665 3.292292,-0.133004 4.938437,-0.199505 0.238064,0.214804 0.148239,0.514645 -0.0218,0.733024 -0.289407,0.173877 -0.555789,0.42147 -0.918639,0.360203 -1.367966,0.06464 -2.735932,0.129275 -4.103898,0.193909 -0.0351,-0.139826 -0.07019,-0.279653 -0.105284,-0.419479 z M 36.070281,49.493116 c -0.284901,-0.04687 -0.621245,4.15e-4 -0.875464,-0.102615 -0.170134,-0.243716 -0.438877,-0.454309 -0.357298,-0.782575 0.01968,-0.268657 0.51809,-0.04964 0.740387,-0.111892 2.1065,0.03865 4.212993,0.103454 6.319523,0.03091 3.366713,-0.06062 6.733424,-0.121249 10.100136,-0.181876 0.364724,-0.294428 0.868425,-0.16435 1.302514,-0.246906 0.07723,0.242008 0.289674,0.497845 0.289132,0.731898 -0.180408,0.205893 -0.279916,0.563131 -0.616935,0.476039 -1.904662,0.09921 -3.810719,0.145271 -5.717908,0.148247 -3.491528,0.02719 -6.984146,0.08675 -10.474996,0.09371 -0.236363,-0.01831 -0.472727,-0.03663 -0.709091,-0.05494 z m -0.539334,-1.572853 c -0.316164,-0.03386 -0.579827,-0.104689 -0.421295,-0.472817 0.07047,-0.595611 0.298451,-1.178836 0.297259,-1.777456 -0.05745,-0.663289 -0.09337,-1.328742 -0.184151,-1.98868 0.467091,-0.136831 1.014176,-0.09688 1.374594,-0.469457 0.278144,-0.191734 0.55678,-0.383047 0.66499,-0.720023 0.367492,-0.725739 0.817648,-1.416439 1.01475,-2.214402 0.07935,-0.469028 0.548137,-0.69658 0.831969,-1.038816 0.46976,-0.441278 0.908257,-0.936961 1.397595,-1.344166 0.644341,-0.149166 1.269736,-0.43766 1.943856,-0.367816 1.560006,0.0014 3.125128,-0.03296 4.681947,-0.0092 0.448367,0.149199 0.929185,0.244134 1.35792,0.42616 0.66973,0.690285 1.374773,1.35596 2.022787,2.061377 0.19104,0.368734 0.327856,0.785658 0.55197,1.125 0.357501,0.123008 0.317122,0.555439 0.454256,0.849821 0.122697,0.332841 0.185594,0.705961 0.345325,1.013857 0.353805,0.390938 0.918177,0.369394 1.387182,0.534667 0.01755,0.998226 -0.01864,2.002546 0.03216,2.997001 0.07893,0.350016 0.157865,0.700032 0.236796,1.050049 -0.554496,0.169163 -1.127279,0.190122 -1.702872,0.188308 -3.509133,0.0968 -7.018528,0.179472 -10.529023,0.203007 -1.779852,0.01359 -3.562995,0.05702 -5.34079,0.05198 -0.139067,-0.0328 -0.2782,-0.06559 -0.417227,-0.09839 z m 1.749872,-1.544973 c -0.04757,-0.243684 0.136986,-0.641433 -0.05985,-0.786057 -0.259211,-0.186254 -0.519693,-0.04191 -0.780019,0.06191 -0.37771,0.02867 -0.134656,0.453542 -0.252875,0.695726 -0.017,0.244398 -0.186046,0.613427 -0.11003,0.781563 0.392041,0 0.784083,0 1.176124,0 0.0089,-0.251046 0.01777,-0.502092 0.02666,-0.753139 z m 15.014109,0.290853 c 0.06912,-0.434882 -0.526059,-0.175006 -0.246526,-0.567757 0.04605,-0.237305 0.318072,-0.49617 0.09819,-0.708102 -0.156289,-0.194446 -0.49431,0.123393 -0.725617,0.140413 -0.337915,0.01064 -0.278117,0.40258 -0.328224,0.641938 0.03794,0.267233 0.0759,0.534466 0.113842,0.801701 0.389644,0 0.779286,0 1.16893,0 -0.02687,-0.102731 -0.05373,-0.205462 -0.0806,-0.308193 z m -6.103005,-0.01212 c 1.24223,0.0051 2.48446,0.01029 3.726689,0.01543 0.295985,-0.254718 0.0257,-0.416747 -0.201646,-0.585804 -0.226962,-0.159867 -0.558321,-0.02482 -0.828126,-0.06365 -3.325088,0.04089 -6.650176,0.08178 -9.975264,0.122664 -0.320506,0.117064 -0.425158,0.306957 -0.219933,0.601402 0.116237,0.249521 0.538454,0.02416 0.784089,0.07285 1.519614,-0.08416 3.037728,-0.222323 4.561079,-0.171834 0.717704,0.0029 1.435408,0.006 2.153112,0.0089 z m -8.888881,-2.308384 c 0.07768,-0.254547 -0.631326,-0.226972 -0.462285,0.07598 0.05367,0.289569 0.441764,0.235271 0.462285,-0.02354 v -0.04628 z m 3.599915,-0.222048 c 0.04537,-0.300537 -0.543955,-0.334768 -0.51801,-0.10273 -0.01763,0.286122 0.304528,0.386204 0.54493,0.333875 0.14364,0.04786 -0.03537,-0.180375 -0.02692,-0.231145 z m 3.727906,0.06362 c 0.242724,-0.172757 -0.194938,-0.593535 -0.369576,-0.390056 -0.16077,0.141024 -0.671408,0.187883 -0.380087,0.450585 0.114389,0.17298 0.557391,0.15476 0.694793,0.02826 0.01829,-0.02959 0.03659,-0.05919 0.05487,-0.08878 z m 7.15713,-0.140669 c 0.132707,-0.415305 -0.267159,-0.298037 -0.539601,-0.308192 -0.105957,0.03672 -0.179494,0.674283 0.06207,0.616384 0.296624,-0.029 0.57586,0.137547 0.477534,-0.308192 z m -3.390095,-0.07705 c 0.172936,-0.328581 -0.580222,-0.341883 -0.462285,-0.04601 -0.195482,0.353305 0.493737,0.391656 0.462285,0.138311 v -0.04628 z m -6.829742,-2.01113 c 0.133874,-0.449765 0.245666,-0.902405 0.200916,-1.375424 -0.0048,-0.268598 0.104672,-0.630383 -0.292191,-0.579164 -0.602073,-0.08185 -1.218972,0.04877 -1.827052,0.05304 -0.290907,-0.0076 -0.279064,0.435072 -0.437887,0.623906 -0.169984,0.279187 -0.258463,0.576814 -0.213856,0.904548 0.187616,0.410952 -0.471368,0.261413 -0.407223,0.570792 0.07673,0.217962 -0.08146,0.72997 0.284063,0.645572 0.831841,-0.0269 1.663682,-0.0538 2.495522,-0.08069 0.06591,-0.254191 0.131805,-0.508383 0.197708,-0.762575 z m 4.858199,0.574407 c 0.231191,-0.183074 -0.04557,-0.516522 -0.0408,-0.766627 -0.144328,-0.559674 -0.215181,-1.133472 -0.308701,-1.702913 -0.856497,-0.01448 -1.717387,-0.115748 -2.571029,-0.07382 -0.295498,0.04257 -0.590996,0.08513 -0.886494,0.127699 -0.1004,0.699955 -0.11031,1.421875 -0.267916,2.107945 -0.252194,0.308712 0.127818,0.388734 0.349027,0.5262 0.556945,0.04816 1.145544,-0.03561 1.71454,-0.03768 0.634211,-0.02495 1.268423,-0.04988 1.902634,-0.07482 0.03625,-0.03533 0.0725,-0.07066 0.108743,-0.105987 z m 3.666591,-0.163977 c 0.04521,-0.461847 -0.306132,-0.8355 -0.451179,-1.255034 -0.16748,-0.357899 -0.334961,-0.715797 -0.502441,-1.073696 -0.541156,-0.0069 -1.078448,-0.06727 -1.615839,-0.126236 -0.298957,0.106603 -0.415859,0.318015 -0.357564,0.63029 -0.01559,0.56694 -0.03119,1.133881 -0.0468,1.700822 0.284681,0.176143 0.519328,0.505472 0.891171,0.414744 0.694215,0 1.38843,0 2.082645,0 0,-0.09696 -1e-6,-0.193927 -1e-6,-0.29089 z"/><path style="fill:#000;stroke-width:.152312" id="car-32" d="m 63.710323,50.436165 c -0.56199,-0.186763 -1.280089,-0.181678 -1.653472,-0.497406 -0.581819,-0.266295 -1.163639,-0.532586 -1.745458,-0.798878 -0.139702,-0.568462 -0.219666,-1.142839 -0.18041,-1.729022 -0.09963,-0.342081 0.196905,-0.520062 0.403577,-0.735268 0.123658,-0.269546 0.01849,-0.63387 0.05336,-0.940195 0.106524,-0.348203 -0.285599,-0.49697 -0.318485,-0.817446 L 59.791593,43.4452 58.607859,42.922938 c 0.02908,-0.65292 -0.104388,-1.33151 0.18316,-1.943609 l 0.502245,-1.550437 c 0.507708,0.02968 1.015416,0.05937 1.523125,0.08905 -0.0088,1.001495 -0.08085,1.998056 -0.230836,2.988542 -0.165569,0.378855 0.316191,0.54823 0.343217,0.902671 0.09765,0.303144 0.195297,0.606288 0.292945,0.909432 0.386884,-0.09355 0.190296,-0.384974 0.08628,-0.645001 -0.221843,-0.493427 -0.05904,-1.056138 -0.102843,-1.581632 -0.0063,-0.872203 0.03681,-1.75365 -4.29e-4,-2.620066 -0.08294,-0.3108 -0.204955,-0.573339 -0.574423,-0.530302 -0.356146,-0.03525 -0.732237,-0.226193 -1.052626,0.01766 l -1.045973,0.469872 c -0.05895,-0.4781 -0.1179,-0.9562 -0.176852,-1.4343 l 1.806988,-1.827748 c 2.010982,0.01729 4.024712,0.0084 6.033984,0.04198 1.316112,0.283312 2.647922,0.526054 3.954245,0.834666 0.715001,0.442048 1.469609,0.8325 2.160513,1.305938 0.482568,0.504348 1.162064,0.772547 1.594695,1.334337 0.546519,0.493328 0.874352,1.165 1.304632,1.753125 -0.04957,0.380505 0.225691,0.690498 0.345883,1.034151 0.91275,0.105261 1.832992,0.169604 2.713631,0.450244 0.246217,0.05819 0.156031,0.570178 0.07258,0.758324 -0.205066,0.226351 -0.474009,0.427156 -0.39084,0.768774 0.0043,0.840641 -0.133197,1.692333 0.0912,2.515852 0.05762,0.299723 0.224984,0.68808 -0.246117,0.560732 -0.814306,0.03848 -1.612804,0.24662 -2.423153,0.341341 -1.057286,0.186438 -2.123808,0.296873 -3.197764,0.30386 -2.209927,0.071 -4.419599,0.193376 -6.629689,0.231862 l -2.358775,-0.06585 c -0.351574,-0.273337 -0.260908,-0.784592 -0.396995,-1.173856 -0.333805,-0.249067 -0.43203,0.03991 -0.502612,0.348853 -0.104928,0.279656 -0.292634,0.644702 0.137835,0.372113 0.312673,-0.12802 0.03707,0.584213 0.314015,0.628664 0.461441,0.147455 0.921733,0.302905 1.413244,0.241215 1.801368,-0.01703 3.605186,0.01523 5.405015,-0.03277 1.695561,-0.159387 3.387752,-0.368745 5.092782,-0.387656 0.863084,-0.04288 1.73621,-0.0039 2.574765,-0.246867 0.358926,-0.04122 0.725814,-0.219884 1.079733,-0.174665 0.404371,0.0076 0.214915,0.443377 0.256131,0.712811 0.02816,0.319963 0.03415,0.62912 -0.307406,0.768938 -0.444442,0.175395 -0.967893,0.169096 -1.443258,0.273378 -1.307715,0.18519 -2.603569,0.484947 -3.929756,0.491689 -2.729829,0.163981 -5.467645,0.156131 -8.197877,0.28899 -0.325675,0.06144 -0.645514,0.01429 -0.972157,-0.01108 z m -2.074781,-1.840952 c 0.226843,-0.05111 0.252352,-0.719678 0.193393,-1.13091 -0.03392,-0.216781 -0.369727,-0.681826 -0.494704,-0.283817 -0.203335,0.227596 -0.35969,0.470651 -0.289372,0.788298 0.0098,0.275508 -0.08964,0.675082 0.252595,0.762765 0.136994,0.0275 0.228563,-0.07439 0.33809,-0.136336 z m 8.700369,-2.14037 c 1.682987,-0.114831 3.372062,-0.192944 5.05203,-0.317856 0.397592,-0.124084 0.795185,-0.248171 1.192777,-0.37226 -0.02751,-0.239664 0.0808,-0.624727 -0.125547,-0.759803 -1.864253,0.125404 -3.715519,0.417992 -5.578695,0.53927 l -5.186097,0.06621 c -0.03718,0.357706 -0.181156,0.727514 0.03371,1.05666 0.192295,0.15752 0.59405,-0.01063 0.867902,0.02009 1.248059,-0.076 2.495961,-0.154566 3.743915,-0.232301 z m -7.896192,-0.235166 c 0.239438,-0.298484 0.0442,-0.527104 -0.188027,-0.749783 -0.305869,-0.352218 -0.595764,-0.71777 -0.892074,-1.077967 -0.0081,0.339659 -0.05976,0.689391 0.169837,0.973993 0.526262,0.700872 0.06353,0.611945 0.223714,1.082223 0.385266,-0.025 0.715777,-0.947158 0.68655,-0.228466 z m 8.12466,-3.434767 c 1.121364,-0.08891 2.247765,-0.137146 3.350872,-0.373388 -0.0158,-0.277635 0.260219,-0.691079 -0.114619,-0.801621 -0.565958,-0.581345 -0.936601,-1.017285 -1.715551,-1.438469 -0.756436,-0.09798 -0.985446,-0.297626 -1.631431,-0.401894 l -4.80036,0.05946 c -0.185224,0.210422 -0.588556,0.318418 -0.496,0.659286 -0.02943,0.832462 0.242226,1.637418 0.35728,2.45668 1.467407,-0.0069 2.937456,0.05607 4.398859,-0.109669 0.216973,-0.01679 0.434033,-0.03366 0.65095,-0.05039 z M 59.976375,41.203543 c 0.06609,-0.297604 0.259655,-0.718742 -0.212388,-0.494894 -0.299643,0.05862 -0.215414,0.531283 -0.346741,0.771448 -0.08926,0.183438 0.07638,0.814261 0.273633,0.44277 0.242963,-0.159248 0.202125,-0.471845 0.285496,-0.719324 z"/><path style="fill:#000;stroke-width:.149055" id="car-23" d="m 74.956063,33.963734 c -0.383068,-0.0151 -0.766137,-0.03019 -1.149205,-0.0453 -0.563854,-0.454703 -0.516268,-1.191242 -1.108934,-1.598515 -0.328394,-0.46961 -1.435655,-0.94247 -0.7088,-1.539222 0.364465,-0.403917 1.108932,0.30059 1.570753,0.158156 0.719271,-0.60166 -0.77961,0.01623 -0.902395,-0.551724 -0.544901,-0.551763 -1.318827,-1.019959 -1.408928,-1.859936 0.131174,-0.549274 -0.06515,-1.151914 -0.645286,-1.30393 -0.476371,0 -0.952741,0 -1.429113,0 0.207507,0.600612 -0.458544,0.461226 -0.610575,0.150016 0.561466,0.02056 0.475645,-0.939331 1.132635,-0.936937 0.477005,-0.196871 0.928682,-0.556884 1.470053,-0.479569 2.590333,0.0023 5.180665,0.0045 7.770998,0.0064 0.978037,0.562923 2.014504,1.046932 2.838198,1.836263 0.462746,0.231354 0.671,0.759823 1.029165,0.921433 0.52928,-0.01572 0.316877,0.930324 0.964827,0.90571 0.507045,0.319272 1.206188,0.528542 1.651709,0.792481 0,0.512616 0,1.025226 0,1.537842 -0.528771,0.24359 -1.091077,0.386519 -1.674205,0.389258 -2.248289,0.207056 -4.509946,0.137977 -6.764219,0.220729 -0.401681,0.08016 -0.763499,-0.02772 -1.106083,-0.22629 -0.176356,-0.132468 -0.527771,-0.144985 -0.587414,-0.357428 0.260782,-0.517674 -0.59781,-1.220497 -0.80057,-0.517016 0.06651,0.772009 0.924828,1.294382 1.695293,1.326657 0.754885,0.224379 1.527515,0.337271 2.313068,0.25271 1.904622,-0.07156 3.814703,-0.07279 5.715305,-0.206656 0.465319,-0.0051 1.299927,-0.420569 1.056521,0.374193 -0.535854,0.354392 -1.245562,0.456439 -1.880362,0.584101 -0.765952,0.167959 -1.537065,0.357276 -2.327741,0.277064 -2.034978,-0.03036 -4.070828,-0.02901 -6.104695,-0.110519 z m -0.713982,-1.608081 c 0.167846,-0.570236 -0.217194,-0.545364 -0.619311,-0.340207 -0.291296,0.201931 0.346724,1.315384 0.641358,0.713921 -0.03864,-0.121117 -0.01602,-0.249117 -0.02205,-0.373714 z m 9.343839,-1.046285 c 0.496326,-0.794097 -0.795723,-0.45597 -1.234872,-0.495152 -1.634761,0.04698 -3.269522,0.09395 -4.904283,0.140929 -0.163208,0.535179 -0.09695,0.877667 0.52794,0.760967 1.548826,0.11946 3.097154,-0.08269 4.645802,-0.116333 0.349749,-0.06271 0.803202,0.119651 0.965413,-0.290411 z m -1.145807,-1.403081 c 0.442804,-0.188973 -0.464051,-0.209113 -0.520556,-0.524785 -0.586191,-0.50732 -1.172411,-1.014601 -1.75879,-1.521702 -0.941302,0.03149 -1.882602,0.06302 -2.823903,0.09453 -0.06052,0.561994 -0.0016,1.408557 0.375014,1.848855 0.82109,0.23648 1.679386,0.246198 2.528669,0.226532 0.723623,-0.0652 1.54505,0.187073 2.199586,-0.123443 z m -6.707481,-0.747063 c 0.04898,-0.576923 -0.12851,-1.298483 -0.710752,-1.489315 -0.40773,-0.277791 -0.693936,-0.903123 -1.22872,-0.893783 -0.315963,0 -0.631927,0 -0.94789,0 -0.296978,0.241929 -1.134407,0.927073 -0.283266,0.957832 0.607215,0.205174 1.022979,0.746618 1.554344,1.091927 0.45878,0.354217 0.918722,0.706924 1.377226,1.061496 0.346493,-0.08056 0.221923,-0.474692 0.239058,-0.728157 z m -4.62071,1.49234 c -0.493095,-0.262728 -1.155075,-0.0011 -1.454632,-0.632167 -0.24649,-0.501365 -0.04421,-1.119943 -0.108463,-1.668241 -0.177501,-0.534757 0.758831,-1.056127 1.095944,-0.652431 0.511884,0.597102 0.323236,1.44188 0.757251,2.087589 0.334867,0.28818 0.455951,1.258783 -0.194103,0.927354 l -0.09602,-0.06211 z m -0.655842,-1.72904 c -0.246659,-0.636859 -0.590463,0.588213 -0.178483,0.527285 0.181325,-0.136603 0.365671,-0.301475 0.178483,-0.527285 z"/><path style="fill:#000;stroke-width:.152996" id="car-22" d="m 56.418129,34.67869 c -0.467405,-0.02967 -0.934809,-0.05934 -1.402214,-0.08902 -0.266868,0.200508 -2.147671,-1.442251 -1.635923,-2.015033 -0.463966,-0.533595 -1.028982,-0.98407 -1.647463,-1.321681 -0.335764,-0.08253 -0.670607,-0.174551 -1.005221,-0.264751 -0.09399,-0.795849 -0.262398,-1.595957 -0.123903,-2.396575 -0.07602,-0.512794 0.836359,-0.345249 1.094169,-0.284775 l 0.681752,0.774973 c -0.08203,-0.47486 -0.158058,-1.533874 -0.835176,-1.453457 -0.595756,-0.09935 -1.083076,0.452863 -1.431352,0.768526 -0.451364,-0.423743 -0.291704,-0.974898 0.246938,-1.225466 0.538741,-0.223166 0.984707,-0.772277 1.60725,-0.695994 2.394629,-0.02718 4.788988,-0.07871 7.1838,-0.08907 1.082006,0.318532 2.377565,0.37195 3.120544,1.342481 0.71161,0.732275 1.641602,1.211033 2.292461,2.010152 0.371335,0.274671 0.60637,0.676381 0.82611,0.975884 0.407655,0.254372 1.395671,-0.09881 1.306419,0.536637 0.239291,0.538428 0.164655,1.095431 -0.197949,1.580241 -2.232252,0.06897 -4.470377,0.380725 -6.712676,0.314477 -0.682197,-0.02352 -1.382801,0.04855 -2.053747,-0.05597 l -1.366465,-0.485326 c 0.207467,-0.551863 -0.340052,-1.450654 -0.949446,-1.451537 -0.478897,-0.09692 -1.074242,0.1755 -1.474066,-0.146541 l -1.26575,-0.986137 c 0.04093,-0.32959 -0.333051,-1.325349 -0.454792,-0.617798 0.08776,0.622839 0.128059,1.218001 0.803124,1.454151 0.551488,0.557706 1.165517,0.952326 1.972047,0.722575 0.501356,-0.07432 0.988963,-0.01564 0.729556,0.601088 -0.121742,0.717352 0.578108,0.986875 1.09192,1.251928 0.612882,0.503794 1.394474,0.31749 2.123275,0.322694 2.31471,-0.06064 4.635038,-0.07194 6.945996,-0.174595 0.253552,-0.06002 0.507105,-0.120056 0.760658,-0.180084 0.09079,0.851455 -0.925979,0.659375 -1.476422,0.848878 -1.41201,0.256097 -2.833778,0.535641 -4.276565,0.46702 -1.492322,0.01605 -2.987856,0.107355 -4.476889,-0.03791 z m -0.816222,-1.323034 c 0.176197,-0.596331 -0.8764,-1.29556 -0.717605,-0.363312 -0.110851,0.463529 -4.7e-5,0.7116 0.477816,0.602864 0.252258,0.02089 0.261281,0.01672 0.239789,-0.239552 z m 8.567752,-1.110259 c 0.527289,-0.01308 1.02618,-0.05507 0.927035,-0.706104 -0.625308,-0.195462 -1.681871,-0.03544 -2.472514,-0.08422 -1.332267,0.01528 -2.660176,0.134761 -3.990521,0.199554 -0.382153,0.532693 0.09763,0.98971 0.65819,0.778265 1.624359,-0.06827 3.262685,0.01715 4.87781,-0.187493 z M 63.366431,30.55754 c 0.437642,0.11819 0.476102,-0.466294 0.02847,-0.346403 -0.642885,-0.377974 -1.212652,-1.407366 -1.273152,-1.445038 -1.20879,-0.415822 -2.377154,0.175987 -3.584976,-0.179828 0.09528,0.638711 0.07612,1.348808 0.427071,1.90296 0.580695,0.107178 1.194558,0.06529 1.78829,0.10799 0.871377,0.027 1.744109,0.0069 2.614302,-0.03967 z m -6.394316,-0.519479 c -0.102783,-0.594393 -0.218118,-1.242743 -0.495502,-1.764995 -0.53359,-0.268484 -0.992102,-0.65987 -1.51248,-0.950676 -0.465015,-0.0054 -0.967416,-0.06946 -1.347769,0.25182 -0.179399,0.131193 -0.70815,0.280506 -0.351059,0.53145 0.722678,0.150204 1.229408,0.714551 1.799778,1.135969 0.512604,0.474167 1.036673,1.00319 1.791435,0.980864 0.207443,0.110888 0.09036,-0.109378 0.115597,-0.184432 z m -5.529176,-0.37069 c 0.139744,-0.543715 -0.696846,-0.692713 -0.419913,-0.04442 -0.165833,0.470188 0.736735,0.734243 0.419913,0.04442 z"/><path style="fill:#000;stroke-width:.152621" id="car-21" d="m 37.601628,35.096166 c -0.794194,-0.0827 -1.349384,-0.707398 -1.544198,-1.456172 -0.177722,-0.263257 0.473014,0.249339 0.268337,-0.352436 0.256044,-0.838764 0.110411,-2.390366 -0.937134,-2.397037 -0.04476,-0.472653 -0.351308,-0.87941 0.325489,-0.73216 0.844576,-0.04974 0.431408,-0.825744 -0.233092,-0.748225 -0.02446,-0.58318 0.168389,-1.109021 0.806873,-0.930607 0.603292,-0.09832 0.453241,0.829516 0.4818,1.216297 -0.05376,0.849429 0.081,1.68616 0.268665,2.511825 1.077864,0.342753 0.385694,1.714488 1.246345,2.144551 2.074267,-0.03973 4.16547,0.06232 6.228327,-0.23523 l 2.971086,-0.313607 c 1.083014,0.293714 -0.08733,1.408038 -0.811933,1.193324 -1.728473,0.159646 -3.454119,0.406669 -5.194302,0.332364 -1.076802,-0.01664 -2.16457,0.03815 -3.234502,-0.03942 -0.213924,-0.06448 -0.427866,-0.128898 -0.641761,-0.193467 z m -0.40909,-1.301147 c 0.07995,-0.483821 -0.639909,-0.568536 -0.343365,-0.0018 -0.124659,0.452045 0.622454,0.497147 0.343365,0.0018 z m 1.087549,0.140666 c -0.09837,-0.625892 0.125738,-1.389692 -0.510929,-1.652719 -0.563479,-0.872732 -0.685087,-1.853083 -0.620049,-2.868792 0.07262,-0.60277 -0.182724,-1.698325 -0.978862,-1.364934 -0.495217,0.0556 -1.158349,0.30471 -0.935473,-0.45097 0.390003,-0.732323 1.186043,-1.300464 2.07395,-1.100405 1.13501,-0.002 2.274168,-0.04052 3.393298,0.184354 1.112895,0.129516 2.185094,0.525689 3.178071,1.032901 0.613035,0.646728 1.265692,1.2823 1.807095,1.9889 0.173194,1.121062 1.279242,0.567368 2.018522,0.962964 -0.206656,0.878045 -0.104303,1.864723 -0.240885,2.736846 -0.912434,0.225775 -1.904955,0.167723 -2.847119,0.302227 -1.406583,0.137921 -2.809382,0.326265 -4.225887,0.264756 -0.695106,-0.01929 -1.455366,0.04252 -2.109932,-0.02724 z m 7.830127,-1.341 c 0.614633,0.156658 0.867303,-0.916976 0.119335,-0.551643 -1.385949,0.220524 -2.802143,0.130419 -4.201319,0.214925 -0.655669,0.204943 -2.093118,-0.349654 -2.220269,0.509301 0.422587,0.483676 1.613804,-0.03926 2.299779,0.107341 1.196974,-0.06108 2.4077,-0.03684 3.595565,-0.165175 z m -1.445813,-2.351407 c -0.487153,-0.525586 -0.906337,-1.302619 -1.240277,-1.214694 -1.056319,-0.182988 -2.113814,-0.06073 -3.853761,-0.04035 0.116809,0.456469 -0.129793,1.300613 0.230907,1.514078 l 4.794338,-0.190167 z"/><path style="fill:#000;stroke-width:.155857" id="car-12" d="m 50.474801,23.919681 c -0.825295,-0.0559 -1.681182,-0.0042 -2.488118,-0.12464 -0.593079,-0.135461 -0.54302,-0.588263 -0.870508,-0.933472 -0.699292,-0.608662 -1.262532,-1.424517 -2.200982,-1.668978 -0.417045,-0.190709 -0.222039,-0.86206 -0.384556,-1.252651 -0.196305,-0.499172 -0.664617,-0.930609 -0.601818,-1.494302 0.670252,0.309182 1.03923,-0.722152 1.726569,-0.541473 1.470457,-0.0092 2.949354,-0.116706 4.414663,-0.06585 0.926152,0.18056 1.877767,0.287174 2.68072,0.825491 0.971263,0.440761 1.537828,1.43367 2.444382,1.988345 0.364166,0.349521 1.030091,0.261515 1.366668,0.580652 0.179174,0.704621 -0.04988,1.4589 -0.03476,2.183472 -1.262488,0.370775 -2.582505,0.482421 -3.886255,0.578061 -0.722001,-0.02486 -1.444003,-0.04978 -2.166004,-0.07465 z M 48.60452,22.754559 c 0.137286,-0.566155 -0.496413,-0.717268 -0.50092,-0.08713 0.01246,0.472565 0.621899,0.769135 0.50092,0.08713 z m 6.872371,-0.373767 c 0.658181,-0.19756 -0.271071,-0.674673 -0.643311,-0.543046 -1.238249,0.07982 -2.476497,0.159643 -3.714745,0.239472 -0.461791,0.671934 0.451042,0.498154 0.868652,0.489253 1.117125,-0.06343 2.261366,0.01437 3.361354,-0.138324 l 0.07813,-0.02892 z M 53.903647,20.74234 c -0.02507,-0.483963 -0.618129,-0.740171 -0.878389,-1.129819 -0.78443,-0.573577 -1.801624,-0.320221 -2.71241,-0.373938 0.165645,0.582479 0.08207,1.414432 0.707451,1.709653 0.961116,0.0018 1.922232,0.0029 2.883348,0.0047 z m -8.260405,-0.568612 c 0.257496,-0.695991 -0.785372,-0.58229 -0.437722,0.05231 0.06682,0.562603 0.591465,0.581701 0.437722,-0.05231 z m 3.457955,-0.393707 c 0.12702,-0.639948 -0.468503,-0.740777 -0.932493,-0.939751 -0.39479,-0.263483 -1.029884,-0.307892 -1.369357,-0.06528 -0.285711,0.603073 0.611152,0.635518 0.957126,0.933785 0.430711,0.200506 0.970479,0.520639 1.252166,0.737997 0.304811,-0.08286 0.06219,-0.447642 0.09256,-0.66675 z"/><path d="m 64.284764,23.715527 c -0.783861,-0.12756 -1.689313,0.09121 -2.367234,-0.384624 -0.582524,-0.621297 -1.105955,-1.327864 -1.725241,-1.896112 -0.406475,-0.242837 -1.111717,-0.241621 -1.313595,-0.65158 -0.04121,-0.701733 -0.307622,-1.329618 -0.65835,-1.929859 0.247543,-0.518842 0.74783,-0.895168 1.238019,-1.133166 2.035391,0.02781 4.090869,-0.03509 6.113758,0.04915 0.753117,0.393289 1.647947,0.58868 2.154946,1.325667 0.456782,0.58891 1.078247,0.974302 1.716206,1.339315 0.08005,0.6722 0.929713,0.106848 0.98446,0.738575 0.04509,0.595459 0.09018,1.190911 0.13527,1.78637 -0.442476,0.390163 -0.975388,0.53297 -1.555515,0.546629 -1.448154,0.169576 -2.899809,0.432541 -4.358903,0.232699 -0.121263,-0.0077 -0.242596,-0.01542 -0.363821,-0.02305 z m -1.603733,-1.026685 c 0.0413,-0.458476 -0.35337,-1.193491 -0.453327,-0.397188 -0.02407,0.33036 0.418482,1.166109 0.453327,0.397188 z m 6.434804,-0.589191 c 0.549271,0.144902 1.023233,-0.457444 0.27859,-0.432729 -1.336494,-0.01 -2.666445,0.151461 -3.999777,0.22435 -0.666856,0.360592 -0.02429,0.641866 0.453249,0.453259 1.088828,-0.08252 2.188494,-0.07616 3.267938,-0.24488 z m -1.11391,-1.499984 c -0.204212,-0.437036 -0.494074,-0.943549 -0.82452,-1.287087 -0.731608,-0.285718 -1.537511,-0.131838 -2.30522,-0.20401 -0.588452,0.145463 -0.204973,0.707897 -0.158695,1.117218 -0.03438,0.673377 0.651443,0.405325 1.095916,0.452754 h 2.192519 z m -8.192927,-0.603871 c 0.235611,-0.633603 -0.865958,-0.418864 -0.302098,0.07837 0.137561,0.434226 0.384069,0.380645 0.302098,-0.07837 z m 3.432227,-0.118608 c -0.06697,-0.482974 -0.104521,-0.872433 -0.660679,-1.006443 -0.427598,-0.19686 -1.058628,-0.813937 -1.424961,-0.227498 -0.678279,0.431066 0.257492,0.592447 0.598262,0.85325 0.635725,0.100224 0.497554,0.790953 1.106277,0.684105 0.347756,-0.01583 0.588036,0.205811 0.381101,-0.303414 z" style="fill:#000;stroke-width:.0401429" id="car-13"/><path d="m 35.049737,24.017023 c -0.452562,-0.01685 -0.897652,-0.08338 -1.335324,-0.19927 -0.05576,-0.52024 -0.282061,-0.937716 -0.728242,-1.222743 -0.478548,-0.316922 -0.804237,-1.032493 -1.451505,-0.909414 -0.312162,-0.182495 -0.667142,-0.673984 -0.70259,-1.080008 -0.294248,-0.633396 0.456863,-0.49587 0.09276,-0.897393 -0.444158,0.204305 -0.975463,-0.330145 -0.569439,-0.659749 0.452109,-0.36906 0.790508,-0.985133 1.452971,-0.897226 1.774665,-0.291254 3.56703,-0.0083 5.351583,0.02139 0.707369,0.02915 1.278257,0.576429 1.927749,0.825289 0.814729,0.591188 1.45784,1.447056 2.260839,2.041088 0.350974,0.203834 1.211782,0.0084 1.078374,0.591566 v 1.934508 c -1.792672,0.604123 -3.696969,0.403059 -5.554421,0.484746 -0.609187,0.01081 -1.216126,0.04375 -1.822754,-0.03277 z m -0.304211,-1.266682 c 0.223576,-0.694185 -0.73917,-0.559729 -0.456328,0.0813 -0.193935,0.602828 0.712092,0.492857 0.456328,-0.0813 z m 5.576989,-0.171503 c 0.494616,-0.05548 1.058066,0.122062 1.458933,-0.250826 -0.167853,-0.557998 -0.822294,-0.202312 -1.249844,-0.272661 -1.092104,0.04209 -2.184208,0.0842 -3.276308,0.12631 -0.513421,0.524711 0.24732,0.707798 0.69033,0.535111 0.791158,-0.08101 1.580919,-0.141786 2.376889,-0.137934 z m -1.127846,-1.599316 c 0.695882,0.09492 0.684781,-0.44682 0.162133,-0.740556 -0.364167,-0.308551 -0.637277,-0.841541 -1.190975,-0.682889 H 36.53101 c 0.06525,0.50692 0.214833,1.006532 0.192015,1.521079 0.82363,-0.03156 1.660366,0.07469 2.471644,-0.09763 z m -3.844095,-1.022663 c -0.129294,-0.427186 -0.683125,-0.674127 -0.978339,-1.030871 -0.346546,-0.21884 -1.033412,-0.20541 -1.366426,-0.0051 -0.540486,0.369198 0.270874,0.622416 0.503234,0.925304 0.317647,0.383145 0.801346,0.301182 1.06862,0.759039 0.227853,0.520331 0.69695,-0.429819 0.772911,-0.648147 z m -3.571147,0.385111 c -0.07446,-0.716503 -0.776768,0.610457 -0.127512,0.219938 0.166421,-0.0165 0.127777,-0.08678 0.127512,-0.219938 z" style="fill:#000;stroke-width:.0402452" id="car-11"/></svg>