<svg xmlns="http://www.w3.org/2000/svg" viewBox="0 0 1096 947.82"><defs><style>.cls-1{fill:#fff;}.cls-2{fill:#00002f;}.cls-3{fill:#31ff44;}.cls-4{fill:#ff3131;}</style></defs><g id="Layer_2" data-name="Layer 2"><g id="Logo_4" data-name="Logo 4"><g id="C.SAGE_Logo" data-name="C.SAGE Logo"><circle class="cls-1" cx="965" cy="759.93" r="68.18"/><path class="cls-2" d="M965,834.93a75,75,0,1,1,75-75A75.09,75.09,0,0,1,965,834.93Zm0-136.37a61.37,61.37,0,1,0,61.36,61.37A61.43,61.43,0,0,0,965,698.56Z"/><g id="EyeAlt"><path id="Lip" class="cls-2" d="M378.8,857.31c4.35-6.94,2.57-9.94,1.67-11-.13-.14-.21-.33-.41-.59-.91-1.17-1.95-1.52-4.48-2.7l-1.9-.91a18.14,18.14,0,0,1,13.69-1.29,17.84,17.84,0,0,1,9.38,7.19c-.22.17-.5.53-.66.48-3-.84-5.8-1.58-8.31-1.17-3.26.54-4.54,6.83-5.46,9.78-1.73,5.54-6.32,12.66-19,19.44C368.5,870.15,374.42,864.28,378.8,857.31Z"/><path class="cls-2" d="M363.29,738.18q6.39-3.78,13.38-7.56t13.69-7C384.3,758,372.18,819,330.79,866.21c-7.82,8.92-14.14,14.78-20.24,19.37A140.55,140.55,0,0,1,292,897.12c-28.29,14.43-77.39,16.9-80.78,17,11.2-1.28,76.64-9.86,119.62-68.45C363.73,800.81,363.86,753.27,363.29,738.18Z"/><path class="cls-2" d="M210.88,909.19c-6.44-23.28-6.83-48.06-4.11-72.72A177.4,177.4,0,0,1,214.93,800c1.08-3,2-6,3.29-8.86l3.78-8.69c2.86-5.65,5.79-11.31,8.95-16.53a134.55,134.55,0,0,1,23.74-30.4,103.67,103.67,0,0,1,16-12.18,94.55,94.55,0,0,1,18.49-8.44,86.92,86.92,0,0,1,19.73-4.41,62.64,62.64,0,0,1,10.43,0,57,57,0,0,1,10.29,2c13.41,3.85,25,13.12,29.93,25.46a174.72,174.72,0,0,0-17.48-4.8,90.64,90.64,0,0,0-30.9-1.06,79.93,79.93,0,0,0-15.3,3.45c-20,6.12-36,21.69-48.66,40.7-3.39,4.83-6.17,9.73-9.19,14.52l-4,7.52c-1.38,2.49-2.38,5.16-3.64,7.73a192.51,192.51,0,0,0-11.12,32.67C213.64,861.28,210.25,885.08,210.88,909.19Z"/><path class="cls-2" d="M822.57,446a688.72,688.72,0,0,0-64.35-94.94c-25-30.83-37.5-46.24-58-60.53-54.85-38.27-115.59-37-135.71-36.32-53.52,1.84-92.09,21-117.24,33.77C412.87,305.54,387.81,328,337.7,372.75l-94.79,91.14a7.81,7.81,0,0,1-9.81.86,298.56,298.56,0,0,0-90.37-41c-37.94-10-60.84-12.75-75.82-7.65C-10.78,442.53,1.85,630.29,2.56,641c1.06,15.92,2.93,29.1,4.46,38.23-4.82,16.13-10.38,43.2-4.46,75.19,7.15,38.61,27.25,64,42.69,83.46,21.73,27.43,43.49,43.4,59.25,54.8,21.32,15.41,54.09,40.22,101.95,51.61,21.18,5,87.66,10.51,155-28a236.35,236.35,0,0,0,82-79q39.06-71.84,77.73-150.37,28.53-58.15,53.89-114.32a6.63,6.63,0,0,1,7.4-3.78c16.28,3.36,41.6,7,69,17.11,70.81,26.25,102.17,60.55,166.61,98.44A795.65,795.65,0,0,0,950,746.12C943.65,727.61,883.8,554.49,822.57,446ZM438.21,835.41a231,231,0,0,1-79.47,76.13c-43.42,24.87-86.72,30.09-115.39,30.09a240.58,240.58,0,0,1-31.77-2.09c-3.18-55.66,4.51-108.93,22.88-158.4,17.23-46.39,36.75-99,83.92-114.62a98.63,98.63,0,0,1,30.69-4.86h0c12.61,0,30.79,2.46,45.82,14.19,17.21,13.42,22.38,34.53,32.44,81q1.07,4.89,2.05,9.4C436.28,797.82,440.15,815.51,438.21,835.41Z"/></g><g id="Christmas"><path id="HeadFull" class="cls-2" d="M822.57,446a688.72,688.72,0,0,0-64.35-94.94c-25-30.83-37.5-46.24-58-60.53-54.85-38.27-115.59-37-135.71-36.32-53.52,1.84-92.09,21-117.24,33.77C412.87,305.54,387.81,328,337.7,372.75l-94.79,91.14a7.81,7.81,0,0,1-9.81.86,298.56,298.56,0,0,0-90.37-41c-37.94-10-60.84-12.75-75.82-7.65C-10.78,442.53,1.85,630.29,2.56,641c1.06,15.92,2.93,29.1,4.46,38.23-4.82,16.13-10.38,43.2-4.46,75.19,7.15,38.61,27.25,64,42.69,83.46,21.73,27.43,43.49,43.4,59.25,54.8,21.32,15.41,54.09,40.22,101.95,51.61,21.18,5,87.66,10.51,155-28a236.35,236.35,0,0,0,82-79q39.06-71.84,77.73-150.37,28.53-58.15,53.89-114.32a6.63,6.63,0,0,1,7.4-3.78c16.28,3.36,41.6,7,69,17.11,70.81,26.25,102.17,60.55,166.61,98.44A795.65,795.65,0,0,0,950,746.12C943.65,727.61,883.8,554.49,822.57,446Z"/><path id="Lip-2" data-name="Lip" class="cls-3" d="M378.8,857.31c4.35-6.94,2.57-9.94,1.67-11-.13-.14-.21-.33-.41-.59-.91-1.17-1.95-1.52-4.48-2.7l-1.9-.91a18.14,18.14,0,0,1,13.69-1.29,17.84,17.84,0,0,1,9.38,7.19c-.22.17-.5.53-.66.48-3-.84-5.8-1.58-8.31-1.17-3.26.54-4.54,6.83-5.46,9.78-1.73,5.54-6.32,12.66-19,19.44C368.5,870.15,374.42,864.28,378.8,857.31Z"/><path class="cls-4" d="M363.29,738.18q6.39-3.78,13.38-7.56t13.69-7C384.3,758,372.18,819,330.79,866.21c-7.82,8.92-14.14,14.78-20.24,19.37A140.55,140.55,0,0,1,292,897.12c-28.29,14.43-77.39,16.9-80.78,17,11.2-1.28,76.64-9.86,119.62-68.45C363.73,800.81,363.86,753.27,363.29,738.18Z"/></g><g id="SAGE"><path id="E" class="cls-4" d="M715.77,512.27c4.06,3.52,8.53,4.39,11.49,5,11.46,2.24,21.1-2.45,25-4.66a15.86,15.86,0,0,1-9.94-6.05,14.55,14.55,0,0,1-2.89-10.89c1.07-6.59,6.61-9.76,7.33-10.15,7.39-4.07,17.8-2.64,23.93,3.44s7.39,16.18,4.4,23.34c-7.44,17.84-41.2,18.31-56.53,16.62-8.69-.95-18.63-2.17-28.22-9.32-10.75-8-16.59-17.9-20.29-30.44-4.81-16.31-7-32.11-6.93-43.27a10.72,10.72,0,0,1,10.72-10.58c21.88-.14,45.3.75,66.61.22a2,2,0,0,0,1-3.68L650.86,374a15.66,15.66,0,0,1-6.53-8.53c-4.16-13.23-6-23.68-9.53-36.75a2.7,2.7,0,0,1,3.42-3.35c20.33,6.74,42,13.93,68.29,29.4,26.11,15.38,60.65,49.27,72.81,60.45a1.18,1.18,0,0,0,1.85-1.4c-13.76-27.23-74.76-135.32-181-143.73-27.8-2.2-52.62.34-73.06,6a11.16,11.16,0,0,0-8,13L580.58,553a8.79,8.79,0,0,0,7.49,6.73,343.69,343.69,0,0,1,73.14,17.42c50.12,18,81.72,42.71,105.77,59.89,35.34,25.25,88.65,58.65,163.91,90.32C867.78,565,807.75,460.22,792.31,453.5c-13.54-5.88-47.47-3.81-56.35-1.17-7.34,2.17-19.43,5.92-25.31,17.23-3.75,7.22-4.44,15.63-4,22C707.15,498.6,709,506.38,715.77,512.27Z"/><path id="G" class="cls-4" d="M303.78,427.87a7.75,7.75,0,0,0-.44,11.44C338,473.69,371.76,518,409.7,567c36.64,47.39,64.3,90.59,89.76,132.46,23.26-45.87,44.68-85.58,67.93-131.45l-39.54-170.5a3.31,3.31,0,0,0-5-2c-14.86,9.24-78.61,45.24-85.42,70.07-3.49,12.75,10.59,38.51,24.24,40.65,5.14.8,12.61-1.78,18-6.21a27.58,27.58,0,0,0,7.17-9.08,95.79,95.79,0,0,0,3.53-10.52,14.52,14.52,0,0,1-4.2,2.3,15,15,0,0,1-5.83.76c-2-.09-4.88-.22-7.36-2-3.06-2.2-3.84-5.7-4.3-7.75a21.84,21.84,0,0,1,2.19-14.52c3.78-7.23,14.94-12.61,21.4-10.47,3,1,3.77,3.53,10.61,21.79,6.11,16.32,6.5,17,6.3,19.21-.29,3.36-1.74,8.33-23.79,26.38,0,0-7.35,6-23.79,18.35a5.87,5.87,0,0,1-8.15-1.13c-7.86-10.32-20.24-25.07-28.09-39.25-10.56-19.07-16.89-30.58-23.28-46a13.47,13.47,0,0,1,1.35-13.45c6.7-8.78,15.65-19.7,22.89-28.07a244.53,244.53,0,0,1,20.47-21,8.7,8.7,0,0,1,12.49.73l18.36,21.43c15-12.3,29.76-20,42.25-30.24a8.17,8.17,0,0,0,2.83-4.58c6-28-7-55.27-29.35-65.51-25.29-11.6-50.67,4.05-52.56,5.25Z"/><path id="A" class="cls-4" d="M488.63,707.93a1370.69,1370.69,0,0,0-83.07-127.47c-37.48-51.05-76.85-95.33-112.4-132.67-3.19-3.35-8-3.45-12.19-1.39-7.87,3.9-13.2,6.79-24.61,19.86-14,16.07-28.49,47.14-38.37,76.2-10.7,31.46-20.46,72.41-22.6,113.79-2.11,40.76-4.79,88,7.55,155.34,21.92-58.93,43.85-96.42,58.14-116.6,8.55-12.07,27-34.39,48.25-43.24,12.44-5.18,28.9-7.92,51.47-6.22,22.22,1.68,34.88,8.21,43.8,14.58,22.2,15.86,32.34,81.71,46.19,143.36l38.36-83.86A12.75,12.75,0,0,0,488.63,707.93ZM267.26,648.44a172.11,172.11,0,0,1,8.06-104.63,2.15,2.15,0,0,1,3.57-.65,338.52,338.52,0,0,1,29.66,37.22c6.49,9.43,12.08,18.59,16.91,27.26a1.35,1.35,0,0,1-1.24,2c-7.61-.19-27.9.77-43.41,16.24A55.26,55.26,0,0,0,267.26,648.44Z"/><path id="S" class="cls-4" d="M187.69,602.79c.63-3.67,2-11.23-1.19-14.84-13.92-15.56-52.61-4.23-78.33-17.2-14.93-7.53-21-24.23-18.67-42.21,1.43-10.87,4-20.09,15.13-28.15s22.54-9.31,36.67-5.8c17.73,4.42,22,22.57,22.55,24-3.25-2.42-9.58-9.8-20.7-11.41a52.27,52.27,0,0,0-12.12,0,17.34,17.34,0,0,0-11.86,6.11c-3.1,3.81-6.46,9.56-6.56,16.6-.19,13.33,5.14,20,11.41,22.83,9.11,4.11,24.94,4.78,39.54,8.36,15.56,3.81,12.19,2.89,20,4.74a12.4,12.4,0,0,0,8.9-1.74,12.25,12.25,0,0,0,5.3-7.35c2.52-10,5.67-20.72,9.63-32a361.52,361.52,0,0,1,16.18-38.6c2.12-4.33,1.51-10-2.43-12.74-18.47-13-96.5-46.22-121.11-47.41-18.85-.92-28,.23-40.6,8.92C31.73,454,22.33,487.77,20.11,519.26c-2.35,33.19-4.89,49,.23,137.31A6.78,6.78,0,0,0,27.05,663c12.79.1,27.84-.1,45.28,1.7,18,1.85,35.77,6.26,46,14.61,6.85,5.58,11.43,19.08,10.83,29.83-.55,9.9-2.52,13.79-8.76,21.1-6.49,7.62-16.1,8.23-22,8.61s-14.82.9-21.66-5.42c-1-1-6.48-6.47-6.37-14.65.06-4.48,1-10.48,6.21-14.42a11,11,0,0,1,12.54.12c4,3.14,3.31,11.68,3.11,12.66a11.81,11.81,0,0,1-4.66,7s11.64,1,17.54-6c5.24-6.24,4.06-23-3.52-28.21-12.31-8.46-56.41-9.21-69-1.14-12.91,8.28-16.79,15.47-18.32,39.82C12,766,31.23,794.86,31.23,794.86c5.45,10.2,22.2,39.43,71.2,78.85a493.46,493.46,0,0,0,98.76,61.65c-3.56-51.08-7.56-92.69-11.21-121.67-11.91-92.36-12.38-104.86-11.57-135.9C179.11,651,184.49,621.41,187.69,602.79Z"/></g><g id="Christmas-2" data-name="Christmas"><path class="cls-2" d="M248.83,366.92a58.74,58.74,0,0,1-22.64-4.6,74.46,74.46,0,0,1-27.59-19.83A94.29,94.29,0,0,1,181.25,313a141.85,141.85,0,0,1-8-35.38,207.4,207.4,0,0,1-.1-38.78,304.36,304.36,0,0,1,4.39-31.07q1.14-5.82,2.55-11.66a53.41,53.41,0,0,1-4.58-3.18c-8.73-6.76-14.8-16.51-17.54-28.21-3-12.85-2.6-26.46,1.21-40.45a138.45,138.45,0,0,1,17.54-38.5,192.37,192.37,0,0,1,28.71-34.55,205,205,0,0,1,35.43-27.31,208.64,208.64,0,0,1,18.57-10,180.8,180.8,0,0,1,18.76-7.69,121.49,121.49,0,0,1,17.94-4.72c7.22-1.26,13.41-1.33,18.92-.2l1.4.33a26.42,26.42,0,0,1,7.7,3.52,91,91,0,0,1,22.9-4.9A58.47,58.47,0,0,1,381,7.52a44.57,44.57,0,0,1,18.52,18.22,60.7,60.7,0,0,1,6.69,20.52,82.94,82.94,0,0,1,.29,20.26,149.49,149.49,0,0,1-2.83,17.33l-.11.46A166,166,0,0,1,390.52,119a311.09,311.09,0,0,1-18.08,31A347.48,347.48,0,0,1,351,178.8,172.9,172.9,0,0,1,323,206.24,92.61,92.61,0,0,1,303,218a60,60,0,0,1-22.53,5.2,41.68,41.68,0,0,1-24.31-7.16,35.86,35.86,0,0,1-5.23-4.36,277.81,277.81,0,0,0-3,29.31c-.81,16.08,1.36,31,6.43,44.34a22,22,0,0,0,5.84,8.74,12.53,12.53,0,0,0,6.73,3.16,13.45,13.45,0,0,0,8.9-1.76A53.92,53.92,0,0,0,290,284.35a85.7,85.7,0,0,0,12.55-17.5,72.84,72.84,0,0,0,6.74-16.21c0-.31,0-.55,0-.73a25.67,25.67,0,0,1,5.3-22.56A23.46,23.46,0,0,1,343,221.44a25.77,25.77,0,0,1,11.37,11.21,31.8,31.8,0,0,1,3.14,19.21,71.7,71.7,0,0,1-1.75,9.12,93.32,93.32,0,0,1-5.46,16.91c-2.14,5-4.63,10-7.39,15l-.17.29a219.57,219.57,0,0,1-19.42,28.14,162.46,162.46,0,0,1-25.16,25.48A98.41,98.41,0,0,1,266.94,364,58.66,58.66,0,0,1,248.83,366.92Z"/><path class="cls-2" d="M327,286.07l4.45-37.65c4-33.74,9.54-67.95,16.51-101.67l.18-.79c3.33-13.53,7.35-27.22,11.95-40.67a244.5,244.5,0,0,1,17.36-39.51,136,136,0,0,1,24.31-32.19c11.14-10.69,23.94-17,37-18.19a34.69,34.69,0,0,1,23.42,6.28c4.61,3.24,15,13,11.19,32.76-1.14,6-3.74,12.59-8.2,20.79A34,34,0,0,1,482.4,86.92c12.45,16,5.35,36.79,3,43.67a138.18,138.18,0,0,1-7.71,17.93l5.16,5.41c1.67,1.77,2.51,2.65,4.17,4.43l9.81,10.51L491,182a172.61,172.61,0,0,1-11.76,22,155.49,155.49,0,0,1-13.41,18.3,95.56,95.56,0,0,1-15.38,14.5,56.52,56.52,0,0,1-18.79,9.36c-10.5,2.81-20,2.23-28.35-1.72l-1.71,10.67-11.89,4.39c-11.32,4.18-16.82,6.4-28,11.32Z"/><path class="cls-2" d="M499,233.16a39.33,39.33,0,0,1-22.76-6.73c-5.71-3.92-13.11-11.41-15.9-24.87a51.82,51.82,0,0,1-1-8.36,24,24,0,0,1-13.08-14.91,26.82,26.82,0,0,1,0-15.2l.44-1.55.65-1.46c3.23-7.28,6.66-14.69,10.17-22a225.41,225.41,0,0,0,9.07-21.76,106.2,106.2,0,0,0,5.06-20.05,27.71,27.71,0,0,0-1-12.78,41.29,41.29,0,0,1-1.43-22A35.28,35.28,0,0,1,479,43.63a34.21,34.21,0,0,1,17.74-9.07A33.23,33.23,0,0,1,534,56.18a34.12,34.12,0,0,1,1.81,8.3c.92-.14,1.83-.25,2.73-.36,16.24-1.88,26.1,3.31,31.52,8A31.86,31.86,0,0,1,580.86,95.7c.32,11.56-4.8,24.09-18.47,44.23l6.6,9.53c1.43,2,2.13,3.08,3.53,5.14l7.89,11.64L573,178.19a164.78,164.78,0,0,1-11.79,16.73,148.1,148.1,0,0,1-12.81,14l-1.2,1.14-1.07.75a104.85,104.85,0,0,1-19,14.13c-8.09,4.63-15.62,7.23-23,8C502.39,233.07,500.66,233.16,499,233.16ZM492.6,68.3Z"/><path class="cls-2" d="M561.38,231c-.47,0-1,0-1.44,0-16.32-.48-34.37-10.5-36.07-37.16-1-15.33,3.52-34,13.39-55.52,11.66-25.1,18.06-37.86,31.18-62.15l5-9.32A37.68,37.68,0,0,1,590,32.58,42.93,42.93,0,0,1,619.67,25a45,45,0,0,1,15.53,4.67l1.93,1.08a40,40,0,0,1,15.16,15.52,36.46,36.46,0,0,1,3.88,23.45c-.12.78-.27,1.56-.44,2.32l1.78.22-4.22,7.08a36.21,36.21,0,0,1-4.12,6.89l-8.66,14.5c-9.66,16.18-15,25.54-22.67,39.81l7.82,14c1.25,2.22,1.86,3.33,3.08,5.57L635.19,172l-7.75,11c-9.71,13.81-19.08,24.49-28.63,32.66C586.87,225.82,574.29,231,561.38,231ZM614.15,66.87l.85.1L616.71,64a7.16,7.16,0,0,0-1.52-4.53s0,0,0,0a6.16,6.16,0,0,0-1.77,3.32A7,7,0,0,0,614.15,66.87Z"/><path class="cls-2" d="M627.83,237.5a84.57,84.57,0,0,1-13.24-1.07c-16.46-2.64-29.39-9.78-38.42-21.24-6.91-8.77-14.07-23.8-9-45.61a45.47,45.47,0,0,1,37.31-34.18c1-1.21,2-2.43,3-3.67q5.22-6.24,10.67-12.84c3.61-4.38,7.16-8.78,10.54-13.06,1.62-2,3.32-4,4.81-5.66.84-.94,2-2.25,2.68-3.1.39-1.07.84-2.5,1.28-3.89,2.21-7,5-15.78,12-22.58,7.76-7.54,16.46-12.18,25.86-13.8a47.78,47.78,0,0,1,7.83-.71l.49-.55-.06.55a40.93,40.93,0,0,1,18.54,4.39c11.91,6.07,18.43,17.29,17,29.26-.94,7.69-5.62,18.29-22.62,25.18q-2.81,1.13-6,2.69c1.53,5.92,3.16,12.1,4.85,18.51,1.13,4.25,2.11,8.65,2.94,13.15l3.23-2.86,11.23,29.16c.94,2.45,1.4,3.67,2.32,6.12l4.78,12.78-9.46,9.83a97.41,97.41,0,0,1-23.73,18.06c-7.8,4.24-16.25,5.92-22.42,7.14-1.83.36-3.55.7-4.71,1-.68.18-2.57.9-3.94,1.42A82.26,82.26,0,0,1,641,236.35,74,74,0,0,1,627.83,237.5Z"/><path class="cls-2" d="M701.29,256.54a45.44,45.44,0,0,1-15-2.45c-18.6-6.42-28.21-23.09-25.71-44.59,1.8-15.53,9-32.76,21.49-51.21,2.94-4.26,6.16-8.71,9.7-13.38s7.49-9.63,11.4-14.33l1.19-1.41-23.74-8.06,32-24.69c2.68-2.07,4-3.09,6.74-5.13l9.25-7,10.93,3.82,5.72,2a64.61,64.61,0,0,1,29.06-9.85A74.69,74.69,0,0,1,807.67,85l31.7,12.33-24.53,23.49,27.24,14-27.6,20.79c-2.33,1.76-3.5,2.64-5.81,4.42l-10.81,8.31-12.17-6.15c-2.56-1.3-4.73-2.38-6.75-3.37-5.38,6-10,11.27-16.12,18.5l6,21.21c.72,2.55,1.08,3.82,1.78,6.38l3.66,13.37-10.61,8.93c-12.77,10.75-24.73,18.44-36.56,23.52C718,254.59,709.37,256.54,701.29,256.54Z"/><path class="cls-2" d="M844.83,329.85a75.26,75.26,0,0,1-17.84-2A52,52,0,0,1,807.85,319c-8-6-13.44-13.24-16.31-21.27L786,303.18l-14.36-8.78c-9.76-6-14.61-8.73-24.69-14l-6.16-3.25L734.33,274c-10.14-4.93-15.16-7.18-25.58-11.44l-26.81-11L700,229c18.39-23,36.88-44.89,56.45-66.73a61.22,61.22,0,0,1,8.54-16,54.56,54.56,0,0,1,13.79-13.09,41.07,41.07,0,0,1,19.88-6.68,40.18,40.18,0,0,1,40.06,26.31,54.36,54.36,0,0,1,32.11,9.1c9.59,6.56,16.19,15.44,19.17,25.76l1,.11A53.93,53.93,0,0,1,921,200.17c14.7,12.5,18.23,25.47,18.6,34.15.4,9.51-2.68,23.43-19.64,35.76l-1.09.75a78.52,78.52,0,0,1-16.38,8.68l.62,11.87c.14,2.75.21,4.13.33,6.88l.66,14.49-13.15,6.13a121.86,121.86,0,0,1-21.79,7.81,101.43,101.43,0,0,1-21.67,3.12C846.57,329.84,845.7,329.85,844.83,329.85Z"/><path class="cls-2" d="M936.61,418.21q-4.14,0-8-.31c-15.44-1.23-27.91-7.49-37.08-18.58-7.63-9.22-10.19-18.38-10.48-26.1a45.89,45.89,0,0,1-24.95-12.59l-3-3a45.58,45.58,0,0,1-10.76-23.26,53.18,53.18,0,0,1,2.46-25.32,75.66,75.66,0,0,1,13-23,96.28,96.28,0,0,1,23.05-20.44,105.38,105.38,0,0,1,31.73-13.94,98.25,98.25,0,0,1,31.17-2.87A78.63,78.63,0,0,1,972,256.21a58,58,0,0,1,22,17.72,56.5,56.5,0,0,1,5.5,9.15l1.87-.7,9.8,12.53c9.86,12.62,14.8,19.33,24,32.65l16.8,24.27-28.19,8.76c-15,4.66-25.32,8.11-36.41,12.33l-1.61,15.78c-.28,2.83-.43,4.24-.74,7.06l-1.72,15.68-15.45,3.19A155.6,155.6,0,0,1,936.61,418.21Z"/><path class="cls-2" d="M989.24,489.85a54.64,54.64,0,0,1-20.63-4.22,76.77,76.77,0,0,1-21.93-14c-6.69-5.9-13-13.43-19.26-23C918,434.2,913.25,420.08,912.9,405.4c-.42-17.3,6-32.22,18.6-43.14a36.58,36.58,0,0,1,33.2-8,43.07,43.07,0,0,1,18.7,9.78l2.18-.2c4.77-.42,9.68-.87,14.7-1.34s9.88-1,14.58-1.58l6.95-.83a42.81,42.81,0,0,1,16.56-8.88c9-2.35,17.09-2,24.78,1l1,.38a47.63,47.63,0,0,1,16.32,10.82,57,57,0,0,1,10,13.75,48.66,48.66,0,0,1,5.16,15.54c1.28,9.14-1.09,17.53-6.69,23.64-4.32,4.72-16.55,14.31-37.33,2.47q-2.19,6.68-4.47,13.74a197.62,197.62,0,0,1-9.38,23.62,63.1,63.1,0,0,1-19.93,24.33,47.9,47.9,0,0,1-23.79,9.11Q991.67,489.85,989.24,489.85Z"/><path class="cls-3" d="M309.32,25.94a91,91,0,0,0-36.92,9.44,138.32,138.32,0,0,0-33.17,22.84,160.82,160.82,0,0,0-26.11,31.07,151.51,151.51,0,0,0-16.35,33.33,88.5,88.5,0,0,0-3.7,16.34,52.55,52.55,0,0,0,.13,15,30.83,30.83,0,0,0,4.86,12.42,22.67,22.67,0,0,0,11,8.31,323.88,323.88,0,0,1,15-35.3,298.8,298.8,0,0,1,20.44-35c3.9-5.76,8.69-12.34,14.43-19.67A256.56,256.56,0,0,1,278,63.07a229.6,229.6,0,0,1,22.41-20,118.63,118.63,0,0,1,24.17-14.82,72.81,72.81,0,0,1,24.19-6.45,37.15,37.15,0,0,1,21.8,4.71,23.23,23.23,0,0,1,9.9,9.56,38.81,38.81,0,0,1,4.28,13.23,60.57,60.57,0,0,1,.19,15,126.79,126.79,0,0,1-2.42,14.83,143.19,143.19,0,0,1-11.35,30.08A285.09,285.09,0,0,1,354.36,138a326.42,326.42,0,0,1-20.07,27,151,151,0,0,1-24.55,24,70.93,70.93,0,0,1-15.32,9,38.46,38.46,0,0,1-14.34,3.45,19.62,19.62,0,0,1-11.71-3.37c-3.39-2.32-5.93-6.11-7.48-11.37a64.89,64.89,0,0,1-2.31-15.94,109.85,109.85,0,0,1-23.34,9.3,304.91,304.91,0,0,0-9,59.76c-1,19.66,1.83,37.36,7.81,53.12a43.77,43.77,0,0,0,11.55,17.1,34.24,34.24,0,0,0,17.84,8.5,35,35,0,0,0,22.54-4,75.86,75.86,0,0,0,19.92-15.51,107.31,107.31,0,0,0,15.69-21.85,90.74,90.74,0,0,0,9.26-23.41,27.21,27.21,0,0,0-.27-8.29,4.41,4.41,0,0,1,.56-4.15,1.72,1.72,0,0,1,2.2-.57,4.14,4.14,0,0,1,1.83,1.87,10.66,10.66,0,0,1,.85,6.37,48.78,48.78,0,0,1-1.33,6.78,71.12,71.12,0,0,1-4.3,13.46c-1.9,4.41-4.06,8.77-6.44,13.08a201.07,201.07,0,0,1-17.55,25.38,142.83,142.83,0,0,1-21.83,22.15,76.23,76.23,0,0,1-24.31,13.47,36.07,36.07,0,0,1-25.72-1.09,53.08,53.08,0,0,1-19.63-14.12,72.18,72.18,0,0,1-13.32-22.78,119.44,119.44,0,0,1-6.73-30,184.42,184.42,0,0,1-.08-34.72,279.21,279.21,0,0,1,4.08-28.83,250.24,250.24,0,0,1,7.52-29.1,36.34,36.34,0,0,1-17.56-7c-4.86-3.76-8.09-9.13-9.71-16-2.1-9-1.92-19,1-29.79a116.78,116.78,0,0,1,14.83-32.45,170.64,170.64,0,0,1,25.5-30.65A183.1,183.1,0,0,1,252.1,42.41a186.14,186.14,0,0,1,16.64-9,158,158,0,0,1,16.49-6.76,99.05,99.05,0,0,1,14.67-3.88,29.83,29.83,0,0,1,10.81-.32c1.53.42,2.25,1.08,2.16,2S311.6,25.83,309.32,25.94Zm-19.4,124.38q-5.73,4.59-11.62,8.59t-11.87,7.75a59,59,0,0,0-.66,14.12,21.88,21.88,0,0,0,4.06,11.41c3,4.1,6.69,6.07,11.11,5.57a31.93,31.93,0,0,0,13.64-5.31,89.27,89.27,0,0,0,13.62-10.9,102.72,102.72,0,0,0,10.73-11.8,223.8,223.8,0,0,0,18.48-28.87q8-15,15-29.65,3.82-7.45,7.85-15.85c2.67-5.58,5.1-11.14,7.25-16.7a112.83,112.83,0,0,0,5.05-16.6,60.28,60.28,0,0,0,1.44-16c-.27-5.14-1.88-9.22-4.92-12.2A22.08,22.08,0,0,0,357.53,28a38.6,38.6,0,0,0-15.83.61,66.72,66.72,0,0,0-17.51,6.77,113.25,113.25,0,0,0-30.91,25.37A220.7,220.7,0,0,0,271,91.31a280.57,280.57,0,0,0-18,36.2,492.32,492.32,0,0,0-16.54,47.14A65.71,65.71,0,0,0,247.8,171q5.53-2.37,11.05-5.26a97.15,97.15,0,0,1,4-22.17,171.42,171.42,0,0,1,8.35-22c2.17-4.65,4.8-9.74,7.93-15.24a116,116,0,0,1,10.92-16,111.92,111.92,0,0,1,13.59-14.09,62.64,62.64,0,0,1,16-10c5.41-2.39,10.73-3.43,15.73-2.75s7.81,3.4,8.43,8a26.65,26.65,0,0,1-1.94,13.1,104.22,104.22,0,0,1-6.09,13.21,152.73,152.73,0,0,1-20.07,27.93A229.8,229.8,0,0,1,289.92,150.32Zm-13.31-17.86c-1.68,4.17-3.34,8.61-4.84,13.26s-2.94,9.46-4.28,14.4a7.78,7.78,0,0,0,1.95-1.43,184,184,0,0,0,28.1-25.36q12.87-14.25,23.75-28.51,5.13-6.7,10.08-14a38,38,0,0,0,6.29-14.44c.5-2.73.09-4.74-1.24-6a7.81,7.81,0,0,0-5.08-2.11,18.94,18.94,0,0,0-7.06,1.13,29.27,29.27,0,0,0-7.52,3.81A63.26,63.26,0,0,0,302.67,85.4a110.42,110.42,0,0,0-11.18,15.44A143.23,143.23,0,0,0,283,117.26C280.56,122.7,278.48,127.83,276.61,132.46Z"/><path class="cls-3" d="M464.87,123.59a124.85,124.85,0,0,1-8.07,18.12c-4.49,8.46-8.29,16.26-11.2,23.27a148.75,148.75,0,0,0-6.35,18.14c-1.34,5.06-1.91,9-1.74,11.87s1.31,4.22,3.36,4.18a10.81,10.81,0,0,0,6.17-2.61,45.17,45.17,0,0,0,6.83-6.68,82.19,82.19,0,0,0,6.91-9.68q3.45-5.56,6.36-11.32c1.62,1.7,2.43,2.56,4,4.27a150.24,150.24,0,0,1-10.27,19.23,134.23,134.23,0,0,1-11.53,15.75,73,73,0,0,1-11.81,11.2A35,35,0,0,1,426,225.22c-5.51,1.47-10.06,1.34-13.71-.5s-6.18-5.2-7.55-10.2S403.19,203,404.31,195a126.39,126.39,0,0,1,7.86-28.21c4.2-10.73,7.9-19.53,10.92-26.41S428.52,128,430.23,124s2.55-6.74,2.54-8.19-.83-2-2.43-1.6c-2.3.54-5.13,2.87-8.42,7a113.23,113.23,0,0,0-10.1,15.41c-3.41,6.13-6.74,12.8-9.94,20s-5.86,14-8,20.31c-5.39,24.92-7.74,37.38-11.72,62.22-11.73,4.33-17.58,6.69-29.22,11.81q5.94-50.24,16.21-99.83,4.68-19,11.42-38.84a222.08,222.08,0,0,1,15.79-36,114.44,114.44,0,0,1,20.39-27.1c7.55-7.25,15.75-11.48,24-12.24a13.1,13.1,0,0,1,8.93,2.42c2.65,1.86,3.42,5.54,2.38,11s-4.75,13-10.84,22.85S425.13,95.81,412,112c-6.28,15.87-9.23,23.84-14.79,39.8,6.68-15.81,14.37-28.67,22.77-38.47S437,97.74,445.44,96c9.58-2,16.23-.45,19.84,4.19S468.63,112.66,464.87,123.59Z"/><path class="cls-3" d="M533.65,181.22a102.25,102.25,0,0,0,9.08-9,133.3,133.3,0,0,0,8.45-10.4c1.37,2,2.05,3,3.4,5a141.28,141.28,0,0,1-10.22,14.52,128.14,128.14,0,0,1-10.94,12l-.93.65a86.84,86.84,0,0,1-16.06,12.22c-5.3,3-10.07,4.77-14.41,5.2-5.52.55-10-.35-13.54-2.77s-5.86-6.2-6.93-11.4-.75-11.66,1.12-19.42,5.59-16.66,11.22-26.54a294.59,294.59,0,0,1,16.88-26.77c4.84-6.66,8.42-12.08,10.53-16.32,2.63-5.26,3.59-8.8,2.83-10.49s-2.31-2.27-4.61-1.73a68.1,68.1,0,0,1-7.09,1.29c-2.19.28-5.47-.28-6,0-2.29,1.34-5.41,13.09-8.52,20.1s-6.24,13.89-9.41,20.65-6.26,13.2-9.28,19.29-5.57,13.61-8,15.88A2.68,2.68,0,0,1,467,172a5.7,5.7,0,0,1,.16-3.12q4.31-9.67,9.92-21.48A244.73,244.73,0,0,0,487,123.53a127.65,127.65,0,0,0,6.08-24.16,49.25,49.25,0,0,0-1.89-22.74,19.57,19.57,0,0,1-.87-10.37,14,14,0,0,1,3.72-7.06,12.34,12.34,0,0,1,6.53-3.31,11.54,11.54,0,0,1,13,7.61c1,2.9.94,7.23-.35,12.82-.48,2.08-1.05,4.3-1.66,6.6s-2.58,7.2-2.35,7.59c.51.85,9.08.2,14.81-1.36a115.35,115.35,0,0,1,17-3.5c11.62-1.35,18,2.61,18.19,10.65s-7.25,21.31-21,40.35c-10.89,15.1-17.2,27.47-19.58,36.66s-1.94,14,.73,14.75c1.56.43,3.59.14,6-1.1a53.12,53.12,0,0,0,8-5.42Z"/><path class="cls-3" d="M584.71,157.13c-4.05,7.8-6.37,14.25-7.11,19.27s.54,8.2,3.59,9.09,7.12-.66,11.4-4.52a123.05,123.05,0,0,0,14.15-15.85c1.2,2.15,1.8,3.22,3,5.37-8.5,12.09-16.77,21.63-25,28.65s-16.14,10.39-24.14,10.16c-9.37-.28-14.38-5.77-15.09-16.89s2.8-26.22,11.46-45.1c11.44-24.61,17.55-36.81,30.56-60.88,13.81.84,20.69,1.48,34.38,3.2-11.76,19.7-17.37,29.68-28,49.84C590.13,146.5,588.3,150,584.71,157.13ZM626.13,49.44a18.68,18.68,0,0,1,7.12,7.19,14.78,14.78,0,0,1,1.53,9.64,16,16,0,0,1-7.67,11.18,21.71,21.71,0,0,1-14.43,3.29,20.6,20.6,0,0,1-13.13-6.21,14.86,14.86,0,0,1-4.41-12.47c.53-4.73,3-8.67,7.32-11.75a21.29,21.29,0,0,1,14.92-3.75A23.54,23.54,0,0,1,625.46,49Z"/><path class="cls-3" d="M694.83,189.28a75.65,75.65,0,0,1-18.47,14c-6.88,3.75-16.07,4.6-22.25,6.21-4.52,1.19-10.89,4.4-17,5.49A56.85,56.85,0,0,1,618,215c-10.92-1.74-19.11-6-24.82-13.25s-7.45-16.25-4.88-27.25A22.4,22.4,0,0,1,597.53,161a21.75,21.75,0,0,1,17.31-3.9l.09,0q4-5.12,9.24-11.42t10.76-12.95q5.49-6.66,10.85-13.43c3.56-4.52,8.51-9.21,10-12.52,2.76-6.33,4.29-16.13,8.88-20.59s9.42-7.13,14.45-8a20.74,20.74,0,0,1,13.25,1.62c3.79,1.93,5.65,4.54,5.31,7.35s-3.57,5.4-9.23,7.7A143.06,143.06,0,0,0,668.61,105a37.34,37.34,0,0,0,.76,17.23q2.4,9.33,5.09,19.46a164.63,164.63,0,0,1,4.07,21.13,49.8,49.8,0,0,1-2,21.69A38.45,38.45,0,0,1,669,197.75a.24.24,0,0,0,.25.39,44.35,44.35,0,0,0,11.47-5.54,106.79,106.79,0,0,0,11.89-9.24C693.49,185.73,693.94,186.91,694.83,189.28Zm-66.62-9.78a23.34,23.34,0,0,1-9.82,13.07,21.93,21.93,0,0,1-15.33,4l-.89-.11a23.15,23.15,0,0,0,6,2.95,17.46,17.46,0,0,0,7.6.44c4.65-.6,9.35-2.88,14-7a53.63,53.63,0,0,0,11.27-13.56,88.9,88.9,0,0,0,9.71-28.52q2.75-15.95,4.27-30.24-8.35,9.42-17.71,19.95t-16.4,19a17.62,17.62,0,0,1,7.28,20Z"/><path class="cls-3" d="M732.44,108.62c6.46,2.26,9.67,3.44,16.07,5.91l2.91-2.2c7.92-6.21,16.19-9.7,24.7-10.39a52.87,52.87,0,0,1,23.69,3.22c-2,2-4.17,4.26-6.35,6.51-1.93,2-4.32,4.32-6.84,7s-5.2,5.51-8,8.51c9.22,4.21,13.79,6.42,22.85,11.08-2.39,1.81-3.59,2.71-6,4.54-8.63-4.36-13-6.43-21.76-10.39-12.64,13.66-18.8,20.63-30.78,34.83C730.7,181.61,722.62,193,718.14,201s-4.9,13.44-1.48,15.69c2.84,1.87,7.37,1.4,13.22-1.18A86.48,86.48,0,0,0,748,204.38c.7,2.48,1,3.72,1.73,6.21-10.94,9.21-21.27,15.94-31.15,20.18S700.39,236,693.4,233.6c-8.84-3-12.59-10.1-11.25-21.6s7.06-25.49,17.92-41.58q3.87-5.61,9-12.41t10.78-13.55q5.63-6.74,11.5-13.2t11.5-11.6c-6.74-2.55-10.13-3.76-17-6.07C728.51,111.58,729.82,110.59,732.44,108.62Z"/><path class="cls-3" d="M906.55,253c-4.73,3.46-10.67,6-17.82,8.63a174.42,174.42,0,0,0-20.61,9.26,108.84,108.84,0,0,0-14.64,9.07,32.18,32.18,0,0,0-7.9,7.88c-1.5,2.38-1.49,4.4-.08,6.08a9.77,9.77,0,0,0,5.66,3.1,32.52,32.52,0,0,0,8.83.41,75.39,75.39,0,0,0,21.43-4.89c.14,2.7.21,4.05.33,6.74a100.31,100.31,0,0,1-17.92,6.43,79.71,79.71,0,0,1-17,2.48,55.33,55.33,0,0,1-14.7-1.37,30.17,30.17,0,0,1-11.24-5.07c-9.27-7-12.14-15.42-8.45-26s14-21.55,31.88-31.65c8.79-4.78,16.23-8.58,22.21-11.56s10.68-5.25,14.05-6.91,5.52-3,6.42-4.07.69-2.13-.61-3.18c-2.22-1.78-6.08-2.28-11.51-1.41a92.31,92.31,0,0,0-17.9,5,163.21,163.21,0,0,0-19.84,9.22,157.84,157.84,0,0,0-17.38,10.9c-15.12,13.12-22.49,19.89-36.84,33.85-10.22-6.25-15.4-9.2-25.9-14.73,2.7-3,6.05-6.44,9.82-10.4,3.16-3.33,7-7.41,11.56-12s10-9.65,15.72-15.16a226.16,226.16,0,0,1,17.52-15.52c5.84-4.54,11-8.45,15.47-11.76a108.19,108.19,0,0,0,9.94-8.1q3.24-3.15,1.2-4.47a10.05,10.05,0,0,0-6-1.09,34.34,34.34,0,0,0-8.85,1.88A103,103,0,0,0,812.64,189q-5.86,2.76-11.68,6.15c-19.91,18.74-39.17,38.77-57.14,59.37-10.63-5.17-16-7.57-26.87-12,18.91-23.67,38.11-46.31,58.38-68.82.44-1.15.66-1.73,1.11-2.88a39.77,39.77,0,0,1,5.89-11.5,32.68,32.68,0,0,1,8.25-7.92,19.63,19.63,0,0,1,9.52-3.25,18.44,18.44,0,0,1,18.77,13.75c1.31,5.09-.63,11.34-5.67,18.78,9.17-3.87,17.68-5.9,25.44-6.17s14.46,1.55,20,5.32c5.71,3.9,9.31,8.84,10.77,14.62s-.09,11.52-4.51,17.25a64.8,64.8,0,0,1,23.87-2.35,32.77,32.77,0,0,1,18.18,7.38c7.06,6,10.71,12.3,11,18.55s-3.38,12-10.73,17.32Z"/><path class="cls-3" d="M869.48,343.42A24.1,24.1,0,0,1,863.77,331,31.66,31.66,0,0,1,865.34,316a54.16,54.16,0,0,1,9.36-16.35,74.8,74.8,0,0,1,17.89-15.79,84.07,84.07,0,0,1,25.21-11.12,76.2,76.2,0,0,1,24.27-2.28,57,57,0,0,1,20.53,5.29,36.62,36.62,0,0,1,13.92,11,31.81,31.81,0,0,1,5.85,13.09,21.76,21.76,0,0,1-2.32,13.87c5.59-2.24,8.4-3.33,14-5.45,9.58,12.25,14.24,18.58,23.28,31.64a571.12,571.12,0,0,0-63.6,23.28c-7.17,2.92-12.56,6.08-16.22,9.32s-4.75,6.68-3.13,9.8c1.8,3.44,5.57,5.3,10.84,5.52a105.94,105.94,0,0,0,19-1.31c-.28,2.76-.42,4.14-.72,6.89-12.74,2.62-23.75,3.65-33.18,2.9s-16.71-4.27-22.1-10.78c-4.7-5.69-6.42-11.57-5.13-17.89s5.21-12.79,11.91-19.27c-9.32,2.64-17.71,4-25.27,3.91s-13.66-2.37-18.45-7.09ZM894,335.5c1.23,1.89,3.37,3.16,6.26,3.81a33.48,33.48,0,0,0,10.33.41,76.84,76.84,0,0,0,13-2.48c4.68-1.28,9.35-2.78,14-4.52,8.09-4,12.16-5.86,20.37-9.55,6.31-3.57,10.62-6.65,12.88-9.38s2.94-5.55,1.91-8.13-3.84-4.38-8.17-5.43a49.84,49.84,0,0,0-15.44-.89,82,82,0,0,0-19.32,4.15,110.24,110.24,0,0,0-20,8.76c-6.7,3.84-11.54,8.16-14.47,12.3S892,332.43,894,335.5Z"/><path class="cls-3" d="M1056.1,372.72a25.83,25.83,0,0,1,8.93,5.92,34.9,34.9,0,0,1,6.22,8.49,27.27,27.27,0,0,1,3,8.59c.37,2.64,0,4.7-1.21,6-1.79,1.94-5.55,1.24-11-1.92a125.67,125.67,0,0,0-20.08-9.18c-3.67,3.33-6.54,8.29-8.7,14.8s-4.39,13.35-6.7,20.49a174.18,174.18,0,0,1-8.34,21,41.79,41.79,0,0,1-13.12,16.1,26.53,26.53,0,0,1-13.17,5.05,31.7,31.7,0,0,1-15.14-2.5A56,56,0,0,1,961,455.33c-5.29-4.66-10.4-10.88-15.47-18.62-7-10.76-10.73-21.15-11-31.83s3.34-19.47,11.15-26.25a15,15,0,0,1,14-3.24c5.43,1.28,10.07,4.63,13.8,10l1,1.49c3.78-.52,8.09-1,12.91-1.43s9.79-.87,14.86-1.35,10.13-1,15.18-1.65,9.72-1.15,14-1.63c4.17-4.66,8.27-7.56,12.33-8.62s7.73-1.24,11.4.19ZM972.16,416.5c-4,3.06-8.83,3.74-14.23,2.25A23.79,23.79,0,0,1,944.55,409c-.23-.34-.35-.5-.59-.84a37.13,37.13,0,0,0,2.82,7.51,24.6,24.6,0,0,0,5.31,6.83,24,24,0,0,0,14,6.26,35.49,35.49,0,0,0,15.56-1.36c7.8-2.72,15.41-7.78,22.49-14.88s13.55-14.1,19.42-21c-7.47.32-15.38.63-23.72,1s-15.74.9-22.22,1.42a26.64,26.64,0,0,1,.43,13A16,16,0,0,1,972.16,416.5Z"/><rect class="cls-2" x="461.48" y="63.65" width="11.35" height="17.23"/><rect class="cls-2" x="685.15" y="117.65" width="25.02" height="25.02"/></g></g></g></g></svg>