<svg xmlns="http://www.w3.org/2000/svg" xmlns:xlink="http://www.w3.org/1999/xlink" viewBox="0 0 950 693.79"><defs><style>.cls-1{fill:url(#linear-gradient);}.cls-2{fill:#fff;}.cls-3{fill:url(#linear-gradient-8);}.cls-4{fill:url(#linear-gradient-9);}.cls-5{fill:url(#linear-gradient-11);}.cls-6{fill:url(#linear-gradient-12);}.cls-7{fill:url(#linear-gradient-13);}.cls-8{fill:url(#linear-gradient-14);}.cls-9{fill:url(#linear-gradient-15);}.cls-10{fill:url(#linear-gradient-16);}.cls-11{fill:url(#linear-gradient-17);}.cls-12{fill:url(#linear-gradient-18);}.cls-13{fill:url(#linear-gradient-19);}.cls-14{fill:#a30c8c;}</style><linearGradient id="linear-gradient" x1="503.64" y1="651.44" x2="393.71" y2="27.95" gradientUnits="userSpaceOnUse"><stop offset="0"/><stop offset="1" stop-color="#00002f"/></linearGradient><linearGradient id="linear-gradient-8" x1="314.37" y1="608.79" x2="284.71" y2="553" gradientUnits="userSpaceOnUse"><stop offset="0" stop-color="#5d1fb2"/><stop offset="1" stop-color="#6d3bc9"/></linearGradient><linearGradient id="linear-gradient-9" x1="314.37" y1="608.79" x2="284.71" y2="553" gradientUnits="userSpaceOnUse"><stop offset="0" stop-color="#e62eb1"/><stop offset="1" stop-color="#f473d3"/></linearGradient><linearGradient id="linear-gradient-11" x1="306.13" y1="673.76" x2="270.18" y2="469.88" xlink:href="#linear-gradient-9"/><linearGradient id="linear-gradient-12" x1="368.6" y1="663.19" x2="301.6" y2="413.16" xlink:href="#linear-gradient-9"/><linearGradient id="linear-gradient-13" x1="804.21" y1="519.4" x2="611.93" y2="-8.89" gradientUnits="userSpaceOnUse"><stop offset="0" stop-color="#3a00b2"/><stop offset="1" stop-color="#6d3bc9"/></linearGradient><linearGradient id="linear-gradient-14" x1="587.53" y1="383.8" x2="386.48" y2="96.68" xlink:href="#linear-gradient-13"/><linearGradient id="linear-gradient-15" x1="363.95" y1="572.7" x2="263.24" y2="196.84" xlink:href="#linear-gradient-13"/><linearGradient id="linear-gradient-16" x1="77.28" y1="659.48" x2="161.4" y2="182.4" xlink:href="#linear-gradient-13"/><linearGradient id="linear-gradient-17" x1="259.37" y1="531.39" x2="276.37" y2="514.39" gradientUnits="userSpaceOnUse"><stop offset="0" stop-color="#7c3083"/><stop offset="1" stop-color="#910078"/></linearGradient><linearGradient id="linear-gradient-18" x1="242.37" y1="497.39" x2="276.37" y2="497.39" gradientUnits="userSpaceOnUse"><stop offset="0" stop-color="#b8064d"/><stop offset="1" stop-color="#e10000"/></linearGradient><linearGradient id="linear-gradient-19" x1="276.37" y1="514.39" x2="293.37" y2="497.39" gradientUnits="userSpaceOnUse"><stop offset="0" stop-color="#ffe1e1"/><stop offset="1" stop-color="#ff6496"/></linearGradient></defs><g id="Layer_2" data-name="Layer 2"><g id="Logo3"><g id="MainColor"><g id="EyeAlt"><path class="cls-1" d="M269,548.23a101.62,101.62,0,0,0,36.52,72.88,153.68,153.68,0,0,0,31.22-36c14.18-22.68,20.83-42.29,21.53-57.67.4-8.65-4-34.4-4-34.4s-21.35,7.32-28.15,10.51c-7.62,3.58-18.24,10.46-28.34,18.15A207.87,207.87,0,0,0,269,548.23Z"/><path class="cls-1" d="M218.87,543.79a5.33,5.33,0,0,1-2.19-.47,5.41,5.41,0,0,1-2.76-7.14c4.66-10.51,23.18-46,65.85-61.6s79.9-.37,90.25,4.68a5.42,5.42,0,0,1-4.75,9.74c-9.38-4.58-43-18.43-81.78-4.25s-55.44,46.3-59.67,55.82A5.4,5.4,0,0,1,218.87,543.79Z"/><path class="cls-1" d="M202.62,665.08a5.42,5.42,0,0,1-.06-10.83c12.13-.16,74.83-3.6,117.22-56.28,34-42.28,34.13-89.59,32.59-108a5.42,5.42,0,0,1,10.8-.91c1.64,19.68,1.53,70.34-34.95,115.67-45.44,56.46-112.54,60.15-125.53,60.32Z"/><path class="cls-1" d="M223.38,661.76l-.44,0a5.42,5.42,0,0,1-5-5.83,191.85,191.85,0,0,1,19.31-70.34c32.3-65,93.76-92.37,118.69-101.13a5.41,5.41,0,1,1,3.6,10.21C335.88,503,277.51,529,247,590.39a181,181,0,0,0-18.21,66.38A5.42,5.42,0,0,1,223.38,661.76Z"/><path class="cls-1" d="M354.15,473.22a60.55,60.55,0,0,0,31.54,1.07,122,122,0,0,1-23.78,24.17Q358,485.85,354.15,473.22Z"/><path id="Lip" class="cls-1" d="M378.8,603.27c4.35-6.94,2.57-9.93,1.67-10.95-.13-.14-.21-.33-.41-.59-.91-1.17-1.95-1.52-4.48-2.7l-1.9-.91a18.09,18.09,0,0,1,13.69-1.29,17.84,17.84,0,0,1,9.38,7.19c-.22.17-.5.53-.66.48-3-.84-5.8-1.58-8.31-1.17-3.26.54-4.54,6.83-5.46,9.78-1.73,5.54-6.32,12.66-19,19.44C368.5,616.12,374.42,610.25,378.8,603.27Z"/><path class="cls-1" d="M822.57,192a688.72,688.72,0,0,0-64.35-94.94c-25-30.83-37.5-46.24-58-60.53C645.39-1.74,584.65-.48,564.53.21,511,2.05,472.44,21.17,447.29,34c-34.42,17.53-59.48,39.94-109.59,84.74l-94.79,91.14a7.83,7.83,0,0,1-9.81.86,298.79,298.79,0,0,0-90.37-41c-37.94-10-60.84-12.74-75.82-7.64C-10.78,188.5,1.85,376.26,2.56,387c1.06,15.92,2.93,29.1,4.46,38.23-4.82,16.13-10.38,43.2-4.46,75.19,7.15,38.61,27.25,64,42.69,83.46,21.73,27.43,43.49,43.4,59.25,54.8,21.32,15.41,54.09,40.22,101.95,51.61,21.18,5,87.66,10.51,155-28a236.27,236.27,0,0,0,82-79q39.06-71.82,77.73-150.36,28.53-58.15,53.89-114.32a6.63,6.63,0,0,1,7.4-3.78c16.28,3.36,41.6,6.95,69,17.11,70.81,26.25,102.17,60.55,166.61,98.44A795.65,795.65,0,0,0,950,492.09C943.65,473.58,883.8,300.46,822.57,192ZM438.21,581.38a231,231,0,0,1-79.47,76.13C315.32,682.38,272,687.6,243.35,687.6a242.29,242.29,0,0,1-31.77-2.09c-3.18-55.66,4.51-108.93,22.88-158.4,17.23-46.39,36.75-99,83.92-114.62a98.63,98.63,0,0,1,30.69-4.86h0c12.61,0,30.79,2.46,45.82,14.19,17.21,13.42,22.38,34.52,32.44,81q1.07,4.89,2.05,9.4C436.28,543.79,440.15,561.48,438.21,581.38Z"/><path class="cls-2" d="M314.13,531.28c2.77-6.7,10.28-11.73,17.2-10.83,11.93,1.53,19.83,20.42,13.06,30.58a16.31,16.31,0,0,1-15.29,6.69C318.11,556.24,309.63,542.14,314.13,531.28Z"/><path class="cls-3" d="M304.88,613.83A143.66,143.66,0,0,0,319.78,598c1.78-2.21,3.45-4.44,5-6.68a117.14,117.14,0,0,1-17.89-26.83c-3.11-6.53-6.73-15.84-12.24-16-2.09-.05-4.26,1.44-8.68,4.31-2,1.28-5.88,3.8-7.64,6-7.13,8.82,5.78,30.41,7.72,33.66A80.09,80.09,0,0,0,304.88,613.83Z"/><path class="cls-4" d="M304.88,613.83A143.66,143.66,0,0,0,319.78,598c1.78-2.21,3.45-4.44,5-6.68a117.14,117.14,0,0,1-17.89-26.83c-3.11-6.53-6.73-15.84-12.24-16-2.09-.05-4.26,1.44-8.68,4.31-2,1.28-5.88,3.8-7.64,6-7.13,8.82,5.78,30.41,7.72,33.66A80.09,80.09,0,0,0,304.88,613.83Z"/><path class="cls-2" d="M338.66,512.48,352,518.22a26.34,26.34,0,0,0,0-14,10,10,0,0,0-8.29.32C339.13,507,338.68,512.16,338.66,512.48Z"/></g><g id="_23GEM" data-name="23GEM"><path id="HeadFull" class="cls-1" d="M822.57,192a688.72,688.72,0,0,0-64.35-94.94c-25-30.83-37.5-46.24-58-60.53C645.39-1.74,584.65-.48,564.53.21,511,2.05,472.44,21.17,447.29,34c-34.42,17.53-59.48,39.94-109.59,84.74l-94.79,91.14a7.83,7.83,0,0,1-9.81.86,298.79,298.79,0,0,0-90.37-41c-37.94-10-60.84-12.74-75.82-7.64C-10.78,188.5,1.85,376.26,2.56,387c1.06,15.92,2.93,29.1,4.46,38.23-4.82,16.13-10.38,43.2-4.46,75.19,7.15,38.61,27.25,64,42.69,83.46,21.73,27.43,43.49,43.4,59.25,54.8,21.32,15.41,54.09,40.22,101.95,51.61,21.18,5,87.66,10.51,155-28a236.27,236.27,0,0,0,82-79q39.06-71.82,77.73-150.36,28.53-58.15,53.89-114.32a6.63,6.63,0,0,1,7.4-3.78c16.28,3.36,41.6,6.95,69,17.11,70.81,26.25,102.17,60.55,166.61,98.44A795.65,795.65,0,0,0,950,492.09C943.65,473.58,883.8,300.46,822.57,192Z"/><g id="_23" data-name="23"><path id="_2" data-name="2" class="cls-5" d="M276.85,603.91c2.51-3.44,18.36-25.21,8.13-40.62-7.14-10.73-23.31-12.78-33.22-9.55a29.37,29.37,0,0,0-14.57,10.75c-1.19,1.66-10,13.93-4.06,22.7,2.89,4.27,9.36,8.06,15.77,6s10.56-9.5,9.08-14.34c-2.07-6.72-14.32-6.76-14.1-9.08.23-2.48,15-6.69,23.65.72,4.76,4.09,5.65,10,6,12.19,1.24,8.24-2.53,14.64-4.3,17.68-5.51,9.4-14.21,13.15-18.16,14.81a38.76,38.76,0,0,1-17.88,2.94l-.76-.07a28.66,28.66,0,0,1-14.69-6.45c-6.14-5.35-7.79-12.25-8.6-15.65-1.66-6.95-.71-12.37,1.07-22.46a162.21,162.21,0,0,1,4.39-17.66c2.34-8.23,4.42-14.35,6.17-19.48,3.68-10.77,5.52-16.15,7.81-21.18a111.35,111.35,0,0,1,12.69-21.84,81.66,81.66,0,0,1,17.92-17.92c4.93-3.77,10.18-6.1,19-6.49a37,37,0,0,1,17.11,3.62c11.19,5.36,15.72,15.94,17.68,20.55,1.77,4.16,6.17,16.08.72,42.05a164.06,164.06,0,0,1-22.57,54.65,104.67,104.67,0,0,1,79.58-30.68,6.06,6.06,0,0,1,5.77,5.9,96.93,96.93,0,0,1-25.79,68.39,12.34,12.34,0,0,1-13.4,3.12,64.2,64.2,0,0,0-15.47-3.58,63.31,63.31,0,0,0-29.31,3.82c-28.13,10.5-39,43.24-39.82,45.88a28.12,28.12,0,0,1-37.27-35,215.19,215.19,0,0,1,20.59-14c11.84-7.06,16.88-8.5,25.82-15.33C267.12,614.14,272.26,610.21,276.85,603.91Z"/><path id="_3" data-name="3" class="cls-6" d="M433.83,528.65c12.85,37.74-12,72.92-20,84.18-13.7,19.41-29.67,29.61-49.78,42.45a222,222,0,0,1-48.74,22c-19,6-30.28,6.81-39.9,1.68-3-1.61-9-4.81-9.61-10-1.25-10.5,20.28-25.47,42.28-28,18.07-2,22.16,6,37.1,1.84,16.95-4.68,26.65-19.12,30.82-25.33,10.36-15.42,11.4-30.45,12.42-41.1,1.89-19.57-2.2-40-6.68-40.35-1.9-.15-2.33,3.39-8.53,9.21a35.61,35.61,0,0,1-11.79,8,30.78,30.78,0,0,1-17.62.93c-2.75-.58-11-2.34-17.12-9.17-9.58-10.73-8.65-28.15-1.31-39.21,1.62-2.44,6.16-9.27,14.68-11.29,7.81-1.86,19.32.25,23.29,8.88,2.91,6.34,1.85,16.39-4.94,19.91-5.92,3.07-12.69-.63-13.43-1h0c5.73-1.73,8.75-5.84,8.08-8.61s-5.27-4.23-8.59-3.88c-5.46.59-9.86,6.41-10,12-.18,6.84,6.23,11.82,11.19,13.48,8.4,2.81,18.47-1.9,23.42-8.28,11.18-14.41-3.57-32.49-14.2-46.75-16.2-21.74-39.53-27-44-28a76.19,76.19,0,0,0-45.4,4.9l-2.75-1.8a121.16,121.16,0,0,1,19.71-23.89,103.61,103.61,0,0,1,22-16.25,95.81,95.81,0,0,1,30.34-10.51,88,88,0,0,1,28.43,0c6.41,1.15,16.46,3,27,10,2.86,1.89,19.85,13.53,25.81,35.84,1.95,7.29,5,18.64-.36,29-4.72,9.17-15,8.54-15.1,8.43C408.83,493.31,426.17,506.14,433.83,528.65Z"/></g></g><g id="SAGE"><path id="E" class="cls-7" d="M715.77,258.24c4.06,3.52,8.53,4.39,11.49,5,11.46,2.24,21.1-2.45,25-4.66a15.86,15.86,0,0,1-9.94-6.05,14.59,14.59,0,0,1-2.89-10.89c1.07-6.59,6.61-9.76,7.33-10.15,7.39-4.07,17.8-2.64,23.93,3.43s7.39,16.18,4.4,23.35c-7.44,17.84-41.2,18.31-56.53,16.62-8.69-1-18.63-2.17-28.22-9.32-10.75-8-16.59-17.9-20.29-30.44-4.81-16.31-7-32.11-6.93-43.27a10.72,10.72,0,0,1,10.72-10.58c21.88-.14,45.3.75,66.61.22a2,2,0,0,0,1-3.68l-90.63-57.85a15.66,15.66,0,0,1-6.53-8.53c-4.16-13.23-6-23.68-9.53-36.75a2.7,2.7,0,0,1,3.42-3.35c20.33,6.74,42,13.93,68.29,29.4,26.11,15.38,60.65,49.27,72.81,60.45a1.18,1.18,0,0,0,1.85-1.4C767.41,132.53,706.41,24.43,600.16,16c-27.8-2.2-52.62.35-73.06,6a11.16,11.16,0,0,0-8,13l61.46,263.91a8.79,8.79,0,0,0,7.49,6.73,343.69,343.69,0,0,1,73.14,17.42c50.12,18,81.72,42.71,105.77,59.89,35.34,25.25,88.65,58.65,163.91,90.32C867.78,311,807.75,206.19,792.31,199.47c-13.54-5.88-47.47-3.81-56.35-1.18-7.34,2.18-19.43,5.93-25.31,17.24-3.75,7.22-4.44,15.63-4,22C707.15,244.57,709,252.35,715.77,258.24Z"/><path id="G" class="cls-8" d="M303.78,173.84a7.75,7.75,0,0,0-.44,11.44C338,219.66,371.76,264,409.7,313c36.64,47.39,64.3,90.59,89.76,132.46,23.26-45.87,44.68-85.58,67.93-131.45l-39.54-170.5a3.31,3.31,0,0,0-5-2c-14.86,9.24-78.61,45.24-85.42,70.07-3.49,12.75,10.59,38.51,24.24,40.65,5.14.8,12.61-1.78,18-6.21a27.58,27.58,0,0,0,7.17-9.08,95.79,95.79,0,0,0,3.53-10.52,14.52,14.52,0,0,1-4.2,2.3,15,15,0,0,1-5.83.76c-2-.09-4.88-.22-7.36-2-3.06-2.19-3.84-5.69-4.3-7.74a21.84,21.84,0,0,1,2.19-14.52c3.78-7.23,14.94-12.61,21.4-10.47,3,1,3.77,3.53,10.61,21.79,6.11,16.31,6.5,17,6.3,19.21-.29,3.36-1.74,8.33-23.79,26.38,0,0-7.35,6-23.79,18.35a5.87,5.87,0,0,1-8.15-1.13c-7.86-10.32-20.24-25.07-28.09-39.25-10.56-19.07-16.89-30.58-23.28-46a13.47,13.47,0,0,1,1.35-13.45c6.7-8.78,15.65-19.7,22.89-28.07a244.53,244.53,0,0,1,20.47-21,8.7,8.7,0,0,1,12.49.73l18.36,21.43c15-12.3,29.76-20,42.25-30.24a8.17,8.17,0,0,0,2.83-4.59c6-28-7-55.26-29.35-65.5-25.29-11.6-50.67,4-52.56,5.25Z"/><path id="A" class="cls-9" d="M488.63,453.9a1370.69,1370.69,0,0,0-83.07-127.47c-37.48-51.05-76.85-95.33-112.4-132.67-3.19-3.35-8-3.45-12.19-1.39-7.87,3.9-13.2,6.79-24.61,19.86-14,16.07-28.49,47.14-38.37,76.2-10.7,31.46-20.46,72.41-22.6,113.79-2.11,40.76-4.79,88,7.55,155.34,21.92-58.93,43.85-96.42,58.14-116.6,8.55-12.07,27-34.39,48.25-43.25,12.44-5.17,28.9-7.91,51.47-6.21,22.22,1.68,34.88,8.21,43.8,14.58,22.2,15.86,32.34,81.71,46.19,143.36l38.36-83.86A12.75,12.75,0,0,0,488.63,453.9ZM267.26,394.41a172.11,172.11,0,0,1,8.06-104.63,2.15,2.15,0,0,1,3.57-.66,339.65,339.65,0,0,1,29.66,37.23c6.49,9.43,12.08,18.59,16.91,27.26a1.35,1.35,0,0,1-1.24,2c-7.61-.19-27.9.77-43.41,16.24A55.26,55.26,0,0,0,267.26,394.41Z"/><path id="S" class="cls-10" d="M187.69,348.75c.63-3.66,2-11.22-1.19-14.83-13.92-15.56-52.61-4.23-78.33-17.2-14.93-7.53-21-24.23-18.67-42.21,1.43-10.87,4-20.09,15.13-28.15s22.54-9.32,36.67-5.8c17.73,4.41,22,22.57,22.55,24-3.25-2.42-9.58-9.8-20.7-11.41a52.27,52.27,0,0,0-12.12,0,17.34,17.34,0,0,0-11.86,6.11c-3.1,3.81-6.46,9.56-6.56,16.6-.19,13.33,5.14,20,11.41,22.83,9.11,4.11,24.94,4.78,39.54,8.36,15.56,3.81,12.19,2.89,20,4.74a12.4,12.4,0,0,0,8.9-1.74,12.25,12.25,0,0,0,5.3-7.35c2.52-10,5.67-20.72,9.63-32a360.65,360.65,0,0,1,16.18-38.6c2.12-4.33,1.51-10-2.43-12.74-18.47-13-96.5-46.22-121.11-47.41-18.85-.92-28,.23-40.6,8.92C31.73,200,22.33,233.74,20.11,265.23c-2.35,33.19-4.89,49,.23,137.31a6.78,6.78,0,0,0,6.71,6.38c12.79.1,27.84-.1,45.28,1.7,18,1.85,35.77,6.26,46,14.61,6.85,5.58,11.43,19.08,10.83,29.83-.55,9.9-2.52,13.79-8.76,21.1-6.49,7.62-16.1,8.23-22,8.61s-14.82.9-21.66-5.42c-1-1-6.48-6.47-6.37-14.66.06-4.47,1-10.47,6.21-14.41a11,11,0,0,1,12.54.12c4,3.14,3.31,11.68,3.11,12.66a11.81,11.81,0,0,1-4.66,7.05s11.64,1,17.54-6c5.24-6.24,4.06-23-3.52-28.21-12.31-8.46-56.41-9.21-69-1.14C19.76,443,15.88,450.22,14.35,474.57,12,512,31.23,540.83,31.23,540.83c5.45,10.2,22.2,39.43,71.2,78.85a493.46,493.46,0,0,0,98.76,61.65c-3.56-51.08-7.56-92.69-11.21-121.68C178.07,467.3,177.6,454.8,178.41,423.76,179.11,397,184.49,367.38,187.69,348.75Z"/></g><g id="Gem"><polygon class="cls-11" points="276.38 548.39 242.38 514.39 276.38 514.39 276.38 548.39"/><polygon class="cls-12" points="242.38 514.39 276.38 480.39 276.38 514.39 242.38 514.39"/><polygon class="cls-13" points="276.38 480.39 310.38 514.39 276.38 514.39 276.38 480.39"/><polygon class="cls-14" points="310.38 514.39 276.38 548.39 276.38 514.39 310.38 514.39"/></g></g></g></g></svg>