<?xml version="1.0" encoding="UTF-8" standalone="no"?>
<!-- Created with Inkscape (http://www.inkscape.org/) -->

<svg
   width="141.81667mm"
   height="179.12291mm"
   viewBox="0 0 141.81667 179.12291"
   version="1.1"
   id="svg5"
   inkscape:version="1.1 (c68e22c387, 2021-05-23)"
   sodipodi:docname="sbasketball_1.svg"
   xmlns:inkscape="http://www.inkscape.org/namespaces/inkscape"
   xmlns:sodipodi="http://sodipodi.sourceforge.net/DTD/sodipodi-0.dtd"
   xmlns="http://www.w3.org/2000/svg"
   xmlns:svg="http://www.w3.org/2000/svg">
  <sodipodi:namedview
     id="namedview7"
     pagecolor="#ffffff"
     bordercolor="#666666"
     borderopacity="1.0"
     inkscape:pageshadow="2"
     inkscape:pageopacity="0.0"
     inkscape:pagecheckerboard="0"
     inkscape:document-units="mm"
     showgrid="false"
     fit-margin-top="0"
     fit-margin-left="0"
     fit-margin-right="0"
     fit-margin-bottom="0"
     inkscape:zoom="3.8047662"
     inkscape:cx="285.03723"
     inkscape:cy="150.60058"
     inkscape:window-width="3840"
     inkscape:window-height="2126"
     inkscape:window-x="-11"
     inkscape:window-y="-11"
     inkscape:window-maximized="1"
     inkscape:current-layer="layer1" />
  <defs
     id="defs2" />
  <g
     inkscape:label="Calque 1"
     inkscape:groupmode="layer"
     id="layer1"
     transform="translate(-35.106903,-41.826622)">
    <path
       d="M 108.10808,50.548717 107.7914,50.35586 v -0.275409 -0.275409 l 0.30624,-0.161055 0.30623,-0.161054 0.20415,0.0903 0.20415,0.09029 1.70744,0.0318 1.70746,0.0318 0.1205,0.274336 0.12051,0.274334 -0.12347,0.232898 -0.12346,0.232896 h -1.8982 -1.89819 z"
       style="fill:#000000;stroke-width:0.037123"
       id="segment-21" />
    <path
       d="m 102.86927,63.111234 -0.0161,-0.273681 0.0277,-0.802168 0.0277,-0.802179 -0.23979,-0.620971 -0.23979,-0.620962 0.0203,-1.313669 0.0203,-1.313668 0.58176,-0.05718 0.58176,-0.05718 0.21344,0.184145 0.21343,0.184146 0.0359,2.455902 0.0359,2.455894 -0.41554,0.422717 -0.41555,0.422725 -0.20778,0.005 -0.20776,0.005 z m 0.0763,-7.717801 -0.0957,-0.328422 c -0.13618,-0.50733 0.1639,-1.657338 0.07,-1.806384 l -0.19353,-0.307147 0.10499,-1.480826 0.10497,-1.480827 0.23009,-0.116299 0.23008,-0.116298 0.33647,0.401099 0.33648,0.401097 -0.077,0.388019 -0.077,0.38802 0.17422,1.635397 0.17422,1.635395 -0.27747,0.557798 -0.27746,0.55779 h -0.33382 -0.33382 z"
       style="fill:#000000;stroke-width:0.0504739"
       id="segment-1" />
    <path
       d="m 112.76418,55.22549 -0.10501,-0.241072 -0.0723,-0.917822 -0.0723,-0.91782 0.10049,-0.239319 0.10049,-0.239319 0.0688,-0.720867 0.0687,-0.720869 0.19268,-0.194818 0.19267,-0.194818 0.16632,0.314247 0.16633,0.314246 -0.041,1.841782 -0.041,1.841787 -0.19478,0.144308 -0.19477,0.14431 -0.11511,0.01356 -0.11509,0.01356 z"
       style="fill:#000000;stroke-width:0.037123"
       id="segment-22" />
    <path
       d="m 113.15043,61.853322 v -0.170368 l -0.18889,-0.09333 -0.18889,-0.09333 -0.0667,-0.748807 -0.0667,-0.748797 -0.062,-0.624316 -0.062,-0.624317 0.0596,-0.436395 0.0596,-0.436396 0.32136,-0.341851 0.32137,-0.341849 0.14375,0.225392 0.14375,0.2254 -0.0144,1.941209 -0.0145,1.941211 -0.0504,0.248455 -0.0504,0.248447 h -0.14219 -0.1422 z"
       style="fill:#000000;stroke-width:0.037123"
       id="segment-23" />
    <path
       d="m 109.86683,63.180821 -2.2118,-0.09643 -0.0648,-0.122663 -0.0648,-0.122651 0.26613,-0.39549 0.26612,-0.395497 1.84459,-0.0044 1.84458,-0.0044 0.29347,0.286731 0.29348,0.28673 v 0.263698 0.263702 l -0.12759,0.06889 -0.1276,0.06881 z"
       style="fill:#000000;stroke-width:0.037123"
       id="segment-24" />
    <path
       d="m 106.74803,61.450899 -0.0795,-0.572781 0.0511,-1.789715 0.0511,-1.789706 h 0.40831 0.4083 l 0.0349,0.867851 0.0348,0.867858 -0.13002,1.349993 -0.13002,1.350002 -0.10896,0.141685 -0.10895,0.141691 -0.17571,0.0029 -0.17572,0.0029 z"
       style="fill:#000000;stroke-width:0.037123"
       id="segment-25" />
    <path
       d="m 106.8582,54.744762 -0.0751,-0.724628 0.008,-1.512924 0.008,-1.512923 0.10842,-0.204848 0.10843,-0.204849 0.33614,0.181974 0.33613,0.181974 0.0217,2.074987 0.0217,2.074989 -0.12377,0.07151 -0.12375,0.07151 -0.27595,0.113949 -0.27595,0.113951 -0.0751,-0.724628 z"
       style="fill:#000000;stroke-width:0.037123"
       id="segment-26" />
    <path
       d="m 108.32159,56.787462 -0.28702,-0.293976 0.0401,-0.228659 0.0401,-0.228664 0.84381,-0.05634 0.84382,-0.05635 0.15116,0.237025 0.15116,0.237025 -0.23761,0.345357 -0.23762,0.345363 -0.51039,-0.0036 -0.51037,-0.0036 -0.28703,-0.293975 z"
       style="fill:#000000;stroke-width:0.037123"
       id="segment-27" />
    <path
       d="m 110.92567,56.88029 -0.33635,-0.313189 0.033,-0.309203 0.033,-0.309201 0.68932,0.01568 0.68932,0.0156 0.10619,0.200625 0.10619,0.200624 -0.27623,0.410527 -0.27624,0.410535 -0.21592,-0.0044 -0.2159,-0.0044 z"
       style="fill:#000000;stroke-width:0.037123"
       id="segment-28" />
    <path
       style="fill:#000000;stroke-width:0.183352"
       d="m 59.219603,219.07879 c -1.717788,-0.086 -3.411014,-0.39731 -5.113722,-0.62165 -0.125725,-0.46364 -0.08484,-1.03939 -0.307483,-1.43781 -0.534056,-0.20705 -0.16301,-0.91209 -0.263574,-1.35765 0.03086,-2.74189 0.0617,-5.48379 0.09256,-8.22568 -0.54888,-1.12248 -1.232289,-2.19308 -1.457614,-3.44034 -0.275934,-0.88036 -0.05051,-1.87372 -0.262749,-2.74185 -0.436964,-0.37649 -0.678952,-0.85937 -0.76578,-1.42691 -0.415904,-1.10534 -0.138718,-2.30047 -0.195845,-3.4523 0.0502,-1.19138 -0.04169,-2.40784 0.09839,-3.58337 0.360806,-1.00354 0.647478,-2.0392 1.206199,-2.95699 0.06761,-0.75415 0.600887,-1.40265 0.86041,-2.11326 0.526594,-1.05229 0.948487,-2.18081 1.600669,-3.15603 0.625398,-0.67948 1.13174,-1.50255 2.020576,-1.8643 0.458272,-0.29926 0.916606,-0.59828 1.48943,-0.47551 0.638419,0 1.276837,0 1.915256,0 0.09219,0.57921 -0.743508,0.5965 -1.100486,0.9037 -0.672235,0.29627 -1.251435,0.74121 -1.833142,1.18213 -0.02291,0.51446 -0.124884,1.12072 0.586729,0.78228 0.648052,-0.14845 1.292162,-0.17983 1.927711,0.0428 0.683083,0.21282 -0.352325,0.60873 -0.624917,0.78625 -0.415314,0.28165 -0.97053,0.0338 -1.355388,0.43989 -0.737951,0.43879 -1.552527,0.79491 -2.24391,1.28392 -0.318743,0.45193 -0.66119,0.89617 -0.560222,1.48408 -0.0778,1.17603 0.0091,2.37898 -0.434964,3.49511 -0.14773,0.66075 -0.527331,1.30042 -0.609581,1.94966 0.02252,0.60989 0.667924,0.64033 0.786496,0.046 0.371498,-0.52179 0.521165,-1.28602 1.230784,-1.43828 0.829555,-0.29905 1.571222,-0.98985 2.49403,-0.87325 0.653122,-0.20712 0.809546,0.306 0.960321,0.8273 0.471173,0.43033 1.0122,0.80948 1.509901,1.22038 -0.174674,0.61418 0.251422,0.91863 0.728861,1.19661 0.578115,0.32432 0.512877,1.12225 0.788941,1.66893 0.310492,0.68251 0.360041,1.40655 0.313912,2.14582 -0.404582,0.50226 -0.972726,0.9408 -1.281709,1.4803 -0.0591,0.52816 -0.0197,1.01337 0.497006,1.29034 0.313692,0.47853 0.752889,0.52854 1.262142,0.33935 1.277263,-0.31939 2.625788,-0.0775 3.907294,-0.23361 0.522292,-0.20653 0.926255,-0.47118 0.636703,-1.0764 -0.167549,-1.20514 -0.122411,-2.44791 -0.294756,-3.64374 -0.303461,-0.70501 -0.68844,-1.35226 -1.282212,-1.85157 -0.317703,-0.3922 -0.920564,-0.68099 -0.698193,-1.26902 0.07671,-1.07178 0.153425,-2.14358 0.230138,-3.21537 0.343168,-0.33374 0.599442,-0.85416 0.993079,-1.07948 0.49155,0.0702 1.143792,-0.22177 1.417139,0.34018 0.655715,0.2765 -0.23404,0.88182 0.382356,1.11971 0.534404,0.25245 0.121172,0.90782 0.396542,1.33671 0.252167,1.07536 0.749113,2.11743 0.620237,3.24462 -0.06555,0.74512 0.12866,1.51394 0.433265,2.16944 0.434081,0.27629 0.775708,0.61066 0.775705,1.15961 0.252095,1.27212 0.653377,2.5276 0.810652,3.8103 -0.07932,0.47103 0.159238,1.08566 -0.129768,1.46197 -0.799722,0.65543 -1.511565,1.47959 -2.429431,1.95025 -0.872717,0.12907 -1.793418,0.0942 -2.636861,0.32329 -0.539028,0.27883 -1.160658,0.4679 -1.377926,1.09637 -0.346138,0.40714 -0.471828,0.87689 -0.396159,1.40383 -0.02877,0.74134 0.140655,1.52427 -0.299399,2.17927 -0.513806,0.80477 -0.196228,1.77209 -0.244369,2.66791 -0.392604,0.0769 -0.433028,0.6617 -0.485314,1.17123 0.539935,0.34515 0.076,0.81804 -0.135038,1.26902 -0.311133,0.56615 0.04617,1.25453 0.0334,1.87524 0.334822,0.77752 -0.437851,0.54512 -0.950172,0.55013 -1.081562,-0.0113 -2.159021,-0.058 -3.236146,-0.15962 z m 0.255515,-5.42409 c 0.278156,-1.01596 0.197777,-2.11267 0.332059,-3.16103 -0.131389,-0.39032 -0.979791,-0.19786 -1.403644,-0.35047 -0.479415,-0.12257 -1.227576,0.08 -1.235963,-0.61247 0.824718,0.0845 1.649434,0.16899 2.474152,0.25348 0.387688,-0.40683 0.599079,-0.87124 0.494639,-1.43881 -0.321948,-0.20218 -1.004788,-0.0513 -1.466813,-0.1164 -0.867199,-0.0146 -1.734168,-0.0352 -2.599541,-0.0963 -0.276758,1.08701 -0.189298,2.23946 -0.316792,3.35329 0.798356,-0.0508 1.596713,-0.10168 2.395069,-0.15251 0.563882,0.2664 0.265565,0.74197 -0.144494,0.94868 -0.725397,0.0348 -1.450794,0.0695 -2.176191,0.10432 0.08587,0.44019 -0.377767,1.27022 0.13416,1.40815 1.062652,0.23977 2.179896,0.0744 3.264886,0.1484 0.207768,0.0693 0.170754,-0.16814 0.248473,-0.28837 z m 5.825678,-6.67708 c 0.551501,-0.0939 0.967604,-0.62355 1.466625,-0.88634 0.302328,-0.26936 1.025747,-0.39827 1.205947,0.0417 0.349528,0.18607 1.117354,0.25243 1.374708,-0.19757 0.563728,-0.59991 1.127452,-1.19982 1.691178,-1.79974 -0.226577,-1.7646 -0.932327,-3.42652 -1.408821,-5.13384 -0.376678,-0.68571 -0.642432,-1.4056 -0.69146,-2.19225 -0.150227,-0.49529 -0.0954,-0.95903 -0.0554,-1.41021 -0.318961,-1.55024 -0.644738,-3.09908 -0.968307,-4.64837 -0.440582,0.0258 -1.042662,-0.2047 -1.392364,-0.0346 -0.292644,0.58261 -0.400749,1.19912 -0.335937,1.84739 0.155877,0.66556 -0.609044,1.23478 -0.185015,1.86236 0.09939,0.52276 0.383162,0.91845 0.831144,1.20099 0.582172,0.20465 0.312272,0.78347 0.738342,1.09312 0.553741,0.42774 0.304849,1.20966 0.455161,1.81586 0.106787,1.04872 0.213572,2.09744 0.320358,3.14617 0.579721,0.33507 0.78736,0.58576 -0.03073,0.60391 -0.47117,-0.0563 -1.055216,0.32439 -0.778571,0.79282 0.678493,0.39734 -0.112864,0.66134 -0.31553,0.1998 -0.729588,-0.31506 -1.619379,-0.4417 -2.410303,-0.68461 -0.617401,0.20739 -1.401253,0.11292 -1.80555,0.70678 0.04835,1.14873 -0.105501,2.32746 0.346685,3.4163 0.169653,0.56178 0.244131,1.17289 0.709773,1.58128 0.391733,-0.41896 0.699959,-1.01188 1.144441,-1.32095 l 0.08475,-3e-5 z m -5.227574,-1.98505 c 0.369105,-0.45828 0.913569,-0.84291 0.813826,-1.49813 -0.02688,-0.42423 0.221817,-1.20382 -0.432837,-1.13788 -0.51019,0.15311 -1.005854,-0.54194 -0.518343,-0.65372 0.515773,0.0962 1.252834,0.42823 0.910953,-0.39006 -0.03501,-0.46761 -0.321657,-1.0331 0.265296,-1.25876 0.426184,-0.39447 1.263646,-0.82166 0.92736,-1.51024 -0.319224,-0.95597 -0.334261,-2.05288 -1.03969,-2.82992 -0.176186,-0.32082 -0.878056,0.98812 -0.850839,0.19194 -0.08515,-0.48296 0.302395,-1.19433 -0.224135,-1.46402 -0.365371,-0.51107 -0.891251,-0.10292 -0.705214,0.42991 0.158264,0.51592 -0.534672,0.97495 -0.317984,1.4111 0.413137,0.55905 0.900735,1.07749 1.063811,1.77296 -0.303501,0.3487 -0.891162,0.28984 -1.059536,-0.1493 -0.213049,-0.45097 -0.611232,-0.88044 -0.318818,-1.39016 0.356273,-0.5702 -0.681957,-0.45824 -0.66744,0.0411 -0.221821,0.40849 -0.05304,1.06522 0.239034,1.39777 0.312887,0.34186 0.862946,0.58112 0.69423,1.13133 -0.497218,0.12971 -1.11069,0.12864 -1.148272,0.77539 -0.349047,0.52074 0.283083,1.04657 0.0089,1.60425 -0.15273,0.36488 0.08941,1.32843 -0.537946,0.97373 -0.535577,-0.31692 -0.778195,0.49322 -0.704111,0.91326 -0.01876,0.6565 0.601533,1.13051 0.865606,1.70623 0.368369,0.2388 0.902214,0.10025 0.782297,-0.46533 -0.139153,-0.67735 0.676713,-0.75424 0.470308,-0.0325 0.07047,0.41445 -0.116262,1.05268 0.164495,1.31602 0.607803,0.18108 0.86991,-0.39152 1.220685,-0.77081 l 0.05531,-0.0642 z m -5.733683,-0.77571 c 0.169726,-0.58942 0.558208,-1.13961 0.479623,-1.77358 0.158606,-0.40097 0.965473,-0.79145 0.632441,-1.20037 -0.337391,-0.56757 -0.799128,-1.00415 -1.384284,-1.31075 -0.522811,-0.081 -0.854105,-1.01507 -0.112111,-0.83866 0.133409,-0.32771 -0.13478,-0.99698 -0.156372,-1.45652 -0.183311,-1.22955 -0.332351,-2.46419 -0.5023,-3.69573 0.332024,-0.80549 0.984254,-1.52712 0.879107,-2.44712 0.0437,-1.11594 0.14487,-2.24476 0.329496,-3.33847 0.266863,-0.48431 0.420979,-1.07755 1.012533,-1.24816 0.43945,-0.24676 0.878902,-0.49353 1.318353,-0.74029 -0.03381,-0.57165 -0.241856,-1.19414 -0.166367,-1.73389 0.315138,-0.37452 0.630272,-0.74904 0.945405,-1.12356 -0.30669,-0.52309 -0.79187,0.17019 -1.189371,0.26595 -0.731101,0.39522 -1.104552,1.22501 -1.680318,1.80896 -0.268274,0.5515 -0.769027,1.05657 -0.842975,1.66604 -0.13245,0.80262 -0.635306,1.52734 -0.914761,2.29904 -0.526809,1.23549 -1.146083,2.4695 -1.468543,3.7658 0.02804,1.89353 -0.04382,3.79836 0.04633,5.68486 0.168954,0.99565 0.482467,1.94231 0.956232,2.83469 0.175301,0.70029 -0.007,1.50905 0.176312,2.19227 0.469634,0.33163 0.537259,0.81816 0.471076,1.35625 -0.179352,0.52125 0.921968,0.4733 0.838195,-0.0702 0.110767,-0.29886 0.221535,-0.59772 0.332303,-0.89659 z m 2.643967,-3.33131 c 0.250826,-0.6227 -0.231253,-0.90796 -0.701468,-1.19868 -0.422554,-0.33407 -0.995041,-0.55245 -1.084666,-1.14343 -0.691625,-0.21518 -0.578533,0.37434 -0.561564,0.86774 0.05521,0.47535 0.683203,0.69625 0.971987,1.06783 0.436368,0.29103 0.658255,0.74979 0.886358,1.2037 0.546505,-0.0508 0.448031,-0.34788 0.489353,-0.79716 z m -2.714399,-6.10082 c 0.240887,-0.48938 0.273585,0.45313 0,0 z"
       id="shadow-1" />
    <path
       style="fill:#000000;stroke-width:0.177839"
       d="m 111.20701,219.71421 c -1.24488,-0.056 -2.48975,-0.11202 -3.73463,-0.16803 -0.26958,-0.32275 0.21602,-0.83891 0.2477,-1.23883 0.3262,-0.50024 0.12551,-0.93057 -0.23531,-1.33963 -0.34405,-0.45283 -0.63466,-0.92562 -0.61407,-1.51473 -0.14684,-1.3688 -0.426,-2.73367 -0.49004,-4.10492 0.0163,-1.03264 0.33096,-2.09137 -0.0568,-3.08867 -0.50928,-0.72887 -1.28014,-1.30202 -1.55577,-2.19048 -0.31753,-0.55162 -0.48568,-1.15417 -0.59229,-1.77771 -0.44718,-0.33802 -1.01514,-0.58735 -1.38628,-0.98122 -0.52346,-1.71072 -0.81593,-3.48735 -1.1589,-5.23689 0.0556,-0.81843 -0.041,-1.67058 0.3983,-2.40402 0.25185,-0.64332 0.46583,-1.30115 0.7029,-1.95014 -0.32612,-0.3388 0.52547,-0.45701 0.56916,-1.03978 0.55894,-0.69885 0.34397,-1.62578 0.46084,-2.45491 0.0923,-0.79604 -0.0644,-1.66005 0.44478,-2.34234 0.28135,-0.77345 0.97065,-1.28249 1.56407,-1.79998 0.45374,-0.21181 0.92111,-0.35012 1.42587,-0.28666 0.18441,0.5167 0.77819,1.00232 0.40846,1.56109 -0.21016,0.78087 -0.66874,1.52093 -0.57717,2.35137 0.62486,0.16595 0.84921,-0.54703 1.24253,-0.8892 0.69477,-0.15601 0.19888,0.68314 0.0615,1.0027 -0.19592,0.59918 -0.52227,1.10832 -1.02364,1.49664 -0.56503,0.59402 -1.2325,1.12814 -1.7346,1.75895 -0.0467,0.46198 -0.41969,0.97169 -0.25378,1.40256 0.24869,0.39192 -0.21474,0.86264 -0.26677,1.28782 -0.21316,0.59939 -0.4928,1.19001 -0.32857,1.83902 0.0838,0.80476 -0.0165,1.65819 0.46968,2.35652 0.42767,0.7979 0.71748,1.70016 1.23281,2.43173 0.41765,0.31428 0.77692,0.78353 1.22883,1.00687 0.52449,0.0923 0.96107,-0.0842 1.33686,-0.44667 0.18972,-0.39353 0.0199,-0.96822 0.073,-1.43058 0.0874,-0.51949 -0.0858,-0.9548 -0.44282,-1.33074 -0.35615,-0.37426 -0.53451,-0.80779 -0.45601,-1.32691 0.002,-1.03624 -0.19913,-2.05812 -0.29885,-3.08717 0.61794,-0.60058 1.1705,-1.31936 1.82801,-1.84844 0.69971,-0.18394 1.40221,-0.29247 2.11542,-0.11231 0.55235,-0.0119 1.00333,0.16499 1.28274,0.6614 0.3374,0.41841 0.85403,0.7701 0.69161,1.37458 0,0.84879 0,1.69757 0,2.54635 0.55445,0.15385 0.34507,0.83533 0.30955,1.25119 -0.30258,0.5831 -0.97931,1.05112 -0.84306,1.76922 -0.1271,0.62927 0.37603,1.09173 0.62244,1.62215 0.53328,-0.0873 1.25371,0.24841 1.57299,-0.32254 0.35816,-0.3401 0.32478,-0.80971 0.82866,-1.05063 0.3549,-0.35278 0.2348,-0.97688 0.38729,-1.44527 0.16583,-0.71455 0.17789,-1.49081 0.38702,-2.17514 0.54014,-0.5368 1.1515,-1.15726 1.03888,-1.98716 -0.01,-1.45875 0.0743,-2.93745 0.007,-4.38397 -0.2868,-0.53083 -0.45249,-1.19067 -0.81078,-1.64535 -0.48437,-0.15027 -0.96269,-0.30746 -1.10095,-0.85128 -0.22082,-0.61613 -1.13467,-0.88776 -0.97577,-1.62187 -0.0895,-0.38699 0.60259,-1.0253 0.78967,-0.42022 0.31658,0.23426 0.54051,1.04678 0.96531,0.60555 -0.08,-0.786 -0.21902,-1.55819 -0.49522,-2.29782 -0.0715,-0.53604 -0.14301,-1.07209 -0.21452,-1.60812 0.69939,-0.0565 1.39036,0.18722 2.02978,0.42155 0.53696,0.4585 1.15859,0.84934 1.38527,1.55583 0.4067,0.65287 0.11687,1.47363 0.19894,2.20476 0.0207,1.0123 -0.0591,2.04841 0.0248,3.04575 0.47006,0.88746 0.89084,1.81836 0.89405,2.84249 0.0956,1.12235 0.28981,2.25663 0.32424,3.3716 -0.36091,0.78329 -0.49229,1.6198 -0.54751,2.47398 -0.34407,0.91831 -0.5846,1.88797 -1.2083,2.66759 -0.12497,0.91616 -0.16265,1.85696 -0.65131,2.67047 -0.32441,0.98958 -1.24026,1.64929 -1.72083,2.52638 -0.082,1.43224 -0.0467,2.88166 -0.15857,4.3048 -0.26739,0.55834 -0.45744,1.13161 -0.37067,1.75825 0.074,1.27676 -0.3443,2.54875 -0.36739,3.80005 0.34572,0.75005 0.79395,1.47591 1.07852,2.2404 -0.0378,0.45883 -0.8876,0.0841 -1.27558,0.1834 -1.56163,-0.0355 -3.1216,-0.12981 -4.68208,-0.19268 z m 2.14058,-5.64791 c 0.49533,-0.26313 0.16558,-0.91372 0.26025,-1.365 0,-0.66951 0,-1.33903 0,-2.00854 -0.5858,0 -1.17161,0 -1.7574,0 -0.55361,-0.57745 0.44409,-0.29001 0.80845,-0.35567 0.4692,0.0918 1.07186,-0.0598 1.12678,-0.59097 -0.0815,-0.3882 0.24434,-1.11608 -0.34841,-1.14417 -0.97827,0.0989 -1.95653,0.19772 -2.9348,0.29658 -0.37949,0.38679 -0.55939,0.83427 -0.4348,1.37428 0.0241,0.58458 0.0482,1.16916 0.0723,1.75375 0.68522,-0.16668 1.36432,0.0277 2.04514,0.12017 0.21909,0.71398 -0.37525,0.63301 -0.90254,0.61756 -0.44033,0.0728 -0.98921,-0.10827 -1.35862,0.1303 -0.11218,0.33491 0.64117,0.69018 0.14713,1.15396 0.0319,0.63607 0.75338,0.35088 1.19065,0.35881 0.62313,-0.0754 1.29751,-0.0225 1.88877,-0.17754 0.0657,-0.0546 0.1314,-0.10901 0.19709,-0.16352 z m -5.94466,-6.70802 c 0.37403,-0.85151 0.14003,-1.82267 0.23489,-2.72911 0.21132,-0.60775 -0.30645,-0.82646 -0.74777,-1.08595 -0.48805,-0.31484 -1.0528,-0.55806 -1.23083,-1.16232 -0.49461,-0.75212 -0.77962,-1.58852 -0.96913,-2.46332 -0.14136,-0.76423 -0.45981,-1.45775 -0.86121,-2.11815 -0.22312,-0.59303 0.42056,-0.68182 0.36931,-1.21204 0.11915,-1.03731 0.13129,-2.09939 0.60054,-3.05565 0.20396,-0.59318 0.36643,-1.21278 0.91028,-1.58944 0.40525,-0.33701 0.75318,-0.69777 0.60746,-1.26321 0.0482,-0.66804 -0.0984,-1.3829 0.0746,-2.02093 0.2323,-0.60637 0.82627,-1.15245 0.57975,-1.83861 -0.0409,-0.36634 -0.99796,-0.47775 -1.15301,-0.0701 -0.53339,0.61634 -0.95653,1.29633 -1.21191,2.07322 -0.15925,0.84875 -0.0213,1.75709 -0.0678,2.62845 -0.10459,0.61436 -0.36054,1.23336 -0.61952,1.80111 -0.53654,0.76097 -1.06392,1.52667 -1.31609,2.43452 -0.43949,0.76368 -0.0726,1.63768 -0.0715,2.46163 0.1904,1.37825 0.5565,2.73002 0.82031,4.09702 0.78563,1.1908 1.64064,2.34547 2.14652,3.69186 0.2259,0.65357 0.60118,1.20559 1.12359,1.65754 0.32005,0.46436 0.71649,0.29203 0.78157,-0.23652 z m 9.49493,-0.6107 c 0.45681,-0.66271 1.00179,-1.2969 1.38258,-1.99256 0.14549,-0.84368 0.0837,-1.74888 0.36736,-2.55156 0.40119,-0.94702 1.1275,-1.79408 1.13925,-2.86084 0.12855,-1.22054 0.3758,-2.44186 0.43035,-3.66191 -0.22244,-1.28392 -0.22971,-2.62321 -0.81183,-3.8146 -0.16491,-0.42898 -0.2696,-0.89652 -0.66153,-1.18025 0.0258,2.11548 0.0516,4.23096 0.0774,6.34643 -0.57634,0.3192 -0.74604,1.02376 -1.12765,1.52751 -0.19289,1.0912 -0.27116,2.2365 -0.53559,3.29392 -0.39663,0.51935 -0.99359,0.93769 -1.26192,1.52173 -0.10784,0.82692 -0.50052,1.68061 -0.16266,2.49439 0.15587,0.53302 0.26026,1.07813 0.37074,1.62181 0.4262,0.0664 0.52857,-0.50517 0.7935,-0.74407 z m -5.27168,-0.65916 c 0.43564,-0.16286 0.0554,-0.91298 -0.20678,-1.11579 -0.33653,-0.19536 0.30444,-0.94566 0.56901,-1.03775 0.35117,0.15573 0.16992,0.90752 0.29917,1.31169 -0.0444,0.48326 0.14868,1.22724 0.64702,0.59024 0.34033,-0.35661 0.83603,-0.64885 0.67324,-1.21386 0.088,-0.83434 -0.56156,-1.49686 -0.84006,-2.24584 -0.25917,-0.46397 -0.50064,-0.93207 -0.40482,-1.47874 -0.12231,-0.51151 -0.67506,0.10603 -0.88398,0.15232 -0.5331,-0.052 -1.06076,-0.12872 -1.56168,-0.32692 -0.25676,0.66056 -0.23179,1.359 -0.22406,2.05513 -0.17723,0.49052 -0.73586,0.94399 -0.40482,1.4839 0.18843,0.62687 0.69238,1.10482 1.01626,1.66775 0.41568,0.1322 0.92283,0.52739 1.3215,0.15787 z m 7.36435,-17.04757 c 0.0793,-0.89192 0.14904,-1.78328 -0.10188,-2.6558 -0.0245,-0.71307 -0.79184,-1.03608 -1.18504,-1.55556 -0.54812,0.31622 -0.17628,0.91731 -0.15318,1.4104 0.26474,0.92813 0.10374,1.87167 0.0167,2.81253 0.3629,0.51485 0.72578,1.02969 1.08868,1.54453 0.49885,0.0109 0.16829,-0.86255 0.31364,-1.22855 0.007,-0.10919 0.0141,-0.21837 0.0211,-0.32755 z"
       id="shadow-2" />
    <path
       style="fill:#000000;stroke-width:0.181271"
       d="m 155.88316,219.36835 c -0.7761,-0.0482 -1.56078,-0.23275 -2.31697,0.035 -0.47315,-0.44238 0.0483,-0.98787 0.15283,-1.49014 0.0863,-0.53762 -0.5615,-0.99851 -0.42681,-1.58554 -0.0517,-2.45892 -0.10327,-4.91783 -0.15491,-7.37675 -0.27438,-0.56793 -0.71508,-0.97519 -1.2603,-1.28151 -0.45618,-0.44698 -1.05059,-0.55154 -1.66161,-0.61495 -0.94729,-0.0666 -1.87425,-0.45452 -2.51802,-1.16333 -0.39187,-0.43502 -0.95054,-0.7991 -1.24027,-1.27756 -0.008,-0.8433 -0.0729,-1.69576 0.30759,-2.47683 0.22737,-0.58639 0.32009,-1.20872 0.45167,-1.82067 0.64245,-0.0274 0.44776,-0.573 0.6804,-0.99501 0.35909,-0.91074 0.88698,-1.77751 0.86601,-2.78724 0.17198,-1.26721 0.23077,-2.55693 0.42864,-3.81401 0.25933,-0.67642 0.23753,-1.53238 0.94006,-1.92574 0.36218,-0.29028 0.66815,-0.79825 1.18225,-0.50033 0.46002,0.10836 1.04415,0.12113 1.15513,0.68512 0.35412,0.47388 0.39751,1.02391 0.35275,1.59555 0.003,0.89273 0.006,1.78546 0.009,2.67819 -0.7694,0.76115 -1.53354,1.57341 -2.00966,2.54276 -0.1139,1.39249 -0.32757,2.77863 -0.35432,4.17667 0.42543,0.10943 1.2238,-0.10409 0.98028,0.30979 0.68912,0.0739 1.43231,-0.0537 2.08866,0.14235 0.65028,0.52311 1.49201,0.16433 2.24983,0.19205 0.42313,-0.10202 0.0726,-0.92983 0.18745,-1.32108 -0.14306,-0.60001 -1.0674,-0.85488 -1.01839,-1.56195 -0.29398,-0.68066 0.22832,-0.56521 0.31696,-1.14306 0.25015,-0.75356 0.31662,-1.60527 0.94782,-2.15812 0.53403,-0.69519 1.20833,-1.33875 1.65458,-2.06626 0.0968,-0.33642 0.8406,-0.0702 0.87136,-0.73097 0.13246,-0.61039 0.63663,-0.58356 1.14769,-0.54495 0.70746,0.15283 1.33458,0.64578 2.01165,0.92731 0.53901,0.35902 1.14659,0.67542 1.31377,1.35336 0.0535,0.72135 0.77809,0.70406 0.56637,-0.005 -0.28789,-1.03612 -0.58125,-2.07138 -0.55208,-3.15749 -0.0903,-1.1375 -0.0109,-2.3054 -0.46496,-3.37776 -0.84977,-0.39499 -1.69956,-0.78998 -2.54934,-1.18497 -0.035,-0.67141 -0.61456,-0.55066 -1.1204,-0.53711 -0.34372,-0.23833 -0.81063,-0.62845 -0.67835,-1.12967 0.19791,-0.30238 0.94281,-0.437 1.3445,-0.24683 0.30572,0.0373 1.12617,0.55146 0.99691,-0.0328 -0.0115,-0.59311 -0.70732,-0.44291 -0.95422,-0.84705 -0.35184,-0.32338 -0.55225,-0.97211 -1.12301,-0.82519 -0.44639,-0.24406 -0.28172,-0.87384 0.27259,-0.90065 0.72011,0.007 1.46637,-0.10396 2.09165,0.33545 1.03857,0.34946 1.64683,1.32882 2.45954,2.00889 0.6204,0.61415 0.80594,1.53936 1.23551,2.29001 0.38546,0.74087 0.71576,1.49975 0.79914,2.3392 0.48692,1.02326 1.1079,1.99861 1.2513,3.14464 0.30848,1.08874 0.0278,2.23462 0.0608,3.35008 -0.0604,0.91519 -0.007,1.86481 -0.13655,2.75915 -0.45112,0.45223 0.35015,1.08476 -0.14612,1.54547 -0.27284,0.63194 -0.75855,1.21118 -0.90056,1.87551 -0.0117,0.91218 0.10264,1.84311 -0.28662,2.69908 -0.13326,0.71545 -0.5315,1.33848 -0.80166,1.9863 0.23042,0.54967 -0.51485,0.64115 -0.54382,1.06904 0.062,0.51462 0.0292,0.95726 -0.45518,1.08009 -0.0845,2.64404 -0.0849,5.30662 -0.22149,7.93913 -0.2741,0.54705 -0.50617,1.10282 -0.411,1.72674 0.0645,0.57694 -0.87243,0.1421 -1.25385,0.26848 -1.93848,-0.0479 -3.88441,0.0429 -5.81446,-0.17416 z m 5.50513,-5.84029 c 0.23902,-0.9891 0.0518,-2.03476 0.11453,-3.04723 -0.15511,-0.44777 -0.82987,-0.28385 -1.20995,-0.14339 -0.37558,-0.11305 -1.27598,-0.0244 -1.29862,-0.38782 0.11605,-0.5438 0.91164,-0.22162 1.33744,-0.37069 0.46979,-0.0993 1.28713,0.15553 1.12888,-0.5834 0.22781,-0.63523 -0.0775,-0.80376 -0.68638,-0.70648 -0.93695,-0.0968 -1.86277,0.0964 -2.7881,0.21459 -0.48853,0.49247 -0.15192,1.18459 -0.16467,1.79218 0.1199,0.3945 -0.16362,1.25244 0.51288,1.11849 0.5728,0.0248 1.14559,0.0496 1.71839,0.0744 0.1049,0.58546 -0.022,1.02734 -0.70375,0.88262 -0.5104,0.008 -1.0208,0.0157 -1.53121,0.0236 -0.11597,0.51807 -0.42831,1.04604 -0.0826,1.5408 1.18144,0 2.36289,0 3.54434,0 0.0361,-0.13575 0.0737,-0.27295 0.10881,-0.40777 z m -7.31784,-5.9286 c -0.0255,-0.45338 0.44979,-0.73354 0.47694,-1.22339 0.31384,-0.72964 0.17706,-1.54655 0.26771,-2.3194 -0.28326,-0.40704 -0.52577,-0.88934 -1.10803,-0.74401 -0.68161,-0.006 -1.39489,-0.14292 -2.05719,-0.0697 -0.41087,0.24242 -0.82174,0.48484 -1.23261,0.72726 -0.60406,-0.13097 0.0466,-0.8416 -0.19058,-1.1149 -0.47614,-0.21492 -0.95334,-0.41014 -1.45494,-0.15234 -0.47046,-0.13488 0.2824,-0.69572 0.52929,-0.90422 0.56193,-0.26111 0.40682,-0.84372 0.41897,-1.35134 0.0661,-1.00087 0.2546,-2.00984 0.44129,-2.99058 0.26444,-0.71438 0.8018,-1.22489 1.35537,-1.72327 0.46886,-0.31201 0.67484,-0.73512 0.55853,-1.29446 -0.0585,-1.03103 0.15124,-2.0977 -0.20375,-3.08935 -0.38941,-0.33372 -0.9259,-0.57426 -1.3042,-0.12678 -0.61131,1.43227 -0.79322,2.99976 -1.20378,4.49524 -0.0202,0.77986 0.11221,1.58951 -0.3176,2.28945 -0.26943,0.80704 -0.76797,1.57498 -0.81486,2.42186 -0.44257,0.82414 -0.88661,1.64775 -1.00592,2.59007 -0.10079,0.50335 -0.39934,1.06077 0.0875,1.4543 0.58406,0.61621 1.16813,1.23244 1.7522,1.84865 0.56315,0.10528 1.00133,-0.3032 1.48731,-0.51517 1.08827,0.74084 2.09497,1.58038 3.0295,2.50725 0.22086,-0.22453 0.59933,-0.33451 0.48885,-0.71517 z m 5.08989,-2.04731 c 0.0114,-0.47032 -0.0408,-1.35724 0.18237,-0.44158 0.2127,0.37952 0.36407,1.21466 0.77209,0.50805 0.32089,-0.37033 0.80522,-0.67183 1.02521,-1.08468 0,-0.49142 0,-0.98284 0,-1.47427 -0.44745,-0.0746 -0.78791,0.75979 -1.08763,0.0763 0.0389,-0.45284 -0.20573,-1.10054 0.462,-1.12112 0.28892,-0.0183 0.59083,0.87627 0.98817,0.41743 -0.16722,-0.57986 0.38237,-0.8538 0.7243,-1.21637 0.27168,-0.39141 0.95879,-0.62552 0.90744,-1.13927 -0.11497,-0.28273 0.11396,-1.44766 -0.33682,-0.86894 -0.51111,0.4179 -0.96155,0.99112 -1.50968,1.3142 -0.53943,-0.11033 -0.51555,0.67404 -0.78498,0.99256 -0.63906,0.22956 -0.74145,0.0638 -0.34075,-0.47242 0.14199,-0.41337 -0.31477,-0.91811 -0.69574,-1.10624 -0.74713,-0.22282 -0.30569,-0.63368 0.0529,-1.03142 0.33862,-0.38246 0.70968,-0.75553 0.49236,-1.29867 0.22181,-0.5667 -0.9531,-0.79786 -0.68426,-0.13657 0.15061,0.66223 -0.44819,1.08492 -0.74977,1.6026 -0.67105,0.21226 -0.52024,-0.39734 -0.51912,-0.85724 0.26028,-0.42579 0.76175,-0.77992 0.93263,-1.22824 -0.10141,-0.72259 -0.28153,-1.43652 -0.29824,-2.16846 -0.64317,-0.34347 -0.80076,0.1854 -0.9544,0.72141 -0.11338,0.40225 0.3922,1.21941 0.0189,1.35731 -0.60915,0.17802 -0.2603,-0.60198 -0.93089,-0.36254 -0.3002,0.86777 -0.74947,1.72782 -0.94077,2.62201 -0.0929,0.46868 0.17067,0.89747 0.53112,1.1572 0.55455,0.094 0.9629,0.27855 0.66772,0.89831 0.0274,0.42503 -0.37572,1.1161 -0.27584,1.33561 0.4905,-0.34342 1.01058,-0.008 1.52102,0.10539 -0.53041,0.17768 -1.05108,0.38126 -1.56854,0.59335 0.1052,0.75217 0.35542,1.44864 0.78676,2.07558 0.24584,0.44786 0.61913,0.91632 1.01921,1.18243 0.73666,0.23007 0.58729,-0.43932 0.59261,-0.95167 z m 5.02518,0.72324 c 0.43377,-0.58224 0.42405,-1.39221 0.67191,-2.06991 0.19672,-0.59201 0.29275,-1.20065 0.29889,-1.81503 0.27658,-0.91393 0.75186,-1.78946 0.90247,-2.72774 0.0472,-1.88352 0.17436,-3.7789 0.17151,-5.65503 -0.45106,-1.16583 -0.66092,-2.44959 -1.46488,-3.44292 0.0552,-0.94785 -0.49164,-1.79701 -0.7178,-2.69873 -0.55355,-1.01472 -1.16695,-2.0229 -1.9812,-2.84225 -0.33572,-0.16537 -1.03721,-0.99035 -1.11406,-0.38956 0.24146,0.3894 0.94982,0.70793 0.87878,1.14476 -0.17905,0.49385 -0.73321,0.97907 -0.30989,1.48677 0.0676,0.6019 0.62334,0.62574 1.10178,0.74117 0.592,0.038 0.752,0.72058 1.12188,1.09001 0.0681,1.44431 0.0494,2.90903 0.17104,4.34076 0.21232,0.54528 0.49491,1.04646 0.90704,1.46631 -0.21896,1.10332 -0.46638,2.20634 -0.78263,3.28007 0,0.59087 0,1.18174 0,1.7726 0.71516,0.23996 0.20165,0.79558 -0.30757,0.89986 -0.59748,0.19818 -0.99527,0.65701 -1.38723,1.12346 0.46234,0.80429 0.71857,1.67873 0.86529,2.59044 -0.0344,0.54305 0.40552,0.88861 0.46697,1.35032 -0.0996,0.48095 0.10873,0.8937 0.5077,0.35464 z"
       id="shadow-3" />
    <path
       style="fill:#000000;stroke-width:0.183926"
       d="m 155.33487,171.15125 c -0.47846,-0.36099 0.20728,-0.85113 0.29975,-1.27545 0.42842,-0.59958 0.003,-1.34165 -0.003,-2.01405 -0.0716,-0.49887 -0.0506,-1.04108 -0.51354,-1.35663 -0.18469,-0.4128 -0.24706,-0.81448 -0.77071,-1.01712 -1.34449,-1.20304 -2.61714,-2.50121 -3.9702,-3.68937 -0.43905,-0.22224 -0.9399,-0.37881 -1.09539,-0.90236 -0.62706,-1.01843 -1.19665,-2.07368 -1.74263,-3.1314 -0.269,-0.52243 -0.55619,-0.66072 -0.87733,-0.0823 -0.62557,0.56078 -0.88973,1.38168 -1.32091,2.08238 0.76138,0.81375 1.68854,1.49867 2.16234,2.53589 0.52716,0.88484 1.05432,1.76967 1.58148,2.65453 0.85915,0.12442 1.36519,0.87135 2.00898,1.37544 -0.0363,0.48686 0.15066,1.04864 -0.29552,1.39792 -0.47295,0.56968 -0.80086,1.30931 -1.55717,1.54693 -0.69952,0.31838 -1.34972,0.83031 -2.08106,1.02373 -0.35522,-0.0998 -1.19337,0.28794 -1.03226,-0.33296 -0.0726,-0.58698 0.57364,-0.92308 0.83513,-1.39345 0.44051,-0.48125 0.26305,-1.22221 0.41799,-1.82348 0.26233,-0.55779 -0.21541,-0.85269 -0.57764,-1.18861 -1.70499,-1.56222 -3.28997,-3.24257 -4.84519,-4.95221 -0.22227,-0.42923 -1.15044,-0.14635 -1.1733,-0.59287 0.0909,-0.79088 0.30079,-1.54401 0.69986,-2.23701 0.44046,-1.00748 1.0001,-1.99597 1.36608,-3.01531 -0.2053,-1.72396 -0.50027,-3.44223 -0.4143,-5.18463 0.0151,-1.11449 -0.0481,-2.24325 0.0161,-3.34883 0.0743,-0.42171 0.69785,-1.07674 -0.0257,-1.1717 -0.44522,-0.2389 -1.0368,-0.36849 -1.37272,-0.71046 -0.24001,-0.64839 0.33468,-1.20619 0.51191,-1.80818 0.15642,-0.53143 0.37192,-0.95682 0.98349,-0.67131 0.46384,0.0514 0.96269,0.25697 1.3234,-0.14599 0.28041,-0.28573 -0.33084,-0.80937 -0.41214,-1.19161 -0.24187,-0.56921 -0.64843,-1.12148 -0.79448,-1.69865 0.26562,-0.73964 0.40338,-1.49724 0.33485,-2.28385 -0.2095,-0.66175 0.31555,-0.75053 0.84243,-0.83788 0.11919,-0.54129 0.53076,-0.61237 1.06599,-0.53128 0.52452,0.0414 1.12443,-0.0838 1.60193,0.0614 0.32904,0.42845 0.79147,0.79903 1.04371,1.26081 0.0836,0.84844 0.16718,1.69685 0.25079,2.54528 -0.32398,0.48728 -0.92677,0.87803 -0.75848,1.53572 -0.0616,0.53214 -0.0422,1.01587 0.5717,1.14334 0.7977,0.17165 1.67466,0.0271 2.50342,0.0748 0.50408,0.003 0.59577,0.75326 0.92027,1.08172 0.1379,0.574 -0.0778,1.2336 -0.0769,1.84077 -0.38921,0.44328 -0.7784,0.88656 -1.1676,1.32983 0.44899,0.72496 0.38838,1.64685 0.60284,2.45944 0.19672,1.33529 0.51219,2.64585 0.86396,3.94534 0.0314,0.52636 0.21111,1.08515 -0.19268,1.51645 -0.2449,0.44972 0.23575,0.96624 0.30657,1.44504 0.36905,1.14495 0.90061,2.25285 0.92814,3.47566 0.0727,0.52488 0.0169,1.242 0.56878,1.48229 0.51929,-0.12856 0.87065,0.18869 1.20969,0.53865 0.35863,0.30254 0.77173,0.56445 0.73632,1.05491 0.26314,0.4291 0.72778,0.79013 0.87012,1.26004 0.22381,0.55191 0.77609,0.9864 1.12588,1.49327 0.7785,0.78496 1.84172,1.24582 2.67117,1.98759 0.24926,0.62173 -0.18176,1.323 -0.33756,1.95257 -0.23129,0.70891 -0.481,1.44646 -0.8327,2.09004 -0.42343,0.27408 -0.7557,0.81149 -1.32698,0.65849 -0.48718,-0.0418 -1.05296,0.084 -1.49089,-0.0628 -0.0551,-0.0661 -0.11011,-0.1324 -0.16515,-0.19861 z m 1.81377,-2.1033 c 0.36736,-0.49723 -0.0284,-1.12172 -0.0342,-1.6812 -0.49744,-0.0599 -0.49956,0.74314 -0.65574,1.0926 0.10445,0.35782 -0.0835,1.09807 0.50701,0.93053 0.061,-0.11398 0.12201,-0.22795 0.18302,-0.34193 z m -8.81005,-0.86551 c 0.2986,-0.53458 0.14097,-1.15295 0.17937,-1.73533 -0.59081,-0.15427 -0.36313,0.68316 -0.53809,1.03273 0.0479,0.36788 -0.51871,1.24289 0.058,1.17439 0.2302,0.053 0.19291,-0.33932 0.30083,-0.47179 z m 10.27613,-1.16779 c 0.50364,-0.1 0.024,-1.05192 -0.35577,-0.68863 -0.41355,0.23476 -0.48026,0.90613 0.099,0.85125 0.0855,-0.0542 0.17124,-0.10835 0.25669,-0.16262 z m -2.28437,-1.34921 c -0.27569,-0.90834 -0.98586,-1.61624 -1.44683,-2.43911 -0.5085,-0.77339 -1.10369,-1.5211 -1.72687,-2.1876 -0.53591,-0.18247 -1.0801,-0.55656 -1.61092,-0.62114 -0.51827,0.11473 -0.94414,0.66504 -0.40616,1.05427 1.09366,1.15355 2.26582,2.22087 3.47026,3.25606 0.52784,0.43058 0.99647,1.01375 1.56038,1.35135 0.4588,0.0794 0.20385,-0.12042 0.16014,-0.41383 z m -8.08347,-0.32966 c 0.23643,-0.43418 -0.42834,-0.86545 -0.5754,-1.29839 -0.28521,-0.56433 -0.83786,-1.04459 -0.84269,-1.69363 -0.20131,-0.48848 -0.38942,-0.98781 -0.91003,-1.21395 -0.39172,-0.23291 -0.74319,-0.63244 -1.15968,-0.76273 -0.52499,0.0787 -1.04998,0.15745 -1.57497,0.23617 -0.002,0.48442 0.60882,0.71526 0.86537,1.09271 1.27492,1.27648 2.54983,2.55296 3.82474,3.82944 0.20348,0.0189 0.29253,0.023 0.37266,-0.18962 z m 0.15778,-11.43046 c 0.64968,-0.0859 0.95068,-0.6768 1.44309,-1.07604 0.72005,0.20367 0.66953,-0.16534 0.54479,-0.63263 -0.1706,-0.76654 -0.32383,-1.53692 -0.48772,-2.30493 -0.48891,-0.29585 -0.96333,-0.0837 -1.43777,0.12731 -0.75228,0.17683 -1.56682,-0.0456 -2.34439,-0.031 -0.8405,-0.0463 -1.681,-0.0926 -2.52151,-0.13884 -0.39244,0.56649 -0.1513,1.32373 -0.25972,1.97572 -0.0217,0.55178 -0.0436,1.10355 -0.0653,1.65533 1.51661,-0.0243 2.93432,0.75047 4.44998,0.6211 0.2262,-0.0653 0.4524,-0.13074 0.67861,-0.1961 z m 0.35123,-6.3148 c 0.7356,0.0537 0.44847,-0.6296 0.44446,-1.10891 -0.1278,-0.43505 0.13843,-1.10846 -0.29563,-1.35823 -0.45182,-0.19786 -0.23301,-0.8306 -0.37638,-1.22848 0.0562,-0.80579 -0.61224,-0.29954 -0.69019,0.19307 -0.25754,0.46624 -0.70702,0.7975 -1.04433,1.20765 -0.49929,-0.0387 -1.0647,0.0777 -1.52214,-0.0589 -0.49792,-0.51966 -0.99586,-1.03934 -1.49379,-1.559 -0.39278,0.63419 -0.47114,1.35167 -0.50319,2.08141 -0.0456,0.50316 -0.0912,1.00631 -0.13678,1.50947 0.61233,0.47994 1.45447,0.26212 2.17791,0.40471 1.13769,0.0985 2.32376,0.19367 3.44006,-0.0827 z m 1.85173,-3.84778 c -0.0877,-0.47319 -0.46,-0.80309 -0.71021,-1.19445 -0.63814,-0.15548 -0.80854,0.11368 -0.60866,0.71897 0.13818,0.62024 -0.0111,1.3399 0.37313,1.87503 0.35515,-0.34026 0.71031,-0.68052 1.06546,-1.02079 -0.0399,-0.12625 -0.0797,-0.2525 -0.11972,-0.37876 z m -3.7966,0.4953 c 0.0784,-0.50711 0.75808,-0.59067 0.69794,-1.16595 0.35532,-0.55341 -0.22603,-0.68683 -0.62222,-0.90326 0.13578,-0.56025 -0.32211,-0.60609 -0.79278,-0.65579 -0.40694,0.0999 -0.7906,0.41277 -1.27985,0.28602 -0.63457,-0.1513 -0.23133,0.72953 -0.34252,1.09874 -0.10477,0.67043 0.55397,1.10566 0.82767,1.65952 0.4532,-0.0536 1.05493,0.10781 1.41965,-0.0737 0.0308,-0.0819 0.0614,-0.16373 0.0922,-0.24561 z m -3.88809,-0.70346 c 0.26388,-0.37712 -0.019,-1.19002 -0.41004,-0.96041 -0.22982,0.38514 -0.89805,0.83363 -0.50084,1.29193 0.29325,0.50979 1.00602,0.42935 0.8929,-0.23571 l 0.0151,-0.0802 z m 3.27003,-3.45937 c 0.29508,-0.52181 0.86337,-0.96115 0.70567,-1.61964 -0.022,-0.63755 -0.1834,-1.26364 -0.26305,-1.89645 -0.34804,-0.36684 -0.75682,-0.5595 -1.26757,-0.45981 -0.58288,-0.0917 -1.10502,0.14707 -1.63215,0.35874 v 1.66445 c 0.39091,-0.11988 1.28714,0.26554 1.28747,-0.24492 -0.1911,-0.53633 0.98825,-0.37426 0.34026,0.0705 0.33071,0.22613 1.08593,0.15065 1.13116,0.57958 -0.0602,0.40954 -0.87244,-0.008 -1.23632,0.0674 -0.55287,-0.11192 0.0188,0.80338 -0.0424,1.14064 -0.22352,0.17107 -1.17602,0.007 -0.79549,-0.3861 0.49264,-0.23921 0.23565,-0.93946 -0.3365,-0.67528 -0.6385,-0.16277 -0.59464,0.17504 -0.37235,0.64375 0.26852,0.72769 0.52387,1.46211 1.00969,2.07892 0.53032,-0.11286 0.95054,-0.36796 1.17275,-0.87883 0.0997,-0.14764 0.19922,-0.29527 0.29884,-0.4429 z"
       id="omega-3"
       sodipodi:nodetypes="ccccccccccccccccccccccccccccccccccccccccccccccccccccccccccccccccccccccccccscccscccccccccccccccccccccccccccccccccccccccccccccccccccccccccccccccccccccccccccccccccc" />
    <path
       style="fill:#000000;stroke-width:0.183924"
       d="m 63.826383,169.16971 c 0.478451,-0.36099 -0.207276,-0.85113 -0.299745,-1.27545 -0.428413,-0.59958 -0.0029,-1.34165 0.0029,-2.01405 0.0716,-0.49887 0.0506,-1.04108 0.513531,-1.35663 0.184687,-0.4128 0.247056,-0.81448 0.770697,-1.01712 1.344467,-1.20304 2.617095,-2.50121 3.970131,-3.68937 0.439043,-0.22224 0.939884,-0.37881 1.095371,-0.90236 0.627049,-1.01843 1.196629,-2.07368 1.7426,-3.1314 0.268995,-0.52243 0.55618,-0.66072 0.877315,-0.0823 0.625558,0.56078 0.889714,1.38168 1.320887,2.08238 -0.761367,0.81375 -1.688511,1.49867 -2.162303,2.53589 -0.52715,0.88484 -1.054301,1.76967 -1.581453,2.65453 -0.859134,0.12442 -1.365165,0.87135 -2.008944,1.37544 0.0363,0.48686 -0.150657,1.04864 0.295515,1.39792 0.472941,0.56968 0.800845,1.30931 1.557143,1.54693 0.699507,0.31838 1.349697,0.83031 2.081023,1.02373 0.355214,-0.0998 1.19335,0.28794 1.032243,-0.33296 0.0726,-0.58698 -0.573631,-0.92308 -0.835117,-1.39345 -0.440501,-0.48125 -0.263044,-1.22221 -0.417983,-1.82348 -0.262325,-0.55779 0.215408,-0.85269 0.577631,-1.18861 1.704961,-1.56222 3.289913,-3.24257 4.845106,-4.95221 0.222266,-0.42923 1.15042,-0.14635 1.17328,-0.59287 -0.0909,-0.79088 -0.300785,-1.54401 -0.699848,-2.23701 -0.440452,-1.00748 -1.000083,-1.99597 -1.366057,-3.01531 0.205297,-1.72396 0.500262,-3.44223 0.414294,-5.18463 -0.0151,-1.11449 0.0481,-2.24325 -0.0161,-3.34883 -0.07431,-0.42171 -0.697838,-1.07674 0.0257,-1.1717 0.445212,-0.2389 1.036782,-0.36849 1.372696,-0.71046 0.240006,-0.64839 -0.334674,-1.20619 -0.511901,-1.80818 -0.156417,-0.53143 -0.371914,-0.95682 -0.983473,-0.67131 -0.463833,0.0514 -0.962673,0.25697 -1.323377,-0.14599 -0.280405,-0.28573 0.330834,-0.80937 0.412133,-1.19161 0.241866,-0.56921 0.648419,-1.12148 0.794466,-1.69865 -0.265615,-0.73964 -0.403373,-1.49724 -0.334844,-2.28385 0.209496,-0.66175 -0.315545,-0.75053 -0.842415,-0.83788 -0.119188,-0.54129 -0.530751,-0.61237 -1.065973,-0.53128 -0.52451,0.0414 -1.12441,-0.0838 -1.601901,0.0614 -0.329035,0.42845 -0.791457,0.79903 -1.043693,1.26081 -0.0836,0.84844 -0.167176,1.69685 -0.250785,2.54528 0.323975,0.48728 0.926754,0.87803 0.758466,1.53572 0.06161,0.53214 0.0422,1.01587 -0.571689,1.14334 -0.797686,0.17165 -1.674631,0.0271 -2.503377,0.0748 -0.504071,0.003 -0.595759,0.75326 -0.920253,1.08172 -0.137898,0.574 0.0778,1.2336 0.0769,1.84077 0.389202,0.44328 0.778386,0.88656 1.167579,1.32983 -0.448983,0.72496 -0.388373,1.64685 -0.602829,2.45944 -0.196717,1.33529 -0.512181,2.64585 -0.863945,3.94534 -0.0314,0.52636 -0.211107,1.08515 0.192677,1.51645 0.244895,0.44972 -0.235747,0.96624 -0.306565,1.44504 -0.369043,1.14495 -0.900594,2.25285 -0.928124,3.47566 -0.0727,0.52488 -0.0169,1.242 -0.568771,1.48229 -0.51928,-0.12856 -0.870634,0.18869 -1.209668,0.53865 -0.358624,0.30254 -0.771717,0.56445 -0.736308,1.05491 -0.263135,0.4291 -0.727767,0.79013 -0.870104,1.26004 -0.223806,0.55191 -0.776077,0.9864 -1.125861,1.49327 -0.778486,0.78496 -1.841687,1.24582 -2.671124,1.98759 -0.249255,0.62173 0.181758,1.323 0.337554,1.95257 0.231286,0.70891 0.480993,1.44646 0.832686,2.09004 0.423423,0.27408 0.755688,0.81149 1.326957,0.65849 0.487171,-0.0418 1.052941,0.084 1.490864,-0.0628 0.0551,-0.0661 0.110108,-0.1324 0.165148,-0.19861 z m -1.813739,-2.1033 c -0.367353,-0.49723 0.0284,-1.12172 0.0342,-1.6812 0.497432,-0.0599 0.499552,0.74314 0.655729,1.0926 -0.104447,0.35782 0.0835,1.09807 -0.507001,0.93053 -0.061,-0.11398 -0.122008,-0.22795 -0.183016,-0.34193 z m 8.809898,-0.86551 c -0.298595,-0.53458 -0.140968,-1.15295 -0.179367,-1.73533 0.590799,-0.15427 0.363124,0.68316 0.53808,1.03273 -0.0479,0.36788 0.518701,1.24289 -0.058,1.17439 -0.230195,0.053 -0.192906,-0.33932 -0.300825,-0.47179 z m -10.275953,-1.16779 c -0.503631,-0.1 -0.02399,-1.05192 0.355765,-0.68863 0.413542,0.23476 0.480252,0.90613 -0.099,0.85125 -0.0855,-0.0542 -0.171237,-0.10835 -0.256686,-0.16262 z m 2.284331,-1.34921 c 0.275686,-0.90834 0.985843,-1.61624 1.446805,-2.43911 0.508491,-0.77339 1.10367,-1.5211 1.726841,-2.1876 0.5359,-0.18247 1.080081,-0.55656 1.610891,-0.62114 0.518261,0.11473 0.944124,0.66504 0.406154,1.05427 -1.093642,1.15355 -2.265781,2.22087 -3.470201,3.25606 -0.52783,0.43058 -0.996452,1.01375 -1.560352,1.35135 -0.458792,0.0794 -0.203847,-0.12042 -0.160138,-0.41383 z m 8.08333,-0.32966 c -0.236426,-0.43418 0.428333,-0.86545 0.57539,-1.29839 0.285204,-0.56433 0.837845,-1.04459 0.842675,-1.69363 0.201306,-0.48848 0.389414,-0.98781 0.910015,-1.21395 0.391712,-0.23291 0.743177,-0.63244 1.159659,-0.76273 0.524981,0.0787 1.049962,0.15745 1.574943,0.23617 0.002,0.48442 -0.60881,0.71526 -0.865356,1.09271 -1.274897,1.27648 -2.549785,2.55296 -3.824673,3.82944 -0.203477,0.0189 -0.292525,0.023 -0.372653,-0.18962 z m -0.157777,-11.43046 c -0.649669,-0.0859 -0.950664,-0.6768 -1.443065,-1.07604 -0.720037,0.20367 -0.669519,-0.16534 -0.544782,-0.63263 0.170597,-0.76654 0.323825,-1.53692 0.487712,-2.30493 0.488903,-0.29585 0.963313,-0.0837 1.437745,0.12731 0.752268,0.17683 1.566793,-0.0456 2.34435,-0.031 0.840486,-0.0463 1.680971,-0.0926 2.521466,-0.13884 0.392434,0.56649 0.151298,1.32373 0.259716,1.97572 0.02169,0.55178 0.0436,1.10355 0.06529,1.65533 -1.516583,-0.0243 -2.934268,0.75047 -4.449902,0.6211 -0.226196,-0.0653 -0.452392,-0.13074 -0.678598,-0.1961 z m -0.351224,-6.3148 c -0.735587,0.0537 -0.448463,-0.6296 -0.444453,-1.10891 0.127798,-0.43505 -0.138427,-1.10846 0.295626,-1.35823 0.451811,-0.19786 0.233005,-0.8306 0.376373,-1.22848 -0.05619,-0.80579 0.612229,-0.29954 0.690178,0.19307 0.257535,0.46624 0.707007,0.7975 1.044311,1.20765 0.499282,-0.0387 1.064682,0.0777 1.522114,-0.0589 0.497912,-0.51966 0.995843,-1.03934 1.493764,-1.559 0.392774,0.63419 0.471132,1.35167 0.503182,2.08141 0.04559,0.50316 0.0912,1.00631 0.136778,1.50947 -0.61232,0.47994 -1.454446,0.26212 -2.177873,0.40471 -1.13767,0.0985 -2.323719,0.19367 -3.44,-0.0827 z m -1.851698,-3.84778 c 0.0877,-0.47319 0.459992,-0.80309 0.710198,-1.19445 0.638129,-0.15548 0.808525,0.11368 0.608649,0.71897 -0.138177,0.62024 0.01109,1.3399 -0.373123,1.87503 -0.355144,-0.34026 -0.710298,-0.68052 -1.065442,-1.02079 0.03989,-0.12625 0.0797,-0.2525 0.119718,-0.37876 z m 3.796534,0.4953 c -0.07839,-0.50711 -0.758068,-0.59067 -0.697928,-1.16595 -0.355314,-0.55341 0.226026,-0.68683 0.622209,-0.90326 -0.135777,-0.56025 0.322104,-0.60609 0.792766,-0.65579 0.406933,0.0999 0.790587,0.41277 1.279828,0.28602 0.634559,-0.1513 0.231327,0.72953 0.342514,1.09874 0.104768,0.67043 -0.553961,1.10566 -0.827655,1.65952 -0.453192,-0.0536 -1.054912,0.10781 -1.419625,-0.0737 -0.03079,-0.0819 -0.0614,-0.16373 -0.0922,-0.24561 z m 3.888022,-0.70346 c -0.263876,-0.37712 0.01901,-1.19002 0.410033,-0.96041 0.229816,0.38514 0.898035,0.83363 0.500832,1.29193 -0.293245,0.50979 -1.006002,0.42935 -0.892885,-0.23571 l -0.0151,-0.0802 z m -3.269973,-3.45937 c -0.295075,-0.52181 -0.863355,-0.96115 -0.705658,-1.61964 0.022,-0.63755 0.183397,-1.26364 0.263046,-1.89645 0.348034,-0.36684 0.756806,-0.5595 1.267548,-0.45981 0.582869,-0.0917 1.105,0.14707 1.632122,0.35874 v 1.66445 c -0.390904,-0.11988 -1.287118,0.26554 -1.287448,-0.24492 0.191097,-0.53633 -0.988233,-0.37426 -0.340254,0.0705 -0.330704,0.22613 -1.085911,0.15065 -1.131141,0.57958 0.0602,0.40954 0.872425,-0.008 1.236299,0.0674 0.552861,-0.11192 -0.01881,0.80338 0.0424,1.14064 0.223516,0.17107 1.175999,0.007 0.795476,-0.3861 -0.492631,-0.23921 -0.235646,-0.93946 0.336494,-0.67528 0.638489,-0.16277 0.59463,0.17504 0.372344,0.64375 -0.268516,0.72769 -0.523861,1.46211 -1.009673,2.07892 -0.530311,-0.11286 -0.950523,-0.36796 -1.17273,-0.87883 -0.0997,-0.14764 -0.199216,-0.29527 -0.298834,-0.4429 z"
       id="omega-1"
       sodipodi:nodetypes="ccccccccccccccccccccccccccccccccccccccccccccccccccccccccccccccccccccccccccscccscccccccccccccccccccccccccccccccccccccccccccccccccccccccccccccccccccccccccccccccccc" />
    <path
       style="fill:#000000;stroke-width:0.179498"
       d="m 157.72911,154.74901 c -1.63698,-0.7906 -2.7988,-2.27034 -4.15981,-3.43696 -1.09494,-1.21539 -3.13774,-3.27325 -1.95928,-4.8642 0.69231,-0.8017 1.496,-1.1735 1.48885,0.19862 0.73722,1.47279 1.71758,2.61277 2.63646,3.97181 0.84921,1.35866 1.67154,1.76866 3.30004,1.6357 0.5355,0.91589 2.51285,0.54755 1.86117,2.05522 -0.48591,0.51555 -0.23248,1.19283 -1.29652,0.89003 -0.69852,0.12694 -1.28956,-0.0729 -1.87091,-0.45022 z m 1.36468,-0.88774 c -0.19772,-0.67104 -1.85805,-1.43622 -2.50941,-1.13298 -0.2375,0.74384 2.86244,2.882 2.50941,1.13298 z m -3.17748,-1.96209 c -1.13751,-1.29079 -1.68582,-2.8474 -2.75365,-4.14237 -0.3405,-0.7142 -1.19068,-1.57936 -1.41553,-0.44017 0.86652,1.37414 1.47384,2.92301 2.71909,4.0263 0.17753,0.18132 1.74897,1.47704 1.45009,0.55624 z m -23.87259,2.76105 c -0.77042,-1.19919 -0.96176,-2.60861 0.76934,-2.88615 0.57101,-0.73921 1.60971,-0.38624 2.45833,-0.46621 1.31236,0.11575 1.71415,-1.69727 2.64599,-2.39267 1.16602,-0.74982 1.43931,-2.36018 2.24732,-3.17825 1.77759,-0.0799 2.26141,2.02914 0.7671,2.87675 -0.63736,1.324 -2.05404,2.92626 -3.57967,3.86139 -1.27888,1.09156 -2.76243,1.49621 -4.10592,2.06561 -0.3089,-0.0365 -1.07512,0.65471 -1.20249,0.11953 z m 2.19234,-1.04453 c 0.76928,0.0798 2.92673,-1.4545 1.69127,-1.77517 -1.34989,0.0407 -2.75899,0.81751 -3.78879,1.19449 0.11375,1.57146 1.15632,0.70335 2.09752,0.58068 z m 3.91963,-2.64653 c 1.60291,-0.73897 1.94431,-2.72324 3.18798,-3.8081 -0.29374,-1.15978 -1.47818,-0.7216 -1.43744,0.30978 -0.83783,1.03092 -1.76974,2.10727 -2.59726,3.32295 -1.17857,1.57676 0.20595,0.63686 0.84672,0.17537 z"
       id="hands-3" />
    <path
       style="fill:#000000;stroke-width:0.179498"
       d="m 84.10221,152.62926 c -1.63698,-0.7906 -2.7988,-2.27034 -4.15981,-3.43696 -1.09494,-1.21539 -3.13774,-3.27325 -1.95928,-4.8642 0.69231,-0.8017 1.496,-1.1735 1.48885,0.19862 0.73722,1.47279 1.71758,2.61277 2.63646,3.97181 0.84921,1.35866 1.67154,1.76866 3.30004,1.6357 0.5355,0.91589 2.51285,0.54755 1.86117,2.05522 -0.48591,0.51555 -0.23248,1.19283 -1.29652,0.89003 -0.69852,0.12694 -1.28956,-0.0729 -1.87091,-0.45022 z m 1.36468,-0.88774 c -0.19772,-0.67104 -1.85805,-1.43622 -2.50941,-1.13298 -0.2375,0.74384 2.86244,2.882 2.50941,1.13298 z m -3.17748,-1.96209 c -1.13751,-1.29079 -1.68582,-2.8474 -2.75365,-4.14237 -0.3405,-0.7142 -1.19068,-1.57936 -1.41553,-0.44017 0.86652,1.37414 1.47384,2.92301 2.71909,4.0263 0.17753,0.18132 1.74897,1.47704 1.45009,0.55624 z m -23.87259,2.76105 c -0.77042,-1.19919 -0.96176,-2.60861 0.76934,-2.88615 0.57101,-0.73921 1.60971,-0.38624 2.45833,-0.46621 1.31236,0.11575 1.71415,-1.69727 2.64599,-2.39267 1.16602,-0.74982 1.43931,-2.36018 2.24732,-3.17825 1.77759,-0.0799 2.26141,2.02914 0.7671,2.87675 -0.63736,1.324 -2.05404,2.92626 -3.57967,3.86139 -1.27888,1.09156 -2.76243,1.49621 -4.10592,2.06561 -0.3089,-0.0365 -1.07512,0.65471 -1.20249,0.11953 z m 2.19234,-1.04453 c 0.76928,0.0798 2.92673,-1.4545 1.69127,-1.77517 -1.34989,0.0407 -2.75899,0.81751 -3.78879,1.19449 0.11375,1.57146 1.15632,0.70335 2.09752,0.58068 z m 3.91963,-2.64653 c 1.60291,-0.73897 1.94431,-2.72324 3.18798,-3.8081 -0.29374,-1.15978 -1.47818,-0.7216 -1.43744,0.30978 -0.83783,1.03092 -1.76974,2.10727 -2.59726,3.32295 -1.17857,1.57676 0.20595,0.63686 0.84672,0.17537 z"
       id="hands-1" />
    <path
       style="fill:#000000;stroke-width:0.179814"
       d="m 121.44992,169.37542 c -0.68883,-0.55892 -1.60876,-0.78741 -2.38908,-1.21553 -0.48566,-0.20829 -1.09488,-0.4685 -1.28227,-0.96712 0.11858,-1.00757 0.4392,-2.01509 0.15342,-3.02277 0.63814,-0.52024 -1.95514,-4.59985 -1.93319,-4.7527 -0.0363,-0.94514 0.1199,-1.91586 -0.22863,-2.81954 -0.48789,0.13314 -0.99997,0.37274 -1.33788,-0.15422 -0.30847,-0.79091 -1.01424,-1.91611 -1.57947,-2.31766 -0.30329,-0.46381 -0.74838,-0.70232 -1.28581,-0.79417 -0.54009,-0.37182 -0.89887,0.0438 -1.26587,0.42361 -0.75729,0.67017 -1.88933,0.92569 -2.34874,1.89478 -0.3925,0.40949 -0.53287,0.8871 -0.39391,1.44019 0.12421,1.41209 0.0734,2.85316 0.5549,4.20604 0.32555,0.90102 0.36951,1.8462 0.39608,2.7941 -0.45383,0.3437 -0.71059,1.15346 -1.37349,1.00275 -1.53539,-0.0358 -3.07077,-0.0716 -4.60615,-0.10731 -0.51017,-0.19478 -0.37749,-1.19078 0.10613,-1.16879 0.75735,0.0297 1.34266,-0.61087 2.02103,-0.88885 0.44044,-0.22197 0.99619,-0.50142 1.11453,-0.9918 -0.32504,-1.24942 -0.58455,-2.52714 -0.94964,-3.75867 -0.51559,-1.07223 -1.13991,-2.11833 -1.58975,-3.20634 0.078,-0.48476 -0.15842,-1.10081 0.12369,-1.50039 1.00426,-1.60801 2.54979,-1.94481 3.56014,-2.88296 0.34975,-0.41263 1.13737,-0.62078 0.99134,-1.26493 -0.0284,-0.92774 0.0555,-1.88297 -0.0403,-2.79424 -0.39209,-0.81168 -0.89341,-1.5966 -1.21849,-2.42469 0.23439,-0.71382 -0.49746,-0.64567 -0.98898,-0.772 -0.35215,-0.33528 -1.11235,-0.44399 -1.16879,-0.94349 0.0342,-0.50227 0.67385,-0.7472 0.96111,-1.14189 0.4284,-0.34346 0.73557,-0.98736 1.37587,-0.80565 0.87764,0.3089 0.24435,-0.68276 0.83108,-0.86859 0.54076,-1.02197 1.58711,-1.66128 0.64618,0.15506 -0.33612,0.41607 -0.33758,1.1081 0.11807,1.4449 0.31791,0.38522 0.58338,0.88313 1.16252,0.70714 0.43972,-0.0683 1.01508,-0.41014 1.10817,-0.88576 0.18285,-0.55623 0.22525,-1.20542 0.80974,-1.49586 0.25128,-0.81323 -0.69757,-0.33403 -1.09039,-0.56234 -0.23061,-0.39006 -0.80623,-0.79592 -1.21848,-0.57091 -0.41478,0.56681 -1.12815,0.32719 -1.72986,0.38915 -0.35269,-0.38689 -0.64027,-1.00077 -0.87688,-1.51394 -0.22175,-0.7778 -0.58355,-1.54124 -0.37399,-2.36325 0.049,-0.74276 0.0977,-1.58548 0.5483,-2.17401 0.67282,-0.20426 1.31034,-0.74473 2.03567,-0.44896 2.03987,0.20156 2.41926,2.22283 2.08772,3.93854 -0.26093,0.53883 -0.52185,1.07767 -0.78278,1.61651 0.36292,0.33236 0.52369,1.17206 1.13528,0.88026 0.9942,-0.20819 2.03722,-0.36473 3.03491,-0.15352 0.55164,0.13619 0.97356,0.40374 1.0766,0.99424 0.35019,0.51289 -0.30021,0.97386 -0.45221,1.46068 -1.10832,1.29679 -0.0475,2.6488 -0.16944,3.83192 0.067,1.32673 0.13403,2.65345 0.20106,3.98018 0.76876,0.68517 2.05873,1.88008 2.36869,2.62904 2.47133,3.02403 1.09694,2.13861 1.21922,3.97636 0.20053,1.64555 0.66519,3.2595 0.97225,4.88819 0.17943,1.13 0.22802,2.32095 0.48738,3.41371 0.45091,0.54996 1.06483,1.03625 1.41734,1.62462 -0.0473,0.55034 0.63157,0.80849 0.90361,1.23035 0.67334,0.70135 1.34667,1.40272 2.02002,2.10409 -0.26419,0.53011 -0.78787,0.63187 -1.32589,0.70996 -0.48527,0.0345 -1.1691,0.44995 -1.54172,-0.004 z m -0.23588,-2.76109 c 0.0418,-0.53184 -0.77093,-0.58899 -0.85412,-1.13378 -0.4279,-0.26665 0.0655,-1.11874 -0.57698,-0.94428 -0.32363,0.0413 -0.0282,1.06644 0.20468,1.23003 0.50695,0.18968 0.37646,1.25783 1.04829,1.10757 0.27969,0.0676 0.15028,-0.0741 0.17813,-0.25954 z m -1.85852,-2.71953 c 0.27326,-0.50889 -0.39326,-0.94982 -0.34636,-1.49334 -0.45407,-2.0932 -0.7972,-4.2091 -1.2125,-6.30796 -0.34427,-0.4171 -0.14107,-1.07234 -0.31146,-1.32931 -0.53657,-0.41481 -0.84359,0.33939 -1.24598,0.60789 -0.35725,0.7423 0.62391,1.33095 0.4812,2.08804 -0.0125,0.79083 -0.0557,1.58689 0.31769,2.31186 0.18804,0.61576 0.71917,1.04471 0.88056,1.68682 0.43212,0.86539 0.53328,1.86357 0.97949,2.71785 0.27726,0.007 0.408,0.0631 0.45736,-0.28185 z m -13.29204,-0.50071 c 0.41404,-0.11547 0.94563,-0.77715 0.19186,-0.65595 -0.50343,0.34357 -0.97682,0.74541 -1.58393,0.88778 -0.19244,0.71027 0.71042,0.16292 1.02669,0.0102 0.12179,-0.0807 0.24358,-0.1614 0.36538,-0.2421 z m 1.30487,-1.42023 c -0.11975,-1.29708 -0.67068,-2.54874 -0.53575,-3.87289 -0.0576,-0.66613 0.11309,-1.39491 -0.0927,-2.02034 -0.27289,-0.44756 -0.45865,-0.99201 -1.03438,-1.10278 -0.56444,-0.10969 -0.70308,-0.83232 -1.148,-1.0506 -0.75069,-0.21229 -0.28092,0.52739 -0.22917,0.94103 0.0785,0.89238 0.48133,1.67136 0.91035,2.44122 0.57967,1.33226 0.95004,2.09313 1.15419,3.40224 0.008,0.56886 0.16555,1.06947 0.62329,1.43295 0.14487,0.10473 0.45977,0.11774 0.35218,-0.17083 z m 4.13573,-13.17451 c 0.52944,-0.16214 1.21004,-0.0663 1.63824,-0.40122 0.39766,-0.46946 0.84118,-0.91704 0.84742,-1.57353 0.13186,-0.37158 0.29428,-1.20782 -0.36319,-1.00867 -1.17408,0.12501 -2.38779,0.0651 -3.53592,0.31118 -0.41061,0.2408 -1.08017,0.21976 -1.32298,0.63023 -0.037,0.59118 -0.16484,2.41344 0.20731,2.31318 0.86176,0.0581 1.6864,-0.11958 2.5291,-0.27117 z m -2.12654,-4.59163 c 1.18801,-0.24071 2.3819,-0.4523 3.56504,-0.71653 0.75354,-0.0202 0.69644,-0.5816 0.74915,-0.50357 0.19319,-0.64988 -0.83711,-1.01956 -0.55468,-1.70168 -0.0973,-0.98664 -0.47705,-2.3965 -0.897,-2.14037 -0.47106,0.21405 -0.46424,0.92022 -0.73596,1.33955 0.0897,0.54421 -0.0385,0.99214 -0.53319,1.27811 -0.47729,0.45095 -1.11321,0.76693 -1.78342,0.65593 -0.57382,0.1401 -0.94383,-0.13159 -1.20195,-0.62935 -0.15825,-0.43657 -0.96087,-1.04599 -0.79627,-0.19477 0.0271,0.59129 0.12336,1.19503 -0.21785,1.72015 0.77615,0.0833 0.28267,0.42309 0.49643,0.90202 0.20187,0.37199 0.90023,0.13527 1.29329,0.11241 0.20547,-0.0406 0.41095,-0.0813 0.61642,-0.1219 z m -2.91101,-1.92342 c 0.0571,-0.4777 -0.41503,-1.13672 -0.56668,-0.34847 -0.53599,0.42737 0.49494,1.01161 0.56792,0.48918 l -6.8e-4,-0.087 z m 8.02389,-1.79814 c 0.43967,-0.37783 0.26204,-0.98158 -0.16458,-1.28362 -0.34637,-0.43204 -1.18337,-0.24859 -0.77659,0.40087 0.12282,0.44588 0.004,1.36016 0.70173,1.19742 0.0799,-0.10489 0.15962,-0.20978 0.23944,-0.31467 z m -5.08426,-3.19059 c 0.34537,-0.42906 0.83491,-0.80034 0.7156,-1.41562 -0.003,-0.5842 0.16306,-1.22173 0.058,-1.77339 -0.31344,-0.42138 -0.60647,-0.87952 -1.20142,-0.79393 -0.60212,-0.16192 -1.19451,0.0397 -1.78982,0.13212 0.0344,0.55623 -0.13633,1.17257 0.29696,1.61188 0.68018,0.0178 1.36036,0.0358 2.04055,0.0537 0.31367,0.87169 -0.87229,0.12947 -0.92315,0.72836 -0.52987,0.44277 0.64893,1.11338 -0.10001,1.00624 -0.78162,0.24354 -0.48031,-0.41242 -0.7402,-0.84982 -0.16381,-0.56649 -1.17937,0.007 -0.5069,0.39096 0.39149,0.35894 0.28464,0.86659 0.29237,1.34006 0.35902,0.23127 0.83407,0.53974 1.23833,0.3107 0.20656,-0.24709 0.41311,-0.49417 0.61966,-0.74126 z"
       id="omega-2"
       sodipodi:nodetypes="cccccccccccccccccccccccccccccccccccccccccccccccccccccccccccccccccccccccccccccccccccsccccccccsssccccccsssccccccccccccssccccccccccsccccccccccccss" />
    <path
       style="fill:#000000;stroke-width:0.18828"
       d="m 79.589541,140.94544 -0.423636,-0.70604 -0.137287,-0.72119 -0.137287,-0.72118 0.777676,-0.54638 0.777676,-0.54639 0.217589,-0.18244 0.217591,-0.18243 -0.182627,-0.71522 -0.182627,-0.71522 -0.170989,-0.80288 -0.170989,-0.80289 -0.193464,-0.36149 -0.193464,-0.36149 v -0.37808 -0.37809 l -1.026875,-0.88654 -1.026874,-0.88654 -0.595174,-0.74061 -0.595174,-0.74061 0.181279,-0.40627 0.181278,-0.40626 -0.238616,-0.57109 -0.238617,-0.57108 0.126076,-0.56005 0.126075,-0.56004 0.470701,-0.0687 0.470699,-0.0687 0.847261,-0.004 0.84726,-0.004 0.820302,0.2262 0.820301,0.2262 -0.119367,0.9758 -0.119367,0.97579 0.379276,1.07108 0.379275,1.07108 -0.116903,0.58452 -0.116905,0.58452 0.373485,0.41548 0.373488,0.41549 0.673329,1.12968 0.673329,1.12968 0.308606,1.13215 0.308606,1.13215 -0.195642,0.51458 -0.19564,0.51457 -1.537126,1.60111 -1.537123,1.6011 h -0.237874 -0.237874 z m 2.092325,-1.53436 1.056934,-1.11073 0.24536,-0.59235 0.245359,-0.59235 -0.517018,-1.31779 -0.517018,-1.31779 -0.757607,-1.13453 -0.75761,-1.13453 -0.17932,0.17932 -0.17932,0.17932 0.186741,0.35169 0.186741,0.35169 0.408683,1.60038 0.408683,1.60038 0.267296,0.417 0.267294,0.41701 v 0.16933 0.16932 l -0.818893,0.31274 -0.818891,0.31274 -0.43911,0.46741 -0.439109,0.46741 0.313554,0.65753 0.313555,0.65753 h 0.233381 0.23338 z m -1.436912,-8.0343 0.295869,-0.29587 -0.0026,-0.31604 -0.0026,-0.31604 -0.113528,-0.42363 -0.113529,-0.42363 -0.77823,10e-4 -0.778232,0.001 -0.216317,0.46643 -0.216317,0.46644 0.646499,0.56763 0.646499,0.56764 h 0.16828 0.16828 z m -0.146501,-3.14365 0.02833,-0.70945 -0.310751,-0.15891 -0.31075,-0.15891 -0.976221,-0.10978 -0.976221,-0.10979 -0.08056,0.22503 -0.08056,0.22503 0.280118,0.56484 0.280119,0.56484 0.195328,0.24441 0.195327,0.24442 0.863752,-0.0561 0.863751,-0.0562 z m -14.700277,11.48849 -0.490276,-0.61191 -0.141717,-0.18828 -0.141717,-0.18828 -0.512475,-1.22382 -0.512475,-1.22382 -0.118019,-0.60388 -0.11802,-0.60388 0.665925,-0.90237 0.665924,-0.90235 1.496829,-1.46064 1.496829,-1.46064 0.10609,-0.65376 0.10609,-0.65375 0.464469,-0.61567 0.464468,-0.61567 0.09419,-1.09535 0.09419,-1.09536 0.07014,-0.0702 0.07014,-0.0702 0.936963,-0.011 0.936963,-0.011 0.710136,0.115 0.710136,0.11499 0.278334,0.39737 0.278335,0.39738 v 0.40342 0.40341 l -0.37656,0.47872 -0.376561,0.47872 v 0.84604 0.84603 l -0.656151,0.38714 -0.656152,0.38714 -0.755183,0.20335 -0.755183,0.20335 -0.392634,0.41658 -0.392635,0.41658 -0.643671,1.0927 -0.643673,1.0927 v 0.15513 0.15514 l -0.28242,0.23439 -0.28242,0.23438 v 0.62482 0.62481 l 0.173254,0.10708 0.173252,0.10708 0.565157,0.91849 0.565157,0.91851 -0.94175,1.05661 -0.94175,1.05662 h -0.25063 -0.250624 z m 1.427987,-1.12968 0.28781,-0.61191 -0.245324,-0.59193 -0.245323,-0.59192 -0.713665,-0.59556 -0.713664,-0.59557 0.485272,-0.41289 0.485273,-0.41289 0.409057,-0.59391 0.409059,-0.5939 v -0.41219 -0.4122 l 0.339958,-0.0889 0.339957,-0.0889 0.257396,-0.59952 0.257394,-0.59952 0.07732,-0.14121 0.07732,-0.14121 h -0.26546 -0.26546 l -1.417314,1.45917 -1.417314,1.45917 -0.321798,0.62565 -0.321799,0.62565 0.131167,0.59817 0.131167,0.59817 0.675181,1.36503 0.675183,1.36503 h 0.300401 0.300402 z m 4.110527,-8.32916 0.232539,-0.2802 -0.256556,-0.0853 -0.256554,-0.0854 -0.37656,-0.0755 -0.376561,-0.0755 0.56484,-0.2178 0.564841,-0.2178 0.28242,-0.1615 0.28242,-0.1615 0.0581,-0.35638 0.05809,-0.35638 0.09527,-0.28242 0.09527,-0.28242 -0.05922,-0.0855 -0.05922,-0.0855 -0.28242,-0.026 -0.28242,-0.026 -0.77531,-0.13625 -0.775308,-0.13627 -0.119342,0.311 -0.119342,0.311 0.565161,0.21332 0.56516,0.21333 v 0.12718 0.12717 l -0.70605,-0.16265 -0.70605,-0.16263 -0.232956,0.30932 -0.232954,0.30931 -0.117223,0.62485 -0.117224,0.62485 0.108919,0.28384 0.108919,0.28384 h 1.018396 1.018396 z"
       id="hands-21" />
    <path
       style="fill:#000000;stroke-width:0.179385"
       d="m 140.21634,142.74166 0.40361,-0.67268 0.1308,-0.68712 0.1308,-0.68711 -0.74094,-0.52056 -0.74092,-0.52058 -0.20731,-0.17382 -0.20731,-0.17381 0.174,-0.68143 0.17399,-0.68143 0.16291,-0.76495 0.16291,-0.76496 0.18432,-0.34441 0.18433,-0.34441 v -0.36022 -0.36022 l 0.97836,-0.84466 0.97837,-0.84465 0.56704,-0.70562 0.56706,-0.70562 -0.1727,-0.38708 -0.17273,-0.38707 0.22735,-0.54411 0.22734,-0.54409 -0.12016,-0.53359 -0.12017,-0.53359 -0.44846,-0.0654 -0.44846,-0.0654 -0.80724,-0.004 -0.80723,-0.004 -0.78154,0.21552 -0.78154,0.21551 0.11379,0.9297 0.11378,0.92969 -0.36136,1.02047 -0.36135,1.02048 0.11136,0.55691 0.11137,0.5569 -0.35584,0.39585 -0.35585,0.39586 -0.64152,1.07631 -0.64152,1.07631 -0.29402,1.07866 -0.29403,1.07866 0.1864,0.49027 0.18639,0.49026 1.46452,1.52546 1.4645,1.52546 h 0.22663 0.22664 z m -1.99348,-1.46187 -1.007,-1.05825 -0.23376,-0.56437 -0.23378,-0.56436 0.4926,-1.25553 0.49259,-1.25553 0.72181,-1.08093 0.72182,-1.08093 0.17085,0.17085 0.17086,0.17084 -0.17794,0.33508 -0.17792,0.33507 -0.38937,1.52477 -0.38937,1.52477 -0.25467,0.3973 -0.25467,0.39731 v 0.16133 0.16132 l 0.78021,0.29797 0.7802,0.29796 0.41836,0.44533 0.41838,0.44533 -0.29875,0.62646 -0.29875,0.62647 h -0.22234 -0.22235 z m 1.36902,-7.65472 -0.28189,-0.28189 0.003,-0.30111 0.003,-0.30111 0.10818,-0.40361 0.10817,-0.40362 0.74145,9.5e-4 0.74147,9.6e-4 0.20609,0.44439 0.2061,0.4444 -0.61596,0.54082 -0.61596,0.54082 h -0.16032 -0.16033 z m 0.13958,-2.99513 -0.0269,-0.67593 0.29607,-0.1514 0.29606,-0.1514 0.93011,-0.1046 0.9301,-0.1046 0.0768,0.2144 0.0768,0.2144 -0.26688,0.53815 -0.26689,0.53816 -0.18609,0.23286 -0.1861,0.23287 -0.82295,-0.0534 -0.82294,-0.0535 z m 14.00577,10.94572 0.46711,-0.583 0.13503,-0.17938 0.13502,-0.17939 0.48826,-1.166 0.48826,-1.166 0.11239,-0.57535 0.11251,-0.57535 -0.63446,-0.85974 -0.63447,-0.85972 -1.4261,-1.39163 -1.4261,-1.39163 -0.10103,-0.62287 -0.10103,-0.62287 -0.44254,-0.58658 -0.44252,-0.58658 -0.0898,-1.0436 -0.0897,-1.04361 -0.0669,-0.0669 -0.0669,-0.0669 -0.8927,-0.0105 -0.8927,-0.0105 -0.67658,0.10957 -0.67658,0.10955 -0.26518,0.3786 -0.26519,0.37861 v 0.38436 0.38435 l 0.35877,0.4561 0.35877,0.4561 v 0.80607 0.80606 l 0.62515,0.36885 0.62515,0.36885 0.71951,0.19374 0.71949,0.19375 0.37409,0.39689 0.37408,0.3969 0.61326,1.04108 0.61328,1.04107 v 0.14781 0.14781 l 0.26908,0.22331 0.26907,0.22331 v 0.5953 0.59529 l -0.16507,0.10202 -0.16507,0.10202 -0.53846,0.8751 -0.53845,0.87511 0.89725,1.00669 0.89727,1.0067 h 0.23879 0.23877 z m -1.36052,-1.07631 -0.27422,-0.583 0.23374,-0.56396 0.23373,-0.56396 0.67995,-0.56742 0.67994,-0.56743 -0.46234,-0.39339 -0.46234,-0.39338 -0.38973,-0.56585 -0.38975,-0.56584 v -0.39272 -0.39272 l -0.32388,-0.0847 -0.3239,-0.0847 -0.24523,-0.5712 -0.24523,-0.57119 -0.0736,-0.13454 -0.0737,-0.13454 h 0.25292 0.25291 l 1.35036,1.39023 1.35035,1.39023 0.30659,0.59609 0.3066,0.59609 -0.12501,0.56991 -0.12501,0.56991 -0.64329,1.30054 -0.64328,1.30054 h -0.28622 -0.2862 z m -3.91632,-7.93565 -0.22156,-0.26696 0.24444,-0.0813 0.24442,-0.0814 0.35877,-0.0719 0.35877,-0.0719 -0.53815,-0.20751 -0.53816,-0.20751 -0.26907,-0.15387 -0.26908,-0.15387 -0.0554,-0.33954 -0.0554,-0.33955 -0.0908,-0.26907 -0.0908,-0.26908 0.0564,-0.0815 0.0564,-0.0815 0.26908,-0.0248 0.26907,-0.0248 0.73868,-0.12982 0.73868,-0.12983 0.11367,0.29631 0.11365,0.2963 -0.53846,0.20325 -0.53845,0.20325 v 0.12117 0.12116 l 0.6727,-0.15497 0.67269,-0.15494 0.22194,0.2947 0.22195,0.2947 0.11175,0.59533 0.11174,0.59533 -0.10384,0.27043 -0.10384,0.27043 h -0.97026 -0.97029 z"
       id="hands-23" />
    <path
       style="fill:#000000;stroke-width:0.1868"
       d="m 95.861127,150.30637 c 0.193999,-0.54377 -0.735161,-0.26567 -0.747206,-0.65867 -0.03234,-0.23915 0.792207,-0.39802 0.17272,-0.5881 -0.533417,0.18375 -0.438825,-0.50977 -0.02273,-0.5874 0.562682,-0.35988 1.089639,-0.80045 1.776713,-0.87921 0.532859,-0.15466 1.064702,-0.33006 1.614242,-0.14418 0.430777,0.0876 0.862619,0.18417 1.250809,-0.0856 0.297235,-0.2014 0.948035,-0.16733 0.812285,-0.65707 0.26548,-0.21353 0.77824,-0.19518 1.02934,-0.52606 0.50878,-0.45025 1.18553,-0.76075 1.41432,-1.44399 0.0997,-0.42731 0.64158,-0.49272 0.98098,-0.52451 0.557,0.35825 1.12567,0.69864 1.67191,1.07333 -0.51071,0.75815 -1.04469,1.49672 -1.73441,2.10423 -0.50511,0.61491 -1.35301,0.72491 -2.03023,1.08632 -0.39272,0.0276 -0.79635,-7.1e-4 -1.14043,0.24714 -1.113403,0.49611 -2.213618,1.04487 -3.337919,1.50225 -0.589277,0.0457 -1.183737,0.0702 -1.710376,0.36906 0,-0.0959 0,-0.19173 0,-0.28759 z m 3.308087,-1.92348 c 0.206783,-0.37256 -0.584097,-0.34347 -0.812309,-0.39332 -0.379555,0.10924 -0.905912,0.50954 -0.305303,0.65696 0.349075,-0.10957 0.981533,0.15289 1.111295,-0.24463 z m 2.856316,-0.51523 c 0.67692,-0.047 1.06308,-0.68661 1.58991,-1.0395 0.32308,-0.31402 0.78242,-0.56354 1.02062,-0.91772 0.10786,-0.46595 -0.0698,-0.73749 -0.54186,-0.80845 -0.89356,0.71609 -1.71304,1.53868 -2.65486,2.18541 -0.42713,0.24007 -0.85427,0.48013 -1.28141,0.72019 -0.167347,0.64991 0.28556,0.40468 0.68965,0.22989 0.38671,-0.14598 0.76639,-0.30753 1.17795,-0.36982 z m 22.64431,0.62149 c -0.18971,-0.4366 -0.60628,-0.38028 -1.00462,-0.36355 -0.21097,-0.16731 -0.22364,-0.53289 -0.76119,-0.3736 -0.43632,0.002 -0.71159,-0.47212 -1.08027,-0.67006 -0.32908,-0.44642 -0.88607,-0.13871 -1.31725,-0.36565 -0.81902,-0.26856 -1.72813,-0.46332 -2.30076,-1.16151 -0.70681,-0.63308 -1.37321,-1.33528 -2.10491,-1.92579 -0.39285,-0.075 -0.72662,-0.21263 -0.77128,-0.657 0.0399,-0.34103 0.53767,-0.58475 0.75717,-0.88762 0.30124,-0.27356 0.62591,-0.53742 0.50924,-0.98409 0.17338,-0.0942 0.89226,-0.20759 1.01712,0.10513 0.23948,0.51287 0.49991,1.00962 0.97885,1.33818 0.28096,0.41453 0.82619,0.38158 1.20591,0.61122 0.41942,0.46892 0.74179,1.05888 1.22317,1.45053 0.6873,0.27092 1.30355,0.81062 2.07736,0.75431 0.78204,0.0517 1.56407,0.10351 2.34609,0.15519 0.31196,0.22946 0.5389,0.67959 0.98691,0.55597 0.37293,-0.0547 0.57264,0.54596 0.55048,0.8524 -0.12179,0.43584 0.019,1.01277 -0.44886,1.26267 -0.37591,0.47658 -1.02225,0.46675 -1.55188,0.66684 -0.10372,-0.12119 -0.20752,-0.24237 -0.31128,-0.36356 z m 1.07934,-1.55488 c 0.0436,-0.37181 -0.4424,-0.70781 -0.77618,-0.73801 -0.67166,-0.0109 -1.34331,-0.0214 -2.01497,-0.0322 -0.34065,0.55862 0.41482,0.37394 0.76131,0.46659 0.44618,0.0765 0.94484,0.0434 1.35839,0.1882 0.14239,0.22024 0.76775,0.70349 0.67145,0.11533 z m -3.73601,-0.82907 c -0.0495,-0.36773 -0.63541,-0.42152 -0.90445,-0.66074 -1.03197,-0.46779 -1.64093,-1.48563 -2.54211,-2.13997 -0.47253,-0.39789 -0.94504,-0.79578 -1.41756,-1.19366 -0.45673,0.0725 -0.664,0.31653 -0.55308,0.77923 0.0236,0.37241 0.49638,0.55734 0.72268,0.83649 0.72989,0.62136 1.42237,1.30822 2.17489,1.8899 0.83856,0.22069 1.63538,0.66388 2.51963,0.64108 0,-0.0508 0,-0.10155 0,-0.15233 z"
       id="hands-2" />
    <path
       style="fill:#000000;stroke-width:0.181576"
       d="m 102.23162,140.92768 c -0.68638,-0.51202 -1.21175,-1.04354 -1.10851,-1.8667 -0.98712,-0.39877 -0.63323,-1.88092 -1.523166,-2.16828 -0.859451,-0.83042 -0.824169,-2.31794 -1.807472,-3.11746 -0.580839,-0.84109 -1.591654,-1.16154 -2.320494,-1.82396 -0.03033,-0.50819 -1.500291,-0.66769 -0.748372,-1.29139 0.718355,0.61146 1.55441,0.16024 0.649638,-0.57304 -0.442322,-0.38676 -0.647943,-1.29469 0.185444,-0.70076 0.400625,0.15182 1.011405,1.29613 1.000232,0.23576 -0.533801,-0.19325 -0.478968,-1.2085 -0.832061,-1.70078 1.10202,-0.0858 1.156002,1.33606 1.787385,1.75096 0.121662,-0.41412 -0.255032,-1.81543 0.605544,-1.71784 0.464092,0.55597 0.246475,2.49704 1.203363,2.17721 1.014029,-1.11128 0.606416,1.15587 0.414158,1.6711 -0.321079,1.35141 0.798061,2.2857 1.491711,3.28091 0.53883,0.5715 0.9111,1.10064 0.95736,1.72733 0.97332,0.77077 1.85772,1.64469 2.72743,2.52856 -0.18394,0.78241 -1.35085,1.3025 -1.27955,2.24292 -0.54816,0.47868 -0.98568,-0.39524 -1.40264,-0.65454 z m 1.36716,-0.97448 c 0.77686,-0.96512 -0.81017,-1.41977 -1.27806,-2.08623 -0.9564,-0.97091 -1.28768,-2.39143 -2.486462,-3.17548 -0.70211,-1.09612 -1.107594,-2.27559 -0.970236,-3.58134 -0.471379,-0.88302 -1.834862,-0.94218 -2.282475,-0.026 -0.335284,1.05549 0.963256,1.32446 1.530947,1.92639 0.991092,0.66793 1.302226,1.82708 1.724941,2.87377 0.658325,1.54677 1.794095,2.8011 2.788095,4.13156 0.24326,0.82018 0.73564,0.7878 0.97325,-0.0627 z m 12.66363,-2.17169 c -0.86842,-0.25807 -2.728,-0.89798 -1.68922,-2.02803 0.68126,-0.92399 1.01069,-1.94535 0.93373,-3.09101 0.48746,-1.17492 0.7514,-2.42379 1.03305,-3.66159 -0.35083,-0.94449 -1.79606,-1.98 -1.41931,-2.87587 0.52208,-0.31646 1.32399,0.81305 1.22725,-0.30403 0.0989,-0.68489 -0.73323,-2.2449 0.47239,-1.916 -0.0886,0.47675 0.44434,1.55509 0.57375,0.531 -0.2202,-0.60624 1.09934,-2.20159 0.94476,-0.9138 -0.2131,0.60617 -0.19263,2.23696 0.41661,1.00131 0.59737,-1.20468 1.30252,0.25465 0.47356,0.86508 0.31321,0.58608 1.17305,-1.07465 0.85892,0.0916 -0.43046,0.90835 -0.83726,1.83494 -1.36887,2.69172 -0.0533,1.08944 -0.71651,2.03192 -0.47045,3.18877 -0.0251,1.2944 -0.28708,2.56683 -0.43244,3.84969 -0.98261,0.70091 -0.0939,2.14639 -1.05304,2.74996 -0.18138,-0.009 -0.32325,-0.1506 -0.50069,-0.1788 z m 0.34373,-0.90874 c 0.0431,-0.87126 0.23085,-1.60292 0.70437,-2.31684 0.0279,-1.60042 0.0916,-3.2078 0.19816,-4.80753 0.26788,-1.12325 1.58656,-2.41236 1.16697,-3.43761 -0.81456,-0.0593 -2.1176,-0.32791 -2.34431,0.76617 0.79071,1.1314 1.20993,2.54111 0.47893,3.83505 -0.3926,0.95815 -0.48697,1.98508 -0.4497,3.01031 0.0719,1.2013 -2.15437,1.95719 -0.81955,3.00069 0.32807,1.7e-4 0.94418,0.51629 1.06513,-0.0503 z"
       id="hands-22" />
    <path
       style="fill:#000000;stroke-width:0.115873"
       d="m 106.40461,128.149 c -1.30378,-0.15563 -2.71052,-0.50181 -3.60055,-1.54169 -0.69142,-0.43886 -1.26418,-1.07433 -1.50239,-1.86831 -0.3359,-0.76483 -0.58143,-1.58662 -0.52202,-2.42975 -0.0363,-1.2151 0.21259,-2.49143 0.96608,-3.47299 0.63895,-1.02456 1.59994,-1.87834 2.78638,-2.18943 0.75731,-0.32994 1.59194,-0.41655 2.40835,-0.32078 1.27463,0.068 2.61886,0.3308 3.59431,1.21569 1.62107,1.19417 2.35174,3.34285 2.06567,5.30286 -0.11659,1.26138 -0.55385,2.52836 -1.47468,3.43186 -0.88511,0.94435 -2.10552,1.5232 -3.35591,1.80126 -0.44914,0.0846 -0.90972,0.11036 -1.36524,0.0713 z m -0.11702,-0.86257 c -0.1131,-1.19358 -0.55165,-2.32749 -0.73276,-3.5071 -0.40155,-0.50836 -0.39418,0.60062 -0.55091,0.86321 -0.16378,0.61961 -0.42619,1.2085 -0.75103,1.7575 -0.0184,0.70787 1.00883,0.84697 1.55143,0.95703 0.16336,0.007 0.33026,-0.01 0.48327,-0.0706 z m 2.81028,-0.48284 c 0.77669,-0.40927 -0.3319,-0.86276 -0.58146,-1.2287 -0.55763,-0.65783 -1.24903,-1.26907 -1.48888,-2.1258 -0.71235,-0.34352 -0.87628,0.74722 -0.66056,1.22759 0.25895,0.77524 0.28965,1.58227 0.73426,2.28658 0.31906,0.67232 1.06305,0.20601 1.55905,0.0529 0.15058,-0.0605 0.29808,-0.12946 0.43759,-0.2126 z m -5.39518,-1.09225 c 0.4009,-0.7132 0.67173,-1.53066 0.60524,-2.3573 -0.52881,-0.62713 -1.45226,-0.65525 -2.02092,-1.23965 -0.5777,-0.48292 -1.06018,0.20311 -0.77242,0.76655 0.30906,0.98032 0.51887,2.0859 1.31159,2.80951 0.32515,0.30425 0.60491,0.65647 0.87651,0.0209 z m 7.14364,-0.3698 c 0.48162,-0.62488 0.80195,-1.38507 0.95588,-2.15514 0.0901,-0.68292 0.0389,-1.3737 -0.0205,-2.05685 -0.68512,-0.15752 -0.99078,0.77911 -1.61455,0.94238 -0.73829,0.44508 -1.56202,0.73465 -2.27524,1.22338 0.11733,0.8508 0.97279,1.27034 1.48212,1.87373 0.33245,0.38843 1.03078,0.89755 1.39349,0.26656 0.0254,-0.0321 0.0526,-0.0627 0.0788,-0.0941 z m -4.24776,-3.43636 c -0.0563,-1.67698 0.54642,-3.35273 1.60429,-4.64839 -0.66565,-0.009 -1.42747,-0.51262 -2.01965,-0.002 -0.24999,0.65996 -0.003,1.37028 -0.0909,2.05253 -0.0255,0.73827 0.0279,1.48243 0.11996,2.20948 -0.13146,0.29911 0.0703,1.35262 0.3998,0.72604 0.005,-0.11303 -0.0151,-0.22496 -0.0135,-0.33791 z m 1.89176,0.0494 c 1.10939,-0.35141 1.91115,-1.23753 2.7805,-1.9611 -0.1072,-0.83197 -0.89671,-1.29393 -1.38209,-1.89894 -0.51401,-0.62414 -1.28097,-0.24495 -1.48365,0.4192 -0.64943,1.0407 -1.0925,2.29897 -0.92493,3.53312 0.21058,0.40163 0.74701,0.0615 1.01017,-0.0923 z m -4.1135,0.1564 c -0.24547,-0.84743 -0.46931,-1.75248 -1.14178,-2.3777 -0.2924,-0.50312 -0.97825,-0.58105 -1.11844,0.063 -0.5005,0.66391 -0.0371,1.49861 0.66706,1.74645 0.45666,0.27394 1.02882,0.80897 1.59316,0.56825 z m 1.09039,-0.26922 c -0.32369,-0.89453 -0.14892,-1.86296 -0.23126,-2.79122 -0.13231,-0.54526 0.33303,-1.85781 -0.60995,-1.59959 -0.56911,0.25397 -1.73477,0.74864 -0.96398,1.4665 0.58007,0.55914 0.82056,1.35135 1.17993,2.05547 0.15046,0.31653 0.18523,1.19033 0.63968,1.02759 l 2.6e-4,-0.067 z"
       id="ball-22" />
    <path
       style="fill:#000000;stroke-width:0.115873"
       d="m 106.70808,89.519078 c -1.15252,-0.629098 -2.3298,-1.473363 -2.76953,-2.769564 -0.47876,-0.664419 -0.77427,-1.467255 -0.70029,-2.292891 -0.0275,-0.834887 0.05,-1.689061 0.41852,-2.4497 0.41796,-1.141533 1.12343,-2.233903 2.18778,-2.865062 0.97401,-0.713653 2.1835,-1.149058 3.40056,-0.996856 0.82569,-0.02481 1.63272,0.205023 2.35503,0.597393 1.15803,0.536911 2.30827,1.280535 2.88491,2.464602 1.06105,1.711165 0.9407,3.977488 -0.0534,5.690734 -0.5771,1.127667 -1.45397,2.14134 -2.64466,2.637831 -1.17271,0.547692 -2.52084,0.631439 -3.785,0.424803 -0.4484,-0.08841 -0.88556,-0.235692 -1.29392,-0.441271 z m 0.21198,-0.844265 c 0.33866,-1.150102 0.35301,-2.36578 0.62334,-3.528192 -0.18382,-0.621194 -0.58919,0.411069 -0.8323,0.596588 -0.38235,0.514339 -0.84485,0.963498 -1.35048,1.352419 -0.2802,0.650313 0.62172,1.161271 1.08454,1.465131 0.14905,0.06722 0.31031,0.113475 0.47489,0.114091 z m 2.7884,0.596343 c 0.87317,-0.09125 0.0126,-0.924313 -0.0831,-1.356797 -0.27316,-0.81797 -0.68782,-1.642411 -0.59204,-2.52691 -0.53362,-0.58369 -1.09124,0.367967 -1.06953,0.894103 -0.0478,0.815948 -0.31923,1.576567 -0.16827,2.395677 0.0463,0.742745 0.91031,0.586389 1.42768,0.628613 0.16228,-1.94e-4 0.32485,-0.0094 0.48526,-0.03471 z m -4.60263,-3.019395 c 0.63727,-0.513085 1.19255,-1.171307 1.43809,-1.963434 -0.25782,-0.778758 -1.10465,-1.148112 -1.41535,-1.902013 -0.3568,-0.663052 -1.05971,-0.205514 -1.002,0.424518 -0.0775,1.02496 -0.29364,2.129314 0.17331,3.095735 0.18877,0.40331 0.31756,0.834282 0.80594,0.345204 z m 6.76927,2.312005 c 0.67938,-0.40109 1.25932,-0.987746 1.68846,-1.645426 0.33749,-0.600499 0.54672,-1.260818 0.7455,-1.9171 -0.57748,-0.400895 -1.20939,0.355013 -1.84915,0.274728 -0.85083,0.138766 -1.72318,0.101407 -2.56696,0.290015 -0.20732,0.833453 0.4309,1.540911 0.67946,2.290388 0.16425,0.484172 0.62331,1.216386 1.19457,0.765425 0.0355,-0.02036 0.0721,-0.03866 0.10813,-0.05807 z m -2.66612,-4.769055 c 0.57107,-1.577754 1.75349,-2.909407 3.21717,-3.719022 -0.61462,-0.255779 -1.13466,-1.006486 -1.87421,-0.752566 -0.47738,0.519753 -0.51212,1.270986 -0.84731,1.871682 -0.29809,0.675896 -0.52513,1.386587 -0.70991,2.095764 -0.23322,0.228816 -0.43751,1.281838 0.10129,0.822628 0.0466,-0.103074 0.0696,-0.214455 0.11307,-0.318718 z m 1.73786,0.749033 c 1.16052,0.08613 2.23421,-0.438484 3.31023,-0.787072 0.20972,-0.812208 -0.35151,-1.534532 -0.57723,-2.276611 -0.24519,-0.77048 -1.09814,-0.70354 -1.53316,-0.162312 -0.98973,0.724742 -1.86876,1.728169 -2.17193,2.93618 0.0462,0.451127 0.67062,0.33476 0.9721,0.289796 z m -3.87691,-1.383804 c 0.0871,-0.877955 0.21572,-1.801362 -0.17618,-2.631745 -0.0844,-0.575758 -0.69218,-0.903037 -1.06172,-0.357241 -0.71142,0.430305 -0.59148,1.377448 -0.0299,1.869268 0.32211,0.424055 0.65441,1.133424 1.26779,1.119718 z m 1.11234,0.15537 c 0.032,-0.950755 0.55421,-1.784837 0.82281,-2.677195 0.0798,-0.555373 0.99972,-1.600912 0.0283,-1.711701 -0.62273,0.02423 -1.88875,0.05018 -1.44001,1.003113 0.33067,0.734692 0.25947,1.559533 0.33136,2.346783 0.022,0.349777 -0.27049,1.173895 0.21189,1.191735 l 0.0251,-0.0621 z"
       id="ball-32" />
    <path
       style="fill:#000000;stroke-width:0.115873"
       d="m 146.61457,115.07942 c 1.05607,0.78024 2.10735,1.77702 2.36641,3.12104 0.38377,0.72345 0.56716,1.55906 0.38139,2.36692 -0.0864,0.83085 -0.27962,1.6665 -0.74835,2.36984 -0.56957,1.07395 -1.41729,2.06003 -2.5577,2.5403 -1.06214,0.57431 -2.31967,0.84089 -3.50466,0.5243 -0.82137,-0.0879 -1.58956,-0.42554 -2.25169,-0.91265 -1.07409,-0.68967 -2.11229,-1.58306 -2.52225,-2.83465 -0.81804,-1.83976 -0.39007,-4.06856 0.82818,-5.6304 0.72534,-1.03853 1.73213,-1.9233 2.97935,-2.25295 1.23639,-0.38282 2.58336,-0.28213 3.80759,0.0948 0.43218,0.14867 0.84519,0.35413 1.22174,0.61343 z m -0.32502,0.80751 c -0.49218,1.09324 -0.67201,2.29563 -1.09818,3.41038 0.0975,0.64044 0.6397,-0.32697 0.90581,-0.47764 0.44886,-0.45745 0.96824,-0.83942 1.52214,-1.15583 0.36618,-0.60608 -0.45773,-1.23514 -0.87483,-1.59922 -0.13851,-0.0869 -0.29197,-0.15469 -0.45492,-0.17772 z m -2.68116,-0.97065 c -0.87746,-0.0286 -0.13838,0.91398 -0.10253,1.35546 0.15918,0.84756 0.45766,1.72081 0.24227,2.58401 0.44913,0.65095 1.1312,-0.21587 1.18137,-0.74006 0.15847,-0.80184 0.53104,-1.51838 0.49307,-2.35042 0.0553,-0.74213 -0.82194,-0.70494 -1.32873,-0.81725 -0.1608,-0.0219 -0.3231,-0.0349 -0.48547,-0.0317 z m 4.14838,3.61827 c -0.70123,0.42148 -1.34101,0.99792 -1.69217,1.74921 0.14932,0.80662 0.93794,1.2879 1.14304,2.0771 0.26315,0.70548 1.02183,0.34797 1.05049,-0.28405 0.21638,-1.00485 0.58099,-2.06946 0.25004,-3.09049 -0.13206,-0.42526 -0.20094,-0.86976 -0.7514,-0.45178 z m -6.39119,-3.21264 c -0.72769,0.30479 -1.38215,0.80697 -1.89688,1.40006 -0.41615,0.54892 -0.71339,1.17458 -0.99973,1.79766 0.51749,0.47583 1.24648,-0.18694 1.86935,-0.0203 0.8618,-0.0216 1.72092,0.13429 2.58253,0.0624 0.31893,-0.79744 -0.21696,-1.58524 -0.3611,-2.3616 -0.0968,-0.50203 -0.45178,-1.28996 -1.07915,-0.92102 -0.038,0.0153 -0.0767,0.0285 -0.11504,0.0428 z m 1.99156,5.0878 c -0.78069,1.48525 -2.1335,2.6434 -3.69382,3.24607 0.57403,0.33712 0.98695,1.15168 1.7542,1.00087 0.54375,-0.44987 0.6805,-1.18937 1.0944,-1.7388 0.38739,-0.62898 0.70913,-1.30212 0.9888,-1.97951 0.26222,-0.19491 0.60806,-1.21028 0.0117,-0.82876 -0.0603,0.0958 -0.0982,0.20298 -0.15544,0.30035 z m -1.61961,-0.9788 c -1.13798,-0.24343 -2.27312,0.13002 -3.3866,0.32877 -0.31842,0.77607 0.13918,1.56811 0.2617,2.33402 0.13794,0.7967 0.99206,0.84659 1.49676,0.36967 1.07924,-0.58315 2.08677,-1.45747 2.55168,-2.61292 0.0157,-0.45322 -0.61877,-0.423 -0.92355,-0.41952 z m 3.65224,1.89906 c -0.2059,0.8579 -0.45911,1.75518 -0.18399,2.63121 0.005,0.58189 0.5627,0.98892 1.00315,0.49855 0.76341,-0.32937 0.77362,-1.28402 0.28427,-1.84777 -0.26134,-0.46398 -0.4939,-1.212 -1.10343,-1.28199 z m -1.0808,-0.30546 c -0.16122,0.93754 -0.7922,1.6927 -1.17986,2.54014 -0.15476,0.53932 -1.2085,1.4498 -0.26125,1.69189 0.62023,0.0608 1.87798,0.20759 1.56325,-0.79759 -0.22751,-0.77289 -0.0446,-1.58034 -0.009,-2.37004 0.0258,-0.34952 0.42789,-1.1261 -0.0476,-1.20949 l -0.0334,0.0581 z"
       id="ball-23" />
    <path
       style="fill:#000000;stroke-width:0.115873"
       d="m 85.220364,121.06677 c -0.665387,1.13196 -1.546619,2.28182 -2.856133,2.68016 -0.67929,0.45741 -1.491107,0.72728 -2.313977,0.62711 -0.83534,0.001 -1.686621,-0.1036 -2.43517,-0.49612 -1.127682,-0.454 -2.197094,-1.19381 -2.794128,-2.27767 -0.682357,-0.99618 -1.079128,-2.21889 -0.888346,-3.43051 0.0014,-0.82606 0.256778,-1.62538 0.671892,-2.33487 0.573421,-1.14039 1.353204,-2.26642 2.554987,-2.80517 1.744003,-1.00616 4.00536,-0.81389 5.686167,0.23414 1.108769,0.61262 2.094079,1.52125 2.552501,2.7271 0.510168,1.18952 0.551055,2.53963 0.304372,3.79658 -0.102606,0.44537 -0.263701,0.87763 -0.482147,1.27926 z m -0.837106,-0.23869 c -1.138765,-0.37502 -2.353374,-0.42797 -3.506613,-0.73509 -0.62672,0.164 0.392147,0.60195 0.569851,0.85083 0.501935,0.3985 0.936177,0.87503 1.308843,1.39276 0.641085,0.30071 1.180432,-0.58453 1.498839,-1.03746 0.07192,-0.14685 0.123273,-0.30656 0.129116,-0.47103 z m 0.684607,-2.76806 c -0.06347,-0.87562 -0.923448,-0.0419 -1.358751,0.04 -0.826234,0.24704 -1.663429,0.63531 -2.54444,0.51148 -0.600344,0.51481 0.333122,1.10237 0.859682,1.09739 0.814019,0.0737 1.565632,0.36915 2.389124,0.24428 0.74384,-0.0227 0.615005,-0.89123 0.673641,-1.407 0.005,-0.1622 9.35e-4,-0.32498 -0.01928,-0.48612 z m -3.16406,4.50441 c -0.492585,-0.65325 -1.132839,-1.22915 -1.916767,-1.49972 -0.786554,0.23295 -1.182618,1.06762 -1.946007,1.35422 -0.674051,0.33556 -0.239069,1.05265 0.392477,1.01498 1.021983,0.10999 2.118914,0.36112 3.099679,-0.0749 0.409102,-0.17586 0.843947,-0.2909 0.370627,-0.79457 z m 2.525841,-6.69241 c -0.379308,-0.69178 -0.947248,-1.29006 -1.590966,-1.73987 -0.589478,-0.35639 -1.242817,-0.58649 -1.892455,-0.80602 -0.419034,0.56445 0.316421,1.22005 0.215857,1.85695 0.111675,0.8548 0.04663,1.72552 0.208339,2.57486 0.826448,0.23369 1.55382,-0.38174 2.310814,-0.60637 0.489142,-0.14878 1.235567,-0.58435 0.802978,-1.16964 -0.01922,-0.0361 -0.03634,-0.0733 -0.0546,-0.10993 z m -4.851327,2.51329 c -1.55882,-0.6209 -2.852245,-1.84501 -3.614963,-3.33367 -0.275171,0.60618 -1.042017,1.10212 -0.811715,1.84936 0.504329,0.49365 1.25408,0.55223 1.843826,0.90634 0.666087,0.3194 1.369209,0.56889 2.072159,0.77611 0.221292,0.24037 1.267295,0.478 0.825429,-0.0751 -0.101539,-0.0499 -0.212136,-0.0764 -0.314965,-0.12313 z m 0.803852,-1.71319 c 0.122946,-1.1572 -0.367302,-2.24701 -0.681537,-3.33355 -0.805137,-0.23542 -1.544922,0.30259 -2.293796,0.50462 -0.777878,0.22059 -0.738062,1.07524 -0.210924,1.52723 0.692939,1.01225 1.667941,1.92271 2.865714,2.2641 0.452367,-0.0319 0.35589,-0.65966 0.320525,-0.96241 z m -1.506244,3.831 c -0.874745,-0.11495 -1.793601,-0.27282 -2.636012,0.0925 -0.57815,0.0661 -0.924567,0.66315 -0.390783,1.04984 0.407491,0.72473 1.357965,0.63493 1.867375,0.0893 0.434072,-0.30849 1.153637,-0.61808 1.15942,-1.23159 z m 0.190622,-1.10684 c -0.949259,-0.0622 -1.766333,-0.61063 -2.64971,-0.90743 -0.552557,-0.0974 -1.568352,-1.05006 -1.709939,-0.0827 0.0044,0.6232 -0.0098,1.88939 0.956871,1.47115 0.744824,-0.30717 1.566986,-0.2098 2.356123,-0.25666 0.3503,-0.0109 1.164712,0.30764 1.197864,-0.17393 l -0.06127,-0.0271 z"
       id="ball-21" />
    <path
       style="fill:#000000;stroke-width:0.115873"
       d="m 61.993914,178.75366 c -0.111989,-1.30825 -0.05826,-2.75596 0.779533,-3.83837 0.289535,-0.76605 0.795655,-1.45577 1.524836,-1.85003 0.680832,-0.48401 1.435751,-0.89109 2.273411,-1.00389 1.182492,-0.28195 2.482774,-0.29705 3.596734,0.24174 1.132843,0.41791 2.163758,1.18581 2.708975,2.28452 0.476679,0.67465 0.730714,1.47439 0.802487,2.29326 0.191885,1.26194 0.207128,2.63153 -0.461569,3.76615 -0.840636,1.82955 -2.796505,2.98076 -4.773805,3.09808 -1.258815,0.14162 -2.588144,-0.0296 -3.659597,-0.74812 -1.104218,-0.67522 -1.918521,-1.7529 -2.444358,-2.92092 -0.173919,-0.42265 -0.292543,-0.86844 -0.346667,-1.32242 z m 0.820918,-0.2895 c 1.145848,-0.35279 2.167268,-1.01217 3.285647,-1.42871 0.41637,-0.4963 -0.668074,-0.2642 -0.956993,-0.36443 -0.639949,-0.0347 -1.269815,-0.17227 -1.873282,-0.37903 -0.696892,0.12552 -0.6248,1.15962 -0.622543,1.71326 0.02628,0.16139 0.07677,0.32138 0.167136,0.45892 z m 1.042688,2.65398 c 0.558263,0.67756 0.77752,-0.49997 1.085235,-0.81857 0.531086,-0.67944 0.989422,-1.48043 1.779715,-1.88902 0.191934,-0.76721 -0.909386,-0.70655 -1.336035,-0.39791 -0.70665,0.41074 -1.490661,0.60449 -2.090178,1.18269 -0.593641,0.44878 0.01384,1.08274 0.264349,1.53739 0.08974,0.1352 0.187217,0.26563 0.296916,0.38539 z m -0.02449,-5.50457 c 0.779678,0.24794 1.635072,0.34738 2.431052,0.11464 0.506868,-0.645 0.347147,-1.55496 0.804086,-2.23032 0.355743,-0.66362 -0.413874,-0.99696 -0.907254,-0.60092 -0.897283,0.50142 -1.937344,0.93107 -2.485173,1.85406 -0.231993,0.38009 -0.520165,0.72546 0.157276,0.86253 z m 1.810719,6.92022 c 0.709562,0.3449 1.518913,0.50442 2.304198,0.49899 0.687003,-0.0503 1.353048,-0.24047 2.00996,-0.43716 0.01532,-0.70283 -0.963833,-0.81221 -1.250205,-1.38991 -0.585542,-0.63269 -1.036138,-1.38059 -1.659336,-1.97988 -0.809332,0.28742 -1.046684,1.21018 -1.534252,1.83129 -0.312948,0.4043 -0.669879,1.19136 0.02155,1.41858 0.03656,0.0183 0.07204,0.0388 0.108126,0.0581 z m 2.503594,-4.85634 c 1.630724,-0.39519 3.393876,-0.14481 4.877139,0.62835 -0.12617,-0.65364 0.212499,-1.50177 -0.407594,-1.9781 -0.69694,-0.11096 -1.342418,0.27494 -2.02832,0.32721 -0.728099,0.12474 -1.445969,0.32794 -2.139249,0.56551 -0.319553,-0.0681 -1.310261,0.34313 -0.629886,0.53872 0.111692,-0.018 0.217238,-0.0604 0.328149,-0.0817 z m 0.335243,1.86248 c 0.569074,1.01507 1.599367,1.62049 2.48419,2.32504 0.792948,-0.27368 1.085209,-1.14046 1.579226,-1.73844 0.50694,-0.62989 -0.0199,-1.30402 -0.711346,-1.36781 -1.150771,-0.4249 -2.47275,-0.60362 -3.647279,-0.18926 -0.350557,0.28768 0.09126,0.74396 0.295229,0.97046 z m -0.987296,-3.99632 c 0.780046,-0.41222 1.6209,-0.81494 2.096766,-1.60022 0.433379,-0.38834 0.370607,-1.07575 -0.288491,-1.08243 -0.751611,-0.35547 -1.474997,0.26757 -1.574926,1.00731 -0.175644,0.50273 -0.583536,1.17149 -0.233378,1.6753 z m 0.484739,1.01314 c 0.810316,-0.49835 1.794058,-0.5236 2.686333,-0.79247 0.507076,-0.24016 1.886741,-0.0506 1.442683,-0.92162 -0.364069,-0.50582 -1.084894,-1.5469 -1.631511,-0.64658 -0.429897,0.6814 -1.15688,1.07754 -1.773496,1.57223 -0.279445,0.21152 -1.128039,0.42276 -0.876525,0.83477 l 0.06566,-0.0133 z"
       id="ball-11" />
    <path
       style="fill:#000000;stroke-width:0.115873"
       d="m 109.85319,183.44157 c -1.26646,-0.34661 -2.6066,-0.89686 -3.33315,-2.0569 -0.61897,-0.53623 -1.09151,-1.24937 -1.20975,-2.06984 -0.21917,-0.80608 -0.34055,-1.65513 -0.15718,-2.48022 0.14368,-1.20712 0.57847,-2.43265 1.46875,-3.29206 0.78336,-0.91888 1.85999,-1.62125 3.07938,-1.75357 0.79775,-0.21441 1.63602,-0.1767 2.42931,0.0387 1.25059,0.25564 2.54121,0.71423 3.37516,1.73357 1.42677,1.42064 1.83186,3.65371 1.25924,5.54991 -0.30174,1.2303 -0.92143,2.41876 -1.96571,3.17622 -1.01496,0.80317 -2.30752,1.19529 -3.58527,1.28549 -0.45671,0.0173 -0.91604,-0.0253 -1.36079,-0.13127 z m 0.0118,-0.87038 c 0.0645,-1.19719 -0.2016,-2.38346 -0.20637,-3.57688 -0.32201,-0.56213 -0.47862,0.53575 -0.67245,0.7723 -0.25353,0.58861 -0.60012,1.13224 -1.00252,1.6272 -0.12283,0.69738 0.87257,0.98677 1.39293,1.17582 0.16055,0.031 0.32814,0.0389 0.48841,0.002 z m 2.85078,-0.0622 c 0.82865,-0.28998 -0.20076,-0.90233 -0.39351,-1.30113 -0.45429,-0.73302 -1.04776,-1.43974 -1.15835,-2.3225 -0.65375,-0.44504 -0.97708,0.60949 -0.83474,1.11647 0.14148,0.80501 0.0526,1.6077 0.38825,2.36999 0.21621,0.71209 1.02092,0.3609 1.53412,0.28274 0.15785,-0.0375 0.31393,-0.084 0.4642,-0.14558 z m -5.17449,-1.87764 c 0.5019,-0.64611 0.89057,-1.41456 0.94698,-2.24195 -0.43032,-0.6984 -1.33946,-0.8627 -1.81551,-1.52473 -0.49998,-0.56299 -1.07855,0.0442 -0.87722,0.64397 0.16076,1.01524 0.20487,2.13968 0.88194,2.97251 0.27662,0.34896 0.50125,0.73866 0.86379,0.15021 z m 7.11983,0.69007 c 0.56868,-0.54683 0.99784,-1.25133 1.2639,-1.9902 0.19,-0.66211 0.2415,-1.35286 0.28372,-2.03728 -0.65432,-0.25704 -1.09505,0.62411 -1.7361,0.69341 -0.79596,0.33107 -1.65344,0.49571 -2.43105,0.87366 -0.01,0.8588 0.77435,1.40017 1.18891,2.0722 0.27138,0.4333 0.8868,1.04004 1.33876,0.46963 0.0298,-0.028 0.0613,-0.0542 0.0919,-0.0814 z m -3.69323,-4.02642 c 0.19217,-1.66689 1.03594,-3.23515 2.27369,-4.36023 -0.657,-0.10728 -1.33603,-0.71797 -1.99718,-0.30048 -0.34477,0.61576 -0.20548,1.35479 -0.39325,2.01655 -0.13433,0.72639 -0.1915,1.47028 -0.20792,2.20295 -0.17424,0.27638 -0.13038,1.34815 0.2881,0.77716 0.0217,-0.11105 0.0183,-0.22474 0.0366,-0.33618 z m 1.86369,0.32845 c 1.14913,-0.18359 2.07306,-0.94148 3.03979,-1.52862 0.017,-0.83868 -0.69561,-1.41225 -1.08624,-2.08235 -0.41612,-0.69325 -1.2307,-0.43157 -1.52931,0.19532 -0.7961,0.93328 -1.42029,2.11225 -1.43696,3.35762 0.14895,0.42833 0.72973,0.17119 1.01272,0.058 z m -4.09144,-0.45328 c -0.11753,-0.87441 -0.20515,-1.8026 -0.77783,-2.52034 -0.21482,-0.54082 -0.88162,-0.71926 -1.11547,-0.103 -0.59312,0.58265 -0.25817,1.47668 0.40157,1.82588 0.41116,0.33842 0.89796,0.95213 1.49168,0.79748 z m 1.1182,-0.10511 c -0.18791,-0.93255 0.12806,-1.86451 0.18381,-2.79474 -0.0503,-0.55882 0.60397,-1.78819 -0.3668,-1.67218 -0.60042,0.16703 -1.82636,0.48406 -1.17015,1.30792 0.49106,0.63873 0.61182,1.45778 0.86318,2.20729 0.10203,0.33528 0.007,1.20463 0.48079,1.11084 l 0.0102,-0.0662 z"
       id="ball-12" />
    <path
       style="fill:#000000;stroke-width:0.115873"
       d="m 145.86242,177.10309 c 0.89801,-0.95793 2.01049,-1.88591 3.37557,-1.98651 0.76325,-0.29685 1.61453,-0.38159 2.39524,-0.10292 0.81512,0.1827 1.62256,0.47194 2.26647,1.01946 1.00025,0.69085 1.88081,1.64771 2.22489,2.83632 0.44661,1.12185 0.56479,2.40188 0.11225,3.54189 -0.18302,0.80553 -0.6079,1.52913 -1.16888,2.12997 -0.81016,0.98639 -1.81846,1.91339 -3.1093,2.17468 -1.92256,0.59804 -4.08629,-0.0868 -5.49549,-1.47876 -0.94692,-0.84144 -1.70834,-1.94448 -1.89035,-3.22164 -0.23612,-1.27259 0.0209,-2.59864 0.53792,-3.77059 0.19802,-0.41191 0.45023,-0.79816 0.75166,-1.14192 z m 0.7641,0.41697 c 1.02845,0.6162 2.20166,0.93499 3.25913,1.48818 0.64745,-0.0222 -0.25017,-0.67344 -0.3688,-0.95531 -0.40204,-0.4991 -0.72085,-1.05948 -0.97055,-1.64647 -0.55927,-0.43433 -1.28007,0.31065 -1.69028,0.68246 -0.1024,0.12749 -0.18766,0.27198 -0.22989,0.43093 z m -1.27652,2.54976 c -0.13064,0.86815 0.89162,0.24394 1.33428,0.25978 0.86034,-0.0593 1.76242,-0.25399 2.59463,0.0605 0.69886,-0.37019 -0.0825,-1.14862 -0.59732,-1.25956 -0.77789,-0.2509 -1.44613,-0.7044 -2.27693,-0.76366 -0.73063,-0.14142 -0.79596,0.73415 -0.96655,1.22444 -0.0406,0.15709 -0.0724,0.31682 -0.0881,0.47845 z m 4.0771,-3.69839 c 0.33688,0.74557 0.83482,1.44816 1.54007,1.88449 0.81853,-0.0543 1.38844,-0.78143 2.19617,-0.89315 0.73133,-0.17913 0.46468,-0.97432 -0.15969,-1.07643 -0.97278,-0.33205 -1.98763,-0.81824 -3.04028,-0.60855 -0.43776,0.0816 -0.88725,0.0982 -0.53627,0.69362 z m -3.93564,5.97318 c 0.2179,0.75825 0.64038,1.46677 1.16944,2.04713 0.4967,0.47726 1.08343,0.84542 1.66888,1.20243 0.5329,-0.45851 -0.0404,-1.25977 0.19776,-1.85897 0.079,-0.85843 0.33396,-1.69353 0.36297,-2.55764 -0.7547,-0.40996 -1.59974,0.0307 -2.38759,0.0834 -0.50988,0.0376 -1.33382,0.29835 -1.04055,0.96441 0.0108,0.0394 0.0193,0.0795 0.0291,0.11928 z m 5.28524,-1.385 c 1.38414,0.94848 2.37672,2.42705 2.79342,4.04698 0.40173,-0.53082 1.25887,-0.846 1.19852,-1.62559 -0.38344,-0.59246 -1.10196,-0.81448 -1.5994,-1.2896 -0.57954,-0.45805 -1.2106,-0.85605 -1.85078,-1.21278 -0.16299,-0.28316 -1.13116,-0.74497 -0.82174,-0.10825 0.0881,0.0711 0.19017,0.12115 0.28016,0.18939 z m -1.1609,1.4945 c -0.37439,1.10184 -0.13579,2.27278 -0.0682,3.40182 0.73363,0.40676 1.57363,0.0445 2.3486,0.0121 0.80734,-0.0441 0.95643,-0.88663 0.54159,-1.44347 -0.45339,-1.13984 -1.20431,-2.24242 -2.29771,-2.83884 -0.4483,-0.0683 -0.4922,0.56529 -0.52429,0.86838 z m 2.3118,-3.40601 c 0.82806,0.30449 1.68971,0.66054 2.59183,0.48941 0.57854,0.0626 1.04776,-0.4436 0.61208,-0.93822 -0.23816,-0.79658 -1.18512,-0.91799 -1.80204,-0.49774 -0.49128,0.20549 -1.2613,0.34928 -1.40187,0.94649 z m -0.42934,1.03783 c 0.91234,0.26941 1.58882,0.98409 2.38531,1.46787 0.51761,0.21653 1.29905,1.36925 1.64989,0.4567 0.13275,-0.60892 0.42503,-1.841 -0.60994,-1.64557 -0.79414,0.13588 -1.57476,-0.1399 -2.3549,-0.26772 -0.34411,-0.0664 -1.06842,-0.55646 -1.20679,-0.0937 l 0.0538,0.0399 z"
       id="ball-13" />
  </g>
</svg>
