<?xml version="1.0" encoding="UTF-8" standalone="no"?>
<!-- Created with Inkscape (http://www.inkscape.org/) -->

<svg
   width="283.98608mm"
   height="218.72223mm"
   viewBox="0 0 283.98608 218.72223"
   version="1.1"
   id="svg5"
   inkscape:version="1.1 (c68e22c387, 2021-05-23)"
   sodipodi:docname="bfishing.svg"
   xmlns:inkscape="http://www.inkscape.org/namespaces/inkscape"
   xmlns:sodipodi="http://sodipodi.sourceforge.net/DTD/sodipodi-0.dtd"
   xmlns="http://www.w3.org/2000/svg"
   xmlns:svg="http://www.w3.org/2000/svg">
  <sodipodi:namedview
     id="namedview7"
     pagecolor="#ffffff"
     bordercolor="#666666"
     borderopacity="1.0"
     inkscape:pageshadow="2"
     inkscape:pageopacity="0.0"
     inkscape:pagecheckerboard="0"
     inkscape:document-units="mm"
     showgrid="false"
     fit-margin-top="0"
     fit-margin-left="0"
     fit-margin-right="0"
     fit-margin-bottom="0"
     inkscape:zoom="1.0998546"
     inkscape:cx="753.28139"
     inkscape:cy="556.89179"
     inkscape:window-width="2331"
     inkscape:window-height="1111"
     inkscape:window-x="959"
     inkscape:window-y="897"
     inkscape:window-maximized="0"
     inkscape:current-layer="layer1" />
  <defs
     id="defs2" />
  <g
     inkscape:label="Calque 1"
     inkscape:groupmode="layer"
     id="layer1"
     transform="translate(29.774036,-30.864122)">
    <path
       style="fill:#000000;stroke-width:0.282235"
       d="m 158.02789,155.62293 c -1.01985,-1.03008 -1.23651,-1.12985 -2.05711,-0.94725 -2.05999,0.45838 -4.35833,-0.0321 -5.50001,-1.1738 -1.20215,-1.59044 -1.52045,-3.5354 -0.52137,-5.15675 1.28007,-2.02775 3.94461,-2.61657 5.8823,-1.29987 1.21954,0.8287 1.78116,1.79454 2.2122,3.80437 0.29462,1.3738 0.38116,1.47575 1.83788,2.16548 1.93967,0.91839 2.23699,1.72439 1.08113,2.93084 -0.43647,0.45559 -1.01893,0.82833 -1.29436,0.82833 -0.27542,0 -1.01371,-0.5181 -1.64066,-1.15135 z m -2.346,-2.87987 c 1.01828,-1.10922 0.79134,-3.17531 -0.003,-4.00876 -0.81499,-0.81498 -1.19989,-0.99154 -2.16154,-0.99154 -1.26637,0 -2.52695,0.92214 -2.58676,1.89226 -0.11659,1.89121 0.37263,2.87221 1.77091,3.55103 1.08559,0.52702 2.07427,0.38011 2.98107,-0.44299 z m -3.35271,-1.7366 c -0.44926,-0.98601 -0.12514,-1.57029 0.87107,-1.57029 0.89871,0 1.42996,0.62224 1.42996,1.67485 0,0.47884 -0.17761,0.58303 -0.99387,0.58303 -0.77931,0 -1.06151,-0.14844 -1.30716,-0.68759 z"
       id="lure-1"
       sodipodi:nodetypes="ssccssssssccssscsssss" />
    <path
       style="fill:#000000;stroke-width:0.282235"
       d="m 0.00691133,159.97934 c -0.8521998,-0.55347 -4.15050933,-2.96553 -2.78399183,-3.89405 0.3104572,-0.25398 0.9182404,-0.53419 1.3506234,-0.62267 0.69844343,-0.14293 0.74131483,-0.21182 0.38421,-0.61751 -0.221077,-0.25114 -0.4893563,-0.86794 -0.5961986,-1.37066 -0.4139501,-0.69393 -0.5343291,-1.87745 -1.0141703,-2.33168 -0.106245,0.78417 -0.6901764,1.12864 -0.9973482,1.51875 -0.3240152,0.84437 -4.2044534,3.56149 -5.0863188,3.56149 -0.7302955,0 -0.5763364,-1.34663 0.3667586,-3.20773 1.0142343,-2.00149 1.0113115,-2.28712 -0.044695,-4.3649 -0.7347758,-1.44575 -0.9774858,-2.3077 -1.046577,-3.71679 -0.083417,-1.70052 -0.048749,-1.82796 0.4745182,-1.74455 1.2620219,0.20117 6.0680609,4.05221 6.0680609,4.86229 0,0.14799 0.1270033,0.26909 0.2822319,0.26909 0.8408395,-1.77274 1.4237042,-3.86435 2.77083973,-5.37219 0.323311,-0.34705 0.792208,-1.06164 1.04197997,-1.58799 0.54857,-1.15605 2.057728,-2.71065 3.150036,-3.24491 1.358592,-0.66452 5.198377,0.13669 4.409092,0.92 -0.123004,0.12206 -0.858676,0.24922 -1.634818,0.28256 -1.472924,0.0633 -3.527942,0.88931 -3.527942,1.41811 0,0.1778 0.207562,0.22519 0.493912,0.11278 1.529319,-0.60041 3.922328,-0.77317 6.2328037,-0.44995 2.198663,0.30757 2.615675,0.47355 4.687527,1.8656 1.250799,0.8404 3.132702,2.36233 4.182009,3.38206 1.662148,1.61529 1.868887,1.92683 1.605441,2.4191 -0.166323,0.31076 -0.643828,0.70156 -1.061127,0.86842 -2.333208,0.93297 -3.436898,1.75754 -2.974102,2.22193 0.245387,0.24624 0.738669,0.14014 2.018377,-0.43416 1.67242,-0.75055 2.73711,-0.84893 2.73711,-0.25294 0,0.33896 -1.593376,2.24981 -4.349473,5.21609 -3.874326,4.1698 -7.4166787,4.9845 -13.8282867,3.18039 -0.496781,-0.13979 -0.621832,-0.0984 -0.465654,0.15436 0.478625,0.77445 -1.089704,1.30349 -2.84487997,0.95966 z m 7.50587797,-3.6877 c 0.381607,-0.58105 0.724493,-1.103 0.761966,-1.15988 0.03744,-0.0568 0.756921,0.18207 1.598774,0.531 1.2877297,0.53374 1.7490637,0.59451 2.9070907,0.38294 0.918923,-0.16788 1.37646,-0.3913 1.37646,-0.67211 0,-0.3359 -0.341136,-0.40261 -1.693413,-0.33114 -1.497116,0.0791 -1.843415,-0.0107 -2.9874467,-0.7719 -0.985689,-0.65612 -1.384513,-1.14823 -1.6737,-2.06514 -0.20881,-0.66207 -0.495682,-1.35812 -0.637502,-1.54679 -0.436319,-1.97677 0.564816,-2.83869 1.259078,-4.21802 0.428031,-0.85704 0.916384,-1.39523 1.427789,-1.57351 0.9796937,-0.34152 1.0869737,-1.34905 0.142226,-1.3357 -0.705879,0.01 -1.416216,0.47546 -1.709115,1.11997 -0.191369,0.42112 -0.484642,0.9076 -1.360384,2.25667 -0.252353,0.38874 -0.541647,1.08782 -0.642868,1.5535 -0.173362,0.79753 -0.262775,0.84676 -1.539432,0.84758 -1.095454,7.1e-4 -1.546174,0.16307 -2.350297,0.84671 -0.914112,0.77712 -0.997732,0.97798 -1.029349,2.47263 -0.06315,2.98524 1.426018,4.72514 4.041139,4.72157 1.322248,-0.002 1.460708,-0.0712 2.108984,-1.05838 z m -2.275446,-0.007 c -0.69999,-0.062 -1.291687,-0.37335 -1.897614,-0.9985 -0.737475,-0.76089 -0.889034,-1.15058 -0.933238,-2.3996 -0.05643,-1.59364 0.231989,-2.09313 1.413783,-2.44862 2.195239,-0.3242 4.747807,4.57224 2.928127,5.71026 -0.27165,0.12461 -0.951629,0.18602 -1.511058,0.13646 z M 15.497697,148.7985 c 0.924321,-1.04732 0.96811,-1.65246 0.20849,-2.88156 -0.947533,-1.53312 -2.934282,-1.73929 -4.044638,-0.41971 -0.992612,1.17966 -1.12193,1.78106 -0.634046,2.94874 0.741475,1.77459 3.05416,1.95698 4.470194,0.35253 z m -2.46595,-1.31826 c -0.155976,-0.25238 0.29419,-1.41702 0.547705,-1.41702 0.489698,0 1.000986,0.43249 1.000986,0.84671 0,0.70949 -1.191501,1.14826 -1.548691,0.57031 z m -25.338363,-14.96253 c 1.620972,-2.34536 4.8153195,-1.55418 5.472865,0.57012 0.6639885,2.21619 -0.5149042,3.88798 -2.9164889,4.13584 -2.9153261,0.24867 -3.3279211,-2.87565 -2.5563761,-4.70596 z m 3.520976,2.89064 c 1.2233001,-1.40777 0.6804053,-2.8929 -1.0575216,-2.8929 -1.2096674,0 -1.6336764,0.67211 -1.2556214,1.99031 0.410899,1.43273 1.487451,1.8528 2.313143,0.90259 z"
       id="fish-11"
       sodipodi:nodetypes="ccsscccssssssccsssssssssssssssssccsssssscsccscsssssscssssccssssssssssccccssss" />
    <path
       style="fill:#000000;stroke-width:0.282235"
       d="m -1.5666124,194.17786 c -1.3668482,-1.20012 -1.6333673,-1.74401 -1.293106,-2.63897 0.2148367,-0.56507 0.469878,-0.72406 1.1614412,-0.72406 0.85776823,0 0.87263833,-0.0206 0.4641604,-0.64403 -0.2320855,-0.35423 -0.6509105,-1.37028 -0.9306997,-2.25789 -0.2797998,-0.88762 -0.6099379,-1.61385 -0.7336344,-1.61385 -0.1237072,0 -1.1609719,0.92079 -2.3050362,2.04621 -4.1979464,4.12952 -5.7188609,3.89489 -3.4674908,-0.5349 0.4059284,-0.7987 0.7380506,-1.5967 0.7380506,-1.77336 0,-0.17665 -0.3175189,-0.94777 -0.7055905,-1.71359 -0.511328,-0.94367 -1.8627472,-5.63115 -1.0855333,-5.92695 0.1015514,0 0.958797,0.4361 1.9050921,0.96912 1.6776148,0.94494 3.8291931,2.94741 4.1971358,3.90625 0.1056049,0.27531 0.3595582,0.40994 0.5994841,0.31787 0.7933423,-1.5102 1.4595622,-3.67801 2.72703973,-5.05212 0.440437,-0.46569 0.986692,-1.29123 1.213892,-1.83453 1.15680097,-2.76629 4.27368397,-4.39012 6.35750397,-3.31211 1.026758,0.53116 0.750126,0.81111 -0.8845,0.89511 -1.77603,0.0913 -3.599604,0.808 -3.599604,1.41477 0,0.52931 0.445077,0.5343 2.790905,0.0314 1.835873,-0.39365 4.4326344,-0.22605 6.3817494,0.41188 1.271004,0.41599 3.761243,2.17063 6.000644,4.22809 1.766377,1.62286 1.978888,1.9265 1.841868,2.6317 -0.102831,0.52936 -0.403219,0.88487 -0.8941,1.05821 -0.406579,0.14358 -0.92974,0.38844 -1.162583,0.54412 -0.232843,0.1557 -0.709121,0.40665 -1.058386,0.55766 -0.716705,0.30989 -0.877726,1.41749 -0.206068,1.41749 0.235926,0 1.212868,-0.31852 2.170961,-0.70784 1.069351,-0.43451 1.842987,-0.60686 2.003528,-0.44632 0.292153,0.29215 -2.834095,4.12503 -5.158418,6.32438 -0.790533,0.74803 -2.163867,1.69768 -3.051855,2.11036 -1.433326,0.66611 -1.947132,0.74886 -4.5780064,0.7373 -2.360964,-0.0107 -3.279066,-0.13816 -4.515764,-0.62849 -0.853768,-0.3385 -1.576202,-0.61552 -1.60543,-0.6156 -0.02923,-8e-5 -0.02923,0.34912 0,0.77601 0.04917,0.71856 -0.03382,0.78249 -1.11955097,0.86162 -0.982191,0.0716 -1.3392744,-0.0608 -2.19812003,-0.81485 z m 8.4071467,-2.0314 c 0.412212,-0.35421 0.749486,-0.87704 0.749486,-1.16185 0,-0.4081 0.134588,-0.47548 0.635027,-0.31796 1.7793817,0.70348 3.3784027,0.97291 5.0985647,0.58779 0.619315,-0.13823 0.774874,-0.31513 0.705591,-0.80238 -0.08288,-0.58267 -0.21328,-0.61914 -1.923419,-0.53779 -1.594144,0.0759 -1.984552,-0.011 -2.9794357,-0.66268 -1.172556,-0.76808 -2.019433,-2.23242 -2.303521,-3.98305 -0.194975,-1.2015 0.849821,-3.28374 2.397147,-4.77743 1.2574347,-1.21385 1.3859207,-2.09464 0.305572,-2.09464 -2.5154045,0.5197 -3.6533193,4.09709 -4.085333,5.59663 -0.07446,0.2597 -0.364348,0.31887 -0.941324,0.19216 -0.994746,-0.21849 -2.689801,0.49964 -3.270202,1.38545 -0.64300597,0.98135 -0.83195397,3.59657 -0.32940197,4.55928 0.47001697,0.9004 1.78406197,2.21693 2.45720297,2.46188 1.088819,0.39619 2.752065,0.18356 3.484046,-0.44541 z m -2.56188,-0.95989 c -0.346576,-0.0701 -1.022,-0.59521 -1.500934,-1.16687 -0.726072,-0.86667 -0.84836,-1.21714 -0.735854,-2.10885 0.177502,-1.40684 0.622195,-1.89402 1.728786,-1.89402 1.432654,0 2.806809,2.12752 2.64327,4.09241 -0.08139,0.97852 -0.187976,1.134 -0.799546,1.16688 -0.388083,0.0209 -0.989156,-0.0194 -1.335722,-0.0896 z m 10.5710137,-6.93372 c 1.298343,-1.35491 1.33042,-2.31778 0.118501,-3.55755 -0.922688,-0.9439 -2.290144,-1.34496 -3.102833,-0.91001 -0.798118,0.42713 -1.736711,2.06873 -1.726225,3.01914 0.01568,1.41798 1.12514,2.34254 2.82857,2.35711 0.769572,0.006 1.207598,-0.20491 1.881987,-0.90869 z m -2.021951,-1.55947 c -0.290915,-0.29092 -0.160904,-1.13066 0.195337,-1.26167 0.570523,-0.2098 1.058386,0.078 1.058386,0.62442 0,0.48878 -0.929655,0.96132 -1.253723,0.63725 z m 9.16187,-1.83707 c -1.552233,-0.7854 -1.885336,-2.93444 -0.59702,-3.8518 2.600965,-1.85205 5.411337,1.13535 3.219895,3.42273 -0.825255,0.86137 -1.538024,0.97797 -2.622875,0.42907 z m 1.807904,-1.30762 c 0.269378,-0.29766 0.447818,-0.83744 0.396541,-1.1995 -0.07734,-0.54644 -0.261111,-0.65831 -1.081064,-0.65831 -0.917003,0 -0.994383,0.0687 -1.079315,0.95822 -0.134652,1.41016 0.848168,1.9114 1.763838,0.89959 z m -7.523298,-4.4794 c -1.068476,-0.70813 -1.338249,-1.22237 -1.201805,-2.29086 0.182846,-1.43191 1.552862,-2.28815 3.030905,-1.89429 1.097214,0.29238 1.378891,0.6236 1.537789,1.8083 0.132668,0.98904 0.04918,1.24843 -0.593062,1.84368 -0.950296,0.8807 -1.957362,1.07428 -2.773827,0.53317 z m 2.181788,-1.57217 c 0.661877,-1.01016 0.276152,-1.63933 -0.941932,-1.5364 -0.809681,0.0684 -1.046311,0.22614 -1.186808,0.79104 -0.258295,1.03858 -0.02528,1.41118 0.882474,1.41118 0.539662,0 0.955607,-0.22223 1.246266,-0.66582 z"
       id="fish-12"
       sodipodi:nodetypes="cssssssssccscccsscscssssssssssscssssccssccscssscccsssscsssccccsssccsssssssssscssssssscssssss" />
    <path
       style="fill:#000000;stroke-width:0.282235"
       d="m -1.475879,230.19605 c -1.3668577,-1.20011 -1.6333716,-1.74402 -1.2931113,-2.63898 0.2148399,-0.56507 0.4698759,-0.72406 1.1614422,-0.72406 0.85777153,0 0.87263623,-0.0206 0.4641637,-0.64403 -0.232093,-0.35423 -0.6509116,-1.37027 -0.9307082,-2.25789 -0.2797966,-0.88761 -0.6099327,-1.61385 -0.7336345,-1.61385 -0.1237018,0 -1.1609644,0.92079 -2.3050277,2.04621 -4.1979463,4.12952 -5.7188682,3.89489 -3.4674897,-0.5349 0.4059231,-0.79869 0.738041,-1.5967 0.738041,-1.77335 0,-0.17665 -0.3175146,-0.94777 -0.7055883,-1.7136 -0.5113359,-0.94368 -1.8627512,-5.63117 -1.0855054,-5.92695 0.1015088,0 0.9587949,0.4361 1.9050899,0.96912 1.2107239,0.37596 4.4360847,4.34946 4.7966209,4.22412 0.7933245,-1.51021 1.4595875,-3.67803 2.72703513,-5.05212 0.440442,-0.46568 0.986693,-1.29123 1.21389197,-1.83453 1.156803,-2.76629 4.273683,-4.39011 6.357506,-3.31211 1.026757,0.53116 0.750125,0.81111 -0.884503,0.89511 -1.776024,0.0913 -3.599598,0.808 -3.599598,1.41477 0,0.52931 0.445072,0.53431 2.790905,0.0314 1.835874,-0.39365 4.4326363,-0.22605 6.3817473,0.41188 1.270999,0.41599 3.761244,2.17063 6.000642,4.22809 1.766373,1.62287 1.978886,1.92651 1.841874,2.6317 -0.102852,0.52936 -0.403227,0.88487 -0.894111,1.05821 -0.406574,0.14358 -0.929734,0.38844 -1.162578,0.54413 -0.232844,0.15569 -0.709117,0.40664 -1.058384,0.55765 -0.716711,0.3099 -0.877726,1.41749 -0.206068,1.41749 0.235929,0 1.212862,-0.31852 2.170964,-0.70783 1.069345,-0.43452 1.842983,-0.60686 2.003522,-0.44633 0.29215,0.29216 -2.834094,4.12503 -5.15842,6.32439 -0.790528,0.74802 -2.163863,1.69769 -3.051854,2.11036 -1.433324,0.6661 -1.947131,0.74885 -4.5780003,0.73729 -2.360966,-0.0107 -3.279071,-0.13816 -4.515768,-0.62849 -0.853762,-0.3385 -1.576206,-0.61552 -1.605429,-0.61559 -0.02923,-9e-5 -0.02923,0.34912 0,0.776 0.04919,0.71857 -0.03387,0.78249 -1.11955697,0.86162 -0.982182,0.0716 -1.3392711,-0.0608 -2.19810933,-0.81485 z m 8.4071403,-2.03141 c 0.412218,-0.3542 0.749487,-0.87704 0.749487,-1.16185 0,-0.4081 0.134586,-0.47548 0.63503,-0.31796 1.7793897,0.7035 3.3783947,0.97291 5.0985607,0.58779 0.61932,-0.13823 0.774874,-0.31513 0.705589,-0.80238 -0.08285,-0.58267 -0.213274,-0.61913 -1.923413,-0.53779 -1.594142,0.0759 -1.984553,-0.011 -2.9794357,-0.66268 -1.172564,-0.76808 -2.019432,-2.23242 -2.303521,-3.98305 -0.194976,-1.20149 0.849819,-3.28374 2.397142,-4.77743 1.2574367,-1.21385 1.3859277,-2.09464 0.30557,-2.09464 -2.5153971,0.5197 -3.6533176,4.0971 -4.085333,5.59663 -0.07447,0.2597 -0.364345,0.31888 -0.941317,0.19216 -0.994745,-0.21849 -2.689802,0.49964 -3.270207,1.38545 -0.64300497,0.98135 -0.83194997,3.59657 -0.32940097,4.55929 0.47002197,0.90039 1.78405997,2.21693 2.45720397,2.46187 1.088821,0.39619 2.75207,0.18356 3.484045,-0.44541 z m -2.561884,-0.95989 c -0.346573,-0.0701 -1.02199,-0.59521 -1.500926,-1.16687 -0.726075,-0.86666 -0.848367,-1.21713 -0.735856,-2.10885 0.177504,-1.40684 0.62219,-1.89402 1.728789,-1.89402 1.432649,0 2.806809,2.12753 2.643268,4.09241 -0.08144,0.97852 -0.187979,1.134 -0.799552,1.16688 -0.388074,0.0209 -0.989148,-0.0194 -1.335723,-0.0896 z m 10.5710237,-6.93371 c 1.298341,-1.35492 1.330415,-2.31779 0.118496,-3.55756 -0.922693,-0.9439 -2.290144,-1.34496 -3.102838,-0.91001 -0.798107,0.42713 -1.736703,2.06873 -1.726216,3.01915 0.01565,1.41797 1.125133,2.34253 2.828572,2.3571 0.769569,0.006 1.207594,-0.20491 1.881986,-0.90868 z m -2.021955,-1.55948 c -0.290918,-0.29091 -0.160906,-1.13066 0.195334,-1.26167 0.570529,-0.2098 1.058384,0.078 1.058384,0.62442 0,0.48879 -0.92965,0.96132 -1.253718,0.63725 z m -16.5271174,-9.29513 c -1.8339325,-0.67433 -1.9517823,-3.18934 -0.1928975,-4.11661 1.6822987,-0.8869 3.33205403,-0.15701 3.69689323,1.63559 0.136292,0.66966 0.0075,1.03852 -0.6159827,1.76398 -0.77603223,0.90298 -1.73486973,1.14103 -2.88801303,0.71704 z m 1.9192016,-1.2674 c 0.1862754,-0.18628 0.3386826,-0.76548 0.3386826,-1.2871 0,-0.92061 -0.030476,-0.94585 -1.0397075,-0.86082 -0.864415,0.0728 -1.0745806,0.21902 -1.2465471,0.8671 -0.334581,1.2609 1.0541722,2.17421 1.947572,1.28082 z"
       id="fish-13"
       sodipodi:nodetypes="csssssssscccccsssscssssssssssscssssccssccscsssccssssscsssssccsssscsssssssssssssss" />
    <path
       style="fill:#000000;stroke-width:0.282235"
       d="m 59.751229,230.16335 c -1.366858,-1.20011 -1.633372,-1.74402 -1.293112,-2.63897 0.21484,-0.56507 0.469876,-0.72407 1.161443,-0.72407 0.857771,0 0.872636,-0.0206 0.464163,-0.64403 -0.232093,-0.35422 -0.650911,-1.37027 -0.930708,-2.25788 -0.279796,-0.88762 -0.609933,-1.61385 -0.733634,-1.61385 -0.123702,0 -1.160965,0.92079 -2.305028,2.04621 -4.197946,4.12951 -5.718867,3.89489 -3.46749,-0.53491 0.405923,-0.79868 0.738041,-1.59669 0.738041,-1.77335 0,-0.17665 -0.317514,-0.94777 -0.705588,-1.71359 -0.511336,-0.94368 -1.862748,-5.63117 -1.085503,-5.92695 0.101509,0 0.958794,0.4361 1.905089,0.96911 1.677612,0.94494 3.829194,2.94742 4.197137,3.90625 0.861698,1.04282 2.487181,-3.82429 3.326519,-4.73424 0.440442,-0.46569 0.986694,-1.29123 1.213893,-1.83453 1.156803,-2.7663 4.273683,-4.39012 6.357506,-3.31212 1.026756,0.53117 0.750124,0.81111 -0.884504,0.89512 -1.776024,0.0913 -3.599597,0.80799 -3.599597,1.41476 0,0.52932 0.445071,0.53431 2.790904,0.0314 1.835874,-0.39366 4.432637,-0.22605 6.381748,0.41188 1.271,0.41598 3.761245,2.17063 6.000643,4.22809 1.766373,1.62287 1.978885,1.92651 1.841874,2.63169 -0.102853,0.52936 -0.403228,0.88488 -0.894111,1.05822 -0.406574,0.14358 -0.929735,0.38843 -1.162579,0.54412 -0.232844,0.1557 -0.709117,0.40664 -1.058383,0.55766 -0.716711,0.30989 -0.877727,1.41748 -0.206069,1.41748 0.235929,0 1.212863,-0.31852 2.170964,-0.70783 1.069345,-0.43451 1.842984,-0.60685 2.003522,-0.44632 0.292151,0.29215 -2.834093,4.12502 -5.15842,6.32438 -0.790528,0.74803 -2.163863,1.69769 -3.051854,2.11036 -1.433324,0.6661 -1.94713,0.74886 -4.578001,0.73729 -2.360966,-0.0107 -3.279071,-0.13816 -4.515768,-0.62848 -0.853762,-0.3385 -1.576205,-0.61552 -1.605429,-0.61559 -0.02923,-9e-5 -0.02923,0.34911 0,0.776 0.04919,0.71856 -0.03387,0.78249 -1.119556,0.86162 -0.982183,0.0716 -1.339272,-0.0608 -2.19811,-0.81486 z m 8.40714,-2.0314 c 0.412218,-0.3542 0.749487,-0.87704 0.749487,-1.16186 0,-0.40809 0.134587,-0.47548 0.63503,-0.31795 1.77938,0.70348 3.378399,0.97291 5.098561,0.58779 0.619321,-0.13824 0.774875,-0.31513 0.705589,-0.80239 -0.08285,-0.58267 -0.213274,-0.61913 -1.923413,-0.53778 -1.594142,0.0758 -1.984553,-0.011 -2.979436,-0.66269 -1.172563,-0.76808 -2.019432,-2.23241 -2.303521,-3.98304 -0.194976,-1.2015 0.849819,-3.28374 2.397142,-4.77743 1.257437,-1.21385 1.385928,-2.09464 0.30557,-2.09464 -2.515401,0.51971 -3.653315,4.09709 -4.085333,5.59663 -0.07447,0.2597 -0.364344,0.31888 -0.941316,0.19215 -0.994746,-0.21848 -2.689802,0.49964 -3.270207,1.38546 -0.643005,0.98134 -0.831951,3.59657 -0.329401,4.55928 0.470022,0.9004 1.784059,2.21694 2.457203,2.46188 1.088821,0.39619 2.75207,0.18356 3.484045,-0.44541 z m -2.561883,-0.9599 c -0.346573,-0.0701 -1.021991,-0.5952 -1.500926,-1.16687 -0.726076,-0.86665 -0.848368,-1.21712 -0.735857,-2.10884 0.177504,-1.40684 0.622191,-1.89402 1.72879,-1.89402 1.432648,0 2.806808,2.12752 2.643267,4.0924 -0.08144,0.97852 -0.187979,1.13401 -0.799552,1.16688 -0.388074,0.0209 -0.989148,-0.0194 -1.335722,-0.0896 z m 10.571023,-6.93371 c 1.298341,-1.35491 1.330415,-2.31778 0.118496,-3.55755 -0.922693,-0.94391 -2.290144,-1.34496 -3.102838,-0.91002 -0.798107,0.42714 -1.736703,2.06874 -1.726215,3.01915 0.01565,1.41798 1.125132,2.34253 2.828571,2.3571 0.769569,0.006 1.207595,-0.2049 1.881986,-0.90868 z m -2.021954,-1.55947 c -0.290918,-0.29092 -0.160907,-1.13066 0.195334,-1.26167 0.570528,-0.20981 1.058383,0.078 1.058383,0.62442 0,0.48878 -0.92965,0.96131 -1.253717,0.63725 z m 9.16612,-1.3081 c -1.833933,-0.67432 -1.951783,-3.18933 -0.192898,-4.11661 1.682299,-0.8869 3.332054,-0.15701 3.696894,1.6356 0.136291,0.66965 0.0075,1.03851 -0.615983,1.76398 -0.776033,0.90297 -1.73487,1.14103 -2.888013,0.71703 z m 1.919201,-1.2674 c 0.186276,-0.18628 0.338683,-0.76547 0.338683,-1.2871 0,-0.9206 -0.03048,-0.94584 -1.039708,-0.86082 -0.864415,0.0729 -1.07458,0.21902 -1.246547,0.86711 -0.334581,1.2609 1.054172,2.17421 1.947572,1.28081 z"
       id="fish-23"
       sodipodi:nodetypes="sssssssssccsccsscssssssssssssscssssssssccsssssccssssscsssscccsssscsssssssssssssss" />
    <path
       style="fill:#000000;stroke-width:0.282235"
       d="m 123.72889,158.68286 c -1.36686,-1.2001 -1.63338,-1.74401 -1.29312,-2.63897 0.21484,-0.56507 0.46988,-0.72406 1.16144,-0.72406 0.85777,0 0.87264,-0.0206 0.46416,-0.64403 -0.23208,-0.35423 -0.65091,-1.37028 -0.9307,-2.25789 -0.2798,-0.88762 -0.60994,-1.61385 -0.73363,-1.61385 -0.12371,0 -1.09293,1.5332 -2.23699,2.65861 -4.19795,4.12952 -5.78691,3.28249 -3.53553,-1.1473 0.40592,-0.79869 0.73804,-1.5967 0.73804,-1.77336 0,-0.17664 -0.31752,-0.94776 -0.70559,-1.71359 -0.51133,-0.94368 -1.86275,-5.63116 -1.08552,-5.92695 0.10155,0 0.95878,0.4361 1.90508,0.96912 1.67761,0.94494 3.8292,2.94741 4.19715,3.90625 0.1056,0.27531 0.35954,0.40994 0.59948,0.31787 0.92077,-1.70826 1.42095,-3.63616 2.72703,-5.05212 0.44045,-0.46569 0.98669,-1.29123 1.21389,-1.83453 1.1568,-2.76629 4.29636,-4.00453 6.38018,-2.92653 1.02676,0.53116 1.24913,0.92452 -0.3855,1.00852 -1.76957,0.0913 -3.10283,0.39973 -3.713,1.0065 -0.37533,0.37323 0.0368,0.44358 2.38264,-0.0594 1.83587,-0.39365 4.43263,-0.22604 6.38174,0.41189 1.271,0.41598 3.76125,2.17063 6.00064,4.22809 1.76638,1.62287 2.59129,2.83377 2.45428,3.53896 -0.10283,0.52936 -1.01563,-0.0224 -1.50651,0.15095 -0.40658,0.14358 -0.92974,0.38843 -1.16259,0.54412 -0.23284,0.1557 -0.70911,0.40664 -1.05838,0.55766 -0.71671,0.30989 -0.87773,1.41748 -0.20607,1.41748 0.23594,0 1.28091,0.0671 2.23902,-0.32224 1.06934,-0.43452 1.88833,-0.3347 2.04887,-0.17415 0.29215,0.29215 -2.9475,3.46726 -5.27182,5.66662 -0.79053,0.74803 -2.16387,1.69769 -3.05185,2.11036 -3.00129,1.368 -6.03857,1.48732 -9.09377,0.10881 -0.85376,-0.3385 -1.57621,-0.61552 -1.60543,-0.61559 -0.0292,-9e-5 0.4244,1.00687 0.45363,1.43376 0.0492,0.71856 -0.39678,0.57836 -1.48246,0.65749 -0.98218,0.0716 -1.43,-0.51443 -2.28883,-1.26849 z m 8.40713,-2.0314 c 0.41223,-0.3542 0.74949,-0.87704 0.74949,-1.16185 0,-0.4081 0.13459,-0.47548 0.63503,-0.31796 1.77938,0.70348 3.3784,0.97291 5.09856,0.58779 0.61933,-0.13823 0.77488,-0.31513 0.70559,-0.80238 -0.0829,-0.58267 -0.21328,-0.61914 -1.92342,-0.53779 -1.59413,0.0758 -1.98455,-0.011 -2.97943,-0.66268 -1.17256,-0.76808 -2.01944,-2.23242 -2.30352,-3.98305 -0.19498,-1.2015 0.84982,-3.28374 2.39714,-4.77743 1.25744,-1.21385 1.38594,-2.09464 0.30558,-2.09464 -1.80767,0.91781 -3.45644,4.20783 -4.08534,5.59663 -0.0744,0.2597 -0.36435,0.31888 -0.94132,0.19216 -0.99475,-0.21849 -2.6898,0.49964 -3.2702,1.38545 -0.64301,0.98135 -0.83196,3.59657 -0.32941,4.55928 0.47003,0.9004 1.78407,2.21694 2.45721,2.46188 1.08882,0.39619 2.75207,0.18356 3.48404,-0.44541 z m -4.79866,-4.23561 c 0.1775,-1.40684 0.62219,-1.89402 1.72879,-1.89402 1.43264,0 2.8068,2.12753 2.64326,4.09241 -0.0814,0.97852 -0.14261,1.54227 -0.75418,1.57514 -2.33249,0.21534 -4.1005,-1.72393 -3.61787,-3.77353 z m 12.80781,-3.658 c 1.29833,-1.35491 1.33041,-2.31778 0.11849,-3.55755 -0.92269,-0.9439 -2.29015,-1.34496 -3.10284,-0.91001 -0.7981,0.42713 -1.73671,2.06873 -1.72621,3.01914 0.0157,1.41798 1.12513,2.34254 2.82857,2.35711 0.76956,0.006 1.20759,-0.20491 1.88199,-0.90869 z m -2.02196,-1.55947 c -0.29092,-0.29092 -0.16091,-1.13066 0.19533,-1.26167 0.57053,-0.2098 1.05839,0.078 1.05839,0.62442 0,0.48878 -0.92966,0.96132 -1.25372,0.63725 z m 4.58447,-6.81969 c -1.83393,-0.67433 -1.95178,-3.18934 -0.19291,-4.11661 1.6823,-0.8869 3.33206,-0.15701 3.6969,1.6356 0.1363,0.66965 0.007,1.03851 -0.61599,1.76397 -0.77602,0.90298 -1.73486,1.14104 -2.888,0.71704 z m 1.91919,-1.2674 c 0.18628,-0.18628 0.33868,-0.76548 0.33868,-1.2871 -0.0347,-1.61643 -2.04861,-0.85235 -2.28625,0.006 -0.33457,1.2609 1.05417,2.17421 1.94757,1.28082 z"
       id="fish-31"
       sodipodi:nodetypes="sssssssssccssccsscssssssssssssccsssssssccsssssccssssscssccsssscsssssssssssccss" />
    <path
       style="fill:#000000;stroke-width:0.282235"
       d="m 60.580643,159.24838 c -1.366858,-1.20012 -1.633372,-1.74401 -1.293112,-2.63897 0.21484,-0.56507 0.469876,-0.72406 1.161443,-0.72406 0.857771,0 0.872636,-0.0206 0.464163,-0.64403 -0.232093,-0.35423 -0.650911,-1.37028 -0.930708,-2.25789 -0.279797,-0.88762 -0.609933,-1.61385 -0.733634,-1.61385 -0.123702,0 -1.160965,0.92079 -2.305028,2.04621 -4.197947,4.12952 -5.718868,3.89489 -3.46749,-0.5349 0.405923,-0.7987 0.738041,-1.5967 0.738041,-1.77336 0,-0.17664 -0.317514,-0.94777 -0.705588,-1.71359 -0.511334,-0.94368 -1.86275,-5.63117 -1.085505,-5.92695 0.101509,0 0.958795,0.4361 1.90509,0.96912 1.677612,0.94494 3.829194,2.94741 4.197137,3.90625 0.105647,0.27531 0.359554,0.40994 0.599484,0.31787 0.793358,-1.51022 1.459564,-3.67802 2.727035,-5.05212 0.440442,-0.46569 0.986693,-1.29123 1.213891,-1.83453 1.156803,-2.76629 4.273684,-4.39012 6.357506,-3.31211 1.026757,0.53116 0.750125,0.81111 -0.884503,0.89511 -1.776024,0.0913 -3.599597,0.808 -3.599597,1.41477 0,0.52931 0.445071,0.5343 2.790904,0.0314 1.835874,-0.39364 4.432637,-0.22605 6.381748,0.41189 1.271,0.41599 3.761245,2.17063 6.000642,4.22809 1.766374,1.62286 1.978886,1.9265 1.841875,2.6317 -0.102853,0.52936 -0.403228,0.88487 -0.894112,1.05821 -0.406573,0.14357 -0.929734,0.38843 -1.162578,0.54412 -0.232844,0.15569 -0.709117,0.40664 -1.058384,0.55766 -0.716711,0.30989 -0.877726,1.41749 -0.206068,1.41749 0.235929,0 1.212862,-0.31853 2.170964,-0.70784 1.069345,-0.43452 1.842984,-0.60686 2.003522,-0.44632 0.292151,0.29216 -2.834093,4.12502 -5.15842,6.32438 -0.790528,0.74802 -2.163863,1.69768 -3.051854,2.11035 -1.433324,0.66612 -1.947131,0.74886 -4.578001,0.7373 -2.360966,-0.0107 -3.279071,-0.13815 -4.515768,-0.62848 -0.853762,-0.3385 -1.576205,-0.61552 -1.605429,-0.6156 -0.02923,-8e-5 -0.02923,0.34912 0,0.776 0.0492,0.71856 -0.03387,0.78249 -1.119556,0.86163 -0.982182,0.0716 -1.339271,-0.0608 -2.198109,-0.81485 z m 8.407139,-2.0314 c 0.412218,-0.35421 0.749487,-0.87704 0.749487,-1.16185 0,-0.4081 0.134586,-0.47548 0.63503,-0.31796 1.77938,0.70348 3.378399,0.97291 5.098561,0.58779 0.61932,-0.13823 0.774874,-0.31513 0.705589,-0.80238 -0.08285,-0.58267 -0.213274,-0.61914 -1.923413,-0.53779 -1.594142,0.0759 -1.984553,-0.011 -2.979436,-0.66268 -1.172564,-0.76808 -2.019432,-2.23242 -2.303521,-3.98305 -0.194976,-1.2015 0.849819,-3.28374 2.397142,-4.77743 1.257437,-1.21385 1.385928,-2.09464 0.30557,-2.09464 -2.515402,0.51971 -3.653319,4.0971 -4.085333,5.59663 -0.07447,0.2597 -0.364345,0.31887 -0.941317,0.19216 -0.994745,-0.21849 -2.689802,0.49964 -3.270207,1.38545 -0.643004,0.98135 -0.831949,3.59657 -0.3294,4.55928 0.470021,0.9004 1.784059,2.21693 2.457203,2.46188 1.088821,0.39619 2.75207,0.18356 3.484045,-0.44541 z m -2.561884,-0.95989 c -0.346573,-0.0701 -1.02199,-0.59521 -1.500925,-1.16687 -0.726076,-0.86667 -0.848368,-1.21714 -0.735857,-2.10885 0.177504,-1.40684 0.62219,-1.89402 1.72879,-1.89402 1.432648,0 2.806808,2.12752 2.643267,4.09241 -0.08144,0.97852 -0.187979,1.134 -0.799552,1.16688 -0.388074,0.0209 -0.989148,-0.0194 -1.335723,-0.0896 z m 10.571024,-6.93372 c 1.298341,-1.35491 1.330415,-2.31778 0.118496,-3.55755 -0.922693,-0.9439 -2.290144,-1.34496 -3.102838,-0.91001 -0.798107,0.42713 -1.736703,2.06873 -1.726215,3.01914 0.01565,1.41798 1.125132,2.34254 2.828571,2.35711 0.769569,0.006 1.207595,-0.20491 1.881986,-0.90869 z m -2.021954,-1.55947 c -0.290919,-0.29092 -0.160907,-1.13066 0.195334,-1.26167 0.570528,-0.2098 1.058383,0.078 1.058383,0.62442 0,0.48878 -0.92965,0.96132 -1.253717,0.63725 z M 56.950872,137.03982 c -1.833932,-0.67432 -1.951782,-3.18932 -0.192897,-4.11661 1.682298,-0.8869 3.332054,-0.157 3.696893,1.63561 0.136291,0.66965 0.0075,1.03851 -0.615983,1.76397 -0.776032,0.90298 -1.73487,1.14104 -2.888013,0.71703 z m 1.919202,-1.26739 c 0.186275,-0.18628 0.338682,-0.76547 0.338682,-1.2871 0,-0.9206 -0.03048,-0.94584 -1.039707,-0.86081 -0.864415,0.0729 -1.074581,0.21901 -1.246547,0.86709 -0.334581,1.26091 1.054172,2.17422 1.947572,1.28082 z"
       id="fish-21"
       sodipodi:nodetypes="cssssssssccssccsscssssssssssssscssssccssccsssssccssssscsssscccsssscsssssssssssscss" />
    <path
       style="fill:#000000;stroke-width:0.282235"
       d="m 60.191163,194.23101 c -1.366859,-1.20012 -1.633367,-1.74402 -1.293106,-2.63897 0.214837,-0.56508 0.469878,-0.72407 1.161441,-0.72407 0.857768,0 0.872639,-0.0206 0.464161,-0.64403 -0.232097,-0.35422 -0.650911,-1.37027 -0.930711,-2.25789 -0.279789,-0.88761 -0.609927,-1.61384 -0.733634,-1.61384 -0.123697,0 -1.160961,0.92079 -2.305026,2.0462 -4.197946,4.12952 -5.718871,3.8949 -3.46749,-0.5349 0.405928,-0.79869 0.738039,-1.59669 0.738039,-1.77335 0,-0.17665 -0.317508,-0.94778 -0.705579,-1.7136 -0.511336,-0.94366 -1.862751,-5.63114 -1.085545,-5.92694 0.101552,0 0.958797,0.43609 1.905093,0.96911 1.677614,0.94494 3.829193,2.94741 4.197135,3.90625 0.105605,0.27531 0.359558,0.40994 0.599484,0.31787 0.793357,-1.51021 1.459546,-3.67798 2.72703,-5.05212 0.440447,-0.46568 0.986702,-1.29123 1.213891,-1.83453 1.156812,-2.76629 4.273684,-4.39011 6.357515,-3.31211 1.026757,0.53116 0.750126,0.81111 -0.884511,0.89512 -1.776019,0.0913 -3.599593,0.80799 -3.599593,1.41476 0,0.52932 0.445066,0.53431 2.790904,0.0314 1.835873,-0.39365 4.432635,-0.22605 6.381751,0.41188 1.270993,0.41599 3.761243,2.17063 6.000644,4.22809 1.766366,1.62286 1.978877,1.92651 1.841868,2.6317 -0.102832,0.52936 -0.40323,0.88487 -0.894111,1.05822 -0.406569,0.14358 -0.929729,0.38843 -1.162572,0.54412 -0.232854,0.1557 -0.709122,0.40664 -1.058386,0.55766 -0.716716,0.30989 -0.877727,1.41748 -0.206068,1.41748 0.235925,0 1.212857,-0.31852 2.17096,-0.70784 1.069341,-0.43451 1.842988,-0.60686 2.003518,-0.44631 0.292153,0.29215 -2.834085,4.12502 -5.158418,6.32438 -0.790522,0.74802 -2.163856,1.69768 -3.051855,2.11036 -1.433315,0.6661 -1.947121,0.74885 -4.577996,0.73729 -2.360965,-0.0107 -3.279077,-0.13816 -4.515764,-0.62849 -0.853769,-0.3385 -1.576213,-0.61551 -1.605431,-0.6156 -0.02923,-7e-5 -0.02923,0.34913 0,0.77602 0.04918,0.71856 -0.03392,0.78249 -1.119561,0.86162 -0.98218,0.0716 -1.339263,-0.0608 -2.198109,-0.81486 z m 8.407136,-2.0314 c 0.412222,-0.35422 0.749497,-0.87705 0.749497,-1.16186 0,-0.40809 0.134587,-0.47548 0.635027,-0.31796 1.77938,0.70349 3.378403,0.97291 5.098565,0.5878 0.619314,-0.13824 0.774873,-0.31513 0.705579,-0.80239 -0.08288,-0.58267 -0.213268,-0.61913 -1.923407,-0.53778 -1.594145,0.0758 -1.984552,-0.011 -2.979436,-0.66269 -1.172567,-0.76808 -2.019434,-2.23241 -2.303522,-3.98305 -0.194974,-1.20149 0.849822,-3.28373 2.397137,-4.77743 1.257446,-1.21384 1.385932,-2.09463 0.305572,-2.09463 -2.515394,0.5197 -3.653324,4.0971 -4.085334,5.59662 -0.07446,0.25971 -0.364337,0.31888 -0.941313,0.19216 -0.994746,-0.21848 -2.689801,0.49964 -3.270212,1.38545 -0.642996,0.98135 -0.831943,3.59658 -0.329392,4.55929 0.470017,0.90039 1.784052,2.21692 2.457204,2.46187 1.088819,0.39619 2.752065,0.18356 3.484035,-0.4454 z m -2.56188,-0.9599 c -0.346576,-0.0701 -1.021989,-0.59521 -1.500924,-1.16687 -0.726071,-0.86666 -0.84837,-1.21713 -0.735853,-2.10885 0.177501,-1.40683 0.622184,-1.89402 1.728785,-1.89402 1.432654,0 2.806809,2.12753 2.643271,4.09241 -0.0815,0.97852 -0.187977,1.13401 -0.799558,1.16688 -0.388071,0.0209 -0.989145,-0.0194 -1.335721,-0.0896 z M 76.607443,184.306 c 1.298344,-1.35491 1.33042,-2.31778 0.118502,-3.55756 -0.9227,-0.9439 -2.290145,-1.34495 -3.102845,-0.91001 -0.798106,0.42713 -1.7367,2.06874 -1.726214,3.01915 0.01568,1.41797 1.12513,2.34253 2.82857,2.3571 0.769572,0.006 1.207598,-0.2049 1.881987,-0.90868 z m -2.021951,-1.55948 c -0.290915,-0.29091 -0.160914,-1.13065 0.195337,-1.26167 0.570523,-0.2098 1.058375,0.078 1.058375,0.62443 0,0.48878 -0.929643,0.96131 -1.253712,0.63724 z m 2.52638,-8.17764 c -1.191554,-1.27416 -1.202168,-1.92467 -0.04971,-3.04395 1.785716,-1.73427 3.861205,-1.02041 3.852928,1.32521 -0.0053,1.38487 -0.15973,1.70943 -1.035505,2.1704 -1.021488,0.53767 -1.990429,0.37955 -2.767746,-0.45166 z m 2.62439,-0.84671 c 0.393288,-0.78371 -0.02251,-1.89246 -0.749016,-1.99732 -1.211033,-0.17478 -1.973181,1.29531 -1.115946,2.15255 0.500834,0.50084 1.580842,0.41094 1.864962,-0.15523 z m -6.339444,-3.93712 c -0.953848,-0.47542 -1.385687,-1.13419 -1.628162,-2.48373 -0.166098,-0.92447 0.301262,-1.66823 1.571114,-2.50028 0.948268,-0.62132 2.817935,-0.25641 3.620244,0.70658 1.039527,1.24773 0.603538,3.27352 -0.90209,4.19151 -1.091529,0.6655 -1.473509,0.67783 -2.661106,0.0859 z m 2.714698,-1.47736 c 0.485377,-0.90694 0.354321,-2.22331 -0.253751,-2.54874 -1.392214,-0.74509 -2.812462,-0.0685 -2.831941,1.34924 -0.01685,1.22481 0.485602,1.74541 1.684442,1.74541 0.807665,0 1.188483,-0.14836 1.40125,-0.54591 z"
       id="fish-22"
       sodipodi:nodetypes="cssssssssccsccccscscssssssssssscssssccssccsssssccssssscsssccccsssccssssscscsccsssscssssccsssss" />
    <path
       style="fill:#000000;stroke-width:0.282235"
       d="m 123.82913,193.92733 c -1.36686,-1.20013 -1.63337,-1.74402 -1.29311,-2.63898 0.21484,-0.56507 0.46988,-0.72406 1.16144,-0.72406 0.85777,0 0.87264,-0.0206 0.46416,-0.64403 -0.23209,-0.35423 -0.65091,-1.37028 -0.93071,-2.25789 -0.27979,-0.88762 -0.60993,-1.61385 -0.73363,-1.61385 -0.1237,0 -1.16096,0.92079 -2.30503,2.04621 -4.19794,4.12952 -5.71887,3.89489 -3.46749,-0.5349 0.40593,-0.7987 0.73804,-1.5967 0.73804,-1.77336 0,-0.17664 -0.31751,-0.94777 -0.70558,-1.71359 -0.51134,-0.94366 -1.86275,-5.63115 -1.08554,-5.92695 0.10155,0 0.95879,0.4361 1.90509,0.96912 1.67761,0.94494 3.82919,2.94741 4.19714,3.90625 0.1056,0.27531 0.35955,0.40994 0.59948,0.31787 0.79336,-1.51022 1.45955,-3.67799 2.72703,-5.05212 0.44045,-0.46569 0.9867,-1.29123 1.21389,-1.83453 1.15681,-2.76629 4.27368,-4.39011 6.35751,-3.31211 1.02676,0.53116 0.75013,0.81111 -0.88451,0.89511 -1.77602,0.0913 -3.59959,0.808 -3.59959,1.41477 0,0.52931 0.44507,0.5343 2.79091,0.0314 1.83587,-0.39365 4.43263,-0.22605 6.38175,0.41188 1.27099,0.41599 3.76124,2.17063 6.00064,4.22809 1.76637,1.62286 1.97888,1.9265 1.84187,2.6317 -0.10283,0.52936 -0.40323,0.88487 -0.89411,1.05821 -0.40657,0.14358 -0.92973,0.38844 -1.16258,0.54412 -0.23285,0.1557 -0.70912,0.40665 -1.05838,0.55766 -0.71672,0.30989 -0.87773,1.41749 -0.20607,1.41749 0.23593,0 1.21286,-0.31852 2.17096,-0.70784 1.06934,-0.43451 1.84299,-0.60686 2.00352,-0.44632 0.29215,0.29215 -2.83409,4.12503 -5.15842,6.32438 -0.79052,0.74803 -2.16386,1.69768 -3.05185,2.11036 -1.43332,0.66611 -1.94712,0.74886 -4.578,0.7373 -2.36096,-0.0107 -3.27908,-0.13816 -4.51576,-0.62849 -0.85377,-0.3385 -1.57622,-0.61552 -1.60543,-0.6156 -0.0292,-8e-5 -0.0292,0.34912 0,0.77601 0.0492,0.71856 -0.0339,0.78249 -1.11957,0.86162 -0.98218,0.0716 -1.33926,-0.0608 -2.19811,-0.81485 z m 8.40713,-2.03141 c 0.41223,-0.35421 0.7495,-0.87704 0.7495,-1.16185 0,-0.4081 0.13459,-0.47548 0.63503,-0.31796 1.77938,0.70348 3.3784,0.97291 5.09856,0.58779 0.61932,-0.13823 0.77488,-0.31513 0.70558,-0.80238 -0.0829,-0.58267 -0.21327,-0.61913 -1.92341,-0.53779 -1.59414,0.0759 -1.98455,-0.011 -2.97943,-0.66268 -1.17257,-0.76808 -2.01944,-2.23242 -2.30352,-3.98305 -0.19498,-1.2015 0.84982,-3.28374 2.39713,-4.77743 1.25745,-1.21385 1.38593,-2.09464 0.30557,-2.09464 -2.51539,0.51971 -3.65332,4.0971 -4.08533,5.59663 -0.0745,0.2597 -0.36434,0.31887 -0.94131,0.19216 -0.99475,-0.21849 -2.6898,0.49964 -3.27021,1.38545 -0.643,0.98135 -0.83195,3.59657 -0.3294,4.55929 0.47002,0.90039 1.78406,2.21692 2.45721,2.46187 1.08882,0.39619 2.75206,0.18356 3.48403,-0.44541 z m -2.56188,-0.95989 c -0.34657,-0.0701 -1.02199,-0.59521 -1.50092,-1.16687 -0.72607,-0.86667 -0.84837,-1.21714 -0.73585,-2.10885 0.1775,-1.40684 0.62218,-1.89402 1.72878,-1.89402 1.43265,0 2.80681,2.12753 2.64327,4.09241 -0.0815,0.97852 -0.18798,1.134 -0.79956,1.16688 -0.38807,0.0209 -0.98914,-0.0194 -1.33572,-0.0896 z m 10.57103,-6.93371 c 1.29834,-1.35492 1.33042,-2.31779 0.1185,-3.55756 -0.9227,-0.9439 -2.29015,-1.34496 -3.10285,-0.91001 -0.7981,0.42713 -1.7367,2.06873 -1.72621,3.01915 0.0157,1.41797 1.12513,2.34253 2.82857,2.3571 0.76957,0.006 1.2076,-0.20491 1.88199,-0.90868 z m -2.02195,-1.55948 c -0.29092,-0.29092 -0.16092,-1.13066 0.19533,-1.26167 0.57053,-0.2098 1.05838,0.078 1.05838,0.62442 0,0.48878 -0.92965,0.96132 -1.25371,0.63725 z m -16.97611,-10.83999 c -1.19155,-1.27416 -1.20217,-1.92466 -0.0497,-3.04395 1.78572,-1.73427 3.86121,-1.02041 3.85293,1.32522 -0.005,1.38486 -0.15973,1.70942 -1.0355,2.17039 -1.02149,0.53767 -1.99043,0.37955 -2.76775,-0.45166 z m 2.62439,-0.8467 c 0.39329,-0.78372 -0.0225,-1.89247 -0.74901,-1.99732 -1.21104,-0.17479 -1.97318,1.2953 -1.11595,2.15255 0.50083,0.50083 1.58084,0.41094 1.86496,-0.15523 z m -13.17173,3.53669 c -0.95385,-0.47543 -1.38569,-1.13419 -1.62816,-2.48374 -0.1661,-0.92447 0.30126,-1.66823 1.57111,-2.50027 0.94827,-0.62132 2.81794,-0.25641 3.62025,0.70658 1.03952,1.24773 0.60353,3.27352 -0.90209,4.1915 -1.09153,0.6655 -1.47351,0.67784 -2.66111,0.0859 z m 2.7147,-1.47736 c 0.48537,-0.90695 0.35432,-2.22332 -0.25375,-2.54874 -1.39222,-0.74509 -2.81247,-0.0685 -2.83194,1.34923 -0.0169,1.22482 0.4856,1.74542 1.68444,1.74542 0.80766,0 1.18848,-0.14836 1.40125,-0.54591 z"
       id="fish-32"
       sodipodi:nodetypes="cssssssssccsccccscscssssssssssscssssccssccsssssccssssscsssccccsssccssssscscsccsssscssssccsssss" />
    <path
       style="fill:#000000;stroke-width:0.282235"
       d="m 123.62881,230.20781 c -1.36686,-1.20012 -1.63337,-1.74402 -1.29311,-2.63897 0.21484,-0.56507 0.46988,-0.72407 1.16144,-0.72407 0.85777,0 0.87264,-0.0206 0.46416,-0.64403 -0.23209,-0.35422 -0.65091,-1.37027 -0.93071,-2.25788 -0.27979,-0.88762 -0.60992,-1.61385 -0.73363,-1.61385 -0.1237,0 -1.16096,0.92079 -2.30503,2.04621 -4.19794,4.12952 -5.71887,3.89489 -3.46749,-0.53491 0.40593,-0.79869 0.73804,-1.59669 0.73804,-1.77335 0,-0.17665 -0.31751,-0.94778 -0.70558,-1.71359 -0.51134,-0.94366 -1.86275,-5.63115 -1.08554,-5.92695 0.10155,0 0.9588,0.4361 1.90509,0.96911 1.67762,0.94494 3.82919,2.94742 4.19714,3.90626 0.1056,0.2753 0.35955,0.40993 0.59948,0.31787 0.79336,-1.51022 1.45955,-3.67799 2.72703,-5.05212 0.44045,-0.46569 0.9867,-1.29123 1.21389,-1.83453 1.15681,-2.7663 4.27368,-4.39012 6.35752,-3.31211 1.02675,0.53116 0.75012,0.81111 -0.88451,0.89511 -1.77602,0.0913 -3.5996,0.80799 -3.5996,1.41476 0,0.52932 0.44507,0.53431 2.79091,0.0314 1.83587,-0.39365 4.43263,-0.22605 6.38175,0.41188 1.27099,0.41598 3.76124,2.17063 6.00064,4.22809 1.76637,1.62286 1.97888,1.9265 1.84187,2.6317 -0.10283,0.52935 -0.40323,0.88487 -0.89411,1.05821 -0.40657,0.14358 -0.92973,0.38843 -1.16257,0.54412 -0.23286,0.1557 -0.70913,0.40664 -1.05839,0.55766 -0.71672,0.30989 -0.87773,1.41749 -0.20607,1.41749 0.23593,0 1.21286,-0.31853 2.17096,-0.70785 1.06934,-0.4345 1.84299,-0.60685 2.00352,-0.44631 0.29215,0.29215 -2.83408,4.12503 -5.15842,6.32438 -0.79052,0.74803 -2.16385,1.69768 -3.05185,2.11036 -1.43332,0.6661 -1.94712,0.74886 -4.578,0.7373 -2.36096,-0.0107 -3.27908,-0.13817 -4.51576,-0.62849 -0.85377,-0.3385 -1.57622,-0.61552 -1.60543,-0.6156 -0.0292,-8e-5 -0.0292,0.34912 0,0.77601 0.0492,0.71856 -0.0339,0.78249 -1.11957,0.86162 -0.98217,0.0716 -1.33926,-0.0608 -2.1981,-0.81485 z m 8.40713,-2.0314 c 0.41223,-0.35421 0.7495,-0.87704 0.7495,-1.16186 0,-0.40809 0.13459,-0.47548 0.63503,-0.31795 1.77938,0.70348 3.3784,0.97291 5.09856,0.58779 0.61932,-0.13824 0.77488,-0.31513 0.70558,-0.80238 -0.0829,-0.58268 -0.21327,-0.61914 -1.92341,-0.53779 -1.59414,0.0758 -1.98455,-0.011 -2.97943,-0.66269 -1.17257,-0.76808 -2.01943,-2.23241 -2.30352,-3.98304 -0.19498,-1.2015 0.84982,-3.28374 2.39713,-4.77743 1.25745,-1.21385 1.38594,-2.09464 0.30558,-2.09464 -2.5154,0.51971 -3.65333,4.0971 -4.08534,5.59663 -0.0745,0.2597 -0.36433,0.31887 -0.94131,0.19215 -0.99475,-0.21848 -2.6898,0.49964 -3.27021,1.38546 -0.643,0.98134 -0.83195,3.59657 -0.32939,4.55928 0.47001,0.9004 1.78405,2.21693 2.4572,2.46188 1.08882,0.39619 2.75206,0.18356 3.48403,-0.44541 z m -2.56188,-0.9599 c -0.34657,-0.0701 -1.02199,-0.5952 -1.50092,-1.16687 -0.72607,-0.86666 -0.84837,-1.21713 -0.73585,-2.10884 0.1775,-1.40684 0.62218,-1.89402 1.72878,-1.89402 1.43266,0 2.80681,2.12752 2.64327,4.0924 -0.0815,0.97852 -0.18797,1.13401 -0.79955,1.16689 -0.38808,0.0209 -0.98915,-0.0194 -1.33573,-0.0896 z m 10.57103,-6.93371 c 1.29834,-1.35491 1.33042,-2.31778 0.1185,-3.55755 -0.9227,-0.94391 -2.29014,-1.34496 -3.10284,-0.91002 -0.79811,0.42714 -1.7367,2.06874 -1.72622,3.01915 0.0157,1.41798 1.12513,2.34253 2.82857,2.35711 0.76957,0.006 1.2076,-0.20491 1.88199,-0.90869 z m -2.02195,-1.55947 c -0.29092,-0.29092 -0.16092,-1.13066 0.19533,-1.26167 0.57053,-0.20981 1.05838,0.078 1.05838,0.62442 0,0.48878 -0.92964,0.96132 -1.25371,0.63725 z m -16.74929,-9.88737 c -1.19155,-1.27416 -1.20217,-1.92467 -0.0497,-3.04395 1.78572,-1.73427 3.86121,-1.02041 3.85293,1.32521 -0.005,1.38487 -0.15973,1.70943 -1.03551,2.1704 -1.02148,0.53767 -1.99043,0.37955 -2.76774,-0.45166 z m 2.62439,-0.84671 c 0.39329,-0.78371 -0.0225,-1.89246 -0.74902,-1.99732 -1.21103,-0.17478 -1.97318,1.29531 -1.11594,2.15255 0.50083,0.50084 1.58084,0.41095 1.86496,-0.15523 z m -10.2685,-0.20575 c -0.95385,-0.47543 -1.38569,-1.13419 -1.62817,-2.48374 -0.16609,-0.92447 0.30127,-1.66822 1.57112,-2.50027 0.94827,-0.62132 2.81793,-0.25641 3.62024,0.70658 1.03953,1.24773 0.60354,3.27352 -0.90209,4.1915 -1.09153,0.6655 -1.47351,0.67784 -2.6611,0.0859 z m 2.71469,-1.47736 c 0.48538,-0.90695 0.35432,-2.22332 -0.25375,-2.54874 -1.39221,-0.74509 -2.81246,-0.0685 -2.83194,1.34923 -0.0169,1.22482 0.4856,1.74542 1.68444,1.74542 0.80767,0 1.18849,-0.14836 1.40125,-0.54591 z"
       id="fish-33"
       sodipodi:nodetypes="cssssssssccsccccscscssssssssssscssssccssccsssssccssssscsssccccsssccssssscscsccsssscssssccsssss" />
    <path
       style="fill:#000000;stroke-width:0.282235"
       d="m 20.013079,74.866776 c -0.213478,-0.214158 1.739588,-2.211662 2.626631,-2.686393 0.854787,-0.457467 0.63833,-0.982374 -0.97265,-2.358679 -3.954526,-4.035764 -4.193333,-7.537425 -1.981312,-12.163297 0.744247,-1.519951 2.334053,-2.961285 3.266327,-2.961285 0.253291,0 0.83672,0.682041 1.327862,1.552295 0.481832,0.853763 0.98723,1.552295 1.123103,1.552295 0.135873,0 0.530556,-0.698532 0.877074,-1.552295 0.346516,-0.853762 0.792631,-1.552295 0.991366,-1.552295 0.518133,0 2.001244,1.772065 2.784233,3.326685 1.998227,4.61602 1.211684,9.034061 -2.709718,12.067257 -0.586235,0.440968 -1.065881,1.008687 -1.065881,1.261598 0,0.252911 0.580793,1.065988 1.290651,1.806837 0.709859,0.74085 1.207515,1.430352 1.105903,1.532229 -0.255921,0.256586 -8.41792,0.421499 -8.663589,0.175048 z m 3.91622,-12.685313 c 0.398601,-0.279191 0.633869,-0.803404 0.707611,-1.576662 0.144849,-1.518876 -0.701941,-2.520853 -2.130415,-2.520853 -1.407577,0 -1.887091,0.255482 -2.293454,1.221935 -0.363338,0.864125 -0.152577,2.109136 0.497872,2.941038 0.380469,0.486606 2.491503,0.443671 3.218386,-0.06545 z"
       id="level-3"
       sodipodi:nodetypes="ssccsssssccsssssssssss" />
    <path
       style="fill:#000000;stroke-width:0.282235"
       d="m 3.9272473,74.866776 c -0.213479,-0.214158 1.739588,-2.211662 2.626631,-2.686392 0.854787,-0.457468 0.63833,-0.982375 -0.972651,-2.35868 -3.954526,-4.035764 -4.193333,-7.537425 -1.981312,-12.163297 0.744247,-1.519951 2.334053,-2.961285 3.266327,-2.961285 0.253291,0 0.83672,0.682041 1.327862,1.552295 0.481833,0.853763 0.987231,1.552295 1.123104,1.552295 0.135873,0 0.530556,-0.698532 0.8770727,-1.552295 0.346517,-0.853762 0.792632,-1.552295 0.991366,-1.552295 0.518133,0 2.001244,1.772065 2.784233,3.326685 1.998228,4.61602 1.211684,9.034061 -2.709717,12.067257 -0.586236,0.440968 -1.065882,1.008688 -1.065882,1.261599 0,0.252911 0.580793,1.065987 1.290652,1.806836 0.709858,0.74085 1.207515,1.430352 1.105902,1.532229 -0.255921,0.256586 -8.4179187,0.421499 -8.6635877,0.175048 z m 3.91622,-12.685313 c 0.3986,-0.279191 0.633869,-0.803404 0.707611,-1.576662 0.144848,-1.518875 -0.701942,-2.520853 -2.130416,-2.520853 -1.407577,0 -1.88709,0.255482 -2.293454,1.221936 -0.363337,0.864124 -0.152577,2.109135 0.497872,2.941037 0.380469,0.486606 2.491504,0.443671 3.218387,-0.06545 z"
       id="level-2"
       sodipodi:nodetypes="ssccsssssccsssssssssss" />
    <path
       style="fill:#000000;stroke-width:0.282235"
       d="m -12.448779,74.86679 c -0.213479,-0.214158 1.739588,-2.211662 2.6266309,-2.686393 0.8547867,-0.457467 0.6383297,-0.982374 -0.9726509,-2.358679 -3.954526,-4.035764 -4.193332,-7.537425 -1.981312,-12.163297 0.744247,-1.519951 2.334053,-2.961285 3.2663274,-2.961285 0.2532908,0 0.8367198,0.682041 1.3278618,1.552295 0.4818327,0.853763 0.9872303,1.552294 1.1231034,1.552294 0.135873,0 0.5305561,-0.698531 0.8770737,-1.552294 0.3465165,-0.853762 0.7926314,-1.552295 0.991366,-1.552295 0.5181331,0 2.0012438,1.772065 2.7842331,3.326685 1.99822723,4.61602 1.2116836,9.034061 -2.7097176,12.067257 -0.5862355,0.440968 -1.0658815,1.008687 -1.0658815,1.261598 0,0.252911 0.5807931,1.065988 1.2906515,1.806837 0.7098584,0.74085 1.2075149,1.430352 1.1059026,1.532229 -0.2559213,0.256586 -8.4179194,0.421499 -8.6635884,0.175048 z m 3.9162199,-12.685313 c 0.3986001,-0.279191 0.6338687,-0.803404 0.7076109,-1.576662 0.1448484,-1.518876 -0.7019413,-2.520853 -2.1304158,-2.520853 -1.407576,0 -1.88709,0.255482 -2.293454,1.221935 -0.363337,0.864125 -0.152577,2.109136 0.497872,2.941038 0.380469,0.486606 2.4915037,0.443671 3.2183869,-0.06545 z"
       id="level-1"
       sodipodi:nodetypes="ssccsssssccsssssssssss" />
    <path
       style="fill:#000000;stroke-width:0.282235"
       d="m 158.02789,227.61748 c -1.01985,-1.03008 -1.23651,-1.12985 -2.05711,-0.94725 -2.05999,0.45838 -4.35833,-0.0321 -5.50001,-1.17381 -1.20215,-1.59043 -1.52045,-3.53539 -0.52138,-5.15674 1.28008,-2.02775 3.94462,-2.61657 5.88231,-1.29987 1.21954,0.8287 1.78116,1.79454 2.2122,3.80437 0.29462,1.37379 0.38116,1.47575 1.83788,2.16548 1.93967,0.91839 2.23699,1.72439 1.08113,2.93084 -0.43647,0.45559 -1.01893,0.82833 -1.29436,0.82833 -0.27542,0 -1.01371,-0.5181 -1.64066,-1.15135 z m -2.346,-2.87988 c 1.01827,-1.10921 0.79134,-3.1753 -0.003,-4.00875 -0.815,-0.81498 -1.19989,-0.99155 -2.16154,-0.99155 -1.26637,0 -2.52695,0.92215 -2.58676,1.89226 -0.11659,1.89122 0.37263,2.87221 1.77091,3.55104 1.08559,0.52702 2.07427,0.3801 2.98107,-0.443 z m -3.35271,-1.73659 c -0.44926,-0.98601 -0.12514,-1.57029 0.87107,-1.57029 0.8987,0 1.42996,0.62223 1.42996,1.67485 0,0.47884 -0.17761,0.58302 -0.99387,0.58302 -0.77931,0 -1.06151,-0.14843 -1.30716,-0.68758 z"
       id="lure-3"
       sodipodi:nodetypes="ssccssssssccssscsssss" />
    <path
       style="fill:#000000;stroke-width:0.282235"
       d="m 158.02747,190.97119 c -1.01985,-1.03009 -1.23651,-1.12986 -2.05711,-0.94726 -2.05999,0.45838 -4.35833,-0.0321 -5.5,-1.1738 -1.20216,-1.59044 -1.52046,-3.5354 -0.52138,-5.15675 1.28007,-2.02775 3.94461,-2.61657 5.8823,-1.29987 1.21955,0.8287 1.78116,1.79454 2.2122,3.80437 0.29463,1.3738 0.38116,1.47575 1.83788,2.16548 1.93967,0.91839 2.23699,1.72439 1.08114,2.93084 -0.43648,0.45559 -1.01894,0.82834 -1.29437,0.82834 -0.27541,0 -1.01371,-0.51811 -1.64066,-1.15135 z m -2.346,-2.87988 c 1.01828,-1.10922 0.79134,-3.17531 -0.003,-4.00876 -0.81499,-0.81498 -1.19989,-0.99154 -2.16154,-0.99154 -1.26636,0 -2.52695,0.92214 -2.58676,1.89226 -0.11659,1.89121 0.37263,2.87221 1.77091,3.55103 1.08559,0.52703 2.07428,0.38011 2.98107,-0.44299 z m -3.35271,-1.7366 c -0.44926,-0.98601 -0.12514,-1.57029 0.87107,-1.57029 0.89871,0 1.42996,0.62224 1.42996,1.67485 0,0.47884 -0.1776,0.58303 -0.99387,0.58303 -0.77931,0 -1.06151,-0.14844 -1.30716,-0.68759 z"
       id="lure-2"
       sodipodi:nodetypes="ssccssssssccssscsssss" />
    <path
       style="fill:#000000;stroke-width:0.282235"
       d="m 190.01228,230.97306 c -0.77615,-0.37806 -1.63343,-0.8671 -1.90508,-1.08673 -0.68574,-0.55446 -0.62586,-1.73297 0.11297,-2.22354 0.57043,-0.37875 0.58002,-0.44441 0.15952,-1.09281 -0.24607,-0.37941 -0.59775,-1.29312 -0.78152,-2.03047 -0.18377,-0.73733 -0.46276,-1.34061 -0.61997,-1.34061 -1.54463,0.98748 -2.45689,3.06107 -4.04414,3.56488 -0.81682,0.25566 -1.03893,0.2412 -1.16047,-0.0755 -0.23532,-0.61324 0.2007,-2.98424 0.70676,-3.84321 0.39344,-0.66783 0.40582,-0.90615 0.0879,-1.69342 -0.9545,-2.36401 -1.37159,-3.56477 -1.69073,-4.8675 -0.19014,-0.77614 -0.41203,-1.63344 -0.49309,-1.90509 -0.2014,-0.67499 0.47607,-0.63757 1.94812,0.1076 1.18154,0.59811 2.41999,1.75782 3.38875,3.17333 0.88955,1.22216 1.67645,0.10916 2.19702,-0.88193 0.22027,-0.42688 0.61642,-1.01556 0.88033,-1.30817 0.66223,-0.73426 1.35469,-2.25447 1.35469,-2.97407 0,-0.62843 1.16568,-2.62154 2.04864,-3.50281 1.06561,-1.06356 4.33487,-1.397 5.87719,-0.59943 0.99078,0.51235 0.84438,0.9758 -0.30824,0.9758 -1.55225,0 -3.69977,0.6204 -4.4577,1.2878 -0.62438,0.5498 -0.67065,0.67161 -0.25791,0.67893 0.27663,0.005 0.97517,-0.20228 1.5523,-0.46042 0.7496,-0.33528 1.85545,-0.4704 3.87167,-0.47304 2.50916,-0.003 2.98573,0.0801 4.29461,0.75152 3.16647,1.62433 5.14217,3.95162 6.73738,7.93638 0.68924,1.72169 0.81746,1.92736 0.40363,2.38465 -0.0277,0.0306 -0.1836,0.0421 -0.18592,0.09 -0.0368,0.75821 -0.63098,3.04768 -0.37338,3.04482 0.72311,-0.009 0.0492,0.95992 -0.90596,1.29031 -0.57025,0.19724 -2.05425,1.13465 -3.29776,2.08311 -3.16163,2.41148 -4.72859,2.91804 -8.52153,2.75485 -2.60667,-0.11216 -3.05914,-0.0623 -3.62977,0.39974 -0.84913,0.68759 -1.28771,0.66337 -2.98837,-0.16502 z m 4.99233,-3.88826 c 0.12871,-0.19688 0.31,-0.64305 0.40286,-0.9915 0.1496,-0.5613 0.2941,-0.6135 1.26756,-0.45783 0.9495,0.15183 1.09846,0.10368 1.0968,-0.35429 -0.001,-0.29149 -0.4334,-0.82377 -0.96074,-1.18284 -1.26925,-0.86422 -2.11865,-2.85002 -1.99238,-4.65796 0.0522,-0.74773 0.25046,-1.54691 0.44053,-1.77593 0.43104,-0.51936 -0.0172,-1.05434 -0.76294,-0.91071 -0.33777,0.0651 -0.64174,0.54773 -0.8831,1.40225 l -0.36802,1.30306 -1.19311,-0.10518 c -1.08757,-0.0959 -1.26796,-0.0135 -2.03979,0.93106 -0.76806,0.93996 -0.84671,1.22672 -0.84671,3.08741 0,1.92803 0.0533,2.10334 0.88764,2.91904 1.57442,1.5393 4.18978,1.95837 4.9514,0.7934 z m -3.29892,-1.16256 c -1.39313,-0.53375 -1.12894,-1.12631 -1.12894,-2.5074 0,-1.38658 0.12508,-2.01447 0.47003,-2.35933 0.57221,-0.57208 1.77503,-0.35107 2.0481,0.37633 0.10261,0.27334 0.43511,0.94152 0.73888,1.48482 0.66619,1.19154 0.71477,2.62044 0.10966,3.22555 -0.5653,0.5653 -0.85525,0.5368 -2.23773,-0.21997 z m 9.73713,-1.67272 c 0,-0.19831 -0.19616,-0.64061 -0.43591,-0.98291 -0.34342,-0.49029 -0.36782,-0.7496 -0.11498,-1.22204 0.46711,-0.8728 -0.1667,-1.4711 -0.73817,-0.69682 -0.49154,0.66597 -0.53177,2.45754 -0.0657,2.92365 0.44849,0.44849 1.35473,0.43385 1.35473,-0.0219 z m 6.95255,-2.2151 c -0.0899,-0.17353 -0.44773,-0.15799 -0.66924,-0.19127 -0.21032,-0.0316 -0.46549,-0.0271 -0.593,0.0875 -0.18671,0.59834 -0.54652,1.2942 -0.61781,1.87471 0.10337,0.28525 0.72324,0.26297 1.61695,0.4425 0.18975,-0.72286 0.24206,-1.48323 0.2631,-2.21338 z m -2.44697,1.0424 c 0.11932,-0.74794 0.17712,-1.5637 -0.41036,-1.57134 -0.53373,-0.007 -1.48665,1.73446 -0.89548,1.81654 0.72904,0.10123 1.16525,0.63604 1.30584,-0.2452 z m -2.01857,-1.08067 c 0.35624,-0.5467 -0.0241,-0.51828 -0.44363,-0.49067 -0.68948,0.0454 -0.88721,0.22348 -0.71837,0.74705 0.30704,0.95212 0.40209,0.9098 1.162,-0.25638 z m -1.39106,-2.64431 c 1.66874,-1.16884 1.73249,-3.77834 0.12675,-5.18819 -0.77932,-0.68425 -1.21405,-0.84299 -2.30866,-0.84299 -1.10658,0 -1.47912,0.13926 -2.07624,0.77615 -1.38713,1.47951 -1.08486,4.2032 0.58121,5.23704 0.96248,0.59726 2.83684,0.60642 3.67694,0.018 z m -2.88345,-1.9858 c -0.25678,-0.25678 -0.23865,-1.21742 0.0235,-1.24655 0.11642,-0.0129 0.50408,-0.0557 0.86144,-0.095 0.67642,-0.0745 1.20398,0.55784 0.982,1.17694 -0.13191,0.36788 -1.53958,0.49201 -1.86695,0.16464 z m 14.50029,3.78024 c -0.77053,-0.38993 -1.31209,-1.43756 -0.92594,-2.46315 0.45197,-1.20045 0.7416,-1.44101 2.06123,-1.41118 1.0858,0.0245 1.44928,0.12657 1.79998,0.62727 1.43518,2.04902 -0.67967,4.3885 -2.93527,3.24706 z m 2.10457,-1.89867 c 0,-0.86708 -0.0946,-0.99872 -0.77377,-1.07691 -0.60041,-0.0691 -0.84681,0.0713 -1.09987,0.62668 -0.42377,0.93008 0.11163,1.64287 1.1439,1.52287 0.62968,-0.0732 0.72974,-0.22028 0.72974,-1.07264 z m -4.47771,-6.5119 c -2.03867,-2.01495 -0.0625,-4.00597 1.4505,-3.97663 1.3595,-0.2204 2.197,0.52932 2.46553,1.75194 0.48017,2.1862 -2.10087,3.65249 -3.91603,2.22469 z m 2.5507,-1.37967 c 0.46073,-0.92753 -0.004,-1.47822 -1.15354,-1.36606 -0.66286,0.0646 -0.89276,0.24029 -0.96297,0.73553 -0.20745,1.46336 1.45659,1.95908 2.11651,0.63053 z m -33.36525,-0.42156 c -0.84752,-0.84751 -0.88618,-1.91195 -0.10908,-3.00329 0.46883,-0.6584 0.7946,-0.81972 1.65536,-0.81972 1.63697,0 2.55895,0.86599 2.55895,2.40349 0,0.95478 -0.14175,1.33286 -0.62726,1.67293 -0.98067,0.68689 -2.66004,0.56453 -3.47797,-0.25341 z m 2.3564,-0.61802 c 0.52966,-0.14187 0.63428,-0.33731 0.56447,-1.05454 -0.078,-0.80168 -0.174,-0.88038 -1.07351,-0.88038 -0.81876,0 -1.00373,0.1122 -1.0807,0.65555 -0.1884,1.32969 0.2087,1.64926 1.58974,1.27937 z"
       id="fish-43"
       sodipodi:nodetypes="cssssccsscsssccsssssscscsssssssssccssssscssscssssssccsssscsssssssssccccssssssssscssssscsssccsssssssssssccscsssssssssssssss" />
    <path
       style="fill:#000000;stroke-width:0.282235"
       d="m 189.88193,160.33976 c -0.77614,-0.37806 -1.63343,-0.8671 -1.90508,-1.08672 -0.68574,-0.55446 -0.62585,-1.73297 0.11298,-2.22355 0.57043,-0.37875 0.58002,-0.4444 0.15952,-1.09281 -0.24607,-0.37941 -0.59775,-1.29312 -0.78152,-2.03047 -0.18378,-0.73732 -0.46277,-1.3406 -0.61997,-1.3406 -1.54464,0.98748 -2.45689,3.06107 -4.04415,3.56487 -0.81681,0.25566 -1.03892,0.24122 -1.16047,-0.0755 -0.23531,-0.61324 0.20071,-2.98424 0.70677,-3.8432 0.39344,-0.66783 0.40582,-0.90615 0.0879,-1.69342 -0.9545,-2.36401 -1.37159,-3.56478 -1.69073,-4.8675 -0.19014,-0.77614 -0.41203,-1.63345 -0.49309,-1.9051 -0.20141,-0.67499 0.47607,-0.63757 1.94811,0.1076 1.18155,0.5981 2.42,1.75782 3.38876,3.17333 0.88955,1.22216 1.67645,0.10916 2.19702,-0.88193 0.22027,-0.42688 0.61641,-1.01556 0.88033,-1.30817 0.66223,-0.73426 1.35469,-2.25447 1.35469,-2.97407 0,-0.62843 1.16567,-2.62154 2.04864,-3.50281 1.06561,-1.06356 4.33487,-1.397 5.87719,-0.59943 0.99078,0.51234 0.84438,0.9758 -0.30824,0.9758 -1.55225,0 -3.69978,0.62041 -4.4577,1.28779 -0.62438,0.54981 -0.67066,0.67162 -0.25791,0.67894 0.27663,0.005 0.97517,-0.20228 1.5523,-0.46042 0.7496,-0.33528 1.85544,-0.4704 3.87167,-0.47304 2.50916,-0.003 2.98573,0.0801 4.29461,0.75152 3.16647,1.62433 5.14217,3.95162 6.73738,7.93638 0.68924,1.72169 0.81746,1.92737 0.40363,2.38465 -0.0277,0.0306 -0.1836,0.0421 -0.18592,0.09 -0.0368,0.75821 -0.63099,3.04768 -0.37339,3.04482 0.72312,-0.009 0.0492,0.95992 -0.90595,1.2903 -0.57025,0.19725 -2.05425,1.13466 -3.29776,2.08312 -3.16163,2.41147 -4.72859,2.91804 -8.52153,2.75485 -2.60668,-0.11216 -3.05914,-0.0623 -3.62977,0.39974 -0.84913,0.68759 -1.28771,0.66337 -2.98837,-0.16502 z m 4.99234,-3.88826 c 0.12871,-0.19688 0.30999,-0.64305 0.40286,-0.9915 0.1496,-0.5613 0.2941,-0.6135 1.26756,-0.45783 0.9495,0.15183 1.09846,0.10368 1.0968,-0.35429 -0.001,-0.29149 -0.4334,-0.82377 -0.96074,-1.18284 -1.26925,-0.86422 -2.11865,-2.85002 -1.99238,-4.65796 0.0522,-0.74773 0.25045,-1.54691 0.44053,-1.77593 0.43104,-0.51936 -0.0172,-1.05434 -0.76295,-0.91071 -0.33776,0.0651 -0.64173,0.54774 -0.88309,1.40225 l -0.36803,1.30306 -1.1931,-0.10518 c -1.08757,-0.0959 -1.26796,-0.0135 -2.0398,0.93105 -0.76805,0.93997 -0.8467,1.22673 -0.8467,3.08742 0,1.92803 0.0533,2.10334 0.88763,2.91904 1.57443,1.5393 4.18979,1.95837 4.95141,0.79339 z m -3.29892,-1.16257 c -1.39313,-0.53374 -1.12894,-1.1263 -1.12894,-2.50739 0,-1.38658 0.12508,-2.01447 0.47003,-2.35933 0.57221,-0.57208 1.77502,-0.35107 2.04809,0.37633 0.10262,0.27334 0.43512,0.94152 0.73889,1.48482 0.66619,1.19154 0.71477,2.62044 0.10965,3.22555 -0.56529,0.5653 -0.85525,0.5368 -2.23772,-0.21998 z m 9.73713,-1.67271 c 0,-0.19831 -0.19616,-0.64061 -0.43592,-0.9829 -0.34342,-0.49029 -0.36781,-0.7496 -0.11497,-1.22204 0.46711,-0.8728 -0.1667,-1.4711 -0.73818,-0.69683 -0.49153,0.66598 -0.53177,2.45754 -0.0657,2.92364 0.44849,0.44851 1.35473,0.43387 1.35473,-0.0219 z m 6.95255,-2.2151 c -0.0899,-0.17352 -0.44774,-0.15799 -0.66924,-0.19127 -0.21032,-0.0316 -0.46549,-0.0271 -0.593,0.0875 -0.18672,0.59834 -0.54652,1.2942 -0.61781,1.8747 0.10337,0.28526 0.72324,0.26298 1.61695,0.44251 0.18975,-0.72286 0.24206,-1.48323 0.2631,-2.21338 z m -2.44698,1.04241 c 0.11933,-0.74794 0.17713,-1.5637 -0.41035,-1.57134 -0.53373,-0.007 -1.48665,1.73446 -0.89548,1.81654 0.72904,0.10123 1.16525,0.63604 1.30583,-0.2452 z m -2.01857,-1.08067 c 0.35625,-0.5467 -0.0241,-0.51829 -0.44362,-0.49067 -0.68948,0.0455 -0.88721,0.22347 -0.71837,0.74705 0.30704,0.95212 0.40209,0.9098 1.16199,-0.25638 z m -1.39105,-2.64431 c 1.66874,-1.16884 1.73249,-3.77834 0.12675,-5.18819 -0.77932,-0.68425 -1.21405,-0.84299 -2.30866,-0.84299 -1.10658,0 -1.47912,0.13926 -2.07624,0.77615 -1.38714,1.47951 -1.08486,4.2032 0.58121,5.23704 0.96248,0.59726 2.83684,0.60642 3.67694,0.018 z m -2.88345,-1.9858 c -0.25678,-0.25679 -0.23866,-1.21742 0.0235,-1.24655 0.11642,-0.0129 0.50407,-0.0557 0.86144,-0.095 0.67642,-0.0745 1.20398,0.55784 0.98199,1.17694 -0.13191,0.36787 -1.53957,0.49201 -1.86694,0.16463 z m 11.06863,-7.77384 c -2.03868,-2.01494 -0.0625,-4.00596 1.4505,-3.97662 1.35949,-0.22041 2.197,0.52931 2.46552,1.75193 0.48017,2.1862 -2.10087,3.65249 -3.91602,2.22469 z m 2.5507,-1.37967 c 0.46072,-0.92753 -0.004,-1.47821 -1.15355,-1.36606 -0.66286,0.0646 -0.89276,0.24029 -0.96297,0.73553 -0.20744,1.46336 1.45659,1.95908 2.11652,0.63053 z"
       id="fish-41"
       sodipodi:nodetypes="cssssccsscsssccsssssscscsssssssssccssssscssscssssssccsssscsssssssssccccssssssssscssssscsssccsccscssss" />
    <path
       style="fill:#000000;stroke-width:0.282235"
       d="m 189.92742,195.02153 c -0.77614,-0.37806 -1.63343,-0.8671 -1.90508,-1.08673 -0.68574,-0.55446 -0.62586,-1.73296 0.11297,-2.22355 0.57043,-0.37875 0.58002,-0.44439 0.15952,-1.09281 -0.24607,-0.37941 -0.59774,-1.29311 -0.78152,-2.03046 -0.18377,-0.73732 -0.46276,-1.34061 -0.61996,-1.34061 -1.54464,0.98749 -2.4569,3.06108 -4.04415,3.56488 -0.81682,0.25566 -1.03893,0.24121 -1.16047,-0.0755 -0.23532,-0.61324 0.2007,-2.98424 0.70676,-3.84321 0.39344,-0.66783 0.40582,-0.90614 0.0879,-1.69341 -0.9545,-2.36402 -1.37158,-3.56479 -1.69072,-4.8675 -0.19015,-0.77615 -0.41203,-1.63346 -0.49309,-1.90511 -0.20141,-0.67498 0.47606,-0.63756 1.94811,0.1076 1.18155,0.59811 2.41999,1.75782 3.38875,3.17334 0.88955,1.22215 1.67646,0.10915 2.19703,-0.88193 0.22026,-0.42688 0.61641,-1.01556 0.88032,-1.30817 0.66223,-0.73427 1.35469,-2.25448 1.35469,-2.97407 0,-0.62844 1.16568,-2.62154 2.04864,-3.50281 1.06561,-1.06356 4.33487,-1.39701 5.8772,-0.59943 0.99077,0.51234 0.84438,0.9758 -0.30824,0.9758 -1.55226,0 -3.69978,0.62041 -4.45771,1.28779 -0.62438,0.54981 -0.67065,0.67162 -0.25791,0.67894 0.27664,0.005 0.97518,-0.20229 1.5523,-0.46042 0.7496,-0.33528 1.85545,-0.4704 3.87167,-0.47305 2.50916,-0.003 2.98573,0.0801 4.29461,0.75153 3.16648,1.62433 5.14217,3.95162 6.73739,7.93638 0.68923,1.72169 0.81745,1.92736 0.40362,2.38464 -0.0277,0.0306 -0.18359,0.0421 -0.18592,0.09 -0.0368,0.75821 -0.63098,3.04768 -0.37338,3.04482 0.72312,-0.009 0.0492,0.95992 -0.90595,1.2903 -0.57026,0.19725 -2.05425,1.13466 -3.29777,2.08312 -3.16163,2.41147 -4.72858,2.91803 -8.52153,2.75485 -2.60667,-0.11217 -3.05914,-0.0623 -3.62977,0.39974 -0.84913,0.68758 -1.28771,0.66337 -2.98836,-0.16502 z m 4.99233,-3.88827 c 0.12871,-0.19687 0.31,-0.64305 0.40287,-0.99149 0.14959,-0.56131 0.29409,-0.6135 1.26756,-0.45783 0.94949,0.15182 1.09846,0.10368 1.09679,-0.35429 -0.001,-0.29149 -0.43339,-0.82377 -0.96074,-1.18284 -1.26925,-0.86422 -2.11864,-2.85002 -1.99238,-4.65796 0.0522,-0.74774 0.25046,-1.54691 0.44054,-1.77593 0.43103,-0.51937 -0.0172,-1.05435 -0.76295,-0.91071 -0.33777,0.0651 -0.64174,0.54774 -0.88309,1.40225 l -0.36803,1.30306 -1.1931,-0.10518 c -1.08757,-0.0959 -1.26797,-0.0136 -2.0398,0.93105 -0.76806,0.93997 -0.84671,1.22673 -0.84671,3.08742 0,1.92803 0.0533,2.10333 0.88764,2.91904 1.57442,1.53929 4.18979,1.95836 4.9514,0.79339 z m -3.29892,-1.16256 c -1.39313,-0.53374 -1.12894,-1.1263 -1.12894,-2.50739 0,-1.38658 0.12509,-2.01447 0.47003,-2.35933 0.57221,-0.57208 1.77503,-0.35107 2.0481,0.37632 0.10262,0.27335 0.43511,0.94153 0.73888,1.48483 0.6662,1.19153 0.71478,2.62043 0.10966,3.22555 -0.5653,0.5653 -0.85525,0.53679 -2.23773,-0.21998 z m 9.73713,-1.67272 c 0,-0.1983 -0.19616,-0.6406 -0.43591,-0.98289 -0.34342,-0.4903 -0.36782,-0.7496 -0.11497,-1.22204 0.4671,-0.8728 -0.16671,-1.4711 -0.73818,-0.69683 -0.49153,0.66598 -0.53177,2.45754 -0.0657,2.92364 0.44849,0.4485 1.35473,0.43387 1.35473,-0.0219 z m 6.95255,-2.2151 c -0.0899,-0.17351 -0.44773,-0.15798 -0.66923,-0.19126 -0.21033,-0.0316 -0.4655,-0.0271 -0.593,0.0875 -0.18672,0.59833 -0.54652,1.29419 -0.61781,1.8747 0.10336,0.28525 0.72323,0.26298 1.61695,0.44251 0.18974,-0.72286 0.24206,-1.48323 0.26309,-2.21339 z m -2.44697,1.04242 c 0.11932,-0.74794 0.17713,-1.5637 -0.41036,-1.57134 -0.53373,-0.007 -1.48665,1.73446 -0.89547,1.81653 0.72903,0.10124 1.16525,0.63605 1.30583,-0.24519 z m -2.01857,-1.08067 c 0.35624,-0.5467 -0.0241,-0.5183 -0.44363,-0.49067 -0.68948,0.0454 -0.88721,0.22347 -0.71837,0.74704 0.30705,0.95212 0.40209,0.90981 1.162,-0.25637 z m -1.39105,-2.64432 c 1.66874,-1.16883 1.73248,-3.77833 0.12674,-5.18819 -0.77932,-0.68424 -1.21405,-0.84298 -2.30866,-0.84298 -1.10658,0 -1.47912,0.13926 -2.07623,0.77614 -1.38714,1.47952 -1.08487,4.20321 0.58121,5.23705 0.96247,0.59725 2.83683,0.60642 3.67694,0.018 z m -2.88346,-1.9858 c -0.25678,-0.25679 -0.23865,-1.21741 0.0235,-1.24654 0.11642,-0.0129 0.50408,-0.0557 0.86144,-0.095 0.67643,-0.0745 1.20398,0.55783 0.982,1.17694 -0.13191,0.36786 -1.53957,0.49201 -1.86695,0.16462 z m -14.33462,-8.54501 c -2.03868,-2.01494 -0.0625,-4.00595 1.4505,-3.97662 1.3595,-0.2204 2.197,0.52932 2.46552,1.75193 0.48018,2.18621 -2.10086,3.65249 -3.91602,2.22469 z m 2.5507,-1.37967 c 0.46073,-0.92753 -0.004,-1.47821 -1.15355,-1.36605 -0.66285,0.0646 -0.89275,0.24028 -0.96296,0.73553 -0.20745,1.46335 1.45659,1.95908 2.11651,0.63052 z m -9.27446,2.34123 c -0.95385,-0.47542 -1.38569,-1.13418 -1.62816,-2.48373 -0.1661,-0.92447 0.30126,-1.66823 1.57111,-2.50028 0.94827,-0.62132 2.81794,-0.2564 3.62025,0.70659 1.03952,1.24772 0.60353,3.27352 -0.9021,4.1915 -1.09152,0.6655 -1.4735,0.67783 -2.6611,0.0859 z m 2.7147,-1.47736 c 0.48537,-0.90694 0.35432,-2.22331 -0.25375,-2.54873 -1.39222,-0.7451 -2.81247,-0.0685 -2.83195,1.34923 -0.0169,1.22482 0.48561,1.74542 1.68445,1.74542 0.80766,0 1.18848,-0.14836 1.40125,-0.54592 z"
       id="fish-42"
       sodipodi:nodetypes="cssssccsscsssccsssssscscsssssssssccssssscssscssssssccsssscsssssssssccccssssssssscssssscsssccsccscsssscssssccsssss" />
    <path
       style="fill:#000000;stroke-width:0.282235"
       d="m 228.59657,205.49698 c -0.41253,-1.92354 -0.38474,-2.67369 0.11439,-3.08792 0.54151,-0.44941 0.62388,-0.19778 0.80756,2.46678 0.10984,1.59351 0.0573,2.04621 -0.23764,2.04621 -0.22641,0 -0.50159,-0.57306 -0.68431,-1.42507 z m -8.45304,-0.48001 c 0.13571,-0.73735 0.30585,-1.49938 0.37805,-1.69342 0.13088,-0.35167 1.56019,-0.51243 1.56019,-0.17547 0,0.35722 -1.74178,3.2095 -1.95993,3.2095 -0.12379,0 -0.11403,-0.60328 0.0216,-1.34061 z m 14.7465,-4.1776 c 0.17697,-0.46116 1.18044,-0.55397 1.44048,-0.13322 0.361,0.58412 0.51094,3.11131 0.18458,3.11131 -0.45803,-0.68703 -1.85915,-2.10619 -1.62506,-2.97809 z m -24.75473,-2.14238 c 1.26964,-1.26965 2.06823,-1.32496 2.06823,-0.14325 0,0.57021 -0.20392,0.73229 -1.25393,0.99669 -1.96652,0.49517 -2.06242,0.39467 -0.8143,-0.85344 z m 22.67141,-1.12097 c -0.5433,-0.34262 -1.49584,-0.77582 -2.11676,-0.96268 l -1.12895,-0.33973 0.0955,-3.14976 c 0.0846,-2.79289 0.0259,-3.28489 -0.51854,-4.34235 -1.28417,-2.4943 -3.08722,-3.65831 -4.94463,-3.19212 -1.08553,0.27244 -2.97302,2.12841 -3.56203,3.50251 -0.74912,1.74762 -0.72042,4.94691 0.0558,6.22012 0.31835,0.52219 0.54014,1.22072 0.49286,1.5523 -0.0695,0.48737 -0.24818,0.58561 -0.93269,0.51286 -0.46568,-0.0495 -1.92269,-0.11299 -3.23779,-0.14111 l -2.39109,-0.0511 -0.38911,-1.5523 c -0.69649,-2.77859 -0.70878,-3.50682 -0.08,-4.73937 0.32248,-0.6321 0.71249,-1.22725 0.8667,-1.32255 0.1542,-0.0953 0.72086,-0.92487 1.25923,-1.84346 0.74777,-1.27588 1.05441,-2.22197 1.29889,-4.00757 0.3422,-2.49925 0.60007,-3.04553 1.43766,-3.04553 0.56335,-0.45204 1.14779,-0.46877 1.81408,-0.80566 0.24524,-0.2206 1.88898,-0.6361 5.6306,-1.42329 3.48198,-0.73256 8.32329,-1.11854 8.32826,-0.66396 0.001,0.11642 0.13104,1.33522 0.28836,2.70842 0.26434,2.30733 0.37029,2.59666 1.3964,3.81358 l 1.11036,1.31682 0.17841,3.24231 c 0.14075,2.55815 0.32101,3.55448 0.85421,4.72162 0.84725,1.85452 0.60165,2.54417 -1.26849,3.56203 -1.95363,1.0633 -3.32663,1.19342 -4.53722,0.43 z m -14.23678,-3.48064 c 0.38802,-0.59219 0.39899,-0.80136 0.077,-1.46847 -0.3098,-0.64198 -0.5837,-0.79167 -1.56764,-0.85674 -0.93344,-0.0618 -1.25456,0.0376 -1.4793,0.45753 -0.38487,0.71913 -0.0584,2.21688 0.51661,2.36991 1.23279,0.32811 2.014,0.16818 2.45327,-0.50223 z m -2.4151,-0.67168 c 0,-0.54919 0.50781,-0.89566 1.31276,-0.89566 0.27402,0 0.38858,0.22063 0.32971,0.63504 -0.12261,0.86343 -1.64247,1.10458 -1.64247,0.26062 z m 19.66773,0.74855 c 0.851,-0.79947 0.83372,-1.74326 -0.0425,-2.31733 -0.8778,-0.57516 -0.86315,-0.57669 -1.55123,0.16187 -0.6969,0.74803 -0.73594,1.55955 -0.10837,2.253 0.60431,0.66776 0.90581,0.65048 1.70203,-0.0975 z m -1.32243,-1.07974 c 0,-0.31045 0.16934,-0.56447 0.37631,-0.56447 0.53085,0 0.73899,0.27161 0.56187,0.73318 -0.23036,0.60033 -0.93818,0.47305 -0.93818,-0.16871 z m -0.0924,-5.75839 c -0.11096,-1.13552 -0.13208,-1.15575 -1.1712,-1.12135 -1.20118,0.0398 -1.54828,0.42202 -1.55448,1.71191 -0.004,0.8371 0.0699,0.90651 1.05407,0.98981 1.46781,0.12424 1.80686,-0.19629 1.67161,-1.58037 z m -1.88329,0.37523 c 0,-0.72328 0.93416,-0.64123 1.07584,0.0945 0.0652,0.33868 -0.0867,0.49067 -0.49067,0.49067 -0.40391,0 -0.58517,-0.18126 -0.58517,-0.58516 z m -11.31283,-1.37005 c 0.46459,-0.29407 0.6242,-2.2543 0.22572,-2.77224 -0.30514,-0.3966 -2.46019,-0.48931 -2.46019,-0.10582 0,0.13583 -0.0761,0.62722 -0.169,1.09198 -0.27244,1.36217 1.26647,2.50579 2.40347,1.7861 z m -1.67,-1.43162 c 0,-0.59525 0.44479,-0.72101 1.09454,-0.30946 0.50451,0.31954 0.15769,0.87393 -0.54673,0.87393 -0.35965,0 -0.54781,-0.19387 -0.54781,-0.56447 z m 11.83502,-0.90042 c 0.55634,-0.28716 1.08827,-2.82801 0.66507,-3.61563 -0.11619,-0.44428 -0.38509,-0.56419 -1.26528,-0.56419 -1.55531,0 -2.91408,1.31447 -2.66194,2.57518 0.0945,0.47254 0.43193,1.22442 0.74982,1.67087 0.60988,0.85648 1.05357,0.84479 2.51235,-0.0662 z m -1.76863,-1.26338 c -0.10347,-0.10347 -0.18815,-0.421 -0.18815,-0.70559 0,-0.38 0.21239,-0.51744 0.79967,-0.51744 1.01214,0 1.22933,0.21965 0.87388,0.88382 -0.27722,0.518 -1.11523,0.70937 -1.4854,0.33921 z m -4.93654,0.9643 c 0.24187,-0.19404 0.66295,-0.74594 0.93574,-1.22644 0.47153,-0.83055 0.47179,-0.9106 0.005,-1.62285 -0.27,-0.41207 -0.57155,-0.75892 -0.67011,-0.77081 -0.0986,-0.0118 -0.43324,-0.069 -0.74369,-0.12685 -1.63095,-0.30412 -2.3885,1.68234 -1.25085,3.28003 0.63759,0.89541 1.05037,1.00721 1.72382,0.46692 z m -1.17856,-1.92472 c 0,-0.44363 0.15203,-0.56241 0.63215,-0.49391 0.93808,0.13384 1.02053,1.07801 0.0942,1.07801 -0.54627,0 -0.72629,-0.14477 -0.72629,-0.5841 z m -1.22839,12.67416 c -0.71011,-1.09733 -0.8271,-2.12742 -0.46159,-4.06451 0.30919,-1.63864 0.41598,-1.83611 0.94863,-1.75417 0.36895,0.0567 0.55636,0.25287 0.48638,0.50897 -0.0626,0.22916 -0.15469,1.60945 -0.20461,3.06731 -0.0499,1.45786 0.14757,2.94535 0.0785,3.01445 -0.0691,0.0691 -0.61255,-0.40932 -0.84729,-0.77205 z m 17.61789,-2.67432 c 0.0869,-1.06506 0.46005,-1.30147 2.05419,-1.30147 1.97614,0 2.26905,0.21796 1.00334,0.74657 -1.27287,0.53161 -3.08243,0.86002 -3.05753,0.5549 z m 0.31585,-9.08001 c -1.13646,-0.0818 -1.21082,-0.13762 -1.12894,-0.84671 0.076,-0.65782 0.20061,-0.74821 0.93437,-0.67762 0.98354,0.0946 2.96347,0.89598 2.96347,1.19943 0,0.2805 -1.28759,0.43159 -2.7689,0.3249 z m -22.9968,-2.76996 c -0.22835,-0.22836 0.53318,-2.05839 1.09464,-2.63049 0.60421,-0.61567 3.8058,-5.59743 4.36315,-6.78917 0.76284,-1.63116 1.16512,-1.81445 2.42822,-1.10639 0.59767,0.33505 1.54948,0.97507 2.11512,1.42226 0.56565,0.44719 1.10657,0.81308 1.20205,0.81308 0.0955,0 1.28377,0.71418 2.64063,1.58705 1.35685,0.87288 2.75682,1.76751 3.11102,1.98805 0.35422,0.22054 0.58043,0.5039 0.5027,0.62966 -0.0778,0.12578 -1.32009,0.31665 -2.76079,0.42415 -2.5083,0.18718 -6.02273,0.73156 -8.12305,1.25825 -2.31024,0.57933 -4.23436,1.22397 -4.38609,1.46947 -0.72416,0.19977 -1.52602,0.86881 -2.1876,0.93408 z m -2.97263,-6.27746 c -0.6712,-0.27242 -1.24273,-0.61459 -1.27006,-0.76038 -0.0273,-0.14578 0.8076,-0.30261 1.85541,-0.34851 1.69398,-0.0742 1.90508,-0.0257 1.90508,0.43747 0,0.5789 -0.51704,1.20681 -0.97371,1.18251 -0.16299,-0.009 -0.84551,-0.23866 -1.51672,-0.51109 z m 24.41072,-0.22576 c -0.43308,-0.43309 -0.12676,-0.9792 0.79613,-1.41929 1.15482,-0.5507 1.4537,-0.3893 0.97198,0.52489 -0.51399,0.97542 -1.29301,1.3695 -1.76811,0.8944 z m -6.85935,-1.57582 c -1.18346,-0.79091 -1.38459,-1.06305 -1.46011,-1.97565 -0.0771,-0.93198 -0.01,-1.0641 0.56446,-1.10631 0.77014,-0.0566 2.55891,0.0255 2.65317,0.12185 0.0793,0.081 0.17855,2.35178 0.14185,3.24235 -0.0347,0.84016 -0.2729,0.80475 -1.89937,-0.28224 z m -11.95635,-4.68864 c 0,-0.13388 -0.38102,-0.72287 -0.8467,-1.30886 -0.942,-1.18535 -1.04503,-1.5523 -0.4359,-1.5523 0.73875,0 2.55872,1.4299 2.45529,1.92904 -0.17661,0.8523 -1.17269,1.64404 -1.17269,0.93212 z m 10.07688,-0.21648 c -0.47923,-0.47924 -0.0443,-0.59796 2.36996,-0.6468 2.00151,-0.0405 2.54172,0.0292 2.44684,0.31569 -0.13213,0.39902 -4.45194,0.69596 -4.8168,0.33111 z m 7.13948,-3.44219 c 0,-0.48542 0.27569,-1.05649 0.70448,-1.45933 0.77599,-0.729 1.17937,-0.63169 0.75919,0.18315 -0.14787,0.28677 -0.43215,0.87066 -0.63172,1.29754 -0.46764,1.00028 -0.83195,0.99093 -0.83195,-0.0213 z m -7.53935,-1.60752 c -1.30685,-0.54949 -1.66331,-2.60788 -0.58267,-3.36479 1.04193,-0.7298 2.34921,-0.56529 3.02257,0.38036 0.7422,1.04234 0.74044,1.83461 -0.005,2.5297 -0.80985,0.75449 -1.44094,0.87239 -2.43425,0.45473 z m 1.9077,-1.43948 c 0.4993,-1.31324 -0.68271,-2.02108 -1.75481,-1.05086 -0.51846,0.4692 -0.67865,1.25194 -0.32797,1.60262 0.10347,0.10347 0.55115,0.18816 0.99481,0.18816 0.61072,0 0.87499,-0.17972 1.08797,-0.73992 z m 1.06727,-5.47958 c -1.33734,-0.78036 -2.12594,-3.73098 -1.28303,-4.80063 1.01444,-1.28732 3.59375,-1.86898 4.98533,-1.12423 0.61319,0.32817 1.42656,2.24367 1.42656,3.35956 0,1.94554 -3.33354,3.61287 -5.12886,2.5653 z m 3.07272,-1.27885 c 1.12484,-0.72741 1.25128,-1.33162 0.56382,-2.69435 -0.83194,-1.64914 -2.11588,-1.84309 -3.52298,-0.53218 -0.85296,0.79465 -0.80693,2.00354 0.11815,3.10293 0.80216,0.95332 1.51032,0.98413 2.84101,0.1236 z"
       id="miss"
       sodipodi:nodetypes="ssssssssssscsccsssssscccsssssscsssssccscsscsssssssssssssssssssssssssssscsssssssssssssssssccsssscssssscscscscccssccsssssssssssscssscssssssssssccsssscssssssssssssssssssssscsssscsscccssssssssssssssss" />
    <path
       style="fill:#000000;stroke-width:0.282235"
       d="m 148.69252,216.06675 c -0.14798,-3.16099 0.13132,-20.02207 0.33513,-20.23157 0.14095,-0.14488 0.35365,-0.16618 0.47265,-0.0474 0.11902,0.11884 0.25261,4.90486 0.29688,10.63557 0.0797,10.31775 0.0749,10.41949 -0.49391,10.41949 -0.42966,0 -0.58357,-0.19559 -0.61075,-0.77615 z"
       id="rod-3" />
    <path
       style="fill:#000000;stroke-width:0.282235"
       d="m 148.69252,179.18265 c -0.14798,-3.16099 0.13131,-20.02207 0.33513,-20.23157 0.14095,-0.14488 0.35365,-0.16618 0.47265,-0.0474 0.11902,0.11884 0.25261,4.90486 0.29688,10.63557 0.0797,10.31775 0.0749,10.41949 -0.49391,10.41949 -0.42966,0 -0.58357,-0.19559 -0.61075,-0.77615 z"
       id="rod-2" />
    <path
       style="fill:#000000;stroke-width:0.282235"
       d="m 148.69279,144.05893 c -0.14799,-3.161 0.13131,-20.02208 0.33513,-20.23158 0.14095,-0.14488 0.35365,-0.16618 0.47265,-0.0474 0.11902,0.11884 0.25261,4.90486 0.29688,10.63557 0.0797,10.31775 0.0749,10.41949 -0.49391,10.41949 -0.42966,0 -0.58357,-0.19559 -0.61075,-0.77615 z"
       id="rod-1" />
    <path
       style="fill:#000000;stroke-width:0.282235"
       d="m 108.80873,133.4674 c -0.15523,-0.11405 -0.70343,-0.75018 -1.21824,-1.41364 -1.40633,-1.81239 -1.09341,-2.56796 1.42769,-3.44725 l 0.77391,-0.26992 -0.94568,-2.61852 c -0.53816,-1.49011 -0.93247,-3.10501 -0.91503,-3.74745 0.0299,-1.10157 0.0546,-1.12829 1.01847,-1.10241 0.72561,0.0195 1.50669,0.41464 2.94255,1.48865 2.16505,1.61943 2.28846,1.59414 2.57499,-0.52735 0.31968,-2.3671 0.95853,-4.23353 1.44903,-4.23353 1.20351,0 4.44067,3.66413 3.80169,4.30311 -0.21318,0.21317 -0.68278,-0.12362 -1.60949,-1.15436 -0.71967,-0.80044 -1.46764,-1.45534 -1.66215,-1.45534 -0.344,0 -1.28257,3.54323 -1.29176,4.87658 -0.01,1.44989 -0.39204,1.4523 -2.57,0.0162 -1.14541,-0.75524 -2.27307,-1.36819 -2.50591,-1.36211 -0.65763,0.0172 -0.41674,1.46818 0.67254,4.05094 1.06458,2.52425 1.02523,2.67352 -0.77807,2.95096 -0.60136,0.0925 -1.1663,0.24114 -1.25544,0.33029 -0.14002,0.14002 0.11765,1.25713 0.70058,3.03721 0.16722,0.51064 -0.11673,0.64008 -0.60968,0.27791 z m -8.47989,-1.04123 c -0.818019,-0.81803 -0.876939,-1.7363 -0.19885,-3.09888 0.44123,-0.88663 0.61514,-0.99322 1.63061,-0.99943 1.46707,-0.009 2.27944,0.57863 2.5117,1.81673 0.45868,2.44493 -2.22652,3.99851 -3.94346,2.28158 z m 2.39766,-0.84248 c 0.18546,-0.22345 0.29626,-0.76323 0.24625,-1.1995 -0.0771,-0.67298 -0.2193,-0.79321 -0.93767,-0.79321 -0.71836,0 -0.86049,0.12023 -0.93765,0.79321 -0.0965,0.84167 0.34968,1.6058 0.93765,1.6058 0.19484,0 0.50598,-0.18284 0.69142,-0.4063 z m 24.04638,0.2733 c -0.31792,-0.53883 -0.66254,-1.43011 -0.76581,-1.9806 -0.23923,-1.27519 -1.29199,-2.11994 -2.64198,-2.11994 -2.17858,0 -6.23041,-1.49344 -6.23041,-2.29644 0,-0.43251 2.85927,-1.58553 4.80815,-1.93893 0.9768,-0.17713 2.40367,-0.23429 3.18072,-0.12741 l 1.40923,0.19382 -0.17913,-0.94956 c -0.0986,-0.52224 -0.35641,-1.8324 -0.57308,-2.91144 -0.36078,-4.21065 0.19974,-6.7463 2.15016,-9.80238 0.61733,-0.97085 3.05555,-2.57526 4.86801,-3.20328 2.17555,-0.75383 6.61435,-0.7181 8.60819,0.0692 0.85376,0.33716 1.7927,0.65204 2.08651,0.69976 0.29383,0.0477 0.66277,0.2909 0.8199,0.54044 0.22462,0.35672 -0.0248,0.82678 -1.16682,2.19906 -1.48001,1.77843 -1.93562,2.77961 -1.62877,3.57926 0.26957,0.70247 0.57285,0.22489 1.24952,-1.101 0.66515,-1.30331 2.56117,-3.63544 3.00471,-3.63544 0.3457,0 0.98783,1.54669 1.18297,4.68787 0.19343,3.11363 -0.35982,5.40256 -1.87091,7.74051 -1.52125,2.35367 -3.17572,3.58033 -6.85226,5.08039 -0.42688,0.17417 -0.77615,0.50126 -0.77615,0.72686 0,0.2256 -0.40402,0.69788 -0.89782,1.04949 -0.69094,0.492 -1.29858,0.64275 -2.63713,0.65425 -1.99999,0.0172 -2.67422,-0.37663 -2.67422,-1.56198 0,-0.52342 -0.20384,-0.91131 -0.58653,-1.11612 -1.09197,-0.5844 -1.38913,-0.16615 -1.38913,1.9552 0,2.14401 -0.80047,4.54802 -1.51438,4.54802 -0.22303,0 -0.66563,-0.44087 -0.98354,-0.9797 z m 11.18791,-6.89816 c 2.44429,-1.2599 3.76275,-3.74091 2.87222,-5.40487 -0.30771,-0.57495 -0.61303,-0.78218 -0.15237,-1.03733 1.11849,-0.61952 3.59724,-2.85883 3.50315,-3.34415 -0.16821,-0.86761 -0.70297,-0.73466 -1.82457,0.45361 -1.62743,1.72418 -3.36462,2.42002 -5.31243,2.12793 -1.66729,-0.25003 -3.22891,-1.5132 -3.48438,-3.21684 -0.27808,-1.85429 -0.0323,-2.02144 -0.81867,-2.02144 -0.66625,0 -0.69073,0.0581 -0.50482,1.19949 0.10746,0.65973 0.49931,1.81256 0.87078,2.56186 0.62655,1.26378 0.65702,1.52678 0.42119,3.63465 -0.28805,2.57466 -0.0617,3.6097 1.05248,4.81067 0.86259,0.92988 1.89222,1.00195 3.37742,0.23642 z m -2.41025,-1.05837 c -1.22361,-1.06767 -1.71119,-4.79575 -0.14111,-4.72397 0.19403,0.0155 0.97375,0.0472 1.73271,0.0705 1.63653,0.0502 2.64193,0.73294 2.64193,1.79405 0,1.78267 -2.58126,3.52607 -4.23353,2.85937 z m 2.93771,-9.69131 c 0.23209,0 0.79323,-0.37125 1.24698,-0.825 1.19933,-1.19933 1.16247,-2.78063 -0.0923,-3.95944 -1.11673,-1.04914 -1.67689,-1.24814 -2.87871,-1.02268 -1.41484,0.26543 -1.98985,1.08916 -1.98985,2.85053 0,1.19031 0.13832,1.64717 0.6701,2.21323 0.66846,0.71154 1.53388,1.03709 2.2459,0.84485 0.20673,-0.0558 0.56576,-0.10145 0.79785,-0.10145 z m -1.56838,-3.68317 c 0.0302,-0.62702 0.25457,-0.94646 0.61233,-1.01429 0.74734,-0.14171 1.12947,0.35922 0.9177,1.20299 -0.13606,0.54213 -0.42141,0.96693 -0.90037,0.72625 -0.51135,-0.25695 -0.6647,-0.18724 -0.62966,-0.91495 z m -31.96858,8.81413 c -0.25884,-0.1055 -0.75073,-0.54926 -1.09312,-0.9861 -1.18632,-1.51366 -0.0481,-4.4271 1.72966,-4.4271 0.97139,0 2.45376,0.77263 2.95756,1.54151 0.41374,0.63145 0.43701,0.90594 0.15627,1.84297 -0.53745,1.79384 -2.16576,2.67466 -3.75037,2.02872 z m 2.17686,-1.30795 c 0.83991,-0.83992 0.88336,-1.65676 0.12828,-2.41184 -0.62704,-0.62705 -1.96112,-0.74832 -2.48366,-0.22578 -0.54222,0.54221 -0.39632,1.96258 0.27498,2.67715 0.78087,0.83121 1.21797,0.8229 2.0804,-0.0396 z m 15.90278,-1.77681 c -0.16442,-0.42688 -0.36919,-1.68465 -0.45504,-2.79503 -0.13731,-1.77612 -0.0812,-2.12407 0.46675,-2.89356 1.15168,-1.6174 3.97028,-3.24222 3.97028,-2.28874 -1.71481,1.37344 -2.35631,4.08283 -2.55294,5.76449 -0.1564,1.37644 -0.35199,2.61205 -0.43466,2.7458 -0.2851,0.4613 -0.69631,0.24091 -0.99439,-0.53296 z"
       id="fish-catch"
       sodipodi:nodetypes="ssscscssssssscssscsssssscssscsssscsssssccccsssscsssssssssssssccssssssssssssscccscccssssssccssssssssssscsssccsssccss" />
    <path
       style="fill:#000000;stroke-width:0.282235"
       d="m 148.84358,103.17417 c -0.0747,-11.034648 -0.0155,-11.933559 0.76985,-11.684731 0.18046,0.05718 0.30883,4.228447 0.35596,11.567071 0.0725,11.29286 0.0647,11.47764 -0.48761,11.47764 -0.54973,0 -0.56293,-0.23503 -0.6382,-11.35998 z m 19.59918,-1.86266 c -1.40901,-0.40101 -4.18047,-4.152333 -4.753,-6.433459 -0.17073,-0.680237 -0.12682,-0.731367 0.49412,-0.575522 0.86787,0.217823 2.58815,-0.368571 3.44627,-1.174734 0.36498,-0.342879 0.95156,-0.678876 1.30354,-0.746658 0.35196,-0.06778 1.30437,-0.635846 2.11645,-1.262361 1.61338,-1.244713 1.88638,-1.306 3.5311,-0.792687 0.74024,0.231027 1.16133,0.550913 1.26407,0.960255 0.18262,0.727642 -0.10273,2.362372 -0.41242,2.362372 -0.4704,0 -0.51447,0.895493 -0.11095,2.254302 0.57149,1.924399 0.2155,2.600369 -2.26761,4.305922 -1.98101,1.36067 -2.91773,1.58463 -4.61157,1.10257 z m 2.76169,-1.321343 c 0,-0.44301 -0.15496,-0.52952 -1.45704,-0.81346 -0.88511,-0.19302 -2.28802,-1.5882 -2.50699,-2.493155 -0.21832,-0.902345 -0.95612,-0.800998 -1.06497,0.146293 -0.12038,1.047442 0.9439,2.713552 2.03745,3.189615 1.24199,0.54068 2.99155,0.52354 2.99155,-0.0293 z m 2.82963,-1.6923 c 0.6285,-0.66901 0.64878,-0.79314 0.32653,-1.997988 -0.32651,-1.220796 -1.4227,-2.49557 -2.56607,-2.98412 -0.75643,-0.323213 -2.99717,-0.251658 -3.356,0.107169 -0.45984,0.459841 -0.42783,2.339317 0.0558,3.274501 0.66446,1.284928 1.5401,1.868448 3.08634,2.056718 0.80208,0.0977 1.53143,0.19545 1.6208,0.21731 0.0894,0.0219 0.46404,-0.28126 0.83262,-0.67359 z m 0.7851,-6.130887 c -0.0734,-1.01391 -0.18948,-1.214037 -0.75052,-1.293451 -0.93671,-0.132589 -1.92858,0.160706 -2.10586,0.622697 -0.16997,0.442936 1.61881,1.7973 2.43302,1.842153 0.42903,0.02364 0.49634,-0.162617 0.42336,-1.171399 z m 6.87595,9.1822 c -0.93257,-0.17766 -2.74221,-2.082443 -3.14877,-3.314303 -0.54668,-1.656459 -0.15655,-3.286443 1.13882,-4.758049 0.61339,-0.696864 1.11527,-1.53978 1.11527,-1.873147 0,-0.431602 0.2991,-0.731094 1.0388,-1.040159 1.1989,-0.50093 2.3311,-0.353096 3.46176,0.452007 0.60692,0.432173 0.9718,0.504387 1.61559,0.31975 1.12468,-0.322554 2.60088,-1.103568 3.27773,-1.734151 1.42284,-1.32558 5.56461,-2.575533 5.56461,-1.679357 0,0.15523 0.15874,0.282482 0.35279,0.282782 0.19404,3.1e-4 0.76556,0.606201 1.27006,1.346447 0.82033,1.203683 0.91727,1.555652 0.91727,3.330915 0,1.872179 -0.0522,2.03466 -0.91727,2.858442 -1.3348,1.271004 -4.1799,3.1886 -4.73087,3.1886 -0.57022,0 -2.20571,0.76574 -2.88433,1.350453 -0.35493,0.30581 -0.83862,0.37315 -1.76661,0.24595 -1.01466,-0.13907 -1.59334,-0.0308 -2.80944,0.5254 -1.47963,0.6768 -2.09691,0.76482 -3.49541,0.49842 z m 3.49902,-1.409523 c 0.57775,-0.57775 1.25102,-2.11318 1.25102,-2.853014 0,-0.292325 -0.30593,-1.106853 -0.67982,-1.810063 -0.37391,-0.703208 -0.67142,-1.452409 -0.66113,-1.664889 0.0716,-1.479382 -0.1116,-1.94552 -0.93104,-2.36927 -0.93495,-0.48348 -1.96155,-0.329337 -1.96155,0.294525 0,0.21467 0.21013,0.507904 0.46696,0.65163 0.59902,0.335235 0.2833,1.30959 -0.3461,1.068067 -0.24136,-0.09262 -0.80968,0.02335 -1.2629,0.25773 -2.10409,1.088069 -2.26014,4.544714 -0.28274,6.262814 0.93326,0.810883 3.65843,0.911343 4.4073,0.16247 z m 4.33394,-0.81244 c 0.77445,-0.65165 0.86837,-0.89737 0.86837,-2.271898 0,-0.857211 -0.20219,-1.942093 -0.45558,-2.444471 -0.56668,-1.123547 -1.79169,-2.455545 -2.2583,-2.455545 -1.12238,0 -1.60422,2.004612 -0.81407,3.386826 0.22185,0.388074 0.40786,1.429562 0.41336,2.314418 0.007,1.22734 0.12712,1.67705 0.50391,1.89651 0.69905,0.40717 0.77417,0.38881 1.74231,-0.42584 z m 4.77732,-2.375681 c 1.10737,-0.802171 1.17128,-0.92639 1.17128,-2.276122 0,-1.81546 -0.9276,-4.031184 -1.86679,-4.459108 -1.03325,-0.470778 -2.10919,-0.387762 -3.14288,0.242491 -0.90804,0.553645 -1.28637,1.696506 -0.56159,1.696506 0.567,0 1.86958,1.35122 2.30333,2.389349 0.24022,0.574895 0.3367,1.408733 0.24347,2.103853 -0.19244,1.434792 0.20184,1.499262 1.85318,0.303031 z m -33.6848,-6.212472 c -1.55229,-0.120635 -4.81809,-0.285509 -7.25732,-0.366388 -2.43924,-0.08088 -4.56658,-0.228395 -4.72744,-0.327812 -0.16086,-0.09942 -0.29247,-0.477009 -0.29247,-0.839093 0,-0.867835 0.69114,-1.023795 3.83969,-0.866443 1.38083,0.06901 4.79671,0.204835 7.59084,0.301837 2.79413,0.09701 5.18543,0.276864 5.31398,0.399694 0.12856,0.122828 0.19206,0.588063 0.14112,1.033855 -0.10985,0.96127 -0.34728,0.995496 -4.6084,0.66435 z"
       id="big-hands" />
    <path
       style="fill:#000000;stroke-width:0.282235"
       d="m 108.11484,84.76871 c -4.85418,-0.440613 -8.668719,-2.905717 -10.341439,-6.683027 -0.50246,-1.134619 -0.60703,-1.931427 -0.62345,-4.750132 -0.0179,-3.086302 0.0455,-3.524564 0.71556,-4.93912 0.8372,-1.767478 4.127829,-5.133188 5.633519,-5.762054 2.99912,-1.252609 8.58434,-1.542636 10.91934,-0.567014 1.46468,0.611984 4.45058,2.835317 5.33103,3.969559 0.4311,0.555343 1.22833,1.852715 1.77163,2.883049 0.82945,1.572983 1.23671,2.0169 2.54012,2.768762 0.85376,0.492484 1.8698,1.147719 2.25789,1.456079 l 0.70558,0.560653 -0.84671,0.3363 c -3.20179,1.27171 -3.61803,1.614134 -4.80219,3.950672 -0.51136,1.008991 -1.29114,2.155549 -1.73284,2.547907 -4.06336,3.609452 -6.89682,4.648739 -11.52804,4.228366 z m 4.9226,-1.690467 c 0.95777,-0.32265 2.59161,-1.210439 3.63076,-1.972864 1.84477,-1.353514 2.3209,-1.920853 3.79682,-4.52412 0.83678,-1.475945 1.80919,-2.441131 2.60506,-2.585743 0.92784,-0.168588 0.79868,-0.906574 -0.2583,-1.475793 -0.71138,-0.383103 -1.33805,-1.162928 -2.27254,-2.82793 -1.51419,-2.6979 -2.85627,-4.220193 -4.80404,-5.449118 -2.07482,-1.309089 -2.75452,-1.495358 -5.60327,-1.53556 -4.38442,-0.06187 -7.08127,1.19538 -9.85072,4.592325 -1.373719,1.684978 -1.927499,3.517527 -1.863799,6.167745 0.0619,2.575113 0.36945,3.68409 1.52905,5.513076 1.151269,1.815851 1.921859,2.507719 3.656129,3.282667 3.18974,1.425308 6.71883,1.730275 9.43485,0.815315 z m -2.61751,-3.692888 c -0.59699,-0.85232 -0.28515,-1.675153 0.63486,-1.675153 0.97123,0 1.4347,0.474102 1.4347,1.467624 0,0.686526 -0.10904,0.790259 -0.83069,0.790259 -0.51944,0 -0.98366,-0.218354 -1.23887,-0.58273 z m -2.78766,-6.102218 c -1.28092,-2.618495 -1.4917,-3.280796 -1.48341,-4.66117 0.005,-0.884948 0.10155,-1.700893 0.21388,-1.813212 0.11231,-0.112317 0.67824,-0.0868 1.2576,0.0567 1.30939,0.324322 1.62775,0.941535 2.3625,4.580159 0.6914,3.423905 0.63032,4.678098 -0.23381,4.800995 -0.53879,0.07663 -0.82696,-0.32682 -2.11676,-2.963472 z"
       id="hit" />
    <path
       style="fill:#000000;stroke-width:0.282235"
       d="m 133.33886,91.995908 c -1.71531,-0.182854 -4.51636,-1.277073 -4.50956,-1.761643 0.003,-0.242946 0.25742,-0.995363 0.56447,-1.672039 0.8742,-1.926549 0.79162,-2.125027 -0.78235,-1.880667 -0.73734,0.114473 -1.91214,0.226245 -2.61067,0.248383 l -1.27007,0.04025 -0.15146,-1.693411 c -0.17588,-1.966373 0.13249,-4.990439 0.63316,-6.209182 0.60321,-1.468365 2.37383,-3.897691 3.9374,-5.402187 2.06163,-1.983751 3.78988,-2.547837 8.70486,-2.841204 2.68059,-0.160001 3.79095,-0.326386 3.74532,-0.561232 -0.12387,-0.637566 2.19315,-2.299376 3.63802,-2.609244 1.85817,-0.398506 2.60807,-0.377116 3.76786,0.107472 1.10212,0.460496 1.13962,0.431109 1.42138,-1.114114 0.28167,-1.544619 1.73608,-4.3725 2.24884,-4.3725 0.48232,0 0.51281,0.236264 0.5402,4.18548 0.0226,3.266519 0.0298,3.278442 2.79717,4.676256 0.64589,0.326234 1.21257,0.800727 1.2593,1.054431 0.11032,0.598933 -1.28034,1.091016 -3.08331,1.091016 -1.22257,0 -1.40583,0.08513 -1.79241,0.83269 -0.6389,1.235505 -0.55971,1.40282 0.96363,2.035892 1.03117,0.428537 1.46846,0.792353 1.6793,1.397154 0.38518,1.104926 1.26439,1.378973 4.42409,1.378973 1.99675,0 2.66285,0.09178 2.66285,0.366906 0,0.201798 -0.11471,0.487562 -0.25494,0.635031 -0.14416,0.151619 -0.15824,0.881299 -0.0324,1.6793 0.3621,2.295974 -0.58855,4.016302 -2.70331,4.892021 -1.5083,0.624588 -4.75729,-0.614172 -6.92233,-2.639314 -0.74374,-0.695686 -1.51646,-1.265985 -1.71714,-1.267331 -0.2007,-0.0014 -0.83268,-0.445867 -1.40443,-0.987824 -1.22636,-1.162458 -1.6417,-1.237138 -1.6417,-0.295188 0,0.47501 0.24197,0.80563 0.77615,1.060468 1.17897,0.562457 1.11825,1.49452 -0.23118,3.548958 -1.09397,1.665511 -1.21703,1.762428 -2.05383,1.617404 -0.79104,-0.13709 -1.06193,0.01888 -2.43312,1.400848 -1.24836,1.25818 -1.89503,1.664918 -3.38682,2.130214 -1.01412,0.316307 -2.23389,0.69851 -2.7106,0.849339 -0.84608,0.267698 -2.07582,0.291432 -4.07238,0.0786 z m 6.19878,-3.839652 c 0.36816,-1.146116 0.51913,-1.322793 0.99823,-1.168213 1.67121,0.539203 2.37331,0.467775 3.35487,-0.34131 1.1811,-0.973566 2.43096,-2.754535 2.43096,-3.463974 0,-2.618214 -2.47496,-5.102984 -5.08283,-5.102984 -0.7358,0 -1.00056,0.214152 -1.74467,1.411177 -0.48247,0.776147 -0.93517,1.411178 -1.00598,1.411178 -0.0708,0 -0.50609,-0.317515 -0.96729,-0.705589 -0.98243,-0.826654 -1.31163,-0.877043 -1.55675,-0.238275 -0.11412,0.297373 0.0487,0.651989 0.44782,0.975145 0.83184,0.673577 1.96266,2.837109 2.17414,4.159615 0.10176,0.636563 -0.009,1.66245 -0.27601,2.562563 -0.24517,0.825564 -0.37261,1.619394 -0.2832,1.764059 0.37913,0.613431 1.10202,0.0089 1.51071,-1.263392 z m 2.11345,-2.399208 c -0.97601,-0.09551 -1.67082,-1.158966 -1.91773,-2.935245 -0.11741,-0.844674 0.0129,-1.26195 0.68328,-2.187325 0.4556,-0.628939 0.89612,-1.143526 0.97895,-1.143526 0.5456,0 2.43789,1.255801 2.92669,1.942269 0.74041,1.03981 0.73843,1.505605 -0.0113,2.649344 -0.82474,1.258165 -1.64398,1.7739 -2.65986,1.674483 z m 16.39243,-1.538652 c 0.79118,-0.734101 0.99635,-1.144153 1.02746,-2.0535 0.0538,-1.571212 -0.40285,-2.289434 -1.59813,-2.513671 -1.09312,-0.20507 -1.55514,-0.04786 -1.55514,0.529131 0,0.490167 -2.13773,2.415186 -2.68205,2.415186 -0.49992,0 -0.52046,0.136377 -0.13039,0.865261 0.16071,0.300254 0.44647,0.548741 0.63504,0.552193 0.18858,0.0034 0.66038,0.254639 1.04846,0.558194 1.05376,0.824273 2.10949,0.709837 3.25475,-0.352794 z m -25.50565,-0.349539 c 1.33038,-0.880409 1.69257,-1.713933 1.46528,-3.372179 -0.2077,-1.515284 -1.4601,-2.851573 -2.92361,-3.119436 -0.77083,-0.141082 -1.20618,-0.03489 -1.97154,0.480882 -1.25731,0.847301 -1.68673,1.717506 -1.69192,3.428623 -0.009,2.883508 2.64483,4.221283 5.12179,2.58211 z m -2.87505,-2.843984 c -0.37435,-0.98464 -0.0452,-1.178672 0.4926,-1.385048 0.47063,-0.180599 1.49003,0.519202 1.49003,0.942832 0,0.336782 -0.71762,0.997777 -1.11321,0.997777 -0.18566,0 -0.71803,-0.157381 -0.86942,-0.555561 z m 22.75869,-0.146196 c 2.20495,-1.748693 2.41909,-3.760414 0.46217,-4.341718 -0.56719,-0.16848 -0.63503,-0.09042 -0.63503,0.730599 0,0.740722 -0.27335,1.17185 -1.40757,2.220046 -1.32522,1.224729 -1.37945,1.328899 -0.92734,1.781022 0.68781,0.687811 1.26125,0.598644 2.50777,-0.389949 z m -2.17017,-2.118403 c 0.68095,-0.572979 0.86743,-0.953687 0.86404,-1.763972 -0.002,-0.568311 -0.0976,-1.160299 -0.21168,-1.315528 -0.11404,-0.15523 -0.89661,-0.29614 -1.73905,-0.313133 -1.22568,-0.02473 -1.63447,-0.157842 -2.04619,-0.666298 -1.29592,-1.600375 -0.19634,-3.178681 2.6454,-3.797187 0.70013,-0.152382 0.73841,-0.230183 0.47921,-0.973727 -0.41617,-1.193831 -2.06359,-1.771987 -4.10327,-1.440022 -2.78279,0.45291 -3.81851,1.399564 -4.21003,3.847975 -0.16059,1.004317 -0.0819,1.262502 0.62232,2.043151 0.65953,0.731061 1.08844,0.924526 2.35843,1.063796 1.96181,0.215139 2.79709,1.0605 2.81221,2.846122 0.01,1.135311 0.0543,1.199501 0.8352,1.199501 0.47584,0 1.1926,-0.309266 1.69341,-0.730678 z m 0.97314,-4.767465 c 0.38531,-0.291802 0.47844,-0.597919 0.34438,-1.132051 -0.23445,-0.934136 -0.75534,-1.12454 -2.22979,-0.815073 -1.02428,0.214984 -1.19533,0.357657 -1.27599,1.064345 -0.0529,0.463524 0.069,0.918892 0.28223,1.054062 0.58708,0.372177 2.29576,0.270527 2.87917,-0.171283 z M 130.79874,69.80451 c 0,-0.522979 1.20174,-1.507757 2.50404,-2.051967 1.41932,-0.593111 3.87083,-0.50449 5.30945,0.191933 2.08345,1.008578 1.63349,1.384234 -1.67486,1.398292 -2.75088,0.01169 -4.55321,0.231405 -5.64471,0.688133 -0.34559,0.144611 -0.49392,0.07662 -0.49392,-0.226391 z"
       id="big-catch"
       sodipodi:nodetypes="ccssscssssssssssssssssssscsscssssssssccssssssssssscsssssssssssssssscsssssscssssssssssssscssssssssssssssssssssssss" />
    <path
       style="fill:#000000;stroke-width:0.282235"
       d="m 56.380393,116.68056 c -8.166341,-1.29739 -15.323402,-6.64395 -19.931577,-13.352 -2.635322,-4.363803 -4.669281,-9.344774 -4.212479,-14.539678 -0.114804,-3.626591 0.07754,-7.307093 1.647172,-10.629378 1.987275,-6.652897 7.301516,-11.758346 13.012677,-15.384729 2.951514,-1.289261 5.840433,-2.489502 8.983881,-3.092671 6.806541,-0.634251 14.054095,-0.559114 20.183332,2.873806 4.435839,1.722529 7.499491,5.530826 10.605979,8.945904 4.345693,6.58911 6.418583,15.108634 4.169923,22.799307 -0.57467,3.208256 -1.665619,6.402979 -3.53331,9.159719 -3.325775,5.32726 -8.629285,9.35563 -14.401348,11.70081 -5.263542,2.0425 -10.975358,2.3238 -16.52425,1.51891 z m 9.817439,-1.81674 c 6.626182,-0.64336 12.636867,-4.33705 17.105969,-9.14351 5.810806,-6.911663 8.48784,-16.818958 5.468368,-25.527217 -1.765284,-6.6066 -6.719687,-11.858675 -12.293927,-15.55647 -7.851385,-4.599458 -17.796084,-4.673501 -26.117263,-1.28513 -5.181841,2.148344 -9.347139,6.347991 -12.457362,10.965239 -6.110902,10.035032 -4.64555,24.197465 3.891195,32.419788 4.875963,5.16998 11.742025,8.29566 18.856344,8.48668 1.845506,0.0828 3.754558,0.17109 5.546676,-0.35938 z m -3.104589,-9.91621 c -4.800469,-2.10201 -9.310225,-4.82839 -13.591706,-7.825323 -3.450424,-2.625723 -5.811719,-6.349278 -7.234266,-10.393715 -0.158906,-3.809732 1.135178,-7.82831 4.385741,-10.095111 3.817368,-3.481729 10.209955,-2.362066 13.368401,1.46189 1.567065,-0.445208 2.627211,-4.867033 5.470831,-5.499447 2.823608,-1.15111 6.59591,-1.342982 9.172156,0.529152 2.745686,1.944295 5.551519,4.693281 5.149988,8.360952 0.395447,3.44162 -1.032276,6.658808 -2.439723,9.731361 -3.038272,4.663764 -6.767256,8.903711 -10.707904,12.839841 -1.016435,1.15525 -2.132199,2.06493 -3.573518,0.8904 z m 32.255328,4.25718 c -3.17351,-2.10792 -4.19288,-6.02325 -3.6881,-9.618903 0.13192,-4.096209 3.10965,-8.08807 7.05514,-9.178761 3.774339,-0.927379 7.167909,1.792033 8.462599,5.175349 1.55824,5.278335 -0.15969,12.239315 -5.71799,14.373775 -1.987059,0.47842 -4.501119,0.83623 -6.111649,-0.75146 z m 7.389979,-1.52012 c 2.68552,-2.05971 3.85517,-5.356 3.48661,-8.671603 0.32228,-4.088226 -3.48025,-8.684358 -7.807309,-7.104191 -3.31486,1.480367 -5.60702,4.891298 -5.42404,8.573864 -0.23707,3.63444 1.85056,8.69879 6.16616,8.36796 1.281509,-0.0297 2.626989,-0.21833 3.578579,-1.16603 z m 9.13847,-5.53094 c -3.72714,-1.87791 -2.633,-8.7593 1.80324,-8.79363 3.56759,-1.047528 7.1587,2.978882 5.57782,6.399677 -0.9708,3.039183 -4.75738,3.570883 -7.38106,2.393953 z m 4.79741,-1.00659 c 3.50356,-1.780623 1.69174,-7.591501 -2.33099,-6.837095 -4.1211,-0.351817 -4.81799,6.171575 -1.23081,7.140235 1.15873,0.266 2.46783,0.16794 3.5618,-0.30314 z"
       id="level-up" />
  </g>
</svg>
