<?xml version="1.0" encoding="UTF-8" standalone="no"?>
<svg
   id="svg5"
   width="652.418"
   height="821.716"
   version="1.1"
   viewBox="0 0 172.619 217.412"
   sodipodi:docname="artennis_1.svg"
   inkscape:version="1.1 (c68e22c387, 2021-05-23)"
   xmlns:inkscape="http://www.inkscape.org/namespaces/inkscape"
   xmlns:sodipodi="http://sodipodi.sourceforge.net/DTD/sodipodi-0.dtd"
   xmlns="http://www.w3.org/2000/svg"
   xmlns:svg="http://www.w3.org/2000/svg">
  <defs
     id="defs32" />
  <sodipodi:namedview
     id="namedview30"
     pagecolor="#ffffff"
     bordercolor="#666666"
     borderopacity="1.0"
     inkscape:pageshadow="2"
     inkscape:pageopacity="0.0"
     inkscape:pagecheckerboard="0"
     showgrid="false"
     inkscape:zoom="3.6752356"
     inkscape:cx="359.34673"
     inkscape:cy="239.23262"
     inkscape:window-width="3840"
     inkscape:window-height="2126"
     inkscape:window-x="-11"
     inkscape:window-y="-11"
     inkscape:window-maximized="1"
     inkscape:current-layer="svg5" />
  <path
     style="fill:#000000;stroke-width:0.0938178"
     id="score-a2"
     d="m 60.70739,22.517496 c -0.09099,-0.116481 -0.165437,-0.235177 -0.165437,-0.263768 0,-0.02858 -0.136466,-0.218356 -0.303264,-0.421698 -0.166792,-0.203342 -0.427284,-0.5583 -0.578872,-0.788792 -0.373305,-0.567617 -0.963642,-1.434593 -1.239646,-1.820574 -0.466219,-0.651991 -0.644062,-0.959025 -0.644062,-1.111948 0,-0.08656 0.221296,-0.484429 0.491753,-0.884137 0.665169,-0.983013 1.647793,-2.415799 1.765358,-2.574098 0.05271,-0.07088 0.259989,-0.370543 0.46078,-0.665907 l 0.365083,-0.537023 h 3.221913 c 2.709498,0 3.221912,0.01932 3.221912,0.121573 0,0.06687 -0.204884,0.405191 -0.455291,0.751833 -0.566464,0.784157 -1.226023,1.703878 -2.1448,2.99084 -0.456937,0.640046 -0.489328,0.720422 -0.375381,0.931386 0.168762,0.312458 1.185433,1.752896 1.64879,2.336014 0.20653,0.259921 0.527877,0.723906 0.714096,1.031082 0.186212,0.307177 0.428111,0.642637 0.537534,0.745469 0.109421,0.102832 0.168357,0.228494 0.130951,0.279248 -0.04614,0.06259 -1.100706,0.09229 -3.276976,0.09229 h -3.209005 z" />
  <path
     style="fill:#000000;stroke:#000000;stroke-width:0.0767659px;stroke-linecap:butt;stroke-linejoin:miter;stroke-opacity:1"
     id="score-a3"
     d="m 56.588752,22.681258 -2.201529,-4.369868 2.08317,-4.765378 -5.957548,-0.05788 -3.574533,4.582095 3.400936,4.620675 z" />
  <path
     style="fill:#000000;stroke-width:0.0242122"
     id="score-center"
     d="m 85.044883,22.654541 -1.09306,-0.02439 0.02513,-4.590304 0.02513,-4.5903 h 4.126165 4.126158 l 0.02782,4.355926 c 0.01529,2.395764 0.0023,4.483703 -0.02943,4.639871 l -0.05718,0.283938 -3.028787,-0.02517 c -1.66583,-0.01385 -3.520659,-0.03616 -4.121838,-0.04956 z" />
  <path
     style="fill:#000000;stroke-width:0.0284836"
     id="score-a1"
     d="m 74.431866,22.493136 c -0.139686,-0.129949 -0.484433,-0.509273 -0.76613,-0.842943 -0.281677,-0.333669 -0.673978,-0.762672 -0.871757,-0.953339 -0.197803,-0.19067 -0.551499,-0.580672 -0.78601,-0.866675 -0.234499,-0.286 -0.628747,-0.754003 -0.876107,-1.040006 -0.24736,-0.286002 -0.454636,-0.586167 -0.460617,-0.667028 -0.0085,-0.12164 0.522941,-0.805565 1.065272,-1.369654 0.126895,-0.131979 0.47135,-0.52652 1.210647,-1.386677 0.225332,-0.262166 0.55062,-0.613172 0.722848,-0.780006 0.17224,-0.166833 0.450084,-0.488586 0.617422,-0.715004 0.295818,-0.400238 0.321169,-0.411813 0.912827,-0.416806 2.065129,-0.01742 4.737984,0.0092 4.797503,0.04774 0.0906,0.05872 0.03864,9.058083 -0.05292,9.154027 -0.03811,0.03995 -1.236983,0.07264 -2.664176,0.07264 h -2.594885 z" />
  <path
     style="fill:#000000;stroke-width:0.0923657"
     id="score-r2"
     d="m 114.78568,22.517503 c 0.0882,-0.116481 0.16036,-0.235178 0.16036,-0.263769 0,-0.02858 0.13227,-0.218355 0.29394,-0.421698 0.16168,-0.203343 0.41417,-0.5583 0.5611,-0.788792 0.36183,-0.567618 0.93404,-1.434593 1.20156,-1.820576 0.4519,-0.651991 0.62428,-0.959026 0.62428,-1.111947 0,-0.08657 -0.2145,-0.48443 -0.47665,-0.884139 -0.64473,-0.983013 -1.59718,-2.415801 -1.71113,-2.574101 -0.0511,-0.07089 -0.25201,-0.370543 -0.44663,-0.665907 l -0.35387,-0.537023 h -3.12294 c -2.62627,0 -3.12294,0.01932 -3.12294,0.121574 0,0.06687 0.19859,0.40519 0.4413,0.751832 0.54907,0.784158 1.18837,1.70388 2.07892,2.990844 0.4429,0.640046 0.4743,0.720421 0.36386,0.931386 -0.16359,0.312458 -1.14902,1.752897 -1.59815,2.336015 -0.20019,0.25992 -0.51166,0.723907 -0.69216,1.031082 -0.1805,0.307178 -0.41497,0.642639 -0.52102,0.745471 -0.10612,0.102832 -0.16318,0.228494 -0.12694,0.279249 0.0447,0.06259 1.0669,0.09228 3.17632,0.09228 h 3.11043 z" />
  <path
     style="fill:#000000;stroke:#000000;stroke-width:0.0765644px;stroke-linecap:butt;stroke-linejoin:miter;stroke-opacity:1"
     id="score-r3"
     d="m 118.92459,22.681331 2.18994,-4.369959 -2.0722,-4.765476 5.92618,-0.05788 3.55571,4.582189 -3.38303,4.620774 z" />
  <path
     style="fill:#000000;stroke-width:0.0272563"
     id="score-r1"
     d="m 101.43494,22.493026 c 0.1279,-0.129948 0.44359,-0.509267 0.70153,-0.842933 0.25793,-0.333664 0.61716,-0.762661 0.79826,-0.953327 0.18113,-0.190667 0.50501,-0.580664 0.71974,-0.866664 0.21473,-0.285996 0.57574,-0.753993 0.80225,-1.039992 0.22652,-0.286 0.41631,-0.586159 0.42178,-0.66702 0.008,-0.121639 -0.47885,-0.805556 -0.97546,-1.369637 -0.1162,-0.131978 -0.43161,-0.526513 -1.10858,-1.38666 -0.20633,-0.262163 -0.50419,-0.613164 -0.6619,-0.779996 -0.15772,-0.166831 -0.41214,-0.48858 -0.56537,-0.714995 -0.27088,-0.400232 -0.29409,-0.411808 -0.83586,-0.4168 -1.891021,-0.01743 -4.338526,0.0092 -4.393027,0.04774 -0.08297,0.05871 -0.03538,9.057968 0.04846,9.153912 0.03489,0.03995 1.132692,0.07264 2.439556,0.07264 h 2.376111 z" />
  <path
     style="fill:#000000;stroke-width:0.215548"
     d="m 116.03802,211.62106 c -2.49496,-0.33937 -5.07556,0.1419 -7.563,-0.3914 -0.0244,-1.8498 1.86586,-2.65495 2.90127,-3.91645 2.1891,-2.17346 4.62574,-4.07026 7.05663,-5.96115 -0.17137,-2.2725 -2.88752,0.47962 -4.23682,-0.19718 -1.5897,0.11575 -0.0181,-1.33892 0.89589,-0.96726 1.20024,0.31368 2.75973,-2.5266 1.0457,-1.73701 -0.88299,0.52236 -4.33458,1.1082 -3.22099,-0.67394 1.41931,0.14261 3.69402,-2.53755 1.09757,-2.3494 0.61843,-0.91266 -2.14631,-1.23169 -0.22388,-1.38954 1.37582,0.33464 3.15099,-2.29785 0.7935,-1.69552 -1.33473,0.13326 -1.0805,-1.53389 -2.33158,-1.69148 2.04633,-0.32077 3.50888,-2.18924 5.61028,-2.5772 2.2974,-0.56581 4.74839,-0.5222 6.96984,-1.34248 1.46711,-0.76482 3.05854,-1.1476 4.71571,-1.04096 1.28162,0.49549 3.06727,0.94745 3.55494,2.64362 0.98153,1.55291 0.0663,3.19111 -0.56272,4.57667 0.29615,1.70655 -0.49489,3.23915 -1.33898,4.61326 1.46661,0.29344 4.05719,0.3368 3.24007,-1.84802 -0.35728,-1.44775 0.68659,-3.91523 2.38162,-3.67159 1.57367,0.79981 -0.93953,2.90712 1.12419,2.89429 0.0857,2.10886 -1.24435,4.5175 -3.48275,4.88642 -1.35198,0.2333 -2.69121,0.69544 -1.20024,1.90593 0.93912,1.3492 2.36991,2.2226 3.64104,3.21978 2.30411,1.13182 3.4849,-2.57408 5.23786,-3.58799 2.06142,-0.89306 -0.90924,-3.98593 1.28745,-4.26975 -0.49563,-1.71855 -1.06041,-3.55239 -2.0869,-5.07313 -1.57297,-3.07589 -4.90073,-5.12249 -5.55472,-8.68792 -0.21841,-1.62847 -0.3685,-3.45343 0.26969,-4.98844 0.94363,-2.11668 3.14239,-3.54653 5.49698,-3.23536 2.28914,0.40912 4.58974,1.86878 5.24828,4.24131 0.98556,1.76387 0.71175,3.79738 0.25746,5.6614 -0.19902,2.36213 -2.74344,4.0404 -2.32259,6.51961 0.19094,1.75302 -0.22447,3.70916 0.95719,5.1908 0.80022,1.87545 0.0806,4.13928 -1.24533,5.64259 -1.76807,2.38224 -3.55139,4.83921 -5.87842,6.70059 -2.05577,0.61554 -3.80977,-1.44138 -5.3912,-2.49598 -0.95788,-0.83075 -2.4935,-2.60746 -2.61632,-0.28521 -0.74824,1.59336 -2.53317,2.25461 -4.17445,2.52849 -2.43697,0.5839 -4.72854,1.72006 -6.91727,2.9244 -1.1231,-0.0187 -2.37987,0.13851 -3.435,-0.0748 z m 4.58342,-1.32223 c 2.07824,-1.02829 4.19375,-2.0654 6.50596,-2.40664 1.40351,-0.23098 3.06135,-1.36669 2.92277,-2.90037 -1.47467,-0.60273 -2.81309,1.17345 -4.37544,1.12599 -2.36009,-0.42882 -1.18832,-3.13766 -0.0359,-4.31712 1.04917,-0.9571 1.98683,-2.17053 3.38711,-2.59945 1.23761,-1.75343 -2.07231,-1.23513 -3.10997,-1.28981 -1.79736,-0.15735 -2.95334,1.57286 -4.52513,2.22223 -4.46103,2.71095 -8.15524,6.45931 -12.01168,9.93505 0.36936,1.47803 2.97161,0.34438 4.22152,0.73424 1.98376,-0.007 3.99857,0.12165 5.96304,0.0323 0.35258,-0.17881 0.70525,-0.35755 1.05777,-0.53639 z m 18.89479,-3.16244 c 2.11571,-2.0316 3.7271,-4.49813 5.43649,-6.8514 0.91428,-1.37259 0.18185,-3.46494 -1.60789,-2.39238 -0.27545,1.28122 1.18816,2.69709 -0.45599,3.61709 -1.63427,1.47028 -3.05484,3.93054 -5.18203,4.39817 -1.48632,-0.26051 -2.68054,-1.50005 -3.78662,-2.49014 -1.15111,-1.16021 -2.14518,-2.52394 -3.23812,-3.69215 -1.97898,-0.79113 -3.59776,1.75961 -4.8642,2.99311 -1.04311,0.83027 -1.22165,3.08662 0.45238,2.67784 1.49095,-0.62117 3.0947,-1.71123 4.74949,-1.19283 2.16739,0.80669 3.5723,3.04023 5.81611,3.89321 1.13619,1.08549 1.93726,-0.2048 2.68038,-0.96052 z m -5.81331,-7.84796 c 1.74744,-0.22059 3.67541,-2.05802 3.36735,-3.68973 -1.26649,0.62749 -0.6036,-0.94812 -0.66103,-1.59603 0.24993,-0.84991 0.0384,-2.26498 -0.66422,-0.76278 -1.36633,1.31054 0.62776,3.79025 -0.83349,4.70562 -1.01246,0.84926 -4.29496,-0.61108 -3.82801,1.37945 0.80849,0.92938 1.66218,0.25677 2.6194,-0.0365 z m -3.41485,-0.50453 c -0.34414,-0.8415 -0.41216,0.64116 0,0 z m 0.49763,-2.22834 c 1.14918,-1.63347 0.90218,-3.84996 1.58865,-5.70721 0.67739,-1.25022 -0.70869,-3.48478 -1.15067,-1.13641 -1.12531,1.63234 -1.2527,3.56249 -1.66804,5.41415 -1.38004,1.10097 0.17434,3.37013 1.23006,1.42947 z m 12.11194,-7.90243 c 2.02099,-0.19064 3.27224,-2.52639 3.20703,-4.44456 -0.005,-1.66976 0.29435,-3.46326 -0.73342,-4.91828 -0.7126,-1.4876 -1.95071,-2.99698 -3.67174,-3.16933 -1.81563,-0.93792 -3.97548,0.98364 -4.47213,2.73872 -0.60021,1.42856 -0.37603,3.08379 -0.26058,4.60254 0.41372,1.7834 1.32804,3.40171 2.74343,4.58006 0.89058,0.45126 2.28997,1.33239 3.18741,0.61085 z"
     id="amy-3" />
  <path
     style="fill:#000000;stroke-width:0.216164"
     d="m 152.97724,213.31432 c -2.10667,-0.45043 -3.86431,-1.78153 -5.79501,-2.67413 -1.44781,0.0901 -2.95889,-0.16017 -4.31108,0.48464 -1.24985,0.31393 -2.56362,0.84476 -3.83366,0.78467 -1.38428,-0.54707 1.22596,-1.80587 1.62833,-2.569 0.57056,-0.78346 1.02888,-0.9174 1.76099,-0.26483 1.29533,-0.13306 2.75305,0.49669 3.91793,-0.15429 1.92739,-0.76172 2.95765,-2.63256 4.35038,-4.0483 1.32883,-1.50786 3.44571,-1.99727 5.3504,-2.3914 1.73992,0.17227 3.64531,-0.39358 5.25056,0.40914 1.505,0.38596 2.38835,1.7367 2.70717,3.1759 0.0596,1.58074 0.0958,3.32848 -1.07053,4.54481 -1.35341,1.4427 -3.15057,2.4138 -5.08393,2.81663 -1.57081,0.46291 -3.31556,0.40134 -4.87155,-0.11384 z m 5.03907,-1.01478 c 1.76727,-0.25774 3.25031,-1.3359 4.34558,-2.69504 0.87422,-1.29718 0.88345,-3.29844 -0.36884,-4.37388 -1.40265,-1.27196 -3.35599,-2.05069 -5.25858,-1.70848 -1.59809,0.0372 -3.1571,0.35332 -4.51449,1.24041 -1.1894,0.78573 -2.08229,2.11267 -2.04758,3.56504 -0.21033,1.26608 0.60448,2.51004 1.74098,3.02856 1.02402,0.83945 2.28808,1.02278 3.56886,1.12498 0.7878,0.18328 1.5651,0.14831 2.32214,-0.12668 0.0707,-0.0183 0.14129,-0.0366 0.21193,-0.0549 z"
     id="tennis-3" />
  <path
     style="fill:#000000;stroke-width:0.226823"
     d="m 77.548384,212.13728 c -2.669788,0.32398 -4.912081,-0.86078 -7.289722,-1.89506 -1.396795,-0.98255 -4.614406,-1.39174 -4.611902,-3.27641 0.906143,-1.40564 2.40204,-2.14212 3.853692,-2.85241 1.633533,-1.23743 4.09428,-1.42055 5.441883,-2.86914 -0.96791,-0.73918 -1.332977,-1.44445 -0.342726,-2.22253 -1.030535,-1.02955 -1.01447,-1.78331 0.582655,-1.5319 2.100147,-0.26499 -0.02023,-2.26662 -1.160174,-1.91494 -1.307499,-0.64194 -1.992403,-1.9323 -0.02375,-1.97254 1.572178,-1.52234 -2.581273,-1.11452 -3.307386,-2.26701 -2.220432,-1.01425 1.297855,-0.77727 1.982835,-1.45622 1.942997,-1.11724 4.393234,-1.84495 5.872465,0.50653 1.289607,1.45581 4.45639,0.4162 4.199813,-1.78294 1.199764,-1.17758 3.158775,-1.78927 4.721566,-0.73458 1.810717,0.76454 3.854051,1.84551 4.531436,3.80237 0.779068,2.00357 -0.910206,3.13634 -1.515537,4.66634 -0.311563,1.21417 -3.445494,2.03249 -1.086199,3.27771 0.971263,2.13471 3.588619,0.48813 5.223662,-0.16749 2.436708,-0.54881 4.632108,-1.72093 6.756725,-2.9936 1.0381,-1.47783 -0.45045,-3.59655 -0.46279,-5.35381 -0.27433,-1.9414 -1.501909,-3.38157 -3.441117,-3.72166 -1.792372,-0.41846 -2.047097,-2.59953 -3.609639,-3.3517 -1.683728,-1.11175 -3.341052,-2.66833 -5.381291,-2.86313 -4.771289,-2.06605 -11.164984,-4.95793 -12.354212,-9.93369 -0.677822,-2.20336 1.723515,-2.93073 3.403522,-2.34772 2.060026,0.26762 3.824339,1.57354 5.549354,2.65841 2.478407,1.66774 4.136742,4.2293 5.977859,6.524 0.928544,2.24188 2.883149,3.6344 4.859306,4.96634 1.811584,0.65626 4.481358,-0.22143 5.123278,2.29163 1.26309,1.58548 1.54767,3.70749 2.68955,5.38318 1.12143,2.07179 2.1748,4.5875 1.47622,6.9412 -0.83484,1.5826 -2.41529,2.59368 -3.83548,3.60978 -1.781003,0.93106 -3.472996,2.05809 -5.39733,2.69588 -1.439221,0.94653 -2.912717,1.95897 -3.80414,3.4665 -1.151782,1.60187 -2.319544,3.19649 -3.33698,4.8889 -3.761868,-0.0523 -7.524276,-0.076 -11.285449,-0.17029 z m 10.756186,-0.76972 c 0.884737,-1.64151 2.899275,-2.97189 2.811429,-4.91852 -0.792373,-1.72514 0.545174,-4.14329 -0.60996,-5.40827 -1.720017,1.26608 -3.984076,1.84353 -5.812094,1.74114 -0.698483,0.92939 -1.539404,3.72811 -2.655668,3.07627 0.08521,-1.54396 3.458157,-3.68045 1.114232,-4.65995 -1.803551,1.61379 -4.402869,1.01176 -6.306226,2.10063 -0.30053,1.90612 -1.472587,3.93621 -1.61451,6.03828 -0.684561,1.2988 -0.4602,2.66616 1.308939,2.07532 3.894422,0.049 7.790326,0.15785 11.684525,0.0362 z m -13.990103,-1.32864 c -0.262372,-1.79517 -4.139408,-1.55645 -4.331132,-3.15459 1.372465,-0.74664 2.949521,-1.4223 4.450492,-2.06236 2.411813,0.22815 2.056571,-3.99468 -0.207823,-2.18098 -2.018679,0.72421 -3.890821,1.73074 -5.817555,2.87294 -1.354548,0.56335 -2.947729,2.25434 -0.625717,2.65246 1.985493,1.00787 4.085022,2.40744 6.336343,2.44275 l 0.170634,-0.174 z m 0.527746,-2.75117 c 0.338457,-0.92942 0.709276,-2.43794 -0.884197,-1.58004 -1.1059,0.20787 -3.625311,1.82989 -1.226966,2.14158 1.160732,0.42932 1.938728,1.52957 2.111163,-0.56154 z m 18.355826,-2.13921 c 1.61656,-1.85678 4.171634,-2.40345 6.23021,-3.63023 1.805421,-0.83136 3.348421,-2.1195 4.762861,-3.49671 1.18119,-2.26409 -0.0338,-4.9657 -1.14768,-7.02604 -1.3586,-2.25194 -1.73373,-5.13607 -3.909307,-6.79725 -1.02901,-1.1909 -4.522084,1.66539 -1.815424,2.38444 1.823122,0.60255 3.821931,1.47507 4.153251,3.6351 0.49431,1.94732 0.86634,3.93913 1.21474,5.91388 -0.93823,1.58828 -3.216142,1.96145 -4.743758,2.94672 -1.501538,0.39408 -2.914946,1.12549 -4.446103,1.56514 -2.482933,0.6278 -2.032189,3.63312 -1.683428,5.53988 0.665555,0.0893 0.921223,-0.72991 1.384638,-1.03493 z m -5.21778,-3.55881 c 2.437823,-0.53089 0.006,-3.33752 -1.536875,-2.18598 -1.363034,-0.16025 -1.722118,0.88129 -2.050424,1.88061 0.782463,1.04809 2.586939,1.02822 3.587299,0.30537 z m 0.483852,-22.77424 c 1.239131,-1.34981 -0.425548,-3.06669 -1.196892,-4.23887 -1.98815,-2.12223 -4.478431,-3.94586 -7.308248,-4.69644 -2.125505,-0.76508 -3.496186,1.51737 -1.993972,3.14101 1.039426,1.6235 2.501554,3.01085 4.058249,4.15205 0.918532,1.09487 2.661292,1.48733 4.202899,1.9791 0.716032,-0.0258 1.727339,0.31328 2.237964,-0.33685 z"
     id="amy-2"
     sodipodi:nodetypes="ccccccccccccccccccccccccccccccccccccccccccccccccccccccccccccccccccccccccccccccccccc" />
  <path
     style="fill:#000000;stroke-width:0.222139"
     d="m 106.60158,194.96927 c -1.03984,-1.01266 -0.74957,-2.57116 -0.5156,-3.8444 0.27565,-1.61212 0.13174,-3.27882 -0.16445,-4.87303 -0.39633,-1.18171 -0.71368,-2.41187 -0.65195,-3.66758 -0.1885,-2.24672 0.15173,-4.53655 1.09106,-6.59286 0.4709,-1.24029 1.17144,-2.39561 2.12684,-3.31978 0.92948,-1.13855 2.87689,-1.69828 4.03141,-0.57879 1.33496,1.41976 1.48824,3.50201 1.49252,5.35743 -0.062,1.37274 -0.52498,2.70224 -1.08565,3.94538 -0.95178,2.81657 -3.68817,5.65069 -4.35003,7.86079 -0.40336,0.7403 -0.74567,9.25217 -1.50138,6.52242 -0.15759,-0.26987 -0.31513,-0.53974 -0.47277,-0.80958 z m 3.25444,-10.37037 c 2.16149,-2.52929 4.38533,-9.66335 1.281,-11.40388 -0.98412,-0.39168 -1.98134,0.37542 -2.59105,1.09246 -2.31614,3.01684 -2.92603,7.25856 -1.5779,10.59697 0.8897,0.51022 2.21534,0.65009 2.88795,-0.28555 z"
     id="tennis-2"
     sodipodi:nodetypes="ccccccccccccccccc" />
  <path
     style="fill:#000000;stroke-width:0.221413"
     d="m 52.454337,211.82096 c -1.66898,-1.05351 -2.646828,-3.44323 -4.743659,-3.52278 -1.989895,-0.004 -3.670145,-1.73934 -3.91538,-3.40243 -1.563203,1.04218 -3.004333,2.52784 -4.928533,2.85512 -3.652281,-0.61703 -5.505575,-4.14677 -8.104589,-6.36667 -1.728307,-1.73243 -3.9561,-3.25887 -4.502175,-5.79831 -0.598235,-0.77399 -0.517142,-4.14854 0.52453,-2.77572 -0.23087,1.408 1.060094,3.52844 2.256332,1.72274 1.264727,0.9075 -0.06316,3.34756 1.912608,4.12033 1.234476,1.20034 2.972438,1.61024 4.444326,2.44166 2.090445,0.96899 4.362569,0.22768 6.119324,-1.02433 0.754485,-0.79835 1.856696,-0.82899 2.585901,-1.72197 0.576175,-0.38551 2.142375,-1.58178 0.608184,-1.66875 -2.05078,-0.27533 -3.224092,-2.86453 -3.455382,-4.73446 -0.321389,-2.18619 -0.774035,-5.31412 1.936801,-6.13521 6.592508,-3.42685 10.680986,8.89348 13.839289,4.8715 0.619371,-0.58835 1.285393,-3.75788 1.380597,-1.45976 -0.305979,1.05168 1.938344,-0.0611 0.949627,1.48205 -0.882786,1.45701 -0.958862,3.29079 0.55141,1.66724 0.334049,-0.35911 0.618174,-0.33171 0.328738,0.0161 -3.540557,4.4264 1.362148,4.22224 0.587827,4.27153 -1.299937,0.23434 -3.829645,1.13912 -1.621224,2.37627 1.487607,1.26612 -1.420014,0.15597 -1.061978,1.61201 -2.54161,0.51142 -0.127315,3.13152 0.535383,4.37022 1.453669,2.39571 2.891902,4.80126 4.398178,7.16452 -3.353992,0.11337 -6.710437,0.061 -10.065432,0.1108 l -0.280452,-0.23599 z m 9.070468,-0.57991 c -0.741412,-1.78656 -2.086702,-3.28406 -3.014038,-4.99294 -1.052688,-1.72856 -2.036212,-3.50367 -2.850522,-5.35812 -2.057767,0.4562 -3.844776,-1.1084 -4.376207,-2.94659 -0.888714,-1.40275 -3.283386,-3.12448 -4.628486,-1.55777 0.777361,0.28546 3.275832,0.68 2.848531,2.50397 -0.753845,2.15365 -3.472001,2.53524 -4.417543,4.29396 -1.571305,2.46288 1.318645,4.51409 3.594613,4.56836 1.827111,0.44607 2.864769,2.79206 4.472741,3.76583 h 8.37102 z m -20.897377,-5.09341 c 1.083702,-0.86606 3.245708,-1.73417 3.392836,-2.95301 -1.699158,0.61637 -3.337847,1.4307 -5.088506,1.91755 -1.288113,0.42342 -3.575997,-1.46492 -4.1581,-0.47967 1.423908,1.03404 3.40505,3.00957 5.317431,1.89758 l 0.219071,-0.1814 z m 0.384385,-2.48308 c 2.758217,-1.11263 5.65719,-2.42663 7.639076,-4.6966 0.243127,-2.38203 -2.846364,-1.47937 -3.717448,-0.16523 -2.119901,1.39836 -4.43941,2.48659 -6.660251,3.72118 -2.131708,-0.58537 -4.408709,-0.8813 -6.208709,-2.28187 -0.500002,-0.67745 -2.912345,-1.8963 -1.822508,-0.23444 1.334483,1.3364 2.91082,2.13852 4.385875,3.25995 1.874952,0.78496 4.097418,1.77654 6.017472,0.54038 z m -11.591646,-5.32861 c -0.374653,-0.84572 -0.750457,-1.73806 -0.631623,-2.52888 -1.496931,-0.48732 -2.113402,0.19933 -0.942729,1.50997 0.05295,0.42638 1.565965,2.14941 1.574352,1.01891 z m 16.486896,-2.75062 c 0.938226,-1.0699 -2.276644,-2.22818 -0.132798,-3.17722 0.91717,-1.26856 -0.308546,-2.86921 -1.794093,-2.47666 0.02953,-1.51131 -2.614211,-2.82402 -2.268798,-0.59289 0.188171,2.34058 0.512558,5.72068 3.008787,6.53698 0.385845,0.0756 1.015144,0.266 1.186902,-0.29021 z m -21.275627,-4.82499 c -0.379367,-2.21735 -2.862354,-2.25584 -4.390392,-3.4687 -1.763295,-1.13778 -2.972142,-2.76643 -3.566256,-4.7864 -0.384052,-2.30266 -0.317277,-4.95091 1.385358,-6.77128 1.376366,-1.83634 4.172034,-2.39261 6.25559,-1.36407 1.463917,0.67039 2.742604,1.9043 3.570764,3.26563 0.937322,2.00677 1.055909,4.34934 0.499715,6.46779 -0.800265,1.67877 -1.971986,3.46419 -1.7616,5.37965 0.742895,0.68627 -1.852007,2.27326 -1.993179,1.27738 z m 0.709221,-4.14954 c 1.76183,-0.79768 2.33127,-3.04085 2.251982,-4.8067 -0.156355,-3.31324 -2.60061,-6.70419 -5.125973,-7.01073 -2.465888,-0.56619 -4.451863,1.78144 -4.834317,4.00266 0.03539,2.13112 0.162367,4.29756 1.657357,5.97124 1.120735,1.78024 3.338384,2.87094 5.402702,2.25415 0.253964,-0.0788 0.403051,-0.31634 0.648249,-0.41062 z"
     id="amy-1"
     sodipodi:nodetypes="ccccccccccccccccccscccccccccccccccccccccccccccccccccccccccccccccccccccccccccccccc" />
  <path
     style="fill:#000000;stroke-width:0.214014"
     d="m 12.248243,209.88723 c -1.178226,-1.02134 -1.670756,-2.49975 -1.408538,-4.03097 0.600149,-1.86698 2.357468,-3.17185 4.25633,-3.59582 2.696058,-0.62118 7.16374,-0.53236 9.22698,0.97021 1.352625,1.06291 2.276517,2.95969 3.919858,3.45689 2.311258,0.50778 3.810981,0.27816 5.914954,0.0323 0.01835,0.88171 2.732017,2.45436 0.522536,2.28124 -2.061201,0.10653 -4.09664,-0.38825 -6.150888,-0.48394 -1.988784,0.39111 -3.581748,1.69082 -5.353557,2.58711 -3.767256,1.05107 -7.768123,1.21173 -10.927675,-1.21703 z m 8.813372,0.49221 c 1.489035,-0.31548 3.253624,-0.92663 4.031985,-2.29148 0.817343,-1.26921 0.453003,-2.88637 -0.810677,-3.69586 -2.571087,-1.86684 -5.845959,-1.93457 -8.626916,-1.37206 -1.424837,0.25331 -2.911988,0.95961 -3.600188,2.29963 -2.033363,5.02265 6.497725,5.80034 9.005796,5.05977 z"
     id="tennis-1"
     sodipodi:nodetypes="cccccccccccccccc" />
  <path
     style="fill:#000000;stroke-width:0.217044"
     d="m 31.516041,166.96025 c -0.934601,-0.34291 -1.657729,-1.12062 -1.304031,-1.40246 1.34484,-1.07164 3.031503,-1.1931 4.414852,-0.31792 1.310902,0.82933 1.337471,1.08146 0.166849,1.58324 -1.104063,0.47326 -2.232864,0.52049 -3.27767,0.13714 z m 3.914091,-1.92419 c -1.238476,-0.96623 -3.332902,-1.66555 -4.52615,-0.54226 -1.078964,1.01572 -1.874406,0.39006 -1.756198,-0.54383 0.188814,-1.49171 0.639045,-2.21335 0.80088,-2.34506 0.235253,-0.19145 0.575375,-0.44048 0.872619,0.0152 0.497082,0.76199 2.252863,0.93453 3.397642,0.23806 1.139724,-0.6934 1.846236,0.20824 2.19981,1.58581 0.40598,1.58176 -0.02809,2.34149 -0.988603,1.59211 z m -3.708005,-3.65496 c -0.569618,-0.22895 -0.617445,-0.48407 -0.161661,-0.86234 0.396648,-0.32919 2.398862,-0.18369 2.778973,0.20196 0.635255,0.64448 -1.387269,1.1548 -2.617312,0.66038 z"
     id="ball-41"
     sodipodi:nodetypes="ssssssssssssssssss" />
  <path
     style="fill:#000000;stroke-width:0.217044"
     d="m 126.1132,133.79199 c 0.99519,0.0257 1.92923,0.53098 1.68436,0.91121 -0.93101,1.44576 -2.49004,2.10076 -4.08075,1.71447 -1.5074,-0.36604 -1.61329,-0.5964 -0.6649,-1.44651 0.89446,-0.80179 1.94875,-1.20789 3.06129,-1.17917 z m -3.09215,3.07591 c 1.48262,0.51892 3.69069,0.51098 4.46156,-0.93519 0.69703,-1.30766 1.65091,-0.96956 1.83788,-0.047 0.29864,1.47366 0.10311,2.30145 -0.008,2.47804 -0.16158,0.25668 -0.4041,0.60149 -0.83157,0.26494 -0.71485,-0.56277 -2.43347,-0.16417 -3.29505,0.86212 -0.85778,1.02176 -1.81575,0.39373 -2.5917,-0.79816 -0.89097,-1.36856 -0.72293,-2.22727 0.42691,-1.8248 z m 4.68291,2.27562 c 0.61293,0.0346 0.73991,0.26094 0.42921,0.76521 -0.2704,0.43884 -2.21384,0.94195 -2.6974,0.69827 -0.80813,-0.40721 0.9446,-1.53812 2.26819,-1.46348 z"
     id="ball-33"
     sodipodi:nodetypes="ssssssssssssssssss" />
  <path
     style="fill:#000000;stroke-width:0.215364"
     d="m 137.09413,168.5716 c 0.35663,-1.22402 0.36943,-1.84852 0.0505,-2.46523 -0.32333,-0.62527 -1.4733,-1.76333 -2.1832,-2.16061 -0.18961,-0.10611 -0.29061,-0.33224 -0.22445,-0.50253 0.2083,-0.53611 1.71946,-1.21589 2.57579,-1.15868 0.96356,0.0644 1.14774,0.21609 0.84498,0.69608 -0.16455,0.26086 -0.1577,0.67193 0.024,1.44338 0.34055,1.4456 0.8509,2.37383 1.61624,2.93967 0.34874,0.25784 0.57875,0.55832 0.51113,0.66774 -0.21015,0.34002 -2.01617,1.02475 -2.70285,1.02475 -0.57582,0 -0.63661,-0.0575 -0.51218,-0.48457 z m -2.72438,-3.39199 c 0.53674,0 1.98735,1.24558 1.98735,1.70646 0,0.52842 -0.43834,1.73937 -0.62962,1.73937 -1.12988,-0.14803 -2.47898,-3.25972 -1.35773,-3.44583 z m 5.90549,1.22877 c -0.96119,-1.02315 -1.51596,-3.38242 -0.79536,-3.38242 1.41428,0.28634 2.13798,1.86518 1.70519,3.11675 -0.19182,0.76428 -0.38767,0.82147 -0.90983,0.26567 z"
     id="ball-43"
     sodipodi:nodetypes="sssssscssssscsccsccs" />
  <path
     style="fill:#000000;stroke-width:0.221019"
     d="m 86.758293,166.90119 c -0.838643,-0.42997 -1.731466,-1.33683 -1.996751,-2.02816 -0.08447,-0.22011 0.144476,-0.50959 0.752379,-0.69172 1.363307,-0.40845 2.228951,-2.0704 2.228951,-3.42851 0,-0.41219 0.568455,-0.46947 0.949338,-0.46575 0.57905,0.006 2.256665,0.72842 2.462037,1.06072 0.07734,0.12514 -0.274282,0.50846 -0.781379,0.85183 -1.324063,0.89658 -1.596499,1.59137 -1.709714,2.9566 0.06152,1.18547 0.170577,1.36706 0.41584,2.00465 0,0.35789 -1.427799,0.19814 -2.320701,-0.25966 z m 2.966315,-0.68407 c -1.119623,-1.74583 0.62985,-3.81909 2.215073,-3.17994 0.306288,0.18929 0.298616,1.13091 -0.01397,1.71498 -0.323473,0.60442 -1.541463,1.9396 -1.769356,1.9396 -0.09775,0 -0.292036,-0.21359 -0.431743,-0.47464 z m -4.831255,-2.74837 c -0.327486,-0.32749 0.231625,-1.75113 0.801195,-2.34564 1.189995,-1.24209 1.874742,-0.51267 0.890208,0.94828 -0.497939,0.73889 -1.388399,1.70036 -1.691403,1.39736 z"
     id="ball-42"
     sodipodi:nodetypes="sssscssccsccssscssss" />
  <path
     style="fill:#000000;stroke-width:0.218994"
     d="m 44.301829,139.58795 c -1.489117,-0.41199 -2.700943,-1.85404 -2.609954,-3.4363 -0.01269,-0.91804 0.451454,-1.77205 1.118254,-2.38062 0.649688,-0.60204 1.529481,-0.90661 2.392177,-1.04127 0.387518,-0.0521 1.257395,-0.0863 1.003953,0.53788 -0.410861,0.44014 -0.966619,0.77724 -1.533186,0.99494 -0.701577,0.0892 -1.376112,0.38031 -1.887894,0.87936 -0.728365,0.75357 -0.572257,2.09471 0.271785,2.70076 0.809231,0.63747 1.927522,0.75247 2.911518,0.56411 0.501813,-0.17123 0.636376,-0.75478 0.91106,-1.15245 0.876591,-0.40012 1.249094,1.51546 0.781665,1.85499 -0.959176,0.68695 -2.24463,0.80086 -3.35938,0.4786 z m 4.32582,-1.68866 c -0.242569,-0.43292 -0.03214,-1.04635 -0.515804,-1.36465 -0.450201,-0.45919 -1.247299,-0.63878 -1.761387,-0.17881 -0.503225,0.38273 -0.897502,1.03408 -1.605822,1.02638 -0.589855,0.002 -1.352289,-0.40489 -1.278545,-1.08308 0.147344,-0.54105 0.781857,-0.64851 1.217399,-0.87169 0.888833,-0.35787 1.861841,-0.69414 2.465378,-1.48504 0.753689,-0.63133 1.608245,1.31565 1.772753,1.94547 0.208209,0.66517 0.330515,1.4112 0.08795,2.08282 -0.100909,0.14855 -0.299113,0.0333 -0.381925,-0.0715 z"
     id="ball-31"
     sodipodi:nodetypes="sccccccccccssccccccccccc" />
  <path
     style="fill:#000000;stroke-width:0.205189"
     d="m 115.75201,64.86334 c -0.56427,-0.265367 -1.30296,-0.713183 -1.64151,-0.995139 -0.59881,-0.498683 -0.60746,-0.531324 -0.31734,-1.198503 0.31615,-0.727051 0.34132,-1.475163 0.20045,-5.958846 -0.0812,-2.587319 -0.12092,-2.821479 -0.49868,-2.946144 -0.22571,-0.07445 -0.50272,-0.114249 -0.61558,-0.08837 -0.11284,0.0259 -0.6207,0.07848 -1.12854,0.116894 -0.50785,0.03839 -1.61587,0.122734 -2.46227,0.187381 -0.84641,0.06468 -2.03867,0.02156 -2.64945,-0.09571 -0.96041,-0.184426 -1.21003,-0.160416 -1.8467,0.177632 -1.97876,1.05062 -4.25669,2.157232 -4.53219,2.201724 -0.16929,0.02737 -0.492458,0.303732 -0.718173,0.614211 -0.834925,1.14849 -1.804316,2.133579 -2.533398,2.574439 -1.044315,0.631475 -2.402521,2.168841 -2.92056,3.305814 -0.13266,0.291154 -0.481404,0.586836 -0.778769,0.660278 -0.296195,0.07313 -0.970602,0.495759 -1.498692,0.939131 -1.006407,0.84496 -2.015087,1.08586 -2.015087,0.481249 0,-0.358321 1.109706,-1.51024 1.997102,-2.073065 1.198566,-0.760187 2.553717,-2.022951 2.974592,-2.771792 0.241341,-0.429413 0.505367,-0.780747 0.586711,-0.780747 0.08135,0 0.384581,-0.403844 0.673841,-0.897431 0.289261,-0.493587 0.867698,-1.163016 1.285424,-1.487625 1.318996,-1.024974 4.002429,-3.834223 4.637029,-4.854459 0.47818,-0.768741 0.93892,-1.161549 2.12763,-1.813956 0.8345,-0.457998 1.51727,-0.921122 1.51727,-1.029168 0,-0.33642 1.0922,-1.230726 1.89801,-1.554118 0.85252,-0.342144 0.84619,-0.320166 0.78591,-2.726518 -0.0378,-1.507788 -0.0235,-1.55508 0.70676,-2.337385 1.04577,-1.120331 1.481,-2.381978 0.82171,-2.381978 -0.16598,0 -0.71291,0.289781 -1.21538,0.643962 -0.6348,0.447451 -1.16891,0.650947 -1.75026,0.666868 -0.46017,0.01257 -0.83661,-0.0387 -0.83652,-0.114017 8e-5,-0.0753 0.42823,-0.300405 0.95141,-0.500217 1.1566,-0.441705 1.71621,-1.004841 1.71621,-1.727036 0,-0.895214 -0.21828,-0.858678 -1.27328,0.213098 -0.55359,0.56239 -1.09375,1.022529 -1.20035,1.022529 -0.37749,0 -0.18671,-0.591388 0.31915,-0.989291 0.54487,-0.428599 0.69178,-1.062602 0.24622,-1.062602 -0.14671,0 -0.36215,0.0954 -0.47874,0.211989 -0.23152,0.231516 -2.06405,0.329898 -2.27198,0.121981 -0.0708,-0.0708 0.14053,-0.128325 0.46969,-0.127767 1.54845,0.0023 3.39367,-1.15671 3.09206,-1.942715 -0.10261,-0.267368 -0.21787,-0.267562 -0.97171,-0.0015 -1.0628,0.374971 -2.44523,0.400571 -2.44523,0.04529 0,-0.168863 0.33298,-0.257295 0.97465,-0.258854 1.29195,-0.0031 2.86802,-0.670219 3.0207,-1.278529 0.0639,-0.254774 0.23869,-0.463218 0.38833,-0.463218 0.14964,0 0.43446,-0.179439 0.63293,-0.398749 0.81673,-0.902479 2.42237,-0.577607 3.29372,0.666427 0.34496,0.492502 0.41923,2.306597 0.10244,2.502385 -0.11285,0.06972 -0.20518,0.352203 -0.20518,0.627675 0,0.27548 -0.17175,0.6726 -0.38165,0.88251 -0.36704,0.36703 -0.36764,0.400207 -0.0157,0.866868 0.2013,0.266872 0.53464,0.494852 0.74073,0.506608 0.2061,0.01179 0.53299,0.03715 0.72643,0.05646 0.19345,0.01931 1.07064,0.690251 1.94931,1.490983 0.87866,0.80074 1.88585,1.581889 2.23819,1.7359 0.83013,0.362842 2.27657,0.143293 3.77905,-0.573613 1.5394,-0.734525 2.58918,-1.181845 2.77361,-1.181845 0.27392,0 1.52343,-1.036343 1.47322,-1.221878 -0.11519,-0.425597 1.54526,-2.057306 2.60252,-2.55747 2.23077,-1.055327 4.1092,-0.553868 4.56111,1.21762 0.41596,1.630545 -0.25918,2.468208 -2.56571,3.183353 -1.54204,0.478115 -2.49386,0.507632 -3.79008,0.11753 -0.9282,-0.27935 -0.98505,-0.270028 -2.18809,0.359081 -0.67933,0.355235 -1.48898,0.886194 -1.79925,1.179923 -0.31026,0.293719 -1.11775,0.837817 -1.79441,1.209112 -1.64846,0.904519 -2.83585,1.687477 -3.03673,2.002399 -0.0907,0.142192 -0.54268,0.451267 -1.00442,0.686832 -0.63965,0.326322 -0.94573,0.379919 -1.28554,0.225086 -0.2453,-0.11176 -0.67611,-0.159222 -0.95735,-0.105455 -0.31517,0.06026 -0.6146,-0.02668 -0.78048,-0.226537 -0.14802,-0.178354 -0.44856,-0.324283 -0.66787,-0.324283 -0.21931,0 -0.57822,-0.09605 -0.79758,-0.213447 -0.33526,-0.179424 -0.43104,-0.128705 -0.60095,0.318173 -0.33212,0.873553 0.86822,2.76793 1.75385,2.76793 0.36559,0 3.11703,2.727518 3.27021,3.241781 0.0861,0.288897 0.0227,0.651459 -0.16331,0.935447 -0.17787,0.271447 -0.25835,0.701714 -0.19412,1.037722 0.0604,0.315963 0.008,0.636772 -0.11618,0.713627 -0.12424,0.07678 -0.26621,0.459394 -0.31548,0.850232 -0.17538,1.391197 -0.38361,2.249535 -0.54574,2.249535 -0.0904,0 -0.16916,0.606138 -0.17485,1.346976 l -0.0104,1.346977 1.22363,1.315312 c 1.77617,1.909245 1.58843,2.426896 -0.52048,1.4351 z m 0.90419,-18.357666 c 0.30645,-0.218208 0.79634,-0.456766 1.08865,-0.530131 0.29231,-0.07336 0.73434,-0.322383 0.98226,-0.553363 0.58661,-0.546517 0.26406,-0.76944 -1.11948,-0.773713 -0.85641,-0.0023 -1.20674,-0.136212 -2.21818,-0.845704 -0.66064,-0.463412 -1.24315,-0.800561 -1.29448,-0.749222 -0.0846,0.08458 -0.70264,2.305418 -0.70264,2.524766 0,0.198665 1.97122,1.31653 2.328,1.320198 0.2083,0.0023 0.62943,-0.174631 0.93587,-0.392831 z m 13.49933,-4.856133 c 1.45906,-0.424156 1.90906,-0.878804 1.90906,-1.928772 0,-1.563083 -1.08172,-2.008488 -3.056,-1.25832 -1.42266,0.540569 -2.27572,1.457675 -2.16571,2.328297 0.15416,1.219984 1.16698,1.48256 3.31265,0.858795 z"
     id="rouge-2" />
  <path
     style="fill:#000000;stroke-width:0.199168"
     d="m 86.526934,127.08266 c -0.186919,-0.41079 -0.57898,-1.06109 -0.87124,-1.44511 -1.11025,-1.45885 -4.436031,-1.87746 -5.68859,-0.71601 -0.829153,0.76883 -1.060613,0.67305 -1.060613,-0.43887 0,-0.71982 -0.147188,-1.18894 -0.594148,-1.89373 -0.564911,-0.89076 -0.831855,-1.07614 -2.542757,-1.76579 -0.746846,-0.30104 -0.742465,-0.28561 -0.348544,-1.22838 0.430956,-1.03143 0.385836,-2.96301 -0.09105,-3.89778 -0.287061,-0.88983 -0.503099,-1.29609 -1.022975,-2.03453 -0.42452,-0.59619 -0.382825,-1.27402 0.0685,-1.11352 0.359557,0.12786 1.553785,-0.52239 2.190005,-1.19247 0.901079,-0.94903 1.552106,-2.88231 1.436376,-4.26544 -0.08079,-0.96556 -0.04404,-1.17003 0.210435,-1.17003 0.169582,0 0.359918,0.13444 0.42297,0.29876 2.086286,1.7046 5.715206,0.004 5.935729,-2.7847 0.01408,-0.47144 0.708862,-0.68461 0.708862,-0.21748 0.915279,1.57882 4.78651,4.62608 6.572559,3.46975 0,-0.22239 0.833098,-1.43309 1.736428,-2.52348 l 0.441842,-0.53333 0.006,1.33763 c 0.298369,2.90614 2.860168,4.46497 4.822656,2.84491 0.325464,-0.27386 0.652088,-0.49792 0.725844,-0.49793 0.07377,0 0.119734,0.76885 0.102195,1.70855 -0.0283,1.51415 0.03237,1.8371 0.532932,2.83816 0.31067,0.62128 0.76616,1.29878 1.01223,1.50555 0.42635,0.35825 0.43043,0.38835 0.0867,0.63965 -1.21004,0.8848 -1.906789,3.59356 -1.18822,4.61946 0.51417,0.73408 0.296,1.26801 -0.645957,1.58086 -1.959222,0.65073 -3.790062,3.15535 -3.940863,5.39116 -0.04215,0.62455 -0.08345,1.17472 -0.09184,1.2226 -0.0084,0.0479 -0.26172,-0.14849 -0.562961,-0.43639 -2.169876,-2.07372 -6.04418,-1.60046 -7.343486,0.89705 -0.382629,0.73548 -0.614683,0.69014 -1.019346,-0.19917 z m -0.403617,-7.23142 c 0.425763,-0.70567 1.090415,-1.59673 1.477004,-1.98012 0.669206,-0.6637 0.71395,-0.67854 0.933945,-0.30992 0.127089,0.21294 0.903262,1.08964 1.724827,1.94821 1.640745,1.71463 2.090362,1.8636 2.569556,0.85131 0.155566,-0.32863 0.511954,-0.95601 0.791981,-1.39418 0.280021,-0.43817 0.679963,-1.10823 0.888765,-1.48901 l 0.379633,-0.69234 -0.870992,-0.75109 c -0.47905,-0.41311 -0.969136,-0.75134 -1.089089,-0.75164 -0.119953,-3e-4 -0.380311,-0.17979 -0.578581,-0.39887 -0.34731,-0.38377 -0.34737,-0.41285 -0.0015,-0.7949 0.197382,-0.21811 0.736315,-0.61775 1.197623,-0.8881 0.461316,-0.27035 0.985864,-0.71606 1.165676,-0.99049 0.320308,-0.48884 0.312457,-0.50879 -0.387319,-0.98431 -0.764216,-1.00352 -2.055985,-1.4333 -2.858699,-2.32465 -0.726379,-0.83312 -1.04363,-0.67327 -2.190622,1.10374 -0.595797,0.92305 -1.205429,1.72515 -1.354732,1.78245 -0.149303,0.0573 -0.220703,0.0221 -0.158653,-0.0784 0.09626,-0.15577 -0.802708,-1.50902 -2.25341,-3.39213 l -0.379114,-0.49212 -0.870871,0.72435 c -1.503726,1.25075 -2.563797,2.37603 -2.563797,2.72152 0,0.10342 0.25323,0.35367 0.562728,0.55613 0.634624,0.41513 2.027175,1.91747 2.025097,2.18476 -7.52e-4,0.0963 -0.320872,0.39265 -0.71139,0.65863 -1.472894,1.00318 -3.413019,3.59935 -2.68981,3.59935 0.100351,0 0.570888,0.35461 1.045633,0.78803 0.474737,0.43341 0.990297,0.90394 1.145675,1.04563 0.42519,0.38772 1.882599,1.14205 2.092386,1.08299 0.101217,-0.0285 0.532384,-0.62918 0.958147,-1.33486 z"
     id="miss"
     sodipodi:nodetypes="cssssssccssssccccscccscssssssscscccsssssscssscssccsscscssssssssscc" />
  <path
     style="fill:#000000;stroke-width:0.204389"
     d="m 85.73196,65.437669 c 0,-0.17215 0.141366,-0.367252 0.314143,-0.433555 0.403691,-0.154909 0.912193,-1.137005 0.912193,-1.76176 0,-0.266588 -0.25293,-0.822043 -0.562067,-1.234324 -0.601975,-0.802838 -3.079915,-2.879213 -4.120296,-3.452589 -0.616698,-0.339875 -0.632573,-0.386163 -0.665975,-1.941697 -0.07578,-3.528828 -0.108706,-3.802345 -0.491424,-4.08219 -0.246008,-0.17989 -1.025579,-0.270589 -2.325712,-0.270589 -1.734313,0 -1.984563,0.04628 -2.21095,0.408781 -0.140409,0.224827 -0.36977,0.408773 -0.509693,0.408773 -0.139929,0 -0.706516,0.321436 -1.259089,0.714304 -0.552581,0.392868 -2.054436,1.234517 -3.337457,1.870341 -1.731865,0.858242 -2.3828,1.287603 -2.526971,1.666805 -0.283745,0.746301 -1.502317,1.865793 -3.246866,2.982875 -0.843101,0.539858 -1.946803,1.411534 -2.452672,1.937054 -1.525338,1.584612 -4.905344,2.656194 -4.905344,1.555172 0,-0.16648 0.11701,-0.302687 0.260014,-0.302687 0.143012,0 0.579889,-0.261953 0.970849,-0.582121 0.39096,-0.32016 1.032748,-0.736219 1.426203,-0.924585 0.790649,-0.378506 3.182734,-2.63389 4.872204,-4.593764 0.600043,-0.696096 1.35508,-1.402187 1.677836,-1.569092 0.322765,-0.166906 0.807845,-0.509994 1.077956,-0.762423 1.846772,-1.725854 3.474419,-3.194599 4.053366,-3.657656 l 0.677193,-0.541643 -0.34957,-0.733059 -0.349569,-0.733051 0.557455,-0.123329 c 0.306604,-0.06783 1.063324,-0.253827 1.681606,-0.413324 0.618274,-0.159496 1.290314,-0.33089 1.493419,-0.380878 0.750618,-0.184742 1.7568,-0.961966 2.185087,-1.687863 C 78.9769,46.123221 78.994853,45.9672 78.767206,45.154111 78.505431,44.21916 78.045958,43.881 77.03735,43.881 c -0.342925,0 -0.590943,-0.190536 -0.816975,-0.627629 -0.398786,-0.771174 -0.633222,-0.625227 -1.539142,0.958164 -0.346209,0.605103 -0.712944,1.100187 -0.814967,1.100187 -0.102024,0 -0.241011,0.22122 -0.308874,0.491594 -0.06783,0.270373 -0.342703,0.697632 -0.610767,0.949466 -0.268055,0.251825 -0.443203,0.529344 -0.389205,0.616705 0.054,0.08736 -1.121532,0.118416 -2.61227,0.06898 -1.490738,-0.04944 -2.940371,-0.08603 -3.221405,-0.0814 -0.891104,0.01468 -2.417361,-0.432219 -2.536526,-0.742747 -0.145438,-0.379001 -1.361731,-0.894271 -2.106764,-0.892502 -0.312753,7.42e-4 -0.844561,0.184086 -1.18181,0.40743 -1.205509,0.798381 -4.830296,0.343551 -5.841654,-0.73299 -0.234816,-0.249949 -0.508773,-0.818706 -0.608804,-1.263903 -0.152258,-0.677663 -0.09994,-0.979276 0.32132,-1.852528 0.557401,-1.155421 1.143084,-1.637395 2.173028,-1.788218 0.53887,-0.07892 1.007651,0.08021 2.187051,0.742322 1.273249,0.714813 1.627592,1.041084 2.333931,2.149012 0.769582,1.207124 0.935174,1.345377 2.182182,1.821891 0.742175,0.283598 1.543168,0.515633 1.779992,0.515633 0.236816,0 0.769243,0.141505 1.183176,0.314459 0.604022,0.252374 0.982174,0.274004 1.915556,0.109547 0.639634,-0.112707 1.597335,-0.259465 2.128224,-0.32614 0.751421,-0.09438 1.057044,-0.250149 1.379622,-0.703171 0.22791,-0.320067 0.414382,-0.754187 0.414382,-0.964715 0,-0.21052 0.267948,-0.676134 0.595432,-1.034688 0.327491,-0.358553 0.653932,-0.918256 0.725435,-1.243778 0.07145,-0.325529 0.355401,-0.78786 0.630896,-1.027404 0.275503,-0.239542 0.500909,-0.511075 0.500909,-0.603419 0,-0.09234 0.324,-0.322385 0.720005,-0.511229 1.366984,-0.65187 1.397234,-2.024176 0.05353,-2.42677 -1.066205,-0.319442 -1.378734,-0.843913 -1.631912,-2.738595 l -0.20933,-1.566567 0.584965,-0.475896 c 0.793792,-0.645782 2.617058,-1.027842 3.456505,-0.724291 0.965867,0.34926 1.754167,0.274507 2.276119,-0.215835 0.359233,-0.337487 0.473044,-0.370643 0.473044,-0.137828 0,0.168627 -0.229932,0.5226 -0.510966,0.786624 -0.505452,0.474845 -0.66973,1.104096 -0.341243,1.307108 0.09335,0.05771 0.668193,-0.02773 1.27743,-0.189903 1.381761,-0.367738 1.522348,-0.369538 1.228745,-0.01576 -0.129578,0.156136 -0.646701,0.387398 -1.149171,0.513917 -1.106962,0.27874 -1.272152,0.835631 -0.249307,0.840452 0.504068,0.0023 0.590333,0.05091 0.357681,0.201258 -0.16862,0.108976 -0.5624,0.199544 -0.875067,0.201266 -0.610874,0.0031 -0.99322,0.550256 -0.568302,0.812866 0.186217,0.115093 0.165368,0.188303 -0.08049,0.282648 -0.182488,0.07006 -0.517712,0.01383 -0.744949,-0.124851 -0.349438,-0.213294 -0.458499,-0.190999 -0.70728,0.144572 -0.425414,0.573818 -0.362093,1.238766 0.177711,1.866333 0.543358,0.631685 1.000459,0.576776 1.864495,-0.223985 1.821635,-1.688234 6.729498,-4.288197 8.891465,-4.710289 1.039075,-0.202865 3.220168,-1.468459 3.705612,-2.150201 0.446147,-0.626547 1.008956,-0.796272 1.008956,-0.304263 0,0.292312 -1.563461,1.753232 -1.876298,1.753232 -0.09218,0 -0.1676,0.137967 -0.1676,0.306588 0,0.353594 0.09854,0.375486 0.575509,0.127871 0.189338,-0.09829 0.520924,-0.114569 0.736859,-0.03616 0.668572,0.242734 -1.21335,0.880706 -2.137416,0.724593 -0.567344,-0.09585 -0.928656,-0.02256 -1.447347,0.29368 -0.380183,0.231778 -0.837949,0.421759 -1.017253,0.422183 -0.179303,4.25e-4 -0.492983,0.185276 -0.697076,0.410798 -0.204094,0.225514 -0.41551,0.365598 -0.469816,0.311293 -0.20502,-0.205028 -2.17523,1.050731 -2.956879,1.884641 -0.447816,0.477757 -0.932804,0.868655 -1.07774,0.868655 -0.144935,0 -0.294173,0.08335 -0.331646,0.185236 -0.03746,0.101885 -0.628418,0.683627 -1.313204,1.292763 l -1.245076,1.107518 0.577277,0.577279 c 0.329794,0.329793 0.626486,0.892764 0.692071,1.313203 0.06311,0.404756 0.214182,1.071032 0.335641,1.480602 0.121468,0.409577 0.154291,0.852371 0.07292,0.983997 -0.08748,0.141536 0.20607,0.598521 0.718467,1.118472 1.044684,1.06008 2.648623,4.031544 2.648623,4.906835 0,0.408495 -0.143661,0.719572 -0.408781,0.88514 -0.331648,0.207114 -0.408798,0.476707 -0.408882,1.428792 -6.2e-5,0.690479 -0.173672,1.63018 -0.42179,2.282985 -0.494528,1.301129 -0.406186,1.871168 0.368395,2.377076 0.977492,0.638444 1.624248,1.405146 2.278289,2.700782 0.348488,0.690348 0.910223,1.57022 1.248305,1.955277 0.338083,0.385051 0.614103,0.825914 0.613385,0.979694 -7.73e-4,0.15378 -0.391617,0.762252 -0.868656,1.35216 -0.724144,0.895468 -0.97702,1.072641 -1.53161,1.073042 -0.460461,4.1e-4 -0.664269,-0.09554 -0.664269,-0.312504 z M 60.796452,44.024437 c 0,-0.850015 -0.695694,-1.553866 -2.248285,-2.274635 -1.81514,-0.842661 -2.36409,-0.695338 -3.143383,0.843611 -0.735779,1.453017 -0.179891,2.417639 1.722455,2.988931 1.913927,0.574781 2.261178,0.551252 3.004952,-0.203615 0.481272,-0.488456 0.664261,-0.861525 0.664261,-1.354292 z"
     id="rouge-1" />
  <path
     style="fill:#000000;stroke-width:0.19957"
     d="m 74.707324,74.459809 c -0.301653,-0.183388 -0.54862,-0.430661 -0.548816,-0.549495 -1.96e-4,-0.118835 0.359438,-0.5052 0.799185,-0.85859 0.986231,-0.792559 1.598158,-1.952606 1.737301,-3.293458 0.05823,-0.561163 0.129321,-1.04712 0.157961,-1.079902 0.30237,-0.346049 2.893171,1.555395 2.893171,2.123357 0,0.129334 -0.294743,0.23131 -0.668551,0.23131 -1.302178,0 -2.977899,1.757649 -3.213823,3.370956 -0.06374,0.435887 -0.496869,0.456795 -1.156428,0.05582 z m 2.178292,0.232017 c -0.623218,-0.623218 0.850348,-2.529289 1.853294,-2.397259 0.396549,0.0522 0.521013,0.195102 0.566172,0.650004 0.05016,0.504927 -0.07535,0.670041 -0.935981,1.231697 -1.020107,0.665736 -1.252531,0.746511 -1.483485,0.515558 z m -3.257655,-2.570668 c -0.439596,-1.14557 0.702561,-3.161978 1.72352,-3.042776 0.451544,0.05272 0.501334,0.144457 0.486565,0.896446 -0.0221,1.124126 -0.883657,2.455197 -1.589205,2.455197 -0.276301,0 -0.555695,-0.13899 -0.62088,-0.308867 z"
     id="ball-11" />
  <path
     style="fill:#000000;stroke-width:0.20728"
     d="m 101.60151,75.339059 c -0.39878,-0.282939 -0.80264,-0.65307 -0.89747,-0.822514 -0.21482,-0.383858 0.23059,-1.096454 1.1018,-1.76275 1.68883,-1.291605 1.92158,-1.560026 2.05282,-2.367353 0.17521,-1.077943 0.62465,-1.136297 1.55859,-0.202363 0.86957,0.869573 0.9302,1.144759 0.25221,1.144759 -0.31827,0 -0.79923,0.333525 -1.36313,0.945276 -0.97596,1.0588 -1.46155,2.050993 -1.46155,2.986384 0,0.756582 -0.26411,0.773271 -1.24327,0.07856 z m 2.28259,0.13718 c -0.72194,-0.446181 0.33661,-2.130616 1.70342,-2.710624 1.40372,-0.595668 1.40078,0.586052 -0.005,1.919927 -0.87294,0.828414 -1.3091,1.031443 -1.69863,0.790697 z m -3.68214,-2.637147 c -0.1425,-0.05161 -0.259095,-0.2311 -0.259095,-0.39886 0,-0.403769 0.723545,-1.92694 1.186595,-2.497967 0.49463,-0.609966 1.35618,-0.80805 1.70203,-0.391323 0.41154,0.495869 0.0958,1.28247 -0.76561,1.907559 -0.42664,0.309575 -0.96225,0.767967 -1.19025,1.018648 -0.22802,0.250681 -0.53116,0.413555 -0.67367,0.361943 z"
     id="ball-12" />
  <path
     style="fill:#000000;stroke-width:0.198408"
     d="m 63.056189,98.507685 c -0.443253,-0.258524 -0.345077,-1.832767 0.1897,-3.041715 0.479226,-1.083364 0.924954,-1.182122 2.274143,-0.503866 1.604512,0.806615 1.855373,1.295098 1.135245,2.210595 -0.748144,0.951107 -2.893125,1.746732 -3.599088,1.334986 z m -1.640341,-0.850506 c -0.464461,-0.339622 -1.111579,-2.010646 -1.111789,-2.870941 -9e-5,-0.356824 0.219673,-0.997017 0.488367,-1.422651 1.087124,-1.722125 2.956655,-2.369697 4.533384,-1.570289 1.015862,0.515044 1.639787,1.112726 1.913722,1.833219 0.471382,1.239838 0.246317,1.353961 -1.218873,0.61804 -1.84531,-0.926847 -3.16553,-0.554555 -3.557791,1.003274 -0.422897,0.925534 -0.289894,1.371668 -0.528,2.128191 -0.133735,0.497521 -0.185088,0.525338 -0.519022,0.281157 z"
     id="ball-21"
     sodipodi:nodetypes="sssssssssssccss" />
  <path
     style="fill:#000000;stroke-width:0.209843"
     d="m 88.38751,98.694066 c -0.70267,-0.536752 -0.650896,-1.264183 0.176387,-2.478137 0.854899,-1.254475 1.165456,-2.38772 0.935145,-3.412354 -0.08248,-0.366909 -0.110369,-0.785145 -0.06194,-0.929412 0.119021,-0.354899 1.096653,-0.330888 2.006531,0.04928 0.884616,0.369618 1.090094,0.633113 0.726574,0.931731 -0.146797,0.120593 -0.556715,0.45077 -0.910924,0.733729 -0.35421,0.282957 -0.770663,0.898229 -0.925462,1.367265 -0.318227,0.964245 -0.23135,1.236376 0.8524,2.669974 0.36303,0.480219 0.596481,0.975967 0.518796,1.101674 -0.196968,0.318695 -2.891964,0.291277 -3.317467,-0.03371 z m 3.436591,-1.493938 c -0.609971,-0.649286 -0.85658,-1.576651 -0.582656,-2.191063 0.183065,-0.410608 1.953979,-1.46251 2.122713,-1.260863 0.295092,0.352648 0.501641,1.046969 0.426906,1.435029 -0.283147,1.470295 -0.850584,2.51408 -1.366731,2.51408 -0.0732,0 -0.343344,-0.223727 -0.600232,-0.497183 z m -5.354318,-0.464269 c -0.07003,-0.182566 -0.125819,-0.867177 -0.123923,-1.521364 0.004,-1.341568 0.638682,-2.715311 1.37927,-2.984889 0.685927,-0.249679 0.96246,0.08074 0.996357,1.190512 0.0253,0.829518 -0.106149,1.251892 -0.690487,2.218143 -0.294319,0.484001 -1.267279,1.803137 -1.561217,1.097598 z"
     id="ball-22"
     sodipodi:nodetypes="ssscssssssssssssssccsccc" />
  <path
     style="fill:#000000;stroke-width:0.196863"
     d="m 114.02654,98.498177 c -0.48983,-0.165415 -1.17552,-0.663376 -1.23939,-1.783582 -0.0294,-0.515275 0.33481,-1.593705 0.8879,-1.98111 0.50958,-0.356921 1.95199,-0.432782 2.2656,-0.119157 0.11104,0.111026 0.46095,0.235635 0.77761,0.27691 1.69851,0.22139 1.86468,0.439121 1.32109,1.731025 -0.19971,0.474617 -0.66402,0.978141 -1.31611,1.427254 -1.0461,0.720473 -1.70898,0.782212 -2.6967,0.44866 z m -2.34751,-1.636488 c -0.88378,-2.324506 0.0521,-4.382659 2.26831,-4.988012 1.19462,-0.326318 1.68952,-0.26148 2.66052,0.348556 0.82817,0.520299 1.67791,1.75597 1.5399,2.091113 -0.11868,0.288209 -2.65902,-0.251449 -3.0987,-0.967514 -0.1004,-0.163512 -0.46204,-0.181556 -0.68902,-0.14318 -1.45969,0.246788 -2.37912,1.634003 -2.157,3.25447 0.13925,1.015993 -0.19379,1.273121 -0.52401,0.404567 z"
     id="ball-23"
     sodipodi:nodetypes="ssssssssssssssss" />
  <path
     style="fill:#000000;stroke-width:0.203943"
     d="m 85.346743,135.47511 c 0.432317,-1.00059 1.067471,-1.77746 1.453216,-1.77746 0.341723,0 0.352491,0.65207 0.01634,0.98823 -0.15323,0.15323 -0.254391,0.80986 -0.25493,1.65473 -7.71e-4,1.22559 0.06035,1.45388 0.489186,1.82619 0.568966,0.49398 0.497026,0.46942 1.545042,0.52759 1.472,0.0817 2.318434,-0.93283 2.212093,-2.65139 -0.07616,-1.2311 0.114812,-2.14141 0.44929,-2.14141 0.419498,0 1.319827,1.88947 1.319827,2.76985 0,0.41027 -0.231583,1.16946 -0.516312,1.6926 -2.655821,4.14245 -8.29161,0.97428 -6.713752,-2.88893 z m 2.265048,1.92845 c -0.415975,-0.45965 -0.441597,-1.37895 -0.0427,-1.53203 0.212682,-0.0816 0.262569,-0.31189 0.179051,-0.82652 -0.171613,-1.05755 0.05334,-1.67457 0.696203,-1.90963 0.9085,-0.33218 1.448691,-0.26927 1.593033,0.1855 0.148689,0.46847 -0.05719,1.79593 -0.329668,2.12592 -0.107859,0.13061 -0.0798,0.48901 0.06922,0.88454 0.229246,0.60841 0.209606,0.69814 -0.230912,1.05507 -0.608623,0.49314 -1.496357,0.50101 -1.934246,0.0171 z"
     id="ball-32"
     sodipodi:nodetypes="csssssssscccssssssscc" />
</svg>
