<?xml version="1.0" encoding="UTF-8" standalone="no"?>
<!-- Created with Inkscape (http://www.inkscape.org/) -->

<svg
   width="79.065552mm"
   height="100.78841mm"
   viewBox="0 0 79.065553 100.78841"
   version="1.1"
   id="svg5"
   sodipodi:docname="skypatrolobjects.svg"
   inkscape:version="1.1 (c68e22c387, 2021-05-23)"
   xmlns:inkscape="http://www.inkscape.org/namespaces/inkscape"
   xmlns:sodipodi="http://sodipodi.sourceforge.net/DTD/sodipodi-0.dtd"
   xmlns="http://www.w3.org/2000/svg"
   xmlns:svg="http://www.w3.org/2000/svg">
  <sodipodi:namedview
     id="namedview7"
     pagecolor="#ffffff"
     bordercolor="#666666"
     borderopacity="1.0"
     inkscape:pageshadow="2"
     inkscape:pageopacity="0.0"
     inkscape:pagecheckerboard="0"
     inkscape:document-units="mm"
     showgrid="false"
     inkscape:zoom="2"
     inkscape:cx="408.5"
     inkscape:cy="192.5"
     inkscape:window-width="3840"
     inkscape:window-height="2126"
     inkscape:window-x="-11"
     inkscape:window-y="-11"
     inkscape:window-maximized="1"
     inkscape:current-layer="layer1"
     showguides="false"
     fit-margin-top="2"
     fit-margin-left="2"
     fit-margin-right="2"
     fit-margin-bottom="2" />
  <defs
     id="defs2" />
  <g
     inkscape:label="Calque 1"
     inkscape:groupmode="layer"
     id="layer1"
     transform="translate(-67.365168,-22.967923)">
    <g
       id="life-1"
       transform="translate(-15.033922,-0.05313377)">
      <path
         id="path12210-4"
         style="fill:#000000;fill-opacity:1;stroke:none;stroke-width:0.999999px;stroke-linecap:butt;stroke-linejoin:miter;stroke-opacity:1"
         d="m 340.69141,94.669922 c -1.66421,1.024286 -2.4801,2.200614 -3.56641,3.830078 -2.83858,-0.769553 -5.65156,-0.495538 -8.25,0.125 -1.1743,-1.498156 -2.06583,-2.347691 -3.75,-3.125 -1.34923,0.936068 -1.77178,2.240998 -1.96094,3.601562 0.17549,0.580974 -0.44481,0.624723 -0.82812,0.828126 -0.27716,0.203712 -1.17097,0.348252 -1.02735,0.591792 0.5011,0.34693 1.00281,0.6941 1.50391,1.04102 -0.25002,0.375 -0.5,0.75 -0.75,1.125 0.55661,-0.048 1.15118,-0.2511 1.68555,-0.20703 L 325.5,103.75 c -3.63913,2.66355 -1.66298,9.29553 0.0176,8.28711 -2.07192,-2.22028 -0.69913,-7.66834 1.88086,-5.63477 0.97094,1.05343 1.05654,2.68625 0.14337,3.63891 -0.0319,0.0333 -0.0586,0.29764 -0.077,0.22499 -0.0609,-0.24094 -0.6651,-0.20557 -0.7675,-0.0207 -0.14371,0.87339 -0.36583,3.45818 0.37241,3.87049 0.22977,1.48265 -0.92412,0.67294 -2.73181,1.24725 -2.60632,-0.49776 -0.61912,2.55391 0.39593,3.35465 4.12353,2.89137 10.89267,4.65328 15.11774,1.65316 1.42013,-0.71646 3.23846,-0.0374 4.64258,0.23438 -0.16906,-0.77186 -0.46747,-1.51008 -0.66406,-2.27539 0.47772,-0.30308 0.99505,-0.45836 1.5625,-0.4375 1.98081,-0.0144 -0.24879,-1.33386 -1.07617,-1.92774 0.68734,-0.33619 0.862,-1.26583 1.22851,-1.9375 -0.50668,-0.41698 -1.18664,-0.36824 -1.79492,-0.52734 0.37482,-1.41734 0.88886,-2.80569 1.17188,-4.24219 1.08855,-4.33121 0.48489,-7.72973 -0.99805,-11.509763 -0.85201,-1.814468 -1.51653,-2.712883 -3.23242,-3.078125 z m -5.2352,20.309018 c -1.93807,0.70757 -2.98943,0.33912 -3.57693,0.21037 -0.84167,-0.27156 -1.26768,-0.60775 -1.5076,-1.09314 -0.63532,-1.77019 -0.33358,-3.67302 0.0821,-5.53443 0.0727,-0.37469 0.19073,-0.72139 0.28907,-1.06641 0.02,-0.0478 0.0399,-0.0943 0.0606,-0.14062 1.3036,-2.06242 3.46336,-2.53683 5.27259,0.0569 0.70232,2.04536 0.66295,7.04743 -0.61988,7.56737 z m 1.13356,3.35304 c -1.08873,2.8493 -5.04272,1.60233 -5.26206,0.19291 2.56905,-0.34242 2.95786,-0.40806 5.26206,-0.19291 z"
         transform="scale(0.26458333)"
         sodipodi:nodetypes="sccccccccccccssccccccccccccccscccccccccccc" />
      <path
         style="fill:#000000;fill-opacity:1;stroke:none;stroke-width:0.264583px;stroke-linecap:butt;stroke-linejoin:miter;stroke-opacity:1"
         d="m 88.390914,29.274794 c 0.368594,0.116365 0.286946,0.692577 0.143529,0.985712 -0.399505,0.217225 -0.387317,-0.645643 -0.316822,-0.937291 0.104243,-0.07921 0.127697,-0.03162 0.173293,-0.04842 z"
         id="path12345-9"
         sodipodi:nodetypes="ccccc" />
    </g>
    <g
       id="enemy-22"
       transform="matrix(1.1967835,0,0,1.1967835,-2.9106375,4.5229677)">
      <path
         style="fill:#000000;fill-opacity:1;stroke:none;stroke-width:0.264583px;stroke-linecap:butt;stroke-linejoin:miter;stroke-opacity:1"
         d="m 89.31889,49.010969 c -0.62326,-0.30245 -0.560174,-0.821667 0.07016,-0.982213 -0.609015,-0.07724 -1.159977,0.102176 -1.650389,0.302886 -0.504373,0.290167 -0.304974,0.494758 0.200448,0.620865 0.527461,0.14957 0.892703,0.147037 1.379781,0.05846 z"
         id="path16104-8-4"
         sodipodi:nodetypes="cccccc" />
      <path
         style="fill:#000000;fill-opacity:1;stroke:none;stroke-width:0.264583px;stroke-linecap:butt;stroke-linejoin:miter;stroke-opacity:1"
         d="m 93.730195,47.625592 c 0.456595,-0.04664 0.818609,0.07024 1.167708,0.202915 0.378098,0.17489 -0.149979,0.560477 -0.333236,0.65735 -0.293437,0.119274 -0.477528,0.109972 -0.818482,0.08276 0.06818,-0.05379 0.141077,-0.10324 0.211951,-0.149317 0.424531,-0.312699 0.124357,-0.676245 -0.227941,-0.793706 z"
         id="path17098-1-9"
         sodipodi:nodetypes="cccccc" />
      <path
         id="path18495-9-0"
         style="fill:#000000;fill-opacity:1;stroke:none;stroke-width:0.999999px;stroke-linecap:butt;stroke-linejoin:miter;stroke-opacity:1"
         d="m 346.33984,180.20898 c -1.58648,0.0163 -3.20157,0.25015 -4.71484,0.75977 -2.23561,0.87074 -4.06874,2.36559 -1.61914,3.61328 0.97751,0.42157 2.09572,0.55335 3.21289,0.60547 l 0.0937,1.875 c -0.89808,0.40131 -1.85809,0.94925 -2.7832,1.59375 -2.51468,1.76305 -3.96366,4.00163 -4.1543,7.40625 -0.0736,2.35779 0.34319,5.18199 3.20312,6.875 -0.40168,0.49294 -0.38149,0.84369 -0.47851,1.32617 -0.0616,1.09432 0.34911,1.72349 1.18164,2.39258 0.47316,0.20587 1.17327,0.65783 1.62891,0.084 0.38888,-0.78417 0.77264,-1.56069 1.33984,-2.24023 2.62418,1.17364 5.67183,1.36932 8.375,-0.46875 1.2093,0.26986 2.28361,1.13826 3.3125,1.78125 0.93325,-0.47256 1.15644,-2.30643 0.8125,-3.67969 -0.15053,-0.47974 -0.42456,-0.88381 -1,-1.35156 1.25136,-2.39232 2.13761,-4.75395 0.86327,-7.82232 -0.98721,-2.25301 -2.60326,-4.70278 -4.64843,-5.46479 -0.89063,-0.34966 -1.77804,-0.62396 -2.77734,-0.68164 L 348,185.09375 c 1.53071,-0.31807 2.8932,-0.53119 4.15625,-1.53125 1.26165,-1.39697 0.72725,-1.95136 -0.71875,-2.65625 -1.53818,-0.45476 -3.29964,-0.71571 -5.09766,-0.69727 z m -0.0937,1.01368 c 2.31532,-0.0174 7.28196,0.38716 4.45703,1.82422 -3.3455,1.06505 -6.57039,1.16491 -9.55664,0.75976 -0.34321,-0.0441 -0.59007,-0.11883 -0.89843,-0.35547 -0.33245,-0.34839 0.0648,-0.76157 0.38672,-0.92383 1.32277,-0.94651 4.09895,-1.13098 5.39648,-1.30273 0.0688,-0.001 0.14016,-0.001 0.21484,-0.002 z m 0.92188,3.95117 0.12109,1.50195 c -1.07127,-0.1587 -2.14899,-0.17875 -3.20508,0.11133 l -0.0996,-1.45899 c 1.06176,-0.0227 2.1292,-0.013 3.18359,-0.15429 z m 6.30078,5.60742 0.31445,0.48633 c 0.85328,3.11543 1.63715,8.36491 -2.45117,9.32422 -1.16599,0.18029 -2.32433,-0.36742 -3.13476,-1.3125 -0.44343,-0.64004 -0.695,-1.88383 0.084,-2.65235 1.5954,-1.49294 3.18517,-3.47766 4.70898,-5.41211 z m -13.90234,1.09766 c 1.66312,2.01301 3.18555,4.09203 5.64453,5.67968 0.86807,0.74489 0.76539,1.2035 0.22656,2.03516 -0.69611,0.86547 -1.5975,1.13413 -2.66992,1.22266 -1.19314,0.22858 -2.10392,-0.28164 -3.02149,-0.87696 -1.17779,-0.99249 -1.4815,-2.42227 -1.53906,-4.29297 0.1705,-1.46957 0.27461,-2.83628 1.35938,-3.76757 z m 14.98047,9.88867 c 0.8639,1.02125 0.74041,1.93069 0.35351,3.11719 -0.68881,-0.58903 -1.44875,-1.0351 -2.27539,-1.39258 0.37225,-0.87218 1.10943,-1.31843 1.92188,-1.72461 z M 340.25,203.32617 c 0.96362,0.0428 1.54806,0.57726 2.14453,1.25977 -0.59298,0.46419 -0.96807,1.07364 -1.38086,1.68945 -1.12318,-0.80519 -1.47872,-1.76855 -0.76367,-2.94922 z"
         transform="scale(0.26458333)"
         sodipodi:nodetypes="scccccccccccccccccccccsccccccscccccccccccccccccccccccccccc" />
    </g>
    <g
       id="enemy-31"
       transform="matrix(1.4310946,0,0,1.4310946,-46.065215,10.1272)">
      <path
         style="fill:#000000;fill-opacity:1;stroke:none;stroke-width:0.264583px;stroke-linecap:butt;stroke-linejoin:miter;stroke-opacity:1"
         d="m 89.31889,49.010969 c -0.62326,-0.30245 -0.560174,-0.821667 0.07016,-0.982213 -0.609015,-0.07724 -1.159977,0.102176 -1.650389,0.302886 -0.504373,0.290167 -0.304974,0.494758 0.200448,0.620865 0.527461,0.14957 0.892703,0.147037 1.379781,0.05846 z"
         id="path16104-8-4-3"
         sodipodi:nodetypes="cccccc" />
      <path
         style="fill:#000000;fill-opacity:1;stroke:none;stroke-width:0.264583px;stroke-linecap:butt;stroke-linejoin:miter;stroke-opacity:1"
         d="m 93.730195,47.625592 c 0.456595,-0.04664 0.818609,0.07024 1.167708,0.202915 0.378098,0.17489 -0.149979,0.560477 -0.333236,0.65735 -0.293437,0.119274 -0.477528,0.109972 -0.818482,0.08276 0.06818,-0.05379 0.141077,-0.10324 0.211951,-0.149317 0.424531,-0.312699 0.124357,-0.676245 -0.227941,-0.793706 z"
         id="path17098-1-9-5"
         sodipodi:nodetypes="cccccc" />
      <path
         id="path18495-9-0-5"
         style="fill:#000000;fill-opacity:1;stroke:none;stroke-width:0.999999px;stroke-linecap:butt;stroke-linejoin:miter;stroke-opacity:1"
         d="m 346.33984,180.20898 c -1.58648,0.0163 -3.20157,0.25015 -4.71484,0.75977 -2.23561,0.87074 -4.06874,2.36559 -1.61914,3.61328 0.97751,0.42157 2.09572,0.55335 3.21289,0.60547 l 0.0937,1.875 c -0.89808,0.40131 -1.85809,0.94925 -2.7832,1.59375 -2.51468,1.76305 -3.96366,4.00163 -4.1543,7.40625 -0.0736,2.35779 0.34319,5.18199 3.20312,6.875 -0.40168,0.49294 -0.38149,0.84369 -0.47851,1.32617 -0.0616,1.09432 0.34911,1.72349 1.18164,2.39258 0.47316,0.20587 1.17327,0.65783 1.62891,0.084 0.38888,-0.78417 0.77264,-1.56069 1.33984,-2.24023 2.62418,1.17364 5.67183,1.36932 8.375,-0.46875 1.2093,0.26986 2.28361,1.13826 3.3125,1.78125 0.93325,-0.47256 1.15644,-2.30643 0.8125,-3.67969 -0.15053,-0.47974 -0.42456,-0.88381 -1,-1.35156 1.25136,-2.39232 2.13761,-4.75395 0.86327,-7.82232 -0.98721,-2.25301 -2.60326,-4.70278 -4.64843,-5.46479 -0.89063,-0.34966 -1.77804,-0.62396 -2.77734,-0.68164 L 348,185.09375 c 1.53071,-0.31807 2.8932,-0.53119 4.15625,-1.53125 1.26165,-1.39697 0.72725,-1.95136 -0.71875,-2.65625 -1.53818,-0.45476 -3.29964,-0.71571 -5.09766,-0.69727 z m -0.0937,1.01368 c 2.31532,-0.0174 7.28196,0.38716 4.45703,1.82422 -3.3455,1.06505 -6.57039,1.16491 -9.55664,0.75976 -0.34321,-0.0441 -0.59007,-0.11883 -0.89843,-0.35547 -0.33245,-0.34839 0.0648,-0.76157 0.38672,-0.92383 1.32277,-0.94651 4.09895,-1.13098 5.39648,-1.30273 0.0688,-0.001 0.14016,-0.001 0.21484,-0.002 z m 0.92188,3.95117 0.12109,1.50195 c -1.07127,-0.1587 -2.14899,-0.17875 -3.20508,0.11133 l -0.0996,-1.45899 c 1.06176,-0.0227 2.1292,-0.013 3.18359,-0.15429 z m 6.30078,5.60742 0.31445,0.48633 c 0.85328,3.11543 1.63715,8.36491 -2.45117,9.32422 -1.16599,0.18029 -2.32433,-0.36742 -3.13476,-1.3125 -0.44343,-0.64004 -0.695,-1.88383 0.084,-2.65235 1.5954,-1.49294 3.18517,-3.47766 4.70898,-5.41211 z m -13.90234,1.09766 c 1.66312,2.01301 3.18555,4.09203 5.64453,5.67968 0.86807,0.74489 0.76539,1.2035 0.22656,2.03516 -0.69611,0.86547 -1.5975,1.13413 -2.66992,1.22266 -1.19314,0.22858 -2.10392,-0.28164 -3.02149,-0.87696 -1.17779,-0.99249 -1.4815,-2.42227 -1.53906,-4.29297 0.1705,-1.46957 0.27461,-2.83628 1.35938,-3.76757 z m 14.98047,9.88867 c 0.8639,1.02125 0.74041,1.93069 0.35351,3.11719 -0.68881,-0.58903 -1.44875,-1.0351 -2.27539,-1.39258 0.37225,-0.87218 1.10943,-1.31843 1.92188,-1.72461 z M 340.25,203.32617 c 0.96362,0.0428 1.54806,0.57726 2.14453,1.25977 -0.59298,0.46419 -0.96807,1.07364 -1.38086,1.68945 -1.12318,-0.80519 -1.47872,-1.76855 -0.76367,-2.94922 z"
         transform="scale(0.26458333)"
         sodipodi:nodetypes="scccccccccccccccccccccsccccccscccccccccccccccccccccccccccc" />
    </g>
    <g
       id="enemy-33"
       transform="matrix(1.4310946,0,0,1.4310946,-2.5786388,9.9139891)">
      <path
         style="fill:#000000;fill-opacity:1;stroke:none;stroke-width:0.264583px;stroke-linecap:butt;stroke-linejoin:miter;stroke-opacity:1"
         d="m 89.31889,49.010969 c -0.62326,-0.30245 -0.560174,-0.821667 0.07016,-0.982213 -0.609015,-0.07724 -1.159977,0.102176 -1.650389,0.302886 -0.504373,0.290167 -0.304974,0.494758 0.200448,0.620865 0.527461,0.14957 0.892703,0.147037 1.379781,0.05846 z"
         id="path16104-8-4-3-9"
         sodipodi:nodetypes="cccccc" />
      <path
         style="fill:#000000;fill-opacity:1;stroke:none;stroke-width:0.264583px;stroke-linecap:butt;stroke-linejoin:miter;stroke-opacity:1"
         d="m 93.730195,47.625592 c 0.456595,-0.04664 0.818609,0.07024 1.167708,0.202915 0.378098,0.17489 -0.149979,0.560477 -0.333236,0.65735 -0.293437,0.119274 -0.477528,0.109972 -0.818482,0.08276 0.06818,-0.05379 0.141077,-0.10324 0.211951,-0.149317 0.424531,-0.312699 0.124357,-0.676245 -0.227941,-0.793706 z"
         id="path17098-1-9-5-2"
         sodipodi:nodetypes="cccccc" />
      <path
         id="path18495-9-0-5-8"
         style="fill:#000000;fill-opacity:1;stroke:none;stroke-width:0.999999px;stroke-linecap:butt;stroke-linejoin:miter;stroke-opacity:1"
         d="m 346.33984,180.20898 c -1.58648,0.0163 -3.20157,0.25015 -4.71484,0.75977 -2.23561,0.87074 -4.06874,2.36559 -1.61914,3.61328 0.97751,0.42157 2.09572,0.55335 3.21289,0.60547 l 0.0937,1.875 c -0.89808,0.40131 -1.85809,0.94925 -2.7832,1.59375 -2.51468,1.76305 -3.96366,4.00163 -4.1543,7.40625 -0.0736,2.35779 0.34319,5.18199 3.20312,6.875 -0.40168,0.49294 -0.38149,0.84369 -0.47851,1.32617 -0.0616,1.09432 0.34911,1.72349 1.18164,2.39258 0.47316,0.20587 1.17327,0.65783 1.62891,0.084 0.38888,-0.78417 0.77264,-1.56069 1.33984,-2.24023 2.62418,1.17364 5.67183,1.36932 8.375,-0.46875 1.2093,0.26986 2.28361,1.13826 3.3125,1.78125 0.93325,-0.47256 1.15644,-2.30643 0.8125,-3.67969 -0.15053,-0.47974 -0.42456,-0.88381 -1,-1.35156 1.25136,-2.39232 2.13761,-4.75395 0.86327,-7.82232 -0.98721,-2.25301 -2.60326,-4.70278 -4.64843,-5.46479 -0.89063,-0.34966 -1.77804,-0.62396 -2.77734,-0.68164 L 348,185.09375 c 1.53071,-0.31807 2.8932,-0.53119 4.15625,-1.53125 1.26165,-1.39697 0.72725,-1.95136 -0.71875,-2.65625 -1.53818,-0.45476 -3.29964,-0.71571 -5.09766,-0.69727 z m -0.0937,1.01368 c 2.31532,-0.0174 7.28196,0.38716 4.45703,1.82422 -3.3455,1.06505 -6.57039,1.16491 -9.55664,0.75976 -0.34321,-0.0441 -0.59007,-0.11883 -0.89843,-0.35547 -0.33245,-0.34839 0.0648,-0.76157 0.38672,-0.92383 1.32277,-0.94651 4.09895,-1.13098 5.39648,-1.30273 0.0688,-0.001 0.14016,-0.001 0.21484,-0.002 z m 0.92188,3.95117 0.12109,1.50195 c -1.07127,-0.1587 -2.14899,-0.17875 -3.20508,0.11133 l -0.0996,-1.45899 c 1.06176,-0.0227 2.1292,-0.013 3.18359,-0.15429 z m 6.30078,5.60742 0.31445,0.48633 c 0.85328,3.11543 1.63715,8.36491 -2.45117,9.32422 -1.16599,0.18029 -2.32433,-0.36742 -3.13476,-1.3125 -0.44343,-0.64004 -0.695,-1.88383 0.084,-2.65235 1.5954,-1.49294 3.18517,-3.47766 4.70898,-5.41211 z m -13.90234,1.09766 c 1.66312,2.01301 3.18555,4.09203 5.64453,5.67968 0.86807,0.74489 0.76539,1.2035 0.22656,2.03516 -0.69611,0.86547 -1.5975,1.13413 -2.66992,1.22266 -1.19314,0.22858 -2.10392,-0.28164 -3.02149,-0.87696 -1.17779,-0.99249 -1.4815,-2.42227 -1.53906,-4.29297 0.1705,-1.46957 0.27461,-2.83628 1.35938,-3.76757 z m 14.98047,9.88867 c 0.8639,1.02125 0.74041,1.93069 0.35351,3.11719 -0.68881,-0.58903 -1.44875,-1.0351 -2.27539,-1.39258 0.37225,-0.87218 1.10943,-1.31843 1.92188,-1.72461 z M 340.25,203.32617 c 0.96362,0.0428 1.54806,0.57726 2.14453,1.25977 -0.59298,0.46419 -0.96807,1.07364 -1.38086,1.68945 -1.12318,-0.80519 -1.47872,-1.76855 -0.76367,-2.94922 z"
         transform="scale(0.26458333)"
         sodipodi:nodetypes="scccccccccccccccccccccsccccccscccccccccccccccccccccccccccc" />
    </g>
    <g
       id="enemy-21"
       transform="matrix(-1.2121987,0,0,1.1886169,199.62254,4.9846493)">
      <path
         style="fill:#000000;fill-opacity:1;stroke:none;stroke-width:0.264583px;stroke-linecap:butt;stroke-linejoin:miter;stroke-opacity:1"
         d="m 89.31889,49.010969 c -0.62326,-0.30245 -0.560174,-0.821667 0.07016,-0.982213 -0.609015,-0.07724 -0.962231,0.05053 -1.452643,0.251239 -0.504373,0.290167 -0.333913,0.553783 0.171509,0.67989 0.527461,0.14957 0.723896,0.139659 1.210974,0.05108 z"
         id="path16104-8-4-8"
         sodipodi:nodetypes="cccccc" />
      <path
         style="fill:#000000;fill-opacity:1;stroke:none;stroke-width:0.264583px;stroke-linecap:butt;stroke-linejoin:miter;stroke-opacity:1"
         d="m 93.730195,47.625592 c 0.456595,-0.04664 0.818609,0.07024 1.167708,0.202915 0.378098,0.17489 -0.149979,0.560477 -0.333236,0.65735 -0.293437,0.119274 -0.477528,0.109972 -0.818482,0.08276 0.06818,-0.05379 0.141077,-0.10324 0.211951,-0.149317 0.424531,-0.312699 0.124357,-0.676245 -0.227941,-0.793706 z"
         id="path17098-1-9-4"
         sodipodi:nodetypes="cccccc" />
      <path
         id="path18495-9-0-0"
         style="fill:#000000;fill-opacity:1;stroke:none;stroke-width:0.999999px;stroke-linecap:butt;stroke-linejoin:miter;stroke-opacity:1"
         d="m 346.33984,180.20898 c -1.58648,0.0163 -3.20157,0.25015 -4.71484,0.75977 -2.23561,0.87074 -4.06874,2.36559 -1.61914,3.61328 0.97751,0.42157 2.09572,0.55335 3.21289,0.60547 l 0.0937,1.875 c -0.89808,0.40131 -1.85809,0.94925 -2.7832,1.59375 -2.51468,1.76305 -3.96366,4.00163 -4.1543,7.40625 -0.0736,2.35779 0.34319,5.18199 3.20312,6.875 -0.40168,0.49294 -0.60062,0.8174 -0.69764,1.29988 -0.0616,1.09432 -0.15359,1.90753 0.67894,2.57662 0.47316,0.20587 0.88161,0.63924 1.33725,0.0654 0.38348,-0.78692 1.41748,-1.31153 2.3351,-1.81238 2.62418,1.17364 5.26168,1.38791 7.96485,-0.45016 1.2093,0.26986 2.28361,1.13826 3.3125,1.78125 0.93325,-0.47256 0.9377,-2.40868 0.59376,-3.78194 -0.16162,-0.478 -0.23916,-0.63689 -0.54428,-1.14706 1.25136,-2.39232 2.32901,-5.4418 1.05467,-8.51017 -0.98721,-2.25301 -2.60326,-4.70278 -4.64843,-5.46479 -0.89063,-0.34966 -1.77804,-0.62396 -2.77734,-0.68164 L 348,185.09375 c 1.53071,-0.31807 2.8932,-0.53119 4.15625,-1.53125 1.26165,-1.39697 0.72725,-1.95136 -0.71875,-2.65625 -1.53818,-0.45476 -3.29964,-0.71571 -5.09766,-0.69727 z m -0.0937,1.01368 c 2.31532,-0.0174 7.28196,0.38716 4.45703,1.82422 -3.3455,1.06505 -6.57039,1.16491 -9.55664,0.75976 -0.34321,-0.0441 -0.59007,-0.11883 -0.89843,-0.35547 -0.33245,-0.34839 0.0648,-0.76157 0.38672,-0.92383 1.32277,-0.94651 4.09895,-1.13098 5.39648,-1.30273 0.0688,-0.001 0.14016,-0.001 0.21484,-0.002 z m 0.92188,3.95117 0.12109,1.50195 c -1.07127,-0.1587 -2.14899,-0.17875 -3.20508,0.11133 l -0.0996,-1.45899 c 1.06176,-0.0227 2.1292,-0.013 3.18359,-0.15429 z m 6.30078,5.60742 0.31445,0.48633 c 0.85328,3.11543 1.63715,8.36491 -2.45117,9.32422 -1.16599,0.18029 -1.84126,-0.0142 -2.65169,-0.95928 -0.44343,-0.64004 -0.695,-1.88383 0.084,-2.65235 1.5954,-1.49294 2.7021,-3.83088 4.22591,-5.76533 z m -13.90234,1.09766 c 1.66312,2.01301 3.18555,4.09203 5.64453,5.67968 0.86807,0.74489 0.76539,1.2035 0.22656,2.03516 -0.69611,0.86547 -1.55883,0.7792 -2.63125,0.86773 -1.19314,0.22858 -2.07814,-0.5314 -2.99571,-1.12672 -1.17779,-0.99249 -1.54595,-1.81758 -1.60351,-3.68828 0.1705,-1.46957 0.27461,-2.83628 1.35938,-3.76757 z m 14.33335,10.37202 c 0.8639,1.02125 0.95915,2.03294 0.57222,3.21944 -0.68881,-0.58903 -1.44875,-1.0351 -2.27539,-1.39258 0.37225,-0.87218 0.89069,-1.42068 1.70314,-1.82686 z M 340.25,203.32617 c 0.96362,0.0428 1.18715,0.38008 1.78362,1.06259 -0.59298,0.46419 -1.32899,1.42857 -1.74178,2.04438 -1.15343,-0.81753 -1.03297,-2.03892 -0.0418,-3.10697 z"
         transform="scale(0.26458333)"
         sodipodi:nodetypes="scccccccccccccccccccccsccccccscccccccccccccccccccccccccccccc" />
    </g>
    <g
       id="enemy-32"
       transform="matrix(-1.5004937,0,0,1.4713034,244.19088,7.9351269)">
      <path
         style="fill:#000000;fill-opacity:1;stroke:none;stroke-width:0.264583px;stroke-linecap:butt;stroke-linejoin:miter;stroke-opacity:1"
         d="m 89.343687,49.145841 c -0.62326,-0.30245 -0.560174,-0.821667 0.07016,-0.982213 -0.609015,-0.07724 -0.962231,0.05053 -1.452643,0.251239 -0.504373,0.290167 -0.333913,0.553783 0.171509,0.67989 0.527461,0.14957 0.723896,0.139659 1.210974,0.05108 z"
         id="path16104-8-4-8-8"
         sodipodi:nodetypes="cccccc" />
      <path
         style="fill:#000000;fill-opacity:1;stroke:none;stroke-width:0.264583px;stroke-linecap:butt;stroke-linejoin:miter;stroke-opacity:1"
         d="m 93.529068,47.766084 c 0.456595,-0.04664 0.818609,0.07024 1.167708,0.202915 0.378098,0.17489 -0.149979,0.560477 -0.333236,0.65735 -0.293437,0.119274 -0.477528,0.109972 -0.818482,0.08276 0.06818,-0.05379 0.141077,-0.10324 0.211951,-0.149317 0.424531,-0.312699 0.124357,-0.676245 -0.227941,-0.793706 z"
         id="path17098-1-9-4-7"
         sodipodi:nodetypes="ccccccc" />
      <path
         id="path18495-9-0-0-7"
         style="fill:#000000;fill-opacity:1;stroke:none;stroke-width:0.999999px;stroke-linecap:butt;stroke-linejoin:miter;stroke-opacity:1"
         d="m 346.33984,180.20898 c -1.58648,0.0163 -3.20157,0.25015 -4.71484,0.75977 -2.23561,0.87074 -4.06874,2.36559 -1.61914,3.61328 0.97751,0.42157 2.09572,0.55335 3.21289,0.60547 l 0.0937,1.875 c -0.89808,0.40131 -1.85809,0.94925 -2.7832,1.59375 -2.51468,1.76305 -3.96366,4.00163 -4.1543,7.40625 -0.0736,2.35779 0.34319,5.18199 3.20312,6.875 -0.40168,0.49294 -0.60062,0.8174 -0.69764,1.29988 -0.0616,1.09432 -0.15359,1.90753 0.67894,2.57662 0.47316,0.20587 0.88161,0.63924 1.33725,0.0654 0.38348,-0.78692 1.41748,-1.31153 2.3351,-1.81238 2.62418,1.17364 5.26168,1.38791 7.96485,-0.45016 1.2093,0.26986 2.28361,1.13826 3.3125,1.78125 0.93325,-0.47256 0.9377,-2.40868 0.59376,-3.78194 -0.16162,-0.478 -0.23916,-0.63689 -0.54428,-1.14706 1.25136,-2.39232 2.32901,-5.4418 1.05467,-8.51017 -0.98721,-2.25301 -2.60326,-4.70278 -4.64843,-5.46479 -0.89063,-0.34966 -1.77804,-0.62396 -2.77734,-0.68164 L 348,185.09375 c 1.53071,-0.31807 2.8932,-0.53119 4.15625,-1.53125 1.26165,-1.39697 0.72725,-1.95136 -0.71875,-2.65625 -1.53818,-0.45476 -3.29964,-0.71571 -5.09766,-0.69727 z m -0.0937,1.01368 c 2.31532,-0.0174 7.28196,0.38716 4.45703,1.82422 -3.3455,1.06505 -6.57039,1.16491 -9.55664,0.75976 -0.34321,-0.0441 -0.59007,-0.11883 -0.89843,-0.35547 -0.33245,-0.34839 0.0648,-0.76157 0.38672,-0.92383 1.32277,-0.94651 4.09895,-1.13098 5.39648,-1.30273 0.0688,-0.001 0.14016,-0.001 0.21484,-0.002 z m 0.92188,3.95117 0.12109,1.50195 c -1.07127,-0.1587 -2.14899,-0.17875 -3.20508,0.11133 l -0.0996,-1.45899 c 1.06176,-0.0227 2.1292,-0.013 3.18359,-0.15429 z m 6.27995,6.59506 0.31445,0.48633 c 0.85328,3.11543 1.65798,7.37727 -2.43034,8.33658 -1.16599,0.18029 -1.84126,-0.0142 -2.65169,-0.95928 -0.44343,-0.64004 -0.695,-1.88383 0.084,-2.65235 1.5954,-1.49294 2.68127,-2.84324 4.20508,-4.77769 z m -13.37126,0.12064 c 1.66312,2.01301 2.6753,4.08141 5.13428,5.66906 0.86807,0.74489 0.76539,1.2035 0.22656,2.03516 -3.27088,2.60237 -6.61081,-1.07463 -6.72022,-3.93665 0.1705,-1.46957 0.27461,-2.83628 1.35938,-3.76757 z m 13.8231,10.3614 c 0.8639,1.02125 0.95915,2.03294 0.57222,3.21944 -0.68881,-0.58903 -1.44875,-1.0351 -2.27539,-1.39258 0.37225,-0.87218 0.89069,-1.42068 1.70314,-1.82686 z M 340.25,203.32617 c 0.96362,0.0428 1.18715,0.38008 1.78362,1.06259 -0.59298,0.46419 -1.32899,1.42857 -1.74178,2.04438 -1.15343,-0.81753 -1.03297,-2.03892 -0.0418,-3.10697 z"
         transform="scale(0.26458333)"
         sodipodi:nodetypes="scccccccccccccccccccccsccccccscccccccccccccccccccccccccccc" />
    </g>
    <g
       id="enemy-23"
       transform="matrix(-1.2121987,0,0,1.1886169,235.81365,4.8168985)">
      <path
         style="fill:#000000;fill-opacity:1;stroke:none;stroke-width:0.264583px;stroke-linecap:butt;stroke-linejoin:miter;stroke-opacity:1"
         d="m 89.31889,49.010969 c -0.62326,-0.30245 -0.560174,-0.821667 0.07016,-0.982213 -0.609015,-0.07724 -0.962231,0.05053 -1.452643,0.251239 -0.504373,0.290167 -0.333913,0.553783 0.171509,0.67989 0.527461,0.14957 0.723896,0.139659 1.210974,0.05108 z"
         id="path16104-8-4-8-0"
         sodipodi:nodetypes="cccccc" />
      <path
         style="fill:#000000;fill-opacity:1;stroke:none;stroke-width:0.264583px;stroke-linecap:butt;stroke-linejoin:miter;stroke-opacity:1"
         d="m 93.730195,47.625592 c 0.456595,-0.04664 0.818609,0.07024 1.167708,0.202915 0.378098,0.17489 -0.149979,0.560477 -0.333236,0.65735 -0.293437,0.119274 -0.477528,0.109972 -0.818482,0.08276 0.06818,-0.05379 0.141077,-0.10324 0.211951,-0.149317 0.424531,-0.312699 0.124357,-0.676245 -0.227941,-0.793706 z"
         id="path17098-1-9-4-5"
         sodipodi:nodetypes="cccccc" />
      <path
         id="path18495-9-0-0-4"
         style="fill:#000000;fill-opacity:1;stroke:none;stroke-width:0.999999px;stroke-linecap:butt;stroke-linejoin:miter;stroke-opacity:1"
         d="m 346.33984,180.20898 c -1.58648,0.0163 -3.20157,0.25015 -4.71484,0.75977 -2.23561,0.87074 -4.06874,2.36559 -1.61914,3.61328 0.97751,0.42157 2.09572,0.55335 3.21289,0.60547 l 0.0937,1.875 c -0.89808,0.40131 -1.85809,0.94925 -2.7832,1.59375 -2.51468,1.76305 -3.96366,4.00163 -4.1543,7.40625 -0.0736,2.35779 0.34319,5.18199 3.20312,6.875 -0.40168,0.49294 -0.60062,0.8174 -0.69764,1.29988 -0.0616,1.09432 -0.15359,1.90753 0.67894,2.57662 0.47316,0.20587 0.88161,0.63924 1.33725,0.0654 0.38348,-0.78692 1.41748,-1.31153 2.3351,-1.81238 2.62418,1.17364 5.26168,1.38791 7.96485,-0.45016 1.2093,0.26986 2.28361,1.13826 3.3125,1.78125 0.93325,-0.47256 0.9377,-2.40868 0.59376,-3.78194 -0.16162,-0.478 -0.23916,-0.63689 -0.54428,-1.14706 1.25136,-2.39232 2.32901,-5.4418 1.05467,-8.51017 -0.98721,-2.25301 -2.60326,-4.70278 -4.64843,-5.46479 -0.89063,-0.34966 -1.77804,-0.62396 -2.77734,-0.68164 L 348,185.09375 c 1.53071,-0.31807 2.8932,-0.53119 4.15625,-1.53125 1.26165,-1.39697 0.72725,-1.95136 -0.71875,-2.65625 -1.53818,-0.45476 -3.29964,-0.71571 -5.09766,-0.69727 z m -0.0937,1.01368 c 2.31532,-0.0174 7.28196,0.38716 4.45703,1.82422 -3.3455,1.06505 -6.57039,1.16491 -9.55664,0.75976 -0.34321,-0.0441 -0.59007,-0.11883 -0.89843,-0.35547 -0.33245,-0.34839 0.0648,-0.76157 0.38672,-0.92383 1.32277,-0.94651 4.09895,-1.13098 5.39648,-1.30273 0.0688,-0.001 0.14016,-0.001 0.21484,-0.002 z m 0.92188,3.95117 0.12109,1.50195 c -1.07127,-0.1587 -2.14899,-0.17875 -3.20508,0.11133 l -0.0996,-1.45899 c 1.06176,-0.0227 2.1292,-0.013 3.18359,-0.15429 z m 6.30078,5.60742 0.31445,0.48633 c 0.85328,3.11543 1.63715,8.36491 -2.45117,9.32422 -1.16599,0.18029 -1.84126,-0.0142 -2.65169,-0.95928 -0.44343,-0.64004 -0.695,-1.88383 0.084,-2.65235 1.5954,-1.49294 2.7021,-3.83088 4.22591,-5.76533 z m -13.90234,1.09766 c 1.66312,2.01301 3.18555,4.09203 5.64453,5.67968 0.86807,0.74489 0.76539,1.2035 0.22656,2.03516 -0.69611,0.86547 -1.55883,0.7792 -2.63125,0.86773 -1.19314,0.22858 -2.07814,-0.5314 -2.99571,-1.12672 -1.17779,-0.99249 -1.54595,-1.81758 -1.60351,-3.68828 0.1705,-1.46957 0.27461,-2.83628 1.35938,-3.76757 z m 14.33335,10.37202 c 0.8639,1.02125 0.95915,2.03294 0.57222,3.21944 -0.68881,-0.58903 -1.44875,-1.0351 -2.27539,-1.39258 0.37225,-0.87218 0.89069,-1.42068 1.70314,-1.82686 z M 340.25,203.32617 c 0.96362,0.0428 1.18715,0.38008 1.78362,1.06259 -0.59298,0.46419 -1.32899,1.42857 -1.74178,2.04438 -1.15343,-0.81753 -1.03297,-2.03892 -0.0418,-3.10697 z"
         transform="scale(0.26458333)"
         sodipodi:nodetypes="scccccccccccccccccccccsccccccscccccccccccccccccccccccccccccc" />
    </g>
    <path
       style="fill:#000000;fill-opacity:1;stroke:none;stroke-width:0.264583px;stroke-linecap:butt;stroke-linejoin:miter;stroke-opacity:1"
       d="m 122.43568,32.152384 0.0165,-7.102409 6.46576,2.877344 -5.78776,2.14974 -0.0165,2.058789 z"
       id="level-1" />
    <path
       style="fill:#000000;fill-opacity:1;stroke:none;stroke-width:0.264583px;stroke-linecap:butt;stroke-linejoin:miter;stroke-opacity:1"
       d="m 137.86316,32.070332 0.0165,-7.102409 6.46576,2.877344 -5.78776,2.14974 -0.0165,2.058789 z"
       id="level-3" />
    <path
       style="fill:#000000;fill-opacity:1;stroke:none;stroke-width:0.264583px;stroke-linecap:butt;stroke-linejoin:miter;stroke-opacity:1"
       d="m 130.17648,32.105613 0.0165,-7.102409 6.46576,2.877344 -5.78776,2.14974 -0.0165,2.058789 z"
       id="level-2" />
    <g
       id="life-3">
      <path
         id="path12210"
         style="fill:#000000;fill-opacity:1;stroke:none;stroke-width:0.999999px;stroke-linecap:butt;stroke-linejoin:miter;stroke-opacity:1"
         d="m 340.69141,94.669922 c -1.66421,1.024286 -2.4801,2.200614 -3.56641,3.830078 -2.83858,-0.769553 -5.65156,-0.495538 -8.25,0.125 -1.1743,-1.498156 -2.06583,-2.347691 -3.75,-3.125 -1.34923,0.936068 -1.77178,2.240998 -1.96094,3.601562 0.17549,0.580974 -0.44481,0.624723 -0.82812,0.828126 -0.27716,0.203712 -1.17097,0.348252 -1.02735,0.591792 0.5011,0.34693 1.00281,0.6941 1.50391,1.04102 -0.25002,0.375 -0.5,0.75 -0.75,1.125 0.55661,-0.048 1.15118,-0.2511 1.68555,-0.20703 L 325.5,103.75 c -3.63913,2.66355 -1.66298,9.29553 0.0176,8.28711 -2.07192,-2.22028 -0.69913,-7.66834 1.88086,-5.63477 0.97094,1.05343 1.05654,2.68625 0.14337,3.63891 -0.0319,0.0333 -0.0586,0.29764 -0.077,0.22499 -0.0609,-0.24094 -0.6651,-0.20557 -0.7675,-0.0207 -0.14371,0.87339 -0.36583,3.45818 0.37241,3.87049 0.22977,1.48265 -0.92412,0.67294 -2.73181,1.24725 -2.60632,-0.49776 -0.61912,2.55391 0.39593,3.35465 4.12353,2.89137 10.89267,4.65328 15.11774,1.65316 1.42013,-0.71646 3.23846,-0.0374 4.64258,0.23438 -0.16906,-0.77186 -0.46747,-1.51008 -0.66406,-2.27539 0.47772,-0.30308 0.99505,-0.45836 1.5625,-0.4375 1.98081,-0.0144 -0.24879,-1.33386 -1.07617,-1.92774 0.68734,-0.33619 0.862,-1.26583 1.22851,-1.9375 -0.50668,-0.41698 -1.18664,-0.36824 -1.79492,-0.52734 0.37482,-1.41734 0.88886,-2.80569 1.17188,-4.24219 1.08855,-4.33121 0.48489,-7.72973 -0.99805,-11.509763 -0.85201,-1.814468 -1.51653,-2.712883 -3.23242,-3.078125 z m -5.2352,20.309018 c -1.93807,0.70757 -2.98943,0.33912 -3.57693,0.21037 -0.84167,-0.27156 -1.26768,-0.60775 -1.5076,-1.09314 -0.63532,-1.77019 -0.33358,-3.67302 0.0821,-5.53443 0.0727,-0.37469 0.19073,-0.72139 0.28907,-1.06641 0.02,-0.0478 0.0399,-0.0943 0.0606,-0.14062 1.3036,-2.06242 3.46336,-2.53683 5.27259,0.0569 0.70232,2.04536 0.66295,7.04743 -0.61988,7.56737 z m 1.13356,3.35304 c -1.08873,2.8493 -5.04272,1.60233 -5.26206,0.19291 2.56905,-0.34242 2.95786,-0.40806 5.26206,-0.19291 z"
         transform="scale(0.26458333)"
         sodipodi:nodetypes="sccccccccccccssccccccccccccccscccccccccccc" />
      <path
         style="fill:#000000;fill-opacity:1;stroke:none;stroke-width:0.264583px;stroke-linecap:butt;stroke-linejoin:miter;stroke-opacity:1"
         d="m 88.390914,29.274794 c 0.368594,0.116365 0.286946,0.692577 0.143529,0.985712 -0.399505,0.217225 -0.387317,-0.645643 -0.316822,-0.937291 0.104243,-0.07921 0.127697,-0.03162 0.173293,-0.04842 z"
         id="path12345"
         sodipodi:nodetypes="ccccc" />
    </g>
    <g
       id="life-2"
       transform="translate(-7.6673054,-0.02974664)">
      <path
         id="path12210-3"
         style="fill:#000000;fill-opacity:1;stroke:none;stroke-width:0.999999px;stroke-linecap:butt;stroke-linejoin:miter;stroke-opacity:1"
         d="m 340.69141,94.669922 c -1.66421,1.024286 -2.4801,2.200614 -3.56641,3.830078 -2.83858,-0.769553 -5.65156,-0.495538 -8.25,0.125 -1.1743,-1.498156 -2.06583,-2.347691 -3.75,-3.125 -1.34923,0.936068 -1.77178,2.240998 -1.96094,3.601562 0.17549,0.580974 -0.44481,0.624723 -0.82812,0.828126 -0.27716,0.203712 -1.17097,0.348252 -1.02735,0.591792 0.5011,0.34693 1.00281,0.6941 1.50391,1.04102 -0.25002,0.375 -0.5,0.75 -0.75,1.125 0.55661,-0.048 1.15118,-0.2511 1.68555,-0.20703 L 325.5,103.75 c -3.63913,2.66355 -1.66298,9.29553 0.0176,8.28711 -2.07192,-2.22028 -0.69913,-7.66834 1.88086,-5.63477 0.97094,1.05343 1.05654,2.68625 0.14337,3.63891 -0.0319,0.0333 -0.0586,0.29764 -0.077,0.22499 -0.0609,-0.24094 -0.6651,-0.20557 -0.7675,-0.0207 -0.14371,0.87339 -0.36583,3.45818 0.37241,3.87049 0.22977,1.48265 -0.92412,0.67294 -2.73181,1.24725 -2.60632,-0.49776 -0.61912,2.55391 0.39593,3.35465 4.12353,2.89137 10.89267,4.65328 15.11774,1.65316 1.42013,-0.71646 3.23846,-0.0374 4.64258,0.23438 -0.16906,-0.77186 -0.46747,-1.51008 -0.66406,-2.27539 0.47772,-0.30308 0.99505,-0.45836 1.5625,-0.4375 1.98081,-0.0144 -0.24879,-1.33386 -1.07617,-1.92774 0.68734,-0.33619 0.862,-1.26583 1.22851,-1.9375 -0.50668,-0.41698 -1.18664,-0.36824 -1.79492,-0.52734 0.37482,-1.41734 0.88886,-2.80569 1.17188,-4.24219 1.08855,-4.33121 0.48489,-7.72973 -0.99805,-11.509763 -0.85201,-1.814468 -1.51653,-2.712883 -3.23242,-3.078125 z m -5.2352,20.309018 c -1.93807,0.70757 -2.98943,0.33912 -3.57693,0.21037 -0.84167,-0.27156 -1.26768,-0.60775 -1.5076,-1.09314 -0.63532,-1.77019 -0.33358,-3.67302 0.0821,-5.53443 0.0727,-0.37469 0.19073,-0.72139 0.28907,-1.06641 0.02,-0.0478 0.0399,-0.0943 0.0606,-0.14062 1.3036,-2.06242 3.46336,-2.53683 5.27259,0.0569 0.70232,2.04536 0.66295,7.04743 -0.61988,7.56737 z m 1.13356,3.35304 c -1.08873,2.8493 -5.04272,1.60233 -5.26206,0.19291 2.56905,-0.34242 2.95786,-0.40806 5.26206,-0.19291 z"
         transform="scale(0.26458333)"
         sodipodi:nodetypes="sccccccccccccssccccccccccccccscccccccccccc" />
      <path
         style="fill:#000000;fill-opacity:1;stroke:none;stroke-width:0.264583px;stroke-linecap:butt;stroke-linejoin:miter;stroke-opacity:1"
         d="m 88.390914,29.274794 c 0.368594,0.116365 0.286946,0.692577 0.143529,0.985712 -0.399505,0.217225 -0.387317,-0.645643 -0.316822,-0.937291 0.104243,-0.07921 0.127697,-0.03162 0.173293,-0.04842 z"
         id="path12345-85"
         sodipodi:nodetypes="ccccc" />
    </g>
    <g
       id="enemy-11">
      <path
         style="fill:#000000;fill-opacity:1;stroke:none;stroke-width:0.264583px;stroke-linecap:butt;stroke-linejoin:miter;stroke-opacity:1"
         d="m 89.31889,49.010969 c -0.62326,-0.30245 -0.560174,-0.821667 0.07016,-0.982213 -0.609015,-0.07724 -1.159977,0.102176 -1.650389,0.302886 -0.504373,0.290167 -0.304974,0.494758 0.200448,0.620865 0.527461,0.14957 0.892703,0.147037 1.379781,0.05846 z"
         id="path16104"
         sodipodi:nodetypes="cccccc" />
      <path
         style="fill:#000000;fill-opacity:1;stroke:none;stroke-width:0.264583px;stroke-linecap:butt;stroke-linejoin:miter;stroke-opacity:1"
         d="m 93.730195,47.625592 c 0.456595,-0.04664 0.818609,0.07024 1.167708,0.202915 0.378098,0.17489 -0.149979,0.560477 -0.333236,0.65735 -0.293437,0.119274 -0.477528,0.109972 -0.818482,0.08276 0.06818,-0.05379 0.141077,-0.10324 0.211951,-0.149317 0.424531,-0.312699 0.124357,-0.676245 -0.227941,-0.793706 z"
         id="path17098"
         sodipodi:nodetypes="cccccc" />
      <path
         id="path18495"
         style="fill:#000000;fill-opacity:1;stroke:none;stroke-width:0.999999px;stroke-linecap:butt;stroke-linejoin:miter;stroke-opacity:1"
         d="m 346.33984,180.20898 c -1.58648,0.0163 -3.20157,0.25015 -4.71484,0.75977 -2.23561,0.87074 -4.06874,2.36559 -1.61914,3.61328 0.97751,0.42157 2.09572,0.55335 3.21289,0.60547 l 0.0937,1.875 c -0.89808,0.40131 -1.85809,0.94925 -2.7832,1.59375 -2.51468,1.76305 -3.96366,4.00163 -4.1543,7.40625 -0.0736,2.35779 0.34319,5.18199 3.20312,6.875 -0.40168,0.49294 -0.38149,0.84369 -0.47851,1.32617 -0.0616,1.09432 0.34911,1.72349 1.18164,2.39258 0.47316,0.20587 1.17327,0.65783 1.62891,0.084 0.38888,-0.78417 0.77264,-1.56069 1.33984,-2.24023 2.62418,1.17364 5.67183,1.36932 8.375,-0.46875 1.2093,0.26986 2.28361,1.13826 3.3125,1.78125 0.93325,-0.47256 1.15644,-2.30643 0.8125,-3.67969 -0.15053,-0.47974 -0.42456,-0.88381 -1,-1.35156 1.25136,-2.39232 2.13761,-4.75395 0.86327,-7.82232 -0.98721,-2.25301 -2.60326,-4.70278 -4.64843,-5.46479 -0.89063,-0.34966 -1.77804,-0.62396 -2.77734,-0.68164 L 348,185.09375 c 1.53071,-0.31807 2.8932,-0.53119 4.15625,-1.53125 1.26165,-1.39697 0.72725,-1.95136 -0.71875,-2.65625 -1.53818,-0.45476 -3.29964,-0.71571 -5.09766,-0.69727 z m -0.0937,1.01368 c 2.31532,-0.0174 7.28196,0.38716 4.45703,1.82422 -3.3455,1.06505 -6.57039,1.16491 -9.55664,0.75976 -0.34321,-0.0441 -0.59007,-0.11883 -0.89843,-0.35547 -0.33245,-0.34839 0.0648,-0.76157 0.38672,-0.92383 1.32277,-0.94651 4.09895,-1.13098 5.39648,-1.30273 0.0688,-0.001 0.14016,-0.001 0.21484,-0.002 z m 0.92188,3.95117 0.12109,1.50195 c -1.07127,-0.1587 -2.14899,-0.17875 -3.20508,0.11133 l -0.0996,-1.45899 c 1.06176,-0.0227 2.1292,-0.013 3.18359,-0.15429 z m 6.30078,5.60742 0.31445,0.48633 c 0.85328,3.11543 1.63715,8.36491 -2.45117,9.32422 -1.16599,0.18029 -2.32433,-0.36742 -3.13476,-1.3125 -0.44343,-0.64004 -0.695,-1.88383 0.084,-2.65235 1.5954,-1.49294 3.18517,-3.47766 4.70898,-5.41211 z m -13.90234,1.09766 c 1.66312,2.01301 3.18555,4.09203 5.64453,5.67968 0.86807,0.74489 0.76539,1.2035 0.22656,2.03516 -0.69611,0.86547 -1.5975,1.13413 -2.66992,1.22266 -1.19314,0.22858 -2.10392,-0.28164 -3.02149,-0.87696 -1.17779,-0.99249 -1.4815,-2.42227 -1.53906,-4.29297 0.1705,-1.46957 0.27461,-2.83628 1.35938,-3.76757 z m 14.98047,9.88867 c 0.8639,1.02125 0.74041,1.93069 0.35351,3.11719 -0.68881,-0.58903 -1.44875,-1.0351 -2.27539,-1.39258 0.37225,-0.87218 1.10943,-1.31843 1.92188,-1.72461 z M 340.25,203.32617 c 0.96362,0.0428 1.54806,0.57726 2.14453,1.25977 -0.59298,0.46419 -0.96807,1.07364 -1.38086,1.68945 -1.12318,-0.80519 -1.47872,-1.76855 -0.76367,-2.94922 z"
         transform="scale(0.26458333)"
         sodipodi:nodetypes="scccccccccccccccccccccsccccccscccccccccccccccccccccccccccc" />
    </g>
    <g
       id="enemy-13"
       transform="translate(29.88227,-0.02781522)">
      <path
         style="fill:#000000;fill-opacity:1;stroke:none;stroke-width:0.264583px;stroke-linecap:butt;stroke-linejoin:miter;stroke-opacity:1"
         d="m 89.31889,49.010969 c -0.62326,-0.30245 -0.560174,-0.821667 0.07016,-0.982213 -0.609015,-0.07724 -1.159977,0.102176 -1.650389,0.302886 -0.504373,0.290167 -0.304974,0.494758 0.200448,0.620865 0.527461,0.14957 0.892703,0.147037 1.379781,0.05846 z"
         id="path16104-8"
         sodipodi:nodetypes="cccccc" />
      <path
         style="fill:#000000;fill-opacity:1;stroke:none;stroke-width:0.264583px;stroke-linecap:butt;stroke-linejoin:miter;stroke-opacity:1"
         d="m 93.730195,47.625592 c 0.456595,-0.04664 0.818609,0.07024 1.167708,0.202915 0.378098,0.17489 -0.149979,0.560477 -0.333236,0.65735 -0.293437,0.119274 -0.477528,0.109972 -0.818482,0.08276 0.06818,-0.05379 0.141077,-0.10324 0.211951,-0.149317 0.424531,-0.312699 0.124357,-0.676245 -0.227941,-0.793706 z"
         id="path17098-1"
         sodipodi:nodetypes="cccccc" />
      <path
         id="path18495-9"
         style="fill:#000000;fill-opacity:1;stroke:none;stroke-width:0.999999px;stroke-linecap:butt;stroke-linejoin:miter;stroke-opacity:1"
         d="m 346.33984,180.20898 c -1.58648,0.0163 -3.20157,0.25015 -4.71484,0.75977 -2.23561,0.87074 -4.06874,2.36559 -1.61914,3.61328 0.97751,0.42157 2.09572,0.55335 3.21289,0.60547 l 0.0937,1.875 c -0.89808,0.40131 -1.85809,0.94925 -2.7832,1.59375 -2.51468,1.76305 -3.96366,4.00163 -4.1543,7.40625 -0.0736,2.35779 0.34319,5.18199 3.20312,6.875 -0.40168,0.49294 -0.38149,0.84369 -0.47851,1.32617 -0.0616,1.09432 0.34911,1.72349 1.18164,2.39258 0.47316,0.20587 1.17327,0.65783 1.62891,0.084 0.38888,-0.78417 0.77264,-1.56069 1.33984,-2.24023 2.62418,1.17364 5.67183,1.36932 8.375,-0.46875 1.2093,0.26986 2.28361,1.13826 3.3125,1.78125 0.93325,-0.47256 1.15644,-2.30643 0.8125,-3.67969 -0.15053,-0.47974 -0.42456,-0.88381 -1,-1.35156 1.25136,-2.39232 2.13761,-4.75395 0.86327,-7.82232 -0.98721,-2.25301 -2.60326,-4.70278 -4.64843,-5.46479 -0.89063,-0.34966 -1.77804,-0.62396 -2.77734,-0.68164 L 348,185.09375 c 1.53071,-0.31807 2.8932,-0.53119 4.15625,-1.53125 1.26165,-1.39697 0.72725,-1.95136 -0.71875,-2.65625 -1.53818,-0.45476 -3.29964,-0.71571 -5.09766,-0.69727 z m -0.0937,1.01368 c 2.31532,-0.0174 7.28196,0.38716 4.45703,1.82422 -3.3455,1.06505 -6.57039,1.16491 -9.55664,0.75976 -0.34321,-0.0441 -0.59007,-0.11883 -0.89843,-0.35547 -0.33245,-0.34839 0.0648,-0.76157 0.38672,-0.92383 1.32277,-0.94651 4.09895,-1.13098 5.39648,-1.30273 0.0688,-0.001 0.14016,-0.001 0.21484,-0.002 z m 0.92188,3.95117 0.12109,1.50195 c -1.07127,-0.1587 -2.14899,-0.17875 -3.20508,0.11133 l -0.0996,-1.45899 c 1.06176,-0.0227 2.1292,-0.013 3.18359,-0.15429 z m 6.30078,5.60742 0.31445,0.48633 c 0.85328,3.11543 1.63715,8.36491 -2.45117,9.32422 -1.16599,0.18029 -2.32433,-0.36742 -3.13476,-1.3125 -0.44343,-0.64004 -0.695,-1.88383 0.084,-2.65235 1.5954,-1.49294 3.18517,-3.47766 4.70898,-5.41211 z m -13.90234,1.09766 c 1.66312,2.01301 3.18555,4.09203 5.64453,5.67968 0.86807,0.74489 0.76539,1.2035 0.22656,2.03516 -0.69611,0.86547 -1.5975,1.13413 -2.66992,1.22266 -1.19314,0.22858 -2.10392,-0.28164 -3.02149,-0.87696 -1.17779,-0.99249 -1.4815,-2.42227 -1.53906,-4.29297 0.1705,-1.46957 0.27461,-2.83628 1.35938,-3.76757 z m 14.98047,9.88867 c 0.8639,1.02125 0.74041,1.93069 0.35351,3.11719 -0.68881,-0.58903 -1.44875,-1.0351 -2.27539,-1.39258 0.37225,-0.87218 1.10943,-1.31843 1.92188,-1.72461 z M 340.25,203.32617 c 0.96362,0.0428 1.54806,0.57726 2.14453,1.25977 -0.59298,0.46419 -0.96807,1.07364 -1.38086,1.68945 -1.12318,-0.80519 -1.47872,-1.76855 -0.76367,-2.94922 z"
         transform="scale(0.26458333)"
         sodipodi:nodetypes="scccccccccccccccccccccsccccccscccccccccccccccccccccccccccc" />
    </g>
    <g
       id="enemy-12"
       transform="matrix(-1,0,0,1,198.18089,0.04497865)">
      <path
         style="fill:#000000;fill-opacity:1;stroke:none;stroke-width:0.264583px;stroke-linecap:butt;stroke-linejoin:miter;stroke-opacity:1"
         d="m 89.31889,49.010969 c -0.62326,-0.30245 -0.560174,-0.821667 0.07016,-0.982213 -0.609015,-0.07724 -1.159977,0.102176 -1.650389,0.302886 -0.504373,0.290167 -0.304974,0.494758 0.200448,0.620865 0.527461,0.14957 0.892703,0.147037 1.379781,0.05846 z"
         id="path16104-8-6"
         sodipodi:nodetypes="cccccc" />
      <path
         style="fill:#000000;fill-opacity:1;stroke:none;stroke-width:0.264583px;stroke-linecap:butt;stroke-linejoin:miter;stroke-opacity:1"
         d="m 93.730195,47.625592 c 0.456595,-0.04664 0.818609,0.07024 1.167708,0.202915 0.378098,0.17489 -0.149979,0.560477 -0.333236,0.65735 -0.293437,0.119274 -0.477528,0.109972 -0.818482,0.08276 0.06818,-0.05379 0.141077,-0.10324 0.211951,-0.149317 0.424531,-0.312699 0.124357,-0.676245 -0.227941,-0.793706 z"
         id="path17098-1-7"
         sodipodi:nodetypes="cccccc" />
      <path
         id="path18495-9-8"
         style="fill:#000000;fill-opacity:1;stroke:none;stroke-width:0.999999px;stroke-linecap:butt;stroke-linejoin:miter;stroke-opacity:1"
         d="m 346.33984,180.20898 c -1.58648,0.0163 -3.20157,0.25015 -4.71484,0.75977 -2.23561,0.87074 -4.06874,2.36559 -1.61914,3.61328 0.97751,0.42157 2.09572,0.55335 3.21289,0.60547 l 0.0937,1.875 c -0.89808,0.40131 -1.85809,0.94925 -2.7832,1.59375 -2.51468,1.76305 -3.96366,4.00163 -4.1543,7.40625 -0.0736,2.35779 0.34319,5.18199 3.20312,6.875 -0.40168,0.49294 -0.38149,0.84369 -0.47851,1.32617 -0.0616,1.09432 0.34911,1.72349 1.18164,2.39258 0.47316,0.20587 1.17327,0.65783 1.62891,0.084 0.38888,-0.78417 0.77264,-1.56069 1.33984,-2.24023 2.62418,1.17364 5.67183,1.36932 8.375,-0.46875 1.2093,0.26986 2.28361,1.13826 3.3125,1.78125 0.93325,-0.47256 1.15644,-2.30643 0.8125,-3.67969 -0.15053,-0.47974 -0.42456,-0.88381 -1,-1.35156 1.25136,-2.39232 2.13761,-4.75395 0.86327,-7.82232 -0.98721,-2.25301 -2.60326,-4.70278 -4.64843,-5.46479 -0.89063,-0.34966 -1.77804,-0.62396 -2.77734,-0.68164 L 348,185.09375 c 1.53071,-0.31807 2.8932,-0.53119 4.15625,-1.53125 1.26165,-1.39697 0.72725,-1.95136 -0.71875,-2.65625 -1.53818,-0.45476 -3.29964,-0.71571 -5.09766,-0.69727 z m -0.0937,1.01368 c 2.31532,-0.0174 7.28196,0.38716 4.45703,1.82422 -3.3455,1.06505 -6.57039,1.16491 -9.55664,0.75976 -0.34321,-0.0441 -0.59007,-0.11883 -0.89843,-0.35547 -0.33245,-0.34839 0.0648,-0.76157 0.38672,-0.92383 1.32277,-0.94651 4.09895,-1.13098 5.39648,-1.30273 0.0688,-0.001 0.14016,-0.001 0.21484,-0.002 z m 0.92188,3.95117 0.12109,1.50195 c -1.07127,-0.1587 -2.14899,-0.17875 -3.20508,0.11133 l -0.0996,-1.45899 c 1.06176,-0.0227 2.1292,-0.013 3.18359,-0.15429 z m 6.30078,5.60742 0.31445,0.48633 c 0.85328,3.11543 1.63715,8.36491 -2.45117,9.32422 -1.16599,0.18029 -2.32433,-0.36742 -3.13476,-1.3125 -0.44343,-0.64004 -0.695,-1.88383 0.084,-2.65235 1.5954,-1.49294 3.18517,-3.47766 4.70898,-5.41211 z m -13.90234,1.09766 c 1.66312,2.01301 3.18555,4.09203 5.64453,5.67968 0.86807,0.74489 0.76539,1.2035 0.22656,2.03516 -0.69611,0.86547 -1.5975,1.13413 -2.66992,1.22266 -1.19314,0.22858 -2.10392,-0.28164 -3.02149,-0.87696 -1.17779,-0.99249 -1.4815,-2.42227 -1.53906,-4.29297 0.1705,-1.46957 0.27461,-2.83628 1.35938,-3.76757 z m 14.98047,9.88867 c 0.8639,1.02125 0.74041,1.93069 0.35351,3.11719 -0.68881,-0.58903 -1.44875,-1.0351 -2.27539,-1.39258 0.37225,-0.87218 1.10943,-1.31843 1.92188,-1.72461 z M 340.25,203.32617 c 0.96362,0.0428 1.54806,0.57726 2.14453,1.25977 -0.59298,0.46419 -0.96807,1.07364 -1.38086,1.68945 -1.12318,-0.80519 -1.47872,-1.76855 -0.76367,-2.94922 z"
         transform="scale(0.26458333)"
         sodipodi:nodetypes="scccccccccccccccccccccsccccccscccccccccccccccccccccccccccc" />
    </g>
    <path
       style="fill:none;stroke:#000000;stroke-width:0.4;stroke-linecap:butt;stroke-linejoin:round;stroke-miterlimit:4;stroke-dasharray:none;stroke-opacity:1"
       d="m 90.8257,56.319538 c -0.477995,0.548521 -1.03822,0.951219 -1.672103,1.292079 l 0.572958,-0.04093 c 0.323265,0.03643 0.418801,-0.0047 0.456026,0.304017 -0.0058,0.02923 -0.397565,0.713277 -0.397565,0.713277 0.326419,-0.142556 0.675127,-0.181706 1.023141,-0.239707 0.09151,0.565511 0.08526,1.342352 0.418525,1.816333 0.150926,-0.658117 0.454535,-1.25045 0.739085,-1.857259 0.485805,0.24443 0.826421,0.476976 1.145918,0.882825 -0.118737,-0.402396 -0.158101,-0.812803 -0.198787,-1.22777 0.448861,0.06108 0.775612,0.320891 1.145918,0.561266 -0.646731,-0.516313 -0.90122,-1.136225 -1.216075,-1.870888 -0.22044,-0.460774 -0.329495,-0.906844 -0.805251,-1.056174 -0.557911,0.04378 -0.804825,0.352026 -1.21179,0.722931 z"
       id="projectile-11"
       sodipodi:nodetypes="cccccccccccccc" />
    <path
       style="fill:none;stroke:#000000;stroke-width:0.425;stroke-linecap:butt;stroke-linejoin:miter;stroke-miterlimit:4;stroke-dasharray:none;stroke-opacity:1"
       d="m 87.604976,71.983861 c -0.582157,0.668051 -1.770344,1.207161 -2.2323,1.638834 l 0.893636,-0.115044 c 0.393709,0.04437 0.510064,-0.0057 0.555401,0.370267 -0.0071,0.0356 -0.864224,1.23704 -0.864224,1.23704 0.39755,-0.173621 1.20227,-0.589633 1.626121,-0.660273 0.111451,0.688743 0.103839,1.634868 0.509727,2.212136 0.183815,-0.801529 0.553584,-1.52294 0.900142,-2.26198 0.591668,0.297694 1.006509,0.580915 1.395628,1.075204 -0.003,-0.448901 -0.123127,-0.999842 -0.242105,-1.495318 0.546674,0.07439 0.799934,0.428025 1.304678,0.704245 -0.315774,-0.499498 -1.03061,-1.368565 -1.390123,-2.299251 -0.268477,-0.561182 -0.401296,-1.104457 -0.980726,-1.286328 -0.679487,0.05332 -0.980207,0.428737 -1.475855,0.880468 z"
       id="projectile-21"
       sodipodi:nodetypes="cccccccccccccc" />
    <path
       style="fill:none;stroke:#000000;stroke-width:0.488329;stroke-linecap:butt;stroke-linejoin:miter;stroke-miterlimit:4;stroke-dasharray:none;stroke-opacity:1"
       d="m 84.835395,90.783645 c -0.668904,0.767597 -2.034142,1.387039 -2.564934,1.883035 l 1.026796,-0.132186 c 0.452376,0.05098 0.586069,-0.0065 0.638161,0.42544 -0.0082,0.0409 -0.993001,1.42137 -0.993001,1.42137 0.456788,-0.199492 1.381419,-0.677494 1.868428,-0.75866 0.128058,0.791372 0.119312,1.878479 0.585681,2.541765 0.211205,-0.920964 0.636073,-1.749872 1.034271,-2.599036 0.679832,0.342053 1.156488,0.667477 1.60359,1.235419 -0.0034,-0.515791 -0.141474,-1.148827 -0.278181,-1.718134 0.628133,0.08548 0.919131,0.491805 1.499087,0.809184 -0.362827,-0.573928 -1.18418,-1.572494 -1.597264,-2.64186 -0.308483,-0.644804 -0.461093,-1.269032 -1.126863,-1.478003 -0.780737,0.06127 -1.126267,0.492623 -1.695771,1.011666 z"
       id="projectile-31"
       sodipodi:nodetypes="cccccccccccccc" />
    <path
       style="fill:none;stroke:#000000;stroke-width:0.488329;stroke-linecap:butt;stroke-linejoin:miter;stroke-miterlimit:4;stroke-dasharray:none;stroke-opacity:1"
       d="m 128.86109,90.672122 c 0.66891,0.767597 2.03415,1.387039 2.56494,1.883035 l -1.0268,-0.132186 c -0.45237,0.05098 -0.58607,-0.0065 -0.63816,0.42544 0.008,0.0409 0.993,1.42137 0.993,1.42137 -0.45679,-0.199492 -1.38142,-0.677494 -1.86843,-0.75866 -0.12805,0.791372 0.24317,2.030489 -0.2232,2.693775 -0.2112,-0.920964 -0.99855,-1.901882 -1.39675,-2.751046 -0.67983,0.342053 -1.15649,0.667477 -1.60359,1.235419 0.003,-0.515791 0.14148,-1.148827 0.27818,-1.718134 -0.62813,0.08548 -0.91913,0.491805 -1.49908,0.809184 0.36282,-0.573928 1.18418,-1.572494 1.59726,-2.64186 0.30848,-0.644804 0.46109,-1.269032 1.12686,-1.478003 0.78074,0.06127 1.12627,0.492623 1.69577,1.011666 z"
       id="projectile-33"
       sodipodi:nodetypes="cccccccccccccc" />
    <path
       style="fill:none;stroke:#000000;stroke-width:0.425;stroke-linecap:butt;stroke-linejoin:miter;stroke-miterlimit:4;stroke-dasharray:none;stroke-opacity:1"
       d="m 105.32606,72.132562 c -0.47665,0.751978 -1.12633,1.318397 -1.5879,1.778843 l 0.67779,-0.07132 c 0.39582,-0.01737 0.76023,-0.0323 0.60621,0.279426 -0.001,0.03626 -0.39247,0.724924 -0.39247,0.724924 0.36572,-0.233311 0.84459,-0.605661 1.2523,-0.741331 0.21717,0.663045 0.33919,2.066573 0.82988,2.573725 0.057,-0.820358 0.3218,-1.426779 0.54926,-2.210708 0.63075,0.202097 0.93842,0.212757 1.39964,0.640547 -0.0727,-0.442978 -0.32383,-0.904234 -0.51839,-1.375191 0.5516,-0.0115 1.038,0.275082 1.57954,0.46948 -0.38958,-0.444338 -1.40623,-1.185868 -1.90605,-2.049352 -0.35245,-0.512624 -0.56811,-1.028647 -1.16877,-1.118232 -0.66294,0.158301 -0.90164,0.575903 -1.32104,1.099191 z"
       id="projectile-22"
       sodipodi:nodetypes="ccccccccccccccc" />
    <path
       style="fill:none;stroke:#000000;stroke-width:0.491787;stroke-linecap:butt;stroke-linejoin:miter;stroke-miterlimit:4;stroke-dasharray:none;stroke-opacity:1"
       d="m 105.15313,91.017343 c -0.55155,0.870148 -1.30333,1.525578 -1.83743,2.058381 l 0.7843,-0.08253 c 0.45802,-0.0201 0.8797,-0.03738 0.70147,0.323336 -10e-4,0.04196 -0.45414,0.838843 -0.45414,0.838843 0.42319,-0.269975 0.97731,-0.700838 1.44909,-0.857828 0.2513,0.76724 0.39249,2.391327 0.96029,2.978176 0.066,-0.949274 0.37237,-1.650992 0.63558,-2.558112 0.72987,0.233855 1.08589,0.246191 1.61959,0.741206 -0.0841,-0.51259 -0.37472,-1.046331 -0.59986,-1.591297 0.63829,-0.01331 1.20112,0.31831 1.82776,0.543257 -0.4508,-0.514164 -1.42877,-1.512782 -2.00714,-2.511959 -0.40783,-0.593181 -0.65738,-1.190295 -1.35243,-1.293958 -0.76712,0.183177 -1.24177,0.806964 -1.72708,1.412485 z"
       id="projectile-32"
       sodipodi:nodetypes="cccccccccccccc" />
    <path
       style="fill:none;stroke:#000000;stroke-width:0.425;stroke-linecap:butt;stroke-linejoin:miter;stroke-miterlimit:4;stroke-dasharray:none;stroke-opacity:1"
       d="m 123.08199,72.301239 c -0.29252,0.840893 -1.04724,1.768611 -1.39158,2.32222 l 0.81904,-0.358546 c 0.89078,-0.116266 0.4902,0.377035 0.37877,1.063567 0.30285,-0.310597 0.60229,-0.66545 0.96829,-0.890561 0.36272,0.596011 0.88358,1.817754 1.47704,2.19958 -0.13167,-0.811727 -0.0122,-1.462568 0.0304,-2.277717 0.66022,0.05286 1.11422,0.308712 1.66088,0.620039 -0.17185,-0.414709 -0.6736,-1.122217 -0.97048,-1.536364 0.53443,-0.137044 1.07338,0.03101 1.64499,0.09673 -0.48068,-0.343736 -1.50522,-1.061776 -2.18886,-1.788453 -0.46011,-0.418693 -0.78782,-0.871903 -1.39307,-0.822086 -0.60934,0.305376 -0.74647,0.766423 -1.03542,1.371596 z"
       id="projectile-23"
       sodipodi:nodetypes="cccccccccccccc" />
    <path
       style="fill:none;stroke:#000000;stroke-width:0.4;stroke-linecap:butt;stroke-linejoin:round;stroke-miterlimit:4;stroke-dasharray:none;stroke-opacity:1"
       d="m 105.64025,56.313582 c -0.40671,0.649578 -0.91602,1.15952 -1.50789,1.616371 l 0.57129,-0.133318 c 0.33041,-0.01292 0.42099,-0.07108 0.50043,0.246177 -0.002,0.03151 -0.30336,0.809317 -0.30336,0.809317 0.30926,-0.200748 0.65503,-0.296791 0.9975,-0.412452 0.16894,0.577433 0.26822,1.391477 0.66815,1.834931 0.0626,-0.712638 0.28771,-1.380531 0.49176,-2.060566 0.52231,0.17911 0.89684,0.36871 1.27364,0.743031 -0.17422,-0.402409 -0.26961,-0.825735 -0.36695,-1.253626 0.46021,-0.007 0.82447,0.213374 1.22993,0.406481 -0.72126,-0.438259 -1.06168,-1.046889 -1.4785,-1.766085 -0.28453,-0.447448 -0.45494,-0.897095 -0.9542,-0.978259 -0.55575,0.133921 -0.76247,0.495531 -1.1218,0.947996 z"
       id="projectile-12"
       sodipodi:nodetypes="cccccccccccccc" />
    <path
       style="fill:none;stroke:#000000;stroke-width:0.399;stroke-linecap:butt;stroke-linejoin:round;stroke-miterlimit:4;stroke-dasharray:none;stroke-opacity:1"
       d="m 120.42284,56.64368 c -0.24422,0.668402 -0.62145,1.234854 -1.0918,1.772114 l 0.52639,-0.244315 c 0.31952,-0.08409 0.54045,-0.307815 0.69265,-0.04246 0.005,0.02857 -0.25187,0.940113 -0.25187,0.940113 0.2547,-0.246883 0.67489,-0.548755 0.98205,-0.727082 0.30084,0.477652 0.65367,1.47386 1.14843,1.781364 -0.10665,-0.649023 -0.049,-1.189166 -0.01,-1.840208 0.55208,0.04497 1.00238,0.319335 1.45834,0.570271 -0.26478,-0.320471 -0.66216,-1.121239 -0.85789,-1.481309 0.44767,-0.107274 0.85514,0.0091 1.29645,0.09224 -0.8073,-0.232285 -1.2829,-0.700088 -1.85908,-1.249689 -0.38309,-0.336393 -0.65527,-0.699812 -1.16181,-0.662517 -0.51106,0.241443 -0.62777,0.609207 -0.87211,1.091479 z"
       id="projectile-13"
       sodipodi:nodetypes="ccccccccccccccc" />
    <g
       id="tails-right">
      <path
         style="fill:#000000;fill-opacity:1;stroke:none;stroke-width:0.264583px;stroke-linecap:butt;stroke-linejoin:miter;stroke-opacity:1"
         d="m 132.04952,99.729953 c 0.31559,-0.927566 0.95579,-1.465442 1.82412,-1.847501 0.73104,1.408971 0.58751,3.019658 0.57297,4.560288 -0.19928,0.97956 -0.54521,1.90688 -0.88867,2.84141 0.30339,0.25908 0.50159,0.222 0.87698,0.18706 l -0.14032,-0.5145 0.39756,-0.31571 -0.10523,-0.58465 0.31571,-0.19878 -0.1754,-0.65481 0.3508,-0.0702 0.21047,0.91206 -0.37418,0.18708 0.11693,0.65481 -0.39756,0.22217 0.17539,0.56127 c -0.60051,0.41103 -1.05439,0.34216 -1.69549,0.10523 -0.27078,0.40112 -0.36899,0.44461 -0.81851,0.42094 -0.41511,-0.0754 -0.69174,0.16506 -1.12253,0.25722 -0.3317,0.39662 -0.59911,0.37232 -1.08745,0.39759 -0.5274,0.0387 -0.75643,-0.0901 -1.14592,-0.39759 -0.40694,-0.34465 -0.7804,-0.3091 -1.22193,-0.28061 l -0.86528,-0.0819 0.31571,-0.73666 -0.53788,-0.5145 0.39756,-0.67819 -0.42094,-0.59635 0.84774,-0.47356 -0.006,0.4151 -0.36248,0.11693 0.37418,0.58465 -0.37418,0.5028 0.38587,0.57296 -0.14032,0.38587 c 0.50318,0.0686 0.78382,0.15342 1.14008,-0.0351 -0.43728,-0.96888 -0.57177,-2.05831 -0.52617,-2.94665 -0.76568,-0.86005 -0.89581,-1.82045 -0.95887,-2.923257 -0.0162,-0.673571 0.01,-1.384182 0.67821,-1.683797 0.85859,0.248019 1.39103,0.935956 1.96443,1.578559 l 0.59555,0.650365 c 0.66707,-0.641783 -0.16638,-1.59642 -0.502,-2.018451 0.86677,-0.162139 1.56431,0.988488 1.59027,1.508403 0.38947,0.560388 0.97131,0.626048 1.60195,0.724928 -0.0292,-0.4028 -0.4004,-0.580458 -0.725,-0.748355 z"
         id="path35038"
         sodipodi:nodetypes="ccccccccccccccccccccccccccccccccccccccccccccc" />
      <path
         style="fill:#000000;fill-opacity:1;stroke:none;stroke-width:0.264583px;stroke-linecap:butt;stroke-linejoin:miter;stroke-opacity:1"
         d="m 131.71515,106.64573 c -0.7391,0.48032 -0.90767,1.67864 -1.65345,2.29834 -1.79502,0.53835 -1.92449,-1.01154 -1.46163,-2.19833 h -0.90036 l -1.43825,0.10523 -0.60803,0.15201 c -0.17732,0.6103 0.67117,0.8181 1.13418,1.06407 0.5325,0.31431 1.00079,0.70206 1.46408,1.1036 0.60055,0.61481 0.004,1.37221 -0.36488,1.4104 -1.21316,0.12017 -1.77115,-1.11557 -2.7011,-1.30968 -0.37236,1.37246 1.02119,2.54341 1.82412,3.23898 1.31479,0.81781 2.7659,1.32588 4.20949,1.85919 1.98304,0.45476 3.14296,0.31333 4.09551,-0.69285 0.78852,-0.82925 0.95638,-1.3893 0.93249,-2.49935 -0.13925,-1.07988 -0.59121,-2.05934 -1.62534,-2.49939 0.29277,0.56925 0.83663,1.06406 0.81851,1.71596 -0.90172,-0.57154 -1.83792,-0.18688 -2.03463,0.67816 0.72391,-0.2993 1.13966,-0.64152 1.4719,-0.0529 0.61375,1.24904 -0.55261,1.81213 -1.41347,1.59642 -0.46102,-0.31104 -0.35796,-1.06681 -0.0701,-1.38275 -0.15498,0.0309 -0.26605,0.13691 -0.36778,0.27388 -0.38177,0.47066 -0.15324,1.17354 0.0871,1.51813 0.37,0.39292 0.88358,0.42001 1.39147,0.49116 -0.31505,0.63282 -1.16178,0.56341 -1.78904,0.63142 -1.1192,-0.17419 -1.68192,-1.1164 -1.8358,-2.22169 -0.0407,-1.44565 0.76212,-2.55044 1.91769,-3.32082 0.45131,-0.24349 0.8424,-0.19853 1.34045,-0.2598 -0.18207,-0.44865 -0.43422,-0.83636 -0.73785,-1.20391 -0.37788,-0.53301 -0.95372,-0.66544 -1.52163,-0.57739 z"
         id="path35831"
         sodipodi:nodetypes="cccccccccccccccccccccccccccccc" />
      <path
         style="fill:#000000;fill-opacity:1;stroke:none;stroke-width:0.264583px;stroke-linecap:butt;stroke-linejoin:miter;stroke-opacity:1"
         d="m 134.6125,107.99401 h 0.0837 c 1.12637,-0.94085 2.57212,-2.27301 3.58569,-3.23605 l -0.36248,-0.29233 c -1.08979,-0.13552 -1.86567,0.17847 -2.56078,0.9822 -0.0658,0.61141 -0.22318,0.92656 -0.68531,1.10342 -0.39568,0.13601 -0.84956,0.0724 -1.13317,0.30318 0.32782,0.20432 0.5278,0.52508 0.75558,0.82155 0.089,0.17752 0.23552,0.3217 0.31675,0.31803 z"
         id="path37243"
         sodipodi:nodetypes="cccccccccc" />
      <path
         style="fill:#000000;fill-opacity:1;stroke:none;stroke-width:0.264583px;stroke-linecap:butt;stroke-linejoin:miter;stroke-opacity:1"
         d="m 127.79801,109.24874 c -1.64096,-1.01391 -3.4295,-1.9443 -5.11462,-2.73682 -0.66006,0.24146 0.26784,0.71772 0.59635,0.94715 1.34433,0.81979 2.57796,1.58371 3.80377,2.38299 0.65,0.5388 1.20865,-0.13379 0.7145,-0.59332 z"
         id="path37983"
         sodipodi:nodetypes="ccccc" />
      <path
         style="fill:#000000;fill-opacity:1;stroke:none;stroke-width:0.264583px;stroke-linecap:butt;stroke-linejoin:miter;stroke-opacity:1"
         d="m 130.51188,107.5526 c -0.17554,0.73529 -0.49997,1.18603 -1.09315,1.20339 -0.28846,0.0244 -0.42068,-0.11561 -0.56363,-0.32972 -0.22826,-0.41342 -0.12582,-0.84477 0.0899,-1.31217 0.49419,-0.15715 1.19556,0.22242 1.56687,0.4385 z"
         id="path38635"
         sodipodi:nodetypes="cccccc" />
      <path
         style="fill:#000000;fill-opacity:1;stroke:none;stroke-width:0.264583px;stroke-linecap:butt;stroke-linejoin:miter;stroke-opacity:1"
         d="m 126.30547,112.44792 c 1.13324,0.55034 1.84398,1.15377 2.89388,1.50481 -0.98195,1.54726 -1.73663,3.19456 -2.36472,4.91133 -0.0989,0.154 -0.15685,0.24268 -0.23376,0.28533 -0.18345,-0.0219 -0.53185,-0.009 -0.55865,-0.18132 -0.44185,-2.84606 0.39823,-6.31721 0.26327,-6.52019 z"
         id="path39135"
         sodipodi:nodetypes="ccccscc" />
      <ellipse
         style="fill:none;fill-opacity:1;stroke:#000000;stroke-width:0.222;stroke-linecap:butt;stroke-linejoin:miter;stroke-miterlimit:4;stroke-dasharray:none;stroke-opacity:1"
         id="path39477"
         cx="136.11319"
         cy="114.00011"
         rx="0.40803313"
         ry="0.41690344" />
      <path
         style="fill:none;stroke:#000000;stroke-width:0.365;stroke-linecap:butt;stroke-linejoin:miter;stroke-miterlimit:4;stroke-dasharray:none;stroke-opacity:1"
         d="m 139.35273,112.47272 c -0.85325,0.0866 -1.25643,0.37776 -1.83554,0.94258 -0.86901,1.57946 -0.2807,3.14063 1.1615,3.85265 1.9864,0.66791 3.95544,0.98715 5.54406,-0.0658 -0.60047,-2.43461 -3.00911,-4.31669 -4.86999,-4.72943 z"
         id="path39636"
         sodipodi:nodetypes="cccccc" />
      <ellipse
         style="fill:#000000;fill-opacity:1;stroke:#000000;stroke-width:0.265572;stroke-linecap:butt;stroke-linejoin:miter;stroke-miterlimit:4;stroke-dasharray:none;stroke-opacity:1"
         id="path40367"
         cx="195.71246"
         cy="-78.553841"
         rx="0.46670318"
         ry="0.24318591"
         transform="matrix(0.44605239,0.89500685,-0.64668694,0.76275553,0,0)" />
    </g>
    <g
       id="tails-left"
       transform="matrix(-1,0,0,1,213.79589,0.08905117)">
      <path
         style="fill:#000000;fill-opacity:1;stroke:none;stroke-width:0.264583px;stroke-linecap:butt;stroke-linejoin:miter;stroke-opacity:1"
         d="m 132.04952,99.729953 c 0.31559,-0.927566 0.95579,-1.465442 1.82412,-1.847501 0.73104,1.408971 0.58751,3.019658 0.57297,4.560288 -0.19928,0.97956 -0.54521,1.90688 -0.88867,2.84141 0.30339,0.25908 0.50159,0.222 0.87698,0.18706 l -0.14032,-0.5145 0.39756,-0.31571 -0.10523,-0.58465 0.31571,-0.19878 -0.1754,-0.65481 0.3508,-0.0702 0.21047,0.91206 -0.37418,0.18708 0.11693,0.65481 -0.39756,0.22217 0.17539,0.56127 c -0.60051,0.41103 -1.05439,0.34216 -1.69549,0.10523 -0.27078,0.40112 -0.36899,0.44461 -0.81851,0.42094 -0.41511,-0.0754 -0.69174,0.16506 -1.12253,0.25722 -0.3317,0.39662 -0.59911,0.37232 -1.08745,0.39759 -0.5274,0.0387 -0.75643,-0.0901 -1.14592,-0.39759 -0.40694,-0.34465 -0.7804,-0.3091 -1.22193,-0.28061 l -0.86528,-0.0819 0.31571,-0.73666 -0.53788,-0.5145 0.39756,-0.67819 -0.42094,-0.59635 0.84774,-0.47356 -0.006,0.4151 -0.36248,0.11693 0.37418,0.58465 -0.37418,0.5028 0.38587,0.57296 -0.14032,0.38587 c 0.50318,0.0686 0.78382,0.15342 1.14008,-0.0351 -0.43728,-0.96888 -0.57177,-2.05831 -0.52617,-2.94665 -0.76568,-0.86005 -0.89581,-1.82045 -0.95887,-2.923257 -0.0162,-0.673571 0.01,-1.384182 0.67821,-1.683797 0.85859,0.248019 1.39103,0.935956 1.96443,1.578559 l 0.59555,0.650365 c 0.66707,-0.641783 -0.16638,-1.59642 -0.502,-2.018451 0.86677,-0.162139 1.56431,0.988488 1.59027,1.508403 0.38947,0.560388 0.97131,0.626048 1.60195,0.724928 -0.0292,-0.4028 -0.4004,-0.580458 -0.725,-0.748355 z"
         id="path35038-3"
         sodipodi:nodetypes="ccccccccccccccccccccccccccccccccccccccccccccc" />
      <path
         style="fill:#000000;fill-opacity:1;stroke:none;stroke-width:0.264583px;stroke-linecap:butt;stroke-linejoin:miter;stroke-opacity:1"
         d="m 131.71515,106.64573 c -0.7391,0.48032 -0.90767,1.67864 -1.65345,2.29834 -1.79502,0.53835 -1.92449,-1.01154 -1.46163,-2.19833 h -0.90036 l -1.43825,0.10523 -0.60803,0.15201 c -0.17732,0.6103 0.67117,0.8181 1.13418,1.06407 0.5325,0.31431 1.00079,0.70206 1.46408,1.1036 0.60055,0.61481 0.004,1.37221 -0.36488,1.4104 -1.21316,0.12017 -1.77115,-1.11557 -2.7011,-1.30968 -0.37236,1.37246 1.02119,2.54341 1.82412,3.23898 1.31479,0.81781 2.7659,1.32588 4.20949,1.85919 1.98304,0.45476 3.14296,0.31333 4.09551,-0.69285 0.78852,-0.82925 0.95638,-1.3893 0.93249,-2.49935 -0.13925,-1.07988 -0.59121,-2.05934 -1.62534,-2.49939 0.29277,0.56925 0.83663,1.06406 0.81851,1.71596 -0.90172,-0.57154 -1.83792,-0.18688 -2.03463,0.67816 0.72391,-0.2993 1.13966,-0.64152 1.4719,-0.0529 0.61375,1.24904 -0.55261,1.81213 -1.41347,1.59642 -0.46102,-0.31104 -0.35796,-1.06681 -0.0701,-1.38275 -0.15498,0.0309 -0.26605,0.13691 -0.36778,0.27388 -0.38177,0.47066 -0.15324,1.17354 0.0871,1.51813 0.37,0.39292 0.88358,0.42001 1.39147,0.49116 -0.31505,0.63282 -1.16178,0.56341 -1.78904,0.63142 -1.1192,-0.17419 -1.68192,-1.1164 -1.8358,-2.22169 -0.0407,-1.44565 0.76212,-2.55044 1.91769,-3.32082 0.45131,-0.24349 0.8424,-0.19853 1.34045,-0.2598 -0.18207,-0.44865 -0.43422,-0.83636 -0.73785,-1.20391 -0.37788,-0.53301 -0.95372,-0.66544 -1.52163,-0.57739 z"
         id="path35831-9"
         sodipodi:nodetypes="cccccccccccccccccccccccccccccc" />
      <path
         style="fill:#000000;fill-opacity:1;stroke:none;stroke-width:0.264583px;stroke-linecap:butt;stroke-linejoin:miter;stroke-opacity:1"
         d="m 134.6125,107.99401 h 0.0837 c 1.12637,-0.94085 2.57212,-2.27301 3.58569,-3.23605 l -0.36248,-0.29233 c -1.08979,-0.13552 -1.86567,0.17847 -2.56078,0.9822 -0.0658,0.61141 -0.22318,0.92656 -0.68531,1.10342 -0.39568,0.13601 -0.84956,0.0724 -1.13317,0.30318 0.32782,0.20432 0.5278,0.52508 0.75558,0.82155 0.089,0.17752 0.23552,0.3217 0.31675,0.31803 z"
         id="path37243-1"
         sodipodi:nodetypes="cccccccccc" />
      <path
         style="fill:#000000;fill-opacity:1;stroke:none;stroke-width:0.264583px;stroke-linecap:butt;stroke-linejoin:miter;stroke-opacity:1"
         d="m 127.79801,109.24874 c -1.64096,-1.01391 -3.4295,-1.9443 -5.11462,-2.73682 -0.66006,0.24146 0.26784,0.71772 0.59635,0.94715 1.34433,0.81979 2.57796,1.58371 3.80377,2.38299 0.65,0.5388 1.20865,-0.13379 0.7145,-0.59332 z"
         id="path37983-9"
         sodipodi:nodetypes="ccccc" />
      <path
         style="fill:#000000;fill-opacity:1;stroke:none;stroke-width:0.264583px;stroke-linecap:butt;stroke-linejoin:miter;stroke-opacity:1"
         d="m 130.51188,107.5526 c -0.17554,0.73529 -0.49997,1.18603 -1.09315,1.20339 -0.28846,0.0244 -0.42068,-0.11561 -0.56363,-0.32972 -0.22826,-0.41342 -0.12582,-0.84477 0.0899,-1.31217 0.49419,-0.15715 1.19556,0.22242 1.56687,0.4385 z"
         id="path38635-7"
         sodipodi:nodetypes="cccccc" />
      <path
         style="fill:#000000;fill-opacity:1;stroke:none;stroke-width:0.264583px;stroke-linecap:butt;stroke-linejoin:miter;stroke-opacity:1"
         d="m 126.30547,112.44792 c 1.13324,0.55034 1.84398,1.15377 2.89388,1.50481 -0.98195,1.54726 -1.73663,3.19456 -2.36472,4.91133 -0.0989,0.154 -0.15685,0.24268 -0.23376,0.28533 -0.18345,-0.0219 -0.53185,-0.009 -0.55865,-0.18132 -0.44185,-2.84606 0.39823,-6.31721 0.26327,-6.52019 z"
         id="path39135-1"
         sodipodi:nodetypes="ccccscc" />
      <ellipse
         style="fill:none;fill-opacity:1;stroke:#000000;stroke-width:0.222;stroke-linecap:butt;stroke-linejoin:miter;stroke-miterlimit:4;stroke-dasharray:none;stroke-opacity:1"
         id="path39477-0"
         cx="136.11319"
         cy="114.00011"
         rx="0.40803313"
         ry="0.41690344" />
      <path
         style="fill:none;stroke:#000000;stroke-width:0.365;stroke-linecap:butt;stroke-linejoin:miter;stroke-miterlimit:4;stroke-dasharray:none;stroke-opacity:1"
         d="m 139.35273,112.47272 c -0.85325,0.0866 -1.25643,0.37776 -1.83554,0.94258 -0.86901,1.57946 -0.2807,3.14063 1.1615,3.85265 1.9864,0.66791 3.95544,0.98715 5.54406,-0.0658 -0.60047,-2.43461 -3.00911,-4.31669 -4.86999,-4.72943 z"
         id="path39636-8"
         sodipodi:nodetypes="cccccc" />
      <ellipse
         style="fill:#000000;fill-opacity:1;stroke:#000000;stroke-width:0.265572;stroke-linecap:butt;stroke-linejoin:miter;stroke-miterlimit:4;stroke-dasharray:none;stroke-opacity:1"
         id="path40367-2"
         cx="195.71246"
         cy="-78.553841"
         rx="0.46670318"
         ry="0.24318591"
         transform="matrix(0.44605239,0.89500685,-0.64668694,0.76275553,0,0)" />
    </g>
    <g
       id="tails-center">
      <g
         id="g1512">
        <path
           style="fill:#000000;fill-opacity:1;stroke:none;stroke-width:0.264583px;stroke-linecap:butt;stroke-linejoin:miter;stroke-opacity:1"
           d="m 103.11279,109.53528 c 0.2024,-0.547 0.50228,-0.99555 0.87343,-1.43311 l -3.82778,-2.67945 c -0.0628,-0.0518 -0.0982,-0.0434 -0.1368,-0.0615 -0.283784,0.0127 -0.391081,0.1361 -0.41096,0.3872 0.0095,0.079 0.02409,0.0923 0.03144,0.13375 z"
           id="path46936"
           sodipodi:nodetypes="ccccccc" />
        <path
           style="fill:#000000;fill-opacity:1;stroke:none;stroke-width:0.264583px;stroke-linecap:butt;stroke-linejoin:miter;stroke-opacity:1"
           d="m 110.66364,109.66425 c -0.2024,-0.547 -0.50228,-0.99555 -0.87343,-1.43311 l 3.82778,-2.67945 c 0.0628,-0.0518 0.0982,-0.0434 0.1368,-0.0615 0.28378,0.0127 0.39108,0.1361 0.41096,0.3872 -0.01,0.079 -0.0241,0.0923 -0.0314,0.13375 z"
           id="path46936-7"
           sodipodi:nodetypes="ccccccc" />
        <path
           style="fill:#000000;fill-opacity:1;stroke:none;stroke-width:0.264583px;stroke-linecap:butt;stroke-linejoin:miter;stroke-opacity:1"
           d="m 103.31015,112.58863 c 0.22429,0.49246 0.4516,1.03089 0.97791,1.44893 l -3.01537,3.13511 c -0.47353,0.49391 -0.89431,-0.098 -0.64472,-0.47939 l 0.19316,-0.28786 z"
           id="path47690"
           sodipodi:nodetypes="cccccc" />
        <path
           style="fill:#000000;fill-opacity:1;stroke:none;stroke-width:0.264583px;stroke-linecap:butt;stroke-linejoin:miter;stroke-opacity:1"
           d="m 110.45186,112.66176 c -0.22429,0.49246 -0.4516,1.03089 -0.97791,1.44893 l 3.01537,3.13511 c 0.47353,0.49391 0.89431,-0.098 0.64472,-0.47939 l -0.19316,-0.28786 z"
           id="path47690-1"
           sodipodi:nodetypes="cccccc" />
        <path
           style="fill:none;stroke:#000000;stroke-width:0.365;stroke-linecap:butt;stroke-linejoin:miter;stroke-miterlimit:4;stroke-dasharray:none;stroke-opacity:1"
           d="m 106.5444,114.13463 c -1.02265,-0.006 -1.47425,0.77897 -1.86035,1.88516 -0.3005,1.97814 0.51853,4.44688 2.29857,5.51491 1.84586,-1.47027 2.32857,-3.8369 1.82511,-6.04075 -0.0599,-0.26381 -0.15397,-0.42763 -0.29364,-0.6052 -0.5295,-0.58021 -1.14748,-0.75873 -1.96971,-0.75412 z"
           id="path48277"
           sodipodi:nodetypes="ccccccc" />
      </g>
      <path
         id="path40862"
         style="fill:#000000;fill-opacity:1;stroke:none;stroke-width:0.999999px;stroke-linecap:butt;stroke-linejoin:miter;stroke-opacity:1"
         d="m 416.08203,370.22266 c -2.93399,-0.0916 -5.19295,5.11368 -5.99414,7.05664 -0.95373,4.40635 -0.12158,8.4799 4.75,10.0625 -4.03884,0.79328 -6.38217,-5.07183 -6.96875,-7.03125 -0.55461,-2.57937 0.0682,-1.8412 -2.62695,-3.03125 -0.034,-1.19619 1.08659,-1.8952 1.84375,-2.71875 -1.62694,-0.7618 -3.24892,0.25823 -4.25,1.0625 -0.25021,-1.54628 0.8636,-2.409 1.65625,-3.6875 -2.74485,-0.2185 -3.66326,2.42841 -3.5625,4.25 1.48822,0.0756 1.9429,0.49784 2.84375,1.5625 h -2.25 c -3.11195,0.33902 -5.32255,2.26852 -8.15625,3.3125 0.55491,-1.85583 1.48424,-3.11376 3.37109,-3.5625 -2.1552,-2.62418 -4.3933,-5.70509 -7.91016,-6.27539 -3.63106,5.80318 -0.81911,14.87387 1.32422,19.79882 -2.12836,0.7581 -3.22229,2.27208 -4.63867,3.9336 l 2.8711,1.14844 -1.45704,3.09375 2.78321,0.35351 -0.13282,3.00586 3.97852,0.2207 -0.31055,-1.54687 -2.20898,-0.0879 0.35351,-2.5625 -2.0332,-0.53125 0.92774,-2.29883 -2.03321,-1.67773 c 0.67076,-1.05257 1.09288,-1.1221 2.25391,-1.23829 2.08864,3.74283 3.66889,7.57588 6.89453,9.89844 2.18241,-1.74569 2.66412,-3.42473 5.17188,-2.1875 l -0.0449,0.81836 c -2.2326,0.31484 -3.10712,2.07942 -3.53515,4.11133 -5.68246,1.27124 -12.41447,12.74617 -6.67188,17.63867 0.29029,3.09877 1.32196,5.44361 3.53321,7.15234 l 2.43164,-1.36914 c 3.67124,-2.27629 8.39274,-1.94965 11.84375,0.48633 l 2.16601,1.01563 c 1.66039,-2.28635 3.09218,-4.67682 3.82227,-7.26953 5.04703,-6.99266 -2.39566,-14.75822 -7.84571,-17.56641 0.004,-2.56622 -1.04286,-3.44065 -3.31054,-4.21484 l 0.004,-0.86133 c 2.7179,-1.09263 3.93107,0.68177 5.53321,2.18164 2.91651,-2.57824 4.9174,-5.47433 6.24609,-8.70117 l 1.9375,0.4375 -0.6875,1.09375 0.40625,1.71875 -1.65625,1.125 -0.15625,1.71875 -2.4375,1.21875 -0.0937,0.875 4.75,-0.5625 -0.28125,-2.0625 1.625,-1.125 -0.6875,-2.15625 1.40625,-2.34375 c -0.41767,-1.35009 -1.07734,-1.0914 -2.375,-1.15625 l -1.3125,-0.125 c 0.54539,-2.16121 0.83549,-4.35772 1.125,-6.5625 1.22861,-4.84041 1.82714,-11.95827 -1.9375,-15.8125 -0.096,-0.0143 -0.19246,-0.0224 -0.28711,-0.0254 z m -12.44922,38.54492 c 0.50889,-0.002 1.01134,0.0689 1.53516,0.16015 4.84006,1.40202 11.06509,5.00699 10.28711,13.75977 -0.64241,1.809 -2.56265,4.69226 -3.69141,6.20898 l -1.67969,-0.92773 1.49024,-3.36719 c 2.33839,-5.78948 -3.99486,-11.04415 -8.60547,-10.24414 -5.13868,1.16376 -7.0122,4.45615 -6.98242,8.99219 -0.13229,1.65381 0.75461,2.89422 1.41406,4.44141 l -1.85547,1.01757 c -1.3869,-1.40715 -1.77183,-3.26974 -2.38672,-5.08203 0,0 -0.53125,-1.68065 -0.53125,-1.85742 -0.8112,-4.9533 2.08129,-10.93966 9.43164,-12.83203 0.54968,-0.19523 1.06534,-0.26793 1.57422,-0.26953 z m 0.27539,8.85937 c 2.86178,-7.5e-4 5.67943,2.74139 3.51758,8.22071 -0.52864,0.72003 -0.79459,1.06389 -1.7832,0.77929 -1.4874,-0.20107 -2.79445,-0.29331 -4.29492,-0.0937 -0.72227,0.0987 -0.6911,0.31538 -1.22461,-0.66601 -1.9825,-5.49519 0.92338,-8.23948 3.78515,-8.24024 z"
         transform="scale(0.26458333)" />
    </g>
  </g>
</svg>
