<svg xmlns="http://www.w3.org/2000/svg" xmlns:svg="http://www.w3.org/2000/svg" id="svg5" width="761" height="1013" version="1.1" viewBox="0 0 201.348 268.023"><path style="fill:#000;stroke-width:.264584" id="cream-left" d="m 32.558215,258.5572 c -1.70584,-1.25812 -4.72199,-2.02888 -6.08542,-2.18277 -1.36821,0.0878 -4.76603,-1.36248 -5.30252,-3.42203 -1.44383,-1.48877 -1.50274,-4.83873 0.70585,-6.00576 2.43878,-0.39691 4.87331,1.31342 7.37711,0.22065 1.87587,-0.25878 5.14697,-0.56184 6.08312,-1.50849 -0.24205,-0.45298 1.81011,-0.90357 -0.046,-1.40448 -1.63483,-0.33823 0.068,-3.79632 -2.5786,-3.22573 -2.5559,-0.0187 -4.62834,2.5761 -7.2806,1.64488 -1.9119,-0.55266 -3.52109,-1.91722 -4.4999,-3.43868 -1.74697,-1.26295 -2.87065,-3.51582 -2.43466,-5.73512 -0.96339,-1.81718 -4.51526,-0.66764 -3.86996,-3.7309 -0.60638,-1.33529 0.13994,-3.95046 0.49992,-5.75836 0.24027,-0.89531 1.7412,-3.37977 3.39045,-2.00221 1.05051,0.17604 3.28406,3.44921 3.67363,0.96855 -1.54297,-2.47793 1.90594,-5.99045 3.49224,-3.06497 0.67022,0.60167 0.79104,2.08519 1.27204,0.2424 0.16332,-2.87599 0.43083,-5.9367 2.28989,-8.2772 1.09273,-2.42917 4.51822,-3.15003 4.76865,-6.13729 1.6905,-1.87785 4.76108,-3.25175 7.1793,-1.98766 -0.8523,1.17364 -5.19013,0.28328 -5.98509,2.93772 -0.64336,2.66802 3.6143,0.48493 4.41024,-0.66246 1.97046,-0.86526 3.56426,-2.07779 5.76143,-2.33266 2.78592,-0.42143 5.93545,-0.36232 8.08721,1.7274 1.93872,1.30729 3.63915,3.05238 4.03149,5.44403 0.50858,1.51771 1.18808,5.77934 -0.45792,5.71518 -0.58689,-2.69307 0.1127,-5.98772 -2.16179,-8.02796 -1.65767,-2.05669 -3.99646,-3.87081 -6.77598,-3.73273 -2.87258,-0.17703 -5.68334,0.52617 -7.80406,2.49626 -2.1391,1.15792 -1.94621,4.47294 0.45284,5.15603 0.36146,1.62415 1.12175,2.00504 0.68526,4.09094 4.8e-4,1.00261 -0.4882,2.572 -0.20046,3.33393 1.11181,-0.33607 2.94086,0.1767 0.87404,0.86729 -1.76593,0.64688 -5.0013,2.82853 -3.17323,4.77622 1.99935,1.04411 0.52852,5.77206 3.30128,4.81755 1.30149,-0.32398 2.55096,-3.65276 3.68176,-1.97288 -0.44362,1.95822 -2.9147,2.99586 -4.28489,3.47773 -2.08795,1.09497 -4.65636,0.37048 -6.79462,1.234 1.09886,1.99929 4.46598,-0.0131 6.49477,0.28967 1.13129,-0.29859 1.96149,-1.59707 3.13382,-0.28271 1.11381,1.24389 2.9391,2.27834 2.44307,-0.29673 0.13614,-2.70397 0.28365,-5.44028 0.9826,-8.06518 0.38145,-2.12806 0.8072,-4.1476 1.72831,-6.24239 2.04109,-1.08592 4.61016,-2.02281 6.59388,-0.12518 1.66505,0.9041 0.71315,3.9259 1.05525,5.73458 0.81287,2.10843 3.26472,3.576 2.95096,6.14482 0.36996,2.59106 -0.67535,4.96517 -2.29553,6.92636 -1.72369,0.75077 -3.55876,1.71929 -5.54734,1.59342 -0.65004,-0.56297 -3.29438,-1.36869 -3.98576,-2.53543 -0.91032,0.16741 -1.7436,0.41307 -0.93634,0.90631 -1.62541,1.95729 -2.83319,4.31608 -4.90135,5.83802 -1.68885,0.42344 -2.51155,2.01372 -2.6813,3.23006 -0.72154,1.79908 -0.31012,4.51245 -0.54204,6.65358 0.85408,4.4477 -3.15806,7.75029 -6.77503,5.69038 z m 5.35625,-2.11712 c 1.94126,-2.24593 -1.7557,-3.43021 -2.94615,-4.48585 -1.94991,-1.24667 -2.6347,-5.32993 -5.82072,-3.62629 -2.59583,0.49099 -1.53019,3.68191 -0.50975,5.31435 0.9367,2.30617 3.68835,3.05774 5.95423,3.22038 1.10653,-0.0317 2.2955,0.063 3.32239,-0.42259 z m 0.002,-4.62735 c 0.9001,-1.3907 0.77915,-3.2708 -0.97118,-3.61535 -0.9315,-0.95383 -2.47978,-1.76733 -2.45392,0.37964 0.14076,1.61794 2.21739,3.9241 3.4251,3.23571 z m 0.55983,-5.58296 c 0.47993,-0.84117 1.323,-2.74537 -0.35058,-1.54787 0.24506,0.75597 -1.70016,2.53616 0.35058,1.54787 z m -11.34243,-4.68362 c 1.9901,-0.062 3.85648,-2.17693 3.61024,-4.14642 0.43663,-2.39951 -1.54018,-5.54755 -4.04894,-5.94211 -1.47107,2.08086 -3.81115,2.38913 -5.93519,1.28855 -2.83713,0.86914 4.0204,3.50325 0.53218,3.30372 -3.12516,-0.8005 0.58246,2.83041 1.30148,3.83629 0.92796,1.0597 3.34471,2.20211 4.54023,1.65997 z m 6.57989,-2.46014 c 0.54638,-1.10992 1.2493,-3.39132 -1.04428,-2.90072 -0.33781,0.89592 -1.05499,4.37805 1.04428,2.90072 z m 14.68054,-2.84716 c -0.10385,-0.9471 -1.41788,-2.27346 -1.75409,-1.89686 -0.0812,0.091 -0.51089,-0.0636 -0.53286,0.12336 -0.0645,0.54883 0.50737,1.68738 0.9804,2.01814 0.31261,0.2186 0.68853,-0.30694 1.30655,-0.24464 z m -14.68021,-2.24742 c 0.67767,-2.60325 -5.19284,-2.79805 -2.63396,-0.35295 0.6558,0.94319 1.72897,0.65437 2.63396,0.35295 z m -9.17549,-2.42171 c 0.61136,-1.45629 2.36469,-1.99278 2.25296,-3.32451 -0.5212,-1.63985 -4.16649,-4.42489 -0.8386,-5.1417 2.44861,0.0385 1.52525,-3.48368 -0.0139,-0.91631 -1.17589,-0.25783 -1.64329,-3.19262 -2.34498,-1.29658 0.0907,2.08553 0.002,4.73695 -2.749,4.52624 -0.54859,1.30961 -1.45969,3.90296 -0.52999,5.79075 1.09903,0.56838 3.11731,1.75151 4.22351,0.36211 z m -5.5029,-0.32882 c -0.12182,-1.07422 -1.9785,-1.75415 -0.18472,-2.19271 0.0372,-1.28086 -2.07615,-1.59028 -0.26166,-2.0756 -0.30946,-2.09315 -3.82545,-1.63852 -2.56799,-0.23152 0.96103,0.13463 -1.33916,2.37755 0.78903,2.64115 1.07475,0.94071 -2.18836,1.46442 0.24199,1.90985 -0.0289,0.83535 1.28552,0.31933 1.98335,-0.0512 z m 19.02499,-0.49855 c 2.14434,-1.56011 0.53936,-6.09034 -2.45127,-5.08185 -2.22648,-0.34441 -4.27855,1.02757 -6.48518,0.11177 -2.15958,-1.50001 -2.67645,1.02588 -0.82539,2.08292 1.67863,1.60749 3.59011,3.24845 5.91096,3.33828 1.23505,0.349 2.68737,0.0269 3.85088,-0.45112 z m -4.71832,-1.58374 c -2.0433,-1.70131 -0.16209,-2.74545 1.66607,-2.04682 3.67264,-0.79541 1.36899,4.68233 -1.10777,2.60101 l -0.25297,-0.23649 z m -13.06604,-3.74046 c 0.54063,-1.3422 -2.96001,-3.78595 -3.92001,-1.82063 0.89254,0.58899 2.82937,2.26375 3.92001,1.82063 z m 12.18396,-0.49775 c 2.21967,-1.6806 3.09269,-4.67977 2.47592,-7.36795 0.0346,-1.6223 -2.00928,-4.6277 -3.30165,-2.30389 -0.54383,2.28018 -0.12858,4.99174 -1.58115,6.86409 -1.60473,1.1781 -0.5971,-1.46671 -0.75828,-2.25881 -0.1413,-2.61298 0.87139,-5.12012 2.385,-7.21317 0.9849,-2.21311 5.4964,-0.41506 4.91951,-3.13567 -1.73136,0.30678 -4.19126,0.84873 -5.68709,2.21161 -1.48851,1.4632 -1.74483,3.01488 -2.43048,4.96254 -0.24881,1.9823 -1.15314,3.88806 -0.11604,5.76664 -1.41761,2.10326 2.1655,2.87131 3.79335,2.52078 l 0.30109,-0.0462 z m 19.99364,31.9771 c -2.13167,-0.79416 -2.28017,-3.23473 -2.66927,-5.0684 -0.8308,-1.84711 -2.21676,-2.93599 -2.9129,-4.83848 -1.3867,-1.2712 -2.13166,-2.8944 -1.95143,-4.78247 0.85079,-0.0983 3.83156,0.2944 1.72032,-1.47545 -0.3997,-1.35943 2.35708,-2.17442 3.57398,-1.58853 2.52848,-0.2016 3.63953,1.43651 3.58778,3.64455 1.48913,3.09673 -3.64088,2.40323 -4.76469,3.8259 0.11888,1.52678 1.10712,3.27592 2.7862,3.64602 2.17001,0.0672 4.17183,-2.31005 3.86947,-4.42047 -0.0661,-2.14684 -0.59997,-4.23921 -0.43962,-6.39909 1.19778,-0.43799 1.87026,1.1304 2.40372,-0.16848 1.63539,1.48518 2.4457,4.0418 2.58372,6.2539 -0.078,4.66166 -0.0379,8.70488 -4.18653,11.45586 -1.13737,0.23181 -2.57849,0.72339 -3.60075,-0.0849 z m -3.00618,-12.42933 c 1.40298,-0.32403 2.76329,-2.04502 1.99678,-2.46602 0.64605,-2.10959 -3.69101,-1.86663 -2.81094,-0.13235 -0.37828,0.92452 -2.37912,3.20965 -0.31815,3.33555 0.27535,-0.36418 0.63491,-0.73206 1.13231,-0.73718 z m 0.093,-28.48132 c -0.26275,-2.03275 -1.03312,-5.88852 -3.71479,-5.42963 -1.37347,0.83117 -5.66603,0.31096 -3.35942,-1.66875 2.20033,-0.80975 5.29249,0.0854 6.62702,2.02803 0.78948,1.20841 2.44822,4.56289 0.44719,5.07035 z"/><path style="fill:#000;stroke-width:.264584" id="cream-right" d="m 164.94844,259.43316 c 1.70584,-1.25812 4.72199,-2.02888 6.08542,-2.18277 1.36821,0.0878 4.76603,-1.36248 5.30252,-3.42203 1.44383,-1.48877 1.50274,-4.83873 -0.70585,-6.00576 -2.43878,-0.39691 -4.87331,1.31342 -7.37711,0.22065 -1.87587,-0.25878 -5.14697,-0.56184 -6.08312,-1.50849 0.24205,-0.45298 -1.81011,-0.90357 0.046,-1.40448 1.63483,-0.33823 -0.068,-3.79632 2.5786,-3.22573 2.5559,-0.0187 4.62834,2.5761 7.2806,1.64488 1.9119,-0.55266 3.52109,-1.91722 4.4999,-3.43868 1.74697,-1.26295 2.87065,-3.51582 2.43466,-5.73512 0.96339,-1.81718 4.51526,-0.66764 3.86996,-3.7309 0.60638,-1.33529 -0.13994,-3.95046 -0.49992,-5.75836 -0.24027,-0.89531 -1.7412,-3.37977 -3.39045,-2.00221 -1.05051,0.17604 -3.28406,3.44921 -3.67363,0.96855 1.54297,-2.47793 -1.90594,-5.99045 -3.49224,-3.06497 -0.67022,0.60167 -0.79104,2.08519 -1.27204,0.2424 -0.16332,-2.87599 -0.43083,-5.9367 -2.28989,-8.2772 -1.09273,-2.42917 -4.51822,-3.15003 -4.76865,-6.13729 -1.6905,-1.87785 -4.76108,-3.25175 -7.1793,-1.98766 0.8523,1.17364 5.19013,0.28328 5.98509,2.93772 0.64336,2.66802 -3.6143,0.48493 -4.41024,-0.66246 -1.97046,-0.86526 -3.56426,-2.07779 -5.76143,-2.33266 -2.78592,-0.42143 -5.93545,-0.36232 -8.08721,1.7274 -1.93872,1.30729 -3.63915,3.05238 -4.03149,5.44403 -0.50858,1.51771 -1.18808,5.77934 0.45792,5.71518 0.58689,-2.69307 -0.1127,-5.98772 2.16179,-8.02796 1.65767,-2.05669 3.99646,-3.87081 6.77598,-3.73273 2.87258,-0.17703 5.68334,0.52617 7.80406,2.49626 2.1391,1.15792 1.94621,4.47294 -0.45284,5.15603 -0.36146,1.62415 -1.12175,2.00504 -0.68526,4.09094 -4.8e-4,1.00261 0.4882,2.572 0.20046,3.33393 -1.11181,-0.33607 -2.94086,0.1767 -0.87404,0.86729 1.76593,0.64688 5.0013,2.82853 3.17323,4.77622 -1.99935,1.04411 -0.52852,5.77206 -3.30128,4.81755 -1.30149,-0.32398 -2.55096,-3.65276 -3.68176,-1.97288 0.44362,1.95822 2.9147,2.99586 4.28489,3.47773 2.08795,1.09497 4.65636,0.37048 6.79462,1.234 -1.09886,1.99929 -4.46598,-0.0131 -6.49477,0.28967 -1.13129,-0.29859 -1.96149,-1.59707 -3.13382,-0.28271 -1.11381,1.24389 -2.9391,2.27834 -2.44307,-0.29673 -0.13614,-2.70397 -0.28365,-5.44028 -0.9826,-8.06518 -0.38145,-2.12806 -0.8072,-4.1476 -1.72831,-6.24239 -2.04109,-1.08592 -4.61016,-2.02281 -6.59388,-0.12518 -1.66505,0.9041 -0.71315,3.9259 -1.05525,5.73458 -0.81287,2.10843 -3.26472,3.576 -2.95096,6.14482 -0.36996,2.59106 0.67535,4.96517 2.29553,6.92636 1.72369,0.75077 3.55876,1.71929 5.54734,1.59342 0.65004,-0.56297 3.29438,-1.36869 3.98576,-2.53543 0.91032,0.16741 1.7436,0.41307 0.93634,0.90631 1.62541,1.95729 2.83319,4.31608 4.90135,5.83802 1.68885,0.42344 2.51155,2.01372 2.6813,3.23006 0.72154,1.79908 0.31012,4.51245 0.54204,6.65358 -0.85408,4.4477 3.15806,7.75029 6.77503,5.69038 z m -5.35625,-2.11712 c -1.94126,-2.24593 1.7557,-3.43021 2.94615,-4.48585 1.94991,-1.24667 2.6347,-5.32993 5.82072,-3.62629 2.59583,0.49099 1.53019,3.68191 0.50975,5.31435 -0.9367,2.30617 -3.68835,3.05774 -5.95423,3.22038 -1.10653,-0.0317 -2.2955,0.063 -3.32239,-0.42259 z m -0.002,-4.62735 c -0.9001,-1.3907 -0.77915,-3.2708 0.97118,-3.61535 0.9315,-0.95383 2.47978,-1.76733 2.45392,0.37964 -0.14076,1.61794 -2.21739,3.9241 -3.4251,3.23571 z m -0.55983,-5.58296 c -0.47993,-0.84117 -1.323,-2.74537 0.35058,-1.54787 -0.24506,0.75597 1.70016,2.53616 -0.35058,1.54787 z m 11.34243,-4.68362 c -1.9901,-0.062 -3.85648,-2.17693 -3.61024,-4.14642 -0.43663,-2.39951 1.54018,-5.54755 4.04894,-5.94211 1.47107,2.08086 3.81115,2.38913 5.93519,1.28855 2.83713,0.86914 -4.0204,3.50325 -0.53218,3.30372 3.12516,-0.8005 -0.58246,2.83041 -1.30148,3.83629 -0.92796,1.0597 -3.34471,2.20211 -4.54023,1.65997 z m -6.57989,-2.46014 c -0.54638,-1.10992 -1.2493,-3.39132 1.04428,-2.90072 0.33781,0.89592 1.05499,4.37805 -1.04428,2.90072 z m -14.68054,-2.84716 c 0.10385,-0.9471 1.41788,-2.27346 1.75409,-1.89686 0.0812,0.091 0.51089,-0.0636 0.53286,0.12336 0.0645,0.54883 -0.50737,1.68738 -0.9804,2.01814 -0.31261,0.2186 -0.68853,-0.30694 -1.30655,-0.24464 z m 14.68021,-2.24742 c -0.67767,-2.60325 5.19284,-2.79805 2.63396,-0.35295 -0.6558,0.94319 -1.72897,0.65437 -2.63396,0.35295 z m 9.17549,-2.42171 c -0.61136,-1.45629 -2.36469,-1.99278 -2.25296,-3.32451 0.5212,-1.63985 4.16649,-4.42489 0.8386,-5.1417 -2.44861,0.0385 -1.52525,-3.48368 0.0139,-0.91631 1.17589,-0.25783 1.64329,-3.19262 2.34498,-1.29658 -0.0907,2.08553 -0.002,4.73695 2.749,4.52624 0.54859,1.30961 1.45969,3.90296 0.52999,5.79075 -1.09903,0.56838 -3.11731,1.75151 -4.22351,0.36211 z m 5.5029,-0.32882 c 0.12182,-1.07422 1.9785,-1.75415 0.18472,-2.19271 -0.0372,-1.28086 2.07615,-1.59028 0.26166,-2.0756 0.30946,-2.09315 3.82545,-1.63852 2.56799,-0.23152 -0.96103,0.13463 1.33916,2.37755 -0.78903,2.64115 -1.07475,0.94071 2.18836,1.46442 -0.24199,1.90985 0.0289,0.83535 -1.28552,0.31933 -1.98335,-0.0512 z m -19.02499,-0.49855 c -2.14434,-1.56011 -0.53936,-6.09034 2.45127,-5.08185 2.22648,-0.34441 4.27855,1.02757 6.48518,0.11177 2.15958,-1.50001 2.67645,1.02588 0.82539,2.08292 -1.67863,1.60749 -3.59011,3.24845 -5.91096,3.33828 -1.23505,0.349 -2.68737,0.0269 -3.85088,-0.45112 z m 4.71832,-1.58374 c 2.0433,-1.70131 0.16209,-2.74545 -1.66607,-2.04682 -3.67264,-0.79541 -1.36899,4.68233 1.10777,2.60101 l 0.25297,-0.23649 z m 13.06604,-3.74046 c -0.54063,-1.3422 2.96001,-3.78595 3.92001,-1.82063 -0.89254,0.58899 -2.82937,2.26375 -3.92001,1.82063 z m -12.18396,-0.49775 c -2.21967,-1.6806 -3.09269,-4.67977 -2.47592,-7.36795 -0.0346,-1.6223 2.00928,-4.6277 3.30165,-2.30389 0.54383,2.28018 0.12858,4.99174 1.58115,6.86409 1.60473,1.1781 0.5971,-1.46671 0.75828,-2.25881 0.1413,-2.61298 -0.87139,-5.12012 -2.385,-7.21317 -0.9849,-2.21311 -5.4964,-0.41506 -4.91951,-3.13567 1.73136,0.30678 4.19126,0.84873 5.68709,2.21161 1.48851,1.4632 1.74483,3.01488 2.43048,4.96254 0.24881,1.9823 1.15314,3.88806 0.11604,5.76664 1.41761,2.10326 -2.1655,2.87131 -3.79335,2.52078 l -0.30109,-0.0462 z m -19.99364,31.9771 c 2.13167,-0.79416 2.28017,-3.23473 2.66927,-5.0684 0.8308,-1.84711 2.21676,-2.93599 2.9129,-4.83848 1.3867,-1.2712 2.13166,-2.8944 1.95143,-4.78247 -0.85079,-0.0983 -3.83156,0.2944 -1.72032,-1.47545 0.3997,-1.35943 -2.35708,-2.17442 -3.57398,-1.58853 -2.52848,-0.2016 -3.63953,1.43651 -3.58778,3.64455 -1.48913,3.09673 3.64088,2.40323 4.76469,3.8259 -0.11888,1.52678 -1.10712,3.27592 -2.7862,3.64602 -2.17001,0.0672 -4.17183,-2.31005 -3.86947,-4.42047 0.0661,-2.14684 0.59997,-4.23921 0.43962,-6.39909 -1.19778,-0.43799 -1.87026,1.1304 -2.40372,-0.16848 -1.63539,1.48518 -2.4457,4.0418 -2.58372,6.2539 0.078,4.66166 0.0379,8.70488 4.18653,11.45586 1.13737,0.23181 2.57849,0.72339 3.60075,-0.0849 z m 3.00618,-12.42933 c -1.40298,-0.32403 -2.76329,-2.04502 -1.99678,-2.46602 -0.64605,-2.10959 3.69101,-1.86663 2.81094,-0.13235 0.37828,0.92452 2.37912,3.20965 0.31815,3.33555 -0.27535,-0.36418 -0.63491,-0.73206 -1.13231,-0.73718 z m -0.093,-28.48132 c 0.26275,-2.03275 1.03312,-5.88852 3.71479,-5.42963 1.37347,0.83117 5.66603,0.31096 3.35942,-1.66875 -2.20033,-0.80975 -5.29249,0.0854 -6.62702,2.02803 -0.78948,1.20841 -2.44822,4.56289 -0.44719,5.07035 z"/><path style="fill:#000;stroke-width:.264584" id="level-1" d="m 11.934424,25.763542 c -1.85091,-1.001837 -2.56026,-1.783433 -3.36585,-3.435874 -1.5908919,-6.035768 6.713039,-6.933633 8.4285,-8.013009 l 1.0939,-0.594529 1.41828,0.707063 c 3.877549,2.101756 8.663473,1.897131 8.69706,6.610147 0,0.933577 -0.18373,1.53951 -0.69544,2.293562 -0.85614,1.261586 -1.13907,1.485167 -3.17312,2.507493 -3.45286,1.156542 -9.38554,1.539837 -12.40333,-0.07485 z m 4.73254,-1.828206 c 0.7243,-1.023352 0.75597,-1.182621 0.61247,-3.07998 -0.12938,-1.710716 -0.2514,-2.093621 -0.84154,-2.640837 -2.359236,-1.740046 -3.802441,1.88133 -3.49848,4.161303 0.120696,3.131185 2.506397,3.250455 3.72758,1.559514 z m -1.94511,-1.273403 c -0.44579,-0.832977 -0.32719,-2.26839 0.22901,-2.77175 1.19798,-1.007164 1.03275,1.992974 0.82362,2.612589 -0.30466,0.801319 -0.67869,0.857873 -1.05263,0.159161 z m 7.7907,1.629676 c 0.42364,-0.580172 0.52496,-1.148464 0.52917,-2.96825 0.004,-1.913542 -0.0837,-2.375362 -0.5884,-3.082895 -1.157093,-1.513181 -2.684454,-0.09242 -3.16501,0.915376 -0.70145,2.56852 -0.23688,2.175198 -0.0921,4.083192 0.58578,1.81866 2.34842,2.378109 3.31632,1.052577 z m -1.78676,-4.484876 c 0.54805,-0.210305 0.85714,0.400809 0.86188,1.704017 0.003,0.834412 -0.1248,1.184127 -0.50772,1.389063 -1.62723,0.897769 -1.04947,-2.747459 -0.35416,-3.09308 z m -4.18151,-8.518936 c -1.25329,-1.253286 -0.9987,-3.0561984 0.54422,-3.8540764 1.07146,-0.5540744 2.18862,-0.4991704 3.01136,0.147997 1.0479,1.059443 0.75414,2.9765664 -0.25264,3.8616124 -1.03169,0.886503 -2.32165,0.82576 -3.30294,-0.155533 z"/><path style="fill:#000;stroke-width:.264584" id="level-2" d="m 34.524826,25.763541 c -1.85091,-1.001837 -2.56026,-1.783433 -3.36585,-3.435874 -1.590892,-6.035768 6.713039,-6.933633 8.4285,-8.013009 l 1.0939,-0.594529 1.41828,0.707063 c 3.877549,2.101756 8.663473,1.897131 8.69706,6.610147 0,0.933577 -0.18373,1.53951 -0.69544,2.293562 -0.85614,1.261586 -1.13907,1.485167 -3.17312,2.507493 -3.45286,1.156542 -9.38554,1.539837 -12.40333,-0.07485 z m 4.73254,-1.828206 c 0.7243,-1.023352 0.75597,-1.182621 0.61247,-3.07998 -0.12938,-1.710716 -0.2514,-2.093621 -0.84154,-2.640837 -2.359236,-1.740046 -3.802441,1.88133 -3.49848,4.161303 0.120696,3.131185 2.506397,3.250455 3.72758,1.559514 z m -1.94511,-1.273403 c -0.44579,-0.832977 -0.32719,-2.26839 0.22901,-2.77175 1.19798,-1.007164 1.03275,1.992974 0.82362,2.612589 -0.30466,0.801319 -0.67869,0.857873 -1.05263,0.159161 z m 7.7907,1.629676 c 0.42364,-0.580172 0.52496,-1.148464 0.52917,-2.96825 0.004,-1.913542 -0.0837,-2.375362 -0.5884,-3.082895 -1.157093,-1.513181 -2.684454,-0.09242 -3.16501,0.915376 -0.70145,2.56852 -0.23688,2.175198 -0.0921,4.083192 0.58578,1.81866 2.34842,2.378109 3.31632,1.052577 z m -1.78676,-4.484876 c 0.54805,-0.210305 0.85714,0.400809 0.86188,1.704017 0.003,0.834412 -0.1248,1.184127 -0.50772,1.389063 -1.62723,0.897769 -1.04947,-2.747459 -0.35416,-3.09308 z m -4.18151,-8.518936 c -1.25329,-1.253286 -0.9987,-3.056198 0.54422,-3.854076 1.07146,-0.5540744 2.18862,-0.4991704 3.01136,0.147997 1.0479,1.059443 0.75414,2.976566 -0.25264,3.861612 -1.03169,0.886503 -2.32165,0.82576 -3.30294,-0.155533 z"/><path style="fill:#000;stroke-width:.264584" id="level-3" d="m 57.437104,25.763564 c -1.85091,-1.001837 -2.56026,-1.783433 -3.36585,-3.435874 -1.590892,-6.035768 6.713039,-6.933633 8.4285,-8.013009 l 1.0939,-0.594529 1.41828,0.707063 c 3.877549,2.101756 8.663473,1.897131 8.69706,6.610147 0,0.933577 -0.18373,1.53951 -0.69544,2.293562 -0.85614,1.261586 -1.13907,1.485167 -3.17312,2.507493 -3.45286,1.156542 -9.38554,1.539837 -12.40333,-0.07485 z m 4.73254,-1.828206 c 0.7243,-1.023352 0.75597,-1.182621 0.61247,-3.07998 -0.12938,-1.710716 -0.2514,-2.093621 -0.84154,-2.640837 -2.359236,-1.740046 -3.802441,1.88133 -3.49848,4.161303 0.120696,3.131185 2.506397,3.250455 3.72758,1.559514 z m -1.94511,-1.273403 c -0.44579,-0.832977 -0.32719,-2.26839 0.22901,-2.77175 1.19798,-1.007164 1.03275,1.992974 0.82362,2.612589 -0.30466,0.801319 -0.67869,0.857873 -1.05263,0.159161 z m 7.7907,1.629676 c 0.42364,-0.580172 0.52496,-1.148464 0.52917,-2.96825 0.004,-1.913542 -0.0837,-2.375362 -0.5884,-3.082895 -1.157093,-1.513181 -2.684454,-0.09242 -3.16501,0.915376 -0.70145,2.56852 -0.23688,2.175198 -0.0921,4.083192 0.58578,1.81866 2.34842,2.378109 3.31632,1.052577 z m -1.78676,-4.484876 c 0.54805,-0.210305 0.85714,0.400809 0.86188,1.704017 0.003,0.834412 -0.1248,1.184127 -0.50772,1.389063 -1.62723,0.897769 -1.04947,-2.747459 -0.35416,-3.09308 z m -4.18151,-8.518936 c -1.25329,-1.253286 -0.9987,-3.0561988 0.54422,-3.8540768 1.07146,-0.5540744 2.18862,-0.4991704 3.01136,0.147997 1.0479,1.059443 0.75414,2.9765668 -0.25264,3.8616128 -1.03169,0.886503 -2.32165,0.82576 -3.30294,-0.155533 z"/><path style="fill:#000;stroke-width:.264584" id="miss-left" d="m 64.913004,213.00836 c -0.23874,-2.31563 -0.0584,-4.67389 -0.50369,-6.97705 0.0458,-1.75266 -1.32574,-2.5501 -2.58008,-3.44038 -1.65547,-1.13245 -3.69461,-1.22747 -5.62867,-1.27624 -1.29556,-0.84045 0.91729,-1.42736 1.20903,-2.14638 1.3327,-1.01838 2.34171,-2.7238 2.10706,-4.45904 0.36395,-1.61724 -1.22691,-2.20483 -2.13255,-3.20593 -0.81592,-0.65772 -1.69076,-1.21161 -2.15733,-2.2375 1.04957,-0.68664 2.54321,-0.71499 3.72296,-1.54654 0.92225,-1.08659 2.09215,-2.09849 2.66312,-3.56761 0.56357,-0.93738 -0.52593,-0.84032 -0.21028,-2.1392 0.20587,-1.1605 -0.6907,-3.04998 0.17077,-3.70575 1.21162,0.76144 1.96994,2.101 3.43588,2.6028 1.50638,1.09758 2.64224,-0.83784 2.96975,-2.08862 0.54439,-1.27378 1.9396,-2.30189 2.13727,-3.59134 1.41311,-0.0159 0.82216,2.50429 1.03966,3.62843 0.18628,2.18614 1.90097,3.87232 3.60772,5.05588 1.3131,0.55753 2.84757,0.92479 4.17009,0.56829 1.43378,-6.8e-4 1.14851,1.21972 0.067,1.5972 -0.93906,0.80596 -2.28176,1.38123 -1.4761,2.89408 0.64965,1.97138 2.53573,3.12982 3.71573,4.76238 1.27588,1.67613 -2.15223,2.15101 -3.28102,2.47633 -1.63612,0.39286 -1.63874,2.3911 -1.64516,3.74683 -0.12103,1.92216 0.52338,3.7363 1.15844,5.50463 0.0284,2.28504 -2.17386,-0.0577 -3.02565,-0.55931 -1.47217,-0.80832 -3.21425,-0.13357 -4.02511,1.26742 -1.7688,2.05265 -2.89829,4.53935 -4.4379,6.74378 -0.25272,0.37127 -0.92101,0.83788 -1.0709,0.0928 z m 2.48825,-5.64622 c 0.79871,-1.233 1.78849,-2.38544 2.62575,-3.62619 1.1162,-1.4499 2.8203,-0.32662 4.28928,-0.36166 2.17102,0.9119 0.45296,-2.08168 0.79516,-3.14235 -0.0474,-1.65634 0.13437,-3.30514 0.26467,-4.95363 1.1885,-0.21122 2.4503,-0.19027 3.55797,-0.70668 0.71018,-1.37833 -1.55803,-2.38666 -2.03278,-3.62033 -1.03453,-1.36382 -1.32257,-3.10789 -1.02286,-4.76388 0.22802,-0.66399 -0.7964,-0.56418 -1.17488,-0.8583 -1.55712,-0.3755 -2.30413,-1.89635 -3.50551,-2.69526 -1.2339,-0.43682 -0.58773,-2.90717 -2.05098,-2.94592 -1.02524,1.03104 -1.16808,3.36931 -3.29536,2.93588 -1.2194,-0.20224 -2.82395,-1.31566 -2.9941,0.70141 -0.60526,1.03168 -0.51525,2.62518 -1.28801,3.79483 -0.54758,1.43859 -2.01275,1.96136 -3.08819,2.70521 0.74565,1.50229 2.36513,2.52649 2.6339,4.31237 0.41994,1.84551 -0.6768,3.46185 -1.28206,5.10172 -0.36699,1.76096 2.29496,1.41199 3.22634,2.39989 1.32086,0.9841 2.37853,1.81618 2.53763,3.48272 0.29763,1.10843 0.56974,2.54306 0.92854,3.45782 0.43891,-0.2644 0.66256,-0.77505 0.87549,-1.21765 z m 0.85704,-5.73411 c -1.04172,-0.41118 -0.80354,-3.24844 0.77586,-2.67352 1.69179,-0.0663 1.20048,3.12091 -0.31712,2.76383 l -0.21746,-0.0433 z m -0.47409,-5.08838 c -0.35018,-1.63347 -0.9337,-3.26604 -1.49826,-4.83699 -0.97168,-0.34444 -1.38972,-2.22132 -1.54091,-3.39229 -0.71419,-1.72024 0.5924,-3.24897 2.37318,-2.98243 0.81926,-0.0163 0.7688,0.95228 1.5632,0.82124 0.56966,1.94933 0.31662,4.0411 0.40764,6.05561 0.009,1.38166 0.0189,2.76332 0.0283,4.14498 -0.39623,0.0475 -1.02937,0.42067 -1.3332,0.18988 z"/><path style="fill:#000;stroke-width:.264584" id="miss-right" d="m 132.64352,213.11415 c 0.23874,-2.31563 0.0584,-4.67389 0.50369,-6.97705 -0.0458,-1.75266 1.32574,-2.5501 2.58008,-3.44038 1.65547,-1.13245 3.69461,-1.22748 5.62867,-1.27624 1.29556,-0.84045 -0.91729,-1.42736 -1.20903,-2.14638 -1.33271,-1.01838 -2.34171,-2.7238 -2.10706,-4.45904 -0.36395,-1.61724 1.22691,-2.20483 2.13255,-3.20593 0.81592,-0.65772 1.69076,-1.21161 2.15733,-2.2375 -1.04957,-0.68664 -2.54321,-0.71499 -3.72296,-1.54654 -0.92225,-1.08659 -2.09215,-2.09849 -2.66312,-3.56761 -0.56357,-0.93738 0.52593,-0.84032 0.21027,-2.1392 -0.20587,-1.1605 0.69071,-3.04998 -0.17077,-3.70575 -1.21161,0.76144 -1.96993,2.101 -3.43588,2.6028 -1.50637,1.09758 -2.64223,-0.83784 -2.96974,-2.08862 -0.5444,-1.27378 -1.9396,-2.30189 -2.13727,-3.59134 -1.41311,-0.0159 -0.82216,2.50429 -1.03967,3.62843 -0.18627,2.18614 -1.90096,3.87232 -3.60771,5.05588 -1.3131,0.55753 -2.84757,0.92479 -4.17009,0.56829 -1.43379,-6.8e-4 -1.14851,1.21972 -0.067,1.5972 0.93907,0.80596 2.28177,1.38123 1.47611,2.89408 -0.64965,1.97138 -2.53573,3.12982 -3.71573,4.76238 -1.27588,1.67613 2.15223,2.15101 3.28102,2.47633 1.63612,0.39286 1.63874,2.3911 1.64516,3.74683 0.12103,1.92216 -0.52338,3.7363 -1.15844,5.50463 -0.0284,2.28504 2.17386,-0.0577 3.02565,-0.55931 1.47217,-0.80833 3.21425,-0.13357 4.02511,1.26741 1.7688,2.05265 2.89829,4.53936 4.4379,6.74378 0.25272,0.37127 0.92101,0.83788 1.0709,0.0928 z m -2.48825,-5.64622 c -0.79871,-1.233 -1.78849,-2.38544 -2.62575,-3.6262 -1.1162,-1.4499 -2.8203,-0.32661 -4.28928,-0.36166 -2.17102,0.91191 -0.45297,-2.08168 -0.79516,-3.14234 0.0474,-1.65634 -0.13437,-3.30514 -0.26467,-4.95363 -1.1885,-0.21122 -2.4503,-0.19027 -3.55797,-0.70669 -0.71018,-1.37833 1.55803,-2.38666 2.03278,-3.62033 1.03453,-1.36382 1.32257,-3.10788 1.02286,-4.76387 -0.22802,-0.66399 0.7964,-0.56418 1.17488,-0.85831 1.55712,-0.37549 2.30413,-1.89635 3.50551,-2.69525 1.2339,-0.43683 0.58773,-2.90717 2.05098,-2.94592 1.02524,1.03103 1.16808,3.36931 3.29536,2.93588 1.2194,-0.20224 2.82395,-1.31567 2.9941,0.70141 0.60526,1.03168 0.51525,2.62518 1.28801,3.79482 0.54758,1.43859 2.01275,1.96137 3.08819,2.70521 -0.74565,1.50229 -2.36513,2.52649 -2.6339,4.31237 -0.41994,1.84551 0.6768,3.46185 1.28206,5.10172 0.36699,1.76096 -2.29496,1.41199 -3.22634,2.39989 -1.32086,0.9841 -2.37853,1.81618 -2.53763,3.48272 -0.29763,1.10843 -0.56974,2.54306 -0.92854,3.45782 -0.43891,-0.2644 -0.66256,-0.77505 -0.87549,-1.21764 z m -0.85704,-5.73411 c 1.04172,-0.41118 0.80354,-3.24844 -0.77586,-2.67352 -1.69179,-0.0663 -1.20048,3.12091 0.31712,2.76383 l 0.21746,-0.0433 z m 0.47409,-5.08838 c 0.35018,-1.63347 0.9337,-3.26604 1.49826,-4.83699 0.97168,-0.34444 1.38972,-2.22132 1.54091,-3.39229 0.71419,-1.72024 -0.5924,-3.24897 -2.37318,-2.98243 -0.81926,-0.0163 -0.7688,0.95228 -1.5632,0.82124 -0.56966,1.94933 -0.31662,4.0411 -0.40764,6.05561 -0.009,1.38166 -0.0189,2.76332 -0.0283,4.14498 0.39623,0.0475 1.02937,0.42067 1.3332,0.18988 z"/><path style="fill:#000;stroke-width:.264584" id="cream-center" d="m 97.51497,262.62257 c -2.48916,-0.49313 -5.27586,-0.15487 -6.47307,-3.0151 -0.9323,-1.87419 -0.53443,-4.28665 0.9047,-5.87711 1.76413,-2.15663 1.56401,-4.77394 2.33864,-7.31681 1.44784,-0.67669 2.14025,-2.84805 0.23624,-3.62863 -1.19059,1.74398 -2.212,-3.5008 -4.2551,-3.42998 -1.64869,0.58644 -3.62438,2.63331 -4.22496,2.68257 -1.70499,0.86788 -3.44806,1.00577 -5.11754,0.99019 -0.93206,0.77125 -2.65334,-2.41794 -3.57308,-3.39035 -0.44916,-1.33407 -1.0372,-3.50535 -0.78182,-4.488 0.0267,-0.86805 -1.07974,-4.63719 1.74635,-4.4007 2.68277,-0.79464 0.49817,-4.10769 2.45347,-5.74881 1.30964,-1.92268 3.86143,-1.48165 5.48996,-0.20165 1.15188,0.15825 2.16212,3.18032 2.54644,0.77843 -0.79175,-2.43606 -4.29468,-2.38304 -5.11016,-4.13045 1.26143,0.85097 3.11055,-0.0524 2.73005,-1.80539 -0.28439,-2.17754 -0.5902,-5.21315 1.34716,-6.64149 0.37576,-2.23944 3.62101,-1.35714 5.47035,-1.45109 1.81971,0.58098 4.01317,2.83124 3.7978,4.01008 -0.0424,1.87286 -2.17245,0.15372 -1.89953,-0.53115 -2.23606,-1.40821 -5.27464,0.40062 -5.61626,2.96417 -0.46331,1.94913 -1.04122,4.10029 0.86483,5.12498 1.31877,1.64039 5.2124,-0.1804 5.03594,2.35779 -1.94025,0.76629 -5.49242,-0.003 -4.72801,3.08852 -0.3436,1.53725 2.14968,1.21552 2.80935,2.15705 1.05354,0.24327 1.18826,0.83766 2.42629,-0.16031 0.90111,0.35895 1.45222,0.33365 1.68064,0.85365 1.704764,-0.79142 3.71353,-0.68701 5.54683,-0.60819 0.96951,-1.60481 3.21866,-1.61043 3.33777,-3.80658 1.78506,-1.65799 0.12266,-2.89739 -1.8811,-2.30398 -1.43965,0.50353 -4.857626,-1.62643 -1.6019,-1.69437 2.21448,0.34416 4.04408,-1.64162 2.88877,-3.26939 0.40942,-0.9975 -0.16587,-2.95157 -0.45582,-3.49371 -1.11578,-1.53479 -2.10679,-1.95956 -3.474,-2.08204 -1.16268,0.17401 -2.275926,3.38526 -3.533756,1.61744 0.83064,-0.22619 -0.13661,-2.83044 1.22737,-3.85678 1.307886,-1.89498 2.228816,-3.08674 4.687016,-2.59381 2.70679,-0.0518 4.4621,2.45409 5.59134,4.4779 0.78812,1.2035 0.14234,5.4943 2.50679,4.24416 0.20922,-1.23198 -2.10806,-2.00943 -0.58706,-3.12864 0.25389,-2.39012 0.54495,-6.31582 -1.68734,-7.57279 -1.36637,-2.3602 -1.55956,3.40332 -3.57985,1.20298 -0.20722,-1.43241 2.09515,-4.04298 -0.81722,-3.78881 -1.3064,-0.10168 -5.02844,0.1061 -2.13802,1.23193 0.85084,-0.0983 2.96265,1.83898 1.22207,1.98978 -1.6339,0.22484 -4.19187,-1.77717 -5.078456,0.90366 -1.906984,1.73905 -3.855254,0.72452 -5.408344,-0.5276 -2.54011,0.20551 -4.98035,2.07656 -7.12656,2.63012 -0.52028,-3.13585 3.55271,-2.16953 5.2867,-3.59338 2.16042,0.11013 2.48866,-2.17952 0.24941,-2.27399 -3.44401,-0.43319 -6.81197,2.00356 -7.71264,5.28713 -1.2551,1.90719 -0.83407,4.22792 -0.42512,6.55627 0.31234,1.09513 0.46549,3.55547 -1.2289,2.50572 -1.02811,-1.96095 -0.0532,-2.89814 -0.57049,-4.85702 0.0272,-3.22304 1.01756,-6.57249 3.34015,-8.91048 1.63521,-1.85508 4.56666,-2.42391 6.92251,-1.94902 2.38606,0.87055 4.8203,3.61278 7.3999,1.43428 0.87287,-2.82364 4.52542,-1.78629 6.75459,-1.68426 1.89423,0.76112 3.57258,2.24728 4.79619,3.65463 1.64261,1.68678 1.7216,4.20404 2.00238,6.48657 0.52562,1.77639 -1.05034,2.69752 -1.42234,3.67494 0.0875,1.31878 -1.71262,1.69988 -2.43756,2.83303 -1.21709,1.29683 -1.62954,3.61357 -1.78623,5.64581 0.74985,2.12706 -3.82877,4.25475 -0.14966,4.49576 2.22849,-0.72293 4.17608,-1.20527 4.05873,-3.94314 0.77726,-3.32453 4.86539,-0.22932 4.64354,2.13038 1.26899,2.4285 5.66347,-0.94784 6.11427,2.95134 0.21815,2.64409 0.91751,5.39814 -1.1007,7.55378 -1.00832,2.5532 -4.00935,4.18513 -6.40076,2.1979 -1.71711,-0.74051 -3.37109,-1.64243 -5.12141,-2.85584 -0.89574,-1.18407 -2.75318,-1.49355 -2.0146,0.0428 -1.25237,0.6332 -0.95067,1.97819 -2.18149,2.63623 2.54407,1.32179 -1.32984,4.95173 -2.93702,2.81345 -1.62104,-0.13397 0.60965,4.36255 2.61717,3.54912 2.30777,0.18717 3.65079,-3.34067 2.48553,-4.08976 -0.18946,-1.36607 0.1573,-2.97014 1.36673,-1.21414 2.15008,1.90797 1.99122,5.38943 1.26048,7.91755 -1.05661,1.63981 -2.88829,2.9189 -5.0522,2.25621 -1.32477,-0.37747 -0.33508,2.97789 -0.48587,4.12658 -0.027,2.31528 -0.0365,4.98227 -2.74982,5.27351 -1.57961,1.00877 -3.403476,0.2309 -5.0603,0.9935 l -0.15109,0.15875 -0.0473,-0.16575 z m -3.19765,-8.92255 c -0.260668,-0.20049 -0.265753,-0.52513 -0.208102,-0.64598 0.109439,-0.22941 -1.36085,1.6074 -1.24623,1.84563 0.06925,0.14393 1.193108,-0.78413 1.454332,-1.19965 z m 9.27541,0.16173 c -0.72633,-1.50133 -1.83252,-4.03256 -6.49174,-3.41812 -1.29649,-0.049 -3.79454,2.54909 -2.78367,3.25639 1.4165,-1.16678 3.48683,-1.42127 4.775404,-1.5777 1.614286,-0.13784 3.144476,2.09467 4.500006,1.73943 z m -0.26097,-3.78593 c 1.21358,-0.24939 -1.49462,-0.42792 -0.76724,-1.83647 -0.22126,-1.94652 -2.972516,-0.0671 -0.85633,0.63065 0.076,1.11339 0.64848,-0.35774 0.85633,1.12732 0.12412,0.23927 0.75077,0.61084 0.76724,0.0785 z m -6.18827,-1.45163 c 2.228414,0.84328 4.47666,-1.73607 1.511194,-2.3763 -1.720814,-1.36387 -4.762274,3.34361 -1.928824,2.44904 l 0.41763,-0.0727 z m 4.29685,-2.76609 c 1.12748,-2.62139 -5.38156,-3.14743 -2.633356,-0.96386 0.81104,0.81334 1.609666,0.90025 2.090586,0.62964 -0.53707,1.56294 0.73457,2.47846 0.54277,0.33422 z m 3.54886,-3.20072 c -0.11565,-0.63268 2.02767,0.59774 1.75284,-1.2972 -0.33218,-0.4005 -3.27328,1.23814 -1.71173,1.68909 l -0.0411,-0.39189 z m -21.91957,-1.26245 c 2.19606,-0.48544 3.844,-1.54494 5.42709,-3.10333 0.80159,-2.80759 0.17023,-5.47224 -1.76344,-7.45589 -1.49114,-0.66156 -1.32466,-4.46703 0.1943,-1.86293 1.53738,2.044 0.90886,-2.87923 -0.6811,-3.04425 -2.71878,-2.13061 -4.88232,0.97305 -4.40084,3.60683 0.66072,1.9209 -0.59084,3.54704 -2.6795,2.70069 -3.4288,0.61132 0.95576,1.73528 1.57678,1.62679 0.49804,1.4431 2.29314,3.91216 1.82563,5.05224 -0.88719,-0.51607 -1.54816,-2.22069 -2.32176,-1.95029 1.53582,-1.97181 -3.81576,-1.52699 -2.16785,0.14444 0.95405,-0.42635 2.68292,0.53568 0.99698,0.72086 -1.36206,1.98692 1.7823,2.03328 2.19418,2.6828 -1.9918,1.49864 1.05345,1.18149 1.79953,0.88204 z m 0.15378,-8.4836 c -1.15248,-0.77796 -1.48824,-1.146 -0.20974,-1.66801 0.63426,-1.80428 -0.50427,-5.63933 2.06182,-4.73561 1.64938,-0.10245 1.4601,1.53847 -0.022,1.72456 -2.05714,1.04597 0.31283,4.74177 -1.8301,4.67907 z m 35.88757,7.78769 c -0.28867,-1.97603 2.81434,-2.37012 1.52525,-3.92649 -0.0797,-0.59945 -2.79409,-1.18288 -0.2736,-0.77022 0.19523,-0.90521 1.9332,1.31309 1.44381,-0.91451 -0.32631,-1.49508 -1.69938,-0.85635 -1.92848,-0.80524 -0.77143,1.31273 -1.35673,1.94681 -1.93231,3.26759 -3.04685,0.65563 1.02768,-2.60418 0.73144,-4.05537 0.39032,-0.99591 1.97502,-1.69668 1.11212,-0.1004 1.6096,-0.0117 2.36447,-2.35896 1.1753,-2.89551 -2.03318,-0.99943 -4.279,1.40724 -5.57937,1.30337 0.59056,-2.23396 0.71979,-5.16187 -1.83102,-6.28023 -0.22282,2.40565 -0.8075,4.9899 -2.48256,6.76878 -0.18703,1.99818 -0.44235,4.27173 1.26025,5.87612 1.89047,1.16041 3.62512,2.22534 5.70485,2.66606 -0.18171,0.77094 0.93527,0.18654 1.07432,-0.13395 z m -22.39381,-1.19093 c -0.80078,-0.53256 1.26906,-1.2832 1.431154,-2.00198 1.53421,-1.1091 3.289366,-1.27433 3.977326,0.9034 0.67881,2.01189 3.39968,0.14049 2.03685,-1.17348 -1.86419,-1.55737 -2.48744,-2.13635 -4.960326,-2.03281 -1.764294,1.10149 -3.688204,1.21082 -5.285704,2.6531 0.61251,0.4528 1.46737,2.50436 2.8007,1.65177 z m -5.65647,-2.57316 c 1.36433,-1.08802 -0.44978,-2.93854 0.15405,-3.61045 -1.92623,-0.94688 -1.48338,6.2197 -0.15405,3.61045 z m 6.0317,-2.08536 c 0.73919,-1.0226 3.35625,-2.3265 0.44167,-2.36323 -2.99721,-1.47402 -2.38385,2.31278 -0.44167,2.36323 z m 11.67857,-0.0793 c 1.33267,0.10655 0.97384,-2.85994 0.75139,-3.92666 -2.2051,-0.34938 -1.88859,4.30381 -0.75139,3.92666 z m -14.89355,-0.48769 c 1.72482,-1.45786 -0.4833,-2.96436 -1.04699,-0.728 -0.15467,0.69344 0.41965,1.74517 1.04699,0.728 z m 7.77116,0.0662 c 1.82214,-0.53298 1.52682,-3.31037 -0.63749,-2.09876 -2.547086,-0.16232 -0.16914,3.13768 0.63749,2.09876 z m 4.87758,-0.66146 c 1.81082,-3.57289 -4.34004,-1.68171 -1.06172,-0.083 0.78206,0.82516 0.39243,0.9148 1.06172,0.083 z m -15.27459,-1.84246 c 0.077,-1.08689 -2.08872,-2.62563 -2.40576,-0.81983 -1.0431,0.83936 2.07691,1.7301 2.40576,0.81983 z m -2.65691,-1.74822 c -2.00993,-1.08341 0.43511,1.32901 0,0 z m 14.47251,-1.35923 c -2.74822,-0.50185 -1.3153,-3.83695 1.06515,-2.85033 1.96043,-0.16574 1.16847,3.33249 -0.40369,2.81013 l -0.30344,0.0762 z m 7.03735,-1.06943 c -0.25225,-2.56497 0.34404,-5.88376 2.63813,-7.33274 0.96795,-0.84803 1.54608,0.27963 2.22426,0.90026 1.09422,1.4827 3.55929,2.83944 3.06862,4.84004 0.0321,3.20357 -1.72563,-3.32082 -3.77151,-2.6012 -2.64302,-0.38431 -3.53297,2.75936 -3.34239,4.61722 -0.32114,0.1374 -0.71969,-0.10055 -0.81711,-0.42358 z m -11.966526,-1.79172 c -1.626844,-0.8932 -1.181834,-3.53176 1.07594,-2.85227 2.067406,0.77178 -0.16092,3.66095 -1.07594,2.85227 z m -3.206244,-3.23537 c -0.12746,-1.55892 -0.62605,-4.65806 0.78615,-5.23943 0.84923,1.36106 1.69941,5.79196 -0.61469,5.50683 z m 5.48959,-0.19844 c -1.460566,-1.22734 -1.037846,-4.81435 0.6577,-5.16974 0.55101,1.62777 1.41623,5.17429 -0.35261,5.6369 z"/><path style="fill:#000;stroke-width:.264584" id="flower-42" d="m 91.140973,195.98282 c -1.34295,-0.71969 -2.12434,-2.17003 -2.12401,-3.94233 1.5e-4,-0.80036 0.17044,-1.78142 0.37843,-2.18012 0.36945,-0.70821 0.50421,-1.3147 0.4428,-1.99274 -0.0168,-0.18502 -0.35789,-0.48268 -0.75807,-0.66146 -1.26385,-0.56462 -2.97657,-3.04094 -2.97657,-4.30363 0,-1.60928 5.87867,-4.30238 8.59897,-3.93931 2.34607,0.31312 2.78767,0.41235 2.67152,0.60028 -0.0667,0.10796 0.0805,0.21149 0.32718,0.23008 0.27414,0.0206 0.799731,-0.52107 1.351951,-1.39342 0.958156,-1.51361 2.482386,-2.49035 3.914686,-2.50857 0.40177,-0.005 1.5044,-0.18122 2.45029,-0.39134 l 1.71979,-0.38205 0.83944,0.94092 c 1.19496,1.33943 1.75704,2.64387 1.56865,3.64044 -0.48868,2.58518 -0.48827,2.763 0.008,3.44375 0.27195,0.37315 0.64565,0.68219 0.83045,0.68677 0.18479,0.005 0.80648,0.30532 1.38152,0.66833 1.07069,0.6759 1.85437,1.82972 1.85437,2.73022 -1.75958,3.84564 -7.01006,5.53753 -10.81931,4.55548 -0.94251,-0.27031 -1.8807,0.36802 -1.8807,1.2796 -0.0795,0.69803 -0.79121,0.8076 -1.207846,1.2189 -0.5179,0.5179 -1.02653,0.68881 -2.435361,0.81835 -1.67109,0.15364 -3.57268,0.6459 -4.62143,1.19632 -0.25269,0.13262 -0.49081,0.22653 -0.52917,0.2087 -0.0384,-0.0178 -0.48181,-0.25326 -0.98545,-0.52317 z m 1.93534,-1.74285 c 0.1,-0.1 0.38771,-0.20034 0.63941,-0.22303 1.53865,-0.13868 3.43704,-0.48617 3.85369,-0.7054 1.435811,-0.7555 2.306171,-2.29666 2.062611,-3.6523 -0.17689,-0.98456 -2.032391,-1.44243 -2.680541,-0.66146 -0.18116,0.21828 -0.54701,0.39688 -0.813,0.39688 -0.26599,0 -0.57884,0.163 -0.69521,0.36221 -0.27773,0.47546 -1.31359,0.78897 -1.51737,0.45925 -0.0878,-0.14212 -0.051,-0.74228 0.0819,-1.33368 0.18977,-0.8446 0.16516,-1.07528 -0.1147,-1.07528 -1.31913,0 -2.71491,1.90305 -2.9519,4.02468 -0.0996,0.89135 -0.004,1.29074 0.44743,1.8623 0.54775,0.69413 1.29705,0.93646 1.68768,0.54583 z m 13.809257,-4.07621 c 0.86054,-0.15908 1.90463,-0.46506 2.3202,-0.67997 1.10754,-0.57273 2.61553,-2.21483 2.44413,-2.66149 -0.0805,-0.20974 -0.14633,-0.49067 -0.14633,-0.62428 0,-0.13362 -0.1905,-0.24295 -0.42334,-0.24295 -0.23283,0 -0.81037,-0.38695 -1.28341,-0.8599 -0.67622,-0.67607 -1.08064,-0.85989 -1.89178,-0.85989 -0.91642,0 -1.03489,0.0739 -1.06037,0.66146 -0.0647,1.49131 -0.10694,1.58752 -0.69892,1.59155 0,0 -0.0502,0.0317 -0.43298,0.0258 -0.61719,-0.04 -1.69176,0.14939 -2.0093,0.5587 -0.14834,0.19119 -0.56736,0.49481 -0.93116,0.6747 l -0.66146,0.32707 c 0.0754,-0.16572 0.28949,0.38259 0.39688,0.62569 0,0.44555 1.05193,1.40181 1.71979,1.56337 0.86207,0.20855 1.02243,0.20253 2.65805,-0.0998 z m -13.168317,-3.90193 c 0.75436,-0.53715 0.81446,-0.69343 0.77245,-2.00877 -0.0251,-0.78446 -0.13716,-1.36968 -0.24912,-1.30048 -0.23701,0.14647 -0.83082,-0.43408 -0.92712,-0.90642 -0.0762,-0.37352 -0.0802,-0.37237 1.5875,-0.44899 0.76708,-0.0352 1.25835,0.0551 1.26082,0.23185 0.002,0.15928 0.12077,0.111 0.26342,-0.10729 0.19505,-0.29845 0.0792,-0.54418 -0.46707,-0.99087 -0.89477,-0.73163 -1.25597,-0.73712 -3.55,-0.0539 -1.80382,0.5372 -3.60979,1.42492 -3.98542,1.95903 -0.59596,0.84741 0.0158,1.89595 2.04647,3.50781 1.21727,0.96619 2.0162,0.99523 3.24807,0.11806 z m 6.773347,-0.0324 c 1.81052,-0.96751 2.83143,-2.58798 2.21518,-3.5161 -0.51774,-0.77977 -2.928956,-0.90654 -3.643906,-0.19159 -0.28759,0.28759 -0.64693,0.5229 -0.79853,0.5229 -0.564301,0 -1.338341,1.01652 -1.491171,1.9583 -0.12388,0.76336 -0.0503,1.05642 0.34144,1.36032 0.621,0.48173 2.353571,0.41307 3.376987,-0.13383 z m 6.63549,-4.23077 c 0.65319,-0.68177 0.74894,-0.98648 0.75115,-2.39029 0.002,-1.31423 -0.10307,-1.70729 -0.57399,-2.14602 -0.65889,-0.61384 -0.84331,-0.62996 -3.25126,-0.28415 -2.38466,0.34247 -3.39635,0.9581 -3.39635,2.06674 0,0.84735 10e-4,0.8481 0.76426,0.46746 0.95899,-0.47841 2.0229,-0.13475 2.28281,0.73739 0.10007,0.33576 0.43768,0.99661 0.75025,1.46856 0.73654,1.11209 1.6581,1.13978 2.67313,0.0803 z"/><path style="fill:#000;stroke-width:.264584" id="flower-23" d="m 174.80382,120.64498 c 1.34295,-0.71969 2.12434,-2.17003 2.12401,-3.94233 -1.5e-4,-0.80036 -0.17044,-1.78142 -0.37843,-2.18012 -0.36945,-0.70821 -0.50421,-1.3147 -0.4428,-1.99274 0.0168,-0.18502 0.35789,-0.48268 0.75807,-0.66146 1.26385,-0.56462 2.97657,-3.04094 2.97657,-4.30363 0,-1.60928 -5.87867,-4.30238 -8.59897,-3.93931 -2.34607,0.31312 -2.78767,0.41235 -2.67152,0.60028 0.0667,0.10796 -0.0805,0.21149 -0.32718,0.23008 -0.27414,0.0206 -0.79973,-0.52107 -1.35195,-1.39342 -0.95816,-1.51361 -2.48239,-2.49035 -3.91469,-2.50857 -0.40177,-0.005 -1.5044,-0.18122 -2.45029,-0.39134 l -1.71979,-0.382051 -0.83944,0.940921 c -1.19496,1.33943 -1.75704,2.64387 -1.56865,3.64044 0.48868,2.58518 0.48827,2.763 -0.008,3.44375 -0.27195,0.37315 -0.64565,0.68219 -0.83045,0.68677 -0.18479,0.005 -0.80648,0.30532 -1.38152,0.66833 -1.07069,0.6759 -1.85437,1.82972 -1.85437,2.73022 1.75958,3.84564 7.01006,5.53753 10.81931,4.55548 0.94251,-0.27031 1.8807,0.36802 1.8807,1.2796 0.0795,0.69803 0.79121,0.8076 1.20785,1.2189 0.5179,0.5179 1.02653,0.68881 2.43536,0.81835 1.67109,0.15364 3.57268,0.6459 4.62143,1.19632 0.25269,0.13262 0.49081,0.22653 0.52917,0.2087 0.0384,-0.0178 0.48181,-0.25326 0.98545,-0.52317 z m -1.93534,-1.74285 c -0.1,-0.1 -0.38771,-0.20034 -0.63941,-0.22303 -1.53865,-0.13868 -3.43704,-0.48617 -3.85369,-0.7054 -1.43581,-0.7555 -2.30617,-2.29666 -2.06261,-3.6523 0.17689,-0.98456 2.03239,-1.44243 2.68054,-0.66146 0.18116,0.21828 0.54701,0.39688 0.813,0.39688 0.26599,0 0.57884,0.163 0.69521,0.36221 0.27773,0.47546 1.31359,0.78897 1.51737,0.45925 0.0878,-0.14212 0.051,-0.74228 -0.0819,-1.33368 -0.18977,-0.8446 -0.16516,-1.07528 0.1147,-1.07528 1.31913,0 2.71491,1.90305 2.9519,4.02468 0.0996,0.89135 0.004,1.29074 -0.44743,1.8623 -0.54775,0.69413 -1.29705,0.93646 -1.68768,0.54583 z m -13.80926,-4.07621 c -0.86054,-0.15908 -1.90463,-0.46506 -2.3202,-0.67997 -1.10754,-0.57273 -2.61553,-2.21483 -2.44413,-2.66149 0.0805,-0.20974 0.14633,-0.49067 0.14633,-0.62428 0,-0.13362 0.1905,-0.24295 0.42334,-0.24295 0.23283,0 0.81037,-0.38695 1.28341,-0.8599 0.67622,-0.67607 1.08064,-0.85989 1.89178,-0.85989 0.91642,0 1.03489,0.0739 1.06037,0.66146 0.0647,1.49131 0.10694,1.58752 0.69892,1.59155 0,0 0.0502,0.0317 0.43298,0.0258 0.61719,-0.04 1.69176,0.14939 2.0093,0.5587 0.14834,0.19119 0.56736,0.49481 0.93116,0.6747 l 0.66146,0.32707 c -0.0754,-0.16572 -0.28949,0.38259 -0.39688,0.62569 0,0.44555 -1.05193,1.40181 -1.71979,1.56337 -0.86207,0.20855 -1.02243,0.20253 -2.65805,-0.0998 z m 13.16832,-3.90193 c -0.75436,-0.53715 -0.81446,-0.69343 -0.77245,-2.00877 0.0251,-0.78446 0.13716,-1.36968 0.24912,-1.30048 0.23701,0.14647 0.83082,-0.43408 0.92712,-0.90642 0.0762,-0.37352 0.0802,-0.37237 -1.5875,-0.44899 -0.76708,-0.0352 -1.25835,0.0551 -1.26082,0.23185 -0.002,0.15928 -0.12077,0.111 -0.26342,-0.10729 -0.19505,-0.29845 -0.0792,-0.54418 0.46707,-0.99087 0.89477,-0.73163 1.25597,-0.73712 3.55,-0.0539 1.80382,0.5372 3.60979,1.42492 3.98542,1.95903 0.59596,0.84741 -0.0158,1.89595 -2.04647,3.50781 -1.21727,0.96619 -2.0162,0.99523 -3.24807,0.11806 z m -6.77335,-0.0324 c -1.81052,-0.96751 -2.83143,-2.58798 -2.21518,-3.5161 0.51774,-0.77977 2.92896,-0.90654 3.64391,-0.19159 0.28759,0.28759 0.64693,0.5229 0.79853,0.5229 0.5643,0 1.33834,1.01652 1.49117,1.9583 0.12388,0.76336 0.0503,1.05642 -0.34144,1.36032 -0.621,0.48173 -2.35357,0.41307 -3.37699,-0.13383 z m -6.63549,-4.23077 c -0.65319,-0.68177 -0.74894,-0.98648 -0.75115,-2.39029 -0.002,-1.31423 0.10307,-1.70729 0.57399,-2.14602 0.65889,-0.61384 0.84331,-0.62996 3.25126,-0.28415 2.38466,0.34247 3.39635,0.9581 3.39635,2.06674 0,0.84735 -0.001,0.8481 -0.76426,0.46746 -0.95899,-0.47841 -2.0229,-0.13475 -2.28281,0.73739 -0.10007,0.33576 -0.43768,0.99661 -0.75025,1.46856 -0.73654,1.11209 -1.6581,1.13978 -2.67313,0.0803 z"/><path style="fill:#000;stroke-width:.264584" id="flower-12" d="m 109.25771,80.200597 c 1.34295,-0.71969 2.12434,-2.17003 2.12401,-3.94233 -1.5e-4,-0.80036 -0.17044,-1.78142 -0.37843,-2.18012 -0.36945,-0.70821 -0.50421,-1.3147 -0.4428,-1.99274 0.0168,-0.18502 0.35789,-0.48268 0.75807,-0.66146 1.26385,-0.56462 2.97657,-3.040943 2.97657,-4.303633 0,-1.60928 -5.87867,-4.30238 -8.59897,-3.93931 -2.34607,0.31312 -2.78767,0.41235 -2.67152,0.60028 0.0667,0.10796 -0.0805,0.21149 -0.32718,0.23008 -0.27414,0.0206 -0.79973,-0.52107 -1.35195,-1.39342 -0.95816,-1.51361 -2.482386,-2.49035 -3.914684,-2.50857 -0.40177,-0.005 -1.5044,-0.18122 -2.45029,-0.39134 l -1.71979,-0.38205 -0.83944,0.94092 c -1.19496,1.33943 -1.75704,2.64387 -1.56865,3.64044 0.48868,2.58518 0.48827,2.763 -0.008,3.44375 -0.27195,0.37315 -0.64565,0.68219 -0.83045,0.68677 -0.18479,0.005 -0.80648,0.30532 -1.38152,0.66833 -1.07069,0.6759 -1.85437,1.829723 -1.85437,2.730223 1.75958,3.84564 7.01006,5.53753 10.81931,4.55548 0.942508,-0.27031 1.880698,0.36802 1.880698,1.2796 0.0795,0.69803 0.791206,0.8076 1.207846,1.2189 0.5179,0.5179 1.02653,0.68881 2.43536,0.81835 1.67109,0.15364 3.57268,0.6459 4.62143,1.19632 0.25269,0.13262 0.49081,0.22653 0.52917,0.2087 0.0384,-0.0178 0.48181,-0.25326 0.98545,-0.52317 z m -1.93534,-1.74285 c -0.1,-0.1 -0.38771,-0.20034 -0.63941,-0.22303 -1.53865,-0.13868 -3.43704,-0.48617 -3.85369,-0.7054 -1.43581,-0.7555 -2.30617,-2.29666 -2.06261,-3.6523 0.17689,-0.98456 2.03239,-1.44243 2.68054,-0.66146 0.18116,0.21828 0.54701,0.39688 0.813,0.39688 0.26599,0 0.57884,0.163 0.69521,0.36221 0.27773,0.47546 1.31359,0.78897 1.51737,0.45925 0.0878,-0.14212 0.051,-0.74228 -0.0819,-1.33368 -0.18977,-0.8446 -0.16516,-1.07528 0.1147,-1.07528 1.31913,0 2.71491,1.90305 2.9519,4.02468 0.0996,0.89135 0.004,1.29074 -0.44743,1.8623 -0.54775,0.69413 -1.29705,0.93646 -1.68768,0.54583 z m -13.809254,-4.07621 c -0.86054,-0.15908 -1.90463,-0.46506 -2.3202,-0.67997 -1.10754,-0.57273 -2.61553,-2.21483 -2.44413,-2.66149 0.0805,-0.20974 0.14633,-0.49067 0.14633,-0.62428 0,-0.13362 0.1905,-0.24295 0.42334,-0.24295 0.23283,0 0.81037,-0.38695 1.28341,-0.859903 0.67622,-0.67607 1.08064,-0.85989 1.89178,-0.85989 0.91642,0 1.03489,0.0739 1.06037,0.66146 0.0647,1.491313 0.10694,1.587523 0.69892,1.591553 0,0 0.0502,0.0317 0.43298,0.0258 0.61719,-0.04 1.69176,0.14939 2.0093,0.5587 0.14834,0.19119 0.56736,0.49481 0.93116,0.6747 l 0.661458,0.32707 c -0.0754,-0.16572 -0.28949,0.38259 -0.396878,0.62569 0,0.44555 -1.05193,1.40181 -1.71979,1.56337 -0.86207,0.20855 -1.02243,0.20253 -2.65805,-0.0998 z m 13.168314,-3.90193 c -0.75436,-0.53715 -0.81446,-0.69343 -0.77245,-2.008773 0.0251,-0.78446 0.13716,-1.36968 0.24912,-1.30048 0.23701,0.14647 0.83082,-0.43408 0.92712,-0.90642 0.0762,-0.37352 0.0802,-0.37237 -1.5875,-0.44899 -0.76708,-0.0352 -1.25835,0.0551 -1.26082,0.23185 -0.002,0.15928 -0.12077,0.111 -0.26342,-0.10729 -0.19505,-0.29845 -0.0792,-0.54418 0.46707,-0.99087 0.89477,-0.73163 1.25597,-0.73712 3.55,-0.0539 1.80382,0.5372 3.60979,1.42492 3.98542,1.95903 0.59596,0.84741 -0.0158,1.89595 -2.04647,3.507813 -1.21727,0.96619 -2.0162,0.99523 -3.24807,0.11806 z m -6.773346,-0.0324 c -1.81052,-0.967513 -2.831428,-2.587983 -2.215178,-3.516103 0.517738,-0.77977 2.928954,-0.90654 3.643904,-0.19159 0.28759,0.28759 0.64693,0.5229 0.79853,0.5229 0.5643,0 1.33834,1.01652 1.49117,1.9583 0.12388,0.763363 0.0503,1.056423 -0.34144,1.360323 -0.621,0.48173 -2.35357,0.41307 -3.376986,-0.13383 z m -6.635488,-4.230773 c -0.65319,-0.68177 -0.74894,-0.98648 -0.75115,-2.39029 -0.002,-1.31423 0.10307,-1.70729 0.57399,-2.14602 0.65889,-0.61384 0.84331,-0.62996 3.25126,-0.28415 2.384658,0.34247 3.396348,0.9581 3.396348,2.06674 0,0.84735 -10e-4,0.8481 -0.76426,0.46746 -0.95899,-0.47841 -2.022898,-0.13475 -2.282808,0.73739 -0.10007,0.33576 -0.43768,0.99661 -0.75025,1.46856 -0.73654,1.11209 -1.6581,1.13978 -2.67313,0.0803 z"/><path style="fill:#000;stroke-width:.264584" id="flower-41" d="m 13.645804,197.23545 c -0.563386,-0.61387 -0.985257,-1.45011 -1.211132,-2.40073 -0.376544,-1.58473 -0.277001,-2.47338 0.459778,-4.10458 0.754151,-1.66967 0.727676,-2.01822 -0.22572,-2.97162 -0.4817,-0.4817 -1.037039,-1.41151 -1.234087,-2.06626 -0.662047,-2.19981 0.156765,-3.33427 2.768135,-3.83523 1.443684,-0.27695 4.233848,-0.11881 5.016448,0.28432 1.73494,0.8937 2.46353,1.09597 2.68556,0.74557 0.12507,-0.19738 0.22931,-0.4184 0.23166,-0.49116 0.002,-0.0728 0.40164,-0.57878 0.88733,-1.12448 0.64892,-0.7291 1.09319,-0.99219 1.67549,-0.99219 0.43583,0 0.86861,-0.0762 0.96174,-0.16933 0.0931,-0.0931 1.02177,-0.22233 2.06364,-0.2871 2.01716,-0.12541 4.00604,0.39775 4.67265,1.22911 1.09044,1.35992 1.43935,3.79539 0.72321,5.04816 -0.57307,1.00248 -0.51288,1.65998 0.13319,1.45492 0.54014,-0.17143 2.90952,0.8294 2.90952,1.22899 0,0.11488 0.42855,0.63742 0.95233,1.1612 0.62687,0.62687 0.90823,1.12099 0.82328,1.44583 -0.071,0.27143 0.0886,0.72714 0.35466,1.0127 0.26603,0.28556 0.42878,0.57412 0.36166,0.64124 -0.0671,0.0671 -0.0168,0.40657 0.11185,0.75432 0.19849,0.53658 0.11795,0.70278 -0.53217,1.09814 -1.5668,0.95283 -3.79326,1.69301 -4.91725,1.63473 -0.61921,-0.0321 -1.18721,0.0409 -1.26221,0.16228 -0.22546,0.3648 -3.35305,-0.0241 -4.54275,-0.56482 -1.41662,-0.64391 -1.584,-0.63513 -2.85879,0.15003 -0.58208,0.35852 -1.26669,0.65557 -1.52135,0.66011 -0.25466,0.004 -0.46302,0.11318 -0.46302,0.24143 0,0.45129 -2.54409,0.90423 -5.33634,0.95007 l -2.822789,0.0463 z m 7.055382,-1.1837 c 0.99988,-0.51401 1.92396,-0.85337 2.51305,-0.92291 0.15411,-0.0182 0.20339,-0.15735 0.10951,-0.30924 -0.0939,-0.1519 -0.0331,-0.44195 0.13504,-0.64455 0.47568,-0.57315 -0.12074,-1.41319 -1.12328,-1.5821 -0.47117,-0.0794 -1.57105,-0.1738 -2.44418,-0.20982 l -1.5875,-0.0655 -0.085,-0.92604 c -0.10326,-1.12484 -0.28999,-1.33807 -1.26553,-1.44516 -1.25752,-0.13804 -1.864352,0.27614 -2.576798,1.75875 -0.620981,1.29227 -0.649936,1.50442 -0.357386,2.61848 0.218125,0.83064 0.433679,1.17383 0.684713,1.09015 0.232206,-0.0774 0.294737,-0.006 0.170756,0.19439 -0.111496,0.18041 0.01489,0.48498 0.293901,0.70827 0.626884,0.5017 4.392274,0.32153 5.532714,-0.26474 z m 14.86672,-1.73059 c 1.06068,-0.5676 1.27524,-0.84942 1.12246,-1.47435 -0.0356,-0.14552 -0.0971,-0.51768 -0.13672,-0.82701 -0.12209,-0.95331 -0.59946,-1.59933 -1.43865,-1.94693 -0.44213,-0.18313 -0.80387,-0.42902 -0.80387,-0.54642 0,-0.38144 -2.733,-0.57447 -3.57187,-0.25227 -0.67522,0.25934 -0.73449,0.35209 -0.39688,0.62111 1.34095,1.06853 0.98825,2.02548 -0.7465,2.02548 -1.22496,0 -2.46912,1.03498 -2.33113,1.93919 0.1921,1.25878 6.19012,1.59195 8.30316,0.4612 z m -8.74452,-4.46625 c 0.4674,-0.6322 0.50076,-0.8336 0.22381,-1.3511 -0.46173,-0.86275 -2.4553,-2.13177 -3.42537,-2.18045 -2.11934,-0.10634 -2.65395,0.14852 -2.90082,1.38286 -0.13349,0.66745 -0.0125,0.94829 0.72691,1.68773 1.01914,1.01914 1.33949,1.13118 3.35459,1.17321 1.32309,0.0276 1.52704,-0.0443 2.02088,-0.71225 z m -8.59159,-2.25178 c 0.59177,-0.74714 0.58224,-1.01719 -0.0603,-1.70683 -0.29105,-0.3124 -0.52917,-0.69907 -0.52917,-0.85926 0,-0.16019 -0.11906,-0.21768 -0.26458,-0.12774 -0.14553,0.0899 -0.26459,0.0513 -0.26459,-0.0858 0,-0.35025 0.83479,-0.52869 1.45521,-0.31106 0.58511,0.20525 1.45521,0.0458 1.45521,-0.26671 0,-0.52595 -2.23837,-1.0562 -4.458565,-1.0562 -2.207218,0 -2.349758,0.0347 -2.680364,0.65244 -0.263568,0.49248 -0.275093,0.7417 -0.047,1.01653 0.166194,0.20025 0.229424,0.43684 0.140512,0.52575 -0.281539,0.28154 1.747749,2.7928 2.359051,2.91935 1.063436,0.22014 2.426696,-0.10975 2.894556,-0.70045 z m 12.59729,-1.43706 c 0.7297,-0.61479 0.87499,-0.92964 0.93708,-2.03069 0.0613,-1.0878 -0.0396,-1.42966 -0.61103,-2.06919 -0.6348,-0.71047 -0.82108,-0.76567 -2.56532,-0.76016 -3.54855,0.0112 -5.05489,0.77363 -4.81946,2.4393 0.0712,0.50402 0.27199,0.65227 0.97437,0.71956 0.55934,0.0536 1.06691,-0.0802 1.3803,-0.3638 0.46008,-0.41638 1.69199,-0.61472 1.98682,-0.31989 0.0708,0.0708 0.006,0.4511 -0.14375,0.84518 -0.43635,1.14768 -0.095,1.95559 0.87787,2.07776 0.45922,0.0577 0.89898,0.12391 0.97724,0.14719 0.0783,0.0233 0.5309,-0.28507 1.00588,-0.68526 z"/><path style="fill:#000;stroke-width:.264584" id="flower-21" d="m 31.918177,116.58495 c -0.563386,-0.61387 -0.985257,-1.45011 -1.211132,-2.40073 -0.376544,-1.58473 -0.277001,-2.47338 0.459778,-4.10458 0.754151,-1.66967 0.727676,-2.01822 -0.22572,-2.97162 -0.4817,-0.4817 -1.037039,-1.41151 -1.234087,-2.06626 -0.662047,-2.19981 0.156765,-3.33427 2.768135,-3.83523 1.443684,-0.27695 4.233848,-0.11881 5.016448,0.28432 1.73494,0.8937 2.46353,1.09597 2.68556,0.74557 0.12507,-0.19738 0.22931,-0.4184 0.23166,-0.49116 0.002,-0.0728 0.40164,-0.57878 0.88733,-1.12448 0.64892,-0.729101 1.09319,-0.992191 1.67549,-0.992191 0.43583,0 0.86861,-0.0762 0.96174,-0.16933 0.0931,-0.0931 1.02177,-0.22233 2.06364,-0.2871 2.01716,-0.12541 4.00604,0.39775 4.67265,1.229111 1.09044,1.35992 1.43935,3.79539 0.72321,5.04816 -0.57307,1.00248 -0.51288,1.65998 0.13319,1.45492 0.54014,-0.17143 2.90952,0.8294 2.90952,1.22899 0,0.11488 0.42855,0.63742 0.95233,1.1612 0.62687,0.62687 0.90823,1.12099 0.82328,1.44583 -0.071,0.27143 0.0886,0.72714 0.35466,1.0127 0.26603,0.28556 0.42878,0.57412 0.36166,0.64124 -0.0671,0.0671 -0.0168,0.40657 0.11185,0.75432 0.19849,0.53658 0.11795,0.70278 -0.53217,1.09814 -1.5668,0.95283 -3.79326,1.69301 -4.91725,1.63473 -0.61921,-0.0321 -1.18721,0.0409 -1.26221,0.16228 -0.22546,0.3648 -3.35305,-0.0241 -4.54275,-0.56482 -1.41662,-0.64391 -1.584,-0.63513 -2.85879,0.15003 -0.58208,0.35852 -1.26669,0.65557 -1.52135,0.66011 -0.25466,0.004 -0.46302,0.11318 -0.46302,0.24143 0,0.45129 -2.54409,0.90423 -5.33634,0.95007 l -2.822789,0.0463 z m 7.055382,-1.1837 c 0.99988,-0.51401 1.92396,-0.85337 2.51305,-0.92291 0.15411,-0.0182 0.20339,-0.15735 0.10951,-0.30924 -0.0939,-0.1519 -0.0331,-0.44195 0.13504,-0.64455 0.47568,-0.57315 -0.12074,-1.41319 -1.12328,-1.5821 -0.47117,-0.0794 -1.57105,-0.1738 -2.44418,-0.20982 l -1.5875,-0.0655 -0.085,-0.92604 c -0.10326,-1.12484 -0.28999,-1.33807 -1.26553,-1.44516 -1.25752,-0.13804 -1.864352,0.27614 -2.576798,1.75875 -0.620981,1.29227 -0.649936,1.50442 -0.357386,2.61848 0.218125,0.83064 0.433679,1.17383 0.684713,1.09015 0.232206,-0.0774 0.294737,-0.006 0.170756,0.19439 -0.111496,0.18041 0.01489,0.48498 0.293901,0.70827 0.626884,0.5017 4.392274,0.32153 5.532714,-0.26474 z m 14.86672,-1.73059 c 1.06068,-0.5676 1.27524,-0.84942 1.12246,-1.47435 -0.0356,-0.14552 -0.0971,-0.51768 -0.13672,-0.82701 -0.12209,-0.95331 -0.59946,-1.59933 -1.43865,-1.94693 -0.44213,-0.18313 -0.80387,-0.42902 -0.80387,-0.54642 0,-0.38144 -2.733,-0.57447 -3.57187,-0.25227 -0.67522,0.25934 -0.73449,0.35209 -0.39688,0.62111 1.34095,1.06853 0.98825,2.02548 -0.7465,2.02548 -1.22496,0 -2.46912,1.03498 -2.33113,1.93919 0.1921,1.25878 6.19012,1.59195 8.30316,0.4612 z m -8.74452,-4.46625 c 0.4674,-0.6322 0.50076,-0.8336 0.22381,-1.3511 -0.46173,-0.86275 -2.4553,-2.13177 -3.42537,-2.18045 -2.11934,-0.10634 -2.65395,0.14852 -2.90082,1.38286 -0.13349,0.66745 -0.0125,0.94829 0.72691,1.68773 1.01914,1.01914 1.33949,1.13118 3.35459,1.17321 1.32309,0.0276 1.52704,-0.0443 2.02088,-0.71225 z m -8.59159,-2.25178 c 0.59177,-0.74714 0.58224,-1.01719 -0.0603,-1.70683 -0.29105,-0.3124 -0.52917,-0.69907 -0.52917,-0.85926 0,-0.16019 -0.11906,-0.21768 -0.26458,-0.12774 -0.14553,0.0899 -0.26459,0.0513 -0.26459,-0.0858 0,-0.35025 0.83479,-0.52869 1.45521,-0.31106 0.58511,0.20525 1.45521,0.0458 1.45521,-0.26671 0,-0.52595 -2.23837,-1.0562 -4.458565,-1.0562 -2.207218,0 -2.349758,0.0347 -2.680364,0.65244 -0.263568,0.49248 -0.275093,0.7417 -0.047,1.01653 0.166194,0.20025 0.229424,0.43684 0.140512,0.52575 -0.281539,0.28154 1.747749,2.7928 2.359051,2.91935 1.063436,0.22014 2.426696,-0.10975 2.894556,-0.70045 z m 12.59729,-1.43706 c 0.7297,-0.61479 0.87499,-0.92964 0.93708,-2.03069 0.0613,-1.0878 -0.0396,-1.42966 -0.61103,-2.06919 -0.6348,-0.71047 -0.82108,-0.76567 -2.56532,-0.76016 -3.54855,0.0112 -5.05489,0.77363 -4.81946,2.4393 0.0712,0.50402 0.27199,0.65227 0.97437,0.71956 0.55934,0.0536 1.06691,-0.0802 1.3803,-0.3638 0.46008,-0.41638 1.69199,-0.61472 1.98682,-0.31989 0.0708,0.0708 0.006,0.4511 -0.14375,0.84518 -0.43635,1.14768 -0.095,1.95559 0.87787,2.07776 0.45922,0.0577 0.89898,0.12391 0.97724,0.14719 0.0783,0.0233 0.5309,-0.28507 1.00588,-0.68526 z"/><path style="fill:#000;stroke-width:.265283" id="flower-33" d="m 162.51276,156.5886 c -0.56488,-0.61549 -0.98786,-1.45394 -1.21433,-2.40707 -0.37754,-1.58892 -0.27773,-2.47992 0.461,-4.11543 0.75614,-1.67408 0.72959,-2.02355 -0.22632,-2.97947 -0.48297,-0.48297 -1.03978,-1.41524 -1.23735,-2.07172 -0.6638,-2.20562 0.15717,-3.34308 2.77544,-3.84537 1.44751,-0.27768 4.24504,-0.11912 5.02971,0.28508 1.73952,0.89606 2.47004,1.09886 2.69266,0.74754 0.1254,-0.19791 0.22991,-0.41951 0.23227,-0.49246 0.002,-0.073 0.4027,-0.58031 0.88967,-1.12745 0.65064,-0.73103 1.09608,-0.99481 1.67992,-0.99481 0.43698,0 0.87091,-0.0764 0.96428,-0.16978 0.0934,-0.0933 1.02447,-0.22292 2.0691,-0.28786 2.02249,-0.12574 4.01662,0.3988 4.68499,1.23236 1.09332,1.36351 1.44316,3.80542 0.72512,5.0615 -0.57458,1.00513 -0.51423,1.66436 0.13355,1.45876 0.54156,-0.17188 2.9172,0.83159 2.9172,1.23224 0,0.11518 0.42969,0.6391 0.95485,1.16427 0.62853,0.62852 0.91063,1.12395 0.82546,1.44965 -0.0712,0.27215 0.0888,0.72906 0.35559,1.01537 0.26674,0.28632 0.42992,0.57564 0.36262,0.64294 -0.0673,0.0673 -0.0168,0.40764 0.11215,0.75631 0.19901,0.538 0.11826,0.70464 -0.53358,1.10104 -1.57094,0.95535 -3.80328,1.69749 -4.93025,1.63905 -0.62084,-0.0322 -1.19034,0.041 -1.26554,0.16271 -0.22606,0.36577 -3.36191,-0.0242 -4.55476,-0.56631 -1.42036,-0.64561 -1.58818,-0.63681 -2.86634,0.15043 -0.58362,0.35946 -1.27004,0.6573 -1.52537,0.66185 -0.25533,0.004 -0.46424,0.11348 -0.46424,0.24207 0,0.45248 -2.55082,0.90662 -5.35045,0.95258 l -2.83024,0.0464 z m 7.07403,-1.18682 c 1.00252,-0.51537 1.92904,-0.85563 2.51969,-0.92535 0.15451,-0.0182 0.20392,-0.15777 0.1098,-0.31006 -0.0942,-0.1523 -0.0332,-0.44312 0.13539,-0.64625 0.47694,-0.57467 -0.12106,-1.41693 -1.12625,-1.58628 -0.47241,-0.0796 -1.5752,-0.17426 -2.45063,-0.21038 l -1.5917,-0.0657 -0.0852,-0.92849 c -0.10354,-1.12781 -0.29076,-1.34161 -1.26888,-1.44898 -1.26084,-0.1384 -1.86928,0.27687 -2.58361,1.7634 -0.62262,1.29568 -0.65165,1.50839 -0.35832,2.6254 0.21869,0.83283 0.43482,1.17693 0.68652,1.09303 0.23282,-0.0776 0.29552,-0.006 0.17121,0.1949 -0.1118,0.18089 0.0149,0.48626 0.29467,0.71015 0.62854,0.50302 4.40388,0.32237 5.54734,-0.26544 z m 14.906,-1.73517 c 1.06348,-0.5691 1.27861,-0.85166 1.12543,-1.47824 -0.0357,-0.14591 -0.0974,-0.51905 -0.13708,-0.8292 -0.12242,-0.95583 -0.60105,-1.60356 -1.44246,-1.95207 -0.44329,-0.18362 -0.80599,-0.43016 -0.80599,-0.54787 0,-0.38245 -2.74022,-0.57599 -3.58131,-0.25293 -0.677,0.26002 -0.73643,0.35302 -0.39793,0.62275 1.3445,1.07135 0.99086,2.03083 -0.74847,2.03083 -1.2282,0 -2.47564,1.03771 -2.33729,1.94431 0.19261,1.26211 6.20648,1.59616 8.3251,0.46242 z m -8.76763,-4.47805 c 0.46864,-0.63387 0.50209,-0.8358 0.22441,-1.35467 -0.46296,-0.86503 -2.46179,-2.1374 -3.43443,-2.18621 -2.12494,-0.10662 -2.66096,0.14891 -2.90848,1.38651 -0.13385,0.66922 -0.0125,0.9508 0.72883,1.69219 1.02183,1.02183 1.34303,1.13417 3.36345,1.17631 1.32659,0.0277 1.53108,-0.0444 2.02622,-0.71413 z m -8.61429,-2.25773 c 0.59333,-0.74911 0.58378,-1.01988 -0.0605,-1.71134 -0.29182,-0.31323 -0.53057,-0.70092 -0.53057,-0.86153 0,-0.16062 -0.11937,-0.21826 -0.26528,-0.12808 -0.14591,0.0901 -0.26529,0.0514 -0.26529,-0.086 0,-0.35117 0.837,-0.53008 1.45906,-0.31188 0.58666,0.20579 1.45905,0.0459 1.45905,-0.26741 0,-0.52734 -2.24428,-1.05899 -4.47034,-1.05899 -2.21305,0 -2.35597,0.0348 -2.68745,0.65416 -0.26426,0.49378 -0.27582,0.74366 -0.0471,1.01922 0.16663,0.20078 0.23003,0.43799 0.14089,0.52714 -0.28229,0.28228 1.75236,2.80018 2.36528,2.92706 1.06624,0.22072 2.4331,-0.11004 2.9022,-0.7023 z m 12.63058,-1.44086 c 0.73163,-0.61641 0.8773,-0.93209 0.93956,-2.03605 0.0615,-1.09068 -0.0397,-1.43344 -0.61265,-2.07466 -0.63648,-0.71235 -0.82325,-0.7677 -2.5721,-0.76217 -3.55793,0.0112 -5.06825,0.77567 -4.83219,2.44574 0.0714,0.50536 0.2727,0.654 0.97694,0.72147 0.56082,0.0537 1.06973,-0.0804 1.38395,-0.36477 0.46129,-0.41748 1.69646,-0.61634 1.99207,-0.32073 0.071,0.071 0.006,0.45229 -0.14413,0.84741 -0.4375,1.15072 -0.0952,1.96076 0.88019,2.08325 0.46043,0.0579 0.90135,0.12424 0.97982,0.14758 0.0785,0.0234 0.5323,-0.28582 1.00854,-0.68707 z"/><path style="fill:#000;stroke-width:.264584" id="flower-32" d="m 100.73585,159.30971 c -0.43656,-0.26977 -1.031876,-0.50073 -1.322916,-0.51323 -0.79871,-0.0343 -2.778123,-3.14424 -2.778123,-4.36481 0,-0.76474 -0.1266,-1.00403 -0.63307,-1.19659 -0.34818,-0.13238 -0.88479,-0.17486 -1.19246,-0.0944 -0.30767,0.0804 -0.91576,0.0131 -1.35131,-0.14964 -0.43556,-0.16276 -1.14911,-0.42943 -1.58567,-0.5926 -0.91944,-0.65566 -1.8267,-1.53305 -2.27319,-2.45997 -0.79548,-1.68008 -0.75083,-1.82253 1.1588,-3.69717 1.4426,-1.41616 2.57942,-2.01067 3.85675,-2.01691 1.13373,-0.006 1.33459,-0.18276 2.01952,-1.78189 1.771483,-2.76686 2.202533,-3.14349 4.961569,-3.02233 2.6207,0.12368 3.95087,0.78629 4.69756,2.34007 0.70027,1.45716 0.66868,1.43798 1.83731,1.11531 1.52183,-0.4202 5.51106,0.35951 6.42972,1.25672 0.39753,0.38823 0.42952,2.24348 0.0615,3.56826 -0.31231,1.12435 -1.9998,3.13107 -3.31816,3.94586 -0.50941,0.31483 -1.3394,0.58413 -1.84443,0.59845 -0.76723,0.0217 -0.91822,0.1236 -0.91822,0.61943 0,0.32638 0.1195,0.66726 0.26555,0.75753 0.14606,0.0903 0.21306,0.42472 0.14889,0.74322 -0.0642,0.3185 -0.18574,0.9058 -0.27019,1.30509 -0.0869,0.41108 -0.9076,1.47268 -1.89196,2.4474 -1.32332,1.31035 -1.91869,1.72141 -2.49329,1.72141 -1.00981,0.0951 -1.56568,0.13351 -2.76872,-0.0193 -9.6e-4,-0.0106 -0.35894,-0.24006 -0.7955,-0.50983 z m 4.93254,-2.29561 c 0.97308,-0.97209 1.12057,-1.27927 1.22628,-2.55399 0.13512,-1.62938 -0.0991,-1.89964 -1.79319,-2.06919 -0.67713,-0.0678 -0.93562,0.014 -0.96167,0.3042 -0.0196,0.21828 -0.0494,0.5457 -0.0661,0.7276 -0.0168,0.1819 -0.25873,0.33073 -0.53764,0.33073 -0.27892,0 -0.55089,0.1313 -0.60438,0.29177 -0.0535,0.16048 -0.49272,-0.0777 -0.97607,-0.52916 -1.01126,-0.94467 -2.051336,-1.06418 -2.947286,-0.33869 -0.88846,0.71943 -0.56426,2.5509 0.65515,3.70108 1.002216,0.97972 2.017366,1.23649 3.184916,1.24063 1.65868,0 1.74957,-0.0356 2.82003,-1.10498 z m -8.616939,-5.96442 c 0.44811,-0.4684 0.54874,-0.82339 0.44948,-1.58555 -0.11074,-0.85028 -0.28389,-1.05754 -1.29076,-1.54495 -0.63958,-0.30962 -1.16287,-0.65955 -1.16287,-0.77764 0,-0.11808 0.43733,-0.31812 0.97185,-0.44453 0.53451,-0.12641 1.02412,-0.38666 1.08801,-0.57832 0.0917,-0.27525 -0.29327,-0.31952 -1.83175,-0.21063 -2.64883,0.18746 -2.53325,0.14822 -3.42395,1.16267 -0.62382,0.71049 -0.7793,1.11693 -0.73226,1.91416 0.13841,2.34579 4.28326,3.78845 5.93225,2.06479 z m 6.649899,-1.03444 c 1.58452,-0.97929 1.96098,-3.08263 0.73975,-4.13315 -0.86722,-0.746 -1.66799,-0.75229 -3.06512,-0.0241 -1.14282,0.59567 -2.092646,1.83349 -2.094346,2.72933 -5.6e-4,0.28735 0.4455,0.92073 0.991196,1.40753 1.12228,1.00113 1.83476,1.00536 3.42852,0.0204 z m 7.03062,-0.38398 c 0.94865,-0.32324 1.40929,-0.69349 2.03151,-1.63286 0.481,-0.72618 0.80467,-1.55969 0.80467,-2.07215 0,-0.81089 -0.0824,-0.88363 -1.52135,-1.3437 -1.04529,-0.33419 -1.97672,-0.445 -2.97657,-0.35411 -1.35259,0.12297 -1.46111,0.1836 -1.53893,0.8599 -0.0877,0.76255 0.0933,0.88082 0.73093,0.47743 0.56292,-0.35614 1.25807,0.12324 1.206,0.83168 -0.0272,0.36995 -0.24397,0.64582 -0.55211,0.70258 -1.39193,0.25642 -1.96618,2.03073 -0.83807,2.58944 0.852,0.42197 1.27168,0.41276 2.65392,-0.0582 z m -10.13363,-5.21349 c 0.36094,-0.18263 0.78969,-0.5997 0.95278,-0.92683 0.46634,-0.93538 0.54957,-0.94586 1.53604,-0.19344 1.23097,0.9389 1.89606,0.80476 1.83915,-0.37094 -0.0647,-1.33624 -0.75873,-1.85268 -2.72157,-2.0251 -0.92823,-0.0815 -1.95604,-0.0809 -2.284036,0.001 -0.80844,0.2029 -1.69839,1.71923 -1.69839,2.89377 0,0.90857 0.0469,0.96075 0.85989,0.95706 0.47295,-0.002 1.155206,-0.15332 1.516136,-0.33594 z"/><path style="fill:#000;stroke-width:.264584" id="flower-11" d="m 46.789471,78.541106 c -0.43656,-0.26977 -1.03188,-0.50073 -1.32292,-0.51323 -0.79871,-0.0343 -2.77812,-3.14424 -2.77812,-4.36481 0,-0.76474 -0.1266,-1.00403 -0.63307,-1.19659 -0.34818,-0.13238 -0.88479,-0.17486 -1.19246,-0.0944 -0.30767,0.0804 -0.915759,0.0131 -1.351309,-0.14964 -0.43556,-0.16276 -1.14911,-0.42943 -1.58567,-0.5926 -0.91944,-0.65566 -1.8267,-1.53305 -2.27319,-2.45997 -0.79548,-1.68008 -0.75083,-1.82253 1.1588,-3.69717 1.4426,-1.41616 2.57942,-2.01067 3.856749,-2.01691 1.13373,-0.006 1.33459,-0.18276 2.01952,-1.78189 1.77148,-2.76686 2.20253,-3.14349 4.96157,-3.02233 2.6207,0.12368 3.95087,0.78629 4.69756,2.34007 0.70027,1.45716 0.66868,1.43798 1.83731,1.11531 1.52183,-0.4202 5.51106,0.35951 6.42972,1.25672 0.39753,0.38823 0.42952,2.24348 0.0615,3.56826 -0.31231,1.12435 -1.9998,3.13107 -3.31816,3.94586 -0.50941,0.31483 -1.3394,0.58413 -1.84443,0.59845 -0.76723,0.0217 -0.91822,0.1236 -0.91822,0.61943 0,0.32638 0.1195,0.66726 0.26555,0.75753 0.14606,0.0903 0.21306,0.42472 0.14889,0.74322 -0.0642,0.3185 -0.18574,0.9058 -0.27019,1.30509 -0.0869,0.41108 -0.9076,1.47268 -1.89196,2.4474 -1.32332,1.31035 -1.91869,1.72141 -2.49329,1.72141 -1.00981,0.0951 -1.56568,0.13351 -2.76872,-0.0193 -9.6e-4,-0.0106 -0.35894,-0.24006 -0.7955,-0.50983 z m 4.93254,-2.29561 c 0.97308,-0.97209 1.12057,-1.27927 1.22628,-2.55399 0.13512,-1.62938 -0.0991,-1.89964 -1.79319,-2.06919 -0.67713,-0.0678 -0.93562,0.014 -0.96167,0.3042 -0.0196,0.21828 -0.0494,0.5457 -0.0661,0.7276 -0.0168,0.1819 -0.25873,0.33073 -0.53764,0.33073 -0.27892,0 -0.55089,0.1313 -0.60438,0.29177 -0.0535,0.16048 -0.49272,-0.0777 -0.97607,-0.52916 -1.01126,-0.94467 -2.05134,-1.06418 -2.94729,-0.33869 -0.88846,0.71943 -0.56426,2.5509 0.65515,3.70108 1.00222,0.97972 2.01737,1.23649 3.18492,1.24063 1.65868,0 1.74957,-0.0356 2.82003,-1.10498 z m -8.61694,-5.96442 c 0.44811,-0.4684 0.54874,-0.82339 0.44948,-1.58555 -0.11074,-0.85028 -0.28389,-1.05754 -1.29076,-1.54495 -0.63958,-0.30962 -1.16287,-0.65955 -1.16287,-0.77764 0,-0.11808 0.43733,-0.31812 0.97185,-0.44453 0.53451,-0.12641 1.02412,-0.38666 1.08801,-0.57832 0.0917,-0.27525 -0.29327,-0.31952 -1.83175,-0.21063 -2.648829,0.18746 -2.533249,0.14822 -3.423949,1.16267 -0.62382,0.71049 -0.7793,1.11693 -0.73226,1.91416 0.13841,2.34579 4.283259,3.78845 5.932249,2.06479 z m 6.6499,-1.03444 c 1.58452,-0.97929 1.96098,-3.08263 0.73975,-4.13315 -0.86722,-0.746 -1.66799,-0.75229 -3.06512,-0.0241 -1.14282,0.59567 -2.09265,1.83349 -2.09435,2.72933 -5.6e-4,0.28735 0.4455,0.92073 0.9912,1.40753 1.12228,1.00113 1.83476,1.00536 3.42852,0.0204 z m 7.03062,-0.38398 c 0.94865,-0.32324 1.40929,-0.69349 2.03151,-1.63286 0.481,-0.72618 0.80467,-1.55969 0.80467,-2.07215 0,-0.81089 -0.0824,-0.88363 -1.52135,-1.3437 -1.04529,-0.33419 -1.97672,-0.445 -2.97657,-0.35411 -1.35259,0.12297 -1.46111,0.1836 -1.53893,0.8599 -0.0877,0.76255 0.0933,0.88082 0.73093,0.47743 0.56292,-0.35614 1.25807,0.12324 1.206,0.83168 -0.0272,0.36995 -0.24397,0.64582 -0.55211,0.70258 -1.39193,0.25642 -1.96618,2.03073 -0.83807,2.58944 0.852,0.42197 1.27168,0.41276 2.65392,-0.0582 z m -10.13363,-5.21349 c 0.36094,-0.18263 0.78969,-0.5997 0.95278,-0.92683 0.46634,-0.93538 0.54957,-0.94586 1.53604,-0.19344 1.23097,0.9389 1.89606,0.80476 1.83915,-0.37094 -0.0647,-1.33624 -0.75873,-1.85268 -2.72157,-2.0251 -0.92823,-0.0815 -1.95604,-0.0809 -2.28404,0.001 -0.80844,0.2029 -1.69839,1.71923 -1.69839,2.89377 0,0.90857 0.0469,0.96075 0.85989,0.95706 0.47295,-0.002 1.15521,-0.15332 1.51614,-0.33594 z"/><path style="fill:#000;stroke-width:.275852" id="flower-43" d="m 171.71512,197.3711 c -0.45515,-0.28126 -1.07582,-0.52206 -1.37926,-0.53509 -0.83272,-0.0358 -2.89643,-3.27814 -2.89643,-4.55069 0,-0.79731 -0.13199,-1.04679 -0.66003,-1.24755 -0.363,-0.13802 -0.92247,-0.18231 -1.24324,-0.0984 -0.32077,0.0838 -0.95476,0.0137 -1.40886,-0.15601 -0.45411,-0.16969 -1.19804,-0.44772 -1.6532,-0.61784 -0.95859,-0.68358 -1.90449,-1.59834 -2.36999,-2.56473 -0.82936,-1.75163 -0.78281,-1.90015 1.20815,-3.85462 1.50403,-1.47647 2.68927,-2.0963 4.02099,-2.1028 1.18201,-0.006 1.39143,-0.19055 2.10553,-1.85778 1.84692,-2.88469 2.29632,-3.27736 5.17286,-3.15104 2.73231,0.12895 4.11913,0.81978 4.89761,2.43973 0.7301,1.51921 0.69716,1.49922 1.91556,1.1628 1.58664,-0.43809 5.74576,0.37482 6.70354,1.31024 0.41446,0.40477 0.44781,2.33903 0.0641,3.72022 -0.32561,1.17223 -2.08497,3.26441 -3.45947,4.1139 -0.53111,0.32824 -1.39644,0.60901 -1.92298,0.62394 -0.7999,0.0226 -0.95732,0.12886 -0.95732,0.64581 0,0.34028 0.12459,0.69567 0.27686,0.78979 0.15228,0.0941 0.22213,0.44281 0.15523,0.77487 -0.0669,0.33206 -0.19365,0.94437 -0.2817,1.36067 -0.0906,0.42859 -0.94625,1.5354 -1.97253,2.55163 -1.37968,1.36615 -2.0004,1.79471 -2.59947,1.79471 -1.05282,0.0992 -1.63236,0.1392 -2.88663,-0.0201 -0.001,-0.0111 -0.37423,-0.25028 -0.82938,-0.53154 z m 5.1426,-2.39338 c 1.01452,-1.01348 1.16829,-1.33374 1.2785,-2.66275 0.14088,-1.69877 -0.10332,-1.98054 -1.86955,-2.15731 -0.70597,-0.0707 -0.97547,0.0146 -1.00263,0.31715 -0.0204,0.22758 -0.0515,0.56894 -0.0689,0.75859 -0.0175,0.18965 -0.26975,0.34482 -0.56054,0.34482 -0.29079,0 -0.57435,0.13689 -0.63012,0.30419 -0.0558,0.16732 -0.5137,-0.081 -1.01763,-0.55169 -1.05433,-0.9849 -2.1387,-1.1095 -3.07281,-0.35312 -0.92629,0.75007 -0.58829,2.65954 0.68305,3.8587 1.0449,1.02144 2.10329,1.28915 3.32056,1.29346 1.72932,0 1.82408,-0.0371 2.94012,-1.15204 z m -8.9839,-6.21842 c 0.46719,-0.48835 0.57211,-0.85845 0.46862,-1.65307 -0.11546,-0.88649 -0.29598,-1.10258 -1.34573,-1.61075 -0.66682,-0.3228 -1.21239,-0.68763 -1.21239,-0.81075 0,-0.12311 0.45595,-0.33167 1.01323,-0.46346 0.55728,-0.1318 1.06774,-0.40313 1.13435,-0.60295 0.0956,-0.28697 -0.30576,-0.33313 -1.90976,-0.2196 -2.76163,0.19544 -2.64113,0.15453 -3.56976,1.21218 -0.65039,0.74075 -0.81249,1.1645 -0.76345,1.99568 0.14431,2.44569 4.46567,3.94979 6.18489,2.15272 z m 6.93309,-1.07849 c 1.652,-1.021 2.04449,-3.21391 0.77126,-4.30917 -0.90416,-0.77777 -1.73903,-0.78433 -3.19566,-0.0251 -1.19149,0.62103 -2.18177,1.91157 -2.18354,2.84556 -5.8e-4,0.29959 0.46447,0.95994 1.03341,1.46747 1.17008,1.04376 1.9129,1.04817 3.57453,0.0213 z m 7.33003,-0.40033 c 0.98905,-0.33701 1.46931,-0.72303 2.11803,-1.7024 0.50148,-0.75711 0.83893,-1.62611 0.83893,-2.1604 0,-0.84542 -0.0859,-0.92126 -1.58613,-1.40092 -1.08981,-0.34842 -2.06091,-0.46395 -3.10334,-0.36919 -1.41019,0.12821 -1.52333,0.19142 -1.60446,0.89652 -0.0914,0.79502 0.0973,0.91833 0.76205,0.49776 0.5869,-0.37131 1.31165,0.12849 1.25736,0.8671 -0.0284,0.3857 -0.25436,0.67332 -0.57562,0.7325 -1.45121,0.26734 -2.04991,2.11721 -0.87376,2.69971 0.88828,0.43995 1.32584,0.43034 2.76694,-0.0607 z m -10.56518,-5.43552 c 0.37631,-0.19041 0.82332,-0.62524 0.99335,-0.9663 0.4862,-0.97521 0.57298,-0.98614 1.60146,-0.20168 1.28339,0.97889 1.9768,0.83904 1.91747,-0.38673 -0.0675,-1.39315 -0.79104,-1.93158 -2.83747,-2.11135 -0.96776,-0.085 -2.03934,-0.0843 -2.38131,0.001 -0.84287,0.21154 -1.77072,1.79244 -1.77072,3.017 0,0.94727 0.0489,1.00167 0.89651,0.99782 0.49309,-0.002 1.20441,-0.15985 1.58071,-0.35025 z"/><path style="fill:#000;stroke-width:.264584" id="flower-22" d="m 94.611979,119.99185 c -0.4255,-0.31114 -0.85036,-0.97524 -1.62388,-2.53832 -0.60929,-1.23123 -0.53577,-3.36042 0.16338,-4.73085 0.70934,-1.39043 0.68889,-1.73081 -0.17177,-2.8592 -0.56187,-0.73665 -0.73614,-1.29121 -0.80511,-2.56204 -0.0484,-0.89203 0.006,-1.74899 0.12178,-1.90435 0.11538,-0.15536 0.93983,-0.72912 1.8321,-1.27504 1.36664,-0.83614 1.9059,-1.00848 3.42175,-1.09351 1.396225,-0.0783 1.855645,-0.20762 2.050285,-0.57705 0.13797,-0.26185 1.038966,-1.25597 2.002216,-2.20914 1.78357,-1.764901 2.82856,-2.384791 5.80962,-3.446305 1.41664,-0.50443 1.71472,-0.53897 1.91992,-0.22245 0.13361,0.20608 0.21578,1.922514 0.1826,3.814295 -0.0332,1.89177 0.0554,3.61818 0.19675,3.83646 0.14139,0.21828 0.69825,0.62112 1.23747,0.89521 0.53922,0.27408 1.2712,0.93777 1.62662,1.47485 0.54372,0.82162 0.61449,1.15005 0.44616,2.07056 -0.25555,1.39754 -0.81369,2.26723 -2.44831,3.81495 -1.71086,1.61992 -2.64554,1.91302 -5.42037,1.69973 -1.96496,-0.15104 -2.22768,-0.1182 -2.36132,0.29519 -0.4069,1.25861 -1.13663,2.39751 -2.23785,3.49262 -1.305486,1.29827 -2.094716,1.96286 -2.094716,1.76393 0,-0.0683 -0.38695,-0.007 -0.859905,0.1362 -1.32845,0.40238 -2.53825,0.4527 -2.98742,0.12426 z m 4.166855,-2.30332 c 1.318466,-1.04782 2.627956,-3.04736 2.546096,-4.73749 l -0.0875,-0.92148 -1.533096,0.0525 c -1.20988,0.0414 -1.70225,0.19484 -2.335415,0.72761 -1.00628,0.84673 -1.12959,0.84252 -1.53771,-0.0525 l -0.33178,-0.72761 -0.61552,0.7715 c -1.16767,1.46355 -1.09525,3.10359 0.22136,5.01317 0.46403,0.67302 0.64345,0.74355 1.60745,0.63188 0.59682,-0.0691 1.526575,-0.41005 2.066115,-0.75758 z m 9.457876,-5.25588 c 1.29834,-0.66236 3.71635,-3.31638 3.71635,-4.07908 0,-0.89639 -2.72298,-3.07089 -3.84548,-3.07089 -0.52118,0 -1.23036,1.16057 -1.30737,2.13948 -0.0529,0.67208 -0.29263,0.9459 -1.36413,1.55785 -1.41596,0.80869 -2.04704,1.69311 -1.90712,2.67271 0.18006,1.26067 2.88654,1.70905 4.70775,0.77993 z m -6.43786,-2.55263 c 0.85003,-0.49815 1.2281,-0.91086 1.33807,-1.46071 0.0843,-0.42151 0.25696,-0.83047 0.38368,-0.90879 -0.0542,-0.65967 0.19233,-1.44458 -0.45677,-1.7271 -1.18163,-1.30568 -4.347996,0.46204 -4.698706,2.62318 -0.34192,2.10701 1.21362,2.7745 3.433726,1.47342 z m -5.390031,-0.57758 c 0.52151,-0.44787 0.62212,-1.90277 0.1633,-2.36159 -0.49557,-0.49557 -0.067,-1.05232 1.0053,-1.30591 0.654305,-0.15473 1.043795,-0.41122 1.104695,-0.72745 0.0847,-0.43993 -0.0555,-0.47605 -1.411625,-0.36359 -0.82813,0.0687 -1.58403,0.23341 -1.67978,0.36608 -0.0957,0.13267 -0.49033,0.404 -0.87685,0.60294 -1.17696,0.6058 -1.19323,2.69637 -0.03,3.85955 0.66849,0.66849 0.8748,0.66012 1.725,-0.07 z m 10.374651,-5.06762 c 0.56275,-0.57631 1.04663,-1.26092 1.07529,-1.52136 0.0287,-0.26044 0.13494,-0.66631 0.23617,-0.90194 0.10123,-0.23562 0.14753,-1.06906 0.10288,-1.852081 -0.071,-1.24562 -0.15562,-1.43425 -0.67648,-1.50822 -0.82875,0.0954 -1.38928,0.41225 -2.12839,0.74328 -1.14676,0.36142 -3.6347,2.486641 -4.24414,3.625381 -0.51099,0.9548 0.14973,1.00748 1.01524,0.081 0.89799,-0.9613 1.76738,-0.98935 1.63542,-0.0528 -0.1087,0.77153 0.92068,2.43459 1.50694,2.43459 0.24964,0 0.91432,-0.47152 1.47707,-1.04783 z"/><path style="fill:#000;stroke-width:.264584" id="flower-13" d="m 165.3611,81.345867 c 0.4255,-0.31114 0.85036,-0.97524 1.62388,-2.53832 0.60929,-1.23123 0.53577,-3.36042 -0.16338,-4.73085 -0.70934,-1.39043 -0.68889,-1.73081 0.17177,-2.8592 0.56187,-0.73665 0.73614,-1.29121 0.80511,-2.56204 0.0484,-0.89203 -0.006,-1.74899 -0.12178,-1.90435 -0.11538,-0.15536 -0.93983,-0.72912 -1.8321,-1.27504 -1.36664,-0.83614 -1.9059,-1.00848 -3.42175,-1.09351 -1.39623,-0.0783 -1.85565,-0.20762 -2.05029,-0.57705 -0.13797,-0.26185 -1.03897,-1.25597 -2.00222,-2.20914 -1.78357,-1.7649 -2.82856,-2.38479 -5.80962,-3.44631 -1.41664,-0.50443 -1.71472,-0.53897 -1.91992,-0.22245 -0.13361,0.20608 -0.21578,1.92252 -0.1826,3.8143 0.0332,1.89177 -0.0554,3.61818 -0.19675,3.83646 -0.14139,0.21828 -0.69825,0.62112 -1.23747,0.89521 -0.53922,0.27408 -1.2712,0.93777 -1.62662,1.47485 -0.54372,0.82162 -0.61449,1.15005 -0.44616,2.07056 0.25555,1.39754 0.81369,2.26723 2.44831,3.81495 1.71086,1.61992 2.64554,1.91302 5.42037,1.69973 1.96496,-0.15104 2.22768,-0.1182 2.36132,0.29519 0.4069,1.25861 1.13663,2.39751 2.23785,3.49262 1.30549,1.29827 2.09472,1.96286 2.09472,1.76393 0,-0.0683 0.38695,-0.007 0.85991,0.1362 1.32845,0.40238 2.53825,0.4527 2.98742,0.12426 z m -4.16686,-2.30332 c -1.31847,-1.04782 -2.62796,-3.04736 -2.5461,-4.73749 l 0.0875,-0.92148 1.5331,0.0525 c 1.20988,0.0414 1.70225,0.19484 2.33542,0.72761 1.00628,0.84673 1.12959,0.84252 1.53771,-0.0525 l 0.33178,-0.72761 0.61552,0.7715 c 1.16767,1.46355 1.09525,3.10359 -0.22136,5.01317 -0.46403,0.67302 -0.64345,0.74355 -1.60745,0.63188 -0.59682,-0.0691 -1.52658,-0.41005 -2.06612,-0.75758 z m -9.45788,-5.25588 c -1.29834,-0.66236 -3.71635,-3.31638 -3.71635,-4.07908 0,-0.89639 2.72298,-3.07089 3.84548,-3.07089 0.52118,0 1.23036,1.16057 1.30737,2.13948 0.0529,0.67208 0.29263,0.9459 1.36413,1.55785 1.41596,0.80869 2.04704,1.69311 1.90712,2.67271 -0.18006,1.26067 -2.88654,1.70905 -4.70775,0.77993 z m 6.43786,-2.55263 c -0.85003,-0.49815 -1.2281,-0.91086 -1.33807,-1.46071 -0.0843,-0.42151 -0.25696,-0.83047 -0.38368,-0.90879 0.0542,-0.65967 -0.19233,-1.44458 0.45677,-1.7271 1.18163,-1.30568 4.348,0.46204 4.69871,2.62318 0.34192,2.10701 -1.21362,2.7745 -3.43373,1.47342 z m 5.39004,-0.57758 c -0.52151,-0.44787 -0.62212,-1.90277 -0.1633,-2.36159 0.49557,-0.49557 0.067,-1.05232 -1.0053,-1.30591 -0.65431,-0.15473 -1.0438,-0.41122 -1.1047,-0.72745 -0.0847,-0.43993 0.0555,-0.47605 1.41163,-0.36359 0.82813,0.0687 1.58403,0.23341 1.67978,0.36608 0.0957,0.13267 0.49033,0.404 0.87685,0.60294 1.17696,0.6058 1.19323,2.69637 0.03,3.85955 -0.66849,0.66849 -0.8748,0.66012 -1.725,-0.07 z m -10.37466,-5.06762 c -0.56275,-0.57631 -1.04663,-1.26092 -1.07529,-1.52136 -0.0287,-0.26044 -0.13494,-0.66631 -0.23617,-0.90194 -0.10123,-0.23562 -0.14753,-1.06906 -0.10288,-1.85208 0.071,-1.24562 0.15562,-1.43425 0.67648,-1.50822 0.82875,0.0954 1.38928,0.41225 2.12839,0.74328 1.14676,0.36142 3.6347,2.48664 4.24414,3.62538 0.51099,0.9548 -0.14973,1.00748 -1.01524,0.081 -0.89799,-0.9613 -1.76738,-0.98935 -1.63542,-0.0528 0.1087,0.77153 -0.92068,2.43459 -1.50694,2.43459 -0.24964,0 -0.91432,-0.47152 -1.47707,-1.04783 z"/><path style="fill:#000;stroke-width:.264584" id="flower-31" d="m 22.934394,161.51656 c -0.4255,-0.31114 -0.85036,-0.97524 -1.62388,-2.53832 -0.60929,-1.23123 -0.53577,-3.36042 0.16338,-4.73085 0.70934,-1.39043 0.68889,-1.73081 -0.17177,-2.8592 -0.56187,-0.73665 -0.73614,-1.29121 -0.80511,-2.56204 -0.0484,-0.89203 0.006,-1.74899 0.12178,-1.90435 0.11538,-0.15536 0.93983,-0.72912 1.8321,-1.27504 1.36664,-0.83614 1.9059,-1.00848 3.42175,-1.09351 1.396225,-0.0783 1.855645,-0.20762 2.050285,-0.57705 0.13797,-0.26185 1.03897,-1.25597 2.00222,-2.20914 1.78357,-1.7649 2.82856,-2.38479 5.80962,-3.44631 1.41664,-0.50442 1.71472,-0.53897 1.91992,-0.22244 0.13361,0.20608 0.21578,1.92251 0.1826,3.81429 -0.0332,1.89177 0.0554,3.61818 0.19675,3.83646 0.14139,0.21828 0.69825,0.62112 1.237469,0.89521 0.53922,0.27408 1.2712,0.93777 1.62662,1.47485 0.54372,0.82162 0.61449,1.15005 0.44616,2.07056 -0.25555,1.39754 -0.81369,2.26723 -2.44831,3.81495 -1.710859,1.61992 -2.645539,1.91302 -5.420369,1.69973 -1.96496,-0.15104 -2.22768,-0.1182 -2.36132,0.29519 -0.4069,1.25861 -1.13663,2.39751 -2.23785,3.49262 -1.30549,1.29827 -2.09472,1.96286 -2.09472,1.76393 0,-0.0683 -0.38695,-0.007 -0.859905,0.1362 -1.32845,0.40238 -2.53825,0.4527 -2.98742,0.12426 z m 4.166855,-2.30332 c 1.31847,-1.04782 2.62796,-3.04736 2.5461,-4.73749 l -0.0875,-0.92148 -1.5331,0.0525 c -1.20988,0.0414 -1.70225,0.19484 -2.335415,0.72761 -1.00628,0.84673 -1.12959,0.84252 -1.53771,-0.0525 l -0.33178,-0.72761 -0.61552,0.7715 c -1.16767,1.46355 -1.09525,3.10359 0.22136,5.01317 0.46403,0.67302 0.64345,0.74355 1.60745,0.63188 0.59682,-0.0691 1.526575,-0.41005 2.066115,-0.75758 z m 9.45788,-5.25588 c 1.29834,-0.66236 3.716349,-3.31638 3.716349,-4.07908 0,-0.89639 -2.722979,-3.07089 -3.845479,-3.07089 -0.52118,0 -1.23036,1.16057 -1.30737,2.13948 -0.0529,0.67208 -0.29263,0.9459 -1.36413,1.55785 -1.41596,0.80869 -2.04704,1.69311 -1.90712,2.67271 0.18006,1.26067 2.88654,1.70905 4.70775,0.77993 z m -6.43786,-2.55263 c 0.85003,-0.49815 1.2281,-0.91086 1.33807,-1.46071 0.0843,-0.42151 0.25696,-0.83047 0.38368,-0.90879 -0.0542,-0.65967 0.19233,-1.44458 -0.45677,-1.7271 -1.18163,-1.30568 -4.348,0.46204 -4.69871,2.62318 -0.34192,2.10701 1.21362,2.7745 3.43373,1.47342 z m -5.390035,-0.57758 c 0.52151,-0.44787 0.62212,-1.90277 0.1633,-2.36159 -0.49557,-0.49557 -0.067,-1.05232 1.0053,-1.30591 0.654305,-0.15473 1.043795,-0.41122 1.104695,-0.72745 0.0847,-0.43993 -0.0555,-0.47605 -1.411625,-0.36359 -0.82813,0.0687 -1.58403,0.23341 -1.67978,0.36608 -0.0957,0.13267 -0.49033,0.404 -0.87685,0.60294 -1.17696,0.6058 -1.19323,2.69637 -0.03,3.85955 0.66849,0.66849 0.8748,0.66012 1.725,-0.07 z m 10.374655,-5.06762 c 0.56275,-0.57631 1.04663,-1.26092 1.07529,-1.52136 0.0287,-0.26044 0.13494,-0.66631 0.23617,-0.90194 0.10123,-0.23562 0.14753,-1.06906 0.10288,-1.85208 -0.071,-1.24562 -0.15562,-1.43425 -0.67648,-1.50822 -0.82875,0.0954 -1.38928,0.41225 -2.12839,0.74328 -1.14676,0.36142 -3.6347,2.48664 -4.24414,3.62538 -0.51099,0.9548 0.14973,1.00748 1.01524,0.081 0.89799,-0.9613 1.76738,-0.98935 1.63542,-0.0528 -0.1087,0.77153 0.92068,2.43459 1.50694,2.43459 0.24964,0 0.91432,-0.47152 1.47707,-1.04783 z"/></svg>