<?xml version="1.0" encoding="UTF-8" standalone="no"?>
<!-- Created with Inkscape (http://www.inkscape.org/) -->

<svg
   width="175.64993mm"
   height="135.02567mm"
   viewBox="0 0 175.64994 135.02566"
   version="1.1"
   id="svg5"
   sodipodi:docname="sactiongame.svg"
   inkscape:version="1.1 (c68e22c387, 2021-05-23)"
   xmlns:inkscape="http://www.inkscape.org/namespaces/inkscape"
   xmlns:sodipodi="http://sodipodi.sourceforge.net/DTD/sodipodi-0.dtd"
   xmlns="http://www.w3.org/2000/svg"
   xmlns:svg="http://www.w3.org/2000/svg">
  <sodipodi:namedview
     id="namedview7"
     pagecolor="#ffffff"
     bordercolor="#666666"
     borderopacity="1.0"
     inkscape:pageshadow="2"
     inkscape:pageopacity="0.0"
     inkscape:pagecheckerboard="0"
     inkscape:document-units="mm"
     showgrid="false"
     inkscape:zoom="2"
     inkscape:cx="231.5"
     inkscape:cy="203.5"
     inkscape:window-width="3840"
     inkscape:window-height="2126"
     inkscape:window-x="-11"
     inkscape:window-y="-11"
     inkscape:window-maximized="1"
     inkscape:current-layer="layer1"
     fit-margin-top="0"
     fit-margin-left="0"
     fit-margin-right="0"
     fit-margin-bottom="0" />
  <defs
     id="defs2" />
  <g
     inkscape:label="Calque 1"
     inkscape:groupmode="layer"
     id="layer1"
     transform="translate(-15.515615,-181.45505)">
    <g
       id="platform-11"
       transform="translate(3.2900258e-4,43.099317)">
      <path
         style="fill:none;stroke:#000000;stroke-width:1;stroke-linecap:butt;stroke-linejoin:miter;stroke-miterlimit:4;stroke-dasharray:none;stroke-opacity:1"
         d="m 17.831665,265.55049 0.180422,-36.83607 2.826605,-2.91682 h 34.069606 l 3.037097,2.91682 -0.12028,37.13677"
         id="path1835-3-9" />
      <path
         style="fill:none;stroke:#000000;stroke-width:1;stroke-linecap:butt;stroke-linejoin:miter;stroke-miterlimit:4;stroke-dasharray:none;stroke-opacity:1"
         d="m 18.072228,230.30814 2.34548,1.68393 5.953912,-3.1273 6.104264,3.21751 5.502857,-3.03709 5.893771,3.06716 5.593069,-3.1273 6.014053,3.21752 2.375551,-1.38324"
         id="path1870-3-2" />
      <path
         style="fill:none;stroke:#000000;stroke-width:1;stroke-linecap:butt;stroke-linejoin:miter;stroke-miterlimit:4;stroke-dasharray:none;stroke-opacity:1"
         d="m 21.80094,265.12951 31.513636,0.0301"
         id="path1872-5-0" />
    </g>
    <g
       id="platform-12"
       transform="translate(43.060329,43.0994)">
      <path
         style="fill:none;stroke:#000000;stroke-width:1;stroke-linecap:butt;stroke-linejoin:miter;stroke-miterlimit:4;stroke-dasharray:none;stroke-opacity:1"
         d="m 17.831665,265.55049 0.180422,-36.83607 2.826605,-2.91682 h 34.069606 l 3.037097,2.91682 -0.12028,37.13677"
         id="path1835-3-9-3" />
      <path
         style="fill:none;stroke:#000000;stroke-width:1;stroke-linecap:butt;stroke-linejoin:miter;stroke-miterlimit:4;stroke-dasharray:none;stroke-opacity:1"
         d="m 18.072228,230.30814 2.34548,1.68393 5.953912,-3.1273 6.104264,3.21751 5.502857,-3.03709 5.893771,3.06716 5.593069,-3.1273 6.014053,3.21752 2.375551,-1.38324"
         id="path1870-3-2-8" />
      <path
         style="fill:none;stroke:#000000;stroke-width:1;stroke-linecap:butt;stroke-linejoin:miter;stroke-miterlimit:4;stroke-dasharray:none;stroke-opacity:1"
         d="m 21.80094,265.12951 31.513636,0.0301"
         id="path1872-5-0-3" />
    </g>
    <g
       id="platform-13"
       transform="translate(85.940329,43.0994)">
      <path
         style="fill:none;stroke:#000000;stroke-width:1;stroke-linecap:butt;stroke-linejoin:miter;stroke-miterlimit:4;stroke-dasharray:none;stroke-opacity:1"
         d="m 17.831665,265.55049 0.180422,-36.83607 2.826605,-2.91682 h 34.069606 l 3.037097,2.91682 -0.12028,37.13677"
         id="path1835-3-9-7" />
      <path
         style="fill:none;stroke:#000000;stroke-width:1;stroke-linecap:butt;stroke-linejoin:miter;stroke-miterlimit:4;stroke-dasharray:none;stroke-opacity:1"
         d="m 18.072228,230.30814 2.34548,1.68393 5.953912,-3.1273 6.104264,3.21751 5.502857,-3.03709 5.893771,3.06716 5.593069,-3.1273 6.014053,3.21752 2.375551,-1.38324"
         id="path1870-3-2-1" />
      <path
         style="fill:none;stroke:#000000;stroke-width:1;stroke-linecap:butt;stroke-linejoin:miter;stroke-miterlimit:4;stroke-dasharray:none;stroke-opacity:1"
         d="m 21.80094,265.12951 31.513636,0.0301"
         id="path1872-5-0-8" />
    </g>
    <g
       id="platform-14"
       transform="translate(129.12133,43.0994)">
      <path
         style="fill:none;stroke:#000000;stroke-width:1;stroke-linecap:butt;stroke-linejoin:miter;stroke-miterlimit:4;stroke-dasharray:none;stroke-opacity:1"
         d="m 17.831665,265.55049 0.180422,-36.83607 2.826605,-2.91682 h 34.069606 l 3.037097,2.91682 -0.12028,37.13677"
         id="path1835-3-9-2" />
      <path
         style="fill:none;stroke:#000000;stroke-width:1;stroke-linecap:butt;stroke-linejoin:miter;stroke-miterlimit:4;stroke-dasharray:none;stroke-opacity:1"
         d="m 18.072228,230.30814 2.34548,1.68393 5.953912,-3.1273 6.104264,3.21751 5.502857,-3.03709 5.893771,3.06716 5.593069,-3.1273 6.014053,3.21752 2.375551,-1.38324"
         id="path1870-3-2-6" />
      <path
         style="fill:none;stroke:#000000;stroke-width:1;stroke-linecap:butt;stroke-linejoin:miter;stroke-miterlimit:4;stroke-dasharray:none;stroke-opacity:1"
         d="m 21.80094,265.12951 31.513636,0.0301"
         id="path1872-5-0-84" />
    </g>
    <path
       style="fill:#000000;stroke-width:0.10687"
       id="ring-1"
       d="m 79.479035,223.08031 c -1.647949,-0.20233 -3.26798,-0.74275 -4.655831,-1.66378 -0.861939,-0.40907 -1.533943,-1.22019 -2.212404,-1.91966 -1.603805,-1.74764 -2.647482,-4.01905 -3.000544,-6.35982 -0.178476,-1.52167 -0.08125,-3.09311 0.357368,-4.55053 0.263661,-1.07957 0.888511,-2.04772 1.442272,-2.99822 0.810571,-1.05063 1.645611,-2.10477 2.744336,-2.87843 1.09229,-0.89091 2.426483,-1.41693 3.756161,-1.82683 1.150972,-0.21458 2.302082,-0.46954 3.482822,-0.35765 1.180486,0.0288 2.335763,0.28407 3.435136,0.64426 1.859759,0.7273 3.531134,1.8929 4.818289,3.424 0.664202,0.84263 1.373013,1.71418 1.784687,2.65671 0.320261,1.12385 0.796983,2.20129 0.860063,3.38347 0.128706,1.41078 0.1963,2.88119 -0.334127,4.22224 -0.24174,0.95048 -0.665475,1.9112 -1.148748,2.7263 -0.659157,0.91624 -1.304216,1.89207 -2.213447,2.61403 -1.228126,1.16012 -2.735932,1.99421 -4.325478,2.53427 -1.423615,0.29838 -2.866166,0.5958 -4.328879,0.39241 l -0.240283,-0.0209 z m 3.954197,-1.05528 c 1.600771,-0.44474 3.206961,-1.14833 4.398627,-2.30461 1.070021,-0.75575 1.713922,-1.95233 2.400463,-3.03886 0.520821,-1.04193 0.984394,-2.14318 1.143032,-3.30158 0.171994,-1.32795 0.120835,-2.69315 -0.223616,-3.98585 -0.135188,-0.86388 -0.686773,-1.74693 -1.007334,-2.61331 -0.538575,-0.93641 -1.238427,-1.83627 -1.982585,-2.57521 -0.918699,-0.58266 -1.663574,-1.40005 -2.692482,-1.77659 -2.140991,-1.08638 -4.652013,-1.22495 -6.978099,-0.77635 -1.325303,0.43596 -2.716859,0.79668 -3.808777,1.72711 -1.044488,0.68291 -1.700844,1.6807 -2.433057,2.63818 -1.130786,1.69087 -1.704084,3.7234 -1.863809,5.74067 0.2088,1.86279 0.538158,3.8162 1.597438,5.3969 0.630243,1.09248 1.474149,2.07062 2.418704,2.91168 0.868397,0.62043 1.830406,1.18329 2.871375,1.52334 1.899181,0.81441 4.017486,0.73778 6.022478,0.46902 l 0.137503,-0.0345 z m -3.366408,-0.65367 c -1.066179,-0.11482 -2.061313,-0.49823 -3.03367,-0.90995 -1.457366,-0.76981 -2.707645,-1.88642 -3.715512,-3.18684 -0.664457,-0.84516 -1.114142,-1.90557 -1.240302,-2.96853 0.507602,-0.65108 1.065091,1.06846 1.528595,1.33734 0.751611,1.03088 1.703112,1.96077 2.910589,2.42426 0.988353,0.64353 2.19613,0.92825 3.354833,1.0877 1.258427,0.11436 2.530397,-0.0546 3.736045,-0.39876 1.03914,-0.52766 2.209047,-0.88802 3.005846,-1.79126 1.13692,-1.05385 2.099438,-2.34308 2.418333,-3.89028 0.554063,-1.96265 0.167596,-4.01862 -0.01852,-6.00136 0.959231,0.19537 1.123286,1.69055 1.488617,2.56345 0.265768,1.06599 0.383456,2.18233 0.361558,3.27805 -0.205329,1.26071 -0.547743,2.50877 -1.234701,3.60546 -0.554686,1.0631 -1.434448,1.82258 -2.303934,2.61905 -0.884091,0.709 -1.877836,1.30105 -2.935519,1.72133 -1.371995,0.4877 -2.875819,0.67944 -4.323904,0.51034 z m -0.05347,-3.83306 c -2.78767,-0.52397 -4.987249,-3.28523 -4.747036,-6.13429 -0.140512,-1.15787 0.556445,-2.14638 1.145022,-3.05205 0.714805,-0.79041 1.509195,-1.49449 2.484862,-1.88601 1.080416,-0.51871 2.25222,-0.47753 3.419118,-0.35577 1.692186,0.25121 3.242309,1.38366 4.029754,2.90652 0.23887,0.53036 0.630105,1.0293 0.764275,1.58829 -0.04676,1.23505 0.228013,2.56426 -0.467648,3.67179 -0.451213,1.02643 -1.218751,1.86552 -2.171455,2.44652 -1.240579,0.92685 -2.972372,1.06353 -4.456892,0.815 z m 2.241895,-0.91583 c 2.237058,-0.44784 4.297422,-2.64222 3.921118,-5.03043 -0.03334,-1.10131 -0.51413,-2.14483 -1.138355,-2.98605 -0.820734,-0.65846 -1.669616,-1.35792 -2.738387,-1.57188 -1.011061,-0.16852 -2.15062,-0.11064 -3.066031,0.37603 -1.358175,0.28908 -2.156061,1.62047 -2.709682,2.78864 -0.91981,2.10662 0.235282,4.68739 2.140551,5.80421 1.069348,0.56637 2.394374,1.02039 3.590786,0.61948 z m -8.589217,-6.36876 c -0.256278,-1.12076 0.277713,-2.1759 0.695337,-3.16189 0.529177,-1.11911 1.521165,-1.7899 2.537757,-2.40046 1.807605,-1.01861 4.038251,-1.11145 5.989631,-0.47922 0.62117,-0.0185 2.225112,1.43005 0.687212,1.13168 -1.099326,-0.0671 -2.149763,-0.42065 -3.267308,-0.2125 -1.147962,0.10227 -2.30949,0.50395 -3.202609,1.23042 -1.110461,0.62132 -1.889851,1.70325 -2.494214,2.78241 -0.30385,0.0884 -0.604897,1.69997 -0.945806,1.10961 z" />
    <path
       style="fill:#000000;stroke-width:0.10687"
       id="ring-2"
       d="m 122.17398,223.08018 c -1.64795,-0.20233 -3.26798,-0.74275 -4.65583,-1.66378 -0.86194,-0.40907 -1.53395,-1.22019 -2.21241,-1.91966 -1.6038,-1.74764 -2.64748,-4.01905 -3.00054,-6.35982 -0.17848,-1.52167 -0.0812,-3.09311 0.35737,-4.55053 0.26366,-1.07957 0.88851,-2.04772 1.44227,-2.99822 0.81057,-1.05063 1.64561,-2.10477 2.74433,-2.87843 1.09229,-0.89091 2.42649,-1.41693 3.75617,-1.82683 1.15097,-0.21458 2.30208,-0.46954 3.48282,-0.35765 1.18048,0.0288 2.33576,0.28407 3.43513,0.64426 1.85976,0.7273 3.53114,1.8929 4.81829,3.424 0.6642,0.84263 1.37302,1.71418 1.78469,2.65671 0.32026,1.12385 0.79698,2.20129 0.86006,3.38347 0.12871,1.41078 0.1963,2.88119 -0.33412,4.22224 -0.24174,0.95048 -0.66548,1.9112 -1.14875,2.7263 -0.65916,0.91624 -1.30422,1.89207 -2.21345,2.61403 -1.22813,1.16012 -2.73593,1.99421 -4.32548,2.53427 -1.42361,0.29838 -2.86616,0.5958 -4.32888,0.39241 l -0.24028,-0.0209 z m 3.95419,-1.05528 c 1.60078,-0.44474 3.20697,-1.14833 4.39863,-2.30461 1.07002,-0.75575 1.71392,-1.95233 2.40046,-3.03886 0.52083,-1.04193 0.9844,-2.14318 1.14304,-3.30158 0.17199,-1.32795 0.12083,-2.69315 -0.22362,-3.98585 -0.13519,-0.86388 -0.68677,-1.74693 -1.00733,-2.61331 -0.53858,-0.93641 -1.23843,-1.83627 -1.98259,-2.57521 -0.9187,-0.58266 -1.66357,-1.40005 -2.69248,-1.77659 -2.14099,-1.08638 -4.65201,-1.22495 -6.9781,-0.77635 -1.3253,0.43596 -2.71686,0.79668 -3.80878,1.72711 -1.04448,0.68291 -1.70084,1.6807 -2.43305,2.63818 -1.13079,1.69087 -1.70409,3.7234 -1.86381,5.74067 0.2088,1.86279 0.53816,3.8162 1.59744,5.3969 0.63024,1.09248 1.47414,2.07062 2.4187,2.91168 0.8684,0.62043 1.83041,1.18329 2.87137,1.52334 1.89919,0.81441 4.01749,0.73778 6.02248,0.46902 l 0.13751,-0.0345 z m -3.3664,-0.65367 c -1.06618,-0.11482 -2.06132,-0.49823 -3.03367,-0.90995 -1.45737,-0.76981 -2.70765,-1.88642 -3.71552,-3.18684 -0.66445,-0.84516 -1.11414,-1.90557 -1.2403,-2.96853 0.5076,-0.65108 1.06509,1.06846 1.5286,1.33734 0.75161,1.03088 1.70311,1.96077 2.91059,2.42426 0.98835,0.64353 2.19613,0.92825 3.35483,1.0877 1.25843,0.11436 2.5304,-0.0546 3.73604,-0.39876 1.03914,-0.52766 2.20905,-0.88802 3.00585,-1.79126 1.13692,-1.05385 2.09944,-2.34308 2.41833,-3.89028 0.55407,-1.96265 0.1676,-4.01862 -0.0185,-6.00136 0.95923,0.19537 1.12329,1.69055 1.48862,2.56345 0.26577,1.06599 0.38346,2.18233 0.36156,3.27805 -0.20533,1.26071 -0.54774,2.50877 -1.2347,3.60546 -0.55469,1.0631 -1.43445,1.82258 -2.30394,2.61905 -0.88409,0.709 -1.87783,1.30105 -2.93552,1.72133 -1.37199,0.4877 -2.87581,0.67944 -4.3239,0.51034 z m -0.0535,-3.83306 c -2.78767,-0.52397 -4.98725,-3.28523 -4.74704,-6.13429 -0.14051,-1.15787 0.55645,-2.14638 1.14502,-3.05205 0.71481,-0.79041 1.5092,-1.49449 2.48486,-1.88601 1.08042,-0.51871 2.25222,-0.47753 3.41912,-0.35577 1.69219,0.25121 3.24231,1.38366 4.02976,2.90652 0.23887,0.53036 0.6301,1.0293 0.76427,1.58829 -0.0468,1.23505 0.22801,2.56426 -0.46765,3.67179 -0.45121,1.02643 -1.21875,1.86552 -2.17145,2.44652 -1.24058,0.92685 -2.97237,1.06353 -4.45689,0.815 z m 2.24189,-0.91583 c 2.23706,-0.44784 4.29742,-2.64222 3.92112,-5.03043 -0.0333,-1.10131 -0.51413,-2.14483 -1.13836,-2.98605 -0.82073,-0.65846 -1.66961,-1.35792 -2.73838,-1.57188 -1.01106,-0.16852 -2.15062,-0.11064 -3.06603,0.37603 -1.35818,0.28908 -2.15606,1.62047 -2.70969,2.78864 -0.91981,2.10662 0.23529,4.68739 2.14056,5.80421 1.06934,0.56637 2.39437,1.02039 3.59078,0.61948 z m -8.58922,-6.36876 c -0.25627,-1.12076 0.27772,-2.1759 0.69534,-3.16189 0.52918,-1.11911 1.52117,-1.7899 2.53776,-2.40046 1.8076,-1.01861 4.03825,-1.11145 5.98963,-0.47922 0.62117,-0.0185 2.22511,1.43005 0.68721,1.13168 -1.09932,-0.0671 -2.14976,-0.42065 -3.26731,-0.2125 -1.14796,0.10227 -2.30949,0.50395 -3.20261,1.23042 -1.11046,0.62132 -1.88985,1.70325 -2.49421,2.78241 -0.30385,0.0884 -0.6049,1.69997 -0.94581,1.10961 z" />
    <path
       style="fill:#000000;stroke-width:0.10687"
       id="ring-3"
       d="m 165.47516,223.08018 c -1.64795,-0.20233 -3.26798,-0.74275 -4.65583,-1.66378 -0.86194,-0.40907 -1.53394,-1.22019 -2.2124,-1.91966 -1.60381,-1.74764 -2.64749,-4.01905 -3.00055,-6.35982 -0.17847,-1.52167 -0.0812,-3.09311 0.35737,-4.55053 0.26366,-1.07957 0.88851,-2.04772 1.44227,-2.99822 0.81057,-1.05063 1.64561,-2.10477 2.74434,-2.87843 1.09229,-0.89091 2.42648,-1.41693 3.75616,-1.82683 1.15097,-0.21458 2.30208,-0.46954 3.48282,-0.35765 1.18049,0.0288 2.33576,0.28407 3.43514,0.64426 1.85976,0.7273 3.53113,1.8929 4.81829,3.424 0.6642,0.84263 1.37301,1.71418 1.78468,2.65671 0.32026,1.12385 0.79699,2.20129 0.86007,3.38347 0.1287,1.41078 0.1963,2.88119 -0.33413,4.22224 -0.24174,0.95048 -0.66548,1.9112 -1.14875,2.7263 -0.65916,0.91624 -1.30422,1.89207 -2.21345,2.61403 -1.22812,1.16012 -2.73593,1.99421 -4.32547,2.53427 -1.42362,0.29838 -2.86617,0.5958 -4.32888,0.39241 l -0.24029,-0.0209 z m 3.9542,-1.05528 c 1.60077,-0.44474 3.20696,-1.14833 4.39862,-2.30461 1.07003,-0.75575 1.71393,-1.95233 2.40047,-3.03886 0.52082,-1.04193 0.98439,-2.14318 1.14303,-3.30158 0.17199,-1.32795 0.12083,-2.69315 -0.22362,-3.98585 -0.13518,-0.86388 -0.68677,-1.74693 -1.00733,-2.61331 -0.53858,-0.93641 -1.23843,-1.83627 -1.98259,-2.57521 -0.91869,-0.58266 -1.66357,-1.40005 -2.69248,-1.77659 -2.14099,-1.08638 -4.65201,-1.22495 -6.9781,-0.77635 -1.3253,0.43596 -2.71685,0.79668 -3.80877,1.72711 -1.04449,0.68291 -1.70085,1.6807 -2.43306,2.63818 -1.13079,1.69087 -1.70408,3.7234 -1.86381,5.74067 0.2088,1.86279 0.53816,3.8162 1.59744,5.3969 0.63024,1.09248 1.47415,2.07062 2.4187,2.91168 0.8684,0.62043 1.83041,1.18329 2.87138,1.52334 1.89918,0.81441 4.01748,0.73778 6.02248,0.46902 l 0.1375,-0.0345 z m -3.36641,-0.65367 c -1.06618,-0.11482 -2.06131,-0.49823 -3.03367,-0.90995 -1.45737,-0.76981 -2.70764,-1.88642 -3.71551,-3.18684 -0.66446,-0.84516 -1.11414,-1.90557 -1.2403,-2.96853 0.5076,-0.65108 1.06509,1.06846 1.52859,1.33734 0.75161,1.03088 1.70311,1.96077 2.91059,2.42426 0.98835,0.64353 2.19613,0.92825 3.35483,1.0877 1.25843,0.11436 2.5304,-0.0546 3.73605,-0.39876 1.03914,-0.52766 2.20904,-0.88802 3.00584,-1.79126 1.13692,-1.05385 2.09944,-2.34308 2.41834,-3.89028 0.55406,-1.96265 0.16759,-4.01862 -0.0185,-6.00136 0.95923,0.19537 1.12328,1.69055 1.48861,2.56345 0.26577,1.06599 0.38346,2.18233 0.36156,3.27805 -0.20533,1.26071 -0.54774,2.50877 -1.2347,3.60546 -0.55468,1.0631 -1.43445,1.82258 -2.30393,2.61905 -0.88409,0.709 -1.87784,1.30105 -2.93552,1.72133 -1.372,0.4877 -2.87582,0.67944 -4.32391,0.51034 z m -0.0535,-3.83306 c -2.78767,-0.52397 -4.98725,-3.28523 -4.74704,-6.13429 -0.14051,-1.15787 0.55645,-2.14638 1.14503,-3.05205 0.7148,-0.79041 1.50919,-1.49449 2.48486,-1.88601 1.08041,-0.51871 2.25222,-0.47753 3.41912,-0.35577 1.69218,0.25121 3.2423,1.38366 4.02975,2.90652 0.23887,0.53036 0.6301,1.0293 0.76427,1.58829 -0.0468,1.23505 0.22802,2.56426 -0.46764,3.67179 -0.45122,1.02643 -1.21875,1.86552 -2.17146,2.44652 -1.24058,0.92685 -2.97237,1.06353 -4.45689,0.815 z m 2.24189,-0.91583 c 2.23706,-0.44784 4.29743,-2.64222 3.92112,-5.03043 -0.0333,-1.10131 -0.51413,-2.14483 -1.13835,-2.98605 -0.82074,-0.65846 -1.66962,-1.35792 -2.73839,-1.57188 -1.01106,-0.16852 -2.15062,-0.11064 -3.06603,0.37603 -1.35818,0.28908 -2.15606,1.62047 -2.70968,2.78864 -0.91981,2.10662 0.23528,4.68739 2.14055,5.80421 1.06935,0.56637 2.39437,1.02039 3.59078,0.61948 z m -8.58921,-6.36876 c -0.25628,-1.12076 0.27771,-2.1759 0.69533,-3.16189 0.52918,-1.11911 1.52117,-1.7899 2.53776,-2.40046 1.80761,-1.01861 4.03825,-1.11145 5.98963,-0.47922 0.62117,-0.0185 2.22511,1.43005 0.68721,1.13168 -1.09932,-0.0671 -2.14976,-0.42065 -3.2673,-0.2125 -1.14797,0.10227 -2.30949,0.50395 -3.20261,1.23042 -1.11046,0.62132 -1.88985,1.70325 -2.49422,2.78241 -0.30385,0.0884 -0.60489,1.69997 -0.9458,1.10961 z" />
    <path
       style="fill:#000000;fill-opacity:1;stroke:none;stroke-width:0.264583px;stroke-linecap:butt;stroke-linejoin:miter;stroke-opacity:1"
       d="m 152.24111,197.11096 6.73726,0.0707 1.65385,-6.11179 -1.60465,-6.13197 -6.7248,-0.0249 1.82676,6.14937 z"
       id="level-1"
       sodipodi:nodetypes="ccccccc" />
    <path
       style="fill:#000000;fill-opacity:1;stroke:none;stroke-width:0.264583px;stroke-linecap:butt;stroke-linejoin:miter;stroke-opacity:1"
       d="m 161.34549,197.11066 6.73726,0.0707 1.65385,-6.11179 -1.60465,-6.13197 -6.7248,-0.0249 1.82676,6.14937 z"
       id="level-2"
       sodipodi:nodetypes="ccccccc" />
    <path
       style="fill:#000000;fill-opacity:1;stroke:none;stroke-width:0.264583px;stroke-linecap:butt;stroke-linejoin:miter;stroke-opacity:1"
       d="m 170.5618,197.11096 6.73726,0.0707 1.65385,-6.11179 -1.60465,-6.13197 -6.7248,-0.0249 1.82676,6.14937 z"
       id="level-3"
       sodipodi:nodetypes="ccccccc" />
    <g
       id="hit-2"
       transform="matrix(0.24488019,0,0,0.24488019,24.112033,181.58961)">
      <path
         style="fill:#000000;fill-opacity:1"
         id="path1096-0"
         d="m 250.15,289.35 -9.4,0.4 q -10.15,1.5 -13.1,6.9 -3.95,7.35 -5.3,25.35 -2.5,-6.25 -5.6,-12.5 -6.15,-12.6 -9.1,-12.85 -5,-0.4 -11.65,3.45 -3.3,1.9 -5.65,3.9 6.65,-21.35 3.3,-26.65 -1.3,-2.05 -8.1,-3.9 L 179,272 q 15.35,-11.35 16,-17.35 0.4,-3.4 -5.75,-7.35 L 183,244 q 17.35,0.65 22,-4 4.65,-4.65 4.65,-20.65 l 4.6,8.85 q 5.15,8.95 8.1,9.15 5.8,0.4 11.5,-6.1 2.85,-3.25 4.5,-6.6 l -2.35,8.9 q -1.85,9.95 0.35,15.1 2.5,5.85 9.85,8.5 3.65,1.35 6.8,1.5 -4,1.2 -7.75,3.95 -7.5,5.5 -6.25,13.4 1.25,7.9 6.45,11.4 2.45,1.7 4.7,1.95" />
    </g>
    <g
       id="hit-1"
       transform="matrix(-0.24488019,0,0,0.24488019,130.71629,224.0405)">
      <path
         style="fill:#000000;fill-opacity:1"
         id="path1096-0-9"
         d="m 250.15,289.35 -9.4,0.4 q -10.15,1.5 -13.1,6.9 -3.95,7.35 -5.3,25.35 -2.5,-6.25 -5.6,-12.5 -6.15,-12.6 -9.1,-12.85 -5,-0.4 -11.65,3.45 -3.3,1.9 -5.65,3.9 6.65,-21.35 3.3,-26.65 -1.3,-2.05 -8.1,-3.9 L 179,272 q 15.35,-11.35 16,-17.35 0.4,-3.4 -5.75,-7.35 L 183,244 q 17.35,0.65 22,-4 4.65,-4.65 4.65,-20.65 l 4.6,8.85 q 5.15,8.95 8.1,9.15 5.8,0.4 11.5,-6.1 2.85,-3.25 4.5,-6.6 l -2.35,8.9 q -1.85,9.95 0.35,15.1 2.5,5.85 9.85,8.5 3.65,1.35 6.8,1.5 -4,1.2 -7.75,3.95 -7.5,5.5 -6.25,13.4 1.25,7.9 6.45,11.4 2.45,1.7 4.7,1.95" />
    </g>
    <g
       id="platform-21">
      <path
         style="fill:none;stroke:#000000;stroke-width:1;stroke-linecap:butt;stroke-linejoin:miter;stroke-miterlimit:4;stroke-dasharray:none;stroke-opacity:1"
         d="m 17.831665,265.55049 0.180422,-36.83607 2.826605,-2.91682 h 34.069606 l 3.037097,2.91682 -0.12028,37.13677"
         id="path1835" />
      <path
         style="fill:none;stroke:#000000;stroke-width:1;stroke-linecap:butt;stroke-linejoin:miter;stroke-miterlimit:4;stroke-dasharray:none;stroke-opacity:1"
         d="m 18.072228,230.30814 2.34548,1.68393 5.953912,-3.1273 6.104264,3.21751 5.502857,-3.03709 5.893771,3.06716 5.593069,-3.1273 6.014053,3.21752 2.375551,-1.38324"
         id="path1870" />
      <path
         style="fill:none;stroke:#000000;stroke-width:1;stroke-linecap:butt;stroke-linejoin:miter;stroke-miterlimit:4;stroke-dasharray:none;stroke-opacity:1"
         d="m 21.80094,265.12951 31.513636,0.0301"
         id="path1872" />
    </g>
    <g
       id="platform-22"
       transform="translate(43.060269,4e-4)">
      <path
         style="fill:none;stroke:#000000;stroke-width:1;stroke-linecap:butt;stroke-linejoin:miter;stroke-miterlimit:4;stroke-dasharray:none;stroke-opacity:1"
         d="m 17.831665,265.55049 0.180422,-36.83607 2.826605,-2.91682 h 34.069606 l 3.037097,2.91682 -0.12028,37.13677"
         id="path1835-6" />
      <path
         style="fill:none;stroke:#000000;stroke-width:1;stroke-linecap:butt;stroke-linejoin:miter;stroke-miterlimit:4;stroke-dasharray:none;stroke-opacity:1"
         d="m 18.072228,230.30814 2.34548,1.68393 5.953912,-3.1273 6.104264,3.21751 5.502857,-3.03709 5.893771,3.06716 5.593069,-3.1273 6.014053,3.21752 2.375551,-1.38324"
         id="path1870-6" />
      <path
         style="fill:none;stroke:#000000;stroke-width:1;stroke-linecap:butt;stroke-linejoin:miter;stroke-miterlimit:4;stroke-dasharray:none;stroke-opacity:1"
         d="m 21.80094,265.12951 31.513636,0.0301"
         id="path1872-2" />
    </g>
    <g
       id="platform-23"
       transform="translate(85.940463,4e-4)">
      <path
         style="fill:none;stroke:#000000;stroke-width:1;stroke-linecap:butt;stroke-linejoin:miter;stroke-miterlimit:4;stroke-dasharray:none;stroke-opacity:1"
         d="m 17.831665,265.55049 0.180422,-36.83607 2.826605,-2.91682 h 34.069606 l 3.037097,2.91682 -0.12028,37.13677"
         id="path1835-3" />
      <path
         style="fill:none;stroke:#000000;stroke-width:1;stroke-linecap:butt;stroke-linejoin:miter;stroke-miterlimit:4;stroke-dasharray:none;stroke-opacity:1"
         d="m 18.072228,230.30814 2.34548,1.68393 5.953912,-3.1273 6.104264,3.21751 5.502857,-3.03709 5.893771,3.06716 5.593069,-3.1273 6.014053,3.21752 2.375551,-1.38324"
         id="path1870-3" />
      <path
         style="fill:none;stroke:#000000;stroke-width:1;stroke-linecap:butt;stroke-linejoin:miter;stroke-miterlimit:4;stroke-dasharray:none;stroke-opacity:1"
         d="m 21.80094,265.12951 31.513636,0.0301"
         id="path1872-5" />
    </g>
    <g
       id="platform-24"
       transform="translate(129.12136,-0.02143997)">
      <path
         style="fill:none;stroke:#000000;stroke-width:1;stroke-linecap:butt;stroke-linejoin:miter;stroke-miterlimit:4;stroke-dasharray:none;stroke-opacity:1"
         d="m 17.831665,265.55049 0.180422,-36.83607 2.826605,-2.91682 h 34.069606 l 3.037097,2.91682 -0.12028,37.13677"
         id="path1835-3-4" />
      <path
         style="fill:none;stroke:#000000;stroke-width:1;stroke-linecap:butt;stroke-linejoin:miter;stroke-miterlimit:4;stroke-dasharray:none;stroke-opacity:1"
         d="m 18.072228,230.30814 2.34548,1.68393 5.953912,-3.1273 6.104264,3.21751 5.502857,-3.03709 5.893771,3.06716 5.593069,-3.1273 6.014053,3.21752 2.375551,-1.38324"
         id="path1870-3-4" />
      <path
         style="fill:none;stroke:#000000;stroke-width:1;stroke-linecap:butt;stroke-linejoin:miter;stroke-miterlimit:4;stroke-dasharray:none;stroke-opacity:1"
         d="m 21.80094,265.12951 31.513636,0.0301"
         id="path1872-5-1" />
    </g>
    <path
       id="sonic-2"
       style="fill:#000000;fill-opacity:1;stroke:#000000;stroke-width:0.264583px;stroke-linecap:butt;stroke-linejoin:miter;stroke-opacity:1"
       d="m 36.258187,235.9531 c -1.294834,-0.0184 -2.590922,0.28247 -3.895886,0.87281 1.071428,0.40484 1.942865,1.06762 2.848922,1.74357 l -0.40411,0.4041 c -1.772028,-0.21431 -3.287413,0.64935 -4.826578,1.40354 -1.032207,0.70389 -1.954539,1.33423 -2.57297,2.40243 2.050687,-0.58554 4.566254,-1.0709 6.570658,-0.12764 l -0.276469,0.36174 c -1.455272,0.0677 -2.742327,0.47683 -3.827673,1.44591 -0.963067,-0.63863 -1.860023,-0.49227 -2.913,-0.21291 -0.533148,0.57191 -0.419505,0.60422 0.06408,1.14825 -0.07389,0.34114 -0.154785,0.68071 -0.234094,1.02061 -0.399611,0.0663 -0.642532,-0.0901 -0.510046,0.34054 l 0.254765,0.4036 0.978234,-0.12712 c -0.01193,-0.86782 0.08744,-1.7701 0.382923,-2.42415 0.637861,-0.0523 1.087261,0.2502 1.637109,0.53124 -0.424811,0.63133 -0.846749,1.37424 -0.765328,2.14767 l 0.914156,-0.34003 c 2.447154,-1.04799 4.652062,-0.45382 6.953064,0.63769 l 0.488859,0.46818 -0.191203,0.23358 c -0.820391,0.1554 -1.581665,-0.0863 -2.381249,-0.25528 -1.422246,-0.16529 -2.74309,0.10936 -4.12533,0.38292 -0.897904,0.57831 -1.687042,0.76551 -2.551265,0.19121 -1.649091,-0.19598 -3.184489,0.92674 -4.188892,1.95646 0.800203,0.0282 0.914156,-0.076 0.914156,0.70177 -1.723659,0.83749 -2.268135,3.36038 -1.871204,4.65656 l 0.80822,0.59532 c 1.897949,-0.44322 3.898565,-0.56576 5.145422,-1.95647 -0.31615,-1.18598 -0.908838,-2.12262 -1.756482,-2.93678 0.152957,-0.79567 0.977972,-0.96979 1.650546,-1.31568 l 0.34003,0.4253 c -0.525758,1.31464 -0.466388,2.31981 0.999423,2.27531 l 0.276469,-0.34054 c -0.41925,0.0702 -0.760697,-0.086 -1.063502,-0.36122 -0.0644,-0.76883 0.158901,-1.47045 0.446485,-2.16886 0.610452,-0.62316 1.251632,-1.07101 2.126485,-1.0418 0.556751,0.11873 0.826378,0.36639 1.190625,0.76533 0.623968,-0.0386 0.908205,-0.10789 1.382345,0.31884 l 0.12764,0.65939 c -0.516323,0.80575 -1.263527,2.10478 -2.254125,2.10478 -0.51258,-0.0282 -0.52983,-0.0249 -0.552938,-0.51004 0.864173,-0.16982 0.679103,-0.66229 0.340547,-1.29708 -0.490523,-0.3306 -0.738042,-0.23201 -1.275891,-0.0853 -0.478462,0.41994 -0.426586,0.86092 -0.178283,1.38235 0.17431,0.10414 0.354338,0.19422 0.539501,0.27647 l 0.03566,0.14211 c 0.126749,0.65737 0.291363,0.86631 0.779797,1.00717 0.356235,0.12826 0.648313,0.0172 0.992188,-0.12867 0.728844,-0.22389 1.117104,-0.69313 1.615922,-1.23352 0.233671,-0.54727 0.572029,-1.00469 0.935343,-1.46709 l 0.574126,0.0641 c -0.0095,-0.49112 0.07205,-0.94073 0.212907,-1.40353 0.222813,-0.25519 0.343452,-0.24351 0.658874,-0.0636 0.590506,0.68758 1.022752,0.25538 1.531173,-0.31936 l -0.467672,-0.53123 c -0.220855,-0.52121 0.114122,-0.89505 0.42478,-1.29708 0.95113,-0.5034 1.990825,0.41036 2.48822,0.97823 -0.454587,0.85813 -1.69874,-0.34183 -1.345137,0.26045 0.632817,0.39314 1.195441,0.44734 1.876371,0.27079 0.506906,0.26108 0.837644,0.12033 1.361157,-0.0212 l 0.658875,0.17001 -0.510046,0.34055 c 0.738937,0.45757 1.63659,0.15845 2.423624,-0.0429 0.468085,-0.27972 1.410405,-0.43431 0.722953,-0.87178 -0.579662,-0.15633 -0.989671,-0.004 -1.53634,0.1757 l -1.121378,-0.13281 -0.957048,0.0212 c -0.793702,-0.064 -1.066164,-0.37994 -1.573031,-0.93586 -0.846504,-0.60135 -0.809453,-1.53202 -0.871781,-2.4877 0.240516,-1.1157 0.548003,-1.76834 1.637109,-2.0836 1.597273,0.35591 1.265366,2.30943 1.573548,3.42357 -0.715076,0.62567 -0.8685,1.1851 -0.552938,2.04121 l 0.595312,0.0212 c 0.174912,-0.43955 0.194601,-0.91713 0.255282,-1.38234 l 0.425297,0.27646 c 0.599946,0.34516 0.792043,-0.41706 1.062984,-0.25528 -0.06828,0.73684 1.059611,-0.38398 1.297079,-0.71727 0.44823,-0.67855 0.736614,-1.3447 0.892968,-2.12648 -0.514174,-0.56973 -0.667093,-0.77565 -0.595312,-1.49345 1.532763,-0.12505 2.064436,-1.19332 2.572969,-2.54093 -1.318901,-0.49641 -2.515885,0.32523 -3.721219,0.86093 l 0.24753,1.27692 c -0.235752,0.19755 -0.301348,0.1319 -0.587561,0.0842 -0.295262,-1.51297 -0.710991,-2.94342 -1.807642,-4.04007 -0.258248,0.57029 -0.128675,1.02476 -0.02119,1.61593 l -0.807703,0.53175 c -1.078877,0.25498 -1.686959,0.15515 -2.615344,-0.31936 -0.907304,-0.94232 -0.350885,-2.68986 0.361218,-3.38067 -1.297914,-0.68677 -2.591233,-1.02493 -3.886068,-1.04335 z m 5.560901,5.32835 c 0.887054,-0.0122 1.742288,0.44014 2.131653,1.6707 0.136124,0.83401 0.27497,1.59477 0.139526,2.44327 -1.192601,0.67978 0.07927,-3.25493 -2.803963,-3.10421 -0.562479,0.20671 -2.279736,1.38591 -1.789038,0.10542 0.516168,-0.62616 1.434769,-1.10294 2.321822,-1.11518 z m -15.325679,7.87704 c 0.90336,0.006 1.76838,-0.0873 1.190625,0.91416 -0.624836,0.25384 -1.111283,0.70303 -1.625741,1.12499 l -0.904338,-0.18913 c -0.4016,-1.1576 0.566296,-1.36423 1.339454,-1.85002 z" />
    <path
       style="fill:#000000;fill-opacity:1;stroke:none;stroke-width:0.264583px;stroke-linecap:butt;stroke-linejoin:miter;stroke-opacity:1"
       d="m 42.609707,240.27632 c -0.531686,-0.94687 -0.32187,-1.8808 -0.210491,-2.90178 -0.384533,-0.43432 -0.515353,-0.18626 -0.947211,0.10525 -0.729257,0.57651 -1.139819,1.33838 -1.60876,2.11995 l -0.259358,0.50367 0.199152,0.27363 0.466154,0.23005 0.120282,-0.48112 c 0.158106,-0.75823 0.762185,-1.18355 1.217845,-1.75911 -0.1902,0.90163 0.08792,1.62181 0.496156,2.40562 l 0.691616,-0.19546 z"
       id="path3790"
       sodipodi:nodetypes="cccccccccccc" />
    <path
       style="fill:none;stroke:#000000;stroke-width:0.264583px;stroke-linecap:butt;stroke-linejoin:miter;stroke-opacity:1"
       d="m 23.511718,256.59437 c -3.302388,-1.39409 -1.62466,-4.19546 0.148844,-5.95362"
       id="path3905"
       sodipodi:nodetypes="cc" />
    <path
       style="fill:none;stroke:#000000;stroke-width:0.264583px;stroke-linecap:butt;stroke-linejoin:miter;stroke-opacity:1"
       d="m 28.657336,254.63819 c 0.517147,-0.44262 0.946218,-0.93738 1.23325,-1.55219"
       id="path3907"
       sodipodi:nodetypes="cc" />
    <path
       style="fill:none;stroke:#000000;stroke-width:0.264583px;stroke-linecap:butt;stroke-linejoin:miter;stroke-opacity:1"
       d="m 34.445895,252.49679 c 0.658314,0.64473 1.407101,0.66165 2.254861,0.37905 0.532631,0.736 0.979716,0.70513 1.834285,0.78183 l 0.691615,-0.0451 c 0.426145,0.63515 1.04603,1.07593 1.623796,1.56366 -0.599479,0.92287 -0.146805,1.75335 0.511193,2.19513 l 0.43602,-0.015 c -0.345514,0.62618 0.18298,0.96905 0.737035,1.13477"
       id="path3909"
       sodipodi:nodetypes="cccccccc" />
    <path
       style="fill:none;stroke:#000000;stroke-width:0.264583px;stroke-linecap:butt;stroke-linejoin:miter;stroke-opacity:1"
       d="m 35.929243,251.17239 c 0.173665,0.6251 0.469836,1.19831 0.745196,1.78239"
       id="path3911"
       sodipodi:nodetypes="cc" />
    <path
       style="fill:none;stroke:#000000;stroke-width:0.264583px;stroke-linecap:butt;stroke-linejoin:miter;stroke-opacity:1"
       d="m 40.824135,255.25517 0.792911,-0.55317 c 0.685936,0.29854 1.052651,-0.0273 1.695448,-0.32345 0.714416,-1.56655 -0.01612,-3.23018 -1.057561,-4.07796 -0.652554,0.006 -1.05374,-0.12358 -1.3183,0.4678 -0.327104,-0.42515 -0.396934,-0.45094 -0.882409,-0.32957 -0.403024,0.35404 -0.608992,0.76406 -0.823938,1.23856"
       id="path3915"
       sodipodi:nodetypes="ccccccc" />
    <path
       style="fill:none;stroke:#000000;stroke-width:0.264583px;stroke-linecap:butt;stroke-linejoin:miter;stroke-opacity:1"
       d="m 39.200339,253.69151 c 2.199574,0.001 0.897599,-2.49091 -0.198628,-1.96628 -0.380229,0.75719 -0.812949,0.41595 -1.382088,0.0212 -0.397076,-0.5152 -0.259515,-1.18944 -0.393365,-1.69839"
       id="path3917"
       sodipodi:nodetypes="cccc" />
    <path
       style="fill:none;stroke:#000000;stroke-width:0.264583px;stroke-linecap:butt;stroke-linejoin:miter;stroke-opacity:1"
       d="m 38.015233,249.72885 c 0.701779,0.15795 1.28458,0.53765 1.899275,0.89176"
       id="path3919"
       sodipodi:nodetypes="cc" />
    <path
       style="fill:none;stroke:#000000;stroke-width:0.264583px;stroke-linecap:butt;stroke-linejoin:miter;stroke-opacity:1"
       d="m 43.062922,249.71586 c -0.239269,0.2686 -0.537599,0.40856 -0.851427,0.56824"
       id="path3923"
       sodipodi:nodetypes="cc" />
    <path
       style="fill:none;stroke:#000000;stroke-width:0.264583px;stroke-linecap:butt;stroke-linejoin:miter;stroke-opacity:1"
       d="m 45.242391,249.51395 0.806452,0.44135 -0.08269,0.15035 0.608923,0.2105 0.390911,0.4736 -0.225525,0.12028 0.52623,0.37588 c 0.304698,0.51656 0.215751,0.87364 0.120279,1.43586 -0.01514,0.67379 -0.256313,1.20007 -0.62771,1.6689"
       id="path3927"
       sodipodi:nodetypes="ccccccccc" />
    <path
       style="fill:#000000;fill-opacity:1;stroke:none;stroke-width:0.264583px;stroke-linecap:butt;stroke-linejoin:miter;stroke-opacity:1"
       d="m 47.309923,253.83634 c 1.409474,-0.57497 2.48373,-1.02282 3.848581,-1.47777 l 0.159471,0.0532 c -0.419162,0.93392 -0.913812,2.3289 -2.083761,3.24259 -0.628786,-0.54252 -1.271875,-1.06777 -1.91366,-1.59471 z"
       id="path3929"
       sodipodi:nodetypes="cccccc" />
    <path
       style="fill:none;stroke:#000000;stroke-width:0.264583px;stroke-linecap:butt;stroke-linejoin:miter;stroke-opacity:1"
       d="m 51.057507,252.54994 c 0.93564,-0.4721 2.370467,-1.1654 2.5356,0.26574 l -0.227347,0.29058"
       id="path4098"
       sodipodi:nodetypes="ccc" />
    <path
       style="fill:#000000;fill-opacity:1;stroke:none;stroke-width:0.264583px;stroke-linecap:butt;stroke-linejoin:miter;stroke-opacity:1"
       d="m 47.014862,254.00351 c -0.309016,0.22715 -0.461071,0.23555 -0.811903,0.16536 -0.134307,-0.32469 -0.163989,-0.62135 -0.150358,-0.96225 -0.501722,-0.29878 -0.484515,-0.19072 -0.736722,0.28567 l -0.195455,0.52623 c -0.532427,0.0238 -1.053124,-0.0508 -1.57869,-0.12024 l -0.22924,0.48027 c 0.549035,0.17611 1.062857,0.43133 1.582402,0.67743 0.02391,0.67143 -0.495078,0.97285 -1.007354,1.29302 -0.647328,0.70067 -1.037087,1.32472 -1.533583,2.10493 -0.262579,0.93041 -9.22e-4,1.71172 0.345808,2.571 0.599413,0.88515 1.190711,1.04798 2.165059,1.32309 4.056487,-2.09822 8.333817,-7.53499 8.861751,-9.47329 l -0.274919,-0.0268 c -0.113583,-0.14889 -1.085133,1.52511 -3.144115,3.44101 -0.946976,1.28412 -2.103551,2.3232 -3.292695,3.36787 l -1.714005,1.12764 c -0.406293,0.29697 -0.412915,0.64029 -0.511191,1.08253 -0.370504,0.13181 -0.543309,-0.006 -0.872038,-0.18039 -0.168472,-0.77564 -0.04609,-1.02394 0.541264,-1.51855 l 1.097565,-0.90211 1.638829,-1.26295 0.857004,-0.61644 c 0.637828,-0.53867 2.140865,-2.28928 2.294,-3.07533 l -1.384375,1.07942 c -0.623014,0.82995 -1.283839,1.56375 -2.06733,1.72528 -0.551132,-0.5335 -1.301524,-1.04169 -1.428338,-1.83429 0.731728,-0.0803 1.229331,-0.48008 1.662951,-1.04116 l 0.191365,-0.18074 -0.01064,-0.22326 z"
       id="path4100"
       sodipodi:nodetypes="ccccccccccccccccccccccccccccccc" />
    <g
       id="sonic-3">
      <path
         style="fill:none;stroke:#000000;stroke-width:0.465;stroke-linecap:butt;stroke-linejoin:miter;stroke-miterlimit:4;stroke-dasharray:none;stroke-opacity:1"
         d="m 34.658175,212.065 c 1.189855,2.49321 3.158464,6.04338 6.264068,4.65193"
         id="path16892"
         sodipodi:nodetypes="cc" />
      <path
         style="fill:none;stroke:#000000;stroke-width:0.264583px;stroke-linecap:butt;stroke-linejoin:miter;stroke-opacity:1"
         d="m 33.664268,209.07159 c 0.375876,1.09594 0.274585,1.84024 -0.87698,2.12813 l -0.830204,-0.35079"
         id="path16894"
         sodipodi:nodetypes="ccc" />
      <path
         style="fill:none;stroke:#000000;stroke-width:0.264583px;stroke-linecap:butt;stroke-linejoin:miter;stroke-opacity:1"
         d="m 32.787288,211.19972 c 0.637713,1.04498 -0.270805,1.25236 -1.169302,1.35639 -1.498379,-0.29572 -2.381548,-0.94881 -3.26236,-2.05797 -0.216657,-0.63948 -0.127186,-0.92737 0.153228,-1.49385 0.449235,-0.30976 0.550354,-0.16334 0.975651,0.11576"
         id="path16896"
         sodipodi:nodetypes="ccccc" />
      <path
         style="fill:none;stroke:#000000;stroke-width:0.264583px;stroke-linecap:butt;stroke-linejoin:miter;stroke-opacity:1"
         d="m 29.74082,208.43379 c -0.407408,-0.0186 -0.565916,0.10014 -0.822689,0.38029"
         id="path16898"
         sodipodi:nodetypes="cc" />
      <path
         style="fill:none;stroke:#000000;stroke-width:0.264583px;stroke-linecap:butt;stroke-linejoin:miter;stroke-opacity:1"
         d="m 31.617986,212.55611 c 0.333227,0.55378 0.233679,0.81321 0.04933,1.39259 -0.557638,1.48833 -1.460492,2.39595 -2.530078,3.5388 -1.544517,0.9962 -2.725318,1.87849 -4.332552,1.07487 -1.661099,-1.78796 -0.732993,-4.82613 0.214976,-6.39961 0.526255,-1.21137 1.060641,-1.97258 2.083594,-2.67891 -0.07613,-0.61577 0.45134,-1.00103 0.810286,-1.45521 0.66837,-0.62323 1.372782,-0.96148 2.282032,-0.82687 0.827665,-0.95888 2.190338,-0.65905 3.148031,-0.54179"
         id="path16900"
         sodipodi:nodetypes="ccccccccc" />
      <path
         style="fill:none;stroke:#000000;stroke-width:0.264583px;stroke-linecap:butt;stroke-linejoin:miter;stroke-opacity:1"
         d="m 28.355626,210.49814 c -0.603069,0.80408 -0.864567,1.73675 -1.186225,2.67334"
         id="path16902"
         sodipodi:nodetypes="cc" />
      <path
         style="fill:none;stroke:#000000;stroke-width:0.264583px;stroke-linecap:butt;stroke-linejoin:miter;stroke-opacity:1"
         d="m 24.849281,212.60724 0.68301,0.33273 0.644922,0.51263"
         id="path16904"
         sodipodi:nodetypes="ccc" />
      <path
         style="fill:none;stroke:#000000;stroke-width:0.264583px;stroke-linecap:butt;stroke-linejoin:miter;stroke-opacity:1"
         d="m 27.103258,209.48385 c 0.627155,0.10172 0.866502,0.54889 1.252368,1.01429"
         id="path16906"
         sodipodi:nodetypes="cc" />
      <path
         style="fill:#000000;fill-opacity:1;stroke:none;stroke-width:0.264583px;stroke-linecap:butt;stroke-linejoin:miter;stroke-opacity:1"
         d="m 28.310416,213.00612 c 1.12909,0.55651 1.776899,1.50554 2.38125,2.56315 l -1.124479,1.52135 -1.719792,1.24024 c -2.060544,0.79145 -2.608626,-0.40597 -2.827734,-2.14974 0.151016,-0.99184 0.447945,-1.94256 0.833654,-2.86496 0.742469,-0.67047 1.632705,-0.51447 2.457101,-0.31004 z"
         id="path16908"
         sodipodi:nodetypes="ccccccc" />
      <path
         style="fill:#000000;fill-opacity:1;stroke:none;stroke-width:0.264583px;stroke-linecap:butt;stroke-linejoin:miter;stroke-opacity:1"
         d="m 32.882747,207.30104 c -1.137628,0.52521 -1.690611,0.65127 -1.587499,1.83555 0.652684,0.86909 1.518112,0.80928 1.604034,-0.26484 l 0.372071,-0.66146 c 1.045409,-1.53943 2.454805,-2.93948 3.621484,-3.93568 l 1.637109,-0.46302 1.620573,-0.41341 0.628386,0.33073 c -0.239182,0.57893 -0.616911,0.92685 -1.07487,1.32292 l -0.628385,0.0331 -0.595313,0.5457 c -0.280406,1.07162 0.565298,1.62467 1.372528,1.43868 0.243148,-0.38993 0.365644,-0.69996 0.347262,-1.14102 l 0.661458,-0.19844 c 0.867453,-0.672 1.6549,-1.93899 1.455208,-2.8112 -0.448014,-0.46038 -0.909932,-0.59956 -1.504817,-0.76067 l -1.322917,0.56224 c -2.750117,1.64386 -2.804392,-1.74008 -2.46393,-3.42305 0.648415,-1.32965 1.657367,-1.53526 2.596224,-1.0418 l 0.810286,0.74414 c 0.599866,0.82801 0.445514,1.24784 0.214974,2.18282 -0.51201,0.77034 -1.19128,1.46313 -1.97404,1.95131 l 1.014926,-0.4465 1.190624,-0.44648 0.496094,-0.56224 c 0.568027,-0.83244 0.439318,-1.32942 0.264584,-2.26549 -0.590588,-1.03978 -1.322011,-1.51143 -2.43086,-1.83555 l -0.876432,-0.14883 -1.124479,0.33073 c -0.76574,0.88463 -1.152763,1.86315 -1.422136,2.97656 -0.554019,0.61671 -1.149963,0.56545 -1.934765,0.64492 l -0.03307,0.77722 0.115755,0.87643 c 0.0076,0.46539 -0.0717,0.52552 -0.446485,0.74414 -0.592404,0.15405 -1.19621,0.21497 -1.802474,0.2811 l -0.529167,0.0496 0.463021,0.29766 c 0.641327,0.18653 1.290374,0.21443 1.951302,0.24803 0.878969,-0.52469 1.364032,-0.98145 1.455212,-1.98437 l 0.463021,0.24804 0.446485,0.52917 -0.08268,0.64492 c -1.058738,0.99483 -2.40448,2.01573 -2.968302,3.20834 z"
         id="path16976"
         sodipodi:nodetypes="ccccccccccccccccccccccccccccccccccccccccccc" />
      <path
         style="fill:none;stroke:#000000;stroke-width:0.264583px;stroke-linecap:butt;stroke-linejoin:miter;stroke-opacity:1"
         d="m 39.215968,205.20771 c -0.847919,-0.48879 -1.563079,-0.22605 -2.24257,0.50801 -0.08972,0.58676 0.10946,0.64781 0.56127,0.97053"
         id="path17044"
         sodipodi:nodetypes="ccc" />
      <path
         style="fill:none;stroke:#000000;stroke-width:0.264583px;stroke-linecap:butt;stroke-linejoin:miter;stroke-opacity:1"
         d="m 36.938318,206.02263 c -0.70112,0.33235 -0.939872,0.82097 -1.216076,1.50547 l -0.175395,0.79513 0.678196,0.77174 c 0.9941,0.67752 1.980454,0.4886 3.133736,0.456 0.947794,-0.12546 1.19269,-0.32361 1.648719,-1.08745 0.09501,-0.65981 0.03023,-1.07535 -0.28063,-1.62534"
         id="path17046"
         sodipodi:nodetypes="ccccccc" />
      <path
         style="fill:#000000;fill-opacity:1;stroke:none;stroke-width:0.264583px;stroke-linecap:butt;stroke-linejoin:miter;stroke-opacity:1"
         d="m 39.968619,209.38463 0.363802,1.62058 c 0.004,1.25392 0.420055,2.3681 0.810287,3.5388 0.137485,0.83511 0.07139,1.56564 -0.132294,2.36471 l -0.505719,0.11413 c -0.11899,-0.41168 -0.364098,-0.6907 -0.635296,-1.0071 -2.073829,0.53487 -3.797552,-3.33227 -4.415235,-4.7294 l 1.066602,-0.26459 c 0.978578,-0.27817 1.981725,-0.39472 2.976562,-0.17365 l -0.04961,-0.57878 -0.08894,-0.71836"
         id="path17048"
         sodipodi:nodetypes="ccccccccccc" />
      <path
         style="fill:#000000;fill-opacity:1;stroke:none;stroke-width:0.264583px;stroke-linecap:butt;stroke-linejoin:miter;stroke-opacity:1"
         d="m 37.784717,209.50459 -0.495607,0.10488 c -0.697682,-0.31603 -1.25355,-0.30335 -1.941044,-0.0351 -0.494406,-0.30163 -0.548185,-0.54264 -0.654812,-1.07576 0.332084,-0.3313 0.519522,-0.74888 0.736663,-1.15762 l 0.561266,-0.47941 c 0.354762,1.03533 0.889518,2.00114 1.793534,2.64297 z"
         id="path17229"
         sodipodi:nodetypes="ccccccc" />
      <path
         style="fill:none;stroke:#000000;stroke-width:0.264583px;stroke-linecap:butt;stroke-linejoin:miter;stroke-opacity:1"
         d="m 46.517057,209.2358 c 0.541966,0.79786 0.754158,1.58424 0.905371,2.50734 l -1.401465,0.33694 c -0.640496,0.39905 -1.107601,0.43841 -1.81901,0.38038 l -1.422136,-0.62838 c 0.416684,-0.64698 0.407845,-1.24396 0.429945,-1.98438 -0.548939,-0.43649 -0.812552,-0.91661 -1.07487,-1.53789 -0.192338,-0.31341 -0.38094,-0.38322 -0.727608,-0.54572"
         id="path17377"
         sodipodi:nodetypes="cccccccc" />
      <path
         style="fill:none;stroke:#000000;stroke-width:0.264583px;stroke-linecap:butt;stroke-linejoin:miter;stroke-opacity:1"
         d="m 43.424739,204.55599 c 0.165969,0.69081 0.198366,1.39467 0.248045,2.10013 -0.215966,0.92262 -0.655953,1.40439 -1.537893,1.65369"
         id="path17379"
         sodipodi:nodetypes="ccc" />
      <path
         style="fill:none;stroke:#000000;stroke-width:0.264583px;stroke-linecap:butt;stroke-linejoin:miter;stroke-opacity:1"
         d="m 43.672783,206.65612 0.909508,0.41341 c 0.907924,0.4941 1.326281,1.53812 1.934766,2.16627 -1.24988,0.0721 -2.170146,0.37242 -3.307295,0.61191"
         id="path17381"
         sodipodi:nodetypes="cccc" />
      <path
         style="fill:none;stroke:#000000;stroke-width:0.264583px;stroke-linecap:butt;stroke-linejoin:miter;stroke-opacity:1"
         d="m 40.789241,208.89474 c 0.459337,1.32889 1.401888,2.32126 2.415497,1.05179"
         id="path17383"
         sodipodi:nodetypes="cc" />
      <path
         style="fill:#000000;fill-opacity:1;stroke:none;stroke-width:0.264583px;stroke-linecap:butt;stroke-linejoin:miter;stroke-opacity:1"
         d="m 47.079296,208.02864 c 0.983563,0.0697 1.085459,0.49794 0.438202,1.13275 -0.329598,0.35327 -0.559838,0.28044 -1.000456,0.0744 l -0.595312,-0.61184 -0.396875,-0.85163 c 0.429292,0.21315 0.947307,0.19024 1.554441,0.25632 z"
         id="path17385"
         sodipodi:nodetypes="cccccc" />
      <path
         style="fill:#000000;fill-opacity:1;stroke:none;stroke-width:0.264583px;stroke-linecap:butt;stroke-linejoin:miter;stroke-opacity:1"
         d="m 47.459635,211.71627 c 0.257237,0.30214 0.414762,0.32965 0.142737,0.61767 -0.174771,0.30794 -0.09183,0.55527 -0.03508,0.88868 -0.191299,0.69318 -0.556295,0.96132 -1.192692,0.64311 l -0.09354,-0.68989 -0.09354,-0.29232 c -0.307654,0.13767 -0.596348,0.15201 -0.923751,0.15201 l 0.08185,0.29232 c -0.07541,0.57102 -0.398885,0.65037 -0.912059,0.59632 -0.179547,-0.20546 -0.277991,-0.37115 -0.304023,-0.63143 l -0.05846,-0.18708 h -0.444336 c -0.534635,0.36786 -0.571523,0.30624 -1.017294,-0.10524 0.03359,-0.31885 -0.162361,-0.51061 -0.467722,-0.64312 l -0.280633,-0.0819 c -0.223093,-0.66215 0.568282,-0.73122 1.023139,-0.87406 l -0.104415,0.43066 c 1.972372,0.951 2.811256,0.35669 4.679819,-0.11573 z"
         id="path17453"
         sodipodi:nodetypes="cccccccccccccccccc" />
      <path
         style="fill:none;stroke:#000000;stroke-width:0.264583px;stroke-linecap:butt;stroke-linejoin:miter;stroke-opacity:1"
         d="m 41.374218,199.19817 c 1.582329,-0.004 2.522012,-0.61592 3.538058,-1.74051"
         id="path17634"
         sodipodi:nodetypes="cc" />
      <path
         style="fill:#000000;fill-opacity:1;stroke:none;stroke-width:0.264583px;stroke-linecap:butt;stroke-linejoin:miter;stroke-opacity:1"
         d="m 44.780729,197.62721 0.833826,-0.30713 c 0.62458,-0.19308 0.983773,-0.44357 1.075764,-1.08746 -0.51854,-0.42085 -1.107299,-0.0829 -1.637027,0.16374 l -0.736661,0.44433 -0.11693,0.21048 c -0.01089,0.60657 0.04162,0.6297 0.581032,0.57605 v 0 0"
         id="path17636"
         sodipodi:nodetypes="ccccccccc" />
      <path
         style="fill:none;stroke:#000000;stroke-width:0.264583px;stroke-linecap:butt;stroke-linejoin:miter;stroke-opacity:1"
         d="m 44.432386,196.90684 -0.858819,-0.5364 c -0.329897,-0.12614 -0.502002,-0.0312 -0.810286,0.0992 -0.560522,0.28356 -0.802702,0.10166 -1.339453,-0.14883 -0.9921,-0.50247 -1.786538,-1.2078 -2.538347,-2.00917"
         id="path17817"
         sodipodi:nodetypes="ccccc" />
      <path
         id="path17819"
         style="fill:#000000;fill-opacity:1;stroke:none;stroke-width:0.264583px;stroke-linecap:butt;stroke-linejoin:miter;stroke-opacity:1"
         d="m 41.323058,185.91918 c -0.971457,0.63271 -1.322235,1.33341 -1.800924,2.34817 -0.788266,0.4918 -0.08064,-0.4942 0.05548,-1.0037 -0.919909,-0.83561 -2.436875,-0.6558 -3.610824,-0.60035 -2.678709,0.38576 -4.601128,0.97586 -6.598046,2.56315 0.691967,0.0908 1.37465,0.0746 2.067057,0.0331 1.018393,-0.0863 0.369135,0.21561 0.202573,0.40514 -1.881923,1.66659 -3.491114,2.88711 -4.270541,5.16765 l -0.429948,1.68671 0.992188,-0.49609 c 0.833616,-0.97315 1.653297,-1.51446 2.935221,-1.73633 1.103943,0.20412 2.136645,-0.28293 3.253548,-0.38445 0.192698,0.004 0.160302,0.0661 0.02894,0.15296 -0.590155,0.22255 -1.170775,0.46853 -1.752864,0.71107 l -0.826823,0.28112 0.661458,0.26458 c 1.013311,0.0142 1.795022,-0.28493 2.215885,0.66201 0.302482,0.5225 0.443226,1.07448 0.578776,1.65364 l 0.413412,0.23151 c 0.633188,0.15992 1.154376,0.0426 1.769401,-0.0998 l 1.124479,-0.33073 0.629936,0.12557 c 0.215985,-0.7587 0.871467,-0.66391 1.470195,-0.4067 -0.659509,-0.93257 -1.597373,-0.62792 -2.522843,-0.56381 -0.367828,-0.29523 -0.540363,-0.61378 -0.420646,-0.94723 0.317022,-0.45542 0.713641,-0.47805 1.227315,-0.45626 l 0.269234,0.0822 -0.02325,-0.53795 0.0646,-0.81752 c 0.162781,-1.25325 0.533442,-1.72194 1.554428,-2.23242 1.622347,-0.6797 2.402919,1.19137 2.860808,2.29857 l 0.132291,0.38033 c -0.977521,-0.0942 -1.021935,0.86287 -0.926044,1.53731 l 0.115755,0.57878 0.429948,-0.18191 c 0.430983,-0.40273 0.76165,-1.02816 0.810283,-1.50481 l 0.380339,0.11575 0.545703,-0.0165 c -0.02125,0.27515 0.0157,0.54177 0.05374,0.81286 l -0.257348,0.32712 0.09767,0.41548 0.533818,-0.50902 c 0.29213,-0.37052 0.232606,-0.67004 0.09353,-1.08727 0.46375,0.004 0.578429,-0.19514 0.6196,-0.61956 0.221689,-0.13731 0.257497,-0.27795 0.327634,-0.5147 -0.161661,-0.81756 -0.183069,-1.1914 -1.356502,-0.94719 0.09717,-0.59435 0.136942,-0.79868 0.625639,-0.57278 0.904104,0.44357 1.079447,0.16487 1.830025,-0.39768 l 0.65474,-0.65474 -0.467672,-0.25735 c -0.58179,-0.24983 -1.15836,-0.29289 -1.777669,-0.3271 l -1.35599,0.37414 c -2.19908,-1.90535 -0.952922,-3.4267 -1.70739,-5.23844 -0.536325,-0.44889 -0.994843,-0.0825 -1.520326,0.23342 z m 0.561206,0.66662 c 0.704354,0.0542 0.148168,1.69715 0.502815,2.3735 l -0.03462,-0.0465 c -0.759048,-0.081 -1.528823,-0.0583 -2.29185,-0.0583 l 0.151929,-0.46768 0.268718,-0.77204 c 0.429605,-0.75909 0.691518,-0.92549 1.403008,-1.02898 z m 2.198315,5.92832 -0.385506,-0.6196 c -0.418429,-0.71995 -1.056735,-1.16992 -1.894458,-1.49655 -0.885687,-0.22304 -1.432698,-0.0592 -2.233456,0.26872 l -0.51418,0.24546 -0.09353,-0.12867 c 0.371834,-0.73039 0.874806,-0.85276 1.601969,-1.1343 1.99147,-0.12052 3.912846,0.94879 3.519161,2.86494 z"
         sodipodi:nodetypes="cccccccccccccccccccccccccccccccccccccccccccccccccccccccccccccccccccccc" />
      <path
         style="fill:#000000;fill-opacity:1;stroke:none;stroke-width:0.264583px;stroke-linecap:butt;stroke-linejoin:miter;stroke-opacity:1"
         d="m 31.121614,199.81002 0.545703,0.51263 c 0,0 0.512631,0.21498 0.611849,0.33073 0.09922,0.11576 0.214974,0.72761 0.214974,0.72761 -0.219039,0.75338 -0.558597,0.72338 -1.273307,0.89297 0,0 -0.413412,0.0827 -1.041797,-0.11576 -1.011551,-0.38303 -2.036069,-0.91896 -1.934765,-2.06706 l -0.578776,-0.11575 -0.115755,0.33073 c -0.01868,1.37657 1.354581,1.97694 2.265495,2.497 1.614512,0.57402 2.829372,0.40551 4.001826,-0.64514 l 0.03307,-0.77722 -0.28112,-0.99196 c -0.007,-0.41428 0.145729,-0.59159 0.396879,-0.89297 0.764271,-0.41826 1.309712,-0.95836 1.788489,-1.63093 -0.239006,-0.068 -0.515157,-0.11694 -0.730158,-0.23734 -0.131213,0.49667 -0.280269,0.52306 -0.740217,0.66304 l -0.374179,-0.91206 -0.274664,-0.049 c 0.439006,-0.40276 0.42144,-0.53331 0.297656,-1.07486 l -0.314193,0.0496 c 0.205949,-0.25057 0.136109,-0.33284 0.01654,-0.61184 -0.501466,-0.17175 -0.823206,-0.17447 -1.157552,0.23152 l 0.356457,0.28528 c -0.662461,0.43189 -0.337221,0.45248 0.23386,0.79513 -0.486706,0.60748 -0.319644,0.59632 0.280633,0.98221 l 0.116932,0.46772 h -0.631425 c -0.505922,-0.17613 -0.783849,-0.54174 -0.491109,0.11693 l 0.327406,0.35079 c 0.03292,0.49112 -0.138513,0.69735 -0.608039,0.72499 l -0.608036,-0.21048 -0.748356,-0.28063 c -0.611375,0.29646 0.03434,0.43379 0.415679,0.65412 z"
         id="path21664"
         sodipodi:nodetypes="ccsccccccccccccccccccccccccccccccc" />
      <path
         style="fill:#000000;fill-opacity:1;stroke:none;stroke-width:0.264583px;stroke-linecap:butt;stroke-linejoin:miter;stroke-opacity:1"
         d="m 31.667317,200.32265 c -0.305929,0.38742 -0.676879,0.28892 -1.136785,0.29487 -1.080074,-0.44446 -1.831932,-1.26962 -1.660413,-2.43216 l 0.465558,-0.72351 0.446484,-0.74414 c 0.172283,-0.7767 0.459317,-0.99618 1.190625,-1.2237 0.488419,0.111 1.514163,0.37961 1.959567,0.2065 -0.391531,-0.24181 -0.668028,-0.52745 -1.364257,-0.65319 -0.780885,-0.0884 -1.46119,0.17591 -2.116664,0.56247 -0.278928,0.52641 -0.511172,1.0731 -0.744141,1.62058 -0.209477,0.35051 -0.467415,0.44459 -0.826823,0.59531 0,0 -0.281119,0 -0.330729,0.11575 -0.161328,0.39594 -0.161286,0.41545 0.198438,0.59532 l 0.03307,0.42994 c -0.563723,0.55979 -0.777489,0.51777 -0.115756,1.00873 l 0.578776,0.11575 c 0.516792,0.29362 0.846377,0.64216 1.157553,1.12448 l 1.604036,0.28112 c 0.645811,-0.18735 0.961252,-0.39063 1.299789,-0.92613 l -0.638331,-0.24796 v 0"
         id="path21732"
         sodipodi:nodetypes="ccccccccccccccccccccc" />
    </g>
    <g
       id="sonic-1">
      <path
         style="fill:none;stroke:#000000;stroke-width:0.264583px;stroke-linecap:butt;stroke-linejoin:miter;stroke-opacity:1"
         d="m 48.628049,296.38862 c -1.993251,3.0739 -2.997378,1.5161 -5.054482,-1.34513 0.214996,-0.9331 0.45815,-1.94206 1.537891,-1.8521 0.637741,0.329 0.454423,0.1883 0.04961,-0.23151 l -0.926042,-0.33073 0.248047,-0.46302 c 0.636756,-0.27339 1.200718,-0.28893 1.86862,-0.24805 l 1.041797,0.5457 c 0.578803,0.76964 1.084311,1.67521 1.124476,2.497 0.135472,-1.08988 -0.596593,-1.77958 -1.174092,-2.64583 1.924052,-0.10133 2.973211,1.97507 2.811197,3.32383 -0.238354,1.16746 -1.445141,1.32854 -1.703255,0.0992"
         id="path939"
         sodipodi:nodetypes="cccccccccccc" />
      <path
         style="fill:none;stroke:#000000;stroke-width:0.264583px;stroke-linecap:butt;stroke-linejoin:miter;stroke-opacity:1"
         d="m 43.573567,295.04349 c 0.688174,2.01732 1.759543,2.03132 2.639672,2.96741"
         id="path943"
         sodipodi:nodetypes="cc" />
      <path
         style="fill:none;stroke:#000000;stroke-width:0.264583px;stroke-linecap:butt;stroke-linejoin:miter;stroke-opacity:1"
         d="m 42.895572,298.06963 c 0.470708,-2.91884 -2.904872,-2.69315 -5.027083,-2.4143 -0.399578,0.5811 -0.410405,1.30473 -0.496094,2.00092 0.300982,-0.33435 0.592999,-0.42524 1.008724,-0.52917 -0.443697,0.042 -0.679903,0.25704 -1.008724,0.52917 -0.482218,1.27702 -0.380567,1.1732 0.892969,1.24018 1.234334,-0.91321 2.469628,-1.02462 3.935677,-0.8599 l 0.694531,0.0331"
         id="path945"
         sodipodi:nodetypes="cccccccc" />
      <path
         style="fill:#000000;fill-opacity:1;stroke:none;stroke-width:0.264583px;stroke-linecap:butt;stroke-linejoin:miter;stroke-opacity:1"
         d="m 34.495052,296.48216 c -1.293896,-0.2086 -0.7031,0.97475 -0.08268,1.45507 l 0.595313,-0.33073 0.611849,-0.33072 0.396875,-0.46303 c 0.68448,-0.38695 1.428286,-0.48445 1.852083,-1.15755 2.284649,-0.27298 3.330461,-0.26462 4.861719,1.28985 0.196893,-0.63915 -0.05034,-0.96051 -0.347265,-1.52136 0.423981,-0.56449 0.972119,-1.01182 1.488281,-1.48828 l 0.363802,-1.30641 0.248047,-0.46302 -1.521354,0.0827 -0.777213,0.64492 c -0.88034,-0.17309 -1.635294,0.079 -2.480469,0.2977 0.127661,-0.7179 0.20311,-1.4419 0.28112,-2.16628 l -0.992188,-0.41341 c -0.411278,0.65354 -0.405292,1.18212 -0.380341,1.91823 -0.442632,0.66478 -1.96568,1.10669 -0.859896,1.52136 1.098809,-0.0432 2.181171,-0.22144 3.274219,-0.33074 0.78174,-0.47354 1.825299,-0.39171 0.992191,0.38034 l -0.810286,0.41341 c -0.86594,0.44236 -1.748426,0.49365 -2.695443,0.57877 -0.719759,-0.20174 -1.072524,-0.0342 -1.703255,0.28112 -0.786901,0.3396 -1.543685,0.73612 -2.315105,1.10806 z"
         id="path947"
         sodipodi:nodetypes="ccccccccccccccccccccccccc" />
      <path
         style="fill:#000000;fill-opacity:1;stroke:none;stroke-width:0.264583px;stroke-linecap:butt;stroke-linejoin:miter;stroke-opacity:1"
         d="m 42.895572,298.06963 c 1.132713,0.0893 2.173623,0.47101 3.241146,0.82685 1.288826,0.48532 2.472893,0.83995 2.678908,2.28203 -0.647778,-0.47611 -1.702518,-1.06016 -2.325603,-0.81985 -2.112169,0.86583 -6.571432,2.01935 -5.512678,0.75371 l 0.777214,-0.92605 c 0.47702,-0.65211 0.792108,-1.3927 1.141013,-2.11669 z"
         id="path1015"
         sodipodi:nodetypes="ccccccc" />
      <path
         style="fill:#000000;fill-opacity:1;stroke:none;stroke-width:0.264583px;stroke-linecap:butt;stroke-linejoin:miter;stroke-opacity:1"
         d="m 48.815624,301.17851 -0.926041,0.66146 c -2.624139,1.32616 -3.993804,1.70713 -8.661805,1.78466 -1.619106,-0.15609 -4.422917,0.50971 -3.798856,-1.91979 0.77651,0.0453 0.921792,0.48206 1.496993,0.94542 3.401701,0.52512 6.614581,-0.14447 9.888802,-0.97561 1.204163,-0.4631 2.044692,-0.99438 2.000911,-0.4961 v 0"
         id="path1083"
         sodipodi:nodetypes="cccccccc" />
      <path
         style="fill:none;stroke:#000000;stroke-width:0.264583px;stroke-linecap:butt;stroke-linejoin:miter;stroke-opacity:1"
         d="m 41.754559,300.18632 c -1.126824,-0.81405 -2.12621,-0.83464 -3.456122,-0.89298 -1.013278,0.63876 -0.983522,1.11014 -1.07487,2.23242 0.582937,0.0618 1.149385,-0.0109 1.717481,-0.10502 0.633007,-0.18885 1.621944,-0.0285 2.273424,0.11599"
         id="path1151"
         sodipodi:nodetypes="ccccc" />
      <path
         style="fill:#000000;fill-opacity:1;stroke:none;stroke-width:0.264583px;stroke-linecap:butt;stroke-linejoin:miter;stroke-opacity:1"
         d="m 37.008593,298.83033 c -0.570059,0.79002 -0.968948,1.68011 -1.438672,2.53008 0.424082,-0.0205 1.141313,0.19835 1.54818,0.29694 0.242071,-1.0752 0.383748,-1.69102 1.180336,-2.364 l -0.03307,-0.3969 -1.256771,-0.0661 v 0"
         id="path1153"
         sodipodi:nodetypes="ccccccc" />
      <path
         style="fill:#000000;fill-opacity:1;stroke:#000000;stroke-width:0.264583px;stroke-linecap:butt;stroke-linejoin:miter;stroke-opacity:1"
         d="m 49.134162,283.55626 c 0.263495,0.48212 0.225608,0.92017 0.210469,1.44994 0.619129,-0.24853 1.009175,0.0316 1.590255,0.28062 0.317977,-0.42678 0.819111,-0.65867 0.654812,-1.19269 -0.805383,-0.28338 -1.613399,-0.44684 -2.455536,-0.53787 z"
         id="path1221"
         sodipodi:nodetypes="ccccc" />
      <path
         style="fill:none;stroke:#000000;stroke-width:0.465;stroke-linecap:butt;stroke-linejoin:miter;stroke-miterlimit:4;stroke-dasharray:none;stroke-opacity:1"
         d="m 32.629434,303.45197 c 0.7546,0.51877 1.130991,1.13718 0.180137,1.48138 -1.405611,0.46583 -2.756197,0.22383 -4.114848,-0.39982 -1.571542,-0.95232 -1.755076,-1.52366 -1.520095,-3.22725 l 0.327406,-0.88869"
         id="path1374"
         sodipodi:nodetypes="ccccc" />
      <path
         style="fill:none;stroke:#000000;stroke-width:0.264583px;stroke-linecap:butt;stroke-linejoin:miter;stroke-opacity:1"
         d="m 31.571213,295.08561 c -2.392078,0.22183 -2.836136,2.44299 -3.531299,3.92885"
         id="path1376"
         sodipodi:nodetypes="cc" />
      <path
         style="fill:#000000;fill-opacity:1;stroke:none;stroke-width:0.264583px;stroke-linecap:butt;stroke-linejoin:miter;stroke-opacity:1"
         d="m 35.652598,295.90328 c -1.083628,-0.86321 -2.176863,-1.02553 -3.654552,-0.57869 -1.191337,0.51894 -1.946437,1.16699 -2.182812,2.3151 -0.609878,0.16884 -0.447161,1.3818 -1e-6,0.71107 0.861752,1.53421 2.365763,2.08673 3.803385,1.47174 0.528913,-0.27826 0.633134,-0.48563 0.01654,-0.21497 l -0.628386,-0.52917 c -2.018473,-1.21002 -1.027387,-2.63781 0.246649,-3.16594 0.859197,-0.32839 1.188593,-0.24023 1.820408,0.34646"
         id="path1378"
         sodipodi:nodetypes="ccccccccc" />
      <path
         style="fill:#000000;fill-opacity:1;stroke:none;stroke-width:0.264583px;stroke-linecap:butt;stroke-linejoin:miter;stroke-opacity:1"
         d="m 36.016403,296.81275 c 0.323503,1.18808 -0.123551,2.12041 -1.157549,2.72865 -0.747606,0.50014 -1.258947,1.17508 -1.720774,1.9286 -0.515163,0.78883 -0.586783,1.10611 -0.280632,1.94104 0.290606,0.9942 -3.003433,0.14751 -3.935183,-0.14893 -0.987498,-0.34337 -1.200971,-1.37414 -0.71107,-2.24896 l 0.380338,-0.51263 c 0.224174,-0.0691 0.240783,0.0525 0.363802,0.23149 0.05407,1.01003 1.148874,1.18234 1.934766,1.52135 0.843781,0.12372 1.360192,-0.63449 1.785937,-1.25674 0.394499,-0.52856 0.858856,-1.08928 1.273308,-1.50482 0.839909,-0.45587 1.540137,-1.10181 1.306383,-2.08359"
         id="path1446"
         sodipodi:nodetypes="cccccccccccc" />
      <path
         id="path1514"
         style="fill:#000000;fill-opacity:1;stroke:none;stroke-width:0.999999px;stroke-linecap:butt;stroke-linejoin:miter;stroke-opacity:1"
         d="M 133.3125,1054.6875 131,1056.25 c 7.23669,3.0129 17.56786,2.7912 22.3125,7.125 -6.20646,-0.7681 -10.72754,0.2313 -17.0625,1.438 -7.04692,2.0016 -12.11337,5.1133 -16.25,11 l -4.125,8.3125 0.25,0.9375 c 11.00586,-4.9124 20.20609,-9.2458 30,-8.25 -7.28106,2.9206 -15.16689,6.3555 -20.25,10.875 l -2.59229,1.9375 5.09229,1.25 c 3.64307,-0.6632 7.25729,-1.4635 10.875,-2.25 2.59087,2.1175 5.4882,2.168 8.6875,2.625 l 1.125,0.625 c -1.13512,1.7264 -0.4612,2.474 0.75,3.9375 -1.75756,0.3951 -3.42682,0.2431 -5.1875,0.062 -3.1188,-3.9279 -9.77375,-4.0194 -14.375,-1.25 l -0.4375,2.375 -0.125,4.125 1.375,2.25 1,0.062 0.5625,-1.3125 c 0,0 -0.3125,-1.375 -0.3125,-2.0625 0,-0.6875 0.1875,-1.9375 0.1875,-1.9375 l 1.8125,-0.875 c 0,0 1.8125,-1.25 2.0625,-1.25 0.24998,0 2.6875,0.5 2.6875,0.5 l 2.25,0.5625 0.75,1 -1,0.8125 -1.6875,0.25 -1.375,0.125 -0.8125,1.1875 -0.5625,2 -0.125,2.0625 2.75,-1 2.3125,-1.0625 1.1875,-0.5 0.9375,-0.6875 v -1.9375 l 2.9375,1.625 4.5,-1 c 2.31519,1.2412 4.64912,2.7201 6.8125,3.375 l 4.4375,1.25 5.75,-0.3125 4,-1.125 c -6.0317,0.5745 -11.42693,-0.7461 -17,-2.8125 -1.76756,-0.9746 -2.55904,-2.1912 -3.5,-3.875 -0.23492,-1.2026 -0.27461,-2.2704 0,-3.4375 1.68,-1.7104 3.4019,-2.0569 5.6875,-2.1875 l 2.5,0.75 c 0.008,0.01 3.6767,1.4887 1.0625,-1.5 -4.75317,-3.2687 0.18589,-10.1042 1.6875,-12.5 3.42123,-2.1464 5.16104,-1.474 7.625,1.375 2.12103,3.1009 2.53708,6.7496 3.0625,10.375 l -0.25,1.125 -1.375,1.125 c -1.59176,1.3481 -2.0625,2.7467 -2.0625,4.75 l 2.125,1.625 c -1.29947,-0.013 2.125,0.8333 3.1875,1.25 -1.03353,2.1186 -2.74192,2.9583 -4.67187,4.1562 3.89531,0.3739 6.59751,-0.2383 6.79687,-3.781 2.24643,-0.2199 7.73996,0.8331 5.375,-2.187 -1.82618,-0.6 -3.51794,-0.3116 -5.375,-0.062 l -1.0625,0.4375 c -1.21391,-1.0966 -2.33252,-1.3215 -3.875,-1.5625 0.81971,-1.0849 0.83025,-2.0148 0.875,-3.3125 l 1.5,-0.125 c 0.99921,1.6598 2.79241,1.4511 4.25,1.125 1.09927,-1.7572 1.74075,-3.6896 2.4375,-5.625 l 1.375,-0.125 c -0.15742,2.6965 -1.2055,3.7219 1.625,3.811 1.57346,-3.1969 4.35378,-5.5066 6.9375,-7.875 l 0.0625,-1.125 c -1.78811,-1.3365 -3.73825,-2.0889 -5.8125,-2.8125 v 2.125 l 0.0625,3.3125 -2.9375,-2.625 c 0.7774,-6.5147 -1.76136,-11.4516 -4.875,-16.9375 -3.88514,1.8882 -7.52154,2.5587 -11.625,1.375 1.11531,-3.0195 3.25314,-4.4511 5.6875,-6.375 -0.46023,1.6395 -0.40959,2.2631 0.5,3.5625 l 3.375,-0.9375 c -1.73201,-3.4476 0.98045,-9.0325 -3.9375,-7.3125 -2.58198,1.7419 -4.66775,3.9116 -6.75,6.1875 l -1.25,1.8125 -0.875,-0.373 c 0.31746,-3.3768 1.98583,-6.1046 3.5,-9.0625 -10.57081,-5.5917 -22.09841,-4.0849 -32.875,-0.1887 z m 30.11719,15.4746 c 9.2345,0.8094 14.47961,7.9028 13.16992,15.5117 l -2.0332,-0.6621 c -0.72931,-2.6304 -1.88819,-5.0792 -3.00391,-7.5586 -2.83116,-5.3683 -7.15218,-4.1895 -11.26953,-0.9707 -1.58269,1.5244 -1.50186,1.5988 -2.43164,-0.3105 0.1831,-3.7058 2.88481,-5.3758 5.56836,-6.0098 z"
         transform="scale(0.26458333)"
         sodipodi:nodetypes="ccccccccccccccccccccccsccscccccccccccccccccccccccccccccccccccccccccccccccccccccccccccccccccccccc" />
      <path
         style="fill:none;stroke:#000000;stroke-width:0.365;stroke-linecap:round;stroke-linejoin:miter;stroke-miterlimit:4;stroke-dasharray:none;stroke-opacity:1"
         d="m 42.108333,288.56353 0.444645,0.16201 c 0.410946,0.38447 0.689223,0.84487 0.952376,1.33219 0.0063,-0.002 -0.04341,-0.0179 -0.241846,0.0372 -0.582814,0.2882 -1.241836,0.2922 -1.806607,0.0538"
         id="path1714"
         sodipodi:nodetypes="ccccc" />
      <path
         style="fill:none;stroke:#000000;stroke-width:0.465;stroke-linecap:butt;stroke-linejoin:miter;stroke-miterlimit:4;stroke-dasharray:none;stroke-opacity:1"
         d="m 45.788134,290.44318 c -0.811046,0.13199 -1.777792,0.264 -2.330322,-0.36065"
         id="path1716"
         sodipodi:nodetypes="cc" />
      <path
         style="fill:none;stroke:#000000;stroke-width:0.264583px;stroke-linecap:butt;stroke-linejoin:miter;stroke-opacity:1"
         d="m 33.466295,288.28495 c -0.592432,0.003 -1.17843,0.0606 -1.765905,0.1274 0.522182,0.29829 0.817157,0.62263 0.942578,0.95911 -0.398608,-0.87948 -0.849258,-1.10213 -1.852083,-0.79375 -1.291605,0.50893 -1.592667,1.16757 -1.802474,2.4474 l -1.256771,0.0496 c -0.706243,0.0137 -1.374014,-0.0534 -2.050521,-0.23146 -0.92356,0.56749 -0.826665,0.8912 -0.06615,1.52135 l 0.413412,0.34727 0.446484,-0.1323 0.380339,-0.0992 -0.975652,0.33073 c -0.881069,0.42145 -0.559962,2.76316 0.446485,1.80248 0.26165,-0.33845 0.569612,-0.63018 0.876433,-0.92604 -0.08671,0.46445 -0.184337,0.92665 -0.28112,1.38906 0.442692,0.88523 1.955912,1.04192 1.488281,-0.31419 l -0.03307,-0.4961 c 0.391526,-0.27614 0.614309,-0.12596 1.041797,0.0165 -0.01523,0.65321 0.0911,1.16315 0.773077,1.24712"
         id="path1831"
         sodipodi:nodetypes="ccccccccccccccccccc" />
      <path
         style="fill:none;stroke:#000000;stroke-width:0.264583px;stroke-linecap:butt;stroke-linejoin:miter;stroke-opacity:1"
         d="m 29.418359,294.28284 c 0.365005,-0.2921 0.691712,-0.50067 1.141016,-0.57876"
         id="path1833"
         sodipodi:nodetypes="cc" />
      <path
         style="fill:none;stroke:#000000;stroke-width:0.264583px;stroke-linecap:butt;stroke-linejoin:miter;stroke-opacity:1"
         d="m 31.320052,293.93554 0.677994,0.0661 c 0.38611,-0.1489 0.729914,-0.0492 1.12448,0.0166"
         id="path1836"
         sodipodi:nodetypes="ccc" />
      <path
         style="fill:none;stroke:#000000;stroke-width:0.264583px;stroke-linecap:butt;stroke-linejoin:miter;stroke-opacity:1"
         d="m 33.023307,295.20882 -1.058333,-0.57875 0.03307,-0.62843"
         id="path1838" />
      <path
         style="fill:#000000;fill-opacity:1;stroke:none;stroke-width:0.264583px;stroke-linecap:butt;stroke-linejoin:miter;stroke-opacity:1"
         d="m 34.213932,292.84414 c 0.294324,0.55988 0.286903,0.832 0.76068,1.25677 0.262233,-0.36609 0.47221,-0.75884 0.677995,-1.15755 l -0.297657,-0.39688 c -0.49373,0.0945 -0.69162,0.17746 -1.008723,-0.18192 l 0.330729,-0.42987 -0.363802,-0.59531 c -0.471307,0.20673 -0.528101,0.28265 -0.562237,0.7606 -0.928216,0.0286 -1.199137,-0.80012 -1.604036,-1.52135 -0.689331,-0.59584 -1.093548,-0.57214 -1.852084,-0.18203 -0.290744,0.37763 -0.717101,0.35416 -1.16582,0.40516 l -0.09922,0.35551 c 0.4154,-0.008 0.715561,0.0613 1.056444,0.26829 0.527924,-0.58552 1.071482,-0.9499 1.297927,-0.0819 0.917837,0.95404 1.674807,1.26275 2.829804,1.50048 z"
         id="path1840"
         sodipodi:nodetypes="ccccccccccccccc" />
      <path
         style="fill:none;stroke:#000000;stroke-width:0.264583px;stroke-linecap:butt;stroke-linejoin:miter;stroke-opacity:1"
         d="m 33.903873,288.46201 c 0.31053,0.40728 0.485815,1.28181 0.572765,1.76874"
         id="path1991"
         sodipodi:nodetypes="cc" />
      <path
         style="fill:none;stroke:#000000;stroke-width:0.264583px;stroke-linecap:butt;stroke-linejoin:miter;stroke-opacity:1"
         d="m 46.55013,289.40455 c 0.01706,0.33106 -0.078,0.63624 -0.347266,0.90123 l 0.01654,-0.008"
         id="path12740"
         sodipodi:nodetypes="ccc" />
    </g>
  </g>
</svg>
