<?xml version="1.0" encoding="UTF-8" standalone="no"?>
<!-- Created with Inkscape (http://www.inkscape.org/) -->

<svg
   width="145.45781mm"
   height="112.48737mm"
   viewBox="0 0 145.45781 112.48737"
   version="1.1"
   id="svg5"
   inkscape:version="1.1 (c68e22c387, 2021-05-23)"
   sodipodi:docname="sspeedway.svg"
   xmlns:inkscape="http://www.inkscape.org/namespaces/inkscape"
   xmlns:sodipodi="http://sodipodi.sourceforge.net/DTD/sodipodi-0.dtd"
   xmlns="http://www.w3.org/2000/svg"
   xmlns:svg="http://www.w3.org/2000/svg">
  <sodipodi:namedview
     id="namedview7"
     pagecolor="#ffffff"
     bordercolor="#666666"
     borderopacity="1.0"
     inkscape:pageshadow="2"
     inkscape:pageopacity="0.0"
     inkscape:pagecheckerboard="0"
     inkscape:document-units="mm"
     showgrid="false"
     fit-margin-top="0"
     fit-margin-left="0"
     fit-margin-right="0"
     fit-margin-bottom="0"
     inkscape:zoom="1.5554293"
     inkscape:cx="191.58698"
     inkscape:cy="183.22916"
     inkscape:window-width="2702"
     inkscape:window-height="1244"
     inkscape:window-x="759"
     inkscape:window-y="627"
     inkscape:window-maximized="0"
     inkscape:current-layer="layer1" />
  <defs
     id="defs2" />
  <g
     inkscape:label="Calque 1"
     inkscape:groupmode="layer"
     id="layer1"
     transform="translate(7.8583045,-39.37241)">
    <g
       id="level-2"
       transform="matrix(0.20391548,0,0,0.20391548,7.4830331,52.63214)">
      <path
         style="fill:#000000;fill-opacity:1"
         d="m 38.65,-8.2 -5.2,0.7 -7.1,1.5 3.4,-12.3 0.35,-1.3 q 6.5,-5.05 16.15,-1.75 l 2.75,-11 Q 41.3,-36.1 34,-31 l 3,-11.65 4.6,-1.95 0.05,-0.05 4.2,-0.55 1.65,-0.1 2.85,-0.05 h 0.4 1.25 l -0.1,0.1 H 52 l -3,12.9 q 3.35,-0.3 7,3 3.65,3.35 7.35,4.35 l -3,11.65 q -1.15,0.4 -4.3,-2.6 -4,-3.8 -6,-4.15 l -3.8,-1.25 -3.65,13 -0.75,0.05 -3.2,0.1"
         id="path1766-5-4" />
      <path
         style="fill:none;stroke:#000000;stroke-width:1;stroke-linecap:round;stroke-linejoin:round;stroke-miterlimit:3;stroke-opacity:1"
         d="m 46.25,-21.35 2.75,-11 m 3,-13 -0.1,0.1 L 34,-31 l 3,-11.65 4.6,-1.95 q -3.15,0.6 -5,1.8 M 26.35,-6 l 7.1,-1.5 5.2,-0.7 Q 30,-7.75 27,-6.65 l 3,-12 12.6,10.3 L 41.85,-8.3 45,-8 q 2.7,0.6 7.1,4.45 4.1,3.6 7.25,3.9 7.3,0.65 13,-3.7 l 12,-40 Q 82.5,-41.5 79.7,-39.85 74,-36.5 69,-37.35 63.85,-38.2 59.4,-42 56.15,-44.8 52,-45.25 m 8.35,31.9 3,-11.65 q -3.7,-1 -7.35,-4.35 -3.65,-3.3 -7,-3 m -18.65,11.65 -0.3,1.1 -0.3,1.3 M 51.9,-45.25 H 52 m 0,-0.1 h -1.25 -0.4 l -2.85,0.05 -1.65,0.1 -4.2,0.55 -0.05,0.05 m 0.25,36.3 -3.2,0.1"
         id="path1768-4-2" />
      <path
         style="fill:none;stroke:#000000;stroke-width:1;stroke-linecap:round;stroke-linejoin:round;stroke-miterlimit:3;stroke-opacity:1"
         d="m 30.05,-19.6 h 0.05 q 6.5,-5.05 16.15,-1.75 m 2.75,-11 Q 41.3,-36.1 34,-31 m 8.6,22.65 3.65,-13 m 2.75,-11 3,-12.9 v -0.1"
         id="path1770-6-8" />
      <path
         style="fill:none;stroke:#000000;stroke-width:2;stroke-linecap:round;stroke-linejoin:round;stroke-miterlimit:3;stroke-opacity:1"
         d="m 36.6,-42.8 -0.25,0.15 -6,21.95 -0.25,1.1 -0.35,1.3 -3.4,12.3 -1.9,7"
         id="path1772-6-7" />
      <path
         style="fill:#000000;fill-opacity:1"
         d="m 60.65,-13 q 8.7,1.35 14.7,-3 L 72,-4 q -3.75,3.75 -9.55,4.1 l -5.1,-0.45 3.3,-12.65"
         id="path1774-3-1" />
      <path
         style="fill:none;stroke:#000000;stroke-width:1;stroke-linecap:round;stroke-linejoin:round;stroke-miterlimit:3;stroke-opacity:1"
         d="m 57.35,-0.35 5.1,0.45 Q 68.25,-0.25 72,-4 l 3.35,-12 q -6,4.35 -14.7,3 z"
         id="path1776-2-4" />
      <path
         style="fill:#000000;fill-opacity:1"
         d="m 66.65,-37.35 q 7.95,1.05 13.45,-2.2 2.75,-1.6 3.9,-3.45 l -4,13 q -1.65,3.55 -9.15,4.45 l -7.2,0.2 3,-12"
         id="path1778-1-63" />
      <path
         style="fill:none;stroke:#000000;stroke-width:1;stroke-linecap:round;stroke-linejoin:round;stroke-miterlimit:3;stroke-opacity:1"
         d="m 63.65,-25.35 7.2,-0.2 q 7.5,-0.9 9.15,-4.45 l 4,-13 q -1.15,1.85 -3.9,3.45 -5.5,3.25 -13.45,2.2 z"
         id="path1780-3-2" />
    </g>
    <g
       id="sonic-left"
       transform="matrix(0.23069821,0,0,0.23069821,21.395933,123.6062)">
      <path
         style="fill:#000000;fill-opacity:1"
         d="m 23.75,3.3 0.05,0.3 q 0.6,5 6.1,5 9.65,0 11.5,-12.15 3,-1.5 3.35,-4.85 0.3,-3.3 0.65,-4.65 l 3.5,-0.15 -5.85,-9.95 0.35,-0.25 q 3.3,1.55 7,-0.3 2.95,-1.5 8.85,-1.75 l 8.8,0.05 q 0.8,0 2.5,1.35 1.9,1.5 3.65,3.7 4.65,5.95 4.85,12.3 0.45,12.7 -4.3,14 2.05,-3.15 2.5,-7.85 0.3,-3.45 -0.5,-7.15 l -3.35,6 q -2.35,-8.65 -5.65,-6 -3.35,2.65 -2,17 L 62.1,14.3 61.2,8.55 Q 58.15,-8.15 48.05,-5.75 l 3.65,-5.55 -0.5,-0.9 Q 42.85,1 32.9,11.8 25.8,14.6 17.1,13.75 l 0.4,1.05 q 8.7,0.85 15.8,-1.95 7.55,-8.2 14.2,-17.8 11.2,-3.6 14.15,20.05 l -0.9,1.5 -10.7,14.7 q -1,-5.35 -3.65,-7 -2.1,-1.3 -5.1,2.4 -3.1,3.85 -4.05,9.4 -0.65,3.7 -0.8,6.2 l -0.05,2.35 0.5,-3.1 1.35,-4.45 q 2.4,-7.5 4.5,-7.5 2.6,0 4.55,5.15 1.95,5.25 1.95,12.85 0,8.1 -1.2,12.9 -1.35,5.1 -3.8,5.1 -2.75,0 -5.3,-5.35 -1.85,-3.95 -2.4,-8.6 l 0.5,6.65 q 1,10 7.35,10 -1.4,1.65 -15.3,2.95 l -18.35,0.7 q -6,-0.65 -6.7,-5.65 h -8.3 q -2,-2.7 -2.35,-4.35 -0.35,-1.65 -2.35,-0.65 1,6 0,7 l -27,-1 -2,1.65 q -1.35,1.1 -13.85,0.85 l -13.15,-0.85 q -1,-0.65 -3.3,-4.65 -4,-0.35 -5,-1 -1.65,-1.05 -2.95,-3.2 -2.3,-3.75 -2.75,-9.5 -0.65,-9 3.35,-9.65 l 0.65,-0.6 0.05,0.8 q 0.3,2.95 1.15,4.9 l 0.95,1.65 q -0.7,-0.75 -1.3,-2.45 -1.85,-1.3 -2.15,1.35 l -0.35,3.6 q 0,1.75 0.65,3.1 l 2.45,4.85 q 2.15,3.5 4.25,4.15 l 24,1.3 q 4.65,-7.65 6,-8.65 1.3,-1 31,-0.35 5.3,4 6,9.35 28.45,1.75 32.3,-1 5.7,-4 6.35,-10 L 36.05,43.3 q -6.8,6.3 -7.8,6.3 l -6.9,0.05 6.4,-0.7 q 3,-9.85 -5,-15.35 -91.4,-1 -96.5,0 l -0.05,0.05 -0.15,-1.05 q 0.9,-4.05 6,-10.55 6,-7.6 14,-13.1 0.9,-0.65 3.5,-3.6 2.75,-3.15 3.85,-4.05 2,-21 8.65,-23.7 -1.25,15.3 5.65,21.7 h 3.7 q -5.65,-4.4 -6.35,-18 -0.4,-8.25 3,-17 2,-5.2 4.65,-9.15 7.9,0.75 13.55,3.3 l 1.55,0.05 q 0.75,-0.3 1.1,-1.05 0.35,-0.75 0.05,-1.55 -0.3,-0.75 -1.1,-1.1 -6.7,-3 -15.1,-3.65 l -4,-0.2 H -32 l -0.5,0.1 -7.45,1.25 q -10.65,2.35 -13,5 -2.3,0.35 -1.3,-1.7 v 1 q 2.3,-9 12.65,-16.3 2.55,-1.8 7.5,-3.7 5.55,-2.1 11.7,-3.25 15.95,-3.05 26.8,1.6 -1.65,2.35 -1.35,3.65 0.1,0.45 1,-0.2 l 2.4,-1.95 q 4.5,-3.65 8.6,-5.15 6.35,-2.3 12.7,-2.35 -0.35,11.35 -5.35,16 -4,3.75 -4.45,5 -0.25,0.65 0.8,1 0.3,0.1 1.1,-0.5 l 1.8,-1.4 q 2.75,-1.9 5.1,-1.1 2.8,0.95 2.7,4.1 -0.1,2.9 -2.05,4.9 -4.7,4.7 -3.65,5.65 0.65,0.7 1.3,0 l 0.7,6 0.45,4.65 -0.45,-1.45 q -0.8,-1.4 -2.35,-0.5 -4.7,2.65 -6,11.65 1.5,1.05 5.1,-3.2 l 0.4,-0.45 -0.45,0.6 -0.4,0.7 q 1.35,1.35 2.35,1.35 1,0 0,1.35 l -0.35,5.3 q -0.55,0.75 -0.5,1.4 l 0.3,0.75 0.2,0.2 q 1,1 2,0.65 -1.4,0.85 -2,2 -0.9,1.85 -0.5,4 l 0.3,1.1 q 0.3,0.9 0.9,0.9 -1.35,0.7 -4,-2 l -2.1,-2.05 -1.6,-2.6 q -1.5,-2.45 -2.3,-1.65 -1.15,1.1 0.6,4.7 1.55,3.1 3.4,4.95 Q 20.1,2.3 22,3.1 l 0.45,0.15 0.55,0.2 0.25,0.05 q 0.5,0.05 0.5,-0.2 m -51.7,-75.35 q 0.7,-0.25 2.3,1.55 1.6,1.8 1.05,1.8 -3.5,0 -6.35,1.65 2,-4.65 3,-5 m 14.9,38.4 q -1.7,7.05 -0.4,13.7 -4.9,5.2 -7.65,9.35 -1.85,2.8 -3.75,8.5 l -0.3,0.95 -0.05,0.4 h 2 l 0.25,-0.75 q 1.75,-5.35 3.5,-8 2.5,-3.7 6.6,-8.15 l 0.65,2 q -0.5,0.1 -0.65,0.55 -0.65,1.05 -1.25,4.35 -0.9,5.05 0.2,9.6 l 0.1,0.3 1.05,-0.05 H -12 q 0.1,-0.3 0.05,-0.7 -1.35,-5.7 0.65,-11.9 1.7,3.9 4.55,8.25 l 2.6,3.8 q 0.35,0.45 0.9,0.55 h 0.6 q 0.9,-0.15 1.15,-1.05 1.1,-3.9 2.95,-8.2 3.7,-8.6 7.75,-11.3 1.3,-0.8 0.45,-2.1 -0.8,-1.25 -2.1,-0.4 -6.3,4.2 -11,18.25 -5.8,-8.6 -7,-14.65 -0.55,-2.55 -0.55,-5.35 0,-7.15 2.75,-12.65 l 0.15,-0.7 q 0,-0.9 -0.85,-1.35 -1.3,-0.65 -2,0.7 l -0.75,1.75 -1.35,4.3 m -19.2,-11.05 q -1.5,2.95 -5.7,19.3 l -11.3,5 q -1.45,0.65 -5.35,4.45 -3.45,3.35 -4.35,3.25 -2.15,-0.3 0.05,-7.15 2.25,-7.35 7.65,-15.55 7,-10.65 18.65,-10.3 0.65,0.3 0.35,1 m 37.8,43.8 q 2.85,-7.9 9.8,-13.35 0.75,-0.65 0.15,-1.4 -0.5,-0.8 -1.4,-0.2 l -1.35,1.15 -2.95,3 Q 5.35,-6.6 3.45,-1.05 L 3.4,-0.9 h 2.15 m 9.85,-12.15 q 4.1,2.55 3.65,5.65 -0.2,1.55 0.9,2.3 l 0.75,0.3 q 0.35,0 0.35,-0.25 l 0.15,-1.05 0.05,-2 q -0.35,-3 -2.85,-5.3 -2.7,-2.45 -3,0.35 M 60.1,-22 q -6.7,1.05 -7.7,2.95 -0.7,1.35 -0.15,5.1 0.65,3.95 0.15,5.55 -0.5,1.7 3.65,2.35 l 2,-4 q 10,-1.65 11.35,-4 0.95,-1.7 0.45,-4.1 -0.45,-2.25 -1.8,-3.55 -1.3,-1.35 -7.95,-0.3 m 5.5,2.45 q -7.2,0.5 -9.85,1.85 -2,1 0,4.3 6.5,0 10.5,-2 2.65,-1.3 -0.65,-4.15 m 2.9,1.45 q 0.65,1.35 -0.15,2.7 -0.8,1.3 -11.75,3.7 L 55.45,-9 q -1.5,0.05 -1.55,-0.55 l -0.25,-3.55 q -0.25,-2.95 0.1,-4.55 0.35,-1.6 5.85,-2.7 5.45,-1.05 6.85,-0.05 1.35,0.95 2.05,2.3 m 3.8,37.5 q -0.85,3.9 -2.25,3.9 -2.65,0 -2.65,-13.2 V 0.25 q 0.15,-4.3 1.35,-4.3 2.85,0 4,14 0.4,5.45 -0.45,9.45 M 51.5,7.15 V 7.5 q -0.4,3 -1.8,5.55 l -1.75,2.5 Q 48.7,13.6 43.75,11.5 45.35,10.05 47.2,8.95 L 47.5,8.8 q 1.7,-1 3.6,-1.65 h 0.4 M 53.65,4.3 h -0.6 q -6.9,2.5 -12.3,7.3 8.3,3.5 7,6.7 1.45,-1.55 2.9,-4.1 2.4,-4.25 3,-9.25 V 4.3 m 15.75,11 1,0.3 q 0,-12 -2.65,-12.3 -0.35,4 1.65,12 m -29,31.45 q 0.25,4.4 1,7.5 0.8,3.05 1.6,3 0.85,-0.05 1.25,-3.2 0.4,-3.15 0.15,-7.55 -0.25,-4.4 -1,-7.5 -0.8,-3.1 -1.6,-3.05 -0.85,0.05 -1.25,3.2 -0.4,3.2 -0.15,7.6 M 62.05,27.6 q 0.35,-6.65 3,-9.65 1,6.35 4.35,9.65 h -7.35 m -3.3,-1 1.3,2 -8.3,11.7 v -3.7 l 7,-10 M 18.95,4.05 H 17.9 q 0.4,3.2 0,6.35 h 1.05 V 4.05 M 11.05,0.3 H -42.6 l -7.65,7.65 V 23.3 q 1.65,-0.35 3.3,-2.35 l 0.7,-12.35 9.05,-0.1 -3.55,7.25 45.8,-0.55 V 13.6 L -1.4,13.7 0.8,8.05 6.75,7.95 7.4,23.6 q 8,-4 8.35,-7.3 0.55,-5.7 -4.7,-16 M -7.4,13.8 q -2.5,-2.55 -2.9,-5.65 l 10.1,-0.1 -2.7,5.65 -4.5,0.1 m -1.3,0 -5.7,0.05 -3.15,-5.6 6.05,-0.05 q 0.35,3.05 2.8,5.6 M 4.85,40.65 5.05,37.6 q 0,-0.95 3.9,-1.25 l 6.45,0.25 q 0.8,0.15 0.95,4.25 0.15,4 -0.3,4.1 l -5,0.4 -5,-0.05 q -0.85,0 -1,-0.7 -0.3,-1.8 -0.2,-3.95 m 14.55,4.3 -0.65,-8.65 h 3.65 l 0.65,8.65 H 19.4 m -36.2,-33.3 0.3,0.55 0.9,1.7 -7.55,0.05 4.5,-5.55 1.85,3.25 M -18.65,8.4 -18.7,8.25 h 0.2 L -18.65,8.4 M -27,14 V 8.4 L -19.75,8.3 -24.6,13.95 -27,14 m -1.3,0 -10.2,0.15 2.75,-5.65 7.45,-0.1 V 14 m -23.25,1.25 -8.2,0.4 0.05,1.1 8.15,-0.4 v -1.1 m 3.95,44.7 -21,-1.65 v -4 l 21,1.3 v 4.35 m 12.85,5.65 24,1 -0.5,-7.5 q -21.5,-1 -24,-0.5 l 0.5,7 m 57.15,-6 -19.35,0.7 -0.3,-4 19.65,-0.7 v 4 m -90.35,-23.3 0.7,8.3 h -2.7 l -0.65,-8.3 h 2.65 m 3.75,0.75 q 1.1,-1.05 4.65,-0.9 3.65,0.1 3.95,1.45 0.6,3.3 0,7 -0.1,0.35 -2.35,0.35 l -5.8,-0.35 q -0.45,0 -0.75,-3.5 -0.3,-3.55 0.3,-4.05"
         id="path1054" />
      <path
         style="fill:none;stroke:#000000;stroke-width:1;stroke-linecap:round;stroke-linejoin:round;stroke-miterlimit:3;stroke-opacity:1"
         d="m 43.05,-23.15 5.85,9.95 -3.5,0.15 Q 45.05,-11.7 44.75,-8.4 44.4,-5.05 41.4,-3.55 39.55,8.6 29.9,8.6 q -5.5,0 -6.1,-5 L 23.25,3.5 23,3.45 22.45,3.25 22,3.1 Q 20.1,2.3 18.75,0.95 16.9,-0.9 15.35,-4 q -1.75,-3.6 -0.6,-4.7 0.8,-0.8 2.3,1.65 l 1.6,2.6 2.1,2.05 q 2.65,2.7 4,2 -0.6,0 -0.9,-0.9 l -0.3,-1.1 q -0.4,-2.15 0.5,-4 0.6,-1.15 2,-2 -1,0.35 -2,-0.65 l -0.2,-0.2 -0.3,-0.75 q -0.05,-0.65 0.5,-1.4 l 0.35,-5.3 q 1,-1.35 0,-1.35 -1,0 -2.35,-1.35 l 0.4,-0.7 0.45,-0.6 -0.4,0.45 q -3.6,4.25 -5.1,3.2 1.3,-9 6,-11.65 1.55,-0.9 2.35,0.5 l 0.45,1.45 -0.15,1.05 -0.15,0.45 -0.9,1.65 1.4,-2.45 3.25,-0.15 11.1,-0.2 2.3,3.25 m -20.15,2.45 0.15,-0.2 1.95,-2.7 m 2.4,7.2 q 3.35,-8 5.35,-8 l 5.65,0.7 q 6.65,8 7,10.65 M 23.85,-1.3 q 1.15,-4.25 6.55,-3.1 3.3,0.7 3,3.85 -0.25,3 -3,4.15 -2.05,0.85 -6.6,0 L 23.75,3.3 q 0,0.25 -0.5,0.2 m 0.3,-13.5 q 4.8,-3.4 8.5,-3.4 3.05,0 5.65,2.15 3.25,2.75 3.7,7.7"
         id="path1056" />
      <path
         style="fill:none;stroke:#000000;stroke-width:2;stroke-linecap:round;stroke-linejoin:round;stroke-miterlimit:3;stroke-opacity:1"
         d="m -73.8,33.65 0.05,-0.05 q 5.1,-1 96.5,0 8,5.5 5,15.35 l -6.4,0.7 Q 3.9,51.2 -24.4,50.25 l -4.45,-0.1 -0.4,-0.05 -23.2,-1.3 -10.3,-0.7 -5.35,0.45 -3.5,-0.25 -0.35,-0.05 -0.1,-0.05 h -0.1 l -0.65,-0.5 -0.95,-1.65 q -0.85,-1.95 -1.15,-4.9 l -0.05,-0.8 m 1.15,-6.7 q -0.85,0.25 -1.15,2.45 -0.25,1.85 0,4.25"
         id="path1058" />
    </g>
    <g
       id="sonic-right"
       transform="matrix(0.23069655,0,0,0.23070116,116.47198,123.1111)">
      <path
         style="fill:#000000;fill-opacity:1"
         d="m -23.7,3.3 -0.05,0.3 q -0.6,5 -6.1,5 -9.65,0 -11.5,-12.15 -3,-1.5 -3.35,-4.85 -0.3,-3.3 -0.65,-4.65 l -3.5,-0.15 5.85,-9.95 -0.35,-0.25 q -3.3,1.55 -7,-0.3 -2.95,-1.5 -8.85,-1.75 l -8.8,0.05 q -0.8,0 -2.5,1.35 -1.9,1.5 -3.65,3.7 -4.65,5.95 -4.85,12.3 -0.45,12.7 4.3,14 -2.05,-3.15 -2.5,-7.85 -0.3,-3.45 0.5,-7.15 l 3.35,6 q 2.35,-8.65 5.65,-6 3.35,2.65 2,17 l 3.65,6.35 0.9,-5.75 Q -58.1,-8.15 -48,-5.75 l -3.65,-5.55 0.5,-0.9 q 8.35,13.2 18.3,24 7.1,2.8 15.8,1.95 l -0.4,1.05 q -8.7,0.85 -15.8,-1.95 -7.55,-8.2 -14.2,-17.8 -11.2,-3.6 -14.15,20.05 l 0.9,1.5 10.7,14.7 q 1,-5.35 3.65,-7 2.1,-1.3 5.1,2.4 3.1,3.85 4.05,9.4 0.65,3.7 0.8,6.2 l 0.05,2.35 -0.5,-3.1 -1.35,-4.45 q -2.4,-7.5 -4.5,-7.5 -2.6,0 -4.55,5.15 -1.95,5.25 -1.95,12.85 0,8.1 1.2,12.9 1.35,5.1 3.8,5.1 2.75,0 5.3,-5.35 1.85,-3.95 2.4,-8.6 L -37,58.3 q -1,10 -7.35,10 1.4,1.65 15.3,2.95 l 18.35,0.7 Q -4.7,71.3 -4,66.3 H 4.3 Q 6.3,63.6 6.65,61.95 7,60.3 9,61.3 q -1,6 0,7 l 27,-1 2,1.65 q 1.35,1.1 13.85,0.85 L 65,68.95 q 1,-0.65 3.3,-4.65 4,-0.35 5,-1 1.65,-1.05 2.95,-3.2 2.3,-3.75 2.75,-9.5 0.65,-9 -3.35,-9.65 l -0.65,-0.6 -0.05,0.8 q -0.3,2.95 -1.15,4.9 l -0.95,1.65 q 0.7,-0.75 1.3,-2.45 1.85,-1.3 2.15,1.35 l 0.35,3.6 q 0,1.75 -0.65,3.1 l -2.45,4.85 q -2.15,3.5 -4.25,4.15 l -24,1.3 q -4.65,-7.65 -6,-8.65 -1.3,-1 -31,-0.35 -5.3,4 -6,9.35 -28.45,1.75 -32.3,-1 -5.7,-4 -6.35,-10 L -36,43.3 q 6.8,6.3 7.8,6.3 l 6.9,0.05 -6.4,-0.7 q -3,-9.85 5,-15.35 91.4,-1 96.5,0 L 73.85,33.65 74,32.6 Q 73.1,28.55 68,22.05 62,14.45 54,8.95 53.1,8.3 50.5,5.35 47.75,2.2 46.65,1.3 q -2,-21 -8.65,-23.7 1.25,15.3 -5.65,21.7 h -3.7 q 5.65,-4.4 6.35,-18 0.4,-8.25 -3,-17 -2,-5.2 -4.65,-9.15 -7.9,0.75 -13.55,3.3 l -1.55,0.05 q -0.75,-0.3 -1.1,-1.05 -0.35,-0.75 -0.05,-1.55 0.3,-0.75 1.1,-1.1 6.7,-3 15.1,-3.65 l 4,-0.2 h 0.75 l 0.5,0.1 7.45,1.25 q 10.65,2.35 13,5 2.3,0.35 1.3,-1.7 v 1 q -2.3,-9 -12.65,-16.3 -2.55,-1.8 -7.5,-3.7 -5.55,-2.1 -11.7,-3.25 -15.95,-3.05 -26.8,1.6 1.65,2.35 1.35,3.65 -0.1,0.45 -1,-0.2 l -2.4,-1.95 q -4.5,-3.65 -8.6,-5.15 -6.35,-2.3 -12.7,-2.35 0.35,11.35 5.35,16 4,3.75 4.45,5 0.25,0.65 -0.8,1 -0.3,0.1 -1.1,-0.5 l -1.8,-1.4 q -2.75,-1.9 -5.1,-1.1 -2.8,0.95 -2.7,4.1 0.1,2.9 2.05,4.9 4.7,4.7 3.65,5.65 -0.65,0.7 -1.3,0 l -0.7,6 -0.45,4.65 0.45,-1.45 q 0.8,-1.4 2.35,-0.5 4.7,2.65 6,11.65 -1.5,1.05 -5.1,-3.2 l -0.4,-0.45 0.45,0.6 0.4,0.7 q -1.35,1.35 -2.35,1.35 -1,0 0,1.35 l 0.35,5.3 q 0.55,0.75 0.5,1.4 l -0.3,0.75 -0.2,0.2 q -1,1 -2,0.65 1.4,0.85 2,2 0.9,1.85 0.5,4 l -0.3,1.1 q -0.3,0.9 -0.9,0.9 1.35,0.7 4,-2 l 2.1,-2.05 1.6,-2.6 q 1.5,-2.45 2.3,-1.65 1.15,1.1 -0.6,4.7 -1.55,3.1 -3.4,4.95 -1.35,1.35 -3.25,2.15 l -0.45,0.15 -0.55,0.2 -0.25,0.05 q -0.5,0.05 -0.5,-0.2 M 28,-72.05 q -0.7,-0.25 -2.3,1.55 -1.6,1.8 -1.05,1.8 3.5,0 6.35,1.65 -2,-4.65 -3,-5 m -14.9,38.4 q 1.7,7.05 0.4,13.7 4.9,5.2 7.65,9.35 1.85,2.8 3.75,8.5 l 0.3,0.95 0.05,0.4 h -2 L 23,-1.5 q -1.75,-5.35 -3.5,-8 -2.5,-3.7 -6.6,-8.15 l -0.65,2 q 0.5,0.1 0.65,0.55 0.65,1.05 1.25,4.35 0.9,5.05 -0.2,9.6 l -0.1,0.3 L 12.8,-0.9 H 12.05 Q 11.95,-1.2 12,-1.6 13.35,-7.3 11.35,-13.5 9.65,-9.6 6.8,-5.25 l -2.6,3.8 Q 3.85,-1 3.3,-0.9 H 2.7 q -0.9,-0.15 -1.15,-1.05 -1.1,-3.9 -2.95,-8.2 -3.7,-8.6 -7.75,-11.3 -1.3,-0.8 -0.45,-2.1 0.8,-1.25 2.1,-0.4 6.3,4.2 11,18.25 5.8,-8.6 7,-14.65 0.55,-2.55 0.55,-5.35 0,-7.15 -2.75,-12.65 l -0.15,-0.7 q 0,-0.9 0.85,-1.35 1.3,-0.65 2,0.7 l 0.75,1.75 1.35,4.3 M 32.3,-44.7 q 1.5,2.95 5.7,19.3 l 11.3,5 q 1.45,0.65 5.35,4.45 3.45,3.35 4.35,3.25 2.15,-0.3 -0.05,-7.15 -2.25,-7.35 -7.65,-15.55 -7,-10.65 -18.65,-10.3 -0.65,0.3 -0.35,1 M -5.5,-0.9 q -2.85,-7.9 -9.8,-13.35 -0.75,-0.65 -0.15,-1.4 0.5,-0.8 1.4,-0.2 l 1.35,1.15 2.95,3 q 4.45,5.1 6.35,10.65 l 0.05,0.15 H -5.5 m -9.85,-12.15 q -4.1,2.55 -3.65,5.65 0.2,1.55 -0.9,2.3 l -0.75,0.3 -0.35,-0.25 -0.15,-1.05 -0.05,-2 q 0.35,-3 2.85,-5.3 2.7,-2.45 3,0.35 m -53.1,-5.05 q -0.65,1.35 0.15,2.7 0.8,1.3 11.75,3.7 l 1.15,2.7 q 1.5,0.05 1.55,-0.55 l 0.25,-3.55 q 0.25,-2.95 -0.1,-4.55 -0.35,-1.6 -5.85,-2.7 -5.45,-1.05 -6.85,-0.05 -1.35,0.95 -2.05,2.3 m 2.9,-1.45 q 7.2,0.5 9.85,1.85 2,1 0,4.3 -6.5,0 -10.5,-2 -2.65,-1.3 0.65,-4.15 m 5.5,-2.45 q 6.7,1.05 7.7,2.95 0.7,1.35 0.15,5.1 -0.65,3.95 -0.15,5.55 0.5,1.7 -3.65,2.35 l -2,-4 q -10,-1.65 -11.35,-4 -0.95,-1.7 -0.45,-4.1 0.45,-2.25 1.8,-3.55 l 7.95,-0.3 m -12.2,41.4 q 0.85,3.9 2.25,3.9 2.65,0 2.65,-13.2 V 0.25 q -0.15,-4.3 -1.35,-4.3 -2.85,0 -4,14 -0.4,5.45 0.45,9.45 M -53.6,4.3 h 0.6 q 6.9,2.5 12.3,7.3 -8.3,3.5 -7,6.7 -1.45,-1.55 -2.9,-4.1 -2.4,-4.25 -3,-9.25 V 4.3 m 2.15,3.2 q 0.4,3 1.8,5.55 l 1.75,2.5 q -0.75,-1.95 4.2,-4.05 -1.6,-1.45 -3.45,-2.55 l -0.3,-0.15 q -1.7,-1 -3.6,-1.65 h -0.4 V 7.5 m -17.9,7.8 -1,0.3 q 0,-12 2.65,-12.3 0.35,4 -1.65,12 m 29,31.45 q -0.25,4.4 -1,7.5 -0.8,3.05 -1.6,3 -0.85,-0.05 -1.25,-3.2 -0.4,-3.15 -0.15,-7.55 0.25,-4.4 1,-7.5 0.8,-3.1 1.6,-3.05 0.85,0.05 1.25,3.2 0.4,3.2 0.15,7.6 M -58.7,26.6 l -1.3,2 8.3,11.7 v -3.7 l -7,-10 m -3.3,1 q -0.35,-6.65 -3,-9.65 -1,6.35 -4.35,9.65 H -62 M -18.9,4.05 h 1.05 q -0.4,3.2 0,6.35 H -18.9 V 4.05 M -11,0.3 H 42.65 L 50.3,7.95 V 23.3 Q 48.65,22.95 47,20.95 L 46.3,8.6 37.25,8.5 40.8,15.75 -5,15.2 V 13.6 L 1.45,13.7 -0.75,8.05 -6.7,7.95 -7.35,23.6 q -8,-4 -8.35,-7.3 -0.55,-5.7 4.7,-16 M 7.45,13.8 q 2.5,-2.55 2.9,-5.65 l -10.1,-0.1 2.7,5.65 4.5,0.1 m 1.3,0 5.7,0.05 3.15,-5.6 -6.05,-0.05 q -0.35,3.05 -2.8,5.6 M -4.8,40.65 -5,37.6 q 0,-0.95 -3.9,-1.25 l -6.45,0.25 q -0.8,0.15 -0.95,4.25 -0.15,4 0.3,4.1 l 5,0.4 5,-0.05 q 0.85,0 1,-0.7 0.3,-1.8 0.2,-3.95 m -14.55,4.3 0.65,-8.65 h -3.65 L -23,44.95 h 3.65 m 36.2,-33.3 -0.3,0.55 -0.9,1.7 7.55,0.05 -4.5,-5.55 -1.85,3.25 M 18.7,8.4 18.75,8.25 h -0.2 L 18.7,8.4 M 27.05,14 V 8.4 l -7.25,-0.1 4.85,5.65 2.4,0.05 m 1.3,0 10.2,0.15 L 35.8,8.5 28.35,8.4 V 14 m 23.25,1.25 8.2,0.4 -0.05,1.1 -8.15,-0.4 v -1.1 m -16.8,50.35 -24,1 0.5,-7.5 q 21.5,-1 24,-0.5 l -0.5,7 m 12.85,-5.65 21,-1.65 v -4 l -21,1.3 v 4.35 m -70,-0.35 19.35,0.7 0.3,-4 -19.65,-0.7 v 4 M 68,36.3 67.3,44.6 H 70 l 0.65,-8.3 H 68 m -3.75,0.75 q -1.1,-1.05 -4.65,-0.9 -3.65,0.1 -3.95,1.45 -0.6,3.3 0,7 0.1,0.35 2.35,0.35 l 5.8,-0.35 q 0.45,0 0.75,-3.5 0.3,-3.55 -0.3,-4.05"
         id="path1070" />
      <path
         style="fill:none;stroke:#000000;stroke-width:1;stroke-linecap:round;stroke-linejoin:round;stroke-miterlimit:3;stroke-opacity:1"
         d="m -43,-23.15 -5.85,9.95 3.5,0.15 q 0.35,1.35 0.65,4.65 0.35,3.35 3.35,4.85 1.85,12.15 11.5,12.15 5.5,0 6.1,-5 l 0.55,-0.1 0.25,-0.05 0.55,-0.2 0.45,-0.15 q 1.9,-0.8 3.25,-2.15 1.85,-1.85 3.4,-4.95 1.75,-3.6 0.6,-4.7 -0.8,-0.8 -2.3,1.65 l -1.6,2.6 -2.1,2.05 q -2.65,2.7 -4,2 0.6,0 0.9,-0.9 l 0.3,-1.1 q 0.4,-2.15 -0.5,-4 -0.6,-1.15 -2,-2 1,0.35 2,-0.65 l 0.2,-0.2 0.3,-0.75 q 0.05,-0.65 -0.5,-1.4 l -0.35,-5.3 q -1,-1.35 0,-1.35 1,0 2.35,-1.35 l -0.4,-0.7 -0.45,-0.6 0.4,0.45 q 3.6,4.25 5.1,3.2 -1.3,-9 -6,-11.65 -1.55,-0.9 -2.35,0.5 l -0.45,1.45 0.15,1.05 0.15,0.45 0.9,1.65 q -1.25,-1.8 -1.4,-2.45 l -3.25,-0.15 -11.1,-0.2 -2.3,3.25 m 20.15,2.45 -0.15,-0.2 -1.95,-2.7 m -2.4,7.2 q -3.35,-8 -5.35,-8 l -5.65,0.7 q -6.65,8 -7,10.65 M -23.8,-1.3 q -1.15,-4.25 -6.55,-3.1 -3.3,0.7 -3,3.85 0.25,3 3,4.15 2.05,0.85 6.6,0 l 0.05,-0.3 q 0,0.25 0.5,0.2 M -23.5,-10 q -4.8,-3.4 -8.5,-3.4 -3.05,0 -5.65,2.15 -3.25,2.75 -3.7,7.7"
         id="path1072" />
      <path
         style="fill:none;stroke:#000000;stroke-width:2;stroke-linecap:round;stroke-linejoin:round;stroke-miterlimit:3;stroke-opacity:1"
         d="M 73.85,33.65 73.8,33.6 q -5.1,-1 -96.5,0 -8,5.5 -5,15.35 l 6.4,0.7 q 17.45,1.55 45.75,0.6 l 4.45,-0.1 0.4,-0.05 23.2,-1.3 10.3,-0.7 5.35,0.45 3.5,-0.25 0.35,-0.05 0.1,-0.05 h 0.1 l 0.65,-0.5 0.95,-1.65 q 0.85,-1.95 1.15,-4.9 L 75,40.35 m -1.15,-6.7 q 0.85,0.25 1.15,2.45 0.25,1.85 0,4.25"
         id="path1074" />
    </g>
    <g
       id="sonic-center"
       transform="matrix(0.22308139,0,0,0.22308139,69.023355,123.06428)">
      <path
         style="fill:#000000;fill-opacity:1"
         d="m 22.8,-57 q -1,-4.5 -2,-5.75 -0.95,-1.15 3.45,-3.9 4.55,-2.8 7.55,-1.6 1.7,0.65 2.2,9.15 0.55,7.95 -0.2,10.1 -0.15,0.5 -2.45,-1.6 -2.4,-2.15 -2.8,-1.65 -1.05,1.4 2.75,6.25 2.75,3.5 4.7,14.75 2.7,15.25 -1.45,28.25 -0.2,0.55 -0.8,0.65 V -3.2 q -0.8,-2.55 -1.55,-3.55 -2.9,-5.95 -8.95,-11.4 l -5.8,-4.55 q 0.2,-1.7 0,-2.3 0.95,-10.7 -0.55,-11.25 -1.25,-0.4 -1.9,0.4 l -0.4,0.9 -0.55,6.45 q -0.8,7.35 -1.95,12.15 -0.65,2.75 -4.7,14.45 L 5.45,3.45 13,3.4 11.7,1.4 q -0.7,-2.3 -0.5,-3 l 2.7,-7.15 q 1.4,-3.55 2.65,-10.5 l 4.95,3.7 q 4.2,3.6 6.55,7.8 l 0.25,9.6 -0.85,1.45 3.1,-0.05 0.5,-3.5 0.95,1.3 q 1.25,1.15 2.55,0.7 3.8,-1.35 5,-16 0.3,-3.75 1.7,-2.75 l 1.3,1.75 -1.1,2.05 q -1,2.4 -0.4,3.95 1,2.5 -0.5,5 l -0.75,1.9 q -0.5,2 0.75,2.6 2.9,1.45 4.5,1.75 1.25,0.2 3.2,-1.55 1,-0.9 0.6,1.75 -0.5,4.1 0.7,4.8 L 44.2,4.2 Q 38.7,1.45 38.05,1.75 l -2,1.75 -1.2,0.25 q -0.45,0.05 -0.3,0.5 l 0.5,1.5 2,-1 6.65,1.95 q 7.25,3.1 10.35,9.05 4.9,9.25 5.45,23.75 2.2,0.55 2.55,1.25 2.2,4.45 2.3,8.6 0.05,2.55 -1.05,9.65 -1,6.25 -8.5,9.25 -1,4.5 -1.75,5 -0.55,0.35 -14.5,0.25 l -16,-0.5 q -1.7,-0.3 -2.65,-4.55 l -0.6,-4.2 Q 18.7,63.8 18.05,63.7 16.8,63.45 16.8,65 q 0,5.15 -2,6.75 l -13,0.45 -14,-0.45 q -1.85,-0.3 -2.55,-3.35 -0.65,-3.05 -1.2,-3.15 -0.45,-0.05 -1.3,1.35 l -0.7,1.4 q 0.5,3.85 -2.75,5.25 L -36.2,73.8 -51.7,73 q -1.1,-0.6 -1.55,-2.85 L -53.45,68 q -4.95,-1.2 -7.4,-4.55 -2.4,-3.3 -3.25,-9.85 -0.7,-5.3 1,-10 l 1.9,-3.6 h 0.7 l 0.2,-3.6 q 0.05,-6.85 0.5,-10.5 0.75,-6.4 4.2,-10.5 3.1,-3.65 8.75,-7.5 5.05,-3.4 5.4,-4.15 2.05,-4.1 -1,-6 -0.35,-0.25 -0.1,-2.5 0.35,-3.4 0.35,-4.5 0,-5.25 -3.25,-5.25 l 3.5,-2.75 1.25,4.1 q 1.55,4.8 3.1,8.25 2.5,5.5 3.9,6.9 l 2.75,-1.6 -0.2,1.5 q 0.15,1.55 1.7,1.85 h 1.85 V 3 q -2.25,-5.8 -1.7,-7.9 1.15,-4.7 6.4,-10.1 2.65,-2.75 5.3,-4.75 l 5.5,13.4 q 0.6,2.3 -1.75,6.65 -0.8,0.9 -1.35,2.35 l -0.3,1 L -11.15,3.6 -10.1,0.25 -8.4,3.6 -3.3,3.55 -3.35,3.5 -5.2,1.15 -8.45,-6.5 q -6.1,-11.45 -8,-26.95 -0.2,-1.5 -1.7,-1.3 -1.5,0.2 -1.3,1.7 l 1,10.05 q -4,1.6 -7,4.9 -6.1,6.85 -8.2,12.15 l -0.45,1.55 -0.35,0.55 q -3.75,-7.5 -5,-13.4 -1,-4.6 0.7,-12.4 1.4,-6.3 2.8,-8.85 5.55,-10.05 4.75,-12.5 -0.55,-1.65 -1.6,0.8 -1.1,2.6 -1.4,1.95 -0.9,-1.85 -1.1,-9.15 -0.25,-8.4 1.85,-10.85 1.45,-1.7 6.6,0.1 5.15,1.75 5.15,4.15 0,2.5 -3.75,7.25 -1.1,2.25 1.5,0.5 l 2.4,-2.9 5.4,-5.95 q 8.8,-8.5 16.45,-8.65 8.45,-0.15 15.85,9.05 l 4.3,5.9 q 1.75,2.4 2.35,1.8 m 21.9,49.45 q 0.1,1.4 0.35,2.65 1.65,0.2 5.2,-1.05 3.05,-1.05 4.05,-1.8 0.7,-0.5 0.4,-2.1 -0.25,-1.5 -0.9,-1.9 l -4.05,-0.2 q -3.55,0.25 -4.45,0.95 -0.8,0.65 -0.6,3.45 m 10.85,-6.7 q 1.8,0.5 1.85,3.8 0.05,2.6 -0.6,4.2 -0.3,0.7 -4.15,1.6 -4.4,1 -5.1,1.4 -1.1,0.65 -2.15,2.5 L 44.55,1 q -2.5,0.15 -2.1,-2.15 L 43.3,-3.5 42.8,-5 q -1.7,-5.15 -0.25,-7.5 0.85,-1.4 5.95,-1.9 4.7,-0.5 7.05,0.15 M 35.5,26.05 37.3,26 q 0.75,-0.25 0,-11.5 l -71,-1 0.5,11.75 q 0,0.6 1,0.8 1.05,0.15 1.75,-0.55 1,-1 0.25,-11 l 63.75,0.25 0.5,10.25 q 0.15,0.85 1.45,1.05 m 16.55,14.2 v 8 h -3.5 v -8 h 3.5 m -6,-0.25 v 8 H 34.8 v -8 h 11.25 m 7,22.75 H 29.8 V 59 h 23.25 v 3.75 m -29.5,3.75 q 0.75,1 29.5,0 10.4,-1.15 8.65,-21.4 -0.1,-1.25 -1.4,-2.15 l -0.75,-0.4 v 0.7 l -0.1,6.25 q -0.4,2.6 -2.4,3.25 -3,1 -113.35,0 -4,-0.45 -4.2,-10 h -0.95 l -0.5,2.65 q -0.5,3.25 -0.35,6.25 0.55,9.75 7.35,13.85 1.25,0.75 3.5,1.5 l 30.25,-0.25 2.4,-4.55 q 2.6,-4.65 3.85,-4.95 30.5,-0.25 31.5,0 0.6,0.15 3.35,4.05 l 3.65,5.2 M 57.8,43.5 Q 57.2,37 51.95,37 h -104.5 l -4.5,0.2 q -1.65,0.55 -1.65,3.05 V 45 q 0,6.5 3.75,6.5 H 52.8 q 5.25,0 5.25,-5 l -0.25,-3 m -104.5,-56 q 1.95,0.5 1.5,4.5 -0.6,5.65 0,6.25 L -43.7,0 q 0,2.75 -1.5,2.75 -0.7,0 -1.45,-1.2 -0.75,-1.3 -1.8,-1.55 -1.9,-0.5 -6,-1.95 -4.5,-1.65 -4.5,-2.05 -0.7,-4.5 0,-7.75 0.35,-1.45 5.55,-1.4 l 6.7,0.65 m -4.8,1.95 q -4.5,-0.15 -5.45,0.8 -1,1 -0.85,2.8 0.15,1.5 0.6,1.95 0.4,0.4 5.6,2.1 3.4,1.65 4.4,0.15 0.6,-0.95 0,-7.5 l -4.3,-0.3 M 12.7,-52.2 q -2.7,7.5 -4.3,10.3 -4.7,8 -9,12.65 -6.5,-3.6 -11,-11 -2.3,-3.75 -3.8,-9.25 l -1.05,-4.75 q -1.85,-0.4 -1.85,2.55 -0.05,2.95 1.85,7.5 4.85,11.8 16,20.45 4.85,-4.15 10.15,-14.5 8.55,-16.55 6,-18 -1.3,-0.75 -3,4.05 M -49.4,2.6 q 1.9,0.8 2.2,1.9 l -2.05,1.65 Q -51.3,7.9 -51.45,8.5 -51.75,9.75 -52,6.2 -52.15,3 -51.2,2 l 1.8,0.6 m 0.45,37.4 v 8.5 h -3.5 V 40 h 3.5 m 12.75,0 v 8 h -10.5 v -8 h 10.5 m 6.75,22.75 H -53.2 v -4 h 23.75 v 4 m 42,7 q 2,-0.25 2.25,-9 h -27.75 q -1.25,2.5 1.75,9 l 10.25,0.2 q 10.8,0.15 13.5,-0.2"
         id="path1086" />
    </g>
    <g
       id="hit-left"
       transform="matrix(0.19225216,0,0,0.19225216,6.0837986,62.397167)">
      <path
         style="fill:#000000;fill-opacity:1"
         d="m 250.15,289.35 -9.4,0.4 q -10.15,1.5 -13.1,6.9 -3.95,7.35 -5.3,25.35 -2.5,-6.25 -5.6,-12.5 -6.15,-12.6 -9.1,-12.85 -5,-0.4 -11.65,3.45 -3.3,1.9 -5.65,3.9 6.65,-21.35 3.3,-26.65 -1.3,-2.05 -8.1,-3.9 L 179,272 q 15.35,-11.35 16,-17.35 0.4,-3.4 -5.75,-7.35 L 183,244 q 17.35,0.65 22,-4 4.65,-4.65 4.65,-20.65 l 4.6,8.85 q 5.15,8.95 8.1,9.15 5.8,0.4 11.5,-6.1 2.85,-3.25 4.5,-6.6 l -2.35,8.9 q -1.85,9.95 0.35,15.1 2.5,5.85 9.85,8.5 3.65,1.35 6.8,1.5 -4,1.2 -7.75,3.95 -7.5,5.5 -6.25,13.4 1.25,7.9 6.45,11.4 2.45,1.7 4.7,1.95"
         id="path1096" />
    </g>
    <g
       id="hit-right"
       transform="matrix(0.21753775,0,0,0.21753775,42.500948,57.328209)">
      <path
         style="fill:#000000;fill-opacity:1"
         d="m 250.15,289.35 -9.4,0.4 q -10.15,1.5 -13.1,6.9 -3.95,7.35 -5.3,25.35 -2.5,-6.25 -5.6,-12.5 -6.15,-12.6 -9.1,-12.85 -5,-0.4 -11.65,3.45 -3.3,1.9 -5.65,3.9 6.65,-21.35 3.3,-26.65 -1.3,-2.05 -8.1,-3.9 L 179,272 q 15.35,-11.35 16,-17.35 0.4,-3.4 -5.75,-7.35 L 183,244 q 17.35,0.65 22,-4 4.65,-4.65 4.65,-20.65 l 4.6,8.85 q 5.15,8.95 8.1,9.15 5.8,0.4 11.5,-6.1 2.85,-3.25 4.5,-6.6 l -2.35,8.9 q -1.85,9.95 0.35,15.1 2.5,5.85 9.85,8.5 3.65,1.35 6.8,1.5 -4,1.2 -7.75,3.95 -7.5,5.5 -6.25,13.4 1.25,7.9 6.45,11.4 2.45,1.7 4.7,1.95"
         id="path1096-0" />
    </g>
    <g
       id="car-41"
       transform="matrix(0.21336348,0,0,0.21336348,31.444926,94.610416)">
      <path
         style="fill:#000000;fill-opacity:1"
         d="m 10.25,-31.2 q -1,0.35 0,9.65 l 5,3.7 -0.35,-9.35 q -3.65,-4.35 -4.65,-4 m 9.65,26.35 v -4.7 h -0.7 q -0.05,-1.85 0.05,-2.3 0.3,-1.7 1.3,-2.7 l -4.3,-1 q -1.35,2.05 -1.7,3.35 -2,-1.65 -3.65,-2 L 3.55,-14.55 Q -0.1,-18.5 -2.1,-18.2 l -4,-0.35 q -2,-3.65 -8.35,-3 -1.35,-12 8.35,-16 7.1,-2.95 13.9,0.35 6.7,3.2 7.45,9.35 0.75,6.3 1,12.3 l 0.3,-3.3 q 5.7,3.3 6.7,2.3 0.7,-0.7 0.1,-1.9 -0.65,-1.1 -1.45,-1.1 l -2.15,-0.1 q -1.3,-0.3 -0.85,-1.55 4.85,-1.1 9,2.35 l 4.45,4.4 q 1.85,2.1 2.2,2.25 l 7.3,1.85 q 6.8,2.05 9.05,5.15 1.9,2.6 2.1,3.5 l 0.25,6.15 q 0,2.7 -18,20 -1.5,-18.9 -4.7,-21.3 -1.3,-1 -6.55,0.05 7.25,0.5 7.75,16 0.3,10 -2.3,14.45 Q 27.9,36.35 25.5,36.7 23.75,36.95 7.75,36.45 4,35.7 2,26.7 0.4,19.45 1.55,12.45 2.75,4.85 6.5,3.45 L 24,3.2 21.9,3.15 q 5,-2.35 0,-2.35 h -10 q 6.3,-1.3 7,-4 l 0.25,-1.65 H 19.9 M 0.6,-4.7 3,-2.3 q 1.15,1.25 2,1.5 1.5,0.5 2,1.75 -3.25,1 -5,2.75 -1.05,1.05 -2.35,6.1 -1.5,6 -1.15,11.15 0.45,7.15 1.3,8.5 -5.6,-3.5 -8.55,-2.5 -2.5,0.9 -3,3.35 L -12,32 q -0.1,0.8 -0.5,0.95 l -7.35,0.5 -8.9,-0.5 q -2.45,-0.6 -6.15,-3.65 -3.65,-3 -4.1,-3.1 L -42.75,25.7 -44.3,24 q -1.05,-1.25 -1.45,-3.05 -0.75,-3.2 -0.05,-6.85 0.7,-3.65 2.55,-5.9 l 1.75,-1.65 q 0.1,-1.5 -0.6,-3.1 -1,-2.3 -5,-2 l 6.35,-4.3 v 8.8 l 0.85,-0.6 q 0.3,3.1 0.8,3.1 4,0.35 7,-3 v -4.5 q 1.9,-1.15 2.85,-2 1.5,-1.3 2.85,-3.5 l 27,-0.15 m -24.2,-5.1 0.6,-1.25 q 2,-7.5 8.25,-7.75 3.05,-0.1 5.35,1.65 l 2.9,3.1 2.55,3.95 0.25,0.4 -19.9,-0.1 m 60.15,-7.75 -0.3,3.7 q -1.35,-2.7 -3,-3.7 h 3.3 m -14.3,4.7 q -2,4.3 0.3,11.3 1.9,2.8 5.4,1.7 3.3,-1 4.3,-3.7 0.65,-1.8 0.3,-4.3 L 31.9,-11.2 q -0.25,-1.2 -1.5,-2.25 -1.25,-1.05 -2.85,-1.45 -3.9,-1 -5.3,2.05 M 60,-25.3 q 2.6,1.9 3.55,12.75 Q 64.5,-2.15 63,0.2 60.4,4.25 57,4.7 56.4,4.75 56.45,3.55 l 0.1,-3.3 q -0.3,-5.6 -5.3,-9.3 -2.95,-2.15 -5.8,-3.05 l -6.7,-1.95 q 0.25,-11.5 5.75,-12.5 l 8.3,-0.85 q 4.45,0.1 7.2,2.1 m 0.25,22 q 0.7,0 1.25,-2.15 0.5,-2.2 0.5,-5.35 0,-3 -0.75,-5.45 -0.75,-2.3 -1.5,-2.3 -0.75,0 -1.25,2.3 -0.5,2.25 -0.5,5.45 0,3.05 0.75,5.35 0.7,2.15 1.5,2.15 m 8.3,-13.55 q 2,1.3 2,4.3 0,6.35 -4.65,5.7 l -0.35,-11 q 2.2,0.5 3,1 M 24,12.35 q -0.25,1.95 -0.25,7.75 0,4.55 0.85,7.75 0.8,3.1 1.9,3.1 1.7,0 2.2,-3.1 Q 29,25.9 29,20.1 29,9.2 25.75,9.2 24.4,9.2 24,12.35 m 14.55,6.45 q 4.6,-3 13.2,-14.85 0.5,-6.75 -2.25,-6.5 l -13.75,9.5 q 1.05,2.65 1.85,8 0.55,4.1 0.95,3.85 M -9.25,-4.05 Q -9.25,10.2 -8,9.7 -6.75,9.2 -1.5,5.2 l 0.25,-9.5 -8,0.25 m -2.5,23.2 q 0,0.85 0.65,1.4 0.7,0.6 1.65,0.6 1,0 1.65,-0.6 0.7,-0.6 0.7,-1.4 0,-0.85 -0.7,-1.4 -0.65,-0.6 -1.65,-0.6 -0.95,0 -1.65,0.6 -0.65,0.55 -0.65,1.4 m -23,13.3 q 1,1 -4,3 -1.75,-0.95 -2.55,-3.45 -0.85,-2.45 0.2,-3.2 1.45,-1.05 3,2 2.35,0.65 3.35,1.65 m 29.3,-3 q 2.35,1 3,1.7 -2,6.3 -5,6 -3,-1.7 -2.65,-5 0.4,-4.55 4.65,-2.7 m -37.3,-13 q -0.85,0 -1.45,0.65 -0.55,0.65 -0.55,1.55 0,0.9 0.55,1.5 0.6,0.65 1.45,0.65 0.85,0 1.4,-0.65 0.6,-0.6 0.6,-1.5 0,-0.9 -0.6,-1.55 -0.6,-0.65 -1.4,-0.65 M -49,18.7 q 1,8 4.75,9.25 -1.75,6.75 2.5,11 h -21 q -8,-3.5 -7.75,-17.25 0.25,-13.75 7.75,-17 h 18.5 q -5.75,6 -4.75,14"
         id="path1133" />
      <path
         style="fill:none;stroke:#000000;stroke-width:0.25;stroke-linecap:round;stroke-linejoin:round;stroke-miterlimit:3;stroke-opacity:1"
         d="m 14.9,-27.2 0.35,9.35 -5,-3.7 q -1,-9.3 0,-9.65 1,-0.35 4.65,4 m 12.65,12.3 q 1.6,0.4 2.85,1.45 1.25,1.05 1.5,2.25 l 0.65,3.35 q 0.35,2.5 -0.3,4.3 -1,2.7 -4.3,3.7 -3.5,1.1 -5.4,-1.7 -2.3,-7 -0.3,-11.3 1.4,-3.05 5.3,-2.05 m 31.2,9.45 Q 58,-7.75 58,-10.8 q 0,-3.2 0.5,-5.45 0.5,-2.3 1.25,-2.3 0.75,0 1.5,2.3 0.75,2.45 0.75,5.45 0,3.15 -0.5,5.35 -0.55,2.15 -1.25,2.15 -0.8,0 -1.5,-2.15 m -33,14.65 q 3.25,0 3.25,10.9 0,5.8 -0.3,7.75 -0.5,3.1 -2.2,3.1 -1.1,0 -1.9,-3.1 -0.85,-3.2 -0.85,-7.75 0,-5.8 0.25,-7.75 0.4,-3.15 1.75,-3.15 m -27,-13.5 -0.25,9.5 q -5.25,4 -6.5,4.5 -1.25,0.5 -1.25,-13.75 l 8,-0.25 m -9.85,22.05 q 0.7,-0.6 1.65,-0.6 1,0 1.65,0.6 0.7,0.55 0.7,1.4 0,0.8 -0.7,1.4 -0.65,0.6 -1.65,0.6 -0.95,0 -1.65,-0.6 -0.65,-0.55 -0.65,-1.4 0,-0.85 0.65,-1.4 M -41.35,17.1 q 0.6,0.65 0.6,1.55 0,0.9 -0.6,1.5 -0.55,0.65 -1.4,0.65 -0.85,0 -1.45,-0.65 -0.55,-0.6 -0.55,-1.5 0,-0.9 0.55,-1.55 0.6,-0.65 1.45,-0.65 0.8,0 1.4,0.65"
         id="path1135" />
      <path
         style="fill:none;stroke:#000000;stroke-width:1;stroke-linecap:round;stroke-linejoin:round;stroke-miterlimit:3;stroke-opacity:1"
         d="m -41.5,6.55 q 0.1,-1.5 -0.6,-3.1 -1,-2.3 -5,-2 l 6.35,-4.3 v 8.8 M -32.1,-4.5 v 5.45 4.5 q -3,3.35 -7,3 -0.5,0 -0.8,-3.1 l -0.55,-9.9 m -1.05,11.1 -0.25,1.25 h 1 V 5.95"
         id="path1137" />
      <path
         style="fill:none;stroke:#000000;stroke-width:2;stroke-linecap:round;stroke-linejoin:round;stroke-miterlimit:3;stroke-opacity:1"
         d="m -26.4,-4.55 -5.7,0.05 -8.35,-0.05 h -5.85 q -0.65,1.45 -2,2.8 -3.15,3.2 -8.15,3.2 -4.9,0 -6.95,-2.65 -1.4,-1.85 -1.7,-5.65 -0.3,-3.2 2.05,-5.85 2.5,-2.85 6.3,-2.85 4.2,0 7.5,2.3 2.2,1.55 3.05,3.55 l 22.6,-0.1 19.9,0.1 22.9,0.15 h 0.7 v 4.7 H 19.15 L 0.6,-4.7 l -27,0.15 m -19.9,0 -8.8,-0.3 q -1.4,-0.5 -1.55,-2.15 -0.1,-1.6 0.9,-2.2 l 9.55,-0.5"
         id="path1139" />
      <path
         style="fill:none;stroke:#000000;stroke-width:0.5;stroke-linecap:round;stroke-linejoin:round;stroke-miterlimit:3;stroke-opacity:1"
         d="m 36.55,-17.55 -0.3,3.7 q -1.35,-2.7 -3,-3.7 z"
         id="path1141" />
    </g>
    <g
       id="car-31"
       transform="matrix(0.15410021,0,0,0.15410021,45.13673,79.439246)">
      <path
         style="fill:#000000;fill-opacity:1"
         d="m 10.25,-31.2 q -1,0.35 0,9.65 l 5,3.7 -0.35,-9.35 q -3.65,-4.35 -4.65,-4 m 9.65,26.35 v -4.7 h -0.7 q -0.05,-1.85 0.05,-2.3 0.3,-1.7 1.3,-2.7 l -4.3,-1 q -1.35,2.05 -1.7,3.35 -2,-1.65 -3.65,-2 L 3.55,-14.55 Q -0.1,-18.5 -2.1,-18.2 l -4,-0.35 q -2,-3.65 -8.35,-3 -1.35,-12 8.35,-16 7.1,-2.95 13.9,0.35 6.7,3.2 7.45,9.35 0.75,6.3 1,12.3 l 0.3,-3.3 q 5.7,3.3 6.7,2.3 0.7,-0.7 0.1,-1.9 -0.65,-1.1 -1.45,-1.1 l -2.15,-0.1 q -1.3,-0.3 -0.85,-1.55 4.85,-1.1 9,2.35 l 4.45,4.4 q 1.85,2.1 2.2,2.25 l 7.3,1.85 q 6.8,2.05 9.05,5.15 1.9,2.6 2.1,3.5 l 0.25,6.15 q 0,2.7 -18,20 -1.5,-18.9 -4.7,-21.3 -1.3,-1 -6.55,0.05 7.25,0.5 7.75,16 0.3,10 -2.3,14.45 Q 27.9,36.35 25.5,36.7 23.75,36.95 7.75,36.45 4,35.7 2,26.7 0.4,19.45 1.55,12.45 2.75,4.85 6.5,3.45 L 24,3.2 21.9,3.15 q 5,-2.35 0,-2.35 h -10 q 6.3,-1.3 7,-4 l 0.25,-1.65 H 19.9 M 0.6,-4.7 3,-2.3 q 1.15,1.25 2,1.5 1.5,0.5 2,1.75 -3.25,1 -5,2.75 -1.05,1.05 -2.35,6.1 -1.5,6 -1.15,11.15 0.45,7.15 1.3,8.5 -5.6,-3.5 -8.55,-2.5 -2.5,0.9 -3,3.35 L -12,32 q -0.1,0.8 -0.5,0.95 l -7.35,0.5 -8.9,-0.5 q -2.45,-0.6 -6.15,-3.65 -3.65,-3 -4.1,-3.1 L -42.75,25.7 -44.3,24 q -1.05,-1.25 -1.45,-3.05 -0.75,-3.2 -0.05,-6.85 0.7,-3.65 2.55,-5.9 l 1.75,-1.65 q 0.1,-1.5 -0.6,-3.1 -1,-2.3 -5,-2 l 6.35,-4.3 v 8.8 l 0.85,-0.6 q 0.3,3.1 0.8,3.1 4,0.35 7,-3 v -4.5 q 1.9,-1.15 2.85,-2 1.5,-1.3 2.85,-3.5 l 27,-0.15 m -24.2,-5.1 0.6,-1.25 q 2,-7.5 8.25,-7.75 3.05,-0.1 5.35,1.65 l 2.9,3.1 2.55,3.95 0.25,0.4 -19.9,-0.1 m 60.15,-7.75 -0.3,3.7 q -1.35,-2.7 -3,-3.7 h 3.3 m -14.3,4.7 q -2,4.3 0.3,11.3 1.9,2.8 5.4,1.7 3.3,-1 4.3,-3.7 0.65,-1.8 0.3,-4.3 L 31.9,-11.2 q -0.25,-1.2 -1.5,-2.25 -1.25,-1.05 -2.85,-1.45 -3.9,-1 -5.3,2.05 M 60,-25.3 q 2.6,1.9 3.55,12.75 Q 64.5,-2.15 63,0.2 60.4,4.25 57,4.7 56.4,4.75 56.45,3.55 l 0.1,-3.3 q -0.3,-5.6 -5.3,-9.3 -2.95,-2.15 -5.8,-3.05 l -6.7,-1.95 q 0.25,-11.5 5.75,-12.5 l 8.3,-0.85 q 4.45,0.1 7.2,2.1 m 0.25,22 q 0.7,0 1.25,-2.15 0.5,-2.2 0.5,-5.35 0,-3 -0.75,-5.45 -0.75,-2.3 -1.5,-2.3 -0.75,0 -1.25,2.3 -0.5,2.25 -0.5,5.45 0,3.05 0.75,5.35 0.7,2.15 1.5,2.15 m 8.3,-13.55 q 2,1.3 2,4.3 0,6.35 -4.65,5.7 l -0.35,-11 q 2.2,0.5 3,1 M 24,12.35 q -0.25,1.95 -0.25,7.75 0,4.55 0.85,7.75 0.8,3.1 1.9,3.1 1.7,0 2.2,-3.1 Q 29,25.9 29,20.1 29,9.2 25.75,9.2 24.4,9.2 24,12.35 m 14.55,6.45 q 4.6,-3 13.2,-14.85 0.5,-6.75 -2.25,-6.5 l -13.75,9.5 q 1.05,2.65 1.85,8 0.55,4.1 0.95,3.85 M -9.25,-4.05 Q -9.25,10.2 -8,9.7 -6.75,9.2 -1.5,5.2 l 0.25,-9.5 -8,0.25 m -2.5,23.2 q 0,0.85 0.65,1.4 0.7,0.6 1.65,0.6 1,0 1.65,-0.6 0.7,-0.6 0.7,-1.4 0,-0.85 -0.7,-1.4 -0.65,-0.6 -1.65,-0.6 -0.95,0 -1.65,0.6 -0.65,0.55 -0.65,1.4 m -23,13.3 q 1,1 -4,3 -1.75,-0.95 -2.55,-3.45 -0.85,-2.45 0.2,-3.2 1.45,-1.05 3,2 2.35,0.65 3.35,1.65 m 29.3,-3 q 2.35,1 3,1.7 -2,6.3 -5,6 -3,-1.7 -2.65,-5 0.4,-4.55 4.65,-2.7 m -37.3,-13 q -0.85,0 -1.45,0.65 -0.55,0.65 -0.55,1.55 0,0.9 0.55,1.5 0.6,0.65 1.45,0.65 0.85,0 1.4,-0.65 0.6,-0.6 0.6,-1.5 0,-0.9 -0.6,-1.55 -0.6,-0.65 -1.4,-0.65 M -49,18.7 q 1,8 4.75,9.25 -1.75,6.75 2.5,11 h -21 q -8,-3.5 -7.75,-17.25 0.25,-13.75 7.75,-17 h 18.5 q -5.75,6 -4.75,14"
         id="path1133-3" />
      <path
         style="fill:none;stroke:#000000;stroke-width:0.25;stroke-linecap:round;stroke-linejoin:round;stroke-miterlimit:3;stroke-opacity:1"
         d="m 14.9,-27.2 0.35,9.35 -5,-3.7 q -1,-9.3 0,-9.65 1,-0.35 4.65,4 m 12.65,12.3 q 1.6,0.4 2.85,1.45 1.25,1.05 1.5,2.25 l 0.65,3.35 q 0.35,2.5 -0.3,4.3 -1,2.7 -4.3,3.7 -3.5,1.1 -5.4,-1.7 -2.3,-7 -0.3,-11.3 1.4,-3.05 5.3,-2.05 m 31.2,9.45 Q 58,-7.75 58,-10.8 q 0,-3.2 0.5,-5.45 0.5,-2.3 1.25,-2.3 0.75,0 1.5,2.3 0.75,2.45 0.75,5.45 0,3.15 -0.5,5.35 -0.55,2.15 -1.25,2.15 -0.8,0 -1.5,-2.15 m -33,14.65 q 3.25,0 3.25,10.9 0,5.8 -0.3,7.75 -0.5,3.1 -2.2,3.1 -1.1,0 -1.9,-3.1 -0.85,-3.2 -0.85,-7.75 0,-5.8 0.25,-7.75 0.4,-3.15 1.75,-3.15 m -27,-13.5 -0.25,9.5 q -5.25,4 -6.5,4.5 -1.25,0.5 -1.25,-13.75 l 8,-0.25 m -9.85,22.05 q 0.7,-0.6 1.65,-0.6 1,0 1.65,0.6 0.7,0.55 0.7,1.4 0,0.8 -0.7,1.4 -0.65,0.6 -1.65,0.6 -0.95,0 -1.65,-0.6 -0.65,-0.55 -0.65,-1.4 0,-0.85 0.65,-1.4 M -41.35,17.1 q 0.6,0.65 0.6,1.55 0,0.9 -0.6,1.5 -0.55,0.65 -1.4,0.65 -0.85,0 -1.45,-0.65 -0.55,-0.6 -0.55,-1.5 0,-0.9 0.55,-1.55 0.6,-0.65 1.45,-0.65 0.8,0 1.4,0.65"
         id="path1135-7" />
      <path
         style="fill:none;stroke:#000000;stroke-width:1;stroke-linecap:round;stroke-linejoin:round;stroke-miterlimit:3;stroke-opacity:1"
         d="m -41.5,6.55 q 0.1,-1.5 -0.6,-3.1 -1,-2.3 -5,-2 l 6.35,-4.3 v 8.8 M -32.1,-4.5 v 5.45 4.5 q -3,3.35 -7,3 -0.5,0 -0.8,-3.1 l -0.55,-9.9 m -1.05,11.1 -0.25,1.25 h 1 V 5.95"
         id="path1137-3" />
      <path
         style="fill:none;stroke:#000000;stroke-width:2;stroke-linecap:round;stroke-linejoin:round;stroke-miterlimit:3;stroke-opacity:1"
         d="m -26.4,-4.55 -5.7,0.05 -8.35,-0.05 h -5.85 q -0.65,1.45 -2,2.8 -3.15,3.2 -8.15,3.2 -4.9,0 -6.95,-2.65 -1.4,-1.85 -1.7,-5.65 -0.3,-3.2 2.05,-5.85 2.5,-2.85 6.3,-2.85 4.2,0 7.5,2.3 2.2,1.55 3.05,3.55 l 22.6,-0.1 19.9,0.1 22.9,0.15 h 0.7 v 4.7 H 19.15 L 0.6,-4.7 l -27,0.15 m -19.9,0 -8.8,-0.3 q -1.4,-0.5 -1.55,-2.15 -0.1,-1.6 0.9,-2.2 l 9.55,-0.5"
         id="path1139-8" />
      <path
         style="fill:none;stroke:#000000;stroke-width:0.5;stroke-linecap:round;stroke-linejoin:round;stroke-miterlimit:3;stroke-opacity:1"
         d="m 36.55,-17.55 -0.3,3.7 q -1.35,-2.7 -3,-3.7 z"
         id="path1141-9" />
    </g>
    <g
       id="car-21"
       transform="matrix(0.1085376,0,0,0.1085376,62.187044,67.530411)">
      <path
         style="fill:#000000;fill-opacity:1"
         d="m 10.25,-31.2 q -1,0.35 0,9.65 l 5,3.7 -0.35,-9.35 q -3.65,-4.35 -4.65,-4 m 9.65,26.35 v -4.7 h -0.7 q -0.05,-1.85 0.05,-2.3 0.3,-1.7 1.3,-2.7 l -4.3,-1 q -1.35,2.05 -1.7,3.35 -2,-1.65 -3.65,-2 L 3.55,-14.55 Q -0.1,-18.5 -2.1,-18.2 l -4,-0.35 q -2,-3.65 -8.35,-3 -1.35,-12 8.35,-16 7.1,-2.95 13.9,0.35 6.7,3.2 7.45,9.35 0.75,6.3 1,12.3 l 0.3,-3.3 q 5.7,3.3 6.7,2.3 0.7,-0.7 0.1,-1.9 -0.65,-1.1 -1.45,-1.1 l -2.15,-0.1 q -1.3,-0.3 -0.85,-1.55 4.85,-1.1 9,2.35 l 4.45,4.4 q 1.85,2.1 2.2,2.25 l 7.3,1.85 q 6.8,2.05 9.05,5.15 1.9,2.6 2.1,3.5 l 0.25,6.15 q 0,2.7 -18,20 -1.5,-18.9 -4.7,-21.3 -1.3,-1 -6.55,0.05 7.25,0.5 7.75,16 0.3,10 -2.3,14.45 Q 27.9,36.35 25.5,36.7 23.75,36.95 7.75,36.45 4,35.7 2,26.7 0.4,19.45 1.55,12.45 2.75,4.85 6.5,3.45 L 24,3.2 21.9,3.15 q 5,-2.35 0,-2.35 h -10 q 6.3,-1.3 7,-4 l 0.25,-1.65 H 19.9 M 0.6,-4.7 3,-2.3 q 1.15,1.25 2,1.5 1.5,0.5 2,1.75 -3.25,1 -5,2.75 -1.05,1.05 -2.35,6.1 -1.5,6 -1.15,11.15 0.45,7.15 1.3,8.5 -5.6,-3.5 -8.55,-2.5 -2.5,0.9 -3,3.35 L -12,32 q -0.1,0.8 -0.5,0.95 l -7.35,0.5 -8.9,-0.5 q -2.45,-0.6 -6.15,-3.65 -3.65,-3 -4.1,-3.1 L -42.75,25.7 -44.3,24 q -1.05,-1.25 -1.45,-3.05 -0.75,-3.2 -0.05,-6.85 0.7,-3.65 2.55,-5.9 l 1.75,-1.65 q 0.1,-1.5 -0.6,-3.1 -1,-2.3 -5,-2 l 6.35,-4.3 v 8.8 l 0.85,-0.6 q 0.3,3.1 0.8,3.1 4,0.35 7,-3 v -4.5 q 1.9,-1.15 2.85,-2 1.5,-1.3 2.85,-3.5 l 27,-0.15 m -24.2,-5.1 0.6,-1.25 q 2,-7.5 8.25,-7.75 3.05,-0.1 5.35,1.65 l 2.9,3.1 2.55,3.95 0.25,0.4 -19.9,-0.1 m 60.15,-7.75 -0.3,3.7 q -1.35,-2.7 -3,-3.7 h 3.3 m -14.3,4.7 q -2,4.3 0.3,11.3 1.9,2.8 5.4,1.7 3.3,-1 4.3,-3.7 0.65,-1.8 0.3,-4.3 L 31.9,-11.2 q -0.25,-1.2 -1.5,-2.25 -1.25,-1.05 -2.85,-1.45 -3.9,-1 -5.3,2.05 M 60,-25.3 q 2.6,1.9 3.55,12.75 Q 64.5,-2.15 63,0.2 60.4,4.25 57,4.7 56.4,4.75 56.45,3.55 l 0.1,-3.3 q -0.3,-5.6 -5.3,-9.3 -2.95,-2.15 -5.8,-3.05 l -6.7,-1.95 q 0.25,-11.5 5.75,-12.5 l 8.3,-0.85 q 4.45,0.1 7.2,2.1 m 0.25,22 q 0.7,0 1.25,-2.15 0.5,-2.2 0.5,-5.35 0,-3 -0.75,-5.45 -0.75,-2.3 -1.5,-2.3 -0.75,0 -1.25,2.3 -0.5,2.25 -0.5,5.45 0,3.05 0.75,5.35 0.7,2.15 1.5,2.15 m 8.3,-13.55 q 2,1.3 2,4.3 0,6.35 -4.65,5.7 l -0.35,-11 q 2.2,0.5 3,1 M 24,12.35 q -0.25,1.95 -0.25,7.75 0,4.55 0.85,7.75 0.8,3.1 1.9,3.1 1.7,0 2.2,-3.1 Q 29,25.9 29,20.1 29,9.2 25.75,9.2 24.4,9.2 24,12.35 m 14.55,6.45 q 4.6,-3 13.2,-14.85 0.5,-6.75 -2.25,-6.5 l -13.75,9.5 q 1.05,2.65 1.85,8 0.55,4.1 0.95,3.85 M -9.25,-4.05 Q -9.25,10.2 -8,9.7 -6.75,9.2 -1.5,5.2 l 0.25,-9.5 -8,0.25 m -2.5,23.2 q 0,0.85 0.65,1.4 0.7,0.6 1.65,0.6 1,0 1.65,-0.6 0.7,-0.6 0.7,-1.4 0,-0.85 -0.7,-1.4 -0.65,-0.6 -1.65,-0.6 -0.95,0 -1.65,0.6 -0.65,0.55 -0.65,1.4 m -23,13.3 q 1,1 -4,3 -1.75,-0.95 -2.55,-3.45 -0.85,-2.45 0.2,-3.2 1.45,-1.05 3,2 2.35,0.65 3.35,1.65 m 29.3,-3 q 2.35,1 3,1.7 -2,6.3 -5,6 -3,-1.7 -2.65,-5 0.4,-4.55 4.65,-2.7 m -37.3,-13 q -0.85,0 -1.45,0.65 -0.55,0.65 -0.55,1.55 0,0.9 0.55,1.5 0.6,0.65 1.45,0.65 0.85,0 1.4,-0.65 0.6,-0.6 0.6,-1.5 0,-0.9 -0.6,-1.55 -0.6,-0.65 -1.4,-0.65 M -49,18.7 q 1,8 4.75,9.25 -1.75,6.75 2.5,11 h -21 q -8,-3.5 -7.75,-17.25 0.25,-13.75 7.75,-17 h 18.5 q -5.75,6 -4.75,14"
         id="path1133-4" />
      <path
         style="fill:none;stroke:#000000;stroke-width:0.25;stroke-linecap:round;stroke-linejoin:round;stroke-miterlimit:3;stroke-opacity:1"
         d="m 14.9,-27.2 0.35,9.35 -5,-3.7 q -1,-9.3 0,-9.65 1,-0.35 4.65,4 m 12.65,12.3 q 1.6,0.4 2.85,1.45 1.25,1.05 1.5,2.25 l 0.65,3.35 q 0.35,2.5 -0.3,4.3 -1,2.7 -4.3,3.7 -3.5,1.1 -5.4,-1.7 -2.3,-7 -0.3,-11.3 1.4,-3.05 5.3,-2.05 m 31.2,9.45 Q 58,-7.75 58,-10.8 q 0,-3.2 0.5,-5.45 0.5,-2.3 1.25,-2.3 0.75,0 1.5,2.3 0.75,2.45 0.75,5.45 0,3.15 -0.5,5.35 -0.55,2.15 -1.25,2.15 -0.8,0 -1.5,-2.15 m -33,14.65 q 3.25,0 3.25,10.9 0,5.8 -0.3,7.75 -0.5,3.1 -2.2,3.1 -1.1,0 -1.9,-3.1 -0.85,-3.2 -0.85,-7.75 0,-5.8 0.25,-7.75 0.4,-3.15 1.75,-3.15 m -27,-13.5 -0.25,9.5 q -5.25,4 -6.5,4.5 -1.25,0.5 -1.25,-13.75 l 8,-0.25 m -9.85,22.05 q 0.7,-0.6 1.65,-0.6 1,0 1.65,0.6 0.7,0.55 0.7,1.4 0,0.8 -0.7,1.4 -0.65,0.6 -1.65,0.6 -0.95,0 -1.65,-0.6 -0.65,-0.55 -0.65,-1.4 0,-0.85 0.65,-1.4 M -41.35,17.1 q 0.6,0.65 0.6,1.55 0,0.9 -0.6,1.5 -0.55,0.65 -1.4,0.65 -0.85,0 -1.45,-0.65 -0.55,-0.6 -0.55,-1.5 0,-0.9 0.55,-1.55 0.6,-0.65 1.45,-0.65 0.8,0 1.4,0.65"
         id="path1135-2" />
      <path
         style="fill:none;stroke:#000000;stroke-width:1;stroke-linecap:round;stroke-linejoin:round;stroke-miterlimit:3;stroke-opacity:1"
         d="m -41.5,6.55 q 0.1,-1.5 -0.6,-3.1 -1,-2.3 -5,-2 l 6.35,-4.3 v 8.8 M -32.1,-4.5 v 5.45 4.5 q -3,3.35 -7,3 -0.5,0 -0.8,-3.1 l -0.55,-9.9 m -1.05,11.1 -0.25,1.25 h 1 V 5.95"
         id="path1137-6" />
      <path
         style="fill:none;stroke:#000000;stroke-width:2;stroke-linecap:round;stroke-linejoin:round;stroke-miterlimit:3;stroke-opacity:1"
         d="m -26.4,-4.55 -5.7,0.05 -8.35,-0.05 h -5.85 q -0.65,1.45 -2,2.8 -3.15,3.2 -8.15,3.2 -4.9,0 -6.95,-2.65 -1.4,-1.85 -1.7,-5.65 -0.3,-3.2 2.05,-5.85 2.5,-2.85 6.3,-2.85 4.2,0 7.5,2.3 2.2,1.55 3.05,3.55 l 22.6,-0.1 19.9,0.1 22.9,0.15 h 0.7 v 4.7 H 19.15 L 0.6,-4.7 l -27,0.15 m -19.9,0 -8.8,-0.3 q -1.4,-0.5 -1.55,-2.15 -0.1,-1.6 0.9,-2.2 l 9.55,-0.5"
         id="path1139-7" />
      <path
         style="fill:none;stroke:#000000;stroke-width:0.5;stroke-linecap:round;stroke-linejoin:round;stroke-miterlimit:3;stroke-opacity:1"
         d="m 36.55,-17.55 -0.3,3.7 q -1.35,-2.7 -3,-3.7 z"
         id="path1141-8" />
    </g>
    <g
       id="car-22"
       transform="matrix(0.1077655,0,0,0.1077655,80.264973,67.687751)">
      <path
         style="fill:#000000;fill-opacity:1"
         d="m 10.25,-31.2 q -1,0.35 0,9.65 l 5,3.7 -0.35,-9.35 q -3.65,-4.35 -4.65,-4 m 9.65,26.35 v -4.7 h -0.7 q -0.05,-1.85 0.05,-2.3 0.3,-1.7 1.3,-2.7 l -4.3,-1 q -1.35,2.05 -1.7,3.35 -2,-1.65 -3.65,-2 L 3.55,-14.55 Q -0.1,-18.5 -2.1,-18.2 l -4,-0.35 q -2,-3.65 -8.35,-3 -1.35,-12 8.35,-16 7.1,-2.95 13.9,0.35 6.7,3.2 7.45,9.35 0.75,6.3 1,12.3 l 0.3,-3.3 q 5.7,3.3 6.7,2.3 0.7,-0.7 0.1,-1.9 -0.65,-1.1 -1.45,-1.1 l -2.15,-0.1 q -1.3,-0.3 -0.85,-1.55 4.85,-1.1 9,2.35 l 4.45,4.4 q 1.85,2.1 2.2,2.25 l 7.3,1.85 q 6.8,2.05 9.05,5.15 1.9,2.6 2.1,3.5 l 0.25,6.15 q 0,2.7 -18,20 -1.5,-18.9 -4.7,-21.3 -1.3,-1 -6.55,0.05 7.25,0.5 7.75,16 0.3,10 -2.3,14.45 Q 27.9,36.35 25.5,36.7 23.75,36.95 7.75,36.45 4,35.7 2,26.7 0.4,19.45 1.55,12.45 2.75,4.85 6.5,3.45 L 24,3.2 21.9,3.15 q 5,-2.35 0,-2.35 h -10 q 6.3,-1.3 7,-4 l 0.25,-1.65 H 19.9 M 0.6,-4.7 3,-2.3 q 1.15,1.25 2,1.5 1.5,0.5 2,1.75 -3.25,1 -5,2.75 -1.05,1.05 -2.35,6.1 -1.5,6 -1.15,11.15 0.45,7.15 1.3,8.5 -5.6,-3.5 -8.55,-2.5 -2.5,0.9 -3,3.35 L -12,32 q -0.1,0.8 -0.5,0.95 l -7.35,0.5 -8.9,-0.5 q -2.45,-0.6 -6.15,-3.65 -3.65,-3 -4.1,-3.1 L -42.75,25.7 -44.3,24 q -1.05,-1.25 -1.45,-3.05 -0.75,-3.2 -0.05,-6.85 0.7,-3.65 2.55,-5.9 l 1.75,-1.65 q 0.1,-1.5 -0.6,-3.1 -1,-2.3 -5,-2 l 6.35,-4.3 v 8.8 l 0.85,-0.6 q 0.3,3.1 0.8,3.1 4,0.35 7,-3 v -4.5 q 1.9,-1.15 2.85,-2 1.5,-1.3 2.85,-3.5 l 27,-0.15 m -24.2,-5.1 0.6,-1.25 q 2,-7.5 8.25,-7.75 3.05,-0.1 5.35,1.65 l 2.9,3.1 2.55,3.95 0.25,0.4 -19.9,-0.1 m 60.15,-7.75 -0.3,3.7 q -1.35,-2.7 -3,-3.7 h 3.3 m -14.3,4.7 q -2,4.3 0.3,11.3 1.9,2.8 5.4,1.7 3.3,-1 4.3,-3.7 0.65,-1.8 0.3,-4.3 L 31.9,-11.2 q -0.25,-1.2 -1.5,-2.25 -1.25,-1.05 -2.85,-1.45 -3.9,-1 -5.3,2.05 M 60,-25.3 q 2.6,1.9 3.55,12.75 Q 64.5,-2.15 63,0.2 60.4,4.25 57,4.7 56.4,4.75 56.45,3.55 l 0.1,-3.3 q -0.3,-5.6 -5.3,-9.3 -2.95,-2.15 -5.8,-3.05 l -6.7,-1.95 q 0.25,-11.5 5.75,-12.5 l 8.3,-0.85 q 4.45,0.1 7.2,2.1 m 0.25,22 q 0.7,0 1.25,-2.15 0.5,-2.2 0.5,-5.35 0,-3 -0.75,-5.45 -0.75,-2.3 -1.5,-2.3 -0.75,0 -1.25,2.3 -0.5,2.25 -0.5,5.45 0,3.05 0.75,5.35 0.7,2.15 1.5,2.15 m 8.3,-13.55 q 2,1.3 2,4.3 0,6.35 -4.65,5.7 l -0.35,-11 q 2.2,0.5 3,1 M 24,12.35 q -0.25,1.95 -0.25,7.75 0,4.55 0.85,7.75 0.8,3.1 1.9,3.1 1.7,0 2.2,-3.1 Q 29,25.9 29,20.1 29,9.2 25.75,9.2 24.4,9.2 24,12.35 m 14.55,6.45 q 4.6,-3 13.2,-14.85 0.5,-6.75 -2.25,-6.5 l -13.75,9.5 q 1.05,2.65 1.85,8 0.55,4.1 0.95,3.85 M -9.25,-4.05 Q -9.25,10.2 -8,9.7 -6.75,9.2 -1.5,5.2 l 0.25,-9.5 -8,0.25 m -2.5,23.2 q 0,0.85 0.65,1.4 0.7,0.6 1.65,0.6 1,0 1.65,-0.6 0.7,-0.6 0.7,-1.4 0,-0.85 -0.7,-1.4 -0.65,-0.6 -1.65,-0.6 -0.95,0 -1.65,0.6 -0.65,0.55 -0.65,1.4 m -23,13.3 q 1,1 -4,3 -1.75,-0.95 -2.55,-3.45 -0.85,-2.45 0.2,-3.2 1.45,-1.05 3,2 2.35,0.65 3.35,1.65 m 29.3,-3 q 2.35,1 3,1.7 -2,6.3 -5,6 -3,-1.7 -2.65,-5 0.4,-4.55 4.65,-2.7 m -37.3,-13 q -0.85,0 -1.45,0.65 -0.55,0.65 -0.55,1.55 0,0.9 0.55,1.5 0.6,0.65 1.45,0.65 0.85,0 1.4,-0.65 0.6,-0.6 0.6,-1.5 0,-0.9 -0.6,-1.55 -0.6,-0.65 -1.4,-0.65 M -49,18.7 q 1,8 4.75,9.25 -1.75,6.75 2.5,11 h -21 q -8,-3.5 -7.75,-17.25 0.25,-13.75 7.75,-17 h 18.5 q -5.75,6 -4.75,14"
         id="path1133-4-7" />
      <path
         style="fill:none;stroke:#000000;stroke-width:0.25;stroke-linecap:round;stroke-linejoin:round;stroke-miterlimit:3;stroke-opacity:1"
         d="m 14.9,-27.2 0.35,9.35 -5,-3.7 q -1,-9.3 0,-9.65 1,-0.35 4.65,4 m 12.65,12.3 q 1.6,0.4 2.85,1.45 1.25,1.05 1.5,2.25 l 0.65,3.35 q 0.35,2.5 -0.3,4.3 -1,2.7 -4.3,3.7 -3.5,1.1 -5.4,-1.7 -2.3,-7 -0.3,-11.3 1.4,-3.05 5.3,-2.05 m 31.2,9.45 Q 58,-7.75 58,-10.8 q 0,-3.2 0.5,-5.45 0.5,-2.3 1.25,-2.3 0.75,0 1.5,2.3 0.75,2.45 0.75,5.45 0,3.15 -0.5,5.35 -0.55,2.15 -1.25,2.15 -0.8,0 -1.5,-2.15 m -33,14.65 q 3.25,0 3.25,10.9 0,5.8 -0.3,7.75 -0.5,3.1 -2.2,3.1 -1.1,0 -1.9,-3.1 -0.85,-3.2 -0.85,-7.75 0,-5.8 0.25,-7.75 0.4,-3.15 1.75,-3.15 m -27,-13.5 -0.25,9.5 q -5.25,4 -6.5,4.5 -1.25,0.5 -1.25,-13.75 l 8,-0.25 m -9.85,22.05 q 0.7,-0.6 1.65,-0.6 1,0 1.65,0.6 0.7,0.55 0.7,1.4 0,0.8 -0.7,1.4 -0.65,0.6 -1.65,0.6 -0.95,0 -1.65,-0.6 -0.65,-0.55 -0.65,-1.4 0,-0.85 0.65,-1.4 M -41.35,17.1 q 0.6,0.65 0.6,1.55 0,0.9 -0.6,1.5 -0.55,0.65 -1.4,0.65 -0.85,0 -1.45,-0.65 -0.55,-0.6 -0.55,-1.5 0,-0.9 0.55,-1.55 0.6,-0.65 1.45,-0.65 0.8,0 1.4,0.65"
         id="path1135-2-7" />
      <path
         style="fill:none;stroke:#000000;stroke-width:1;stroke-linecap:round;stroke-linejoin:round;stroke-miterlimit:3;stroke-opacity:1"
         d="m -41.5,6.55 q 0.1,-1.5 -0.6,-3.1 -1,-2.3 -5,-2 l 6.35,-4.3 v 8.8 M -32.1,-4.5 v 5.45 4.5 q -3,3.35 -7,3 -0.5,0 -0.8,-3.1 l -0.55,-9.9 m -1.05,11.1 -0.25,1.25 h 1 V 5.95"
         id="path1137-6-7" />
      <path
         style="fill:none;stroke:#000000;stroke-width:2;stroke-linecap:round;stroke-linejoin:round;stroke-miterlimit:3;stroke-opacity:1"
         d="m -26.4,-4.55 -5.7,0.05 -8.35,-0.05 h -5.85 q -0.65,1.45 -2,2.8 -3.15,3.2 -8.15,3.2 -4.9,0 -6.95,-2.65 -1.4,-1.85 -1.7,-5.65 -0.3,-3.2 2.05,-5.85 2.5,-2.85 6.3,-2.85 4.2,0 7.5,2.3 2.2,1.55 3.05,3.55 l 22.6,-0.1 19.9,0.1 22.9,0.15 h 0.7 v 4.7 H 19.15 L 0.6,-4.7 l -27,0.15 m -19.9,0 -8.8,-0.3 q -1.4,-0.5 -1.55,-2.15 -0.1,-1.6 0.9,-2.2 l 9.55,-0.5"
         id="path1139-7-7" />
      <path
         style="fill:none;stroke:#000000;stroke-width:0.5;stroke-linecap:round;stroke-linejoin:round;stroke-miterlimit:3;stroke-opacity:1"
         d="m 36.55,-17.55 -0.3,3.7 q -1.35,-2.7 -3,-3.7 z"
         id="path1141-8-9" />
    </g>
    <g
       id="car-42"
       transform="matrix(0.21416,0,0,0.21416,69.097517,95.432083)">
      <path
         style="fill:#000000;fill-opacity:1"
         d="m 38.15,-2.25 q 1.4,2.1 2.25,1.85 l 0.3,-0.2 0.1,0.45 q 0,1.5 -2.05,1.2 -10.15,0 -12.5,1.2 -1.45,0.7 -1.1,9.95 l 0.5,10 q -0.25,0.9 -1.85,2.95 -1.7,2.1 -2.35,2.1 l -0.7,-0.75 -1,-1.5 Q 18.15,22.9 15.8,23.65 11.95,24.85 11.95,29.9 -5,30.2 -7.4,29.9 -8.2,29.8 -8.6,28.95 L -9.25,27.1 q -0.85,-2.65 -3.2,-2.85 -3.6,-0.3 -3.9,3 -3.85,-3 -4.75,-5.05 -0.4,-0.95 -0.65,-8.8 Q -21.95,6 -22.6,5.5 -24.55,4 -38.35,4 q -1.8,0 0.9,-5.05 -1.5,-1.8 -2.1,-0.9 l -1.2,2.7 -2.65,-1.8 -1.8,3.3 q -1.05,2.1 -3.35,2.3 -2.55,0.25 -3.8,-2.6 -1.65,-3.85 -1.2,-10 0.45,-7.2 4.45,-7.6 1.9,-0.2 3.15,1 l 1.35,1.7 q 0.6,0.6 0.6,-9.25 -1.2,-2.65 2.65,-2.95 l 8.7,0.15 8,0.45 q 0.7,0.2 0.9,1.45 l 0.25,2.1 q 0.3,1.2 -0.25,7.45 -10.45,2.4 -11.35,5.95 l -0.15,1.05 -9.65,0.15 q -0.3,-7.55 -4.2,-5.95 -2.45,1.05 -2.35,6.8 0.1,5.45 1.8,7 3.25,3.15 4.75,-4.6 L 37.3,-4.2 q 0.2,0.95 0.85,1.95 M 38.35,-7.8 -8.6,-7 q 1.8,-13.4 9.85,-13.4 4.6,0 7.95,5.5 2.05,3.35 3.05,7.3 l 9.2,-0.3 q -0.55,-1.5 0.6,-2.05 l 2.8,-0.15 q 1.85,0.25 2.6,0.7 0.85,0.6 2.9,0.95 2.25,0.45 2.45,-0.35 0.25,-0.95 -1.25,-2.55 -1.55,-1.7 -3.25,-1.9 l -2.75,-0.4 q -1,-0.2 -1.4,-0.8 -0.65,-0.95 -0.8,-5.1 -0.15,-4.75 1.4,-5.9 1.65,-1.25 10.15,-0.85 8.1,0.35 9.2,1.15 1.2,0.9 0.9,9.8 3.85,-2.35 6.25,-0.3 0.85,0.8 1.55,3.5 0.7,2.7 0.85,5.75 0.35,7.75 -2.7,8.35 -2.1,0.4 -3.6,-0.7 l -2.05,-2 q -1.2,-1.2 -3.3,-0.9 l -0.8,-2.6 4.7,-0.05 q 0.25,4.45 3.85,4.45 0.95,0 1.45,-2.25 0.5,-2.1 0.35,-5 -0.1,-2.95 -0.75,-4.9 -0.75,-2.25 -1.95,-2.15 Q 45,-13.85 45,-7.9 l -4.95,0.1 -0.4,-1.3 -1.3,1.3 m -57.05,1 -14.25,0.2 q 0.75,-0.5 1.75,-1.3 3.25,-2.05 11,-2.95 1.8,-3.6 4.15,-4.5 2.4,-0.85 5.95,0 3.6,-3.55 3.3,-2.65 -0.3,0.9 -1.8,2.65 l -1.8,1.8 -5.05,-0.3 -1.65,1.55 q -1,1.1 -1,2.05 0,1.45 -0.6,2.95 v 0.5 m 18.45,-31.15 q 10,0 12.55,9.95 0.9,3.35 0.6,6.75 -0.25,3.1 -0.95,2.95 l -1.15,-1 -1.65,-1.95 q -2.95,-2.7 -8.2,-2.7 -5.1,0 -6.85,3.85 -3,0 -3.9,1.2 -1.4,1.9 -0.85,2.7 -1.5,0.85 -2.7,-1.8 -0.3,-0.65 -0.45,-3.35 -0.2,-3.7 0.55,-6.85 2.35,-9.75 13,-9.75 m -16.7,34.55 q -0.55,12.5 0.3,12.8 0.9,0.25 2.4,0 l 0.3,-12.55 -3,-0.25 m 4.95,1.15 q -0.75,0 -0.75,1.5 0,1.2 0.75,1.5 1.35,0.6 1.35,-1.8 0,-1.2 -1.35,-1.2 m 23.95,-12.5 q -2.4,-1.2 -0.9,-2.45 1.4,-1.1 3.6,-1.1 1.6,0 3.65,1.65 1.75,1.4 2.6,2.8 0.85,1.5 -0.3,3.6 -0.9,0.3 -1.5,-1.5 -0.95,-2.95 -3.9,-3.9 -1.75,-0.55 -3.25,0.9 m 2.7,13.25 q 0,1.65 1.15,1.65 1.2,0 1.2,-1.65 0,-1.65 -1.2,-1.65 -1.15,0 -1.15,1.65 m 4.45,-2.2 q 0,8.6 0.3,10.4 0.25,1.35 1.35,1.5 1.1,0.15 1.3,-1.2 0.4,-2.15 0,-10.4 L 19.1,-3.7 M 52.75,33 q 0,0.8 -0.6,1.4 -0.55,0.6 -1.4,0.6 h -21 Q 28.9,35 28.3,34.4 27.75,33.85 27.75,33 V 6.6 q 0,-0.85 0.55,-1.4 0.6,-0.6 1.45,-0.6 l 9.9,-0.6 11.1,0.6 q 0.85,0 1.4,0.6 0.6,0.55 0.6,1.4 V 33 M 21.05,15.95 q -0.75,-0.6 -1.8,-0.6 -1.05,0 -1.8,0.6 -0.75,0.6 -0.75,1.45 0,0.85 0.75,1.5 0.75,0.6 1.8,0.6 1.05,0 1.8,-0.6 0.7,-0.65 0.7,-1.5 0,-0.85 -0.7,-1.45 M 15.4,27.2 q 0.7,-1.15 1.75,-1.15 1.05,0 1.8,1.15 0.75,1.1 0.75,2.7 0,1.6 -0.75,2.75 -0.75,1.15 -1.8,1.15 -1.05,0 -1.75,-1.15 -0.75,-1.15 -0.75,-2.75 0,-1.6 0.75,-2.7 M -12,15.65 q -0.75,-0.6 -1.8,-0.6 -1.05,0 -1.8,0.6 -0.75,0.6 -0.75,1.45 0,0.9 0.85,1.65 0.8,0.75 1.85,0.75 1,0 1.75,-0.75 0.65,-0.75 0.65,-1.65 0,-0.85 -0.75,-1.45 M -24.35,9.6 v 26.35 q 0,0.8 -0.6,1.4 -0.55,0.6 -1.4,0.6 l -22.2,-0.3 q -0.8,0 -1.4,-0.6 -0.6,-0.6 -0.6,-1.4 l -0.3,-26 q 0,-0.85 0.75,-1.6 0.75,-0.75 1.55,-0.75 l 22.2,0.3 q 0.85,0 1.4,0.6 0.6,0.55 0.6,1.4 m 10.15,18.15 q 0.65,-1.1 1.6,-1.1 0.9,0 1.55,1.1 0.65,1.15 0.65,2.75 0,1.6 -0.65,2.75 -0.65,1.15 -1.55,1.15 -0.95,0 -1.6,-1.15 -0.65,-1.15 -0.65,-2.75 0,-1.6 0.65,-2.75"
         id="path1251" />
      <path
         style="fill:none;stroke:#000000;stroke-width:0.25;stroke-linecap:round;stroke-linejoin:round;stroke-miterlimit:3;stroke-opacity:1"
         d="m -35.25,-6.55 -9.65,0.15 q -0.3,-7.55 -4.2,-5.95 -2.45,1.05 -2.35,6.8 0.1,5.45 1.8,7 3.25,3.15 4.75,-4.6 l 82.2,-1.05 3.9,-0.05 4.7,-0.05 q 0.25,4.45 3.85,4.45 0.95,0 1.45,-2.25 0.5,-2.1 0.35,-5 -0.1,-2.95 -0.75,-4.9 -0.75,-2.25 -1.95,-2.15 Q 45,-13.85 45,-7.9 l -4.95,0.1 h -1.7 L -8.6,-7 l -10.1,0.2 -14.25,0.2 z"
         id="path1253" />
    </g>
    <g
       id="car-33"
       transform="matrix(0.15552497,0,0,0.15552497,98.044696,79.326211)">
      <path
         style="fill:#000000;fill-opacity:1"
         d="m 38.15,-2.25 q 1.4,2.1 2.25,1.85 l 0.3,-0.2 0.1,0.45 q 0,1.5 -2.05,1.2 -10.15,0 -12.5,1.2 -1.45,0.7 -1.1,9.95 l 0.5,10 q -0.25,0.9 -1.85,2.95 -1.7,2.1 -2.35,2.1 l -0.7,-0.75 -1,-1.5 Q 18.15,22.9 15.8,23.65 11.95,24.85 11.95,29.9 -5,30.2 -7.4,29.9 -8.2,29.8 -8.6,28.95 L -9.25,27.1 q -0.85,-2.65 -3.2,-2.85 -3.6,-0.3 -3.9,3 -3.85,-3 -4.75,-5.05 -0.4,-0.95 -0.65,-8.8 Q -21.95,6 -22.6,5.5 -24.55,4 -38.35,4 q -1.8,0 0.9,-5.05 -1.5,-1.8 -2.1,-0.9 l -1.2,2.7 -2.65,-1.8 -1.8,3.3 q -1.05,2.1 -3.35,2.3 -2.55,0.25 -3.8,-2.6 -1.65,-3.85 -1.2,-10 0.45,-7.2 4.45,-7.6 1.9,-0.2 3.15,1 l 1.35,1.7 q 0.6,0.6 0.6,-9.25 -1.2,-2.65 2.65,-2.95 l 8.7,0.15 8,0.45 q 0.7,0.2 0.9,1.45 l 0.25,2.1 q 0.3,1.2 -0.25,7.45 -10.45,2.4 -11.35,5.95 l -0.15,1.05 -9.65,0.15 q -0.3,-7.55 -4.2,-5.95 -2.45,1.05 -2.35,6.8 0.1,5.45 1.8,7 3.25,3.15 4.75,-4.6 L 37.3,-4.2 q 0.2,0.95 0.85,1.95 M 38.35,-7.8 -8.6,-7 q 1.8,-13.4 9.85,-13.4 4.6,0 7.95,5.5 2.05,3.35 3.05,7.3 l 9.2,-0.3 q -0.55,-1.5 0.6,-2.05 l 2.8,-0.15 q 1.85,0.25 2.6,0.7 0.85,0.6 2.9,0.95 2.25,0.45 2.45,-0.35 0.25,-0.95 -1.25,-2.55 -1.55,-1.7 -3.25,-1.9 l -2.75,-0.4 q -1,-0.2 -1.4,-0.8 -0.65,-0.95 -0.8,-5.1 -0.15,-4.75 1.4,-5.9 1.65,-1.25 10.15,-0.85 8.1,0.35 9.2,1.15 1.2,0.9 0.9,9.8 3.85,-2.35 6.25,-0.3 0.85,0.8 1.55,3.5 0.7,2.7 0.85,5.75 0.35,7.75 -2.7,8.35 -2.1,0.4 -3.6,-0.7 l -2.05,-2 q -1.2,-1.2 -3.3,-0.9 l -0.8,-2.6 4.7,-0.05 q 0.25,4.45 3.85,4.45 0.95,0 1.45,-2.25 0.5,-2.1 0.35,-5 -0.1,-2.95 -0.75,-4.9 -0.75,-2.25 -1.95,-2.15 Q 45,-13.85 45,-7.9 l -4.95,0.1 -0.4,-1.3 -1.3,1.3 m -57.05,1 -14.25,0.2 q 0.75,-0.5 1.75,-1.3 3.25,-2.05 11,-2.95 1.8,-3.6 4.15,-4.5 2.4,-0.85 5.95,0 3.6,-3.55 3.3,-2.65 -0.3,0.9 -1.8,2.65 l -1.8,1.8 -5.05,-0.3 -1.65,1.55 q -1,1.1 -1,2.05 0,1.45 -0.6,2.95 v 0.5 m 18.45,-31.15 q 10,0 12.55,9.95 0.9,3.35 0.6,6.75 -0.25,3.1 -0.95,2.95 l -1.15,-1 -1.65,-1.95 q -2.95,-2.7 -8.2,-2.7 -5.1,0 -6.85,3.85 -3,0 -3.9,1.2 -1.4,1.9 -0.85,2.7 -1.5,0.85 -2.7,-1.8 -0.3,-0.65 -0.45,-3.35 -0.2,-3.7 0.55,-6.85 2.35,-9.75 13,-9.75 m -16.7,34.55 q -0.55,12.5 0.3,12.8 0.9,0.25 2.4,0 l 0.3,-12.55 -3,-0.25 m 4.95,1.15 q -0.75,0 -0.75,1.5 0,1.2 0.75,1.5 1.35,0.6 1.35,-1.8 0,-1.2 -1.35,-1.2 m 23.95,-12.5 q -2.4,-1.2 -0.9,-2.45 1.4,-1.1 3.6,-1.1 1.6,0 3.65,1.65 1.75,1.4 2.6,2.8 0.85,1.5 -0.3,3.6 -0.9,0.3 -1.5,-1.5 -0.95,-2.95 -3.9,-3.9 -1.75,-0.55 -3.25,0.9 m 2.7,13.25 q 0,1.65 1.15,1.65 1.2,0 1.2,-1.65 0,-1.65 -1.2,-1.65 -1.15,0 -1.15,1.65 m 4.45,-2.2 q 0,8.6 0.3,10.4 0.25,1.35 1.35,1.5 1.1,0.15 1.3,-1.2 0.4,-2.15 0,-10.4 L 19.1,-3.7 M 52.75,33 q 0,0.8 -0.6,1.4 -0.55,0.6 -1.4,0.6 h -21 Q 28.9,35 28.3,34.4 27.75,33.85 27.75,33 V 6.6 q 0,-0.85 0.55,-1.4 0.6,-0.6 1.45,-0.6 l 9.9,-0.6 11.1,0.6 q 0.85,0 1.4,0.6 0.6,0.55 0.6,1.4 V 33 M 21.05,15.95 q -0.75,-0.6 -1.8,-0.6 -1.05,0 -1.8,0.6 -0.75,0.6 -0.75,1.45 0,0.85 0.75,1.5 0.75,0.6 1.8,0.6 1.05,0 1.8,-0.6 0.7,-0.65 0.7,-1.5 0,-0.85 -0.7,-1.45 M 15.4,27.2 q 0.7,-1.15 1.75,-1.15 1.05,0 1.8,1.15 0.75,1.1 0.75,2.7 0,1.6 -0.75,2.75 -0.75,1.15 -1.8,1.15 -1.05,0 -1.75,-1.15 -0.75,-1.15 -0.75,-2.75 0,-1.6 0.75,-2.7 M -12,15.65 q -0.75,-0.6 -1.8,-0.6 -1.05,0 -1.8,0.6 -0.75,0.6 -0.75,1.45 0,0.9 0.85,1.65 0.8,0.75 1.85,0.75 1,0 1.75,-0.75 0.65,-0.75 0.65,-1.65 0,-0.85 -0.75,-1.45 M -24.35,9.6 v 26.35 q 0,0.8 -0.6,1.4 -0.55,0.6 -1.4,0.6 l -22.2,-0.3 q -0.8,0 -1.4,-0.6 -0.6,-0.6 -0.6,-1.4 l -0.3,-26 q 0,-0.85 0.75,-1.6 0.75,-0.75 1.55,-0.75 l 22.2,0.3 q 0.85,0 1.4,0.6 0.6,0.55 0.6,1.4 m 10.15,18.15 q 0.65,-1.1 1.6,-1.1 0.9,0 1.55,1.1 0.65,1.15 0.65,2.75 0,1.6 -0.65,2.75 -0.65,1.15 -1.55,1.15 -0.95,0 -1.6,-1.15 -0.65,-1.15 -0.65,-2.75 0,-1.6 0.65,-2.75"
         id="path1251-3" />
      <path
         style="fill:none;stroke:#000000;stroke-width:0.25;stroke-linecap:round;stroke-linejoin:round;stroke-miterlimit:3;stroke-opacity:1"
         d="m -35.25,-6.55 -9.65,0.15 q -0.3,-7.55 -4.2,-5.95 -2.45,1.05 -2.35,6.8 0.1,5.45 1.8,7 3.25,3.15 4.75,-4.6 l 82.2,-1.05 3.9,-0.05 4.7,-0.05 q 0.25,4.45 3.85,4.45 0.95,0 1.45,-2.25 0.5,-2.1 0.35,-5 -0.1,-2.95 -0.75,-4.9 -0.75,-2.25 -1.95,-2.15 Q 45,-13.85 45,-7.9 l -4.95,0.1 h -1.7 L -8.6,-7 l -10.1,0.2 -14.25,0.2 z"
         id="path1253-9" />
    </g>
    <g
       id="car-43"
       transform="matrix(0.20565324,0,0,0.20565324,102.39361,95.502128)">
      <path
         style="fill:#000000;fill-opacity:1"
         d="m -44.6,-27.05 q 8.35,0.3 9.85,1.3 1.1,0.7 1.45,3.85 0.35,3.05 -0.45,3.65 l -2.4,1.45 q -1.7,1.05 -1.85,1.8 -0.65,3.3 0.75,2.75 l 2.55,-1.55 q 1.9,-1.05 3.45,-0.45 0.65,0.25 1.25,1.85 0.65,1.65 1.25,1.9 l 1.85,0.25 q -1,-0.1 -0.6,-0.5 0.7,-0.7 -0.25,-3.5 -2.25,-1.25 -2,-2.75 0.2,-1.15 2.1,-3.45 1.95,-2.3 3.4,-3.05 2.5,-1.25 3.5,0 -1.5,3.5 -3,4.5 -2.25,1.5 -2.25,3.25 l -0.25,5.5 h -0.35 l 7.35,0.15 q 8.55,0.05 8.9,-0.15 2.8,-12.65 10.85,-12.65 4.4,0 8.3,5.05 l 2.65,3.95 1.85,2.85 q 2.45,1.25 3.2,0.05 0.35,-0.55 -0.6,-1.8 l -2.1,-2.95 q -0.9,-1.75 0,-4.55 0.8,-2.5 2.2,-3.75 l 9.25,-0.65 q 8.55,0.2 9.75,1.45 1.1,1.2 1.25,3.05 l -0.1,3.15 q -0.45,6 1,6 l 3.05,-0.05 q 2.25,-0.15 2.55,-0.9 1.15,-2.7 2.1,-3.8 2.45,-2.95 6.4,-2.95 3.3,0 4.65,4 1.15,3.4 0.6,8 Q 55.25,2.5 50,2.5 44.5,2.5 42.5,-5 l -19,0.75 q -1,11.25 0,12 1,0.75 1.85,2 0.7,4.05 -0.2,8.15 l -1.15,3.85 -1.3,3.2 q -1.15,2.3 -1.7,2.3 L 20.55,26.75 20.1,25.7 q -0.8,-1.3 -3.1,-0.6 -2.25,0.7 -3.35,3.25 l -0.7,1.9 -0.95,1.35 -8.5,0.6 -9,-0.45 q -0.75,-0.1 -1.05,-1.1 L -6.9,28.5 q -0.55,-3.15 -3.45,-3.25 -3.6,-0.1 -4.65,2.8 -2.95,-4 -3.85,-6.1 -0.35,-0.85 -1.35,-7.8 -0.9,-6.4 -1.55,-6.9 l -1.55,-1.4 q -0.6,-1.6 1.45,-1.6 1.75,0 1.9,-0.65 l 0.1,-1.65 q 0.45,-1.15 2.15,-1.85 0.6,-0.2 1.15,-2.55 0.55,-2.5 -0.65,-2.95 L -21.8,-6 q -3.25,-0.05 -3.7,0.75 -0.55,0.95 -0.05,2.3 0.5,1.4 1.85,2.4 1.2,0.85 1.15,1.5 -0.1,0.5 -0.65,0.65 l -19.3,0.9 -7,0.5 q -3.5,6.25 -4.5,10.25 -0.75,-7 2.25,-12.25 2.1,-3.65 2.25,-3.05 0.55,-3.75 -1.5,-2.95 -1.8,0.75 -2.7,2.85 L -54.75,0 q -0.9,0.3 -1.7,-2 -0.8,-2.35 -1.05,-6.25 -0.35,-4.85 0.35,-10 0.7,-5.5 2.15,-7.25 1.5,-1.85 10.4,-1.55 m 0.35,8.3 q -1.75,-0.1 -2.9,2.95 -1.1,2.9 -1.1,7.05 0,9.75 3.85,10 2.35,0.15 3.25,-2.55 0.65,-2.05 0.65,-6.7 0,-5.05 -0.55,-7.25 -0.85,-3.35 -3.2,-3.5 m -10.95,2.45 q -0.65,2.2 -0.65,5.05 0,6.2 1.35,6.2 0.75,0 1.35,-1.6 0.65,-1.8 0.65,-4.6 l 0.1,-5.05 q -0.15,-2.1 -1.45,-2.1 -0.75,0 -1.35,2.1 m 51.95,-22.45 q 8.25,0.2 11.75,8.4 1.2,2.8 1.45,5.55 0.2,2.55 -0.45,2.4 L 8.45,-23.05 6.95,-24.2 Q 4.3,-25.75 -1,-25.75 q -5.1,0 -6.7,2.5 -1.6,-1.4 -2.55,-0.25 l -2.15,1.85 -1.6,1.15 q -1.45,1.95 -1.25,4.25 -2.5,0.5 -2.25,-1.3 l 0.05,-3.6 q 0.2,-4.05 1.15,-7.4 3.15,-10.45 13.05,-10.2 m -17.95,20.35 1,4.35 -2.65,2.3 q 0,-1 -0.35,-3.3 -0.35,-2.35 2,-3.35 M 44.25,-5 q 1,5 5.5,4.75 2.5,-0.1 3.35,-5.65 0.8,-5.25 -0.6,-8.6 -0.55,-1.25 -2.3,-1.25 -1.7,0 -2.7,1 l -1.2,1 -1.1,1.35 q -0.55,1.05 -0.8,2.9 l -82.2,0.25 q -1.05,0.05 -0.95,1.5 0,1.55 1,1.5 l 82,-0.25 V -5 m -59.3,4.5 q 0,4.1 0.35,4.75 2.7,4.85 5.85,3 L -9.2,-4.9 q -4.4,-0.45 -5.3,0 -0.5,0.25 -0.55,4.4 m 51.8,-2 4,4.25 Q 26.75,2.25 25.75,2 25.25,-2 26,-2.25 26.75,-2.5 36.75,-2.5 M 15.25,-5.1 Q 14.85,1.8 15.15,3.6 15.4,5 18.1,6.95 20.8,8.9 21,7.6 21.35,5.45 21.15,-5.05 L 15.25,-5.1 M 54.3,36.1 Q 52.8,38.25 51,38.75 H 28.65 q -1.3,0 -2.5,-1.7 -1.7,-2.4 -2.15,-7.3 -0.15,-1.5 0.45,-2.7 l 1.6,-2.2 Q 28.6,21.5 29.15,16.45 29.8,11.75 27,8.5 27,5.95 29.5,5 L 40,4.45 l 7.15,0.5 2.45,0.1 q 1.95,0.5 4.05,2.7 6.35,6.7 2.5,23.35 -0.25,2.8 -1.85,5 M 23.6,17.05 q 0.05,-1.15 -0.7,-1.9 -0.65,-0.7 -1.75,-0.7 -2.65,0 -2.6,2.6 0,0.9 0.8,1.65 0.8,0.75 1.8,0.75 1,0 1.75,-0.75 0.65,-0.75 0.7,-1.65 m -6.1,10.2 q 1,0 1.7,1 0.65,1.05 0.65,2.65 0,1.6 -0.65,2.65 -0.7,1.05 -1.7,1.05 -2.35,0 -2.35,-3.5 0,-1.65 0.65,-2.75 0.65,-1.1 1.7,-1.1 M -12.25,15 q -0.75,0.85 -0.75,1.75 0,0.95 0.75,1.8 0.75,0.9 1.75,0.9 0.95,0 1.65,-0.8 0.65,-0.8 0.65,-1.7 0,-0.95 -0.65,-1.85 -0.7,-1 -1.65,-1 -1,0 -1.75,0.9 m -10.1,7.25 -1,10.5 Q -24.1,38 -28.2,38.6 l -18.3,-0.5 q -2.2,-0.65 -3.15,-1.65 -0.95,-0.95 -1.7,-3.35 -1.05,-5.65 -1.15,-10.85 l 0.25,-5.25 0.4,-2.75 q 0.1,-3.25 1.75,-5.9 1.7,-2.75 3.9,-2.75 l 18.35,0.15 q 1.7,0 3.25,2.35 1.45,2.25 1.6,4.65 l 0.65,9.5 m 13.2,11.35 q -0.75,1 -1.7,1 -2,0 -2,-3.6 0,-1.6 0.65,-2.7 0.6,-1.05 1.5,-1.05 0.95,0 1.6,1.05 0.7,1.1 0.7,2.7 0,1.55 -0.75,2.6 M -46.25,16.15 Q -47,13.3 -48,13.3 q -1.05,0 -1.75,2.85 -0.75,2.9 -0.75,6.95 0,4.1 0.75,6.95 0.7,2.9 1.75,2.9 1,0 1.75,-2.9 0.75,-2.9 0.75,-6.95 0,-4.05 -0.75,-6.95"
         id="path1264" />
      <path
         style="fill:none;stroke:#000000;stroke-width:1;stroke-linecap:round;stroke-linejoin:round;stroke-miterlimit:3;stroke-opacity:1"
         d="m 44.4,-9.5 -82.2,0.25 q -1.05,0.05 -0.95,1.5 0,1.55 1,1.5 l 82,-0.25 h 3.25 q 1,0 1,-1 -0.1,-2 -1.05,-2 H 44.4 m -62.9,-5.9 q 5,0.45 5.25,0 l -0.05,-0.8 0.15,-1.65 q 0.8,-2.55 4.9,-4.65 -0.75,0.75 -2.75,2.25 -2,1.5 -1.75,2.5 l 0.25,3 -6.35,-0.3 0.35,-0.35"
         id="path1266" />
    </g>
    <g
       id="car-32"
       transform="matrix(0.24105647,0,0,0.24105647,72.785235,79.803464)">
      <path
         style="fill:#000000;fill-opacity:1"
         d="m 26.35,-1.25 q 0.95,1.95 2.3,1.95 1.3,0 2.3,-1.95 0.95,-1.95 0.95,-4.65 0,-2.75 -0.95,-4.7 -1,-1.95 -2.3,-1.95 -1.35,0 -2.3,1.95 -0.85,1.75 -0.95,4.2 l -0.2,-0.05 -54.65,0.15 v -0.8 q -0.65,-3.7 -3.65,-3.35 -1.75,0.25 -2.2,2.1 l -0.15,3.55 q 0,1.7 1.15,3.05 1.1,1.3 2.2,1.3 2.3,0 2.65,-3 V -4.3 L 25.5,-4.45 q 0.15,1.8 0.85,3.2 m -0.9,-3.8 -0.05,-0.15 0.05,0.05 v 0.1 M -14.8,4.5 q 0.6,-0.3 1.4,-0.45 l 2.25,-0.35 q 1.05,-0.25 1.2,-0.8 v -6.35 l -18.4,-0.1 q -1.75,4.75 -4.75,4.75 -1.7,0 -3.05,-1.95 -1.55,-2.25 -1.2,-5.55 0.4,-3.7 1.3,-4.9 1,-1.35 3.7,-1.35 2.5,0 4.75,5.25 h 3.7 q -1.15,-6.8 1.05,-8.25 1.65,-1.1 6.65,-1.05 4.95,0.05 6.1,1.05 1.1,0.9 1.2,2.65 0.1,1.65 -0.7,2.6 -1.15,1.4 -1.65,3 H -9 l 2.3,-4.1 q 2.55,-3.7 5.75,-3.7 5.55,0 7.1,7.8 h 12 l -1.5,-0.25 v -3.5 l -3.25,-4 q 0.5,-2 2.75,-0.25 2.25,1.75 3.25,4.5 l -1.25,1.5 v 2 h 1.25 q 0,-2 1,-2.75 0.6,-0.45 1.75,0.35 l 1.75,1.15 q 1,0.25 1,-0.25 l -0.25,-1.5 q -0.75,-1.5 -2.25,-1.5 -1.2,0 -0.65,-3 0.55,-3 2.15,-3 l 6.9,-0.15 4.85,0.4 q 0.85,0.65 2.25,6.25 l -0.05,4.35 -0.65,5.7 q -0.2,0.95 -0.8,0.95 -0.5,0 -1.7,-1.7 -1.15,-1.55 -1.55,-1.3 -0.5,0.35 -0.05,2.3 0.4,1.85 1.05,2.7 2.5,3.3 1.5,7 -1.5,-7 -4.75,-7 L 19.9,0.95 15.15,0.45 16.9,-3.3 6.05,-3.35 Q 5.75,3.2 6.15,4.2 6.35,4.75 7.25,4.7 8.2,4.7 8.9,3.9 9.5,3.25 9.8,2.2 L 10.4,0.8 V 0.7 q 0.4,-0.75 1.6,-0.6 1.2,0.15 1.05,0.95 -0.15,1 0.35,1.4 l 1.25,0.25 v 2 q -0.75,0 -1,1 l -0.6,4.35 q -0.55,3.85 -1.15,4.9 -1,1.75 -1.5,3 L 9.55,17.9 Q 9.4,15.9 6.4,16.2 4.05,16.5 4.05,20.2 L -8.3,20.55 -9.15,17.5 q -0.8,-1.8 -2.7,-1.55 -1.15,0.15 -1.6,1.45 l -0.8,0.15 q -0.4,0 -0.55,-0.65 v -2 q 0,-0.45 -0.75,-0.9 l -0.9,-0.6 q -1.1,-2.15 -0.5,-6 0.3,-2.05 2.15,-2.9 m -2.8,-6.05 V 1.2 l -9.25,-0.25 q 1,-2.25 2,-2.5 1,-0.25 7.25,0 m 30.75,-10 q 3,-0.75 1.75,4 l -1.25,-1.5 -0.5,-2.5 m -12,-5.75 q -6.75,0.3 -7.75,1.5 0,-9.75 10,-9.75 8.5,0 7.75,14.5 H 9.4 q -2,-6.5 -8.25,-6.25 m 34.35,5.25 q -0.85,0 -0.85,4.25 0,4.25 0.85,4.25 0.9,0 0.9,-4.25 0,-4.25 -0.9,-4.25 M 31.4,9.2 q -0.65,0 -1.05,1.7 -0.45,1.65 -0.45,4.05 0,2.4 0.45,4.05 0.4,1.7 1.05,1.7 0.6,0 1.05,-1.7 0.45,-1.65 0.45,-4.05 0,-2.35 -0.45,-4.05 Q 32,9.2 31.4,9.2 m 0,15.5 H 17.15 q -1.5,-0.75 -2.25,-8.25 -0.75,-7.5 2,-12.75 11.2,-0.2 14,0 3.25,0.25 3.5,11.25 0,7.75 -3,9.75 M 8.4,10.85 q 0,-1.4 -1.65,-1.4 -1.6,0 -1.6,1.4 0,1.35 1.6,1.35 1.65,0 1.65,-1.35 M 7,17.45 q 0.55,0 1,0.65 0.4,0.65 0.4,1.5 L 8.3,21.35 Q 8.05,22.2 6.9,22.2 6.35,22.2 6,21.35 5.65,20.55 5.65,19.6 5.65,18.75 6.05,18.1 6.45,17.45 7,17.45 M -18.85,5.7 q -2,9 2.25,11.5 0.2,4.5 -0.1,5.85 -0.3,1.3 -1.65,2.15 -1.25,0.75 -15.5,0 -3.25,-0.25 -4,-9.75 -0.75,-9.5 4.5,-12.5 l 14.5,0.25 q 0.8,0 0.55,0.9 l -0.55,1.6 m 6.25,3.75 q -0.55,-0.5 -1.25,-0.5 -1.75,0 -1.75,1.65 0,1.6 1.75,1.6 1.75,0 1.75,-1.6 0,-0.7 -0.5,-1.15 m 0.85,8 q 0.55,0 1,0.75 0.4,0.75 0.4,1.75 0,1.05 -0.4,1.75 -0.45,0.75 -1,0.75 -1.35,0 -1.35,-2.5 0,-1 0.4,-1.75 0.4,-0.75 0.95,-0.75"
         id="path1277" />
      <path
         style="fill:none;stroke:#000000;stroke-width:1;stroke-linecap:round;stroke-linejoin:round;stroke-miterlimit:3;stroke-opacity:1"
         d="M 10.4,0.8 10.15,-3.05 M -14.8,4.5 -14.85,-3.05"
         id="path1279" />
      <path
         style="fill:none;stroke:#000000;stroke-width:0.5;stroke-linecap:round;stroke-linejoin:round;stroke-miterlimit:3;stroke-opacity:1"
         d="m -29.45,-6.3 h -1.45 q -1.05,0.1 -0.95,1.05 0,1.05 1,0.95 h 1.4 L 25.5,-4.45 h 0.05 l -0.1,-0.6 -0.05,-0.15 0.05,0.05 0.45,0.05 q 0.35,-0.2 0.05,-0.75 L 25.4,-6.4 25.2,-6.45 -29.45,-6.3 v -0.8 q -0.65,-3.7 -3.65,-3.35 -1.75,0.25 -2.2,2.1 l -0.15,3.55 q 0,1.7 1.15,3.05 1.1,1.3 2.2,1.3 2.3,0 2.65,-3 V -4.3"
         id="path1281" />
    </g>
    <g
       id="car-23"
       transform="matrix(0.15912059,0,0,0.15912059,98.243034,67.826091)">
      <path
         style="fill:#000000;fill-opacity:1"
         d="m 26.35,-1.25 q 0.95,1.95 2.3,1.95 1.3,0 2.3,-1.95 0.95,-1.95 0.95,-4.65 0,-2.75 -0.95,-4.7 -1,-1.95 -2.3,-1.95 -1.35,0 -2.3,1.95 -0.85,1.75 -0.95,4.2 l -0.2,-0.05 -54.65,0.15 v -0.8 q -0.65,-3.7 -3.65,-3.35 -1.75,0.25 -2.2,2.1 l -0.15,3.55 q 0,1.7 1.15,3.05 1.1,1.3 2.2,1.3 2.3,0 2.65,-3 V -4.3 L 25.5,-4.45 q 0.15,1.8 0.85,3.2 m -0.9,-3.8 -0.05,-0.15 0.05,0.05 v 0.1 M -14.8,4.5 q 0.6,-0.3 1.4,-0.45 l 2.25,-0.35 q 1.05,-0.25 1.2,-0.8 v -6.35 l -18.4,-0.1 q -1.75,4.75 -4.75,4.75 -1.7,0 -3.05,-1.95 -1.55,-2.25 -1.2,-5.55 0.4,-3.7 1.3,-4.9 1,-1.35 3.7,-1.35 2.5,0 4.75,5.25 h 3.7 q -1.15,-6.8 1.05,-8.25 1.65,-1.1 6.65,-1.05 4.95,0.05 6.1,1.05 1.1,0.9 1.2,2.65 0.1,1.65 -0.7,2.6 -1.15,1.4 -1.65,3 H -9 l 2.3,-4.1 q 2.55,-3.7 5.75,-3.7 5.55,0 7.1,7.8 h 12 l -1.5,-0.25 v -3.5 l -3.25,-4 q 0.5,-2 2.75,-0.25 2.25,1.75 3.25,4.5 l -1.25,1.5 v 2 h 1.25 q 0,-2 1,-2.75 0.6,-0.45 1.75,0.35 l 1.75,1.15 q 1,0.25 1,-0.25 l -0.25,-1.5 q -0.75,-1.5 -2.25,-1.5 -1.2,0 -0.65,-3 0.55,-3 2.15,-3 l 6.9,-0.15 4.85,0.4 q 0.85,0.65 2.25,6.25 l -0.05,4.35 -0.65,5.7 q -0.2,0.95 -0.8,0.95 -0.5,0 -1.7,-1.7 -1.15,-1.55 -1.55,-1.3 -0.5,0.35 -0.05,2.3 0.4,1.85 1.05,2.7 2.5,3.3 1.5,7 -1.5,-7 -4.75,-7 L 19.9,0.95 15.15,0.45 16.9,-3.3 6.05,-3.35 Q 5.75,3.2 6.15,4.2 6.35,4.75 7.25,4.7 8.2,4.7 8.9,3.9 9.5,3.25 9.8,2.2 L 10.4,0.8 V 0.7 q 0.4,-0.75 1.6,-0.6 1.2,0.15 1.05,0.95 -0.15,1 0.35,1.4 l 1.25,0.25 v 2 q -0.75,0 -1,1 l -0.6,4.35 q -0.55,3.85 -1.15,4.9 -1,1.75 -1.5,3 L 9.55,17.9 Q 9.4,15.9 6.4,16.2 4.05,16.5 4.05,20.2 L -8.3,20.55 -9.15,17.5 q -0.8,-1.8 -2.7,-1.55 -1.15,0.15 -1.6,1.45 l -0.8,0.15 q -0.4,0 -0.55,-0.65 v -2 q 0,-0.45 -0.75,-0.9 l -0.9,-0.6 q -1.1,-2.15 -0.5,-6 0.3,-2.05 2.15,-2.9 m -2.8,-6.05 V 1.2 l -9.25,-0.25 q 1,-2.25 2,-2.5 1,-0.25 7.25,0 m 30.75,-10 q 3,-0.75 1.75,4 l -1.25,-1.5 -0.5,-2.5 m -12,-5.75 q -6.75,0.3 -7.75,1.5 0,-9.75 10,-9.75 8.5,0 7.75,14.5 H 9.4 q -2,-6.5 -8.25,-6.25 m 34.35,5.25 q -0.85,0 -0.85,4.25 0,4.25 0.85,4.25 0.9,0 0.9,-4.25 0,-4.25 -0.9,-4.25 M 31.4,9.2 q -0.65,0 -1.05,1.7 -0.45,1.65 -0.45,4.05 0,2.4 0.45,4.05 0.4,1.7 1.05,1.7 0.6,0 1.05,-1.7 0.45,-1.65 0.45,-4.05 0,-2.35 -0.45,-4.05 Q 32,9.2 31.4,9.2 m 0,15.5 H 17.15 q -1.5,-0.75 -2.25,-8.25 -0.75,-7.5 2,-12.75 11.2,-0.2 14,0 3.25,0.25 3.5,11.25 0,7.75 -3,9.75 M 8.4,10.85 q 0,-1.4 -1.65,-1.4 -1.6,0 -1.6,1.4 0,1.35 1.6,1.35 1.65,0 1.65,-1.35 M 7,17.45 q 0.55,0 1,0.65 0.4,0.65 0.4,1.5 L 8.3,21.35 Q 8.05,22.2 6.9,22.2 6.35,22.2 6,21.35 5.65,20.55 5.65,19.6 5.65,18.75 6.05,18.1 6.45,17.45 7,17.45 M -18.85,5.7 q -2,9 2.25,11.5 0.2,4.5 -0.1,5.85 -0.3,1.3 -1.65,2.15 -1.25,0.75 -15.5,0 -3.25,-0.25 -4,-9.75 -0.75,-9.5 4.5,-12.5 l 14.5,0.25 q 0.8,0 0.55,0.9 l -0.55,1.6 m 6.25,3.75 q -0.55,-0.5 -1.25,-0.5 -1.75,0 -1.75,1.65 0,1.6 1.75,1.6 1.75,0 1.75,-1.6 0,-0.7 -0.5,-1.15 m 0.85,8 q 0.55,0 1,0.75 0.4,0.75 0.4,1.75 0,1.05 -0.4,1.75 -0.45,0.75 -1,0.75 -1.35,0 -1.35,-2.5 0,-1 0.4,-1.75 0.4,-0.75 0.95,-0.75"
         id="path1277-1" />
      <path
         style="fill:none;stroke:#000000;stroke-width:1;stroke-linecap:round;stroke-linejoin:round;stroke-miterlimit:3;stroke-opacity:1"
         d="M 10.4,0.8 10.15,-3.05 M -14.8,4.5 -14.85,-3.05"
         id="path1279-1" />
      <path
         style="fill:none;stroke:#000000;stroke-width:0.5;stroke-linecap:round;stroke-linejoin:round;stroke-miterlimit:3;stroke-opacity:1"
         d="m -29.45,-6.3 h -1.45 q -1.05,0.1 -0.95,1.05 0,1.05 1,0.95 h 1.4 L 25.5,-4.45 h 0.05 l -0.1,-0.6 -0.05,-0.15 0.05,0.05 0.45,0.05 q 0.35,-0.2 0.05,-0.75 L 25.4,-6.4 25.2,-6.45 -29.45,-6.3 v -0.8 q -0.65,-3.7 -3.65,-3.35 -1.75,0.25 -2.2,2.1 l -0.15,3.55 q 0,1.7 1.15,3.05 1.1,1.3 2.2,1.3 2.3,0 2.65,-3 V -4.3"
         id="path1281-2" />
    </g>
    <g
       id="car-13"
       transform="matrix(0.11337159,0,0,0.11337159,103.67387,59.718644)">
      <path
         style="fill:#000000;fill-opacity:1"
         d="m 26.35,-1.25 q 0.95,1.95 2.3,1.95 1.3,0 2.3,-1.95 0.95,-1.95 0.95,-4.65 0,-2.75 -0.95,-4.7 -1,-1.95 -2.3,-1.95 -1.35,0 -2.3,1.95 -0.85,1.75 -0.95,4.2 l -0.2,-0.05 -54.65,0.15 v -0.8 q -0.65,-3.7 -3.65,-3.35 -1.75,0.25 -2.2,2.1 l -0.15,3.55 q 0,1.7 1.15,3.05 1.1,1.3 2.2,1.3 2.3,0 2.65,-3 V -4.3 L 25.5,-4.45 q 0.15,1.8 0.85,3.2 m -0.9,-3.8 -0.05,-0.15 0.05,0.05 v 0.1 M -14.8,4.5 q 0.6,-0.3 1.4,-0.45 l 2.25,-0.35 q 1.05,-0.25 1.2,-0.8 v -6.35 l -18.4,-0.1 q -1.75,4.75 -4.75,4.75 -1.7,0 -3.05,-1.95 -1.55,-2.25 -1.2,-5.55 0.4,-3.7 1.3,-4.9 1,-1.35 3.7,-1.35 2.5,0 4.75,5.25 h 3.7 q -1.15,-6.8 1.05,-8.25 1.65,-1.1 6.65,-1.05 4.95,0.05 6.1,1.05 1.1,0.9 1.2,2.65 0.1,1.65 -0.7,2.6 -1.15,1.4 -1.65,3 H -9 l 2.3,-4.1 q 2.55,-3.7 5.75,-3.7 5.55,0 7.1,7.8 h 12 l -1.5,-0.25 v -3.5 l -3.25,-4 q 0.5,-2 2.75,-0.25 2.25,1.75 3.25,4.5 l -1.25,1.5 v 2 h 1.25 q 0,-2 1,-2.75 0.6,-0.45 1.75,0.35 l 1.75,1.15 q 1,0.25 1,-0.25 l -0.25,-1.5 q -0.75,-1.5 -2.25,-1.5 -1.2,0 -0.65,-3 0.55,-3 2.15,-3 l 6.9,-0.15 4.85,0.4 q 0.85,0.65 2.25,6.25 l -0.05,4.35 -0.65,5.7 q -0.2,0.95 -0.8,0.95 -0.5,0 -1.7,-1.7 -1.15,-1.55 -1.55,-1.3 -0.5,0.35 -0.05,2.3 0.4,1.85 1.05,2.7 2.5,3.3 1.5,7 -1.5,-7 -4.75,-7 L 19.9,0.95 15.15,0.45 16.9,-3.3 6.05,-3.35 Q 5.75,3.2 6.15,4.2 6.35,4.75 7.25,4.7 8.2,4.7 8.9,3.9 9.5,3.25 9.8,2.2 L 10.4,0.8 V 0.7 q 0.4,-0.75 1.6,-0.6 1.2,0.15 1.05,0.95 -0.15,1 0.35,1.4 l 1.25,0.25 v 2 q -0.75,0 -1,1 l -0.6,4.35 q -0.55,3.85 -1.15,4.9 -1,1.75 -1.5,3 L 9.55,17.9 Q 9.4,15.9 6.4,16.2 4.05,16.5 4.05,20.2 L -8.3,20.55 -9.15,17.5 q -0.8,-1.8 -2.7,-1.55 -1.15,0.15 -1.6,1.45 l -0.8,0.15 q -0.4,0 -0.55,-0.65 v -2 q 0,-0.45 -0.75,-0.9 l -0.9,-0.6 q -1.1,-2.15 -0.5,-6 0.3,-2.05 2.15,-2.9 m -2.8,-6.05 V 1.2 l -9.25,-0.25 q 1,-2.25 2,-2.5 1,-0.25 7.25,0 m 30.75,-10 q 3,-0.75 1.75,4 l -1.25,-1.5 -0.5,-2.5 m -12,-5.75 q -6.75,0.3 -7.75,1.5 0,-9.75 10,-9.75 8.5,0 7.75,14.5 H 9.4 q -2,-6.5 -8.25,-6.25 m 34.35,5.25 q -0.85,0 -0.85,4.25 0,4.25 0.85,4.25 0.9,0 0.9,-4.25 0,-4.25 -0.9,-4.25 M 31.4,9.2 q -0.65,0 -1.05,1.7 -0.45,1.65 -0.45,4.05 0,2.4 0.45,4.05 0.4,1.7 1.05,1.7 0.6,0 1.05,-1.7 0.45,-1.65 0.45,-4.05 0,-2.35 -0.45,-4.05 Q 32,9.2 31.4,9.2 m 0,15.5 H 17.15 q -1.5,-0.75 -2.25,-8.25 -0.75,-7.5 2,-12.75 11.2,-0.2 14,0 3.25,0.25 3.5,11.25 0,7.75 -3,9.75 M 8.4,10.85 q 0,-1.4 -1.65,-1.4 -1.6,0 -1.6,1.4 0,1.35 1.6,1.35 1.65,0 1.65,-1.35 M 7,17.45 q 0.55,0 1,0.65 0.4,0.65 0.4,1.5 L 8.3,21.35 Q 8.05,22.2 6.9,22.2 6.35,22.2 6,21.35 5.65,20.55 5.65,19.6 5.65,18.75 6.05,18.1 6.45,17.45 7,17.45 M -18.85,5.7 q -2,9 2.25,11.5 0.2,4.5 -0.1,5.85 -0.3,1.3 -1.65,2.15 -1.25,0.75 -15.5,0 -3.25,-0.25 -4,-9.75 -0.75,-9.5 4.5,-12.5 l 14.5,0.25 q 0.8,0 0.55,0.9 l -0.55,1.6 m 6.25,3.75 q -0.55,-0.5 -1.25,-0.5 -1.75,0 -1.75,1.65 0,1.6 1.75,1.6 1.75,0 1.75,-1.6 0,-0.7 -0.5,-1.15 m 0.85,8 q 0.55,0 1,0.75 0.4,0.75 0.4,1.75 0,1.05 -0.4,1.75 -0.45,0.75 -1,0.75 -1.35,0 -1.35,-2.5 0,-1 0.4,-1.75 0.4,-0.75 0.95,-0.75"
         id="path1277-1-0" />
      <path
         style="fill:none;stroke:#000000;stroke-width:1;stroke-linecap:round;stroke-linejoin:round;stroke-miterlimit:3;stroke-opacity:1"
         d="M 10.4,0.8 10.15,-3.05 M -14.8,4.5 -14.85,-3.05"
         id="path1279-1-4" />
      <path
         style="fill:none;stroke:#000000;stroke-width:0.5;stroke-linecap:round;stroke-linejoin:round;stroke-miterlimit:3;stroke-opacity:1"
         d="m -29.45,-6.3 h -1.45 q -1.05,0.1 -0.95,1.05 0,1.05 1,0.95 h 1.4 L 25.5,-4.45 h 0.05 l -0.1,-0.6 -0.05,-0.15 0.05,0.05 0.45,0.05 q 0.35,-0.2 0.05,-0.75 L 25.4,-6.4 25.2,-6.45 -29.45,-6.3 v -0.8 q -0.65,-3.7 -3.65,-3.35 -1.75,0.25 -2.2,2.1 l -0.15,3.55 q 0,1.7 1.15,3.05 1.1,1.3 2.2,1.3 2.3,0 2.65,-3 V -4.3"
         id="path1281-2-5" />
    </g>
    <g
       id="car-11"
       transform="matrix(0.07419859,0,0,0.07419859,77.236705,59.711963)">
      <path
         style="fill:#000000;fill-opacity:1"
         d="m 10.25,-31.2 q -1,0.35 0,9.65 l 5,3.7 -0.35,-9.35 q -3.65,-4.35 -4.65,-4 m 9.65,26.35 v -4.7 h -0.7 q -0.05,-1.85 0.05,-2.3 0.3,-1.7 1.3,-2.7 l -4.3,-1 q -1.35,2.05 -1.7,3.35 -2,-1.65 -3.65,-2 L 3.55,-14.55 Q -0.1,-18.5 -2.1,-18.2 l -4,-0.35 q -2,-3.65 -8.35,-3 -1.35,-12 8.35,-16 7.1,-2.95 13.9,0.35 6.7,3.2 7.45,9.35 0.75,6.3 1,12.3 l 0.3,-3.3 q 5.7,3.3 6.7,2.3 0.7,-0.7 0.1,-1.9 -0.65,-1.1 -1.45,-1.1 l -2.15,-0.1 q -1.3,-0.3 -0.85,-1.55 4.85,-1.1 9,2.35 l 4.45,4.4 q 1.85,2.1 2.2,2.25 l 7.3,1.85 q 6.8,2.05 9.05,5.15 1.9,2.6 2.1,3.5 l 0.25,6.15 q 0,2.7 -18,20 -1.5,-18.9 -4.7,-21.3 -1.3,-1 -6.55,0.05 7.25,0.5 7.75,16 0.3,10 -2.3,14.45 Q 27.9,36.35 25.5,36.7 23.75,36.95 7.75,36.45 4,35.7 2,26.7 0.4,19.45 1.55,12.45 2.75,4.85 6.5,3.45 L 24,3.2 21.9,3.15 q 5,-2.35 0,-2.35 h -10 q 6.3,-1.3 7,-4 l 0.25,-1.65 H 19.9 M 0.6,-4.7 3,-2.3 q 1.15,1.25 2,1.5 1.5,0.5 2,1.75 -3.25,1 -5,2.75 -1.05,1.05 -2.35,6.1 -1.5,6 -1.15,11.15 0.45,7.15 1.3,8.5 -5.6,-3.5 -8.55,-2.5 -2.5,0.9 -3,3.35 L -12,32 q -0.1,0.8 -0.5,0.95 l -7.35,0.5 -8.9,-0.5 q -2.45,-0.6 -6.15,-3.65 -3.65,-3 -4.1,-3.1 L -42.75,25.7 -44.3,24 q -1.05,-1.25 -1.45,-3.05 -0.75,-3.2 -0.05,-6.85 0.7,-3.65 2.55,-5.9 l 1.75,-1.65 q 0.1,-1.5 -0.6,-3.1 -1,-2.3 -5,-2 l 6.35,-4.3 v 8.8 l 0.85,-0.6 q 0.3,3.1 0.8,3.1 4,0.35 7,-3 v -4.5 q 1.9,-1.15 2.85,-2 1.5,-1.3 2.85,-3.5 l 27,-0.15 m -24.2,-5.1 0.6,-1.25 q 2,-7.5 8.25,-7.75 3.05,-0.1 5.35,1.65 l 2.9,3.1 2.55,3.95 0.25,0.4 -19.9,-0.1 m 60.15,-7.75 -0.3,3.7 q -1.35,-2.7 -3,-3.7 h 3.3 m -14.3,4.7 q -2,4.3 0.3,11.3 1.9,2.8 5.4,1.7 3.3,-1 4.3,-3.7 0.65,-1.8 0.3,-4.3 L 31.9,-11.2 q -0.25,-1.2 -1.5,-2.25 -1.25,-1.05 -2.85,-1.45 -3.9,-1 -5.3,2.05 M 60,-25.3 q 2.6,1.9 3.55,12.75 Q 64.5,-2.15 63,0.2 60.4,4.25 57,4.7 56.4,4.75 56.45,3.55 l 0.1,-3.3 q -0.3,-5.6 -5.3,-9.3 -2.95,-2.15 -5.8,-3.05 l -6.7,-1.95 q 0.25,-11.5 5.75,-12.5 l 8.3,-0.85 q 4.45,0.1 7.2,2.1 m 0.25,22 q 0.7,0 1.25,-2.15 0.5,-2.2 0.5,-5.35 0,-3 -0.75,-5.45 -0.75,-2.3 -1.5,-2.3 -0.75,0 -1.25,2.3 -0.5,2.25 -0.5,5.45 0,3.05 0.75,5.35 0.7,2.15 1.5,2.15 m 8.3,-13.55 q 2,1.3 2,4.3 0,6.35 -4.65,5.7 l -0.35,-11 q 2.2,0.5 3,1 M 24,12.35 q -0.25,1.95 -0.25,7.75 0,4.55 0.85,7.75 0.8,3.1 1.9,3.1 1.7,0 2.2,-3.1 Q 29,25.9 29,20.1 29,9.2 25.75,9.2 24.4,9.2 24,12.35 m 14.55,6.45 q 4.6,-3 13.2,-14.85 0.5,-6.75 -2.25,-6.5 l -13.75,9.5 q 1.05,2.65 1.85,8 0.55,4.1 0.95,3.85 M -9.25,-4.05 Q -9.25,10.2 -8,9.7 -6.75,9.2 -1.5,5.2 l 0.25,-9.5 -8,0.25 m -2.5,23.2 q 0,0.85 0.65,1.4 0.7,0.6 1.65,0.6 1,0 1.65,-0.6 0.7,-0.6 0.7,-1.4 0,-0.85 -0.7,-1.4 -0.65,-0.6 -1.65,-0.6 -0.95,0 -1.65,0.6 -0.65,0.55 -0.65,1.4 m -23,13.3 q 1,1 -4,3 -1.75,-0.95 -2.55,-3.45 -0.85,-2.45 0.2,-3.2 1.45,-1.05 3,2 2.35,0.65 3.35,1.65 m 29.3,-3 q 2.35,1 3,1.7 -2,6.3 -5,6 -3,-1.7 -2.65,-5 0.4,-4.55 4.65,-2.7 m -37.3,-13 q -0.85,0 -1.45,0.65 -0.55,0.65 -0.55,1.55 0,0.9 0.55,1.5 0.6,0.65 1.45,0.65 0.85,0 1.4,-0.65 0.6,-0.6 0.6,-1.5 0,-0.9 -0.6,-1.55 -0.6,-0.65 -1.4,-0.65 M -49,18.7 q 1,8 4.75,9.25 -1.75,6.75 2.5,11 h -21 q -8,-3.5 -7.75,-17.25 0.25,-13.75 7.75,-17 h 18.5 q -5.75,6 -4.75,14"
         id="path1133-5" />
      <path
         style="fill:none;stroke:#000000;stroke-width:0.25;stroke-linecap:round;stroke-linejoin:round;stroke-miterlimit:3;stroke-opacity:1"
         d="m 14.9,-27.2 0.35,9.35 -5,-3.7 q -1,-9.3 0,-9.65 1,-0.35 4.65,4 m 12.65,12.3 q 1.6,0.4 2.85,1.45 1.25,1.05 1.5,2.25 l 0.65,3.35 q 0.35,2.5 -0.3,4.3 -1,2.7 -4.3,3.7 -3.5,1.1 -5.4,-1.7 -2.3,-7 -0.3,-11.3 1.4,-3.05 5.3,-2.05 m 31.2,9.45 Q 58,-7.75 58,-10.8 q 0,-3.2 0.5,-5.45 0.5,-2.3 1.25,-2.3 0.75,0 1.5,2.3 0.75,2.45 0.75,5.45 0,3.15 -0.5,5.35 -0.55,2.15 -1.25,2.15 -0.8,0 -1.5,-2.15 m -33,14.65 q 3.25,0 3.25,10.9 0,5.8 -0.3,7.75 -0.5,3.1 -2.2,3.1 -1.1,0 -1.9,-3.1 -0.85,-3.2 -0.85,-7.75 0,-5.8 0.25,-7.75 0.4,-3.15 1.75,-3.15 m -27,-13.5 -0.25,9.5 q -5.25,4 -6.5,4.5 -1.25,0.5 -1.25,-13.75 l 8,-0.25 m -9.85,22.05 q 0.7,-0.6 1.65,-0.6 1,0 1.65,0.6 0.7,0.55 0.7,1.4 0,0.8 -0.7,1.4 -0.65,0.6 -1.65,0.6 -0.95,0 -1.65,-0.6 -0.65,-0.55 -0.65,-1.4 0,-0.85 0.65,-1.4 M -41.35,17.1 q 0.6,0.65 0.6,1.55 0,0.9 -0.6,1.5 -0.55,0.65 -1.4,0.65 -0.85,0 -1.45,-0.65 -0.55,-0.6 -0.55,-1.5 0,-0.9 0.55,-1.55 0.6,-0.65 1.45,-0.65 0.8,0 1.4,0.65"
         id="path1135-1" />
      <path
         style="fill:none;stroke:#000000;stroke-width:1;stroke-linecap:round;stroke-linejoin:round;stroke-miterlimit:3;stroke-opacity:1"
         d="m -41.5,6.55 q 0.1,-1.5 -0.6,-3.1 -1,-2.3 -5,-2 l 6.35,-4.3 v 8.8 M -32.1,-4.5 v 5.45 4.5 q -3,3.35 -7,3 -0.5,0 -0.8,-3.1 l -0.55,-9.9 m -1.05,11.1 -0.25,1.25 h 1 V 5.95"
         id="path1137-8" />
      <path
         style="fill:none;stroke:#000000;stroke-width:2;stroke-linecap:round;stroke-linejoin:round;stroke-miterlimit:3;stroke-opacity:1"
         d="m -26.4,-4.55 -5.7,0.05 -8.35,-0.05 h -5.85 q -0.65,1.45 -2,2.8 -3.15,3.2 -8.15,3.2 -4.9,0 -6.95,-2.65 -1.4,-1.85 -1.7,-5.65 -0.3,-3.2 2.05,-5.85 2.5,-2.85 6.3,-2.85 4.2,0 7.5,2.3 2.2,1.55 3.05,3.55 l 22.6,-0.1 19.9,0.1 22.9,0.15 h 0.7 v 4.7 H 19.15 L 0.6,-4.7 l -27,0.15 m -19.9,0 -8.8,-0.3 q -1.4,-0.5 -1.55,-2.15 -0.1,-1.6 0.9,-2.2 l 9.55,-0.5"
         id="path1139-3" />
      <path
         style="fill:none;stroke:#000000;stroke-width:0.5;stroke-linecap:round;stroke-linejoin:round;stroke-miterlimit:3;stroke-opacity:1"
         d="m 36.55,-17.55 -0.3,3.7 q -1.35,-2.7 -3,-3.7 z"
         id="path1141-0" />
    </g>
    <g
       id="car-12"
       transform="matrix(0.07415806,0,0,0.07415806,90.950028,59.709893)">
      <path
         style="fill:#000000;fill-opacity:1"
         d="m 10.25,-31.2 q -1,0.35 0,9.65 l 5,3.7 -0.35,-9.35 q -3.65,-4.35 -4.65,-4 m 9.65,26.35 v -4.7 h -0.7 q -0.05,-1.85 0.05,-2.3 0.3,-1.7 1.3,-2.7 l -4.3,-1 q -1.35,2.05 -1.7,3.35 -2,-1.65 -3.65,-2 L 3.55,-14.55 Q -0.1,-18.5 -2.1,-18.2 l -4,-0.35 q -2,-3.65 -8.35,-3 -1.35,-12 8.35,-16 7.1,-2.95 13.9,0.35 6.7,3.2 7.45,9.35 0.75,6.3 1,12.3 l 0.3,-3.3 q 5.7,3.3 6.7,2.3 0.7,-0.7 0.1,-1.9 -0.65,-1.1 -1.45,-1.1 l -2.15,-0.1 q -1.3,-0.3 -0.85,-1.55 4.85,-1.1 9,2.35 l 4.45,4.4 q 1.85,2.1 2.2,2.25 l 7.3,1.85 q 6.8,2.05 9.05,5.15 1.9,2.6 2.1,3.5 l 0.25,6.15 q 0,2.7 -18,20 -1.5,-18.9 -4.7,-21.3 -1.3,-1 -6.55,0.05 7.25,0.5 7.75,16 0.3,10 -2.3,14.45 Q 27.9,36.35 25.5,36.7 23.75,36.95 7.75,36.45 4,35.7 2,26.7 0.4,19.45 1.55,12.45 2.75,4.85 6.5,3.45 L 24,3.2 21.9,3.15 q 5,-2.35 0,-2.35 h -10 q 6.3,-1.3 7,-4 l 0.25,-1.65 H 19.9 M 0.6,-4.7 3,-2.3 q 1.15,1.25 2,1.5 1.5,0.5 2,1.75 -3.25,1 -5,2.75 -1.05,1.05 -2.35,6.1 -1.5,6 -1.15,11.15 0.45,7.15 1.3,8.5 -5.6,-3.5 -8.55,-2.5 -2.5,0.9 -3,3.35 L -12,32 q -0.1,0.8 -0.5,0.95 l -7.35,0.5 -8.9,-0.5 q -2.45,-0.6 -6.15,-3.65 -3.65,-3 -4.1,-3.1 L -42.75,25.7 -44.3,24 q -1.05,-1.25 -1.45,-3.05 -0.75,-3.2 -0.05,-6.85 0.7,-3.65 2.55,-5.9 l 1.75,-1.65 q 0.1,-1.5 -0.6,-3.1 -1,-2.3 -5,-2 l 6.35,-4.3 v 8.8 l 0.85,-0.6 q 0.3,3.1 0.8,3.1 4,0.35 7,-3 v -4.5 q 1.9,-1.15 2.85,-2 1.5,-1.3 2.85,-3.5 l 27,-0.15 m -24.2,-5.1 0.6,-1.25 q 2,-7.5 8.25,-7.75 3.05,-0.1 5.35,1.65 l 2.9,3.1 2.55,3.95 0.25,0.4 -19.9,-0.1 m 60.15,-7.75 -0.3,3.7 q -1.35,-2.7 -3,-3.7 h 3.3 m -14.3,4.7 q -2,4.3 0.3,11.3 1.9,2.8 5.4,1.7 3.3,-1 4.3,-3.7 0.65,-1.8 0.3,-4.3 L 31.9,-11.2 q -0.25,-1.2 -1.5,-2.25 -1.25,-1.05 -2.85,-1.45 -3.9,-1 -5.3,2.05 M 60,-25.3 q 2.6,1.9 3.55,12.75 Q 64.5,-2.15 63,0.2 60.4,4.25 57,4.7 56.4,4.75 56.45,3.55 l 0.1,-3.3 q -0.3,-5.6 -5.3,-9.3 -2.95,-2.15 -5.8,-3.05 l -6.7,-1.95 q 0.25,-11.5 5.75,-12.5 l 8.3,-0.85 q 4.45,0.1 7.2,2.1 m 0.25,22 q 0.7,0 1.25,-2.15 0.5,-2.2 0.5,-5.35 0,-3 -0.75,-5.45 -0.75,-2.3 -1.5,-2.3 -0.75,0 -1.25,2.3 -0.5,2.25 -0.5,5.45 0,3.05 0.75,5.35 0.7,2.15 1.5,2.15 m 8.3,-13.55 q 2,1.3 2,4.3 0,6.35 -4.65,5.7 l -0.35,-11 q 2.2,0.5 3,1 M 24,12.35 q -0.25,1.95 -0.25,7.75 0,4.55 0.85,7.75 0.8,3.1 1.9,3.1 1.7,0 2.2,-3.1 Q 29,25.9 29,20.1 29,9.2 25.75,9.2 24.4,9.2 24,12.35 m 14.55,6.45 q 4.6,-3 13.2,-14.85 0.5,-6.75 -2.25,-6.5 l -13.75,9.5 q 1.05,2.65 1.85,8 0.55,4.1 0.95,3.85 M -9.25,-4.05 Q -9.25,10.2 -8,9.7 -6.75,9.2 -1.5,5.2 l 0.25,-9.5 -8,0.25 m -2.5,23.2 q 0,0.85 0.65,1.4 0.7,0.6 1.65,0.6 1,0 1.65,-0.6 0.7,-0.6 0.7,-1.4 0,-0.85 -0.7,-1.4 -0.65,-0.6 -1.65,-0.6 -0.95,0 -1.65,0.6 -0.65,0.55 -0.65,1.4 m -23,13.3 q 1,1 -4,3 -1.75,-0.95 -2.55,-3.45 -0.85,-2.45 0.2,-3.2 1.45,-1.05 3,2 2.35,0.65 3.35,1.65 m 29.3,-3 q 2.35,1 3,1.7 -2,6.3 -5,6 -3,-1.7 -2.65,-5 0.4,-4.55 4.65,-2.7 m -37.3,-13 q -0.85,0 -1.45,0.65 -0.55,0.65 -0.55,1.55 0,0.9 0.55,1.5 0.6,0.65 1.45,0.65 0.85,0 1.4,-0.65 0.6,-0.6 0.6,-1.5 0,-0.9 -0.6,-1.55 -0.6,-0.65 -1.4,-0.65 M -49,18.7 q 1,8 4.75,9.25 -1.75,6.75 2.5,11 h -21 q -8,-3.5 -7.75,-17.25 0.25,-13.75 7.75,-17 h 18.5 q -5.75,6 -4.75,14"
         id="path1133-5-1" />
      <path
         style="fill:none;stroke:#000000;stroke-width:0.25;stroke-linecap:round;stroke-linejoin:round;stroke-miterlimit:3;stroke-opacity:1"
         d="m 14.9,-27.2 0.35,9.35 -5,-3.7 q -1,-9.3 0,-9.65 1,-0.35 4.65,4 m 12.65,12.3 q 1.6,0.4 2.85,1.45 1.25,1.05 1.5,2.25 l 0.65,3.35 q 0.35,2.5 -0.3,4.3 -1,2.7 -4.3,3.7 -3.5,1.1 -5.4,-1.7 -2.3,-7 -0.3,-11.3 1.4,-3.05 5.3,-2.05 m 31.2,9.45 Q 58,-7.75 58,-10.8 q 0,-3.2 0.5,-5.45 0.5,-2.3 1.25,-2.3 0.75,0 1.5,2.3 0.75,2.45 0.75,5.45 0,3.15 -0.5,5.35 -0.55,2.15 -1.25,2.15 -0.8,0 -1.5,-2.15 m -33,14.65 q 3.25,0 3.25,10.9 0,5.8 -0.3,7.75 -0.5,3.1 -2.2,3.1 -1.1,0 -1.9,-3.1 -0.85,-3.2 -0.85,-7.75 0,-5.8 0.25,-7.75 0.4,-3.15 1.75,-3.15 m -27,-13.5 -0.25,9.5 q -5.25,4 -6.5,4.5 -1.25,0.5 -1.25,-13.75 l 8,-0.25 m -9.85,22.05 q 0.7,-0.6 1.65,-0.6 1,0 1.65,0.6 0.7,0.55 0.7,1.4 0,0.8 -0.7,1.4 -0.65,0.6 -1.65,0.6 -0.95,0 -1.65,-0.6 -0.65,-0.55 -0.65,-1.4 0,-0.85 0.65,-1.4 M -41.35,17.1 q 0.6,0.65 0.6,1.55 0,0.9 -0.6,1.5 -0.55,0.65 -1.4,0.65 -0.85,0 -1.45,-0.65 -0.55,-0.6 -0.55,-1.5 0,-0.9 0.55,-1.55 0.6,-0.65 1.45,-0.65 0.8,0 1.4,0.65"
         id="path1135-1-4" />
      <path
         style="fill:none;stroke:#000000;stroke-width:1;stroke-linecap:round;stroke-linejoin:round;stroke-miterlimit:3;stroke-opacity:1"
         d="m -41.5,6.55 q 0.1,-1.5 -0.6,-3.1 -1,-2.3 -5,-2 l 6.35,-4.3 v 8.8 M -32.1,-4.5 v 5.45 4.5 q -3,3.35 -7,3 -0.5,0 -0.8,-3.1 l -0.55,-9.9 m -1.05,11.1 -0.25,1.25 h 1 V 5.95"
         id="path1137-8-1" />
      <path
         style="fill:none;stroke:#000000;stroke-width:2;stroke-linecap:round;stroke-linejoin:round;stroke-miterlimit:3;stroke-opacity:1"
         d="m -26.4,-4.55 -5.7,0.05 -8.35,-0.05 h -5.85 q -0.65,1.45 -2,2.8 -3.15,3.2 -8.15,3.2 -4.9,0 -6.95,-2.65 -1.4,-1.85 -1.7,-5.65 -0.3,-3.2 2.05,-5.85 2.5,-2.85 6.3,-2.85 4.2,0 7.5,2.3 2.2,1.55 3.05,3.55 l 22.6,-0.1 19.9,0.1 22.9,0.15 h 0.7 v 4.7 H 19.15 L 0.6,-4.7 l -27,0.15 m -19.9,0 -8.8,-0.3 q -1.4,-0.5 -1.55,-2.15 -0.1,-1.6 0.9,-2.2 l 9.55,-0.5"
         id="path1139-3-8" />
      <path
         style="fill:none;stroke:#000000;stroke-width:0.5;stroke-linecap:round;stroke-linejoin:round;stroke-miterlimit:3;stroke-opacity:1"
         d="m 36.55,-17.55 -0.3,3.7 q -1.35,-2.7 -3,-3.7 z"
         id="path1141-0-2" />
    </g>
    <g
       id="level-3"
       transform="matrix(0.20391548,0,0,0.20391548,19.499909,52.591357)">
      <path
         style="fill:#000000;fill-opacity:1"
         d="m 38.65,-8.2 -5.2,0.7 -7.1,1.5 3.4,-12.3 0.35,-1.3 q 6.5,-5.05 16.15,-1.75 l 2.75,-11 Q 41.3,-36.1 34,-31 l 3,-11.65 4.6,-1.95 0.05,-0.05 4.2,-0.55 1.65,-0.1 2.85,-0.05 h 0.4 1.25 l -0.1,0.1 H 52 l -3,12.9 q 3.35,-0.3 7,3 3.65,3.35 7.35,4.35 l -3,11.65 q -1.15,0.4 -4.3,-2.6 -4,-3.8 -6,-4.15 l -3.8,-1.25 -3.65,13 -0.75,0.05 -3.2,0.1"
         id="path1766-5" />
      <path
         style="fill:none;stroke:#000000;stroke-width:1;stroke-linecap:round;stroke-linejoin:round;stroke-miterlimit:3;stroke-opacity:1"
         d="m 46.25,-21.35 2.75,-11 m 3,-13 -0.1,0.1 L 34,-31 l 3,-11.65 4.6,-1.95 q -3.15,0.6 -5,1.8 M 26.35,-6 l 7.1,-1.5 5.2,-0.7 Q 30,-7.75 27,-6.65 l 3,-12 12.6,10.3 L 41.85,-8.3 45,-8 q 2.7,0.6 7.1,4.45 4.1,3.6 7.25,3.9 7.3,0.65 13,-3.7 l 12,-40 Q 82.5,-41.5 79.7,-39.85 74,-36.5 69,-37.35 63.85,-38.2 59.4,-42 56.15,-44.8 52,-45.25 m 8.35,31.9 3,-11.65 q -3.7,-1 -7.35,-4.35 -3.65,-3.3 -7,-3 m -18.65,11.65 -0.3,1.1 -0.3,1.3 M 51.9,-45.25 H 52 m 0,-0.1 h -1.25 -0.4 l -2.85,0.05 -1.65,0.1 -4.2,0.55 -0.05,0.05 m 0.25,36.3 -3.2,0.1"
         id="path1768-4" />
      <path
         style="fill:none;stroke:#000000;stroke-width:1;stroke-linecap:round;stroke-linejoin:round;stroke-miterlimit:3;stroke-opacity:1"
         d="m 30.05,-19.6 h 0.05 q 6.5,-5.05 16.15,-1.75 m 2.75,-11 Q 41.3,-36.1 34,-31 m 8.6,22.65 3.65,-13 m 2.75,-11 3,-12.9 v -0.1"
         id="path1770-6" />
      <path
         style="fill:none;stroke:#000000;stroke-width:2;stroke-linecap:round;stroke-linejoin:round;stroke-miterlimit:3;stroke-opacity:1"
         d="m 36.6,-42.8 -0.25,0.15 -6,21.95 -0.25,1.1 -0.35,1.3 -3.4,12.3 -1.9,7"
         id="path1772-6" />
      <path
         style="fill:#000000;fill-opacity:1"
         d="m 60.65,-13 q 8.7,1.35 14.7,-3 L 72,-4 q -3.75,3.75 -9.55,4.1 l -5.1,-0.45 3.3,-12.65"
         id="path1774-3" />
      <path
         style="fill:none;stroke:#000000;stroke-width:1;stroke-linecap:round;stroke-linejoin:round;stroke-miterlimit:3;stroke-opacity:1"
         d="m 57.35,-0.35 5.1,0.45 Q 68.25,-0.25 72,-4 l 3.35,-12 q -6,4.35 -14.7,3 z"
         id="path1776-2" />
      <path
         style="fill:#000000;fill-opacity:1"
         d="m 66.65,-37.35 q 7.95,1.05 13.45,-2.2 2.75,-1.6 3.9,-3.45 l -4,13 q -1.65,3.55 -9.15,4.45 l -7.2,0.2 3,-12"
         id="path1778-1" />
      <path
         style="fill:none;stroke:#000000;stroke-width:1;stroke-linecap:round;stroke-linejoin:round;stroke-miterlimit:3;stroke-opacity:1"
         d="m 63.65,-25.35 7.2,-0.2 q 7.5,-0.9 9.15,-4.45 l 4,-13 q -1.15,1.85 -3.9,3.45 -5.5,3.25 -13.45,2.2 z"
         id="path1780-3" />
    </g>
    <g
       id="level-1"
       transform="matrix(0.20391548,0,0,0.20391548,-4.8672003,52.601553)">
      <path
         style="fill:#000000;fill-opacity:1"
         d="m 38.65,-8.2 -5.2,0.7 -7.1,1.5 3.4,-12.3 0.35,-1.3 q 6.5,-5.05 16.15,-1.75 l 2.75,-11 Q 41.3,-36.1 34,-31 l 3,-11.65 4.6,-1.95 0.05,-0.05 4.2,-0.55 1.65,-0.1 2.85,-0.05 h 0.4 1.25 l -0.1,0.1 H 52 l -3,12.9 q 3.35,-0.3 7,3 3.65,3.35 7.35,4.35 l -3,11.65 q -1.15,0.4 -4.3,-2.6 -4,-3.8 -6,-4.15 l -3.8,-1.25 -3.65,13 -0.75,0.05 -3.2,0.1"
         id="path1766-5-0" />
      <path
         style="fill:none;stroke:#000000;stroke-width:1;stroke-linecap:round;stroke-linejoin:round;stroke-miterlimit:3;stroke-opacity:1"
         d="m 46.25,-21.35 2.75,-11 m 3,-13 -0.1,0.1 L 34,-31 l 3,-11.65 4.6,-1.95 q -3.15,0.6 -5,1.8 M 26.35,-6 l 7.1,-1.5 5.2,-0.7 Q 30,-7.75 27,-6.65 l 3,-12 12.6,10.3 L 41.85,-8.3 45,-8 q 2.7,0.6 7.1,4.45 4.1,3.6 7.25,3.9 7.3,0.65 13,-3.7 l 12,-40 Q 82.5,-41.5 79.7,-39.85 74,-36.5 69,-37.35 63.85,-38.2 59.4,-42 56.15,-44.8 52,-45.25 m 8.35,31.9 3,-11.65 q -3.7,-1 -7.35,-4.35 -3.65,-3.3 -7,-3 m -18.65,11.65 -0.3,1.1 -0.3,1.3 M 51.9,-45.25 H 52 m 0,-0.1 h -1.25 -0.4 l -2.85,0.05 -1.65,0.1 -4.2,0.55 -0.05,0.05 m 0.25,36.3 -3.2,0.1"
         id="path1768-4-3" />
      <path
         style="fill:none;stroke:#000000;stroke-width:1;stroke-linecap:round;stroke-linejoin:round;stroke-miterlimit:3;stroke-opacity:1"
         d="m 30.05,-19.6 h 0.05 q 6.5,-5.05 16.15,-1.75 m 2.75,-11 Q 41.3,-36.1 34,-31 m 8.6,22.65 3.65,-13 m 2.75,-11 3,-12.9 v -0.1"
         id="path1770-6-2" />
      <path
         style="fill:none;stroke:#000000;stroke-width:2;stroke-linecap:round;stroke-linejoin:round;stroke-miterlimit:3;stroke-opacity:1"
         d="m 36.6,-42.8 -0.25,0.15 -6,21.95 -0.25,1.1 -0.35,1.3 -3.4,12.3 -1.9,7"
         id="path1772-6-1" />
      <path
         style="fill:#000000;fill-opacity:1"
         d="m 60.65,-13 q 8.7,1.35 14.7,-3 L 72,-4 q -3.75,3.75 -9.55,4.1 l -5.1,-0.45 3.3,-12.65"
         id="path1774-3-2" />
      <path
         style="fill:none;stroke:#000000;stroke-width:1;stroke-linecap:round;stroke-linejoin:round;stroke-miterlimit:3;stroke-opacity:1"
         d="m 57.35,-0.35 5.1,0.45 Q 68.25,-0.25 72,-4 l 3.35,-12 q -6,4.35 -14.7,3 z"
         id="path1776-2-7" />
      <path
         style="fill:#000000;fill-opacity:1"
         d="m 66.65,-37.35 q 7.95,1.05 13.45,-2.2 2.75,-1.6 3.9,-3.45 l -4,13 q -1.65,3.55 -9.15,4.45 l -7.2,0.2 3,-12"
         id="path1778-1-6" />
      <path
         style="fill:none;stroke:#000000;stroke-width:1;stroke-linecap:round;stroke-linejoin:round;stroke-miterlimit:3;stroke-opacity:1"
         d="m 63.65,-25.35 7.2,-0.2 q 7.5,-0.9 9.15,-4.45 l 4,-13 q -1.15,1.85 -3.9,3.45 -5.5,3.25 -13.45,2.2 z"
         id="path1780-3-9" />
    </g>
  </g>
</svg>
