<?xml version="1.0" encoding="UTF-8" standalone="no"?>
<!-- Created with Inkscape (http://www.inkscape.org/) -->

<svg
   width="95.25mm"
   height="120.12083mm"
   viewBox="0 0 95.25 120.12083"
   version="1.1"
   id="svg5"
   inkscape:version="1.1 (c68e22c387, 2021-05-23)"
   sodipodi:docname="dessin.svg"
   xmlns:inkscape="http://www.inkscape.org/namespaces/inkscape"
   xmlns:sodipodi="http://sodipodi.sourceforge.net/DTD/sodipodi-0.dtd"
   xmlns="http://www.w3.org/2000/svg"
   xmlns:svg="http://www.w3.org/2000/svg">
  <sodipodi:namedview
     id="namedview7"
     pagecolor="#ffffff"
     bordercolor="#666666"
     borderopacity="1.0"
     inkscape:pageshadow="2"
     inkscape:pageopacity="0.0"
     inkscape:pagecheckerboard="0"
     inkscape:document-units="mm"
     showgrid="false"
     inkscape:zoom="2"
     inkscape:cx="287.5"
     inkscape:cy="160"
     inkscape:window-width="3840"
     inkscape:window-height="2126"
     inkscape:window-x="-11"
     inkscape:window-y="-11"
     inkscape:window-maximized="1"
     inkscape:current-layer="layer1"
     fit-margin-top="0"
     fit-margin-left="0"
     fit-margin-right="0"
     fit-margin-bottom="0" />
  <defs
     id="defs2" />
  <g
     inkscape:label="Calque 1"
     inkscape:groupmode="layer"
     id="layer1"
     transform="translate(-59.029636,-57.480824)">
    <path
       style="fill:#000000;stroke-width:0.0723485"
       d="m 69.167572,164.90903 c -0.620961,-0.0704 -1.25321,-0.10148 -1.800257,-0.4366 -0.400538,0.0504 -0.646847,-0.61143 -1.044743,-0.22453 -0.497106,0.23613 -1.201907,0.35424 -1.56778,-0.14426 -0.111676,-0.35259 -0.615617,-0.81491 -0.175747,-1.09837 0.190255,-0.3131 0.422578,-0.83618 0.147357,-1.16224 -0.273895,-0.30529 -0.365476,-0.8492 -0.589183,-1.08102 -0.411055,0.0729 -0.945021,0.17456 -1.141056,-0.30291 -0.273871,-0.43053 -0.238947,-0.9722 -0.168861,-1.4472 0.115726,-0.42595 0.813344,-0.30562 0.771829,-0.82265 -0.04782,-0.70587 -0.1619,-1.57063 0.466468,-2.05889 0.588076,-0.19399 1.0778,-0.6948 1.66661,-0.94326 0.451735,-0.22451 0.82944,-0.5892 1.343537,-0.63703 0.198221,0.32766 -0.446791,0.60037 -0.704639,0.75508 -0.709177,0.39745 -1.609757,0.6489 -2.018031,1.38844 -0.04043,0.44085 0.265349,0.79691 0.159492,1.28464 0.192349,0.60059 0.20794,1.23938 0.5121,1.80805 0.290368,0.67253 0.407467,1.45086 1.004561,1.93606 0.0057,0.68136 0.718841,1.06068 1.038495,1.61066 0.407436,0.4294 1.043864,0.55093 1.48234,0.94725 0.268144,0.21289 0.95197,0.14364 0.931479,0.55242 -0.10381,0.024 -0.20326,0.11398 -0.313971,0.0763 z m -3.475671,-1.02648 c 0.625806,-0.046 0.179751,-0.53121 0.05219,-0.86784 -0.125876,-0.46775 -0.914655,-0.29127 -0.679598,0.22117 0.0066,0.25046 0.368739,0.65937 0.627394,0.64667 z m -2.1464,-3.48698 c 0.619131,-0.0156 0.502267,-0.85839 0.255669,-1.22828 -0.19586,-0.14461 -0.670058,0.49258 -0.568783,0.80372 0.109928,0.12481 0.09953,0.46773 0.313114,0.42456 z m 6.91783,3.66169 c -0.652895,0.0995 -1.04932,-0.56224 -1.601533,-0.80692 -0.949114,-1.14811 -2.020006,-2.32794 -2.254536,-3.85448 -0.134052,-1.14282 0.05426,-2.31673 0.208399,-3.44388 0.238327,-0.39917 0.237866,-0.94032 0.723546,-1.14536 0.331792,-0.22281 0.771369,-0.6622 1.15635,-0.53589 0.382759,0.22565 0.824201,0.0791 1.008384,-0.31013 0.674389,-0.40822 1.375233,-0.96817 2.212156,-0.80404 0.595427,-0.0484 0.686008,0.68722 0.01381,0.35973 -0.474745,-0.22498 -0.878567,0.0495 -1.28914,0.27639 -0.236718,0.15704 -1.148982,0.41955 -0.623754,0.69806 0.332714,0.26742 0.610131,0.59072 0.989915,0.74234 0.615941,0.63937 1.526395,0.77944 2.366569,0.90152 -0.174928,-0.34831 -0.460613,-0.76543 -0.723518,-1.1126 -0.535908,-0.39243 0.479016,-0.61684 0.219387,-0.99397 -0.489598,0.0337 -0.541449,-0.53985 -0.13423,-0.65886 0.464712,-0.28726 1.01316,-0.23384 1.509187,-0.085 0.41024,0.29906 0.974252,0.4941 1.216555,0.89829 0.480855,0.50916 0.49453,0.11033 0.180696,-0.30579 0.08989,-0.37799 0.621376,-0.23043 0.90707,-0.41331 0.417801,0.0419 0.733726,-0.34076 1.172406,-0.20951 0.543099,-0.0855 0.871456,-0.19812 0.153392,-0.32586 -1.352081,-0.19929 -2.737544,-0.18484 -4.0985,-0.0603 -0.260856,-0.25222 0.01474,-0.68767 0.100186,-0.99795 0.332038,-0.46241 -0.559746,-0.30083 -0.797286,-0.48736 -0.536451,-0.34259 -0.62087,0.0831 -0.871124,0.43012 -0.409773,0.46965 -1.073838,0.27423 -1.619014,0.32841 -0.336564,-0.12623 -0.801284,-0.74713 -1.098244,-0.37717 -0.244994,0.6236 -0.384975,-0.39079 -0.75814,-0.43947 -0.434174,-0.15441 -0.487199,-0.48673 -0.876528,-0.46188 -0.328181,0.1303 -0.566434,0.342 -0.879782,0.43911 -0.209971,-0.4704 -0.04937,-0.8131 -0.06042,-1.24009 0.205667,-0.44562 0.179462,-0.67258 0.150372,-1.1369 0.456297,-0.24031 0.870564,-0.66274 1.423846,-0.48278 0.687549,0.0289 1.402928,0.12471 2.02525,0.40033 0.326238,0.18997 0.382107,0.20113 0.809676,0.36921 0.473866,0.0596 0.815592,0.33225 1.096669,0.70253 0.145773,0.41261 0.395323,0.65264 0.855936,0.69644 0.5885,-0.02 1.228297,0.093 1.788801,-0.0445 0.163933,-0.28679 -0.06249,-0.85928 -0.305922,-1.1399 -0.272,-0.55558 -0.571838,-0.12838 -0.876393,0.0402 -0.560712,-0.21241 -0.274165,-0.8717 -0.09963,-1.27516 0.346386,-1.09635 1.13882,-1.93284 1.822938,-2.82492 0.362887,-0.45946 0.739008,-1.06057 1.30889,-1.22894 0.553596,0.18393 1.11367,0.0843 1.673645,-0.0112 -0.166732,-0.28322 -0.86124,-0.0232 -1.214745,-0.26726 -0.41863,-0.067 -0.740864,-0.27019 -1.104423,-0.39505 -0.589186,-0.18165 -0.256078,-0.67059 0.02027,-0.98262 0.267336,-0.46303 0.781366,-0.53877 1.271913,-0.5128 0.523258,-0.29392 1.0239,-0.61839 1.596331,-0.76442 0.574806,-0.36567 1.4125,-0.0539 1.853205,-0.64032 0.490058,-0.24465 1.012617,-0.5984 1.561918,-0.5682 0.447987,0.16835 0.282574,0.78607 0.436011,1.1658 -0.21721,0.5068 0.397518,0.53397 0.674006,0.87867 0.388935,0.37152 0.870369,0.55447 1.091833,1.0572 0.242369,0.35527 0.549252,0.83174 0.498677,1.23415 -0.349314,0.26891 -0.977015,-0.11958 -1.276246,0.26761 0.06436,0.65584 0.56027,-0.12097 0.973384,0.12187 0.813784,-0.0256 1.609382,0.0725 2.38003,0.34069 0.333345,0.15314 0.986985,0.24421 0.994576,0.65591 -0.03183,0.4438 -0.428224,0.80706 -0.681989,1.16082 -0.336978,0.32411 -0.673954,0.64821 -1.010931,0.97232 0.120635,0.54827 0.497375,1.198 0.136506,1.71338 -0.750903,0.21402 -1.242309,0.88099 -1.80932,1.35091 -0.465488,0.17027 -0.540584,0.7524 -0.875058,1.08584 -0.394835,0.60204 -0.914128,1.17044 -1.620911,1.36913 -0.369361,-0.13247 -0.506134,0.23298 -0.953751,0.25762 -0.270261,-0.22116 -0.710943,0.0533 -0.904637,0.21962 -0.06085,0.33731 0.364003,0.52559 0.426557,0.73142 0.136789,0.19104 0.628232,0.44256 0.987519,0.51624 0.475509,0.0985 0.734779,-0.0243 0.819773,-0.29478 -0.0831,-0.31705 0.521186,-0.10409 0.692895,-0.47088 0.24307,-0.13266 0.560436,0.40611 1.009714,0.11045 0.549218,0.037 1.07377,-0.0676 1.522013,-0.4028 0.410656,0.11243 1.00515,-0.11123 1.281256,0.24715 0.261196,0.12213 0.685909,0.24459 1.099531,-0.0494 0.387143,-0.46038 1.119885,-0.71725 1.614949,-0.26795 0.343811,0.23085 0.682808,0.46983 1.05955,0.64509 0.205854,0.38408 -0.0775,0.84125 0.009,1.17401 0.388064,0.31105 0.159569,0.67906 -0.01774,0.95776 -0.412363,0.33879 0.460991,0.54463 0.319421,0.93127 -0.02087,0.41065 -0.477908,0.79103 -0.907826,0.71943 -0.52494,0.11846 -1.091239,-0.3641 -1.532481,0.0881 -0.374322,0.38217 -0.691214,0.12874 -0.968305,0.42297 -0.172927,0.12662 -0.618731,0.44639 -0.892735,0.17055 -0.270454,-0.15324 -0.677057,0.008 -0.877417,-0.19385 -0.216678,-0.39309 -0.842314,-0.007 -0.677262,5.2e-4 -0.270314,0.0473 -0.702449,-0.15569 -1.17661,-0.0991 -0.434953,0.16143 -0.582134,0.0728 -1.01915,-0.0432 -0.439826,-0.14664 -0.939055,-0.35729 -1.241371,-0.70386 -0.392596,-0.30439 0.02845,-0.75095 -0.140868,-0.8778 -0.361405,-0.0908 -0.633945,-0.36795 -0.95142,-0.55346 -0.419886,-0.13911 -0.691185,-0.69128 -1.123841,-0.78532 -0.190132,-0.36782 -0.755779,-0.49446 -0.772573,-0.81871 -0.628493,-0.0676 -1.169135,0.33898 -1.751167,0.51598 0.254867,0.80722 0.443262,1.62592 0.399915,2.47785 0.05551,0.43791 -0.163657,0.81194 -0.57057,0.97583 -0.52996,0.29743 -1.079877,0.56609 -1.590045,0.89705 -0.584144,-0.027 -0.527134,0.53331 -0.889869,0.6272 -0.169478,0.27904 -0.220962,0.78686 -0.590585,1.03964 -0.362929,0.3502 -0.869776,0.61561 -1.325926,0.80438 -0.468353,-0.21835 0.283693,-0.48221 0.43705,-0.69407 0.342623,-0.34564 0.886448,-0.67411 0.780984,-1.2321 -0.439601,-0.20326 -0.70818,-0.53184 -0.758529,-1.02031 0.02599,-0.52318 -0.329841,-0.51964 -0.621697,-0.81676 -0.16908,0.31276 -0.519076,0.54654 -0.66752,0.91263 -0.136138,0.40424 0.236391,0.8079 0.104037,1.24051 0.04091,0.97979 -0.07253,1.97323 -0.550003,2.84694 -0.08514,0.52809 -0.702027,0.47744 -1.111734,0.48241 z m 0.273745,-0.3681 c 0.229253,-0.29508 -0.562181,-0.37206 -0.733863,-0.65708 -0.466673,-0.36031 -1.014846,-0.63319 -1.3465,-1.1383 -0.688329,0.27039 0.106823,0.62769 0.35448,0.95291 0.459722,0.51803 1.030835,0.80987 1.725883,0.84247 z m -2.354001,-2.03168 c 0.33143,-0.0408 0.892008,-0.20073 0.761847,-0.63758 -0.229415,-0.32599 -0.326454,-0.81347 -0.638668,-1.15087 -0.216264,-0.4856 -0.650018,0.0315 -0.946534,0.15514 -0.245118,0.43771 0.290834,0.74444 0.387786,1.15567 0.125781,0.16137 0.157096,0.5573 0.435569,0.47764 z m 0.175053,-0.28986 c -0.401694,-0.15416 -0.483432,-0.60604 -0.652692,-0.95864 0.376501,-0.34836 0.711283,0.21426 0.832457,0.55217 0.203229,0.19707 -0.02733,0.31348 -0.179765,0.40647 z m 1.04093,-0.71501 c 0.49679,0.14288 0.656031,-0.49481 1.11832,-0.40981 0.390431,0.0393 0.957858,-0.23313 0.620257,-0.66591 -0.293453,-0.187 -0.574813,-0.60172 -0.953458,-0.60513 -0.420343,-0.10088 -0.697416,0.3518 -1.010744,0.44942 -0.440337,0.0245 -0.668914,0.49721 -0.316197,0.82586 0.163213,0.22116 0.201471,0.49731 0.541822,0.40557 z m -2.252149,-0.63358 c 0.315701,-0.31294 0.04248,-0.87762 0.108085,-1.29746 0.02046,-0.5737 -0.08115,-1.14213 -0.130729,-1.70097 0.184348,-0.36956 -0.108982,-1.08726 -0.222769,-0.37134 -0.198183,0.96318 -0.226987,1.96401 -0.155331,2.9337 0.133922,0.13557 0.166296,0.78785 0.400742,0.43607 z m 6.792838,-0.42167 c 0.349677,-0.18154 0.621145,0.0356 1.02692,-0.17561 0.200358,-0.19632 0.573481,-0.0487 0.917811,-0.30291 0.108566,-0.17265 -0.503976,-0.47485 0.128964,-0.24936 0.295815,-0.0794 0.807659,-0.15744 0.441011,-0.65884 -0.173825,-0.37697 -0.273723,-0.97042 -0.728887,-1.06137 -0.07954,0.44128 -0.370677,0.94681 -0.318033,1.34797 0.420063,0.5357 -0.173635,0.25783 -0.471023,0.39916 -0.119384,0.31634 -0.55278,0.41463 -0.936403,0.48432 -0.334814,-0.12093 -0.320914,0.20096 -0.06036,0.21664 z m -2.634551,-0.7409 c 0.440258,0.0916 0.816713,-0.37261 0.697968,-0.79383 0.0052,-0.34982 -0.433125,-0.6477 -0.09989,-1.05979 0.319616,-0.37994 -0.04853,-0.91999 -0.500288,-0.94228 -0.402312,-0.055 -0.913168,0.15804 -0.721989,-0.4665 -0.414585,-0.43906 -0.692203,0.3713 -0.604205,0.74685 -0.0904,0.57807 0.02833,1.19448 0.286797,1.69731 0.503354,0.11973 0.278601,0.80435 0.783995,0.8172 0.05253,3.4e-4 0.105079,6.9e-4 0.157614,0.001 z m 15.414784,-0.42899 c 0.468536,0.1028 0.915214,-0.15411 1.301936,-0.25038 0.393145,-0.47497 1.123313,-0.29321 1.681597,-0.29387 0.471496,-0.0827 0.80931,0.35354 1.090528,-0.17123 0.06976,-0.37919 -0.587257,-0.51978 -0.901387,-0.46878 -0.437197,0.0648 -0.958338,-0.0498 -0.277876,-0.28531 0.421783,-0.14505 0.787569,-0.24258 1.064315,-0.6436 -0.09397,-0.47036 -0.727019,-0.10981 -0.958634,0.11563 -0.402009,0.35286 -0.947841,0.2858 -0.262502,-0.0982 0.243057,-0.27207 0.884068,-0.43396 0.830199,-0.76396 0.33753,-0.43796 -0.232887,-0.88917 -0.487019,-0.32766 -0.343464,0.31593 -0.830111,0.55408 -1.287595,0.61905 0.125444,-0.55935 0.87963,-0.64871 1.237975,-0.99199 0.317924,-0.39786 0.150366,-0.92044 -0.41452,-0.68596 -0.769822,-0.0414 -1.36719,0.47949 -1.974111,0.8745 -0.39822,0.0457 -0.670048,-0.49648 -1.13016,-0.35128 -0.53201,-0.0135 -0.733035,0.30486 -0.543361,0.71824 0.308382,0.22082 0.442727,0.73958 0.365965,1.0926 -0.14208,0.41202 -0.107832,0.8736 -0.312531,1.24873 -0.258222,0.5076 0.166587,0.68595 0.62274,0.6559 0.118145,0.002 0.236293,0.006 0.354442,0.007 z m -3.142534,-0.10276 c 0.430253,-0.0215 0.908801,0.0652 1.188001,-0.33726 0.266635,-0.26416 0.372146,-0.46682 0.411943,-0.81269 0.235713,-0.3681 -0.138041,-0.81309 -0.209509,-1.1868 -0.09696,-0.42105 -0.40263,-0.76223 -0.791673,-0.93804 -0.404931,-0.1268 -0.956861,0.26227 -0.351596,0.54718 -0.0093,0.43441 0.291258,0.95094 -0.108178,1.27376 -0.183789,0.38308 -0.390609,0.66996 -0.714879,0.68822 -0.490562,0.10674 -0.0099,0.62176 0.158856,0.77125 0.13525,0.0142 0.279484,-0.007 0.417048,-0.006 z m -9.896232,-0.64593 c 0.512619,0.049 1.111651,-0.15375 1.20206,-0.71911 0.152153,-0.59818 -0.113639,-1.14117 -0.398306,-1.65565 -0.179023,-0.2637 -0.534979,-0.9118 -0.813556,-0.29843 -0.33388,0.34593 -0.434641,0.48618 -0.103947,0.92087 0.40469,0.36032 0.01781,0.83659 -0.428638,0.56175 -0.427089,-0.16606 -0.948565,-0.0261 -0.333973,0.24093 0.272894,0.30237 0.213726,1.06913 0.721841,0.95301 0.05149,-6.3e-4 0.103005,-0.001 0.154519,-0.004 z m 2.157644,-0.92628 c 0.454734,0.02 0.532562,-0.87869 0.260011,-0.95166 -0.563699,-0.16282 -0.591676,0.4207 -0.469245,0.81116 9.63e-4,0.21751 0.01084,0.19591 0.209234,0.1405 z m 6.504362,-0.14917 c 0.248733,-0.17136 0.702818,-0.54621 0.261315,-0.82919 -0.244475,-0.0694 -0.638883,-0.21456 -1.013629,-0.21689 -0.387063,-0.11326 -0.504584,-0.32816 -0.924202,-0.52013 -0.469369,-0.0121 -0.567265,-0.80986 -1.023044,-0.47919 -0.0782,0.3658 0.448016,0.66805 0.613835,0.93224 0.187751,0.34492 0.647303,0.24212 0.73844,0.67841 0.369408,4.4e-4 0.572403,0.42511 1.044017,0.3879 0.09884,0.0195 0.209238,0.0136 0.303267,0.047 z m -0.44219,-3.75428 c 0.649984,0.0456 1.058734,-0.61688 1.50134,-1.00297 0.506525,-0.12586 -0.649543,-0.18777 0.0037,-0.44183 -0.276174,-0.2256 -0.676906,0.0551 -0.985948,0.0736 -0.278621,0.15687 -0.689043,0.51304 -0.61221,0.90376 -0.343016,0.1809 -0.454114,0.53654 0.09307,0.46746 z M 71.127481,151.6866 c 0.680337,0.11824 0.423436,-0.55978 -0.114804,-0.43015 -0.410023,-0.21348 -0.288659,-0.77691 -0.312274,-1.18092 0.168463,-0.34222 1.038046,-0.13603 0.832579,-0.41253 -0.391069,-0.12263 -0.740056,-0.15469 -1.114392,-0.0422 -0.234887,0.22045 -0.491374,0.67923 -0.493845,1.04867 -0.07817,0.39269 0.0878,0.81148 0.527619,0.85709 0.220964,0.0963 0.427155,0.19205 0.675112,0.16007 z m -1.876603,-0.2971 c 0.308679,-0.1072 -0.01056,-0.75467 0.325624,-0.93839 0.06159,-0.11867 -0.145529,-0.51618 0.30155,-0.85294 0.458052,-0.2831 0.185741,-0.67885 -0.276704,-0.5936 -0.434364,-0.19281 -0.950421,-0.27825 -1.410472,-0.2535 -0.175719,0.22609 -0.96728,0.18501 -0.678382,0.46979 0.440654,0.28429 -0.576664,0.54854 -0.11589,0.89546 -0.27722,0.44917 0.07541,0.78203 0.420839,0.34597 0.421386,-0.2474 0.858612,0.26865 1.081743,0.60934 0.121383,0.0916 0.16899,0.35705 0.351697,0.31787 z m 4.417224,-0.1204 c 0.626787,-0.0699 -0.01609,-0.49935 -0.372564,-0.44596 -0.340675,0.0263 -1.064676,-0.46273 -1.117133,0.0361 0.472062,0.14243 0.987805,0.34276 1.489697,0.40984 z m 4.120059,-0.80721 c 0.806453,-0.15631 1.677507,-0.12927 2.433414,-0.4516 0.419588,-0.33559 -0.55011,-0.29841 -0.772492,-0.17783 -0.724878,0.079 -1.469285,0.25262 -2.184891,0.25306 -0.38166,-0.30606 -0.532046,-0.84465 -0.508249,-1.33593 -0.03335,-0.77727 -0.268985,0.0579 -0.28772,0.38999 0.03508,0.36057 0.03704,0.89964 0.231611,1.16057 0.362872,0.039 0.722368,0.2272 1.088327,0.16174 z m -4.838079,-1.41886 c -0.385602,0.0346 -1.157531,0.0272 -1.045477,-0.54468 0.199224,-0.72533 0.695616,-1.3904 1.210772,-1.93703 0.32845,-0.29828 0.811028,-0.48752 1.236914,-0.46274 0.128897,0.25885 -0.471389,0.71869 -0.600654,1.06905 -0.39989,0.54523 -0.397678,1.25565 -0.656633,1.84177 l -0.07413,0.0172 z m 1.976446,-3.48045 c -0.610476,-0.24689 -1.28884,-0.53617 -1.960728,-0.60529 -0.406143,-0.084 -0.98422,0.19649 -1.250851,-0.18291 0.524085,-0.90321 1.564623,-1.23794 2.419979,-1.73966 0.494525,-0.48229 1.212712,-0.5832 1.826827,-0.851 0.03088,0.3491 -0.452092,0.6664 -0.477341,1.0695 0.03969,0.34775 0.755058,0.33859 0.807343,0.665 -0.371405,0.57719 -0.889771,1.07612 -1.292852,1.6431 l -0.07235,0.002 z"
       id="sonic-left" />
    <path
       style="fill:none;stroke:#000000;stroke-width:0.273808;stroke-linecap:round;stroke-linejoin:miter;stroke-miterlimit:4;stroke-dasharray:none;stroke-opacity:1"
       d="M 94.61625,87.279832 C 94.247438,86.945679 93.799558,86.797176 93.346419,86.61429 l -0.690499,-1.623389 -0.679785,1.606324 c 0.468365,-0.0504 0.925333,-0.04573 1.370284,0.01715 -0.461174,-0.04793 -0.916112,-0.03619 -1.370284,-0.01715 -0.852632,0.413573 -1.493337,0.99395 -1.814851,1.771109 l -0.24693,0.379034 -1.564241,0.835144 1.685771,0.784484 c -0.231572,-0.604686 -0.08238,-1.20298 -0.12153,-1.619628 -0.05251,0.506833 7.54e-4,1.051275 0.12153,1.619628 0.428283,0.951244 1.146131,1.379758 2.031358,1.848628 l 0.854009,1.740679 0.833313,-1.797649 c -0.576841,0.195797 -1.098828,0.122572 -1.687322,0.05697 0.569561,0.0677 1.131502,0.07088 1.687322,-0.05697 0.789357,-0.56895 1.561517,-1.303302 1.877791,-2.203474 l 1.499416,-0.727379 -1.498405,-0.638999 c 0.109881,0.461062 0.04644,0.903048 -9.27e-4,1.366379 0.02749,-0.463161 0.05216,-0.876428 9.27e-4,-1.366379 -0.119664,-0.242688 -0.33063,-0.520256 -0.503184,-0.736933"
       id="bomb-11"
       sodipodi:nodetypes="ccccccccccccccccccccccc" />
    <path
       style="fill:#000000;stroke-width:0.0778079"
       d="m 108.64445,176.93843 c -0.16074,-0.033 -0.30052,-0.0741 -0.31062,-0.0916 -0.16856,-0.29046 -0.21024,-0.43701 -0.20829,-0.73217 0.007,-0.43566 -0.40187,-0.25632 -1.033,-0.3173 -0.92267,-0.057 -0.97455,-0.0525 -0.9417,0.0826 0.0191,0.0786 -0.012,0.29619 -0.0679,0.48339 -0.0936,0.31039 -0.13534,0.35054 -0.47416,0.45622 -0.31875,0.0994 -0.43243,0.10085 -0.80001,0.0101 -0.53469,-0.13201 -0.64582,-0.21509 -0.68086,-0.50903 -0.0577,-0.29781 -0.058,-0.75416 -0.29843,-0.82483 -0.36864,-0.10391 -0.88628,-0.48401 -1.08708,-0.79824 -0.20172,-0.31564 -0.22801,-0.65588 -0.18496,-2.39451 0.0292,-1.18146 0.0324,-1.20584 0.15456,-1.20503 0.0934,6.2e-4 0.11294,0.10196 0.0979,0.50641 -0.0996,0.80557 -0.013,1.36574 0.15029,2.05161 0.45576,1.49396 4.83352,1.26346 5.05647,1.26714 1.17058,0.018 1.88895,-0.006 2.27252,-0.0752 0.47744,-0.0155 0.59309,-0.25105 0.84703,-0.51325 0.52276,-0.48451 0.46571,-0.73634 0.50856,-1.34917 0.0351,-0.49661 0.0176,-0.70017 -0.0597,-0.70068 -0.037,-2.5e-4 -0.18641,0.10219 -0.33202,0.22765 -0.14563,0.12544 -0.39428,0.24909 -0.55256,0.27476 -0.15828,0.0256 -0.32943,0.0962 -0.38032,0.1567 -0.84901,0.51273 -2.71525,0.55053 -3.54484,0.0483 -0.0903,-0.0594 -0.35244,-0.12715 -0.58258,-0.15053 -0.55755,-0.0566 -1.16815,-0.20679 -1.31142,-0.32252 -0.0639,-0.0515 -0.20335,-0.13641 -0.31,-0.18854 -0.83945,-0.41029 -1.5991,-1.28458 -1.65038,-1.89945 -0.0142,-0.17032 -0.0431,-0.32728 -0.0644,-0.34881 -0.0514,-0.052 0.0776,-0.70684 0.17199,-0.87292 0.0792,-0.13941 0.33339,-0.42985 0.9319,-1.0649 0.26539,-0.28161 0.51662,-0.45157 0.89552,-0.60586 0.29213,-0.11896 0.52694,-0.26253 0.52734,-0.3224 3.9e-4,-0.0593 0.0358,-0.10773 0.0785,-0.10745 0.0428,2.8e-4 0.0781,-0.0386 0.0784,-0.0863 3.2e-4,-0.0478 0.13278,-0.22172 0.29435,-0.38655 0.16158,-0.16481 0.39164,-0.40739 0.51128,-0.53903 0.20429,-0.22485 0.24455,-0.2372 0.66271,-0.20339 0.24488,0.0198 0.55796,0.0849 0.69575,0.14456 0.23081,0.10003 0.26298,0.0953 0.40888,-0.0592 0.0871,-0.0923 0.15874,-0.22173 0.15918,-0.28772 4.3e-4,-0.0659 0.0335,-0.11974 0.0733,-0.11948 0.0945,6.2e-4 0.19904,-0.30608 0.17129,-0.50235 -0.0119,-0.0845 -0.13969,-0.27658 -0.28392,-0.42704 -0.25735,-0.26847 -0.27422,-0.2737 -0.90595,-0.28062 -0.41997,-0.005 -0.75174,0.0361 -0.95444,0.11703 -0.93446,0.37306 -1.63831,0.52096 -2.71447,0.5704 -0.5838,0.0268 -0.75322,0.005 -1.10786,-0.14149 -0.38848,-0.16067 -0.54549,-0.31154 -0.32269,-0.31007 0.1705,0.001 1.18345,-0.3143 1.491,-0.46429 0.16507,-0.0805 0.34931,-0.14604 0.40947,-0.14564 0.0601,4e-4 0.10955,-0.0302 0.1098,-0.068 2.5e-4,-0.0378 0.0789,-0.0887 0.17466,-0.11306 0.16476,-0.0419 0.16661,-0.05 0.0342,-0.14817 -0.13508,-0.1002 -0.13496,-0.11257 0.003,-0.34978 0.15744,-0.27019 0.43366,-0.45257 0.56279,-0.37159 0.0498,0.0312 -0.0146,0.13744 -0.1624,0.26778 -0.33171,0.29246 -0.23613,0.44795 0.15349,0.24968 0.25747,-0.13102 0.56257,-0.40655 0.56325,-0.50867 1.3e-4,-0.0209 -0.0559,-0.0385 -0.12468,-0.0389 -0.13815,-9.1e-4 -0.58291,-0.35135 -0.56885,-0.44822 0.0197,-0.13527 -0.22742,-0.21025 -0.40616,-0.12327 -0.26371,0.12833 -0.66032,0.19066 -0.84065,0.13211 -0.13265,-0.0431 -0.15658,-0.11772 -0.15418,-0.48097 0.002,-0.36454 0.0266,-0.43601 0.15872,-0.46963 0.18246,-0.0465 0.21074,-0.17679 0.0386,-0.17792 -0.0899,-6e-4 -0.10521,-0.052 -0.0641,-0.21439 0.0939,-0.37075 0.24842,-0.52385 0.63253,-0.62675 0.6305,-0.16887 0.83268,-0.25804 1.05405,-0.46487 0.11722,-0.10953 0.21426,-0.22359 0.21564,-0.25348 0.001,-0.0299 0.0889,-0.14628 0.19442,-0.25865 0.19228,-0.20475 0.35546,-0.20015 0.35407,0.0103 -4.1e-4,0.0616 0.0344,0.11236 0.077,0.11265 0.59094,0.98405 0.96804,2.24289 1.70039,2.98764 0.20934,0.20272 0.39853,0.13988 0.66281,0.0994 0.36414,-0.0557 0.27807,0.1447 -0.0205,0.42429 l -0.20037,0.18764 0.29654,0.18219 c 0.16309,0.10018 0.35153,0.18274 0.41876,0.1834 0.0672,6.8e-4 0.27923,0.15364 0.47113,0.33995 0.5084,0.49361 0.60542,1.02165 0.29597,1.61077 -0.0336,0.064 -0.15463,0.28201 -0.26897,0.48453 -0.11432,0.20252 -0.17477,0.36844 -0.13432,0.36871 0.0404,2.7e-4 0.11146,-0.0693 0.15782,-0.15457 0.0463,-0.0853 0.15057,-0.15463 0.23154,-0.15409 0.15845,0.001 0.47201,-0.339 0.47316,-0.51313 3.9e-4,-0.0583 0.0358,-0.106 0.0785,-0.10571 0.10155,6.7e-4 0.10705,-0.83134 0.006,-0.89477 -0.15541,-0.0974 -0.0705,-0.19499 0.16828,-0.19342 0.27947,0.002 1.02371,0.46607 1.159,0.72293 0.0475,0.0901 0.0694,0.32884 0.0487,0.53043 -0.0305,0.29601 -0.0105,0.3839 0.10493,0.45688 0.12799,0.0811 0.14092,0.19973 0.12628,1.15946 -0.009,0.588 0.008,1.19655 0.037,1.35232 -0.10821,0.3511 0.0127,0.61775 0.005,0.96108 -0.009,0.30332 -0.0411,0.39344 -0.14771,0.41323 -0.1154,0.0214 -0.13696,-0.0383 -0.14039,-0.38894 -0.002,-0.22783 -0.0123,-0.93951 -0.0225,-1.58151 -0.0102,-0.64199 -0.0202,-1.29858 -0.0226,-1.45907 -0.005,-0.33507 -0.13295,-0.38108 -0.36272,-0.13016 -0.32085,0.35038 -1.29985,0.68293 -1.63006,0.55371 -0.0707,-0.0277 -0.15944,-0.13325 -0.19722,-0.23466 -0.0726,-0.19507 -0.25902,-0.24611 -0.35277,-0.0966 -0.0309,0.0493 0.0101,0.13737 0.0914,0.19662 0.36355,0.2649 0.39857,0.3227 0.37691,0.622 -0.0266,0.36853 -0.12461,0.75327 -0.2052,0.80612 -0.033,0.0217 -0.083,0.12871 -0.11118,0.23802 -0.0473,0.18351 -0.0105,0.21858 0.47709,0.45795 0.29063,0.14256 0.59819,0.29746 0.68346,0.34419 0.0853,0.0468 0.25032,0.13391 0.36677,0.1937 0.11645,0.0598 0.23309,0.14382 0.25921,0.18674 0.0261,0.0428 0.13142,0.11052 0.23399,0.15031 0.10256,0.0398 0.18613,0.12569 0.1857,0.19094 -4.3e-4,0.0652 0.0272,0.11882 0.0615,0.11905 0.0792,5.2e-4 0.42047,0.7084 0.36692,0.76125 -0.022,0.0218 -0.007,0.10166 0.0328,0.17766 0.0474,0.0899 0.0415,0.22625 -0.017,0.39011 -0.0654,0.18375 -0.0668,0.28916 -0.006,0.38948 0.0918,0.65293 -0.0726,1.12417 -0.0821,1.77797 -0.005,0.44046 -0.0448,0.65557 -0.15837,0.84678 -0.0837,0.14096 -0.15287,0.31558 -0.15356,0.38803 -0.002,0.24569 -0.34726,0.55639 -0.78236,0.70474 -0.23591,0.0804 -0.43355,0.18391 -0.4392,0.22995 -0.005,0.0461 -0.0155,0.21985 -0.022,0.38624 -0.0186,0.47938 -0.19746,0.62813 -0.79217,0.65871 -0.27827,0.0143 -0.63746,-2.1e-4 -0.79819,-0.0339 z m 0.97799,-0.68313 c 0.0752,-0.0638 0.13737,-0.18064 0.13789,-0.25959 8.5e-4,-0.12826 -0.0694,-0.14402 -0.66042,-0.14792 -0.50211,-0.003 -0.66151,0.0208 -0.66203,0.10029 -0.001,0.16758 0.25319,0.35444 0.58464,0.42955 0.32506,0.0736 0.3824,0.0619 0.59992,-0.12233 z m -4.04914,-0.1402 c 0.14222,-0.21681 0.0248,-0.3292 -0.40173,-0.38424 -0.23388,-0.0301 -0.46101,-0.0316 -0.50471,-0.003 -0.11638,0.0754 -0.10874,0.46967 0.008,0.42566 0.37942,0.17243 0.71057,0.21362 0.89819,-0.0381 z m 3.17222,-3.11713 c 0.0776,-0.11056 0.19403,-0.25893 0.2587,-0.32974 0.12469,-0.27334 0.29365,-0.65842 0.25587,-0.94623 -0.0383,-0.27303 -0.29119,-0.47129 -0.79018,-0.61936 -0.19222,-0.057 -0.45077,-0.13529 -0.57458,-0.17392 -0.38652,-0.12055 -0.67203,-0.0858 -0.82991,0.10086 -0.0809,0.0958 -0.14856,0.20228 -0.15019,0.23671 -0.002,0.0345 -0.0693,0.20905 -0.15037,0.38804 -0.20131,0.44465 -0.14702,0.86063 0.13933,1.06738 0.24269,0.0964 0.42152,0.31224 0.63862,0.32239 0.13905,0.005 0.34017,0.0381 0.44693,0.0731 0.38446,0.12593 0.60854,0.0905 0.75579,-0.11913 z m -1.38177,-0.51571 c -0.2876,-0.3634 -0.20539,-0.76965 0.0947,-1.04364 0.1444,-0.12897 0.19567,-0.13239 0.56437,-0.0377 0.70771,0.18165 0.85715,0.45948 0.60106,1.11741 -0.0781,0.20072 -0.11142,0.21325 -0.55952,0.21029 -0.43266,-0.003 -0.49704,-0.0255 -0.70059,-0.24629 z m 0.9606,-0.0827 c 0.0697,-0.053 0.13377,-0.14891 0.14221,-0.21305 0.0398,-0.30137 -0.0121,-0.36241 -0.39198,-0.46248 -0.47328,-0.12463 -0.62004,-0.0431 -0.62262,0.34637 -0.001,0.22712 0.0307,0.27016 0.25068,0.33525 0.35589,0.1053 0.47672,0.10412 0.62171,-0.006 z m 1.62607,0.37205 c 0.93157,-0.22984 1.3614,-0.51169 1.60836,-1.05464 0.2275,-0.50018 0.0282,-0.49158 -0.47239,0.0204 -0.35524,0.35875 -0.85249,0.60979 -1.34718,0.61269 -0.25545,-0.001 -0.33736,0.0349 -0.4189,0.18482 -0.0989,0.1818 -0.0647,0.35713 0.0697,0.35802 0.0369,2.4e-4 0.28896,-0.0543 0.56034,-0.12129 z m -3.5402,-0.32735 c 0.0745,-0.19026 -0.0948,-0.31777 -0.57145,-0.43059 -0.77939,-0.15773 -2.37028,-1.18143 -2.49887,-1.73624 0.001,-0.15913 -0.14001,-0.0557 -0.1767,0.12946 0.16117,0.92073 1.45437,1.68691 2.26276,2.0027 0.46598,0.17142 0.92442,0.18757 0.98426,0.0347 z m 2.99925,-1.691 c 0.0273,-0.1282 0.10953,-0.346 0.18257,-0.48398 0.0746,-0.14095 0.12385,-0.37856 0.11238,-0.54228 -0.0174,-0.24862 -0.0657,-0.31746 -0.32901,-0.46887 -0.37758,-0.21718 -0.35958,-0.21658 -0.58952,-0.0194 -0.22107,0.18956 -0.65235,0.37788 -0.86226,0.37649 -0.15653,-0.001 -0.2765,0.22575 -0.34813,0.65804 l -0.0415,0.2498 0.6437,0.17777 c 0.35404,0.0978 0.69601,0.20901 0.75996,0.24715 0.22102,0.13184 0.41947,0.0499 0.47171,-0.1947 z m -1.05533,-1.56046 c 0.21928,-0.16387 0.10434,-0.24801 -0.40684,-0.29777 -0.82972,-0.0808 -0.78756,-0.2798 0.0604,-0.28533 0.76556,-0.005 1.24517,-0.39001 1.23239,-0.98929 -0.005,-0.24067 -0.0413,-0.30068 -0.21936,-0.36469 -0.17869,-0.0642 -0.24027,-0.048 -0.38013,0.10016 -0.14421,0.15274 -0.21581,0.16971 -0.52629,0.1247 -0.80777,-0.11709 -0.98955,-0.36554 -0.58365,-0.79777 l 0.20016,-0.21313 -0.17838,-0.13913 c -0.1165,-0.0909 -0.31687,-0.14067 -0.57762,-0.14351 -0.37062,-0.004 -0.41536,0.0164 -0.62436,0.28593 -0.16373,0.2111 -0.23661,0.40696 -0.26724,0.71797 -0.0324,0.32848 -0.069,0.42083 -0.15826,0.39817 -0.24648,-0.0626 -0.3308,-0.0469 -0.41258,0.0775 -0.226,0.34351 0.48591,1.32972 1.10265,1.52749 0.40839,0.13094 1.56323,0.13009 1.73907,-0.001 z m 2.21272,-2.59195 c 0.3601,-0.15315 0.69997,-0.45928 0.77853,-0.70127 0.0861,-0.26513 -0.005,-0.25918 -0.32498,0.0213 -0.16524,0.14489 -0.4585,0.30541 -0.65168,0.35668 -0.4274,0.11345 -0.7464,0.33533 -0.66776,0.46446 0.0674,0.11073 0.40213,0.0563 0.86589,-0.14101 z m -7.60295,1.8396 c 0.001,-0.12083 0.0537,-0.40784 0.11663,-0.63782 0.0628,-0.22998 0.13995,-0.61334 0.17137,-0.85191 0.0531,-0.40351 0.21752,-0.71165 0.32278,-0.60499 0.025,0.0254 -8.7e-4,0.26568 -0.0574,0.53409 -0.0566,0.26841 -0.11429,0.6105 -0.12808,0.76018 -0.0574,0.62431 -0.15943,0.97031 -0.29323,0.99516 -0.10167,0.0189 -0.13372,-0.0285 -0.13192,-0.19471 z m 1.72039,-1.43808 c -0.10665,-0.0507 -0.22876,-0.11982 -0.27131,-0.1535 -0.0425,-0.0337 -0.22782,-0.16857 -0.41161,-0.29971 -0.18383,-0.13115 -0.31954,-0.28024 -0.30159,-0.33132 0.0179,-0.051 0.006,-0.1873 -0.0252,-0.30272 -0.0471,-0.17117 -0.0155,-0.25343 0.17122,-0.44627 0.21321,-0.22018 0.26683,-0.23617 0.7801,-0.23278 0.43333,0.003 0.59364,-0.0294 0.75,-0.15067 0.22019,-0.17086 0.64643,-0.20039 0.86777,-0.0601 0.18167,0.11512 0.80303,-0.0238 1.08494,-0.24254 0.29231,-0.22681 0.53775,-0.19089 0.7148,0.10463 0.1599,0.26689 0.15533,0.47954 -0.0161,0.75008 -0.12461,0.19661 -0.11591,0.19586 -0.53325,0.0455 -0.70455,-0.25383 -1.04591,-0.10502 -1.91005,0.83286 -0.2992,0.32472 -0.58043,0.58779 -0.62494,0.5846 -0.0446,-0.003 -0.16821,-0.0474 -0.27488,-0.0981 z m 0.53179,-0.45143 c 0.0185,-0.0942 -0.0845,-0.16475 -0.38666,-0.265 -0.2265,-0.0752 -0.4449,-0.16759 -0.4853,-0.2054 -0.10033,-0.0939 -0.35345,-0.0887 -0.35409,0.008 -5.4e-4,0.0822 0.1702,0.25981 0.47383,0.49276 0.23051,0.17685 0.71545,0.15778 0.75222,-0.0296 z m 6.14018,-2.26146 c -0.11283,-0.78784 -0.32254,-0.96506 -1.31673,-1.11268 -0.86341,-0.12823 -0.91509,-0.1439 -0.87197,-0.26452 0.0478,-0.13341 1.05839,-0.0794 1.52167,0.0813 0.321,0.11136 0.77308,0.48719 0.79636,0.66203 0.0148,0.11088 0.0454,0.22385 0.0667,0.2451 0.0108,0.0109 0.031,0.0897 0.0451,0.17536 0.014,0.0857 0.0475,0.25222 0.0745,0.37009 0.0409,0.17926 0.0235,0.21413 -0.10689,0.21327 -0.12622,-8.3e-4 -0.16591,-0.0712 -0.20869,-0.36995 z m 3.18892,-0.004 c -0.12814,-0.0384 -0.44,-0.17724 -0.69303,-0.3088 -0.25305,-0.13157 -0.53577,-0.23971 -0.62829,-0.24032 -0.0925,-6.1e-4 -0.23112,-0.0715 -0.30802,-0.15767 -0.0769,-0.0861 -0.17985,-0.15679 -0.2288,-0.15711 -0.0489,-3.3e-4 -0.17392,-0.14028 -0.27767,-0.311 -0.13504,-0.22213 -0.2424,-0.31134 -0.37766,-0.31373 -0.10394,-0.002 -0.43143,-0.0832 -0.72775,-0.1808 -0.47412,-0.15616 -0.61126,-0.25042 -1.14272,-0.78534 l -0.60395,-0.60789 -0.25038,0.36764 c -0.25927,0.29613 -0.56603,0.8547 -0.94589,0.86633 -0.15561,9.8e-4 -0.26733,-0.0862 -0.46447,-0.36156 -0.14277,-0.19946 -0.35518,-0.46617 -0.47203,-0.59266 -0.38708,-0.77082 -0.94958,-1.51289 -1.21526,-2.36443 -0.0303,-0.10907 0.0787,-0.31975 0.36285,-0.70123 0.42947,-0.57666 0.68714,-0.99969 0.6138,-1.00018 -0.0579,-3.8e-4 -0.5122,0.35719 -0.61302,0.45784 -0.38558,0.57696 -0.94601,1.05123 -1.29185,1.69228 -0.17402,0.33413 -0.34086,0.41511 -0.58346,0.2832 -0.28605,-0.33708 -0.61851,-0.64311 -0.81522,-1.0369 -0.3163,-0.60786 -0.34624,-1.21484 -0.49913,-1.84815 -0.0678,-0.27816 -0.1351,-0.6043 -0.14953,-0.72479 -0.0329,-0.27438 -0.19613,-0.82977 -0.32751,-0.83064 -0.21086,0.40356 -0.002,0.88332 0.0257,1.26699 0.14241,0.52971 0.73083,2.64648 1.22153,3.12829 0.24369,0.21432 0.18282,0.34192 -0.26578,0.55722 -0.24471,0.11745 -0.49771,0.25504 -0.56225,0.30576 -0.0645,0.0508 -0.34284,0.26816 -0.6185,0.48317 -0.27566,0.21502 -0.5614,0.48852 -0.635,0.60775 -0.17793,0.28827 -0.53759,0.52009 -0.6423,0.41398 -0.11998,-0.12157 -0.35914,-0.89483 -0.30397,-0.98279 0.0267,-0.0425 0.056,-0.27961 0.0653,-0.52694 0.0159,-0.42278 0.006,-0.44975 -0.16411,-0.45087 -0.33805,-0.002 -0.57296,0.1603 -0.62599,0.43311 -0.0489,0.25122 0.0786,0.497 0.25829,0.49819 0.0392,2.6e-4 0.13356,0.0702 0.20965,0.15539 0.12694,0.14212 0.1277,0.1589 0.009,0.20344 -0.21376,0.0804 -0.58866,-0.12548 -0.64106,-0.35202 -0.0261,-0.11244 -0.0812,-0.24798 -0.12242,-0.30119 -0.175087,-0.22544 0.2394,-0.86316 0.57345,-0.88231 0.0836,-0.004 0.18721,-0.0173 0.23007,-0.0277 0.043,-0.0105 0.12673,-0.0231 0.18639,-0.028 0.13289,-0.011 0.21507,-0.20063 0.15554,-0.35885 -0.0844,-0.22425 -1.07066,-0.0763 -1.23468,0.18518 -0.02719,0.0433 -0.10302,0.0783 -0.168618,0.0779 -0.102078,-6.7e-4 -0.09837,-0.036 0.02571,-0.24434 0.111127,-0.18673 0.235854,-0.26679 0.534654,-0.34319 0.21433,-0.0547 0.49476,-0.10156 0.62317,-0.10394 0.2461,-0.004 0.5597,-0.31732 0.46845,-0.46717 -0.0265,-0.0436 -0.26452,-0.0742 -0.52893,-0.0682 -0.26441,0.006 -0.73936,-0.034 -1.055466,-0.0887 -0.68919,-0.11944 -0.941395,-0.0771 -0.942951,0.15843 -0.0022,0.33356 -0.479738,1.12424 -0.624246,1.03361 -0.05364,-0.0337 4.88e-4,-0.20717 0.153532,-0.49309 0.129962,-0.24266 0.236891,-0.51996 0.237617,-0.61624 7.31e-4,-0.0963 0.07591,-0.24866 0.167058,-0.33862 0.141205,-0.13936 0.2248,-0.15623 0.564872,-0.11405 0.843574,0.10467 2.156474,0.16248 2.140924,0.0943 -0.009,-0.0387 0.0253,-0.16851 0.0758,-0.28865 0.0504,-0.12014 0.0921,-0.26242 0.0925,-0.31619 3.6e-4,-0.0538 0.0686,-0.23486 0.15167,-0.40243 0.12872,-0.25972 0.13451,-0.31416 0.0391,-0.36886 -0.0739,-0.0425 -0.19275,0.003 -0.35038,0.13384 -0.37075,0.26899 -0.5202,0.51652 -0.84091,0.81654 -0.26111,0.24626 -0.4669,0.2814 -0.84972,0.14511 -0.194567,-0.0692 -0.237594,-0.12843 -0.241701,-0.3323 -0.0031,-0.1364 -0.01832,-0.4932 -0.03452,-0.79287 0.06257,-1.27543 0.290093,-3.08567 0.983153,-3.97913 0.0689,-0.0756 0.23531,-0.34683 0.36965,-0.60272 0.35473,-0.6757 0.53309,-0.98876 0.62194,-1.0916 0.0431,-0.0498 0.13147,-0.17347 0.19633,-0.27458 0.1769,-0.27572 0.86089,-0.9181 0.97677,-0.91734 0.0557,3.7e-4 0.1845,-0.0676 0.2861,-0.15114 l 0.18469,-0.15181 -0.21396,-0.004 c -0.25933,-0.006 -0.27083,-0.12237 -0.0524,-0.53489 0.24129,-0.52792 0.76005,-1.87833 1.4131,-1.94834 0.10792,4.6e-4 0.37425,0.22881 0.70297,0.60271 0.0685,0.078 0.18499,0.27337 0.25887,0.43434 0.12177,0.26533 0.246,0.34404 0.46672,0.29574 1.04034,-0.31608 3.17062,-0.50299 3.95513,0.11103 0.25381,0.0817 0.37155,0.26939 0.54937,0.40213 0.17539,0.12924 0.21649,0.12694 0.91216,-0.0509 0.44692,-0.11424 0.94725,-0.18533 1.29452,-0.18394 0.5366,0.002 0.56991,0.0128 0.6406,0.20237 0.13773,0.40132 -0.27813,2.64042 -0.59966,2.97558 -0.0815,0.0805 -0.0918,0.16112 -0.0385,0.3042 0.0399,0.10708 0.0889,0.33218 0.10891,0.50021 0.15664,0.66151 0.21411,1.31986 0.15347,1.94329 -0.0569,0.55375 -0.19455,1.01473 -0.50655,1.69667 -0.39024,0.85294 -0.52486,1.07779 -0.81962,1.36895 -0.16512,0.16311 -0.30158,0.32804 -0.30324,0.36654 -0.002,0.0385 -0.17486,0.22991 -0.38488,0.42542 -0.65475,0.60939 -0.92317,0.77978 -1.22523,0.77779 -0.18637,-0.001 -0.42241,-0.15631 -0.42161,-0.27699 1.9e-4,-0.0286 -0.0775,-0.16287 -0.17281,-0.29849 -0.0952,-0.13562 -0.16207,-0.24652 -0.14852,-0.24643 0.0136,9e-5 -0.0178,-0.10516 -0.0696,-0.23388 -0.0519,-0.12873 -0.1581,-0.52122 -0.15098,-0.55327 0.007,-0.0322 0.0357,0.32444 -0.007,0.32416 -0.11918,-7.9e-4 -0.0833,0.11405 0.0913,0.66323 0.17766,0.5588 0.47146,0.93022 0.73721,0.93198 0.31871,0.002 0.58549,-0.14398 1.08818,-0.59583 0.3804,-0.34195 0.56989,-0.3314 0.30284,0.0169 -0.0632,0.0826 -0.11554,0.19753 -0.11592,0.25527 -7.2e-4,0.11021 -0.31204,0.58374 -0.41265,0.62767 -0.10267,0.0448 -0.0642,0.20765 0.0771,0.32687 0.0753,0.0635 0.27564,0.21949 0.44512,0.34664 0.16949,0.12714 0.3351,0.27568 0.36802,0.33007 0.0697,0.11523 0.54331,0.26276 0.852,0.26542 0.21468,0.002 0.28346,-0.13079 0.14249,-0.27485 -0.18074,-0.1847 -0.2532,-1.59608 -0.10583,-2.06139 0.0482,-0.15195 0.44298,-0.38351 0.65162,-0.38213 0.088,5.8e-4 0.19487,0.045 0.23752,0.0989 0.39377,0.49661 0.60125,0.70952 0.78624,0.80671 0.54685,0.23982 0.46344,0.0198 0.82947,-0.10888 0.16085,-0.0554 0.36289,-0.16254 0.44899,-0.23799 0.41354,-0.36242 0.93602,-0.61509 1.26743,-0.6129 0.41571,-0.001 0.71527,0.49929 0.52848,0.82049 -0.1262,0.20924 -0.11342,0.38642 0.0287,0.39674 0.0642,0.004 0.1888,0.0143 0.27697,0.0214 0.20957,0.0169 0.48476,0.28088 0.54342,0.52132 0.0295,0.12083 -0.0171,0.31986 -0.12715,0.54344 -0.16465,0.33448 -0.167,0.36313 -0.0451,0.55185 0.13845,0.21439 0.17043,0.51602 0.0832,0.78471 -0.03,0.0924 -0.0183,0.19054 0.0263,0.21838 0.12967,0.0814 0.092,0.19708 -0.0639,0.19605 -0.079,-5.2e-4 -0.20454,-0.0692 -0.27908,-0.15269 -0.12505,-0.14003 -0.12581,-0.16542 -0.01,-0.32862 0.17438,-0.24549 0.15899,-0.37237 -0.0752,-0.62007 l -0.20236,-0.21404 0.15441,-0.21849 c 0.0849,-0.12018 0.19269,-0.32918 0.23947,-0.46445 0.12102,-0.34984 -0.0409,-0.46773 -0.7035,-0.51221 -0.6224,-0.0418 -0.81919,-0.20068 -0.44156,-0.35652 0.17063,-0.0705 0.25145,-0.17485 0.31595,-0.4082 0.10902,-0.39447 0.0643,-0.46584 -0.29348,-0.46785 -0.27227,-0.001 -0.68774,0.18884 -0.92656,0.42453 -0.0599,0.0591 -0.21322,0.16821 -0.34058,0.24231 -0.12737,0.0741 -0.25284,0.20021 -0.27884,0.28023 -0.0399,0.12265 -0.10397,0.13906 -0.40908,0.1046 -0.76916,-0.0869 -0.95187,-0.18701 -1.28644,-0.70505 -0.15878,-0.24586 -0.43043,-0.28263 -0.63035,-0.0854 -0.11172,0.11026 -0.12646,0.23925 -0.0944,0.8264 0.0455,0.83211 0.11723,0.94323 0.42272,0.65439 0.20902,-0.19762 0.25936,-0.20785 0.99814,-0.20297 0.72711,0.005 0.8015,0.0203 1.13689,0.23606 0.37802,0.24325 0.57798,0.49001 0.64587,0.79702 0.13601,0.61871 0.0185,1.05998 -0.088,1.56141 -0.0618,0.29901 -0.44004,0.66272 -0.82452,0.793 -0.25206,0.0854 -0.26258,0.1004 -0.12242,0.17454 0.26917,0.14235 0.85627,0.19563 1.09578,0.0994 1.18637,-0.47639 1.47142,-0.61938 1.6473,-0.82633 0.0955,-0.11236 0.17527,-0.26183 0.17727,-0.33213 0.004,-0.13359 0.2078,-0.25477 0.26653,-0.15834 0.0786,0.12911 -0.0657,0.4907 -0.29514,0.73913 -0.24553,0.26594 -1.02887,0.67027 -1.6829,0.86868 -0.38235,0.11599 -0.78383,0.12199 -1.13544,0.017 z m -0.33654,-0.95912 c 0.0938,-0.20104 0.24648,-0.30111 0.34629,-0.51493 0.16839,-0.36695 0.27496,-0.39844 0.27286,-0.0806 -0.002,0.28428 0.0962,0.35457 0.25042,0.17949 0.12768,-0.14493 0.1252,-0.13303 0.18151,-0.87178 0.0338,-0.44255 0.0146,-0.5416 -0.15485,-0.80135 -0.19456,-0.29828 -0.246,-0.30618 -0.51467,-0.0789 -0.11734,0.0992 -0.16473,0.0849 -0.4271,-0.12854 -0.21643,-0.17614 -0.41045,-0.25446 -0.72766,-0.29377 -0.42096,-0.0523 -0.43852,-0.0467 -0.65516,0.20682 l -0.22262,0.26042 0.4285,0.0258 c 0.34782,0.021 0.46568,0.0657 0.62602,0.23757 0.31668,0.33946 0.30771,0.78534 -0.0223,1.11107 -0.18186,0.17948 -0.29815,0.22573 -0.5656,0.22491 -0.51263,-0.001 -0.56121,0.0792 -0.20916,0.34774 0.54229,0.41365 0.97116,0.46784 1.39359,0.1761 z m -0.73906,-1.11771 c 0.10426,-0.24498 0.10597,-0.30639 0.013,-0.45111 -0.098,-0.15179 -0.18674,-0.16987 -0.94324,-0.19234 -0.70464,-0.021 -0.89271,-0.0546 -1.20449,-0.21509 -0.2032,-0.10467 -0.41679,-0.23597 -0.47465,-0.29181 -0.3291,-0.31752 -0.63809,-0.53198 -0.76771,-0.53284 -0.0844,-5.6e-4 -0.1985,0.0958 -0.26629,0.22479 l -0.11865,0.22578 0.5923,0.59436 c 0.32575,0.32689 0.6135,0.5945 0.63944,0.59467 0.026,1.7e-4 0.18404,0.0712 0.35135,0.15795 0.25093,0.13002 0.45781,0.15863 1.18147,0.16342 l 0.87728,0.006 z m -4.88936,-4.82173 c -0.006,-0.042 -0.0772,-0.25205 -0.10729,-0.33889 -0.0354,-0.10208 -0.11176,-0.31926 -0.1547,-0.29814 -0.0429,0.0211 -0.018,0.29341 -0.007,0.37909 0.0114,0.0857 0.0246,0.20829 0.0294,0.27251 0.0115,0.15377 0.19987,0.74944 0.29044,0.66006 0.0435,-0.0428 -0.0318,-0.53758 -0.0427,-0.6156 z m -0.0644,-0.78182 c -0.18476,-0.52392 0.0134,-1.57162 -0.10096,-2.05498 -0.021,-0.0212 -0.0218,-0.0174 -0.0721,0.0132 -0.0954,0.10893 -0.236,0.60934 -0.1786,1.04731 0.028,0.58274 0.0833,1.08198 0.15809,1.13311 0.12719,0.087 0.28191,0.78573 0.26598,0.61897 z m -3.06241,-2.21558 c 0.082,-0.076 -0.0415,-0.10545 -0.61328,-0.14629 -0.67238,-0.0694 -1.4362,-0.25119 -1.88887,-0.71713 -0.19596,-0.20446 -0.24719,-0.32045 -0.2327,-0.52675 -0.19076,-1.04567 0.8346,-2.26936 1.32453,-3.08732 0.11117,-0.1886 0.11882,-0.24132 0.0351,-0.24187 -0.1114,-7.4e-4 -0.60462,0.39863 -0.60523,0.49005 -1.9e-4,0.0287 -0.11741,0.21741 -0.26047,0.4193 -0.14308,0.20189 -0.28298,0.42678 -0.31089,0.49974 -0.32599,0.96875 -0.39646,1.02935 -0.58617,2.10177 -0.0438,0.26245 -0.0218,0.31745 0.21115,0.52635 0.48423,0.43436 1.17952,0.71217 2.04581,0.81743 0.33532,0.0408 0.76173,-0.0248 0.88109,-0.13528 z m -6.478828,7.8863 c -0.162168,-0.1152 -0.430559,-0.54246 -0.384003,-0.61131 0.01168,-0.0173 -0.03836,-0.0982 -0.111197,-0.17971 -0.09928,-0.11116 -0.140614,-0.33872 -0.165118,-0.90902 -0.02946,-0.68558 -0.01964,-0.75813 0.09936,-0.73448 0.110053,0.0219 0.134195,0.13502 0.144953,0.67936 0.01017,0.51578 0.04373,0.68758 0.159463,0.81708 0.08061,0.0902 0.16925,0.26272 0.196991,0.38341 0.06539,0.28451 0.478205,0.47307 0.877626,0.40087 l 0.281398,-0.0509 -0.208512,-0.15402 c -0.19911,-0.14705 -0.447804,-0.53381 -0.425795,-0.66214 0.0057,-0.0334 0.0032,-0.0957 -0.0052,-0.13856 -0.0086,-0.0428 -0.0089,-0.25293 -5.16e-4,-0.46685 0.01614,-0.41742 0.272797,-0.93527 0.458951,-0.93404 0.141156,9.3e-4 0.04032,0.19407 -0.104789,0.53532 -0.154982,0.36413 -0.153172,0.77508 0.0048,1.08578 0.158266,0.31131 0.318448,0.4383 0.568648,0.45074 0.10695,0.005 0.30679,0.0514 0.44409,0.10264 0.30167,0.11238 0.24265,0.27657 -0.11484,0.3194 -0.13206,0.0159 -0.3113,0.0663 -0.39832,0.11212 -0.24398,0.12851 -1.115128,0.0983 -1.317879,-0.0458 z m 3.566548,-0.63309 c 5.6e-4,-0.0856 0.0447,-0.15825 0.0984,-0.16146 0.0534,-0.004 0.17492,-0.014 0.26981,-0.0239 0.0949,-0.01 0.21729,0.0119 0.27202,0.0486 0.14371,0.0965 -0.14289,0.29563 -0.42263,0.29379 -0.16668,-0.001 -0.21831,-0.0384 -0.21752,-0.15706 z"
       id="sonic-center"
       sodipodi:nodetypes="ssccssssccsssccccccsssccsssssssssssssssssssscssssssssscsssssssssssssssssccsscssssssssssssssssccssssssssssssssssssssssccscsssssssssssssssccssccssscsccsssccssscsssssssssccsssssccccssssssssscsssssssssssscscsssssssssssssscsssssscsssssssssssssscssssssssssssssssssscssssscsscccsccsscccccscccssssssssssssssssssssssssscsscssssssssccssccsssssccccsscccscccsccsscssssssssssssssssscssssccsccssssssssssscssssssssssssssssccssssssssccccsssssssscssscsscssssssscsssscsssssssssccccssccccccsssccsscccsssssssscssccscsssssccssccss" />
    <path
       style="fill:#000000;stroke-width:0.0577095"
       d="m 136.93831,69.28231 c -0.0167,-0.01719 -0.21116,-0.0611 -0.4322,-0.09757 -0.66501,-0.109717 -1.65427,-0.657492 -2.03961,-1.129393 -0.0788,-0.0964 -0.20179,-0.240546 -0.27352,-0.320336 -0.18052,-0.200846 -0.37544,-0.53003 -0.33657,-0.5684 0.0177,-0.01748 -0.0286,-0.09824 -0.10286,-0.179439 -0.0743,-0.0812 -0.15194,-0.241232 -0.17252,-0.355631 -0.0206,-0.114401 -0.0645,-0.241185 -0.0975,-0.281743 -0.07,-0.08586 -0.10008,-0.263853 -0.12023,-0.711668 -0.008,-0.177445 -0.0313,-0.350231 -0.0519,-0.383967 -0.0206,-0.03374 0.005,-0.27798 0.0559,-0.542764 0.0513,-0.264781 0.10243,-0.5333 0.11368,-0.596707 0.0389,-0.219857 0.14289,-0.422874 0.24696,-0.482499 0.0624,-0.03581 0.0742,-0.06083 0.0291,-0.06218 -0.11473,-0.0035 0.25479,-0.647592 0.55238,-0.962951 0.13896,-0.147256 0.2528,-0.288683 0.25297,-0.314284 1.7e-4,-0.0256 0.0383,-0.0463 0.0848,-0.04599 0.0465,3.07e-4 0.11267,-0.05119 0.14707,-0.114451 0.0344,-0.06325 0.0863,-0.11485 0.1153,-0.114658 0.029,1.91e-4 0.17816,-0.09155 0.33141,-0.203869 0.34581,-0.253448 0.76916,-0.406251 1.4055,-0.507296 0.62531,-0.09929 0.9126,-0.09849 1.41388,0.0039 0.37857,0.07735 0.45693,0.0992 0.74887,0.208837 0.26337,0.09891 0.66158,0.317167 0.66128,0.362448 -1.8e-4,0.0268 0.12261,0.112411 0.27287,0.190264 0.25856,0.13396 0.86502,0.762845 0.79873,0.82826 -0.017,0.01675 0.0446,0.110383 0.13666,0.208073 0.0922,0.09769 0.16729,0.212727 0.16701,0.255628 -2.9e-4,0.0429 0.0255,0.07818 0.0572,0.07839 0.0318,2.1e-4 0.0575,0.03604 0.0572,0.07961 -2.8e-4,0.04357 0.0493,0.194003 0.11029,0.334286 0.061,0.140283 0.12104,0.345248 0.13355,0.455477 0.0125,0.110231 0.0387,0.239479 0.0583,0.28722 0.0738,0.180013 0.0716,0.752935 -0.004,1.279793 -0.0861,0.593306 -0.2325,1.015023 -0.5033,1.449926 -0.23506,0.377509 -0.70479,0.946843 -0.78482,0.951241 -0.0357,0.002 -0.16609,0.09502 -0.28976,0.206805 -0.19319,0.174627 -0.43436,0.308914 -0.97767,0.544376 -0.34982,0.151612 -1.6768,0.340651 -1.76351,0.251232 z m 0.89682,-0.71746 c 0.65552,-0.184736 1.01585,-0.321684 1.24547,-0.473357 0.36776,-0.242904 0.92044,-0.781504 1.02764,-1.001452 0.0494,-0.101331 0.14625,-0.244493 0.21526,-0.318137 0.069,-0.07365 0.12386,-0.184885 0.12194,-0.247197 -0.002,-0.06231 0.0331,-0.203945 0.078,-0.314742 0.14993,-0.370424 0.15929,-1.17689 0.0206,-1.760002 -0.0681,-0.286144 -0.14067,-0.533358 -0.1612,-0.549364 -0.0205,-0.01602 -0.0875,-0.134044 -0.14882,-0.262303 -0.10536,-0.220326 -0.47804,-0.719083 -0.64362,-0.861342 -0.0418,-0.03585 -0.12562,-0.11094 -0.18646,-0.166891 -0.0608,-0.05594 -0.12841,-0.101842 -0.15017,-0.101985 -0.0217,-1.44e-4 -0.0932,-0.05131 -0.15874,-0.113713 -0.0656,-0.0624 -0.36086,-0.194199 -0.65624,-0.292891 -1.01297,-0.338448 -2.13902,-0.207857 -2.95266,0.342432 -0.38004,0.257033 -0.87871,0.777923 -1.04732,1.093993 -0.0803,0.150615 -0.17701,0.330025 -0.21479,0.398693 -0.0379,0.06866 -0.11323,0.338296 -0.16765,0.599172 -0.1244,0.596205 -0.0932,1.298809 0.0777,1.747407 0.0667,0.175017 0.13469,0.363748 0.15122,0.419403 0.0165,0.05565 0.0545,0.101355 0.0844,0.101552 0.0299,1.98e-4 0.0385,0.02563 0.0191,0.05652 -0.0388,0.06181 0.17097,0.322389 0.65906,0.818802 0.36247,0.368644 0.99899,0.715466 1.49029,0.812004 0.17128,0.03366 0.32414,0.07408 0.33969,0.08983 0.0482,0.04877 0.77005,0.03638 0.95745,-0.01643 z m -1.2592,-0.961452 c -0.89622,-0.354686 -1.40773,-0.890721 -1.60264,-1.679479 -0.084,-0.339742 -0.0709,-1.16813 0.021,-1.339016 0.0336,-0.06244 0.1074,-0.223604 0.16398,-0.358129 0.0566,-0.134524 0.12768,-0.244426 0.15799,-0.244226 0.0303,2e-4 0.0416,-0.0356 0.025,-0.07955 -0.0332,-0.08837 0.50578,-0.60948 0.62959,-0.608662 0.0415,2.74e-4 0.0843,-0.01891 0.0951,-0.04265 0.0108,-0.02374 0.16072,-0.107146 0.33328,-0.185357 0.26648,-0.120777 0.39705,-0.141456 0.86657,-0.137237 0.60144,0.0055 1.0144,0.121948 1.35628,0.382766 0.24037,0.183373 0.65476,0.642748 0.69302,0.768258 0.022,0.07211 0.0665,0.14837 0.0989,0.169475 0.0325,0.02111 0.0625,0.08622 0.0669,0.144719 0.004,0.05849 0.0408,0.167653 0.0809,0.24258 0.0401,0.07493 0.0597,0.185403 0.0435,0.245501 -0.0162,0.0601 -0.008,0.122784 0.0185,0.139302 0.0263,0.01651 0.0362,0.199953 0.022,0.407638 -0.076,1.106476 -0.67765,1.856141 -1.76589,2.2002 -0.25155,0.07953 -1.07904,0.06295 -1.30414,-0.02614 z m 1.21345,-0.665919 c 0.0304,-0.02897 0.0931,-0.05244 0.1393,-0.05213 0.0462,3.05e-4 0.22472,-0.106446 0.39655,-0.237223 0.4476,-0.340624 0.61604,-0.709928 0.62373,-1.36754 0.005,-0.433878 -0.0135,-0.530617 -0.15074,-0.784496 -0.16332,-0.302116 -0.48982,-0.603419 -0.83775,-0.773068 -0.27721,-0.135166 -1.09707,-0.133952 -1.40815,0.0021 -0.12266,0.05364 -0.34912,0.21392 -0.50324,0.356178 -0.21708,0.200388 -0.30229,0.332342 -0.37826,0.585773 -0.0539,0.179916 -0.11821,0.378924 -0.14287,0.442246 -0.0246,0.06332 -0.0338,0.167138 -0.0203,0.230708 0.0134,0.06357 0.0411,0.206587 0.0616,0.317817 0.14665,0.797444 0.99693,1.414196 1.86571,1.353307 0.16462,-0.01154 0.32414,-0.04469 0.35449,-0.07366 z"
       id="level-2" />
    <path
       style="fill:#000000;stroke-width:0.0577095"
       d="m 146.35113,69.282314 c -0.0167,-0.01719 -0.21116,-0.0611 -0.43219,-0.09757 -0.66502,-0.109717 -1.65428,-0.657492 -2.03962,-1.129393 -0.0788,-0.0964 -0.20179,-0.240546 -0.27352,-0.320336 -0.18052,-0.200846 -0.37544,-0.53003 -0.33657,-0.5684 0.0177,-0.01748 -0.0285,-0.09824 -0.10286,-0.17944 -0.0743,-0.0812 -0.15193,-0.241232 -0.17252,-0.35563 -0.0206,-0.114401 -0.0645,-0.241186 -0.0975,-0.281743 -0.07,-0.08586 -0.10008,-0.263853 -0.12023,-0.711669 -0.008,-0.177444 -0.0313,-0.35023 -0.0519,-0.383967 -0.0206,-0.03374 0.005,-0.277979 0.0559,-0.542763 0.0512,-0.264781 0.10243,-0.5333 0.11368,-0.596707 0.0389,-0.219857 0.14289,-0.422874 0.24696,-0.482499 0.0624,-0.03581 0.0742,-0.06083 0.0291,-0.06218 -0.11473,-0.0035 0.2548,-0.647592 0.55239,-0.962951 0.13895,-0.147256 0.25279,-0.288683 0.25296,-0.314284 1.7e-4,-0.0256 0.0383,-0.0463 0.0848,-0.04599 0.0465,3.07e-4 0.11267,-0.05119 0.14707,-0.114451 0.0344,-0.06325 0.0863,-0.11485 0.1153,-0.114659 0.029,1.92e-4 0.17816,-0.09155 0.33141,-0.203869 0.34581,-0.253447 0.76916,-0.40625 1.4055,-0.507295 0.62531,-0.09929 0.9126,-0.0985 1.41388,0.0039 0.37857,0.07735 0.45693,0.0992 0.74887,0.208837 0.26337,0.09891 0.66158,0.317167 0.66128,0.362448 -1.8e-4,0.0268 0.12261,0.112411 0.27287,0.190263 0.25856,0.133961 0.86502,0.762846 0.79873,0.828261 -0.017,0.01675 0.0446,0.110383 0.13666,0.208073 0.0922,0.09769 0.16729,0.212727 0.16701,0.255628 -2.9e-4,0.0429 0.0255,0.07818 0.0572,0.07839 0.0318,2.1e-4 0.0575,0.03604 0.0572,0.07961 -2.9e-4,0.04357 0.0493,0.194003 0.11028,0.334286 0.061,0.140283 0.12104,0.345248 0.13355,0.455477 0.0125,0.110231 0.0387,0.239479 0.0583,0.28722 0.0738,0.180013 0.0716,0.752934 -0.004,1.279793 -0.0861,0.593306 -0.2325,1.015023 -0.5033,1.449926 -0.23506,0.377509 -0.70479,0.946843 -0.78482,0.951241 -0.0357,0.002 -0.16609,0.09502 -0.28976,0.206804 -0.19319,0.174628 -0.43436,0.308914 -0.97767,0.544377 -0.34982,0.151612 -1.6768,0.340651 -1.76351,0.251231 z m 0.89682,-0.71746 c 0.65553,-0.184736 1.01585,-0.321685 1.24548,-0.473357 0.36775,-0.242904 0.92043,-0.781504 1.02763,-1.001452 0.0494,-0.101331 0.14625,-0.244493 0.21526,-0.318137 0.069,-0.07365 0.12386,-0.184885 0.12194,-0.247197 -0.002,-0.06231 0.0331,-0.203945 0.078,-0.314743 0.14993,-0.370423 0.15929,-1.176889 0.0206,-1.760002 -0.0681,-0.286143 -0.14068,-0.533357 -0.16121,-0.549364 -0.0205,-0.01601 -0.0875,-0.134043 -0.14882,-0.262303 -0.10535,-0.220325 -0.47804,-0.719083 -0.64362,-0.861342 -0.0418,-0.03585 -0.12562,-0.110939 -0.18646,-0.16689 -0.0608,-0.05594 -0.12841,-0.101842 -0.15017,-0.101986 -0.0217,-1.43e-4 -0.0932,-0.05131 -0.15873,-0.113712 -0.0656,-0.0624 -0.36087,-0.194199 -0.65624,-0.292891 -1.01298,-0.338448 -2.13903,-0.207857 -2.95267,0.342432 -0.38004,0.257033 -0.87871,0.777923 -1.04732,1.093992 -0.0803,0.150616 -0.17701,0.330026 -0.21479,0.398694 -0.0379,0.06866 -0.11323,0.338295 -0.16765,0.599172 -0.12439,0.596205 -0.0932,1.298809 0.0777,1.747407 0.0667,0.175017 0.13469,0.363748 0.15122,0.419403 0.0165,0.05565 0.0545,0.101354 0.0844,0.101552 0.0299,1.97e-4 0.0385,0.02563 0.0191,0.05652 -0.0388,0.06181 0.17097,0.322389 0.65906,0.818802 0.36247,0.368643 0.99899,0.715465 1.49029,0.812003 0.17128,0.03366 0.32414,0.07408 0.33969,0.08983 0.0482,0.04877 0.77005,0.03638 0.95745,-0.01644 z m -1.25919,-0.961452 c -0.89623,-0.354686 -1.40774,-0.890721 -1.60265,-1.679479 -0.084,-0.339742 -0.0709,-1.16813 0.021,-1.339016 0.0336,-0.06244 0.1074,-0.223604 0.16398,-0.358129 0.0566,-0.134524 0.12768,-0.244427 0.15799,-0.244226 0.0303,2e-4 0.0416,-0.0356 0.025,-0.07955 -0.0332,-0.08837 0.50577,-0.609481 0.62958,-0.608663 0.0415,2.75e-4 0.0843,-0.01891 0.0951,-0.04265 0.0108,-0.02374 0.16072,-0.107146 0.33328,-0.185358 0.26648,-0.120777 0.39705,-0.141455 0.86657,-0.137236 0.60144,0.0055 1.0144,0.121947 1.35628,0.382766 0.24037,0.183373 0.65476,0.642748 0.69302,0.768258 0.022,0.07211 0.0665,0.14837 0.0989,0.169474 0.0325,0.0211 0.0625,0.08622 0.0669,0.14472 0.004,0.05849 0.0408,0.167653 0.0809,0.24258 0.0401,0.07493 0.0597,0.185403 0.0435,0.245501 -0.0162,0.0601 -0.008,0.122783 0.0185,0.139301 0.0263,0.01651 0.0362,0.199954 0.022,0.407639 -0.076,1.106476 -0.67766,1.856141 -1.7659,2.2002 -0.25155,0.07953 -1.07904,0.06295 -1.30413,-0.02614 z m 1.21344,-0.665919 c 0.0304,-0.02897 0.0931,-0.05244 0.1393,-0.05213 0.0462,3.06e-4 0.22472,-0.106445 0.39655,-0.237222 0.4476,-0.340624 0.61604,-0.709928 0.62373,-1.36754 0.005,-0.433878 -0.0135,-0.530618 -0.15074,-0.784496 -0.16331,-0.302117 -0.48982,-0.603419 -0.83775,-0.773069 -0.27721,-0.135165 -1.09707,-0.133952 -1.40815,0.0021 -0.12266,0.05364 -0.34912,0.21392 -0.50324,0.356178 -0.21708,0.200388 -0.30229,0.332342 -0.37825,0.585773 -0.0539,0.179916 -0.11822,0.378924 -0.14288,0.442245 -0.0246,0.06332 -0.0338,0.167139 -0.0203,0.230709 0.0134,0.06357 0.0411,0.206587 0.0616,0.317817 0.14665,0.797443 0.99694,1.414196 1.86571,1.353307 0.16462,-0.01154 0.32414,-0.04469 0.35449,-0.07366 z"
       id="level-3" />
    <path
       style="fill:#000000;stroke-width:0.0577095"
       d="m 127.5925,69.282657 c -0.0167,-0.01719 -0.21116,-0.0611 -0.43219,-0.09757 -0.66502,-0.109717 -1.65428,-0.657492 -2.03962,-1.129393 -0.0788,-0.0964 -0.20179,-0.240546 -0.27352,-0.320336 -0.18052,-0.200846 -0.37544,-0.53003 -0.33657,-0.5684 0.0177,-0.01748 -0.0285,-0.09824 -0.10285,-0.179439 -0.0743,-0.0812 -0.15194,-0.241232 -0.17253,-0.355631 -0.0206,-0.114401 -0.0645,-0.241185 -0.0975,-0.281743 -0.07,-0.08586 -0.10008,-0.263852 -0.12023,-0.711668 -0.008,-0.177445 -0.0313,-0.350231 -0.0519,-0.383967 -0.0206,-0.03374 0.005,-0.27798 0.0559,-0.542764 0.0513,-0.264781 0.10243,-0.5333 0.11368,-0.596707 0.0389,-0.219856 0.14289,-0.422874 0.24696,-0.482499 0.0624,-0.03581 0.0742,-0.06083 0.0291,-0.06218 -0.11473,-0.0035 0.2548,-0.647592 0.55239,-0.96295 0.13895,-0.147257 0.25279,-0.288684 0.25296,-0.314285 1.7e-4,-0.0256 0.0383,-0.0463 0.0848,-0.04599 0.0465,3.07e-4 0.11267,-0.05119 0.14707,-0.114451 0.0344,-0.06325 0.0863,-0.11485 0.1153,-0.114658 0.029,1.91e-4 0.17816,-0.09155 0.33141,-0.203869 0.34581,-0.253448 0.76916,-0.40625 1.4055,-0.507296 0.62531,-0.09929 0.9126,-0.09849 1.41388,0.0039 0.37857,0.07735 0.45693,0.0992 0.74887,0.208837 0.26337,0.09891 0.66158,0.317167 0.66128,0.362448 -1.8e-4,0.0268 0.12261,0.112411 0.27287,0.190264 0.25856,0.13396 0.86502,0.762845 0.79873,0.82826 -0.017,0.01675 0.0446,0.110383 0.13666,0.208073 0.0922,0.09769 0.16729,0.212727 0.16701,0.255628 -2.9e-4,0.0429 0.0255,0.07818 0.0572,0.07839 0.0318,2.1e-4 0.0575,0.03604 0.0572,0.07961 -2.9e-4,0.04357 0.0493,0.194003 0.11028,0.334286 0.061,0.140283 0.12104,0.345248 0.13355,0.455477 0.0125,0.110231 0.0387,0.23948 0.0583,0.28722 0.0738,0.180014 0.0716,0.752935 -0.004,1.279793 -0.0861,0.593306 -0.2325,1.015024 -0.5033,1.449926 -0.23506,0.377509 -0.70479,0.946843 -0.78482,0.951241 -0.0357,0.002 -0.16609,0.09502 -0.28976,0.206805 -0.19319,0.174627 -0.43436,0.308914 -0.97767,0.544376 -0.34982,0.151612 -1.6768,0.340651 -1.76351,0.251232 z m 0.89682,-0.71746 c 0.65553,-0.184736 1.01585,-0.321684 1.24548,-0.473357 0.36775,-0.242904 0.92043,-0.781503 1.02763,-1.001452 0.0494,-0.101331 0.14625,-0.244493 0.21526,-0.318137 0.069,-0.07365 0.12386,-0.184884 0.12194,-0.247197 -0.002,-0.06231 0.0331,-0.203945 0.078,-0.314742 0.14993,-0.370424 0.15929,-1.17689 0.0206,-1.760002 -0.0681,-0.286144 -0.14068,-0.533357 -0.16121,-0.549364 -0.0205,-0.01602 -0.0875,-0.134044 -0.14882,-0.262303 -0.10535,-0.220326 -0.47804,-0.719083 -0.64362,-0.861342 -0.0418,-0.03585 -0.12562,-0.11094 -0.18646,-0.166891 -0.0608,-0.05594 -0.12841,-0.101842 -0.15017,-0.101985 -0.0217,-1.44e-4 -0.0932,-0.05131 -0.15873,-0.113713 -0.0656,-0.0624 -0.36087,-0.194199 -0.65624,-0.292891 -1.01298,-0.338447 -2.13903,-0.207857 -2.95267,0.342432 -0.38004,0.257033 -0.87871,0.777923 -1.04732,1.093993 -0.0803,0.150615 -0.17701,0.330025 -0.21479,0.398693 -0.0378,0.06866 -0.11323,0.338296 -0.16765,0.599172 -0.12439,0.596205 -0.0932,1.298809 0.0777,1.747407 0.0666,0.175017 0.13469,0.363748 0.15122,0.419403 0.0165,0.05565 0.0545,0.101355 0.0844,0.101552 0.0299,1.98e-4 0.0385,0.02563 0.0191,0.05652 -0.0388,0.06181 0.17097,0.322389 0.65906,0.818802 0.36247,0.368644 0.99899,0.715466 1.49029,0.812004 0.17128,0.03366 0.32415,0.07408 0.33969,0.08983 0.0482,0.04877 0.77005,0.03638 0.95745,-0.01643 z m -1.25919,-0.961452 c -0.89623,-0.354686 -1.40774,-0.890721 -1.60265,-1.679479 -0.084,-0.339742 -0.0709,-1.16813 0.021,-1.339016 0.0336,-0.06244 0.1074,-0.223604 0.16398,-0.358129 0.0566,-0.134524 0.12768,-0.244426 0.15799,-0.244226 0.0303,2e-4 0.0416,-0.0356 0.025,-0.07955 -0.0332,-0.08837 0.50577,-0.60948 0.62958,-0.608662 0.0415,2.74e-4 0.0843,-0.01891 0.0951,-0.04265 0.0108,-0.02374 0.16071,-0.107146 0.33327,-0.185357 0.26648,-0.120777 0.39705,-0.141456 0.86657,-0.137237 0.60144,0.0055 1.0144,0.121948 1.35628,0.382766 0.24037,0.183373 0.65476,0.642748 0.69302,0.768258 0.022,0.07211 0.0665,0.14837 0.0989,0.169475 0.0325,0.02111 0.0625,0.08622 0.0669,0.144719 0.004,0.05849 0.0408,0.167653 0.0809,0.24258 0.0401,0.07493 0.0597,0.185403 0.0435,0.245501 -0.0162,0.06009 -0.008,0.122784 0.0185,0.139302 0.0263,0.01651 0.0362,0.199953 0.022,0.407638 -0.076,1.106476 -0.67766,1.856141 -1.7659,2.2002 -0.25155,0.07953 -1.07904,0.06295 -1.30413,-0.02614 z m 1.21344,-0.665919 c 0.0304,-0.02897 0.0931,-0.05244 0.1393,-0.05213 0.0462,3.05e-4 0.22472,-0.106446 0.39655,-0.237223 0.44761,-0.340624 0.61604,-0.709928 0.62373,-1.36754 0.005,-0.433878 -0.0135,-0.530617 -0.15074,-0.784496 -0.16331,-0.302116 -0.48982,-0.603419 -0.83775,-0.773068 -0.27721,-0.135166 -1.09707,-0.133952 -1.40815,0.0021 -0.12266,0.05364 -0.34912,0.21392 -0.50324,0.356178 -0.21707,0.200388 -0.30229,0.332342 -0.37825,0.585773 -0.0539,0.179916 -0.11822,0.378924 -0.14288,0.442246 -0.0246,0.06332 -0.0338,0.167138 -0.0203,0.230708 0.0134,0.06357 0.0411,0.206587 0.0616,0.317817 0.14665,0.797444 0.99694,1.414196 1.86571,1.353307 0.16462,-0.01154 0.32414,-0.04469 0.35449,-0.07366 z"
       id="level-1" />
    <path
       style="fill:none;stroke:#000000;stroke-width:0.565;stroke-linecap:round;stroke-linejoin:miter;stroke-miterlimit:4;stroke-dasharray:none;stroke-opacity:1"
       d="m 136.87586,123.35506 c -0.76104,-0.68951 -1.68524,-0.99594 -2.62029,-1.37333 l -1.42483,-3.34985 -1.40273,3.31464 c 0.96646,-0.104 1.90941,-0.0944 2.82757,0.0352 -0.95163,-0.0989 -1.89039,-0.0747 -2.82757,-0.0352 -2.57824,1.1166 -3.14642,2.32074 -4.25447,4.4368 l -3.2278,1.72331 3.47858,1.61878 c -0.47785,-1.24778 -0.17001,-2.48234 -0.25078,-3.34209 -0.10834,1.04584 0.002,2.1693 0.25078,3.34209 0.88376,1.96288 2.36503,2.8471 4.19168,3.81462 l 1.76224,3.59187 1.71954,-3.70943 c -1.19031,0.40403 -2.26742,0.25293 -3.48178,0.11756 1.17529,0.13968 2.33485,0.14626 3.48178,-0.11756 2.10838,-1.18063 3.45176,-2.73081 3.8748,-4.54684 l 3.09404,-1.50095 -3.09195,-1.31856 c 0.22674,0.95139 0.0958,1.86342 -0.002,2.8195 0.0567,-0.95572 0.10765,-1.80849 0.002,-2.8195 -0.24693,-0.50078 -0.68225,-1.07354 -1.03832,-1.52066"
       id="bomb-33"
       sodipodi:nodetypes="cccccccccccccccccccccc" />
    <path
       style="fill:none;stroke:#000000;stroke-width:0.765;stroke-linecap:round;stroke-linejoin:miter;stroke-miterlimit:4;stroke-dasharray:none;stroke-opacity:1"
       d="m 107.31686,127.72003 c -1.02535,0.0572 -2.53706,0.50758 -3.4625,0.90795 l -3.38503,-1.33911 1.37368,3.32679 c 0.60491,-0.7609 1.27415,-1.42524 2.01132,-1.98771 -0.73886,0.60783 -1.38109,1.29294 -2.01132,1.98771 -0.62855,1.85166 -0.70495,3.6339 -0.0296,5.23259 l 0.19872,0.91208 -1.04095,3.50784 3.59572,-1.33859 c -1.22374,-0.53644 -1.88613,-1.62278 -2.55477,-2.16925 0.66823,0.81179 1.54516,1.52262 2.55477,2.16925 2.01781,0.7499 3.68768,0.31681 5.65945,-0.30361 l 3.79429,1.26899 -1.572,-3.92973 c -0.54861,1.13096 -1.27289,1.89156 -2.22229,2.66074 0.92501,-0.73835 1.60436,-1.65914 2.22229,-2.66074 0.24227,-2.18313 0.44662,-4.21055 -0.37418,-5.85163 l 1.10524,-3.25643 -3.11044,1.27431 c 0.83638,0.50696 1.39353,1.2408 2.00517,1.98215 -0.64036,-0.71174 -1.21151,-1.34704 -2.00517,-1.98215 -0.52988,-0.17605 -2.18409,-0.35079 -2.75242,-0.41145"
       id="bomb-32"
       sodipodi:nodetypes="ccccccccccccccccccccccc" />
    <path
       style="fill:none;stroke:#000000;stroke-width:0.39177;stroke-linecap:round;stroke-linejoin:miter;stroke-miterlimit:4;stroke-dasharray:none;stroke-opacity:1"
       d="m 107.71727,88.448805 c -0.5251,0.02931 -1.29929,0.259941 -1.77321,0.46498 L 104.21053,88.228 104.914,89.93171 c 0.3098,-0.389671 0.65253,-0.729888 1.03004,-1.017941 -0.37838,0.311282 -0.70728,0.662141 -1.03004,1.017941 -0.32188,0.948273 -0.36101,1.860989 -0.0147,2.679714 l 0.10176,0.467089 -0.5331,1.796428 1.84144,-0.685514 c -0.62671,-0.274722 -0.96592,-0.831057 -1.30834,-1.110914 0.3422,0.415734 0.79131,0.779762 1.30834,1.110914 1.03336,0.384037 1.88853,0.162245 2.8983,-0.155485 l 1.94313,0.649875 -0.80504,-2.012487 c -0.28096,0.579186 -0.65187,0.968704 -1.13809,1.362612 0.47373,-0.37812 0.82162,-0.849675 1.13809,-1.362612 0.12407,-1.118019 0.22873,-2.156301 -0.19163,-2.996729 l 0.56602,-1.667676 -1.59292,0.652596 c 0.42832,0.259621 0.71365,0.635439 1.02688,1.015095 -0.32793,-0.364497 -0.62043,-0.689846 -1.02688,-1.015095 -0.27136,-0.09016 -1.11851,-0.179645 -1.40956,-0.210714"
       id="bomb-12"
       sodipodi:nodetypes="ccccccccccccccccccccccc" />
    <path
       style="fill:none;stroke:#000000;stroke-width:0.511467;stroke-linecap:round;stroke-linejoin:miter;stroke-miterlimit:4;stroke-dasharray:none;stroke-opacity:1"
       d="m 105.0911,109.97006 c -0.46378,0.50629 -0.97662,1.4278 -1.23232,2.05158 l -2.24482,0.94042 2.21099,0.94989 c -0.066,-0.64653 -0.0565,-1.27691 0.0338,-1.89031 -0.0696,0.63587 -0.0568,1.26358 -0.0338,1.89031 0.64523,1.58595 1.52955,2.24346 2.95089,2.86051 l 1.14043,2.16429 1.09493,-2.3198 c -0.83597,0.31493 -1.66024,0.10458 -2.23537,0.15549 0.69884,0.0762 1.45036,0.007 2.23537,-0.15549 1.35759,-0.61431 2.09883,-1.75903 2.51583,-2.8047 l 2.45759,-1.14902 -2.58747,-1.14569 c 0.26578,0.79727 0.22479,1.48332 0.12985,2.29471 0.0977,-0.78524 0.0421,-1.52695 -0.12985,-2.29471 -0.58879,-1.35829 -1.58106,-2.33243 -2.91212,-2.62457 l -0.99223,-2.07405 -0.89282,2.06241 c 0.63691,-0.14813 1.24621,-0.0571 1.88506,0.0116 -0.63878,-0.0414 -1.20874,-0.0785 -1.88506,-0.0116 -0.3357,0.16326 -1.20867,0.85231 -1.50888,1.08873"
       id="bomb-22"
       sodipodi:nodetypes="cccccccccccccccccccccc" />
    <path
       style="fill:none;stroke:#000000;stroke-width:0.521;stroke-linecap:round;stroke-linejoin:miter;stroke-miterlimit:4;stroke-dasharray:none;stroke-opacity:1"
       d="m 91.797045,109.1602 c 0.0095,-0.76603 -0.275724,-1.43404 -0.52666,-2.14315 l 1.168752,-2.45126 -2.545828,0.85323 c 0.535552,0.48889 0.995958,1.02077 1.377095,1.59801 -0.414804,-0.58082 -0.89206,-1.09364 -1.377095,-1.59801 -1.346166,-0.56196 -2.668719,-0.70942 -3.8929,-0.28817 l -0.68892,0.10152 -2.55781,-0.95309 0.813434,2.7442 c 0.461463,-0.88349 1.303667,-1.32126 1.744376,-1.79111 -0.638155,0.45606 -1.211782,1.07259 -1.744376,1.79111 -0.660707,1.46365 -0.423285,2.72848 -0.0618,4.22753 l -1.137373,2.75941 2.923015,-0.87114 c -0.813839,-0.46581 -1.261446,-1.14258 -1.785642,-1.88827 0.502486,0.72599 1.071607,1.37744 1.785642,1.88827 1.460898,0.33058 3.09506,0.47275 4.455798,-0.08 l 2.367428,0.98815 -0.790268,-2.37977 c -0.419837,0.59672 -0.994336,0.97408 -1.577178,1.3916 0.562274,-0.44041 1.064142,-0.83318 1.577178,-1.3916 0.157964,-0.38539 0.263098,-0.91168 0.33715,-1.3316"
       id="bomb-21"
       sodipodi:nodetypes="ccccccccccccccccccccccc" />
    <path
       style="fill:none;stroke:#000000;stroke-width:0.521;stroke-linecap:round;stroke-linejoin:miter;stroke-miterlimit:4;stroke-dasharray:none;stroke-opacity:1"
       d="m 123.47216,108.80714 c 0.001,-0.76608 0.29466,-1.43027 0.55494,-2.136 l -1.13626,-2.46649 2.53433,0.88679 c -0.54196,0.48177 -1.00936,1.00752 -1.39809,1.57968 0.42245,-0.57529 0.90643,-1.08176 1.39809,-1.57968 1.35347,-0.54412 2.67785,-0.67409 3.89636,-0.2367 l 0.68753,0.11061 2.57018,-0.91921 -0.84963,2.73321 c -0.44974,-0.88951 -1.2861,-1.33837 -1.72055,-1.814 0.63207,0.46445 1.1975,1.08851 1.72055,1.814 0.64132,1.47226 0.3872,2.73384 0.006,4.22798 l 1.10081,2.7742 -2.91124,-0.90969 c 0.81991,-0.45501 1.27642,-1.12581 1.81043,-1.86451 -0.51204,0.71928 -1.08971,1.36316 -1.81043,1.86451 -1.46515,0.31125 -3.10104,0.43181 -4.45436,-0.13888 l -2.38028,0.95678 0.82164,-2.36911 c 0.41193,0.60222 0.98138,0.98713 1.55866,1.41231 -0.55641,-0.4478 -1.05304,-0.84717 -1.55866,-1.41231 -0.15285,-0.38745 -0.25102,-0.91508 -0.31952,-1.33594"
       id="bomb-23"
       sodipodi:nodetypes="ccccccccccccccccccccccc" />
    <path
       style="fill:#000000;stroke-width:0.0401825"
       d="m 86.765347,68.006307 c -0.434084,-0.104611 -0.700856,-0.253626 -1.146453,-0.640391 -0.17434,-0.15132 -0.256313,-0.195648 -0.363106,-0.196354 -0.198738,-0.0013 -0.528803,-0.110375 -0.610334,-0.20167 -0.100697,-0.112757 -0.04594,-0.230783 0.152817,-0.32935 0.212069,-0.105172 0.208516,-0.101443 0.156807,-0.164594 -0.09243,-0.11287 -0.281565,-0.546746 -0.340821,-0.781807 -0.0722,-0.286421 -0.0783,-0.918845 -0.01175,-1.21944 0.04278,-0.193202 0.03749,-0.223571 -0.09313,-0.535023 -0.292349,-0.697135 -0.338174,-1.049234 -0.155051,-1.19133 0.140524,-0.109043 0.545698,-0.107277 1.035985,0.0044 l 0.357777,0.08158 0.225736,-0.210674 c 0.69415,-0.647835 1.426357,-1.051439 2.339071,-1.289337 0.338792,-0.0883 0.469103,-0.100427 1.068937,-0.09944 0.534515,8.31e-4 0.752928,0.01789 1.004068,0.07825 0.727611,0.174871 1.260322,0.434109 1.795258,0.873642 0.301963,0.248108 0.299069,0.264311 -0.05509,0.308555 -0.591214,0.07386 -1.167986,0.354895 -1.490664,0.726349 -0.213825,0.246147 -0.209726,0.287062 0.02891,0.288638 0.515548,0.0034 1.139547,0.289983 1.550916,0.712272 0.295528,0.303374 0.577415,0.775607 0.576163,0.965223 -6.67e-4,0.100945 -0.0091,0.104569 -0.238872,0.103051 -0.618098,-0.0041 -1.218975,0.143323 -1.615762,0.39638 -0.251705,0.160526 -0.25642,0.166601 -0.15919,0.20509 0.381347,0.150958 0.782654,0.382728 0.951861,0.549733 0.32238,0.318185 0.645078,1.023737 0.64256,1.404897 -8.46e-4,0.128068 -0.0069,0.134545 -0.086,0.09155 -0.41669,-0.226561 -1.306673,-0.408245 -2.013515,-0.411047 -0.61661,-0.0025 -0.992077,0.05451 -1.496292,0.226965 -0.832516,0.284747 -1.521504,0.371696 -2.010846,0.253767 z m 0.897261,-1.293685 c 0.260312,-0.132981 0.406456,-0.27428 0.52023,-0.502985 0.292608,-0.588196 0.20641,-1.857695 -0.157045,-2.312871 -0.185759,-0.232639 -0.306052,-0.302886 -0.517884,-0.302427 -0.755705,0.0016 -1.263812,0.62044 -1.434261,1.746735 -0.04007,0.264776 -0.07167,0.362631 -0.126373,0.391449 -0.04012,0.02114 -0.09342,0.02558 -0.118442,0.0099 -0.03191,-0.02001 -0.03678,3.96e-4 -0.01633,0.06835 0.08669,0.288031 0.10841,0.485335 0.06975,0.633523 l -0.04077,0.15629 0.225302,0.02645 c 0.123915,0.01454 0.333552,0.06351 0.465859,0.10879 0.327469,0.112087 0.887655,0.100586 1.129967,-0.0232 z m -0.07231,-0.532147 c -0.141882,-0.113129 -0.229098,-0.401466 -0.249693,-0.825484 -0.02118,-0.436029 0.02484,-0.556005 0.220081,-0.573675 0.09861,-0.0089 0.153049,0.01421 0.229113,0.09739 0.136664,0.149433 0.182553,0.330229 0.204844,0.807085 0.01763,0.377028 0.0127,0.413203 -0.06694,0.491803 -0.107466,0.106057 -0.206946,0.106908 -0.337399,0.0029 z m -2.000724,0.366823 c 7.8e-5,-0.01194 -0.03525,-0.07095 -0.07853,-0.131116 -0.106413,-0.147985 -0.211665,-0.593018 -0.181896,-0.769104 0.01326,-0.0784 0.06227,-0.170947 0.108923,-0.205655 0.08026,-0.05971 0.08158,-0.07056 0.02443,-0.201723 -0.03322,-0.07623 -0.10095,-0.290849 -0.15052,-0.476912 -0.108699,-0.408001 -0.186515,-0.482413 -0.331931,-0.317408 -0.05328,0.06046 -0.11615,0.177584 -0.139701,0.260269 -0.102739,0.360681 -0.01611,1.061726 0.188473,1.52613 l 0.127854,0.290156 0.186286,0.0161 c 0.102458,0.0089 0.199828,0.01944 0.216377,0.02354 0.01655,0.0041 0.03015,-0.0023 0.03023,-0.01427 z"
       id="life-3" />
    <path
       style="fill:#000000;stroke-width:0.0401825"
       d="m 76.792996,68.006316 c -0.434084,-0.104611 -0.700855,-0.253626 -1.146453,-0.64039 -0.17434,-0.15132 -0.256313,-0.195649 -0.363106,-0.196354 -0.198737,-0.0013 -0.528803,-0.110375 -0.610333,-0.20167 -0.100698,-0.112758 -0.04594,-0.230783 0.152817,-0.329351 0.212068,-0.105172 0.208516,-0.101442 0.156807,-0.164593 -0.09243,-0.11287 -0.281565,-0.546746 -0.340822,-0.781807 -0.0722,-0.286421 -0.0783,-0.918845 -0.01175,-1.21944 0.04278,-0.193203 0.03749,-0.223571 -0.09313,-0.535023 -0.29235,-0.697136 -0.338175,-1.049234 -0.155052,-1.191331 0.140524,-0.109042 0.545699,-0.107277 1.035985,0.0044 l 0.357777,0.08158 0.225736,-0.210675 c 0.69415,-0.647835 1.426358,-1.051439 2.339071,-1.289336 0.338792,-0.0883 0.469103,-0.100428 1.068938,-0.09945 0.534514,8.32e-4 0.752927,0.0179 1.004068,0.07825 0.72761,0.174871 1.260321,0.43411 1.795258,0.873642 0.301962,0.248109 0.299068,0.264312 -0.05509,0.308555 -0.591214,0.07386 -1.167985,0.354895 -1.490663,0.72635 -0.213825,0.246146 -0.209726,0.287061 0.02891,0.288638 0.515548,0.0034 1.139547,0.289983 1.550916,0.712272 0.295528,0.303373 0.577416,0.775607 0.576163,0.965223 -6.67e-4,0.100944 -0.0091,0.104569 -0.238872,0.103051 -0.618098,-0.0041 -1.218975,0.143322 -1.615761,0.396379 -0.251705,0.160527 -0.256421,0.166602 -0.159191,0.20509 0.381347,0.150959 0.782655,0.382728 0.951861,0.549734 0.32238,0.318185 0.645079,1.023736 0.64256,1.404897 -8.46e-4,0.128068 -0.0069,0.134544 -0.086,0.09155 -0.416691,-0.226561 -1.306674,-0.408245 -2.013516,-0.411047 -0.61661,-0.0025 -0.992076,0.05451 -1.496292,0.226965 -0.832515,0.284747 -1.521504,0.371696 -2.010845,0.253766 z m 0.897261,-1.293685 c 0.260312,-0.13298 0.406456,-0.274279 0.52023,-0.502985 0.292609,-0.588195 0.20641,-1.857695 -0.157044,-2.312871 -0.185759,-0.232638 -0.306053,-0.302885 -0.517885,-0.302426 -0.755705,0.0016 -1.263811,0.62044 -1.43426,1.746734 -0.04007,0.264776 -0.07167,0.362632 -0.126373,0.39145 -0.04012,0.02114 -0.09342,0.02558 -0.118442,0.0099 -0.03191,-0.02001 -0.03678,3.96e-4 -0.01633,0.06835 0.08669,0.288031 0.108411,0.485336 0.06975,0.633524 l -0.04077,0.15629 0.225303,0.02645 c 0.123914,0.01454 0.333551,0.0635 0.465858,0.108789 0.32747,0.112087 0.887656,0.100587 1.129967,-0.0232 z m -0.07231,-0.532146 C 77.476065,66.067356 77.388849,65.779018 77.368254,65.355 c -0.02118,-0.436028 0.02484,-0.556005 0.220081,-0.573674 0.09861,-0.0089 0.15305,0.01421 0.229113,0.09739 0.136665,0.149434 0.182553,0.33023 0.204844,0.807085 0.01763,0.377028 0.0127,0.413203 -0.06694,0.491804 -0.107467,0.106056 -0.206946,0.106908 -0.3374,0.0029 z m -2.000724,0.366822 c 7.9e-5,-0.01194 -0.03525,-0.07095 -0.07853,-0.131115 -0.106412,-0.147985 -0.211664,-0.593019 -0.181895,-0.769105 0.01326,-0.0784 0.06227,-0.170946 0.108922,-0.205655 0.08026,-0.05971 0.08158,-0.07056 0.02443,-0.201723 -0.03322,-0.07623 -0.100949,-0.290849 -0.150519,-0.476911 -0.1087,-0.408001 -0.186516,-0.482413 -0.331931,-0.317408 -0.05328,0.06046 -0.11615,0.177583 -0.139702,0.260268 -0.102738,0.360681 -0.01611,1.061727 0.188473,1.526131 l 0.127854,0.290156 0.186287,0.0161 c 0.102457,0.0089 0.199828,0.01944 0.216376,0.02354 0.01655,0.0041 0.03015,-0.0023 0.03022,-0.01427 z"
       id="life-2" />
    <path
       style="fill:#000000;stroke-width:0.0401825"
       d="m 66.713351,68.006316 c -0.434085,-0.104611 -0.700856,-0.253626 -1.146453,-0.64039 -0.174341,-0.15132 -0.256313,-0.195649 -0.363106,-0.196354 -0.198738,-0.0013 -0.528803,-0.110375 -0.610334,-0.20167 -0.100697,-0.112758 -0.04594,-0.230783 0.152817,-0.329351 0.212069,-0.105172 0.208516,-0.101442 0.156807,-0.164593 -0.09243,-0.11287 -0.281565,-0.546746 -0.340821,-0.781807 -0.0722,-0.286421 -0.0783,-0.918845 -0.01175,-1.21944 0.04278,-0.193203 0.03749,-0.223571 -0.09313,-0.535023 -0.29235,-0.697136 -0.338174,-1.049234 -0.155052,-1.191331 0.140525,-0.109042 0.545699,-0.107277 1.035986,0.0044 l 0.357777,0.08158 0.225735,-0.210675 c 0.694151,-0.647835 1.426358,-1.051439 2.339072,-1.289336 0.338792,-0.0883 0.469103,-0.100428 1.068937,-0.09945 0.534514,8.32e-4 0.752927,0.01789 1.004068,0.07825 0.727611,0.174871 1.260321,0.43411 1.795258,0.873642 0.301963,0.248109 0.299069,0.264312 -0.05509,0.308555 -0.591213,0.07386 -1.167985,0.354895 -1.490663,0.72635 -0.213825,0.246146 -0.209726,0.287061 0.02891,0.288638 0.515548,0.0034 1.139547,0.289983 1.550916,0.712272 0.295528,0.303373 0.577415,0.775607 0.576162,0.965223 -6.67e-4,0.100944 -0.0091,0.104569 -0.238872,0.103051 -0.618097,-0.0041 -1.218974,0.143322 -1.615761,0.396379 -0.251705,0.160527 -0.25642,0.166602 -0.15919,0.20509 0.381347,0.150959 0.782654,0.382728 0.951861,0.549734 0.322379,0.318185 0.645078,1.023736 0.64256,1.404897 -8.46e-4,0.128068 -0.0069,0.134544 -0.086,0.09155 -0.41669,-0.226561 -1.306673,-0.408245 -2.013515,-0.411047 -0.61661,-0.0025 -0.992077,0.05451 -1.496292,0.226965 -0.832516,0.284747 -1.521504,0.371696 -2.010846,0.253766 z m 0.89726,-1.293685 c 0.260313,-0.13298 0.406456,-0.274279 0.520231,-0.502985 0.292608,-0.588195 0.20641,-1.857695 -0.157045,-2.312871 -0.185759,-0.232638 -0.306053,-0.302885 -0.517884,-0.302426 -0.755705,0.0016 -1.263812,0.62044 -1.434261,1.746734 -0.04007,0.264776 -0.07167,0.362632 -0.126373,0.39145 -0.04012,0.02114 -0.09342,0.02558 -0.118442,0.0099 -0.03191,-0.02001 -0.03678,3.96e-4 -0.01633,0.06835 0.08669,0.288031 0.108411,0.485336 0.06975,0.633524 l -0.04077,0.15629 0.225302,0.02645 c 0.123915,0.01454 0.333552,0.06351 0.465858,0.108789 0.32747,0.112087 0.887656,0.100587 1.129967,-0.0232 z m -0.07231,-0.532146 C 67.396419,66.067356 67.309203,65.779018 67.288608,65.355 c -0.02118,-0.436028 0.02484,-0.556005 0.220081,-0.573674 0.09861,-0.0089 0.153049,0.01421 0.229112,0.09738 0.136665,0.149434 0.182554,0.33023 0.204845,0.807085 0.01763,0.377028 0.0127,0.413203 -0.06694,0.491804 -0.107466,0.106056 -0.206946,0.106908 -0.337399,0.0029 z m -2.000725,0.366822 c 7.9e-5,-0.01194 -0.03525,-0.07095 -0.07852,-0.131115 -0.106413,-0.147985 -0.211665,-0.593019 -0.181896,-0.769105 0.01326,-0.0784 0.06227,-0.170946 0.108922,-0.205655 0.08026,-0.05971 0.08158,-0.07056 0.02443,-0.201723 -0.03322,-0.07623 -0.10095,-0.290849 -0.15052,-0.476911 -0.1087,-0.408001 -0.186516,-0.482413 -0.331931,-0.317408 -0.05328,0.06046 -0.11615,0.177583 -0.139702,0.260268 -0.102738,0.360681 -0.01611,1.061727 0.188474,1.526131 l 0.127853,0.290156 0.186287,0.0161 c 0.102458,0.0089 0.199828,0.01944 0.216376,0.02354 0.01655,0.0041 0.03015,-0.0023 0.03023,-0.01427 z"
       id="life-1" />
    <g
       id="bigring-1"
       transform="rotate(0.37854376,106.65464,117.54124)">
      <ellipse
         style="fill:none;stroke:#000000;stroke-width:0.532;stroke-linecap:round;stroke-miterlimit:4;stroke-dasharray:none;stroke-opacity:1"
         id="path12463-5"
         cx="107.43392"
         cy="76.25872"
         rx="5.1204324"
         ry="5.1412463" />
      <ellipse
         style="fill:none;stroke:#000000;stroke-width:0.518;stroke-linecap:round;stroke-miterlimit:4;stroke-dasharray:none;stroke-opacity:1"
         id="path12463-6-0"
         cx="107.49234"
         cy="76.236526"
         rx="3.8534913"
         ry="3.8691554" />
    </g>
    <g
       id="ring-21"
       transform="rotate(0.37854376,103.0565,135.22788)">
      <ellipse
         style="fill:none;stroke:#000000;stroke-width:0.548;stroke-linecap:round;stroke-miterlimit:4;stroke-dasharray:none;stroke-opacity:1"
         id="path12463-5-7"
         cx="87.274956"
         cy="109.24667"
         rx="3.3493335"
         ry="3.3629482" />
      <ellipse
         style="fill:none;stroke:#000000;stroke-width:0.491737;stroke-linecap:round;stroke-miterlimit:4;stroke-dasharray:none;stroke-opacity:1"
         id="path12463-6-0-0"
         cx="87.302383"
         cy="109.26723"
         rx="2.2995889"
         ry="2.3089366" />
    </g>
    <g
       id="ring-33"
       transform="matrix(1.3223366,0.00873659,-0.00873659,1.3223366,18.664172,-17.523998)">
      <ellipse
         style="fill:none;stroke:#000000;stroke-width:0.548;stroke-linecap:round;stroke-miterlimit:4;stroke-dasharray:none;stroke-opacity:1"
         id="path12463-5-7-6-0"
         cx="87.274956"
         cy="109.24667"
         rx="3.3493335"
         ry="3.3629482" />
      <ellipse
         style="fill:none;stroke:#000000;stroke-width:0.491737;stroke-linecap:round;stroke-miterlimit:4;stroke-dasharray:none;stroke-opacity:1"
         id="path12463-6-0-0-2-7"
         cx="87.302383"
         cy="109.26723"
         rx="2.2995889"
         ry="2.3089366" />
    </g>
    <path
       style="fill:none;stroke:#000000;stroke-width:0.565;stroke-linecap:round;stroke-linejoin:miter;stroke-miterlimit:4;stroke-dasharray:none;stroke-opacity:1"
       d="m 85.39216,123.73122 c -0.761041,-0.68951 -1.685237,-0.99595 -2.620284,-1.37333 l -1.424839,-3.34985 -1.40273,3.31463 c 0.966468,-0.10399 1.909415,-0.0944 2.827569,0.0352 -0.951627,-0.0989 -1.890387,-0.0747 -2.827569,-0.0352 -2.578233,1.11661 -3.146411,2.32075 -4.254466,4.4368 l -3.227796,1.72332 3.478571,1.61877 c -0.477846,-1.24777 -0.170003,-2.48233 -0.250775,-3.34209 -0.108342,1.04585 0.0018,2.1693 0.250775,3.34209 0.883761,1.96288 2.365032,2.84711 4.191689,3.81463 l 1.762238,3.59187 1.719535,-3.70943 c -1.190305,0.40403 -2.267421,0.25293 -3.481773,0.11756 1.175283,0.13968 2.334845,0.14626 3.481773,-0.11756 2.108386,-1.18064 3.451767,-2.73081 3.874805,-4.54685 l 3.094034,-1.50094 -3.091946,-1.31857 c 0.226739,0.95139 0.09583,1.86343 -0.0021,2.81951 0.05671,-0.95572 0.10765,-1.8085 0.0021,-2.81951 -0.246927,-0.50078 -0.682253,-1.07354 -1.038316,-1.52065"
       id="bomb-31"
       sodipodi:nodetypes="cccccccccccccccccccccc" />
    <g
       id="ring-31"
       transform="matrix(1.3223366,0.00873659,-0.00873659,1.3223366,-32.819526,-17.147837)">
      <ellipse
         style="fill:none;stroke:#000000;stroke-width:0.548;stroke-linecap:round;stroke-miterlimit:4;stroke-dasharray:none;stroke-opacity:1"
         id="path12463-5-7-6-0-7"
         cx="87.274956"
         cy="109.24667"
         rx="3.3493335"
         ry="3.3629482" />
      <ellipse
         style="fill:none;stroke:#000000;stroke-width:0.491737;stroke-linecap:round;stroke-miterlimit:4;stroke-dasharray:none;stroke-opacity:1"
         id="path12463-6-0-0-2-7-6"
         cx="87.302383"
         cy="109.26723"
         rx="2.2995889"
         ry="2.3089366" />
    </g>
    <g
       id="ring-23"
       transform="rotate(0.37854376,155.18715,6255.8407)">
      <ellipse
         style="fill:none;stroke:#000000;stroke-width:0.548;stroke-linecap:round;stroke-miterlimit:4;stroke-dasharray:none;stroke-opacity:1"
         id="path12463-5-7-2"
         cx="87.274956"
         cy="109.24667"
         rx="3.3493335"
         ry="3.3629482" />
      <ellipse
         style="fill:none;stroke:#000000;stroke-width:0.491737;stroke-linecap:round;stroke-miterlimit:4;stroke-dasharray:none;stroke-opacity:1"
         id="path12463-6-0-0-6"
         cx="87.302383"
         cy="109.26723"
         rx="2.2995889"
         ry="2.3089366" />
    </g>
    <g
       id="ring-11"
       transform="matrix(0.44758199,0.00295714,-0.00295714,0.44758199,44.905891,54.916078)">
      <ellipse
         style="fill:none;stroke:#000000;stroke-width:0.532;stroke-linecap:round;stroke-miterlimit:4;stroke-dasharray:none;stroke-opacity:1"
         id="path12463-5-8"
         cx="107.43392"
         cy="76.25872"
         rx="5.1204324"
         ry="5.1412463" />
      <ellipse
         style="fill:none;stroke:#000000;stroke-width:0.518;stroke-linecap:round;stroke-miterlimit:4;stroke-dasharray:none;stroke-opacity:1"
         id="path12463-6-0-6"
         cx="107.49234"
         cy="76.236526"
         rx="3.8534913"
         ry="3.8691554" />
    </g>
    <path
       style="fill:none;stroke:#000000;stroke-width:0.273808;stroke-linecap:round;stroke-linejoin:miter;stroke-miterlimit:4;stroke-dasharray:none;stroke-opacity:1"
       d="m 124.40731,87.028096 c -0.36881,-0.334154 -0.8167,-0.482656 -1.26983,-0.665542 l -0.6905,-1.623389 -0.67979,1.606324 c 0.46837,-0.0504 0.92534,-0.04573 1.37029,0.01715 -0.46117,-0.04793 -0.91611,-0.03619 -1.37029,-0.01715 -0.85263,0.413572 -1.49334,0.99395 -1.81485,1.771109 l -0.24693,0.379034 -1.56424,0.835143 1.68578,0.784485 c -0.23158,-0.604686 -0.0824,-1.20298 -0.12154,-1.619628 -0.0525,0.506833 0.001,1.051277 0.12154,1.619628 0.42828,0.951238 1.14612,1.37976 2.03135,1.848629 l 0.854,1.74068 0.83332,-1.797653 c -0.57684,0.195803 -1.09882,0.122573 -1.68732,0.05695 0.56956,0.06766 1.1315,0.07088 1.68732,-0.05695 0.78937,-0.568948 1.56152,-1.3033 1.8778,-2.203472 l 1.49942,-0.72738 -1.49841,-0.638998 c 0.10988,0.461062 0.0464,0.903048 -0.001,1.366378 0.0275,-0.463161 0.0522,-0.876428 0.001,-1.366378 -0.11966,-0.242689 -0.33063,-0.520256 -0.50319,-0.736933"
       id="bomb-13"
       sodipodi:nodetypes="ccccccccccccccccccccccc" />
    <g
       id="ring-13"
       transform="matrix(0.44758199,0.00295714,-0.00295714,0.44758199,74.69695,54.664341)">
      <ellipse
         style="fill:none;stroke:#000000;stroke-width:0.532;stroke-linecap:round;stroke-miterlimit:4;stroke-dasharray:none;stroke-opacity:1"
         id="path12463-5-8-1"
         cx="107.43392"
         cy="76.25872"
         rx="5.1204324"
         ry="5.1412463" />
      <ellipse
         style="fill:none;stroke:#000000;stroke-width:0.518;stroke-linecap:round;stroke-miterlimit:4;stroke-dasharray:none;stroke-opacity:1"
         id="path12463-6-0-6-7"
         cx="107.49234"
         cy="76.236526"
         rx="3.8534913"
         ry="3.8691554" />
    </g>
    <path
       style="fill:#000000;stroke-width:0.0236116"
       d="m 106.86361,124.64932 c -1.71942,-0.11159 -3.32335,-0.55584 -4.78452,-1.32521 -1.0983,-0.5783 -2.02311,-1.26557 -2.902393,-2.15688 -1.906632,-1.93271 -3.050155,-4.37193 -3.345307,-7.1358 -0.0486,-0.4551 -0.04649,-1.87962 0.0034,-2.33184 0.314318,-2.84618 1.53492,-5.36142 3.542829,-7.30055 1.917855,-1.85216 4.354505,-2.97982 7.009315,-3.24385 0.17881,-0.0178 0.3862,-0.032 0.46087,-0.0316 l 0.13577,6.3e-4 -0.003,0.46917 -0.003,0.46918 -0.21851,0.015 c -3.04787,0.20915 -5.90412,1.74899 -7.790884,4.20018 -1.709859,2.22135 -2.492505,5.07494 -2.162316,7.88399 0.422951,3.59819 2.659286,6.7984 5.86874,8.39821 0.48113,0.23984 0.78446,0.36999 1.22479,0.52554 1.99683,0.70538 4.04735,0.8189 6.09135,0.33722 3.8702,-0.91204 6.92157,-3.89169 7.94734,-7.76054 0.67369,-2.54095 0.40413,-5.22898 -0.76156,-7.59398 -0.83772,-1.69961 -2.12303,-3.16167 -3.70562,-4.2152 -1.42028,-0.94548 -3.05526,-1.54194 -4.76408,-1.73798 l -0.14747,-0.0169 0.003,-0.47339 0.003,-0.47339 0.2065,0.0171 c 0.11357,0.01 0.38162,0.0453 0.59567,0.0798 3.75907,0.60602 6.9845,2.99229 8.66765,6.41258 1.03369,2.10055 1.42521,4.48447 1.11366,6.78103 -0.72535,5.34695 -4.9183,9.49818 -10.24243,10.14052 -0.6331,0.0764 -1.47382,0.10398 -2.0429,0.067 z m 0.17241,-2.86554 c -3.97176,-0.26825 -7.320989,-3.19077 -8.13506,-7.09858 -0.243936,-1.17098 -0.247683,-2.49968 -0.01029,-3.65018 0.192798,-0.93438 0.522403,-1.81472 0.983301,-2.62626 1.293033,-2.27675 3.501453,-3.87365 6.051503,-4.3758 0.35787,-0.0704 0.99935,-0.15119 1.01591,-0.12783 0.007,0.009 0.008,0.21597 0.002,0.45933 -0.01,0.43502 -0.0109,0.44263 -0.062,0.45208 -0.0287,0.005 -0.18512,0.027 -0.34759,0.0481 -2.91442,0.38015 -5.45867,2.46794 -6.44869,5.29175 -0.49245,1.40458 -0.587663,2.95759 -0.269943,4.40292 0.270883,1.23226 0.781163,2.3011 1.588853,3.32801 0.23857,0.30333 0.82194,0.89462 1.1401,1.15561 1.21819,0.99926 2.58831,1.58995 4.14394,1.78655 0.41674,0.0527 1.32494,0.0648 1.72353,0.023 0.33351,-0.035 0.83064,-0.12119 1.14651,-0.19886 2.06601,-0.50798 3.87013,-1.84845 4.9687,-3.69175 0.58289,-0.97806 0.93759,-2.03658 1.09048,-3.25443 0.0456,-0.36314 0.0451,-1.32753 -0.001,-1.7355 -0.17321,-1.53523 -0.75458,-2.95464 -1.7019,-4.15519 -0.26571,-0.33673 -0.88711,-0.96601 -1.21738,-1.23281 -1.16766,-0.94326 -2.60559,-1.56421 -4.00853,-1.73098 l -0.14746,-0.0176 0.003,-0.46063 0.003,-0.46062 0.17762,0.0173 c 0.27105,0.0264 0.81115,0.12941 1.17848,0.22483 1.20582,0.31323 2.37415,0.90636 3.36527,1.70844 0.39431,0.3191 1.063,0.99714 1.37097,1.39012 1.52735,1.94897 2.18524,4.36433 1.8556,6.81257 -0.13559,1.00693 -0.45309,1.99855 -0.9355,2.92173 -1.65329,3.16384 -4.97811,5.03408 -8.52362,4.79461 z"
       id="bigring-3" />
    <path
       style="fill:#000000;stroke-width:0.0328256"
       d="m 106.82129,99.039519 c -1.78451,-0.166728 -3.37081,-0.900717 -4.64307,-2.148378 -1.22025,-1.196653 -1.97551,-2.694119 -2.226133,-4.413742 -0.07037,-0.482847 -0.07279,-1.58837 -0.0045,-2.035265 0.231946,-1.516963 0.821746,-2.836741 1.762536,-3.943936 1.07903,-1.269898 2.54209,-2.141698 4.19605,-2.500325 0.25476,-0.05524 1.00754,-0.157059 1.15403,-0.156091 0.0519,3.43e-4 0.0582,0.03512 0.0563,0.312224 l -0.002,0.311834 -0.11889,-7.85e-4 c -0.19231,-0.0013 -0.79247,0.0911 -1.13223,0.174254 -1.71851,0.420619 -3.17899,1.435484 -4.17297,2.899748 -0.26401,0.38892 -0.63215,1.119585 -0.78777,1.563504 -0.79667,2.272634 -0.38126,4.788802 1.10619,6.700276 0.10041,0.129035 0.34548,0.398175 0.5446,0.598089 1.04472,1.048922 2.30096,1.694224 3.8291,1.966956 0.46041,0.08217 1.57167,0.09078 2.06796,0.01616 1.15371,-0.173804 2.24801,-0.625062 3.1695,-1.30703 0.31657,-0.234284 0.90444,-0.791562 1.18451,-1.122854 0.8143,-0.963284 1.36219,-2.18298 1.56316,-3.479849 0.0799,-0.515806 0.0862,-1.46415 0.013,-1.969495 -0.11241,-0.776127 -0.30264,-1.399718 -0.64219,-2.105134 -0.6856,-1.424309 -1.81969,-2.563217 -3.24731,-3.261063 -0.57487,-0.281008 -1.46089,-0.551432 -2.01476,-0.614919 -0.33094,-0.03794 -0.31174,-0.01604 -0.30951,-0.353222 l 0.002,-0.298031 0.24774,0.02261 c 0.72935,0.06651 1.69017,0.362775 2.48805,0.767183 2.24428,1.137531 3.78142,3.341622 4.09585,5.872988 0.0623,0.501396 0.0563,1.416127 -0.0126,1.915601 -0.4202,3.049057 -2.54606,5.504076 -5.48969,6.339682 -0.77804,0.220864 -1.88108,0.323535 -2.677,0.249172 z m -0.0549,-1.415516 c -1.80065,-0.245028 -3.38482,-1.241393 -4.37324,-2.750564 -1.02686,-1.567848 -1.28366,-3.542069 -0.69435,-5.338128 0.3092,-0.942404 0.83568,-1.784807 1.54667,-2.474793 0.65488,-0.635529 1.23761,-1.017897 2.03891,-1.337866 0.54014,-0.21568 1.3421,-0.406138 1.70144,-0.404069 l 0.12309,7.08e-4 -0.002,0.306863 -0.002,0.306861 -0.28749,0.03781 c -3.06538,0.403065 -5.21463,3.306984 -4.72964,6.390364 0.27186,1.72841 1.40066,3.279851 2.96176,4.070666 1.79024,0.9069 3.87855,0.78797 5.55114,-0.316138 1.20997,-0.798726 2.04505,-2.030887 2.37414,-3.503035 0.0675,-0.301984 0.0776,-0.436705 0.082,-1.09914 0.004,-0.661554 -0.004,-0.7971 -0.0669,-1.095416 -0.36749,-1.740261 -1.44092,-3.151396 -2.97742,-3.914119 -0.54603,-0.271053 -1.04576,-0.425849 -1.7342,-0.537182 l -0.12296,-0.01987 0.002,-0.314882 0.002,-0.314883 0.205,0.02287 c 1.04723,0.116745 2.22801,0.636524 3.13983,1.382156 0.29532,0.241487 0.74091,0.713361 0.98817,1.046437 1.69696,2.286026 1.62831,5.428592 -0.16665,7.627758 -1.0041,1.230205 -2.40714,2.013644 -3.98015,2.222456 -0.39293,0.05215 -1.21413,0.05485 -1.57918,0.0052 z"
       id="bigring-2" />
    <path
       style="fill:#000000;stroke-width:0.0691948"
       d="m 144.13404,163.86996 c -0.40051,0.0208 -0.77933,-0.0853 -1.10015,-0.29681 -0.42574,-0.29034 -0.78224,-0.63895 -1.10719,-1.03004 -0.46984,-0.26447 -0.27678,-0.99641 -0.64958,-1.28156 -0.31765,-0.014 -0.56908,-0.26981 -0.84704,-0.33884 -0.28632,-0.21087 -0.27448,-0.53806 -0.58454,-0.72816 -0.16231,-0.36004 -0.16001,-0.82791 -0.57034,-1.01973 -0.29713,-0.27453 -0.36319,-0.4702 -0.4643,-0.88965 -0.16408,-0.38753 -0.066,-0.97108 -0.54545,-1.1228 -0.3493,-0.27479 -0.57821,0.42169 -0.5577,0.71885 -0.10159,0.75496 -0.39829,1.46904 -0.60217,2.20096 -0.38205,0.35519 -0.59921,-0.201 -0.48268,-0.55156 -0.0205,-0.78717 0.0377,-1.59248 -0.0306,-2.36864 -0.0635,-0.39285 -0.51833,-0.30765 -0.48147,-0.71643 -0.10364,-0.35841 -0.43934,-0.606 -0.35502,-1.00658 -0.0763,-0.50683 0.0803,-1.07865 -0.18033,-1.53398 -0.34928,0.51873 -0.1498,1.18944 -0.23185,1.78218 -0.0427,0.3794 0.10307,0.83693 -0.28579,1.07275 -0.26453,0.12565 -0.77869,0.0704 -0.98832,-0.2023 0.1183,-0.32256 0.37736,-0.74771 0.25918,-1.06578 -0.35382,-0.16743 -0.55378,0.3539 -0.71818,0.60396 -0.43387,0.53511 -1.05263,0.93163 -1.36229,1.55678 -0.47089,0.35534 -0.81191,1.06662 -1.49357,0.95302 -0.49406,-0.029 -1.07327,-0.15724 -1.47896,0.19284 -0.37016,-0.0606 -0.65671,0.22278 -1.03656,0.15364 -0.37171,-0.0125 -0.8819,0.1509 -1.15506,-0.0949 -0.20412,-0.36067 -0.64977,-0.61011 -0.6787,-1.08213 -0.25446,-0.56698 -0.26372,-1.17104 -0.23526,-1.78083 -0.12265,-0.46103 0.36393,-0.77649 0.31834,-1.2194 -0.23365,-0.16631 -0.029,-0.64676 0.15724,-0.83315 0.42307,-0.0409 0.83914,-4.6e-4 1.19251,0.26249 0.32087,0.22513 0.44818,0.64743 0.83923,0.21058 0.26692,-0.31265 0.86755,-0.16177 0.87858,-0.64755 0.20074,-0.35479 0.009,-0.87429 0.34816,-1.12789 0.43798,-0.13961 0.64175,0.45017 0.75559,0.77587 0.0233,0.53325 0.0467,1.06652 0.0698,1.59979 0.45543,0.0804 0.824,0.53699 1.2773,0.52029 0.55396,-0.0793 0.46657,-0.75285 0.4931,-1.17455 0.0833,-0.35406 -0.0329,-0.82617 -0.0675,-1.0771 0.38463,0.27696 0.75383,0.78526 1.29169,0.76498 0.24376,-0.21367 0.43688,-0.39274 0.52318,-0.6341 0.0632,-0.32492 0.39251,-0.51022 0.28187,-0.9031 5.2e-4,-0.38148 0.30054,-0.55956 0.21468,-0.94288 0.0892,-0.61399 -0.51433,-0.0447 -0.4748,0.2845 -0.16832,0.60329 -0.31202,1.28301 -0.77738,1.72568 -0.63762,-0.20839 -0.94109,-0.8989 -1.30832,-1.41421 -0.18092,-0.34596 -0.14211,-0.90583 -0.62261,-0.96017 -0.47456,-1.23344 -1.13397,-2.41568 -1.30234,-3.74505 -0.48477,-0.56516 -1.01832,-1.18832 -1.14871,-1.93578 0.0125,-0.38604 -0.11909,-0.94293 0.39532,-1.0357 0.53121,-0.33215 1.14757,0.0919 1.69633,0.0192 0.55032,-0.28618 1.02463,-0.68751 1.53076,-1.03173 0.42478,-0.15895 0.74693,-0.51345 1.22826,-0.50513 0.53083,-0.16311 1.34938,-0.012 1.5245,-0.6923 0.23762,-0.40385 0.55416,-0.80116 0.90338,-1.10964 0.28236,-0.27354 0.73165,-0.32975 0.88992,0.10348 0.57507,0.71181 0.77305,1.67268 1.27809,2.40723 0.78127,0.30343 1.30358,0.99512 1.70986,1.70003 -5.8e-4,0.54111 -0.65129,0.52598 -1.0463,0.64397 -0.88248,0.30211 -1.80865,0.43706 -2.73168,0.56682 -0.35443,0.34817 0.44045,0.3985 0.69618,0.29753 0.49386,-0.0311 1.04721,-0.18209 1.50282,-0.17005 0.56764,1.0374 0.79345,2.23872 0.69645,3.41461 0.26208,0.24974 0.0537,0.39517 0.002,0.62674 7.8e-4,0.63733 -0.12903,1.28568 -0.26947,1.89779 -0.2553,0.21415 -0.2345,0.80697 -0.64572,0.72527 -0.29708,-0.18447 -0.58454,-0.29716 -0.81819,-0.5305 -0.41315,-0.47424 -0.90347,-0.90706 -1.18181,-1.47781 -0.53196,-0.1173 -0.11716,0.44215 0.0162,0.65694 0.38779,0.53181 0.83486,1.04361 1.28797,1.51513 0.41847,0.20258 0.80359,0.4964 1.27763,0.54696 0.29837,-0.67262 0.31309,-1.43595 0.61294,-2.09957 0.0383,-0.40021 0.1552,-0.68966 0.42603,-0.92637 0.16355,-0.62515 0.28865,0.0943 0.65594,-0.0581 0.50901,-0.19913 1.1052,-0.63757 1.06695,-1.24446 -0.42043,-0.0564 -0.85129,-0.18501 -1.22343,0.0939 -0.45641,0.0611 -0.11725,-0.41043 -0.57994,-0.46821 -0.37107,-0.31533 -0.18876,-0.89163 -0.38334,-1.3123 -0.11728,-0.45375 -0.16915,-0.93091 -0.41963,-1.33699 0.055,-0.43019 0.68089,-0.18661 0.75733,-0.46442 0.45558,-0.0773 0.55409,0.53447 0.87773,0.75262 0.2852,0.16375 0.43706,0.56623 0.63539,0.64132 0.007,0.36441 0.45329,0.5809 0.46612,0.97518 0.29243,0.24197 0.29472,0.59674 0.27383,0.9754 -0.14148,0.50693 0.19383,0.53122 0.60359,0.48017 0.29967,-0.31985 0.5855,-0.66312 1.05313,-0.69859 0.52748,-0.13372 1.09982,-0.003 1.63587,0.0328 0.37667,0.10472 0.7265,0.24584 0.90458,0.61977 0.2503,0.31686 0.60148,0.59022 0.47159,1.03867 -0.0395,0.43156 0.0504,0.91959 -0.0677,1.31687 -0.31547,0.25821 -0.58063,0.6428 -0.92648,0.82464 -0.42803,0.10811 -0.70413,-0.1619 -1.06622,-0.16761 -0.52176,0.0597 -1.14103,-5.4e-4 -1.50144,-0.41986 -0.5775,0.11736 -1.10258,0.46872 -1.49038,0.90609 0.3273,0.16891 0.67488,0.41794 1.0539,0.42268 0.23512,-0.26357 0.20557,-0.78934 0.42921,-0.9613 0.31086,0.072 0.14545,0.67993 0.01,0.92418 -0.14198,0.35959 -0.37735,0.70165 -0.77637,0.41732 -0.44982,-0.28698 -0.70326,0.051 -0.34305,0.41686 0.22114,0.21919 0.70149,-0.27536 0.71379,0.26327 0.0224,0.35733 0.49294,0.63721 0.74233,0.33589 0.40854,-0.46994 0.97546,-0.697 1.52112,-0.96585 0.36123,0.0371 0.67834,-0.32652 0.80567,-0.54825 0.33806,0.1482 0.5183,0.52508 0.76325,0.76784 0.49147,0.51269 1.23077,0.72213 1.60485,1.35551 0.27932,0.32201 0.514,0.69129 0.8888,0.91222 0.29608,0.91281 -0.0131,1.8971 0.13899,2.81622 0.19737,0.35241 0.0907,0.81377 -0.0428,1.16364 -0.1344,0.47124 -0.5747,0.33779 -0.95571,0.32156 -0.39247,0.0194 -0.80874,-0.11789 -1.18362,0.0174 -0.0925,0.32855 -0.45383,0.46004 -0.15573,0.88538 0.13646,0.36565 0.0502,0.79563 -0.0147,1.16034 -0.19631,0.35814 -0.65592,0.63608 -1.05536,0.43478 -0.35719,-0.0768 -0.78815,-0.20883 -1.12432,-0.12064 -0.19386,0.28942 -0.38257,0.34071 -0.72101,0.2983 z m -0.26109,-0.41638 c 0.40777,6.9e-4 0.6846,-0.43843 1.03775,-0.62123 0.10457,-0.34605 0.57358,-0.51897 0.82358,-0.79595 0.48307,-0.42752 0.93407,-0.89105 1.40477,-1.33246 0.0379,-0.34159 0.48617,-0.50625 0.68016,-0.78056 -0.006,-0.36554 0.64258,-0.42779 0.50697,-0.85252 0.2611,-0.18858 0.36637,-0.57868 0.47956,-0.86615 0.009,-0.45579 -0.006,-0.90594 -0.28484,-1.28935 -0.10704,-0.39266 -0.58013,-0.38917 -0.72888,-0.78111 -0.1138,-0.33265 -0.48523,-0.60996 -0.79611,-0.80149 -0.35204,0.11198 -0.21219,0.64982 -0.24987,0.9712 -0.0349,0.71586 -0.34119,1.39408 -0.56576,2.06572 -0.47183,0.96926 -1.43506,1.56633 -2.19106,2.30116 -0.38389,0.42906 -1.05626,0.3065 -1.47519,0.70778 -0.2566,-0.15804 -0.81247,0.22655 -0.5114,0.51924 0.21823,0.28007 0.39432,0.43838 0.60127,0.69623 0.0599,0.40351 0.60439,0.34848 0.67006,0.69512 0.19854,0.0611 0.38526,0.17856 0.59899,0.16437 z m 2.38566,-0.11715 c 0.48825,0.0306 0.4906,-0.48824 0.45349,-0.85186 0.0707,-0.52516 -0.54023,-0.13366 -0.68508,0.11798 -0.40567,0.20813 -0.34716,0.63797 0.0913,0.7302 0.0467,0.001 0.0935,0.003 0.14026,0.004 z m -4.36056,-2.51711 c 0.6713,-0.0474 1.33838,-0.2703 1.90146,-0.64725 0.27207,-0.20272 0.71069,-0.43195 0.71884,-0.79476 -0.19707,-0.34086 -0.53363,0.30931 -0.77795,0.42361 -0.50638,0.46896 -1.23381,0.57579 -1.89343,0.68423 -0.21218,0.10804 -0.29976,0.42294 0.0511,0.33417 z m 6.57425,0.0171 c 0.40012,0.0992 0.7626,-0.22 0.62737,-0.62955 0.0533,-0.52025 -0.45675,-0.54659 -0.58033,-0.16988 -0.252,0.19424 -0.66816,0.40645 -0.68886,0.74214 0.20979,0.0951 0.41932,0.0664 0.64182,0.0574 z m -3.48626,-1.93422 c 0.36584,-0.0515 0.67504,-0.33585 0.72659,-0.71631 0.17453,-0.32444 -0.19799,-0.79798 -0.54952,-0.73564 -0.25919,0.33477 -0.8076,0.7732 -0.43373,1.20594 0.0854,0.0873 0.0933,0.2971 0.25666,0.24601 z m 0.14269,-0.34503 c -0.46698,-0.16256 -0.11831,-0.55156 0.11506,-0.77306 0.21925,0.29097 0.2861,0.63282 -0.11506,0.77306 z m -5.41955,0.21954 c 0.18941,-0.25485 0.072,-0.75002 0.14799,-1.09375 -0.18104,-0.49032 -0.12766,-1.02808 -0.2035,-1.52697 0.0248,-0.38356 0.53765,-0.31907 0.80183,-0.53686 0.002,-0.40278 0.31377,-0.49518 0.28726,-0.81532 0.0101,-0.47203 -0.67069,-0.22959 -0.6843,0.13852 -0.14007,0.38313 -0.17231,0.58695 -0.52529,0.26366 -0.5732,-0.0551 -1.14642,-0.11013 -1.71965,-0.16521 -0.46729,0.26592 0.13322,0.51647 0.4331,0.50672 0.48389,0.13992 0.96784,0.18581 1.45197,0.0209 0.17718,0.20966 -0.46557,0.57537 -0.41997,0.90263 -0.0551,0.3128 -0.33252,0.57029 -0.19733,0.93702 0.16153,0.47661 0.12817,1.05731 0.55477,1.39237 l 0.0622,-0.02 0.011,-0.004 z m -11.77872,-0.48253 c 0.33043,-0.27357 0.64407,0.21255 0.76022,-0.26443 0.44461,-0.23152 -0.004,-0.34822 -0.0931,-0.64575 0.0517,-0.4392 -0.0976,-0.94264 0.25078,-1.28708 -0.11729,-0.0467 0.28518,-0.56112 0.40845,-0.75255 0.3072,-0.1979 0.74054,-0.25455 0.96876,-0.5409 -0.007,-0.54865 0.22089,-1.13172 -0.0688,-1.63875 -0.29836,0.3948 -0.16004,0.98419 -0.50048,1.34602 -0.43592,-0.11318 -0.5688,0.12444 -0.87496,0.32061 -0.32227,0.1806 -0.65584,0.50024 -0.89176,0.005 -0.11285,-0.37135 -0.64425,-0.20376 -0.86705,-0.51591 -0.30636,0.16911 -0.005,0.2284 -0.0853,0.61617 -0.0911,0.43144 -0.32436,0.83945 -0.31996,1.28405 0.25719,0.12608 -0.10054,0.68706 0.0451,0.9893 0.0112,0.37351 0.2016,0.77287 0.50836,0.95317 0.31497,0.0708 0.38676,0.41266 0.75973,0.13113 z m 2.82718,-0.0489 c 0.32899,0.0522 0.71016,-0.38473 0.25768,-0.34869 -0.25912,-0.34239 -0.83132,-0.30846 -1.01388,-0.69051 -0.079,-0.55347 0.14962,-1.24175 0.77934,-1.32021 0.52918,-0.0943 0.0845,-0.46478 -0.25309,-0.3643 -0.42125,-0.20637 -0.5588,0.22002 -0.89654,0.34045 -0.4946,0.11496 -0.58357,0.61627 -0.71442,1.03119 0.19512,0.52024 0.6316,0.9088 1.05835,1.22551 0.25733,0.0591 0.51805,0.11605 0.78256,0.12656 z m 10.15883,-0.093 c 0.61751,-0.0566 1.2972,-0.21824 1.71521,-0.68862 0.18939,-0.3173 0.22704,-0.7347 -0.27526,-0.58555 -0.47601,-0.14041 0.26371,-0.63721 0.0663,-0.95089 -0.002,-0.40654 -0.45966,-0.53385 -0.69221,-0.21518 -0.27741,0.20642 -0.15178,0.64431 -0.51299,0.81085 -0.35506,0.14603 -0.72123,-0.28273 -0.98397,-0.0338 -0.33186,0.40975 0.4542,0.36401 0.15143,0.76929 -0.12937,0.30994 -0.0902,0.87968 0.26899,0.92274 0.0876,-0.01 0.17501,-0.0191 0.26252,-0.0288 z m 3.27159,-0.5701 c 0.31203,-0.13916 0.58011,-0.49636 0.48629,-0.87135 0.0794,-0.42827 -0.48009,-0.57813 -0.52823,-0.91608 -0.38539,-0.28445 -0.43459,0.2909 -0.61931,0.4298 0.0393,0.41205 -0.0438,0.87822 0.36681,1.12611 0.0997,0.0663 0.15975,0.2504 0.29444,0.23152 z m -12.65984,-0.39407 c 0.29101,-0.10928 0.57361,-0.39137 0.91509,-0.51171 0.41933,-0.32787 0.8153,-0.67545 1.03503,-1.17167 0.36834,-0.0988 0.35179,-0.72633 -0.051,-0.8534 -0.34409,-0.0376 -0.55947,-0.72817 -0.56947,-0.0927 -0.0328,0.42413 0.003,0.87063 -0.31482,1.20124 -0.27717,0.23307 -0.62876,0.5066 -1.01816,0.47249 -0.22684,0.12096 -0.875,0.34074 -0.48082,0.63188 0.15912,0.10413 0.2631,0.39796 0.48411,0.32383 z m 14.43447,-0.009 c 0.26795,-0.14498 0.4118,-0.64359 0.41859,-0.98126 0.001,-0.24164 0.17445,-0.99918 -0.20544,-0.73192 -0.21774,0.28182 -0.0587,0.69435 -0.23949,1.01461 -0.0138,0.18947 -0.30324,0.6833 0.0263,0.69856 z m -5.58823,-3.79895 c 0.15935,-0.27248 0.50131,-0.28162 0.77008,-0.48259 0.38452,-0.42703 0.67915,-0.95481 0.58977,-1.5495 -0.0356,-0.51766 -0.55351,-0.13342 -0.82627,-0.0155 -0.44882,-0.012 -0.42806,0.41874 -0.44238,0.7872 -0.0702,0.34686 0.14893,0.85665 -0.29115,0.99515 -0.11673,0.13076 -0.0405,0.48283 0.19995,0.26461 z m 1.3794,-0.38064 c 0.47036,-0.16955 0.85957,-0.63858 1.3639,-0.68292 0.50942,-0.13376 0.31076,-0.72312 0.36286,-1.12276 -0.0542,-0.40816 -0.45681,-0.78213 -0.88629,-0.72839 -0.30197,-0.1376 -0.90413,0.10317 -0.64594,0.47276 0.2526,0.46326 0.0995,1.01635 0.0326,1.50223 -0.0615,0.17347 -0.34376,0.40337 -0.22705,0.55908 z m 3.83894,-0.11303 c 0.30975,0.0161 0.72125,-0.3295 0.71443,-0.6446 -0.0644,-0.68482 0.18198,-1.44902 -0.18983,-2.06456 -0.38753,-0.47247 -1.08256,-0.54155 -1.6551,-0.52504 -0.42029,0.1054 -0.98329,0.085 -1.19015,0.53976 0.35081,0.42154 0.65494,0.91615 0.54766,1.48592 0.0316,0.3753 -0.16133,0.87305 0.32403,1.00084 0.31842,0.0878 0.83849,0.1319 1.0464,-0.20302 0.30085,-0.47818 0.44306,0.0762 0.21235,0.34868 -0.11679,0.1274 0.15432,0.0329 0.19021,0.0621 z"
       id="sonic-right" />
  </g>
</svg>
